<svg xmlns="http://www.w3.org/2000/svg" xmlns:xlink="http://www.w3.org/1999/xlink" width="200" zoomAndPan="magnify" viewBox="0 0 150 149.999998" height="200" preserveAspectRatio="xMidYMid meet" version="1.2"><defs><clipPath id="7f2ce47d77"><path d="M 0 9 L 150 9 L 150 140.625 L 0 140.625 Z M 0 9 "/></clipPath><clipPath id="fecba4bbf4"><path d="M 5.945312 30.332031 C -6.214844 50.367188 2.351562 69.871094 13.121094 80.222656 L 76.078125 140.625 L 137.707031 80.4375 C 147.722656 69.304688 151.5625 57.492188 149.429688 44.339844 C 146.484375 26.148438 131.492188 12.03125 112.972656 10.015625 C 101.613281 8.792969 90.640625 12.007812 82.078125 19.125 C 79.773438 21.039062 77.710938 23.179688 75.917969 25.507812 C 73.785156 22.855469 71.289062 20.433594 68.460938 18.285156 C 58.613281 10.800781 46.078125 7.832031 34.039062 10.140625 C 22.632812 12.34375 12.398438 19.699219 5.945312 30.332031 Z M 5.945312 30.332031 "/></clipPath></defs><g id="6a6ad2d3ea"><g clip-rule="nonzero" clip-path="url(#7f2ce47d77)"><g clip-rule="nonzero" clip-path="url(#fecba4bbf4)"><path style=" stroke:none;fill-rule:nonzero;fill:#2196f3;fill-opacity:1;" d="M 0 9.375 L 150.21875 9.375 L 150.21875 140.625 L 0 140.625 Z M 0 9.375 "/></g></g></g></svg>