<svg xmlns="http://www.w3.org/2000/svg" xmlns:xlink="http://www.w3.org/1999/xlink" width="200" zoomAndPan="magnify" viewBox="0 0 150 149.999998" height="200" preserveAspectRatio="xMidYMid meet" version="1.2"><defs><clipPath id="bc4388c4eb"><path d="M 70 22.5 L 105.035156 22.5 L 105.035156 135 L 70 135 Z M 70 22.5 "/></clipPath><clipPath id="9df09e19de"><path d="M 45.035156 56 L 56 56 L 56 67 L 45.035156 67 Z M 45.035156 56 "/></clipPath></defs><g id="7fe85ac847"><path style=" stroke:none;fill-rule:nonzero;fill:#11263c;fill-opacity:1;" d="M 66.921875 85.222656 C 66.832031 85.222656 66.742188 85.175781 66.6875 85.089844 C 66.617188 84.976562 66.625 84.832031 66.703125 84.734375 C 66.90625 84.332031 67.996094 80.5625 68.035156 76.101562 C 68.039062 75.941406 68.164062 75.808594 68.320312 75.808594 C 68.476562 75.808594 68.601562 75.945312 68.601562 76.109375 C 68.554688 80.730469 67.378906 84.960938 67.078125 85.171875 C 67.027344 85.207031 66.976562 85.222656 66.921875 85.222656 Z M 66.765625 84.675781 Z M 66.765625 84.675781 Z M 66.765625 84.675781 "/><g clip-rule="nonzero" clip-path="url(#bc4388c4eb)"><path style=" stroke:none;fill-rule:nonzero;fill:#b46831;fill-opacity:1;" d="M 85.679688 77.761719 C 85.679688 77.761719 84.671875 84.214844 85.578125 85.425781 C 86.488281 86.632812 89.113281 89.660156 90.425781 90.464844 C 90.425781 90.464844 89.113281 94.296875 90.222656 97.320312 C 91.332031 100.34375 91.535156 103.570312 92.039062 104.578125 C 92.542969 105.585938 92.542969 107.90625 94.257812 108.308594 C 95.976562 108.714844 101.628906 114.964844 100.820312 117.585938 C 100.011719 120.207031 100.214844 122.121094 99.8125 122.726562 C 99.40625 123.332031 96.378906 124.136719 96.378906 125.347656 C 96.378906 125.949219 95.304688 130.339844 94.226562 134.996094 L 105.03125 134.996094 L 105.03125 22.523438 L 99.105469 23.925781 L 94.257812 26.042969 L 70.035156 37.132812 L 73.164062 45.300781 L 72.863281 49.835938 L 78.414062 63.546875 L 82.449219 77.058594 C 82.449219 77.058594 84.265625 78.265625 85.679688 77.761719 Z M 85.679688 77.761719 "/></g><path style=" stroke:none;fill-rule:nonzero;fill:#fdb8a3;fill-opacity:1;" d="M 80.832031 109.027344 L 78.589844 111.351562 C 78.589844 111.351562 83.804688 115.265625 83.632812 116.128906 C 83.457031 116.988281 86.214844 115.957031 86.171875 114.535156 C 86.128906 113.113281 80.832031 109.027344 80.832031 109.027344 Z M 80.832031 109.027344 "/><path style=" stroke:none;fill-rule:nonzero;fill:#1f2f48;fill-opacity:1;" d="M 83.75 115.558594 C 84.648438 115.5625 86.007812 115.375 86.09375 114.238281 C 86.09375 114.238281 85.429688 113.59375 86.472656 113.296875 C 87.515625 113 89.953125 112.199219 90.363281 111.839844 C 90.769531 111.480469 92.628906 110.570312 92.566406 112.742188 C 92.503906 114.917969 88.957031 116.136719 88.957031 116.136719 C 88.957031 116.136719 87.742188 118.707031 86.511719 119.058594 C 85.390625 119.378906 84.347656 118.78125 83.285156 116.300781 C 83.136719 115.953125 83.378906 115.558594 83.75 115.558594 Z M 83.75 115.558594 "/><path style=" stroke:none;fill-rule:nonzero;fill:#fdb8a3;fill-opacity:1;" d="M 78.429688 94.617188 C 78.429688 94.617188 80.695312 100.03125 80.472656 101.675781 C 80.25 103.320312 83.273438 101.988281 83.453125 101.144531 C 83.453125 101.144531 82.339844 97.234375 82.25 93.59375 C 82.164062 89.953125 78.429688 94.617188 78.429688 94.617188 Z M 78.429688 94.617188 "/><path style=" stroke:none;fill-rule:nonzero;fill:#1f2f48;fill-opacity:1;" d="M 80.640625 101.167969 C 81.511719 101.414062 82.886719 101.605469 83.289062 100.542969 C 83.289062 100.542969 82.820312 99.746094 83.921875 99.746094 C 85.019531 99.746094 87.613281 99.644531 88.113281 99.414062 C 88.613281 99.179688 90.675781 98.816406 90.011719 100.875 C 89.34375 102.9375 85.550781 103.136719 85.550781 103.136719 C 85.550781 103.136719 83.652344 105.265625 82.355469 105.265625 C 81.175781 105.265625 80.324219 104.410156 79.980469 101.746094 C 79.929688 101.375 80.277344 101.066406 80.640625 101.167969 Z M 80.640625 101.167969 "/><path style=" stroke:none;fill-rule:nonzero;fill:#fdb8a3;fill-opacity:1;" d="M 55.757812 72.78125 C 56.472656 72.65625 56.886719 72.953125 59.492188 74.429688 C 61.144531 75.367188 62.824219 76.253906 64.472656 77.195312 L 62.832031 79.679688 C 61.722656 79.5625 60.402344 79.324219 58.960938 78.847656 C 56.289062 77.972656 54.316406 76.648438 53.042969 75.625 C 53.433594 74.714844 54.296875 73.035156 55.757812 72.78125 Z M 55.757812 72.78125 "/><path style=" stroke:none;fill-rule:nonzero;fill:#1f2536;fill-opacity:1;" d="M 52.660156 89.691406 C 52.660156 89.691406 52.648438 89.8125 52.644531 90.027344 C 52.617188 91.339844 52.914062 96.164062 58.601562 98.421875 C 65.222656 101.050781 77.617188 110.289062 79.144531 112.917969 C 79.144531 112.917969 82.027344 112.070312 82.792969 109.953125 C 82.792969 109.953125 74.136719 95.285156 61.148438 92.996094 L 55.632812 87.148438 Z M 52.660156 89.691406 "/><path style=" stroke:none;fill-rule:nonzero;fill:#d38e16;fill-opacity:1;" d="M 63.832031 101.011719 C 64.726562 99.554688 66.328125 96.832031 67.066406 95.027344 C 67.101562 94.941406 67.0625 94.847656 66.980469 94.808594 C 66.355469 94.519531 65.71875 94.253906 65.066406 94.015625 C 64.8125 94.261719 64.644531 94.445312 64.644531 94.445312 C 64.644531 94.445312 62.707031 98.5 61.097656 99.523438 C 61.027344 99.566406 61.035156 99.667969 61.105469 99.707031 C 61.882812 100.105469 62.730469 100.589844 63.566406 101.078125 C 63.65625 101.132812 63.777344 101.105469 63.832031 101.011719 Z M 63.832031 101.011719 "/><path style=" stroke:none;fill-rule:nonzero;fill:#1d2c40;fill-opacity:1;" d="M 52.882812 92.734375 C 52.882812 92.734375 55.921875 97.683594 63.132812 95.015625 C 70.34375 92.351562 75.609375 87.8125 75.609375 87.8125 C 75.609375 87.8125 78.132812 94.222656 77.773438 95.449219 C 77.414062 96.671875 82.605469 94.945312 82.75 94.226562 C 82.894531 93.503906 80.875 87.382812 81.234375 85.652344 C 81.597656 83.925781 79.863281 79.027344 75.683594 80.898438 C 71.5 82.773438 63.460938 85.742188 60.800781 85.5625 C 58.140625 85.378906 52.882812 92.734375 52.882812 92.734375 Z M 52.882812 92.734375 "/><path style=" stroke:none;fill-rule:nonzero;fill:#fdb8a3;fill-opacity:1;" d="M 55.261719 60.339844 C 55.261719 60.339844 56.011719 61.707031 56.441406 62.320312 C 56.441406 62.320312 57.058594 62.507812 57.085938 62.75 C 57.113281 62.992188 56.871094 63.5 57.03125 63.765625 C 57.191406 64.035156 57.246094 65.160156 57.140625 65.425781 C 57.03125 65.695312 53.039062 70.511719 52.582031 70.671875 C 52.128906 70.835938 50.4375 72.492188 50.679688 67.40625 C 50.921875 62.320312 51.027344 61.386719 55.261719 60.339844 Z M 55.261719 60.339844 "/><path style=" stroke:none;fill-rule:nonzero;fill:#e7633d;fill-opacity:1;" d="M 52.90625 69.292969 C 52.90625 69.292969 49.871094 69.484375 49.683594 70.191406 C 49.683594 70.191406 47.265625 73.460938 49.210938 81.324219 C 51.152344 89.183594 52.339844 92.832031 53.097656 93.113281 C 53.855469 93.398438 56.035156 91.410156 56.890625 90.273438 C 57.742188 89.136719 59.59375 86.34375 61.347656 85.773438 C 63.101562 85.207031 59.308594 84.402344 59.214844 83.359375 C 59.214844 83.359375 57.507812 73.460938 58.597656 70.191406 Z M 52.90625 69.292969 "/><path style=" stroke:none;fill-rule:nonzero;fill:#fdb8a3;fill-opacity:1;" d="M 58.515625 64.917969 C 58.585938 64.191406 58.980469 63.871094 61.101562 61.75 C 62.445312 60.402344 63.753906 59.015625 65.101562 57.675781 L 67.066406 59.917969 C 66.660156 60.957031 66.078125 62.171875 65.238281 63.4375 C 63.679688 65.78125 61.878906 67.332031 60.550781 68.289062 C 59.769531 67.675781 58.375 66.394531 58.515625 64.917969 Z M 58.515625 64.917969 "/><path style=" stroke:none;fill-rule:nonzero;fill:#fdb8a3;fill-opacity:1;" d="M 71.464844 48.957031 C 71.464844 48.957031 68.671875 60.84375 65.828125 60.746094 C 65.75 60.742188 65.300781 60.71875 64.972656 60.40625 C 63.480469 58.980469 66.253906 53.277344 68.902344 48.625 Z M 71.464844 48.957031 "/><path style=" stroke:none;fill-rule:nonzero;fill:#e7633d;fill-opacity:1;" d="M 59.242188 63.304688 C 59.410156 63.960938 59.730469 64.960938 60.367188 66.050781 C 61.175781 67.429688 61.722656 67.640625 61.738281 68.363281 C 61.765625 69.488281 60.46875 69.785156 58.910156 71.621094 C 57.0625 73.792969 57.445312 75.066406 56.292969 75.417969 C 54.789062 75.878906 52.378906 74.269531 51.847656 72.097656 C 51.664062 71.347656 51.695312 70.476562 52.058594 69.496094 C 52.058594 69.496094 55.84375 65.148438 59.242188 63.304688 Z M 59.242188 63.304688 "/><path style=" stroke:none;fill-rule:nonzero;fill:#002233;fill-opacity:1;" d="M 47.25 64.277344 C 47.25 64.277344 47.355469 67.460938 50.0625 68.34375 C 50.875 68.609375 51.519531 68.566406 52.023438 68.371094 C 53.078125 67.96875 53.757812 66.808594 53.628906 66.660156 C 53.601562 66.625 53.53125 66.636719 53.46875 66.660156 C 52.167969 66.171875 51.257812 65.539062 51.242188 65.019531 C 51.238281 64.777344 51.351562 64.597656 51.351562 64.597656 C 51.5625 64.261719 52.019531 64.230469 52.125 64.222656 C 52.636719 64.1875 53.019531 64.480469 53.066406 64.515625 C 53.511719 64.871094 53.65625 65.171875 53.824219 65.371094 C 53.902344 65.464844 54.050781 65.382812 54.015625 65.265625 C 53.855469 64.78125 53.660156 64.109375 53.628906 63.6875 C 53.574219 62.964844 53.332031 62.027344 54.136719 62.324219 C 54.941406 62.617188 54.914062 61.921875 54.914062 61.839844 C 54.914062 61.761719 54.539062 61.304688 55.34375 61.277344 C 56.246094 61.25 55.285156 60.84375 56.585938 60.71875 C 56.832031 60.691406 57.054688 60.507812 57.066406 60.257812 C 57.117188 59.421875 55.019531 59.003906 55.019531 59.003906 C 55.019531 59.003906 52.582031 57.90625 51.242188 59.03125 C 49.902344 60.152344 47.195312 64.140625 47.25 64.277344 Z M 47.25 64.277344 "/><g clip-rule="nonzero" clip-path="url(#9df09e19de)"><path style=" stroke:none;fill-rule:nonzero;fill:#e9d13a;fill-opacity:1;" d="M 54.65625 58.679688 C 53.605469 57.261719 51.855469 56.390625 49.914062 56.582031 C 47.492188 56.820312 45.519531 58.757812 45.246094 61.171875 C 45.03125 63.054688 45.820312 64.769531 47.148438 65.84375 C 47.148438 65.84375 47.414062 66.417969 47.703125 65.992188 C 48.308594 65.097656 51.941406 60.582031 54.792969 59.289062 C 54.792969 59.289062 54.851562 59.265625 54.917969 59.222656 C 55.210938 59.03125 54.988281 58.578125 54.65625 58.679688 Z M 54.65625 58.679688 "/></g><path style=" stroke:none;fill-rule:nonzero;fill:#eda61a;fill-opacity:1;" d="M 62.792969 85.378906 C 62.734375 85.144531 62.859375 84.910156 63.082031 84.824219 C 63.71875 84.574219 64.84375 84.101562 65.117188 84.550781 C 65.425781 85.050781 68.328125 90.140625 68.253906 93.046875 C 68.253906 93.046875 66.625 94.375 66.324219 94.023438 C 66.039062 93.695312 63.371094 87.78125 62.792969 85.378906 Z M 62.792969 85.378906 "/><path style=" stroke:none;fill-rule:nonzero;fill:#002233;fill-opacity:1;" d="M 49.296875 60.25 C 49.082031 59.773438 48.53125 58.644531 48.167969 58.597656 C 47.859375 58.558594 47.578125 58.933594 47.425781 59.183594 C 47.335938 59.332031 47.34375 59.519531 47.453125 59.652344 C 47.761719 60.027344 48.472656 60.464844 48.835938 60.671875 C 48.964844 60.746094 49.125 60.726562 49.230469 60.621094 C 49.328125 60.523438 49.355469 60.375 49.296875 60.25 Z M 49.296875 60.25 "/><path style=" stroke:none;fill-rule:nonzero;fill:#002233;fill-opacity:1;" d="M 50.882812 59.066406 C 50.847656 58.613281 50.726562 57.523438 50.441406 57.378906 C 50.199219 57.253906 49.859375 57.480469 49.660156 57.640625 C 49.542969 57.734375 49.492188 57.894531 49.542969 58.035156 C 49.6875 58.429688 50.144531 59 50.378906 59.277344 C 50.464844 59.378906 50.601562 59.40625 50.722656 59.351562 C 50.828125 59.300781 50.894531 59.1875 50.882812 59.066406 Z M 50.882812 59.066406 "/><path style=" stroke:none;fill-rule:nonzero;fill:#002233;fill-opacity:1;" d="M 48.023438 61.640625 C 47.652344 61.371094 46.75 60.753906 46.453125 60.871094 C 46.203125 60.972656 46.148438 61.378906 46.140625 61.632812 C 46.136719 61.785156 46.226562 61.925781 46.367188 61.980469 C 46.761719 62.132812 47.488281 62.15625 47.855469 62.160156 C 47.984375 62.164062 48.097656 62.074219 48.132812 61.949219 C 48.164062 61.835938 48.121094 61.710938 48.023438 61.640625 Z M 48.023438 61.640625 "/><path style=" stroke:none;fill-rule:nonzero;fill:#11263c;fill-opacity:1;" d="M 50.425781 87.957031 C 50.355469 88.128906 50.558594 90.433594 51.867188 89.847656 C 53.082031 89.304688 55.226562 87.207031 57.007812 86.695312 C 57.335938 86.601562 57.65625 86.496094 57.964844 86.347656 C 58.933594 85.882812 60.859375 84.914062 61.0625 84.445312 C 61.257812 83.984375 60.566406 83.355469 60.179688 83.050781 C 60.03125 82.9375 59.839844 82.90625 59.667969 82.976562 C 58.183594 83.578125 50.988281 86.546875 50.425781 87.957031 Z M 50.425781 87.957031 "/><path style=" stroke:none;fill-rule:nonzero;fill:#11263c;fill-opacity:1;" d="M 62.59375 83.917969 C 62.449219 83.917969 62.324219 83.804688 62.3125 83.660156 C 62.300781 83.503906 62.417969 83.367188 62.570312 83.355469 C 63.679688 83.265625 64.414062 82.855469 64.539062 82.261719 C 64.632812 81.808594 64.351562 81.3125 63.859375 81.046875 C 63.09375 80.636719 61.179688 82.390625 60.0625 83.769531 C 59.964844 83.886719 59.789062 83.90625 59.667969 83.808594 C 59.546875 83.710938 59.527344 83.535156 59.625 83.414062 C 59.929688 83.039062 62.652344 79.761719 64.125 80.550781 C 64.847656 80.9375 65.234375 81.671875 65.089844 82.375 C 65.003906 82.785156 64.59375 83.753906 62.617188 83.917969 C 62.609375 83.917969 62.601562 83.917969 62.59375 83.917969 Z M 62.59375 83.917969 "/><path style=" stroke:none;fill-rule:nonzero;fill:#fdb8a3;fill-opacity:1;" d="M 68.855469 72.417969 C 68.855469 72.417969 64.757812 80.40625 62.324219 79.632812 C 62.261719 79.613281 61.878906 79.484375 61.667969 79.132812 C 60.726562 77.542969 63.792969 73.90625 67.207031 70.53125 Z M 68.855469 72.417969 "/><path style=" stroke:none;fill-rule:nonzero;fill:#feffdb;fill-opacity:1;" d="M 70.625 65.996094 C 69.023438 66.589844 68.394531 67.363281 68.128906 68.003906 C 67.804688 68.796875 67.78125 70.003906 66.945312 70.425781 C 66.726562 70.535156 66.589844 70.523438 66.535156 70.65625 C 66.296875 71.226562 68.367188 72.921875 69.035156 72.507812 C 69.183594 72.417969 69.15625 72.292969 69.300781 72.035156 C 69.683594 71.359375 70.386719 71.296875 70.984375 70.972656 C 72.40625 70.207031 72.664062 68.300781 72.671875 68.203125 C 72.835938 66.757812 72.390625 65.59375 70.625 65.996094 Z M 70.625 65.996094 "/><path style=" stroke:none;fill-rule:nonzero;fill:#11263c;fill-opacity:1;" d="M 78.203125 33.394531 L 78.875 33.085938 C 78.84375 33.011719 78.785156 32.953125 78.703125 32.925781 C 78.664062 32.914062 77.753906 32.632812 77.03125 33.011719 C 76.671875 33.203125 76.425781 33.515625 76.296875 33.941406 C 75.964844 35.046875 72.878906 54.914062 71.570312 63.40625 C 71.277344 65.289062 70.851562 67.171875 70.304688 69 C 69.644531 71.207031 68.707031 74.222656 67.996094 76.066406 C 67.066406 78.46875 65.914062 80.246094 64.578125 81.347656 C 64.457031 81.445312 64.441406 81.625 64.539062 81.742188 C 64.597656 81.8125 64.675781 81.847656 64.757812 81.847656 C 64.820312 81.847656 64.882812 81.824219 64.9375 81.78125 C 66.347656 80.617188 67.554688 78.761719 68.519531 76.265625 C 69.238281 74.40625 70.179688 71.375 70.84375 69.160156 C 71.402344 67.308594 71.832031 65.398438 72.125 63.488281 C 73.148438 56.875 76.507812 35.203125 76.835938 34.105469 C 76.921875 33.824219 77.070312 33.628906 77.292969 33.511719 C 77.585938 33.355469 77.945312 33.363281 78.203125 33.394531 Z M 78.203125 33.394531 "/><path style=" stroke:none;fill-rule:nonzero;fill:#feffdb;fill-opacity:1;" d="M 70.203125 49.675781 C 69.394531 49.476562 68.730469 49.519531 68.488281 49.160156 C 68.464844 49.125 68.402344 49.03125 68.40625 48.910156 C 68.410156 48.671875 68.65625 48.503906 68.742188 48.441406 C 68.964844 48.265625 69.21875 47.90625 69.332031 47.0625 C 70.046875 46.175781 69.671875 45.902344 70.300781 45.277344 C 70.875 44.707031 71.960938 44.460938 72.113281 44.429688 C 73.382812 44.171875 74.015625 44.042969 74.492188 44.378906 C 75.289062 44.941406 75.347656 46.34375 74.925781 47.242188 C 74.65625 47.816406 74.210938 48.144531 73.652344 48.550781 C 73 49.03125 72.378906 49.296875 71.945312 49.445312 C 71.941406 49.632812 71.902344 49.890625 71.722656 50.019531 C 71.433594 50.226562 71.089844 49.890625 70.203125 49.675781 Z M 70.203125 49.675781 "/><path style=" stroke:none;fill-rule:nonzero;fill:#feffdb;fill-opacity:1;" d="M 72.105469 67.054688 C 72.105469 67.054688 69.949219 66.761719 70.097656 67.691406 C 70.246094 68.621094 69.265625 70.1875 69.804688 70.726562 C 70.34375 71.261719 71.519531 71.605469 71.960938 71.164062 C 72.398438 70.726562 72.890625 69.796875 72.742188 68.816406 C 72.597656 67.839844 73.820312 67.839844 72.105469 67.054688 Z M 72.105469 67.054688 "/></g></svg>