<svg xmlns="http://www.w3.org/2000/svg" xmlns:xlink="http://www.w3.org/1999/xlink" width="200" zoomAndPan="magnify" viewBox="0 0 150 149.999998" height="200" preserveAspectRatio="xMidYMid meet" version="1.2"><g id="e9bb8f3c07"><path style=" stroke:none;fill-rule:nonzero;fill:#825117;fill-opacity:1;" d="M 146.699219 119.914062 C 145.640625 118.253906 143.921875 117.078125 142.140625 116.203125 C 134.046875 112.253906 124.148438 113.371094 115.453125 113.882812 C 104.222656 114.546875 94.351562 114.425781 83.363281 112.34375 C 73.25 110.445312 63.167969 112.554688 53.234375 114.394531 C 50.546875 108.425781 44.148438 106.554688 39.953125 109.390625 C 35.605469 103.597656 25.734375 104.234375 23.257812 111.289062 C 19.484375 110.324219 15.621094 113.824219 17.039062 117.53125 C 13.445312 116.265625 10.1875 117.621094 8.3125 121.269531 C 3.632812 122.386719 0.0429688 124.378906 1.703125 128.027344 C 2.488281 129.714844 4.511719 130.347656 6.351562 130.710938 C 21.65625 133.726562 37.144531 131.101562 52.507812 131.675781 C 65.21875 132.15625 77.867188 136.5 90.636719 134.902344 C 104.34375 133.183594 117.597656 133 131.421875 133.214844 C 134.53125 133.273438 137.703125 133.273438 140.628906 132.308594 C 145.550781 130.738281 149.957031 125.039062 146.699219 119.914062 Z M 90.636719 26.910156 L 90.605469 26.730469 L 90.425781 26.792969 C 90.394531 26.792969 90.335938 26.820312 90.304688 26.820312 C 90.0625 26.820312 89.882812 26.699219 89.761719 26.488281 C 89.277344 25.585938 88.585938 24.859375 87.738281 24.289062 C 87.347656 24.046875 87.136719 23.59375 87.195312 23.140625 C 87.285156 22.359375 87.769531 21.785156 88.523438 21.605469 C 88.644531 21.574219 88.734375 21.574219 88.855469 21.574219 C 89.371094 21.574219 89.851562 21.84375 90.273438 22.328125 L 90.546875 22.175781 C 89.671875 19.433594 87.617188 17.050781 85.144531 15.996094 C 84.238281 15.601562 83.363281 15.421875 82.515625 15.421875 C 81.582031 15.421875 80.734375 15.664062 79.980469 16.117188 C 79.710938 16.265625 79.4375 16.355469 79.136719 16.355469 C 79.074219 16.355469 79.015625 16.355469 78.953125 16.355469 C 78.714844 16.328125 78.472656 16.328125 78.199219 16.328125 C 76.238281 16.328125 74.09375 17.203125 72.3125 18.710938 C 69.957031 20.699219 68.601562 23.445312 68.449219 26.429688 C 68.417969 27.332031 68.238281 28.238281 67.964844 29.054688 C 67.605469 30.109375 67.421875 31.132812 67.390625 32.160156 C 67.390625 32.308594 67.453125 32.460938 67.605469 32.550781 C 67.695312 32.609375 67.785156 32.640625 67.875 32.640625 C 67.9375 32.640625 68.027344 32.609375 68.085938 32.582031 C 68.78125 32.25 69.445312 31.765625 70.078125 31.101562 C 70.140625 31.042969 70.199219 31.011719 70.261719 31.011719 C 70.289062 31.011719 70.320312 31.011719 70.382812 31.042969 C 70.472656 31.101562 70.53125 31.195312 70.53125 31.285156 L 70.261719 33.816406 C 70.230469 34 70.320312 34.179688 70.5 34.269531 C 70.5625 34.300781 70.652344 34.332031 70.714844 34.332031 C 70.835938 34.332031 70.925781 34.300781 71.015625 34.210938 C 71.738281 33.605469 72.375 33.003906 72.976562 32.398438 C 73.460938 31.886719 73.945312 31.34375 74.367188 30.773438 C 74.578125 30.5 74.789062 30.199219 75 29.898438 C 75.121094 29.746094 75.179688 29.535156 75.300781 29.414062 C 75.453125 29.265625 75.785156 29.203125 75.753906 29.535156 L 75.632812 30.53125 C 75.605469 30.679688 75.695312 30.800781 75.816406 30.863281 C 75.84375 30.863281 75.90625 30.890625 75.964844 30.890625 C 76.054688 30.890625 76.117188 30.863281 76.175781 30.800781 C 78.714844 28.660156 80.917969 25.433594 81.761719 24.136719 C 81.851562 24.015625 81.972656 23.925781 82.09375 23.894531 C 82.125 23.894531 82.15625 23.894531 82.183594 23.894531 C 82.304688 23.894531 82.425781 23.925781 82.515625 24.015625 C 85.144531 26.039062 87.164062 28.839844 88.070312 31.738281 C 88.164062 32.007812 88.070312 32.308594 87.828125 32.492188 C 84.601562 35.113281 82.488281 37.042969 81.398438 39.15625 L 81.308594 39.304688 L 81.492188 39.367188 C 82.277344 39.667969 83.121094 39.910156 83.996094 40.058594 C 84.117188 40.089844 84.269531 40.089844 84.386719 40.089844 C 84.78125 40.089844 85.171875 40 85.535156 39.820312 C 86.441406 39.367188 87.195312 38.855469 87.890625 38.28125 C 88.132812 38.070312 88.375 37.859375 88.613281 37.617188 L 88.707031 37.617188 L 88.707031 37.527344 C 89.21875 36.984375 89.703125 36.382812 90.15625 35.71875 C 90.488281 35.234375 90.699219 34.660156 90.789062 34.058594 C 91.242188 31.796875 91.152344 29.414062 90.636719 26.910156 Z M 130.035156 104.382812 C 130.035156 104.59375 129.914062 104.804688 129.703125 104.894531 L 129.640625 104.925781 C 126.953125 106.191406 123.964844 106.855469 121.007812 106.855469 C 120.523438 106.855469 119.558594 107.039062 119.285156 106.523438 C 116.265625 100.914062 114.09375 95.667969 112.886719 90.933594 C 110.441406 82.519531 108.871094 75.523438 108.027344 69.582031 L 107.996094 69.402344 L 106.636719 69.402344 L 106.515625 69.644531 C 103.046875 76.15625 99.421875 82.160156 95.828125 87.527344 L 94.5625 89.578125 L 94.53125 89.636719 C 94.382812 90 94.289062 90.332031 94.199219 90.691406 L 91.90625 101.640625 C 91.632812 102.964844 91.121094 104.171875 90.425781 105.226562 C 90.125 105.648438 89.824219 106.070312 89.519531 106.464844 C 89.128906 106.945312 88.886719 107.007812 88.28125 107.128906 C 85.445312 107.730469 82.394531 107.398438 79.679688 106.433594 L 79.617188 106.433594 C 79.40625 106.34375 79.257812 106.132812 79.226562 105.890625 C 78.863281 100.34375 79.046875 95.15625 79.800781 90.027344 L 79.859375 89.699219 L 80.101562 89.910156 C 81.039062 90.8125 82.035156 91.296875 83.121094 91.296875 C 83.722656 91.296875 84.359375 91.144531 85.023438 90.84375 C 85.144531 90.78125 85.234375 90.664062 85.292969 90.542969 L 86.441406 85.867188 L 86.984375 84.511719 L 87.074219 84.480469 C 87.285156 84.421875 87.4375 84.269531 87.527344 84.089844 L 88.855469 80.800781 C 88.917969 80.652344 88.917969 80.5 88.855469 80.347656 C 88.796875 80.199219 88.675781 80.109375 88.523438 80.046875 L 83.511719 78.390625 L 83.605469 78.207031 C 85.746094 74.226562 88.101562 70.367188 90.605469 66.71875 L 90.667969 66.628906 L 90.757812 66.65625 C 94.53125 67.410156 98.273438 67.804688 101.957031 67.804688 C 103.496094 67.804688 105.066406 67.742188 106.605469 67.59375 L 106.667969 67.59375 L 106.699219 67.5625 L 106.757812 67.5625 C 110.863281 67.171875 114.9375 66.296875 118.832031 64.9375 L 118.894531 64.910156 L 119.257812 64.789062 C 120.886719 64.214844 122.515625 63.550781 124.085938 62.796875 L 124.265625 62.707031 L 124.296875 62.917969 C 124.507812 63.972656 124.660156 64.910156 124.8125 65.8125 L 124.839844 65.964844 L 124.871094 66.113281 C 125.566406 70.335938 126.140625 74.769531 126.5 79.261719 L 126.5 79.414062 L 120.132812 80.621094 C 119.890625 80.679688 119.738281 80.890625 119.800781 81.101562 L 120.402344 84.179688 C 120.464844 84.449219 120.613281 84.660156 120.855469 84.78125 L 120.917969 84.8125 L 122.09375 90.964844 C 122.125 91.113281 122.246094 91.234375 122.394531 91.296875 C 123.390625 91.65625 124.328125 91.839844 125.171875 91.839844 C 126.230469 91.839844 127.195312 91.535156 128.039062 90.964844 L 128.222656 90.84375 L 128.28125 91.054688 C 129.550781 95.636719 130.125 99.800781 130.035156 104.382812 Z M 130.035156 104.382812 "/><path style=" stroke:none;fill-rule:nonzero;fill:#ccb466;fill-opacity:1;" d="M 102.832031 51.460938 L 100.628906 53.660156 C 101.476562 53.117188 102.320312 52.542969 103.105469 51.941406 C 103.015625 51.789062 102.925781 51.640625 102.832031 51.460938 Z M 124.507812 62.675781 C 123.964844 63.039062 123.269531 63.28125 122.789062 63.492188 C 121.15625 64.214844 119.496094 64.847656 117.808594 65.421875 C 114.425781 66.539062 110.925781 67.292969 107.363281 67.683594 C 107.179688 67.714844 107 67.714844 106.820312 67.742188 C 106.820312 67.742188 106.636719 67.773438 106.636719 67.773438 L 106.488281 67.773438 C 105.039062 67.894531 103.558594 67.953125 102.078125 67.953125 C 100.085938 67.953125 98.09375 67.832031 96.132812 67.621094 C 94.953125 67.503906 93.746094 67.320312 92.570312 67.140625 C 92.054688 67.050781 91.574219 66.988281 91.058594 66.898438 C 90.726562 66.839844 90.214844 66.808594 90.035156 66.476562 C 89.972656 66.355469 89.941406 66.234375 89.972656 66.113281 C 90.125 65.601562 90.246094 65.089844 90.394531 64.578125 L 90.425781 64.457031 L 93.355469 64.183594 C 93.835938 64.15625 94.261719 63.945312 94.621094 63.640625 L 95.710938 62.675781 L 95.828125 63.308594 C 95.859375 63.402344 95.921875 63.460938 96.011719 63.492188 C 96.402344 63.550781 96.796875 63.582031 97.1875 63.640625 C 97.671875 63.703125 98.15625 63.761719 98.667969 63.824219 C 98.726562 63.824219 98.789062 63.824219 98.847656 63.792969 C 98.910156 63.761719 101.324219 62.527344 101.324219 62.527344 C 101.414062 62.496094 101.445312 62.40625 101.445312 62.316406 L 100.960938 59.660156 L 101.144531 59.539062 L 101.171875 59.539062 C 102.621094 59.179688 107.511719 57.582031 108.359375 57.25 L 108.507812 57.1875 L 108.570312 57.371094 C 108.628906 57.550781 108.78125 57.640625 108.933594 57.671875 C 108.933594 57.671875 109.203125 57.703125 109.203125 57.703125 C 109.382812 58.152344 109.566406 58.605469 109.746094 59.058594 C 109.898438 59.449219 110.078125 60.324219 110.59375 60.386719 C 111.316406 60.445312 111.980469 60.414062 112.886719 60.234375 C 113.609375 60.113281 114.15625 59.570312 114.667969 59.089844 C 115.03125 58.757812 115.632812 58.394531 115.421875 57.820312 C 115.421875 57.820312 114.546875 55.652344 114.546875 55.652344 L 114.699219 55.5 C 114.820312 55.378906 114.847656 55.199219 114.757812 55.015625 L 114.367188 54.203125 L 114.488281 54.144531 C 115.996094 53.207031 117.414062 52.121094 118.710938 51.007812 C 119.074219 50.675781 119.40625 50.34375 119.648438 49.953125 L 119.769531 49.738281 L 119.921875 49.953125 C 122.273438 53.359375 124.027344 57.21875 125.113281 61.378906 C 125.324219 61.894531 124.992188 62.34375 124.507812 62.675781 Z M 111.679688 46.152344 C 110.683594 44.792969 109.714844 43.195312 108.78125 41.417969 L 108.71875 41.296875 C 108.71875 41.296875 107.542969 42.082031 107.089844 41.507812 C 106.820312 41.175781 106.578125 40.84375 106.335938 40.511719 C 106.335938 40.511719 106.304688 40.480469 106.304688 40.480469 C 102.320312 35.023438 100.207031 29.746094 99.816406 24.289062 L 99.785156 24.078125 L 99.574219 24.136719 C 97.582031 24.769531 95.496094 25.707031 93.382812 26.910156 L 93.265625 26.972656 L 93.324219 27.09375 C 95.496094 32.21875 96.765625 37.585938 97.160156 43.496094 L 97.097656 43.527344 C 93.6875 42.441406 90.820312 40.8125 88.070312 38.402344 L 87.980469 38.3125 L 87.859375 38.402344 C 87.195312 38.972656 86.441406 39.457031 85.597656 39.878906 C 85.234375 40.058594 84.839844 40.152344 84.449219 40.152344 C 84.296875 40.152344 84.175781 40.152344 84.027344 40.121094 C 83.089844 39.96875 82.183594 39.726562 81.339844 39.367188 C 81.128906 39.277344 80.613281 39.035156 80.613281 39.035156 L 79.738281 40.269531 L 79.800781 40.363281 C 81.914062 43.496094 84.207031 46.453125 86.652344 49.136719 C 88.585938 51.308594 90.667969 53.328125 92.839844 55.199219 C 92.902344 55.257812 93.050781 55.441406 93.050781 55.441406 L 94.804688 54.898438 C 94.804688 54.898438 101.144531 48.59375 101.144531 48.59375 L 102.863281 46.875 L 101.234375 44.855469 L 100.871094 44.945312 C 100.839844 44.945312 100.839844 44.945312 100.8125 44.945312 C 100.71875 44.945312 100.660156 44.914062 100.601562 44.824219 L 99.179688 42.863281 L 104.253906 39.003906 C 104.675781 39.488281 105.128906 39.96875 105.550781 40.453125 C 105.640625 40.574219 105.792969 40.664062 105.882812 40.8125 C 105.882812 40.84375 105.914062 40.84375 105.914062 40.875 C 105.941406 41.023438 105.824219 41.207031 105.761719 41.355469 L 107.242188 43.195312 C 107.421875 43.40625 107.421875 43.738281 107.269531 43.980469 L 105.941406 45.96875 C 105.914062 46.03125 105.851562 46.0625 105.792969 46.089844 L 104.855469 46.484375 L 105.066406 46.664062 C 105.492188 46.996094 105.703125 47.476562 105.703125 47.992188 C 105.703125 48.292969 105.582031 48.59375 105.339844 48.804688 L 102.894531 51.246094 L 100.539062 53.601562 L 100.75 53.839844 C 100.960938 54.082031 104.132812 51.488281 104.402344 51.277344 C 106.273438 49.832031 108.117188 48.351562 110.167969 47.175781 C 110.652344 46.90625 111.136719 46.664062 111.617188 46.421875 L 111.800781 46.332031 Z M 97.824219 50.523438 L 96.222656 52.605469 L 96.160156 52.695312 C 96.132812 52.726562 96.101562 52.753906 96.070312 52.753906 L 95.980469 52.785156 L 93.476562 53.539062 C 93.382812 53.570312 93.292969 53.539062 93.234375 53.449219 L 91.753906 51.277344 L 94.652344 50.855469 C 94.773438 50.824219 94.832031 50.796875 94.925781 50.707031 C 94.953125 50.675781 95.015625 50.585938 95.046875 50.554688 L 96.402344 48.140625 L 97.851562 50.28125 C 97.882812 50.3125 97.882812 50.34375 97.882812 50.402344 C 97.882812 50.433594 97.851562 50.492188 97.824219 50.523438 Z M 95.046875 45.667969 L 96.554688 47.597656 C 96.613281 47.660156 94.984375 50.464844 94.804688 50.675781 C 94.652344 50.824219 92.085938 51.128906 92.085938 51.128906 C 92.085938 51.128906 91.273438 51.246094 91.089844 51.128906 L 89.824219 49.046875 Z M 129.039062 90.179688 C 128.824219 90.542969 128.402344 90.875 128.070312 91.085938 C 127.226562 91.71875 126.230469 92.019531 125.144531 92.019531 C 124.296875 92.019531 123.363281 91.839844 122.335938 91.476562 C 122.152344 91.417969 122.0625 91.265625 122.035156 91.113281 L 120.855469 84.992188 C 120.855469 84.992188 120.585938 84.8125 120.464844 84.660156 C 120.402344 84.570312 120.34375 84.449219 120.3125 84.328125 L 119.707031 81.253906 C 119.679688 81.011719 119.828125 80.800781 120.042969 80.769531 C 121.640625 80.46875 123.269531 80.167969 124.871094 79.835938 C 125.445312 79.714844 126.019531 79.625 126.59375 79.503906 C 126.894531 79.445312 127.375 79.292969 127.558594 79.65625 C 127.769531 80.046875 128.191406 83.125 128.132812 83.304688 C 128.101562 83.394531 127.890625 83.574219 127.921875 83.695312 C 128.222656 85.355469 128.554688 86.984375 128.855469 88.640625 C 128.945312 89.035156 129.128906 89.515625 129.039062 89.9375 C 129.128906 90.027344 129.097656 90.089844 129.039062 90.179688 Z M 88.855469 80.769531 C 88.855469 80.769531 88.855469 80.800781 88.855469 80.832031 L 87.527344 84.148438 C 87.4375 84.359375 87.226562 84.539062 87.015625 84.570312 L 86.59375 85.597656 C 86.5 85.808594 86.441406 85.988281 86.410156 86.199219 L 85.324219 90.570312 C 85.265625 90.722656 85.171875 90.8125 85.050781 90.875 C 84.386719 91.175781 83.753906 91.324219 83.152344 91.324219 C 81.519531 91.324219 80.222656 90.210938 79.316406 88.972656 C 79.226562 88.851562 79.195312 88.671875 79.257812 88.519531 L 80.554688 83.636719 L 81.039062 82.460938 C 81.039062 82.429688 81.007812 82.429688 81.007812 82.429688 C 80.828125 82.21875 80.765625 81.945312 80.886719 81.707031 C 80.917969 81.644531 82.15625 78.691406 82.183594 78.601562 C 82.273438 78.390625 82.488281 78.238281 82.699219 78.238281 C 82.757812 78.238281 82.820312 78.238281 82.878906 78.269531 L 83.695312 78.539062 L 88.554688 80.136719 C 88.707031 80.199219 88.828125 80.289062 88.886719 80.4375 C 88.855469 80.53125 88.886719 80.652344 88.855469 80.769531 Z M 131.390625 115.359375 C 130.546875 113.941406 130.546875 112.164062 130.367188 110.566406 C 130.183594 108.785156 129.972656 106.945312 129.671875 105.167969 L 129.640625 104.957031 L 129.429688 105.046875 C 128.707031 105.410156 127.921875 105.710938 127.105469 105.953125 L 127.074219 105.953125 C 125.808594 106.34375 124.480469 106.613281 123.058594 106.765625 C 123.058594 106.765625 123.03125 106.765625 123 106.765625 C 122.214844 106.855469 121.429688 106.886719 120.613281 106.886719 L 119.921875 106.886719 C 119.921875 106.886719 122.273438 114.878906 122.273438 114.878906 C 122.667969 116.265625 121.914062 117.378906 120.824219 118.105469 C 119.648438 118.917969 117.988281 119.972656 117.535156 121.390625 C 117.382812 121.90625 117.414062 122.417969 117.625 122.839844 C 118.320312 124.195312 120.070312 124.589844 121.460938 124.589844 C 122.757812 124.589844 124.054688 124.285156 125.234375 123.742188 C 126.472656 123.171875 127.46875 122.207031 128.523438 121.363281 C 129.519531 120.546875 131.03125 119.972656 131.601562 118.769531 C 132.207031 117.652344 131.996094 116.386719 131.390625 115.359375 Z M 87.949219 115.480469 C 88.191406 116.445312 88.222656 117.441406 88.132812 118.4375 C 88.070312 119.101562 88.042969 119.914062 87.617188 120.457031 C 87.105469 121.089844 86.167969 121.152344 85.414062 121.242188 C 83.753906 121.453125 81.972656 120.910156 80.375 121.363281 C 78.714844 121.84375 76.691406 122.117188 74.757812 122.117188 C 72.976562 122.117188 71.378906 121.875 70.167969 121.421875 C 69.6875 121.242188 69.292969 120.847656 69.171875 120.335938 L 69.171875 120.277344 C 69.144531 120.125 69.144531 119.972656 69.144531 119.855469 C 69.171875 119.460938 69.386719 118.164062 70.835938 117.742188 C 72.042969 117.410156 74.488281 116.507812 74.488281 116.507812 C 75.542969 116.085938 76.601562 115.632812 77.777344 115.027344 C 78.714844 114.546875 79.316406 113.609375 79.378906 112.554688 L 79.648438 106.433594 L 79.859375 106.496094 C 80.675781 106.796875 81.550781 107.007812 82.394531 107.1875 L 82.457031 107.1875 C 83.390625 107.367188 84.328125 107.429688 85.292969 107.429688 C 85.777344 107.429688 86.261719 107.398438 86.742188 107.367188 C 87.316406 107.308594 87.890625 107.25 88.433594 107.128906 L 88.644531 107.066406 L 87.828125 113.640625 C 87.769531 114.304688 87.800781 114.90625 87.949219 115.480469 Z M 87.949219 115.480469 "/><path style=" stroke:none;fill-rule:nonzero;fill:#f2e6ad;fill-opacity:1;" d="M 97.914062 50.402344 C 97.914062 50.492188 97.882812 50.585938 97.824219 50.644531 L 96.28125 52.605469 L 96.222656 52.695312 C 96.160156 52.753906 96.101562 52.785156 96.042969 52.816406 L 93.566406 53.601562 C 93.535156 53.601562 93.503906 53.628906 93.445312 53.628906 C 93.324219 53.628906 93.203125 53.570312 93.144531 53.480469 C 93.144531 53.480469 91.632812 51.246094 91.632812 51.246094 C 91.390625 51.277344 91.121094 51.367188 90.96875 51.128906 L 89.730469 49.105469 C 89.730469 49.105469 94.652344 45.910156 94.773438 45.851562 C 94.925781 45.757812 95.074219 45.640625 95.195312 45.789062 C 95.195312 45.789062 96.492188 47.476562 96.492188 47.476562 C 96.585938 47.597656 96.585938 47.75 96.523438 47.871094 L 96.402344 48.113281 L 97.851562 50.253906 C 97.882812 50.253906 97.914062 50.3125 97.914062 50.402344 Z M 100.960938 59.601562 C 100.148438 59.691406 99.269531 59.8125 98.546875 60.234375 C 98.15625 60.476562 97.824219 60.808594 97.460938 61.109375 L 95.738281 62.648438 L 95.859375 63.28125 C 95.890625 63.371094 95.949219 63.460938 96.042969 63.460938 L 98.605469 63.761719 L 98.820312 63.792969 L 101.355469 62.464844 C 101.414062 62.4375 101.445312 62.34375 101.445312 62.285156 L 101.445312 62.253906 C 101.445312 62.253906 100.960938 59.601562 100.960938 59.601562 Z M 107.242188 43.949219 L 105.851562 46.03125 L 104.765625 46.453125 L 104.707031 46.421875 C 104.464844 46.300781 104.222656 46.242188 103.949219 46.210938 C 103.617188 46.210938 103.347656 46.332031 103.105469 46.574219 L 102.863281 46.816406 L 101.234375 44.792969 C 101.234375 44.792969 100.992188 44.855469 100.960938 44.855469 C 100.8125 44.886719 100.691406 44.914062 100.601562 44.792969 L 99.179688 42.835938 L 101.746094 40.875 C 101.746094 40.875 104.160156 39.035156 104.160156 39.035156 C 104.3125 38.914062 104.917969 39.699219 104.976562 39.789062 C 105.15625 40 105.339844 40.179688 105.519531 40.390625 C 105.671875 40.542969 106.003906 40.8125 105.882812 41.023438 L 105.730469 41.328125 L 107.210938 43.167969 C 107.390625 43.40625 107.421875 43.707031 107.242188 43.949219 Z M 115.242188 58.515625 C 115.242188 58.515625 113.730469 59.753906 113.730469 59.753906 C 113.128906 60.234375 112.34375 60.144531 111.648438 60.265625 C 111.164062 60.324219 110.378906 60.476562 110.167969 59.902344 C 110.167969 59.902344 109.265625 57.609375 109.265625 57.609375 L 108.992188 57.582031 C 108.8125 57.582031 108.660156 57.460938 108.628906 57.277344 C 108.628906 57.277344 108.570312 57.066406 108.570312 57.066406 C 110.351562 56.433594 114.425781 54.113281 114.425781 54.113281 C 114.425781 54.113281 114.789062 54.925781 114.789062 54.925781 C 114.910156 55.199219 114.726562 55.378906 114.578125 55.558594 L 115.453125 57.730469 C 115.542969 58.003906 115.484375 58.335938 115.242188 58.515625 Z M 116.960938 33.335938 C 113.308594 29.054688 110.230469 26.1875 107.269531 24.378906 C 106.09375 23.65625 104.765625 23.292969 103.378906 23.292969 C 102.832031 23.292969 102.261719 23.351562 101.714844 23.472656 C 101.144531 23.59375 100.539062 23.777344 99.875 23.957031 L 99.753906 23.988281 L 99.753906 24.105469 C 100.148438 29.925781 102.53125 35.597656 107.058594 41.445312 C 107.152344 41.597656 107.332031 41.660156 107.511719 41.660156 C 107.574219 41.660156 107.632812 41.660156 107.695312 41.628906 C 108.085938 41.507812 108.386719 41.386719 108.691406 41.265625 C 111.617188 40.089844 114.15625 38.191406 116.265625 35.566406 C 116.539062 35.234375 116.78125 34.902344 116.992188 34.601562 C 117.265625 34.238281 117.265625 33.695312 116.960938 33.335938 Z M 93.355469 27.09375 L 93.292969 26.910156 L 92.417969 27.425781 L 92.449219 27.546875 C 94.050781 32.097656 94.050781 35.839844 92.480469 37.316406 C 91.996094 37.769531 91.390625 37.980469 90.699219 37.980469 C 90.15625 37.980469 89.519531 37.828125 88.855469 37.558594 L 88.765625 37.527344 L 88.675781 37.617188 C 88.464844 37.828125 88.28125 37.980469 88.132812 38.128906 L 87.980469 38.25 L 88.132812 38.371094 C 90.847656 40.722656 93.625 42.320312 96.945312 43.40625 L 97.1875 43.46875 L 97.160156 43.226562 C 96.734375 37.4375 95.496094 32.160156 93.355469 27.09375 Z M 79.890625 40.421875 L 79.738281 40.210938 L 79.589844 40.421875 C 76.960938 44.34375 74.699219 48.683594 72.644531 53.722656 C 72.523438 54.023438 72.613281 54.382812 72.917969 54.566406 C 73.128906 54.714844 73.339844 54.835938 73.550781 54.988281 C 75.90625 56.496094 78.441406 57.640625 81.039062 58.394531 C 81.308594 58.484375 81.582031 58.546875 81.851562 58.636719 C 81.914062 58.636719 81.972656 58.667969 82.035156 58.667969 C 82.273438 58.667969 82.515625 58.515625 82.636719 58.304688 C 84.417969 55.136719 85.71875 52.152344 86.59375 49.199219 L 86.621094 49.105469 L 86.5625 49.046875 C 84.175781 46.363281 81.941406 43.46875 79.890625 40.421875 Z M 63.167969 101.972656 C 63.105469 101.578125 62.863281 101.21875 62.53125 101.007812 L 56.644531 97.355469 L 49.398438 104.59375 C 49.066406 104.925781 48.675781 105.199219 48.3125 105.378906 C 47.980469 105.53125 47.648438 105.621094 47.347656 105.621094 C 46.984375 105.621094 46.652344 105.5 46.410156 105.289062 C 45.898438 104.777344 45.929688 103.660156 47.195312 102.421875 L 53.929688 95.699219 L 50.335938 93.46875 C 50.125 93.347656 49.851562 93.253906 49.613281 93.253906 C 49.308594 93.253906 49.039062 93.347656 48.796875 93.496094 C 42.636719 97.75 38.652344 102 36.601562 106.464844 L 36.539062 106.613281 L 36.691406 106.675781 C 37.867188 107.277344 38.925781 108.121094 39.800781 109.179688 L 39.890625 109.269531 L 40.011719 109.207031 C 41.492188 108.484375 43 108.121094 44.480469 108.121094 C 45.597656 108.121094 46.683594 108.332031 47.710938 108.757812 C 49.21875 109.359375 50.546875 110.382812 51.632812 111.800781 L 51.726562 111.890625 L 51.84375 111.832031 C 55.832031 109.960938 59.542969 107.007812 62.894531 103.085938 C 63.105469 102.785156 63.226562 102.394531 63.167969 101.972656 Z M 63.167969 101.972656 "/><path style=" stroke:none;fill-rule:nonzero;fill:#e1b794;fill-opacity:1;" d="M 88.101562 31.738281 C 87.195312 28.871094 85.171875 26.066406 82.546875 24.046875 C 82.457031 23.988281 82.335938 23.925781 82.214844 23.925781 C 82.183594 23.925781 82.15625 23.925781 82.125 23.925781 C 81.972656 23.957031 81.851562 24.015625 81.792969 24.167969 C 80.945312 25.464844 78.742188 28.722656 76.207031 30.832031 C 76.148438 30.890625 76.054688 30.921875 75.996094 30.921875 C 75.9375 30.921875 75.875 30.921875 75.84375 30.890625 C 75.722656 30.832031 75.664062 30.679688 75.664062 30.5625 L 75.785156 29.59375 C 75.816406 29.476562 75.753906 29.382812 75.632812 29.355469 L 75.574219 29.324219 L 75.542969 29.324219 C 75.484375 29.324219 75.390625 29.355469 75.363281 29.445312 C 74.726562 30.46875 73.972656 31.40625 73.097656 32.339844 L 73.007812 32.429688 L 73.066406 32.550781 C 73.882812 33.9375 75.273438 35.234375 77.476562 36.742188 C 78.410156 37.707031 79.46875 38.460938 80.585938 39.035156 L 80.675781 39.066406 C 80.855469 39.15625 81.039062 39.246094 81.21875 39.304688 L 81.371094 39.367188 L 81.429688 39.246094 C 82.515625 37.136719 84.601562 35.203125 87.859375 32.550781 C 88.101562 32.308594 88.191406 32.007812 88.101562 31.738281 Z M 92.480469 37.347656 C 91.996094 37.796875 91.421875 38.007812 90.699219 38.007812 C 90.183594 38.007812 89.609375 37.890625 88.976562 37.648438 L 88.765625 37.558594 L 88.917969 37.375 C 89.398438 36.863281 89.824219 36.320312 90.246094 35.6875 C 90.578125 35.203125 90.789062 34.632812 90.878906 34.027344 C 91.242188 31.765625 91.152344 29.382812 90.636719 26.910156 L 90.515625 26.792969 L 90.578125 26.761719 C 90.488281 26.792969 90.394531 26.820312 90.304688 26.820312 C 90.183594 26.820312 90.09375 26.792969 90.003906 26.730469 C 89.914062 26.671875 89.824219 26.609375 89.792969 26.488281 C 89.308594 25.585938 88.613281 24.859375 87.769531 24.289062 C 87.378906 24.046875 87.164062 23.59375 87.226562 23.140625 C 87.316406 22.359375 87.800781 21.785156 88.554688 21.605469 C 88.675781 21.574219 88.765625 21.574219 88.886719 21.574219 C 89.640625 21.574219 90.367188 22.148438 90.820312 23.113281 C 90.9375 23.382812 91.058594 23.683594 91.121094 23.988281 C 91.300781 24.742188 91.273438 25.496094 91.03125 26.097656 L 91.03125 26.128906 L 91.210938 26.308594 L 92.417969 27.425781 L 92.417969 27.453125 C 94.019531 31.976562 94.019531 35.867188 92.480469 37.347656 Z M 90.304688 64.277344 C 90.304688 64.246094 90.335938 64.183594 90.335938 64.15625 L 90.699219 64.0625 C 90.667969 64.125 90.667969 64.183594 90.636719 64.246094 Z M 120.3125 44.460938 C 119.316406 41.71875 118.046875 38.882812 116.386719 35.808594 L 116.265625 35.597656 L 116.117188 35.746094 C 114.09375 38.191406 111.648438 40.03125 108.871094 41.207031 L 108.71875 41.265625 L 108.8125 41.417969 C 109.746094 43.226562 110.742188 44.824219 111.738281 46.183594 L 111.828125 46.273438 C 111.828125 46.273438 111.828125 46.273438 111.800781 46.273438 C 109.234375 47.449219 107.058594 49.105469 104.945312 50.734375 C 104.464844 51.128906 103.949219 51.488281 103.46875 51.882812 C 103.46875 51.882812 103.195312 52.09375 103.195312 52.09375 C 102.230469 52.816406 101.234375 53.507812 100.175781 54.144531 C 99.210938 54.746094 98.246094 55.046875 97.128906 54.925781 C 96.375 54.867188 95.589844 54.746094 94.832031 54.804688 C 94.410156 54.867188 93.957031 55.046875 93.566406 55.167969 C 92.75 55.46875 91.90625 55.742188 91.058594 56.011719 C 90.667969 56.132812 90.335938 56.40625 90.15625 56.796875 C 90.15625 56.796875 88.976562 60.023438 88.945312 60.054688 C 88.707031 60.71875 89.460938 60.71875 89.851562 60.566406 C 90.425781 60.355469 90.820312 59.871094 91.089844 59.328125 C 91.300781 58.90625 91.722656 58.515625 92.148438 58.335938 C 92.570312 58.152344 93.414062 58.152344 93.292969 58.847656 C 93.144531 59.601562 92.871094 60.324219 92.449219 61.109375 C 92.238281 61.472656 92.027344 61.863281 91.722656 62.285156 L 90.214844 63.945312 L 89.972656 64.003906 L 89.582031 64.425781 L 89.824219 64.394531 L 89.761719 64.457031 L 93.6875 64.125 C 94.320312 63.972656 94.925781 63.582031 95.558594 62.886719 L 95.980469 62.375 L 98.125 60.476562 C 98.15625 60.476562 98.15625 60.445312 98.183594 60.414062 C 99.152344 59.691406 100.417969 59.480469 101.597656 59.238281 C 107.695312 57.941406 113.398438 55.230469 118.199219 51.277344 C 119.589844 50.132812 120.375 48.773438 120.644531 46.996094 C 120.734375 46.273438 120.644531 45.335938 120.3125 44.460938 Z M 81.066406 58.394531 L 80.976562 58.574219 C 79.949219 60.835938 78.683594 62.980469 77.113281 65.179688 C 76.722656 65.753906 76.417969 66.386719 76.238281 67.078125 C 75.332031 70.609375 74.214844 73.414062 72.554688 76.21875 C 72.34375 76.550781 72.253906 76.941406 72.222656 77.332031 L 72.222656 77.394531 L 69.113281 80.5 C 69.113281 80.5 69.054688 80.5 69.054688 80.5 C 69.535156 80.53125 69.867188 81.074219 70.109375 81.433594 C 70.410156 81.917969 70.714844 82.398438 70.953125 82.914062 C 71.015625 83.003906 71.015625 83.003906 71.015625 83.003906 L 72.554688 81.464844 L 72.523438 81.917969 C 72.433594 82.792969 72.222656 83.605469 71.921875 84.300781 L 71.769531 84.660156 L 71.859375 84.960938 C 72.011719 85.445312 71.949219 85.957031 71.679688 86.320312 C 71.46875 86.621094 71.167969 86.832031 70.804688 86.921875 C 70.621094 86.984375 70.472656 87.132812 70.441406 87.316406 C 70.230469 88.007812 69.535156 88.519531 68.8125 88.519531 C 68.570312 88.519531 68.390625 88.613281 68.296875 88.824219 C 68.085938 89.214844 67.785156 89.578125 67.363281 89.726562 C 66.96875 89.878906 66.457031 89.699219 66.09375 89.96875 C 65.882812 90.121094 65.792969 90.390625 65.582031 90.542969 C 65.339844 90.722656 65.066406 90.8125 64.796875 90.8125 C 64.796875 90.8125 64.734375 90.8125 64.734375 90.8125 C 64.34375 90.8125 64.101562 90.453125 64.011719 90.089844 C 63.859375 89.273438 63.949219 88.28125 63.980469 87.4375 C 64.011719 86.5 64.101562 85.597656 64.3125 84.691406 C 64.34375 84.570312 64.375 84.421875 64.433594 84.300781 L 64.433594 84.269531 C 64.433594 84.390625 64.164062 84.660156 64.101562 84.8125 C 64.011719 85.023438 64.011719 85.292969 63.980469 85.535156 C 63.890625 86.046875 63.738281 86.5625 63.46875 87.011719 C 63.285156 87.316406 62.773438 88.097656 62.320312 88.007812 C 62.109375 87.949219 62.078125 87.796875 62.078125 87.617188 C 62.078125 87.617188 62.109375 87.105469 62.109375 87.105469 L 62.230469 83.335938 C 62.261719 82.792969 62.441406 82.277344 62.773438 81.828125 L 65.21875 78.660156 C 65.640625 78.117188 65.914062 77.515625 66.035156 76.851562 C 67 71.785156 67.964844 67.863281 69.835938 64.125 C 69.988281 63.824219 70.109375 63.523438 70.230469 63.21875 C 71.316406 60.082031 72.402344 57.460938 73.550781 55.199219 L 73.640625 55.046875 L 73.792969 55.136719 C 76.027344 56.554688 78.441406 57.640625 80.945312 58.394531 Z M 81.066406 58.394531 "/><path style=" stroke:none;fill-rule:nonzero;fill:#4f320f;fill-opacity:1;" d="M 48.433594 116.566406 C 48.433594 116.839844 48.222656 117.050781 47.953125 117.050781 C 47.679688 117.050781 47.46875 116.839844 47.46875 116.566406 C 47.46875 116.296875 47.679688 116.085938 47.953125 116.085938 C 48.191406 116.054688 48.433594 116.296875 48.433594 116.566406 Z M 95.226562 116.898438 C 94.382812 116.898438 93.6875 117.050781 93.6875 117.230469 C 93.6875 117.410156 94.382812 117.5625 95.226562 117.5625 C 96.070312 117.5625 96.765625 117.410156 96.765625 117.230469 C 96.765625 117.050781 96.070312 116.898438 95.226562 116.898438 Z M 93.835938 124.257812 C 93.324219 124.257812 92.902344 124.40625 92.902344 124.589844 C 92.902344 124.769531 93.324219 124.921875 93.835938 124.921875 C 94.351562 124.921875 94.773438 124.769531 94.773438 124.589844 C 94.773438 124.40625 94.351562 124.257812 93.835938 124.257812 Z M 67.753906 114.363281 C 67.242188 114.363281 66.820312 114.515625 66.820312 114.695312 C 66.820312 114.878906 67.242188 115.027344 67.753906 115.027344 C 68.269531 115.027344 68.691406 114.878906 68.691406 114.695312 C 68.691406 114.515625 68.269531 114.363281 67.753906 114.363281 Z M 134.984375 126.097656 C 134.140625 126.097656 133.445312 126.246094 133.445312 126.429688 C 133.445312 126.609375 134.140625 126.757812 134.984375 126.757812 C 135.828125 126.757812 136.523438 126.609375 136.523438 126.429688 C 136.523438 126.246094 135.828125 126.097656 134.984375 126.097656 Z M 142.257812 124.378906 C 141.746094 124.378906 141.324219 124.527344 141.324219 124.707031 C 141.324219 124.890625 141.746094 125.039062 142.257812 125.039062 C 142.773438 125.039062 143.195312 124.890625 143.195312 124.707031 C 143.195312 124.527344 142.773438 124.378906 142.257812 124.378906 Z M 101.988281 119.703125 C 101.476562 119.703125 101.050781 119.855469 101.050781 120.035156 C 101.050781 120.214844 101.476562 120.367188 101.988281 120.367188 C 102.5 120.367188 102.925781 120.214844 102.925781 120.035156 C 102.925781 119.855469 102.5 119.703125 101.988281 119.703125 Z M 147.542969 126.097656 C 146.515625 128.960938 143.800781 131.464844 140.660156 132.488281 C 137.792969 133.425781 134.773438 133.453125 131.390625 133.394531 C 119.4375 133.214844 105.25 133.242188 90.636719 135.082031 C 88.675781 135.324219 86.714844 135.445312 84.78125 135.445312 C 78.953125 135.445312 73.160156 134.539062 67.511719 133.636719 C 62.59375 132.851562 57.519531 132.035156 52.507812 131.855469 C 46.953125 131.644531 41.308594 131.855469 35.816406 132.066406 C 26.125 132.429688 16.101562 132.820312 6.320312 130.890625 C 4.539062 130.527344 2.367188 129.894531 1.550781 128.117188 C 1.007812 126.941406 0.976562 125.886719 1.429688 124.921875 C 2.214844 123.292969 4.449219 122.054688 8.191406 121.152344 C 10.035156 117.683594 12.8125 116.386719 16.644531 117.230469 C 16.222656 115.570312 16.675781 113.914062 17.914062 112.675781 C 19.300781 111.289062 21.414062 110.6875 23.195312 111.136719 C 23.980469 108.484375 26.546875 106.34375 29.808594 105.648438 C 32.132812 105.136719 34.425781 105.410156 36.449219 106.375 C 37.144531 104.867188 38.050781 103.359375 39.226562 101.878906 C 41.492188 98.984375 44.628906 96.152344 48.707031 93.347656 C 49.21875 92.984375 49.882812 92.984375 50.425781 93.285156 L 53.929688 95.457031 L 61.957031 87.464844 L 62.078125 83.273438 C 62.109375 82.699219 62.289062 82.128906 62.652344 81.675781 L 65.097656 78.507812 C 65.492188 77.996094 65.761719 77.394531 65.882812 76.761719 C 66.847656 71.664062 67.84375 67.742188 69.6875 64.003906 C 69.835938 63.703125 69.957031 63.402344 70.050781 63.097656 C 71.136719 59.933594 72.222656 57.308594 73.371094 55.046875 C 73.1875 54.925781 73.007812 54.835938 72.855469 54.714844 C 72.523438 54.476562 72.375 54.050781 72.523438 53.660156 C 74.578125 48.5625 76.933594 44.132812 79.617188 40.152344 C 79.617188 40.152344 79.617188 40.121094 79.648438 40.121094 C 79.890625 39.757812 80.132812 39.398438 80.402344 39.035156 C 79.316406 38.460938 78.320312 37.738281 77.414062 36.804688 C 75.210938 35.324219 73.851562 34.027344 73.007812 32.640625 C 72.433594 33.214844 71.832031 33.789062 71.167969 34.332031 C 70.953125 34.511719 70.683594 34.542969 70.472656 34.390625 C 70.230469 34.269531 70.109375 34.027344 70.140625 33.757812 L 70.410156 31.222656 C 70.410156 31.164062 70.382812 31.164062 70.351562 31.132812 C 70.351562 31.132812 70.289062 31.101562 70.261719 31.164062 C 69.625 31.828125 68.933594 32.339844 68.238281 32.671875 C 68.027344 32.761719 67.816406 32.761719 67.605469 32.640625 C 67.421875 32.519531 67.300781 32.308594 67.332031 32.097656 C 67.363281 31.074219 67.574219 30.019531 67.90625 28.960938 C 68.175781 28.148438 68.328125 27.273438 68.390625 26.367188 C 68.507812 23.351562 69.898438 20.546875 72.3125 18.527344 C 74.367188 16.777344 76.902344 15.875 79.074219 16.144531 C 79.378906 16.175781 79.710938 16.117188 79.980469 15.933594 C 81.429688 15.03125 83.363281 15 85.292969 15.8125 C 88.132812 17.019531 90.394531 19.886719 91.058594 23.050781 C 91.058594 23.082031 91.058594 23.082031 91.058594 23.082031 C 91.179688 23.351562 91.273438 23.625 91.363281 23.925781 C 91.542969 24.679688 91.511719 25.433594 91.300781 26.066406 L 92.507812 27.214844 C 92.75 27.0625 92.992188 26.910156 93.234375 26.792969 C 93.234375 26.792969 93.265625 26.761719 93.265625 26.761719 C 95.46875 25.496094 97.640625 24.5 99.753906 23.835938 C 99.753906 23.835938 99.785156 23.835938 99.785156 23.835938 C 100.449219 23.625 101.113281 23.445312 101.746094 23.324219 C 103.710938 22.902344 105.730469 23.234375 107.390625 24.257812 C 110.351562 26.097656 113.429688 28.933594 117.113281 33.246094 C 117.476562 33.667969 117.476562 34.269531 117.171875 34.722656 C 116.960938 35.023438 116.75 35.296875 116.507812 35.597656 C 118.199219 38.734375 119.496094 41.628906 120.492188 44.402344 C 120.824219 45.308594 120.945312 46.273438 120.796875 47.117188 C 120.707031 47.78125 120.523438 48.414062 120.3125 48.984375 C 120.253906 49.199219 120.132812 49.410156 120.042969 49.589844 C 122.457031 53.058594 124.238281 56.949219 125.355469 61.199219 C 125.535156 61.863281 125.203125 62.527344 124.597656 62.828125 C 124.539062 62.859375 124.480469 62.886719 124.449219 62.886719 C 124.660156 63.914062 124.839844 64.96875 125.023438 66.023438 C 125.023438 66.023438 125.023438 66.054688 125.023438 66.054688 C 125.746094 70.308594 126.289062 74.769531 126.683594 79.324219 L 127.164062 79.234375 C 127.316406 79.203125 127.46875 79.234375 127.617188 79.324219 C 127.738281 79.414062 127.828125 79.535156 127.859375 79.683594 L 128.464844 82.792969 C 128.523438 83.125 128.433594 83.425781 128.222656 83.667969 L 129.371094 89.726562 C 129.398438 89.910156 129.339844 90.089844 129.21875 90.238281 C 128.976562 90.542969 128.707031 90.8125 128.402344 91.023438 C 129.730469 95.457031 130.304688 99.738281 130.214844 104.324219 C 130.214844 104.5625 130.0625 104.804688 129.851562 104.957031 C 130.214844 107.007812 130.457031 109.449219 130.667969 111.621094 C 130.726562 112.074219 130.757812 112.496094 130.789062 112.917969 C 130.789062 113.039062 130.816406 113.128906 130.816406 113.25 C 134.804688 113.519531 138.699219 114.273438 142.199219 115.992188 C 144.371094 117.050781 145.882812 118.285156 146.816406 119.761719 C 148.085938 121.785156 148.328125 123.953125 147.542969 126.097656 Z M 129.519531 105.167969 C 128.734375 105.53125 127.949219 105.859375 127.164062 106.101562 C 127.164062 106.101562 127.164062 106.101562 127.136719 106.101562 C 125.746094 106.554688 124.359375 106.796875 123.089844 106.917969 C 123.089844 106.917969 123.058594 106.917969 123.058594 106.917969 C 122.214844 107.007812 121.398438 107.039062 120.675781 107.039062 C 120.523438 107.039062 120.34375 107.039062 120.191406 107.039062 L 122.035156 113.308594 L 122.125 113.640625 L 122.484375 114.816406 C 122.820312 115.902344 122.457031 117.050781 121.582031 117.773438 C 121.21875 118.074219 120.796875 118.375 120.402344 118.648438 C 121.792969 118.769531 123.121094 119.371094 123.996094 120.367188 C 124.054688 120.425781 124.054688 120.546875 123.996094 120.609375 C 123.964844 120.636719 123.933594 120.636719 123.875 120.636719 C 123.816406 120.636719 123.785156 120.609375 123.753906 120.578125 C 122.847656 119.550781 121.429688 118.949219 119.980469 118.949219 C 119.136719 119.550781 118.320312 120.214844 117.867188 121.058594 C 117.808594 121.179688 117.746094 121.300781 117.714844 121.421875 C 117.714844 121.421875 117.714844 121.453125 117.714844 121.453125 C 117.566406 121.90625 117.597656 122.386719 117.808594 122.777344 C 118.199219 123.59375 119.195312 124.167969 120.492188 124.378906 C 122.457031 124.679688 125.59375 124.136719 128.101562 121.601562 C 128.28125 121.421875 128.464844 121.242188 128.675781 121.089844 C 128.675781 121.089844 128.707031 121.058594 128.707031 121.058594 C 128.796875 121 128.886719 120.910156 128.976562 120.847656 C 129.308594 120.609375 129.671875 120.367188 130.0625 120.183594 C 130.789062 119.792969 131.363281 119.21875 131.695312 118.527344 C 131.753906 118.375 131.816406 118.195312 131.84375 118.042969 C 131.84375 117.953125 131.875 117.863281 131.875 117.773438 C 131.933594 117.019531 131.722656 116.296875 131.242188 115.480469 C 130.910156 114.9375 130.667969 114.304688 130.546875 113.640625 C 130.515625 113.519531 130.515625 113.429688 130.484375 113.308594 C 130.457031 113.21875 130.457031 113.128906 130.457031 113.039062 C 130.425781 112.617188 130.367188 112.195312 130.335938 111.742188 C 130.09375 109.601562 129.851562 107.1875 129.519531 105.167969 Z M 87.679688 113.671875 L 87.738281 113.28125 L 87.769531 112.949219 L 88.464844 107.339844 C 87.890625 107.460938 87.316406 107.550781 86.742188 107.578125 C 86.261719 107.640625 85.777344 107.640625 85.265625 107.640625 C 84.296875 107.640625 83.363281 107.550781 82.394531 107.367188 C 82.394531 107.367188 82.367188 107.367188 82.367188 107.367188 C 81.492188 107.21875 80.644531 106.976562 79.800781 106.675781 L 79.589844 111.652344 L 79.558594 111.984375 L 79.527344 112.585938 C 79.46875 113.703125 78.832031 114.695312 77.835938 115.210938 C 76.691406 115.78125 75.605469 116.265625 74.515625 116.6875 C 75.121094 117.230469 75.511719 117.984375 75.574219 118.769531 C 75.574219 118.859375 75.511719 118.949219 75.421875 118.949219 C 75.332031 118.949219 75.273438 118.890625 75.273438 118.796875 C 75.210938 118.042969 74.820312 117.351562 74.183594 116.839844 C 73.128906 117.230469 72.070312 117.59375 70.863281 117.953125 C 69.503906 118.347656 69.292969 119.550781 69.265625 119.945312 C 69.265625 120.066406 69.265625 120.214844 69.292969 120.335938 C 69.414062 120.789062 69.746094 121.152344 70.199219 121.332031 C 73.066406 122.386719 77.445312 122.085938 80.3125 121.269531 C 80.585938 121.179688 80.855469 121.152344 81.160156 121.089844 C 81.1875 121.089844 81.1875 121.089844 81.1875 121.089844 C 81.339844 121.058594 81.492188 121.058594 81.671875 121.058594 C 82.0625 121.058594 82.457031 121.058594 82.878906 121.121094 C 84.148438 121.300781 85.503906 121.210938 86.863281 120.820312 C 87.136719 120.757812 87.347656 120.578125 87.496094 120.367188 C 87.589844 120.246094 87.679688 120.09375 87.710938 119.914062 C 88.070312 118.496094 88.070312 116.867188 87.769531 115.542969 C 87.648438 114.90625 87.589844 114.304688 87.679688 113.671875 Z M 62.984375 103.207031 C 59.605469 107.15625 55.890625 110.082031 51.9375 111.984375 C 52.449219 112.675781 52.871094 113.429688 53.265625 114.246094 C 53.898438 114.125 54.503906 114.003906 55.136719 113.882812 C 63.015625 112.40625 71.136719 110.898438 79.257812 111.621094 L 79.46875 106.554688 C 79.226562 106.433594 79.074219 106.191406 79.074219 105.921875 C 78.714844 100.3125 78.894531 94.976562 79.710938 89.757812 C 79.527344 89.546875 79.316406 89.304688 79.136719 89.0625 C 79.015625 88.882812 78.984375 88.671875 79.046875 88.460938 L 80.34375 83.605469 C 80.34375 83.574219 80.375 83.515625 80.375 83.484375 L 80.796875 82.460938 C 80.585938 82.21875 80.523438 81.886719 80.644531 81.585938 L 81.941406 78.449219 C 82.09375 78.085938 82.488281 77.90625 82.847656 78.027344 L 83.390625 78.207031 C 85.535156 74.257812 87.859375 70.425781 90.335938 66.777344 C 90.335938 66.777344 90.304688 66.777344 90.304688 66.777344 C 90.125 66.75 89.972656 66.628906 89.882812 66.476562 C 89.792969 66.324219 89.761719 66.144531 89.824219 65.964844 C 89.941406 65.480469 90.09375 65.03125 90.214844 64.546875 L 89.609375 64.605469 L 72.707031 81.464844 C 72.644531 82.488281 72.433594 83.574219 71.921875 84.570312 C 71.949219 84.632812 71.980469 84.722656 71.980469 84.8125 C 72.164062 85.355469 72.070312 85.898438 71.769531 86.289062 C 71.527344 86.621094 71.195312 86.863281 70.804688 86.953125 C 70.683594 86.984375 70.59375 87.105469 70.53125 87.222656 C 70.320312 87.976562 69.503906 88.550781 68.722656 88.550781 C 68.570312 88.550781 68.417969 88.613281 68.359375 88.761719 C 67.9375 89.578125 67.242188 89.96875 66.488281 89.847656 C 66.304688 89.816406 66.15625 89.910156 66.0625 90.027344 C 65.761719 90.542969 65.25 90.84375 64.707031 90.84375 C 64.675781 90.84375 64.675781 90.84375 64.644531 90.84375 C 64.28125 90.8125 63.980469 90.570312 63.832031 90.238281 L 56.828125 97.238281 L 62.5625 100.792969 C 62.953125 101.035156 63.195312 101.429688 63.285156 101.878906 C 63.40625 102.394531 63.257812 102.84375 62.984375 103.207031 Z M 66.15625 88.308594 C 66.15625 88.402344 66.09375 88.492188 66.003906 88.492188 C 65.945312 88.492188 65.882812 88.460938 65.851562 88.402344 C 65.851562 88.371094 65.824219 88.371094 65.824219 88.339844 L 65.792969 87.976562 L 65.550781 84.300781 L 65.519531 83.847656 L 65.492188 83.546875 C 65.492188 83.546875 65.460938 83.546875 65.460938 83.546875 C 65.25 83.757812 65.007812 83.9375 64.796875 84.089844 C 64.707031 84.148438 64.613281 84.238281 64.523438 84.328125 C 64.496094 84.449219 64.433594 84.570312 64.402344 84.691406 C 64.375 84.78125 64.375 84.871094 64.34375 84.992188 C 64.3125 85.175781 64.28125 85.355469 64.253906 85.566406 C 64.042969 86.863281 64.042969 88.191406 64.070312 89.667969 C 64.070312 89.789062 64.070312 89.910156 64.101562 90.027344 C 64.101562 90.058594 64.101562 90.089844 64.101562 90.121094 C 64.191406 90.453125 64.402344 90.632812 64.644531 90.664062 C 65.066406 90.691406 65.519531 90.421875 65.761719 90 C 65.914062 89.757812 66.214844 89.605469 66.515625 89.667969 C 67.363281 89.789062 67.84375 89.15625 68.058594 88.761719 C 68.175781 88.519531 68.417969 88.402344 68.722656 88.402344 C 69.355469 88.402344 70.019531 87.917969 70.199219 87.285156 C 70.261719 87.042969 70.472656 86.863281 70.683594 86.800781 C 71.015625 86.710938 71.257812 86.53125 71.46875 86.257812 C 71.710938 85.929688 71.769531 85.476562 71.617188 85.054688 C 71.589844 84.960938 71.558594 84.84375 71.527344 84.75 C 71.378906 84.269531 71.167969 83.816406 70.925781 83.335938 C 70.863281 83.242188 70.835938 83.125 70.773438 83.03125 C 70.382812 82.25 69.867188 81.496094 69.292969 80.769531 C 69.234375 80.742188 69.203125 80.742188 69.144531 80.710938 C 68.992188 80.679688 68.902344 80.679688 68.78125 80.742188 C 68.628906 80.832031 68.480469 81.011719 68.390625 81.34375 L 68.417969 81.40625 L 69.625 84.117188 L 69.777344 84.449219 L 70.140625 85.292969 C 70.167969 85.386719 70.140625 85.476562 70.050781 85.503906 C 70.019531 85.503906 70.019531 85.535156 69.988281 85.535156 C 69.929688 85.535156 69.867188 85.503906 69.835938 85.445312 L 69.503906 84.722656 L 69.355469 84.390625 L 68.148438 81.675781 L 68.117188 81.644531 C 68.058594 81.644531 67.996094 81.644531 67.9375 81.644531 C 67.875 81.617188 67.816406 81.617188 67.753906 81.585938 C 67.574219 81.554688 67.421875 81.554688 67.300781 81.644531 C 67.121094 81.765625 66.96875 82.007812 66.910156 82.398438 L 66.910156 82.429688 L 67 82.792969 L 67.90625 85.808594 L 67.996094 86.167969 L 68.238281 86.984375 C 68.269531 87.074219 68.207031 87.164062 68.117188 87.195312 C 68.085938 87.195312 68.085938 87.195312 68.058594 87.195312 C 67.996094 87.195312 67.9375 87.132812 67.90625 87.074219 L 67.722656 86.410156 L 67.605469 86.046875 L 66.699219 83.03125 L 66.609375 82.671875 C 66.546875 82.671875 66.515625 82.671875 66.457031 82.671875 C 66.304688 82.609375 66.183594 82.609375 66.09375 82.671875 C 65.914062 82.761719 65.761719 83.003906 65.640625 83.394531 L 65.640625 83.636719 L 65.671875 84.089844 L 65.914062 87.765625 L 65.945312 88.191406 Z M 88.796875 60.054688 L 90.003906 56.765625 C 90.214844 56.34375 90.578125 56.042969 91 55.890625 L 92.78125 55.289062 C 92.78125 55.289062 92.75 55.257812 92.75 55.257812 C 90.667969 53.449219 88.644531 51.488281 86.742188 49.378906 C 85.867188 52.304688 84.601562 55.257812 82.847656 58.335938 C 82.699219 58.605469 82.394531 58.785156 82.09375 58.785156 C 82.035156 58.785156 81.941406 58.785156 81.882812 58.757812 C 81.640625 58.695312 81.429688 58.636719 81.1875 58.574219 C 80.164062 60.835938 78.863281 63.039062 77.292969 65.242188 C 76.902344 65.785156 76.628906 66.386719 76.449219 67.078125 C 75.542969 70.609375 74.425781 73.441406 72.765625 76.246094 C 72.644531 76.457031 72.554688 76.667969 72.496094 76.910156 L 88.855469 60.597656 C 88.707031 60.445312 88.707031 60.234375 88.796875 60.054688 Z M 71.226562 83.003906 C 71.4375 83.394531 71.589844 83.785156 71.738281 84.207031 C 72.101562 83.453125 72.253906 82.671875 72.34375 81.886719 Z M 101.265625 62.34375 C 101.265625 62.34375 101.292969 62.316406 101.292969 62.316406 L 100.871094 59.902344 L 98.726562 61.441406 C 98.699219 61.472656 98.667969 61.472656 98.605469 61.5 L 98.9375 63.550781 Z M 100.386719 59.8125 C 100.117188 59.871094 99.84375 59.933594 99.574219 59.992188 C 99.152344 60.082031 98.757812 60.265625 98.425781 60.507812 C 98.367188 60.566406 98.273438 60.597656 98.214844 60.65625 L 98.125 60.71875 L 97.792969 60.988281 L 98.183594 61.109375 L 98.335938 61.140625 C 98.394531 61.167969 98.457031 61.140625 98.515625 61.109375 Z M 97.519531 61.289062 L 95.921875 62.707031 L 96.011719 63.25 C 96.011719 63.28125 96.042969 63.28125 96.042969 63.28125 L 98.605469 63.582031 L 98.273438 61.5 C 98.246094 61.5 98.246094 61.5 98.214844 61.5 Z M 95.679688 63.308594 L 95.617188 62.949219 L 94.742188 63.734375 C 94.351562 64.0625 93.898438 64.277344 93.382812 64.335938 L 90.578125 64.578125 C 90.425781 65.089844 90.273438 65.601562 90.15625 66.113281 C 90.125 66.207031 90.15625 66.296875 90.183594 66.355469 C 90.246094 66.417969 90.304688 66.476562 90.394531 66.507812 C 90.488281 66.539062 90.578125 66.539062 90.667969 66.566406 C 90.667969 66.566406 90.699219 66.566406 90.699219 66.566406 C 96.132812 67.683594 101.382812 68.015625 106.488281 67.59375 C 106.425781 64.304688 106.0625 61.230469 105.429688 58.425781 C 104.101562 58.878906 102.621094 59.300781 101.171875 59.660156 L 101.625 62.253906 C 101.65625 62.40625 101.566406 62.585938 101.414062 62.648438 L 98.96875 63.914062 C 98.96875 63.914062 98.9375 63.914062 98.9375 63.914062 C 98.878906 63.945312 98.847656 63.945312 98.789062 63.945312 C 98.757812 63.945312 98.757812 63.945312 98.726562 63.945312 L 96.011719 63.613281 C 95.859375 63.613281 95.710938 63.492188 95.679688 63.308594 Z M 86.863281 84.390625 C 86.894531 84.390625 86.925781 84.390625 86.953125 84.390625 C 87.136719 84.359375 87.285156 84.238281 87.347656 84.089844 L 88.675781 80.800781 C 88.675781 80.769531 88.675781 80.769531 88.707031 80.742188 C 88.734375 80.652344 88.707031 80.558594 88.675781 80.46875 C 88.613281 80.378906 88.554688 80.289062 88.433594 80.257812 L 83.574219 78.660156 L 83.242188 78.570312 L 82.757812 78.417969 C 82.726562 78.417969 82.667969 78.390625 82.636719 78.390625 C 82.488281 78.390625 82.335938 78.480469 82.273438 78.628906 L 80.976562 81.765625 C 80.917969 81.886719 80.917969 82.007812 80.976562 82.128906 C 81.007812 82.1875 81.039062 82.25 81.097656 82.308594 C 81.128906 82.339844 81.160156 82.398438 81.21875 82.429688 C 81.25 82.460938 81.277344 82.519531 81.339844 82.550781 C 81.429688 82.640625 81.519531 82.699219 81.609375 82.792969 C 82.941406 83.96875 84.992188 84.601562 86.863281 84.390625 Z M 86.140625 84.75 C 84.417969 84.75 82.667969 84.117188 81.398438 83.0625 C 81.308594 83.003906 81.21875 82.914062 81.128906 82.820312 C 81.097656 82.792969 81.039062 82.761719 81.007812 82.699219 L 80.644531 83.636719 L 79.347656 88.550781 C 79.316406 88.671875 79.316406 88.792969 79.40625 88.882812 C 79.527344 89.035156 79.648438 89.214844 79.769531 89.335938 C 79.859375 89.457031 79.949219 89.546875 80.042969 89.667969 C 81.519531 91.207031 83.121094 91.566406 84.933594 90.722656 C 85.023438 90.691406 85.082031 90.601562 85.113281 90.511719 L 86.199219 86.140625 C 86.261719 85.929688 86.320312 85.714844 86.410156 85.503906 L 86.742188 84.722656 C 86.351562 84.75 86.261719 84.75 86.140625 84.75 Z M 88.101562 112.976562 C 96.253906 114.152344 104.554688 114.363281 115.453125 113.730469 C 116.328125 113.671875 117.171875 113.640625 118.046875 113.582031 C 119.226562 113.519531 120.464844 113.429688 121.671875 113.371094 L 119.828125 107.066406 C 119.800781 107.066406 119.769531 107.066406 119.769531 107.066406 C 119.496094 107.066406 119.257812 106.917969 119.136719 106.675781 C 116.085938 101.035156 113.941406 95.789062 112.707031 91.054688 C 110.261719 82.609375 108.660156 75.613281 107.84375 69.671875 L 106.726562 69.671875 C 103.195312 76.277344 99.542969 82.398438 95.828125 87.859375 C 95.648438 88.160156 95.4375 88.429688 95.257812 88.703125 C 95.046875 89.035156 94.863281 89.367188 94.714844 89.699219 C 94.714844 89.699219 94.714844 89.699219 94.714844 89.726562 C 94.5625 90.089844 94.441406 90.453125 94.382812 90.8125 L 92.085938 101.761719 C 91.816406 103.117188 91.300781 104.351562 90.605469 105.410156 C 90.273438 105.921875 89.851562 106.464844 89.398438 107.007812 C 89.277344 107.128906 89.128906 107.21875 88.976562 107.277344 C 88.917969 107.277344 88.886719 107.308594 88.828125 107.308594 Z M 127.890625 83.9375 C 127.589844 84.117188 127.285156 84.300781 126.984375 84.421875 C 126.894531 84.480469 126.773438 84.511719 126.652344 84.570312 C 125.476562 85.082031 124.207031 85.324219 122.847656 85.324219 C 122.273438 85.324219 121.703125 85.265625 121.097656 85.203125 L 122.214844 91.085938 C 122.246094 91.175781 122.304688 91.265625 122.425781 91.296875 C 124.691406 92.140625 126.53125 92.019531 128.011719 90.933594 C 128.101562 90.875 128.191406 90.78125 128.28125 90.722656 C 128.523438 90.511719 128.734375 90.300781 128.945312 90.058594 C 129.007812 90 129.039062 89.910156 129.007812 89.816406 Z M 126.320312 79.746094 L 120.132812 80.921875 C 119.980469 80.953125 119.890625 81.074219 119.921875 81.222656 L 120.523438 84.300781 C 120.554688 84.390625 120.585938 84.480469 120.644531 84.570312 C 120.734375 84.691406 120.855469 84.8125 121.039062 84.84375 C 121.066406 84.84375 121.097656 84.871094 121.128906 84.871094 C 123.179688 85.175781 125.023438 84.933594 126.652344 84.238281 C 126.773438 84.179688 126.863281 84.148438 126.984375 84.089844 C 127.257812 83.96875 127.527344 83.816406 127.769531 83.636719 C 127.800781 83.636719 127.800781 83.605469 127.828125 83.605469 C 127.949219 83.515625 128.039062 83.363281 128.101562 83.214844 L 128.132812 83.03125 C 128.132812 83.003906 128.132812 82.941406 128.132812 82.914062 L 127.527344 79.804688 C 127.527344 79.746094 127.46875 79.683594 127.40625 79.625 C 127.375 79.59375 127.316406 79.566406 127.257812 79.566406 C 127.226562 79.566406 127.226562 79.566406 127.195312 79.566406 L 126.683594 79.65625 Z M 124.691406 66.265625 C 124.207031 66.355469 123.722656 66.386719 123.242188 66.386719 C 121.761719 66.386719 120.3125 65.996094 118.832031 65.179688 C 114.878906 66.566406 110.832031 67.441406 106.726562 67.832031 C 106.699219 67.832031 106.667969 67.863281 106.636719 67.863281 C 106.605469 67.863281 106.605469 67.863281 106.578125 67.863281 C 105.039062 68.015625 103.496094 68.074219 101.929688 68.074219 C 98.246094 68.074219 94.5 67.683594 90.699219 66.898438 C 88.191406 70.546875 85.835938 74.40625 83.695312 78.359375 L 88.496094 79.957031 C 88.675781 80.015625 88.855469 80.167969 88.917969 80.347656 C 89.007812 80.53125 89.007812 80.742188 88.945312 80.921875 L 87.617188 84.207031 C 87.527344 84.449219 87.316406 84.632812 87.074219 84.691406 L 86.5625 85.929688 L 85.414062 90.601562 C 85.355469 90.78125 85.234375 90.933594 85.050781 90.992188 C 84.386719 91.296875 83.722656 91.445312 83.089844 91.445312 C 81.972656 91.445312 80.917969 90.964844 79.949219 90.027344 C 79.195312 95.15625 79.015625 100.371094 79.378906 105.859375 C 79.378906 106.042969 79.5 106.191406 79.679688 106.253906 C 80.433594 106.523438 81.21875 106.765625 82.003906 106.917969 C 81.550781 106.253906 81.398438 105.53125 81.429688 104.351562 C 81.429688 104.261719 81.492188 104.203125 81.582031 104.203125 C 81.671875 104.203125 81.730469 104.292969 81.730469 104.382812 C 81.703125 105.679688 81.882812 106.3125 82.457031 107.039062 C 83.84375 107.277344 85.234375 107.339844 86.621094 107.21875 C 87.136719 106.644531 87.40625 105.953125 87.617188 104.835938 C 87.648438 104.746094 87.710938 104.683594 87.800781 104.714844 C 87.890625 104.746094 87.949219 104.804688 87.921875 104.894531 C 87.738281 105.921875 87.46875 106.613281 87.046875 107.1875 C 87.527344 107.128906 88.042969 107.039062 88.523438 106.945312 C 88.613281 106.917969 88.707031 106.917969 88.796875 106.886719 C 88.886719 106.855469 88.976562 106.796875 89.039062 106.734375 C 89.492188 106.222656 89.882812 105.679688 90.214844 105.167969 C 90.910156 104.140625 91.390625 102.964844 91.664062 101.640625 L 93.957031 90.691406 C 94.050781 90.332031 94.140625 89.9375 94.289062 89.605469 C 94.050781 89.125 93.625 88.429688 92.902344 87.828125 C 92.839844 87.765625 92.8125 87.675781 92.871094 87.585938 C 92.933594 87.527344 92.992188 87.527344 93.050781 87.527344 C 93.082031 87.527344 93.082031 87.554688 93.113281 87.554688 C 93.777344 88.097656 94.199219 88.730469 94.472656 89.214844 C 94.59375 88.945312 94.742188 88.703125 94.925781 88.460938 C 95.074219 88.25 95.226562 88.007812 95.378906 87.796875 C 94.683594 87.585938 93.957031 87.34375 93.265625 87.042969 C 93.144531 87.011719 93.050781 86.953125 92.933594 86.894531 C 92.839844 86.863281 92.8125 86.773438 92.839844 86.683594 C 92.871094 86.589844 92.960938 86.5625 93.050781 86.589844 C 93.867188 86.953125 94.714844 87.253906 95.527344 87.496094 C 99.152344 82.097656 102.773438 76.097656 106.246094 69.582031 L 103.257812 69.582031 C 103.164062 69.582031 103.105469 69.523438 103.105469 69.433594 C 103.105469 69.339844 103.164062 69.28125 103.257812 69.28125 L 110.59375 69.28125 C 110.683594 69.28125 110.742188 69.339844 110.742188 69.433594 C 110.742188 69.523438 110.683594 69.582031 110.59375 69.582031 L 108.085938 69.582031 C 108.902344 75.523438 110.5 82.488281 112.917969 90.902344 C 114.125 95.609375 116.296875 100.855469 119.316406 106.464844 C 119.375 106.585938 119.527344 106.675781 119.679688 106.675781 C 119.738281 106.675781 119.800781 106.675781 119.859375 106.675781 C 120.585938 106.707031 121.398438 106.675781 122.304688 106.613281 C 121.609375 106.191406 121.25 105.4375 120.917969 104.65625 C 120.886719 104.5625 120.917969 104.472656 121.007812 104.445312 C 121.097656 104.414062 121.1875 104.445312 121.21875 104.535156 C 121.703125 105.648438 122.09375 106.3125 122.96875 106.554688 C 124.207031 106.433594 125.535156 106.191406 126.894531 105.769531 C 127.375 105.046875 127.496094 104.203125 127.257812 103.207031 C 127.226562 103.117188 127.285156 103.027344 127.375 102.996094 C 127.46875 102.964844 127.558594 103.027344 127.589844 103.117188 C 127.800781 104.023438 127.738281 104.867188 127.375 105.589844 C 128.070312 105.347656 128.796875 105.078125 129.488281 104.714844 C 129.519531 104.714844 129.519531 104.683594 129.550781 104.683594 C 129.703125 104.625 129.792969 104.472656 129.792969 104.324219 C 129.882812 99.800781 129.308594 95.578125 128.039062 91.234375 C 127.164062 91.839844 126.199219 92.140625 125.082031 92.140625 C 124.207031 92.140625 123.269531 91.960938 122.246094 91.597656 C 122.035156 91.507812 121.882812 91.355469 121.820312 91.113281 L 120.675781 85.054688 C 120.402344 84.902344 120.191406 84.660156 120.132812 84.328125 L 119.527344 81.253906 C 119.46875 80.921875 119.679688 80.621094 119.980469 80.558594 L 126.199219 79.382812 C 125.929688 74.890625 125.382812 70.488281 124.691406 66.265625 Z M 124.117188 63.039062 C 122.515625 63.792969 120.917969 64.457031 119.285156 65.03125 C 121.097656 65.933594 122.847656 66.234375 124.660156 65.933594 C 124.449219 64.96875 124.296875 64.003906 124.117188 63.039062 Z M 119.828125 49.890625 C 119.558594 50.28125 119.257812 50.644531 118.863281 50.976562 C 117.535156 52.121094 116.148438 53.179688 114.605469 54.144531 L 114.9375 54.835938 C 115.03125 55.046875 115 55.320312 114.847656 55.46875 L 114.757812 55.558594 L 115.601562 57.640625 C 115.753906 58.003906 115.632812 58.394531 115.363281 58.605469 L 113.851562 59.84375 C 113.730469 59.933594 113.609375 60.023438 113.488281 60.082031 C 113.398438 60.113281 113.308594 60.175781 113.21875 60.203125 C 113.097656 60.265625 112.945312 60.265625 112.796875 60.292969 L 110.894531 60.476562 C 110.863281 60.476562 110.832031 60.476562 110.804688 60.476562 C 110.472656 60.476562 110.140625 60.265625 110.019531 59.933594 L 109.144531 57.730469 L 108.992188 57.730469 C 108.75 57.703125 108.570312 57.550781 108.480469 57.339844 L 108.480469 57.308594 C 107.601562 57.671875 106.699219 58.003906 105.761719 58.304688 C 106.425781 61.140625 106.789062 64.214844 106.847656 67.53125 C 107 67.503906 107.179688 67.503906 107.332031 67.472656 C 108.296875 67.382812 109.265625 67.230469 110.199219 67.078125 C 111.164062 66.929688 112.101562 66.75 113.039062 66.539062 C 113.972656 66.324219 114.9375 66.085938 115.875 65.8125 C 116.8125 65.542969 117.746094 65.242188 118.683594 64.910156 C 119.617188 64.578125 120.554688 64.246094 121.460938 63.851562 C 122.394531 63.460938 123.300781 63.070312 124.207031 62.648438 C 124.296875 62.585938 124.386719 62.554688 124.507812 62.496094 C 124.960938 62.285156 125.203125 61.742188 125.082031 61.261719 C 123.933594 57.128906 122.183594 53.296875 119.828125 49.890625 Z M 113.371094 59.78125 C 113.460938 59.722656 113.550781 59.691406 113.640625 59.601562 L 115.152344 58.363281 C 115.332031 58.214844 115.390625 57.972656 115.300781 57.761719 L 114.515625 55.832031 L 112.765625 57.761719 C 112.734375 57.820312 112.675781 57.851562 112.613281 57.882812 Z M 112.3125 57.972656 C 112.28125 57.972656 112.28125 57.972656 112.3125 57.972656 L 109.503906 57.761719 L 110.320312 59.8125 C 110.410156 60.023438 110.621094 60.175781 110.863281 60.144531 L 112.765625 59.992188 C 112.855469 59.992188 112.976562 59.964844 113.066406 59.933594 Z M 114.636719 54.988281 L 114.335938 54.324219 C 114.304688 54.324219 114.304688 54.355469 114.273438 54.355469 C 114.183594 54.414062 114.09375 54.476562 114.003906 54.535156 C 113.277344 54.957031 112.554688 55.378906 111.769531 55.769531 C 111.679688 55.832031 111.589844 55.863281 111.46875 55.921875 C 110.710938 56.285156 109.957031 56.644531 109.171875 56.976562 C 109.082031 57.007812 108.960938 57.066406 108.871094 57.097656 C 108.839844 57.128906 108.78125 57.128906 108.75 57.160156 L 108.78125 57.21875 C 108.8125 57.308594 108.902344 57.398438 109.023438 57.398438 L 109.382812 57.429688 L 112.191406 57.640625 L 112.3125 57.640625 C 112.375 57.640625 112.464844 57.609375 112.523438 57.582031 C 112.523438 57.582031 112.523438 57.582031 112.554688 57.550781 L 114.425781 55.5 L 114.636719 55.257812 C 114.636719 55.257812 114.667969 55.230469 114.667969 55.230469 C 114.667969 55.167969 114.667969 55.078125 114.636719 54.988281 Z M 116.238281 35.867188 C 114.183594 38.339844 111.738281 40.179688 108.933594 41.355469 C 109.867188 43.167969 110.863281 44.765625 111.828125 46.089844 C 112.402344 45.851562 112.976562 45.609375 113.582031 45.429688 C 113.671875 45.398438 113.761719 45.457031 113.792969 45.546875 C 113.820312 45.640625 113.761719 45.730469 113.671875 45.757812 C 113.039062 45.96875 112.402344 46.210938 111.800781 46.484375 C 109.265625 47.628906 107.089844 49.316406 104.976562 50.945312 C 104.492188 51.339844 103.980469 51.699219 103.496094 52.09375 C 103.40625 52.152344 103.316406 52.214844 103.226562 52.304688 C 102.078125 53.148438 100.902344 53.960938 99.664062 54.65625 C 99.542969 54.714844 99.421875 54.804688 99.269531 54.867188 C 99.121094 54.957031 98.9375 55.015625 98.789062 55.078125 C 98.425781 55.199219 98.0625 55.230469 97.671875 55.230469 L 95.195312 55.078125 C 95.074219 55.078125 94.984375 55.078125 94.863281 55.078125 C 94.714844 55.078125 94.53125 55.136719 94.382812 55.167969 L 94.261719 55.230469 L 93.265625 55.558594 L 92.960938 55.652344 L 91.058594 56.285156 C 90.699219 56.40625 90.425781 56.644531 90.273438 56.976562 L 89.066406 60.265625 C 89.039062 60.324219 89.039062 60.386719 89.039062 60.445312 C 89.039062 60.476562 89.039062 60.507812 89.066406 60.535156 C 89.097656 60.566406 89.160156 60.65625 89.277344 60.65625 C 89.972656 60.597656 90.515625 60.175781 90.910156 59.390625 C 91.121094 58.90625 91.511719 58.546875 91.996094 58.394531 L 92.386719 58.246094 C 92.386719 58.246094 92.386719 58.246094 92.417969 58.246094 C 92.539062 58.214844 92.660156 58.183594 92.78125 58.214844 C 92.933594 58.214844 93.050781 58.273438 93.171875 58.394531 C 93.355469 58.574219 93.445312 58.816406 93.414062 59.058594 C 93.234375 59.871094 92.933594 60.65625 92.539062 61.378906 C 92.328125 61.800781 92.054688 62.195312 91.785156 62.585938 C 91.511719 63.007812 91.210938 63.402344 90.910156 63.761719 L 92.269531 63.402344 C 92.660156 63.308594 92.992188 63.097656 93.292969 62.859375 L 94.683594 61.5 C 94.742188 61.441406 94.863281 61.441406 94.925781 61.5 C 94.953125 61.53125 94.984375 61.5625 94.984375 61.621094 C 94.984375 61.652344 94.953125 61.710938 94.925781 61.742188 L 93.535156 63.097656 C 93.203125 63.402344 92.8125 63.640625 92.386719 63.734375 L 90.726562 64.183594 L 90.367188 64.277344 L 90.0625 64.335938 L 90.003906 64.394531 L 90.335938 64.367188 L 90.699219 64.335938 L 93.382812 64.09375 C 93.835938 64.0625 94.230469 63.882812 94.5625 63.582031 L 95.589844 62.675781 L 95.890625 62.4375 L 97.1875 61.289062 L 97.492188 61.019531 L 98.0625 60.535156 C 98.09375 60.507812 98.125 60.507812 98.125 60.476562 C 98.214844 60.386719 98.304688 60.324219 98.425781 60.265625 C 98.757812 60.023438 99.152344 59.871094 99.574219 59.78125 C 99.996094 59.691406 100.417969 59.601562 100.839844 59.480469 C 100.933594 59.449219 101.445312 59.328125 101.566406 59.300781 C 102.894531 58.96875 104.191406 58.605469 105.398438 58.183594 C 105.488281 58.152344 105.609375 58.125 105.703125 58.09375 C 106.636719 57.792969 107.511719 57.460938 108.386719 57.097656 C 108.480469 57.066406 108.601562 57.007812 108.691406 56.976562 C 108.71875 56.976562 108.78125 56.949219 108.8125 56.917969 C 108.902344 56.886719 109.023438 56.828125 109.113281 56.796875 C 109.898438 56.464844 110.652344 56.101562 111.40625 55.742188 C 111.496094 55.679688 111.589844 55.652344 111.710938 55.589844 C 112.464844 55.199219 113.21875 54.777344 113.941406 54.355469 C 114.035156 54.292969 114.125 54.234375 114.214844 54.171875 C 114.214844 54.171875 114.246094 54.144531 114.246094 54.144531 C 114.335938 54.082031 114.425781 54.023438 114.515625 53.960938 C 116.027344 53.027344 117.414062 51.972656 118.710938 50.855469 C 119.136719 50.492188 119.46875 50.070312 119.738281 49.621094 C 119.859375 49.410156 119.980469 49.199219 120.039062 48.957031 C 120.253906 48.382812 120.402344 47.78125 120.492188 47.148438 C 120.613281 46.332031 120.523438 45.457031 120.191406 44.582031 C 119.164062 41.777344 117.898438 38.945312 116.238281 35.867188 Z M 105.730469 40.84375 L 104.375 39.304688 L 104.253906 39.183594 L 101.867188 40.996094 L 101.566406 41.234375 L 99.453125 42.863281 L 100.78125 44.703125 C 100.8125 44.734375 100.839844 44.734375 100.871094 44.734375 L 100.992188 44.703125 L 101.355469 44.613281 L 104.101562 44.011719 L 104.3125 43.949219 C 104.34375 43.949219 104.375 43.921875 104.375 43.890625 L 104.402344 43.828125 L 105.609375 41.296875 L 105.761719 40.964844 L 105.792969 40.90625 C 105.761719 40.933594 105.730469 40.875 105.730469 40.84375 Z M 104.613281 44.070312 C 104.613281 44.101562 104.585938 44.132812 104.554688 44.160156 L 105.824219 45.757812 L 107.089844 43.859375 C 107.210938 43.679688 107.210938 43.4375 107.058594 43.257812 L 105.730469 41.597656 Z M 101.535156 44.914062 L 102.863281 46.574219 L 102.984375 46.453125 C 103.257812 46.183594 103.589844 46.03125 103.949219 46.0625 C 104.253906 46.0625 104.523438 46.152344 104.796875 46.273438 L 105.609375 45.941406 L 104.28125 44.28125 Z M 100.628906 53.691406 C 101.476562 53.148438 102.320312 52.574219 103.105469 51.972656 C 103.015625 51.820312 102.925781 51.640625 102.832031 51.488281 Z M 99.9375 24.105469 C 100.328125 29.898438 102.714844 35.535156 107.210938 41.355469 C 107.300781 41.476562 107.484375 41.539062 107.664062 41.476562 C 107.996094 41.355469 108.328125 41.234375 108.660156 41.117188 C 111.558594 39.9375 114.09375 38.039062 116.148438 35.476562 C 116.386719 35.175781 116.628906 34.84375 116.871094 34.511719 C 117.113281 34.179688 117.082031 33.726562 116.839844 33.425781 C 113.1875 29.144531 110.140625 26.308594 107.210938 24.5 C 105.609375 23.503906 103.679688 23.171875 101.808594 23.59375 C 101.171875 23.777344 100.570312 23.925781 99.9375 24.105469 Z M 93.476562 26.972656 C 95.679688 32.128906 96.917969 37.527344 97.308594 43.4375 C 98.699219 45.003906 99.996094 46.632812 101.144531 48.292969 L 102.621094 46.816406 L 101.144531 44.976562 L 100.871094 45.035156 C 100.839844 45.035156 100.8125 45.035156 100.78125 45.035156 C 100.660156 45.035156 100.507812 44.976562 100.449219 44.855469 L 99.03125 42.894531 C 98.96875 42.835938 99 42.714844 99.058594 42.683594 L 104.132812 38.824219 C 104.191406 38.761719 104.28125 38.761719 104.34375 38.855469 L 105.941406 40.632812 C 106.0625 40.753906 106.09375 40.933594 106.003906 41.085938 L 105.914062 41.296875 L 107.332031 43.074219 C 107.542969 43.347656 107.574219 43.738281 107.363281 44.039062 L 106.035156 46.03125 C 105.972656 46.121094 105.914062 46.183594 105.792969 46.210938 L 105.097656 46.484375 C 105.519531 46.84375 105.792969 47.359375 105.792969 47.929688 C 105.792969 48.261719 105.640625 48.59375 105.398438 48.867188 L 103.046875 51.21875 C 103.136719 51.398438 103.257812 51.578125 103.347656 51.761719 C 103.828125 51.398438 104.3125 51.007812 104.796875 50.644531 C 106.878906 49.046875 109.023438 47.386719 111.496094 46.242188 C 110.5 44.886719 109.535156 43.285156 108.601562 41.476562 C 108.296875 41.597656 108.027344 41.71875 107.722656 41.808594 C 107.664062 41.839844 107.574219 41.839844 107.484375 41.839844 C 107.269531 41.839844 107.058594 41.75 106.910156 41.566406 C 106.636719 41.207031 106.367188 40.84375 106.125 40.511719 C 102.140625 35.054688 99.996094 29.714844 99.605469 24.226562 C 97.609375 24.859375 95.558594 25.796875 93.476562 26.972656 Z M 92.601562 27.515625 C 94.199219 32.128906 94.199219 35.929688 92.570312 37.464844 C 92.175781 37.828125 91.574219 38.191406 90.667969 38.191406 C 90.15625 38.191406 89.519531 38.070312 88.765625 37.769531 C 88.585938 37.949219 88.402344 38.128906 88.191406 38.28125 C 90.878906 40.601562 93.65625 42.230469 96.945312 43.285156 C 96.554688 37.496094 95.316406 32.21875 93.171875 27.152344 C 92.992188 27.273438 92.8125 27.394531 92.601562 27.515625 Z M 91.089844 26.429688 C 91.058594 26.488281 91.03125 26.550781 91 26.578125 C 90.9375 26.671875 90.878906 26.761719 90.789062 26.820312 C 90.789062 26.851562 90.820312 26.851562 90.820312 26.882812 C 91.332031 29.382812 91.421875 31.796875 91.058594 34.058594 C 90.96875 34.691406 90.726562 35.265625 90.394531 35.777344 C 89.972656 36.410156 89.519531 36.984375 89.039062 37.496094 C 90.457031 38.039062 91.605469 37.949219 92.386719 37.226562 C 93.898438 35.808594 93.867188 32.007812 92.296875 27.546875 Z M 90.667969 23.203125 C 90.183594 22.175781 89.371094 21.605469 88.585938 21.785156 C 87.921875 21.9375 87.46875 22.449219 87.378906 23.171875 C 87.316406 23.5625 87.527344 23.925781 87.859375 24.167969 C 88.734375 24.742188 89.429688 25.496094 89.941406 26.429688 C 90.035156 26.578125 90.183594 26.671875 90.335938 26.671875 C 90.515625 26.671875 90.667969 26.578125 90.757812 26.429688 C 90.820312 26.339844 90.878906 26.21875 90.910156 26.097656 C 90.910156 26.097656 90.910156 26.097656 90.910156 26.066406 C 91.121094 25.464844 91.152344 24.742188 91 24.015625 C 90.878906 23.746094 90.789062 23.445312 90.667969 23.203125 Z M 75.210938 29.324219 C 75.300781 29.171875 75.484375 29.113281 75.664062 29.171875 C 75.84375 29.234375 75.9375 29.414062 75.90625 29.59375 L 75.785156 30.589844 C 75.785156 30.710938 75.84375 30.742188 75.875 30.773438 C 75.90625 30.773438 75.996094 30.832031 76.054688 30.742188 C 78.5625 28.628906 80.765625 25.402344 81.609375 24.105469 C 81.703125 23.957031 81.882812 23.835938 82.0625 23.804688 C 82.246094 23.777344 82.457031 23.835938 82.609375 23.925781 C 85.265625 25.976562 87.316406 28.8125 88.222656 31.707031 C 88.3125 32.039062 88.222656 32.398438 87.949219 32.609375 C 84.601562 35.324219 82.609375 37.226562 81.550781 39.214844 C 82.335938 39.515625 83.152344 39.726562 84.027344 39.878906 C 84.507812 39.96875 85.023438 39.878906 85.476562 39.667969 C 86.351562 39.214844 87.105469 38.734375 87.800781 38.160156 C 88.070312 37.949219 88.3125 37.707031 88.554688 37.4375 C 89.097656 36.894531 89.582031 36.289062 90.035156 35.597656 C 90.335938 35.144531 90.546875 34.570312 90.636719 34 C 91 31.765625 90.910156 29.382812 90.394531 26.941406 C 90.335938 26.972656 90.273438 26.972656 90.214844 26.972656 C 89.914062 26.972656 89.671875 26.820312 89.519531 26.578125 C 89.039062 25.707031 88.375 24.980469 87.558594 24.4375 C 87.136719 24.167969 86.894531 23.65625 86.953125 23.140625 C 87.074219 22.269531 87.589844 21.664062 88.402344 21.484375 C 89.097656 21.332031 89.792969 21.632812 90.335938 22.238281 C 89.492188 19.523438 87.46875 17.203125 85.023438 16.144531 C 83.179688 15.363281 81.398438 15.390625 80.011719 16.265625 C 79.648438 16.476562 79.285156 16.566406 78.894531 16.539062 C 76.8125 16.296875 74.367188 17.140625 72.375 18.859375 C 70.050781 20.820312 68.691406 23.535156 68.570312 26.460938 C 68.539062 27.394531 68.359375 28.300781 68.085938 29.144531 C 67.753906 30.167969 67.542969 31.195312 67.511719 32.1875 C 67.511719 32.28125 67.542969 32.398438 67.632812 32.429688 C 67.722656 32.492188 67.84375 32.492188 67.9375 32.460938 C 68.601562 32.128906 69.265625 31.644531 69.867188 31.011719 C 69.988281 30.890625 70.167969 30.832031 70.351562 30.921875 C 70.5 30.984375 70.59375 31.164062 70.59375 31.34375 L 70.320312 33.878906 C 70.320312 34 70.382812 34.117188 70.472656 34.179688 C 70.5625 34.238281 70.683594 34.238281 70.804688 34.148438 C 71.5 33.546875 72.164062 32.941406 72.734375 32.339844 C 73.761719 31.34375 74.546875 30.347656 75.210938 29.324219 Z M 80.675781 38.824219 C 80.707031 38.824219 80.707031 38.824219 80.734375 38.855469 C 80.917969 38.945312 81.097656 39.035156 81.308594 39.125 C 82.367188 37.074219 84.386719 35.144531 87.800781 32.371094 C 87.980469 32.21875 88.042969 32.007812 87.980469 31.796875 C 87.074219 28.960938 85.082031 26.1875 82.457031 24.167969 C 82.367188 24.105469 82.277344 24.078125 82.183594 24.105469 C 82.09375 24.136719 82.003906 24.167969 81.941406 24.257812 C 81.097656 25.554688 78.863281 28.839844 76.328125 30.953125 C 76.175781 31.074219 75.964844 31.101562 75.785156 31.011719 C 75.605469 30.921875 75.484375 30.710938 75.511719 30.5 L 75.632812 29.503906 C 75.632812 29.476562 75.605469 29.445312 75.605469 29.445312 C 75.574219 29.445312 75.542969 29.445312 75.542969 29.476562 C 74.910156 30.5 74.15625 31.464844 73.25 32.398438 C 74.0625 33.789062 75.421875 35.054688 77.625 36.53125 C 77.625 36.53125 77.65625 36.53125 77.65625 36.5625 C 78.53125 37.527344 79.527344 38.25 80.675781 38.824219 Z M 79.949219 40.242188 C 82.0625 43.378906 84.328125 46.300781 86.773438 48.984375 C 88.734375 51.15625 90.789062 53.179688 92.933594 55.015625 C 92.992188 55.078125 93.050781 55.136719 93.113281 55.199219 L 94.320312 54.804688 C 94.472656 54.746094 94.59375 54.714844 94.742188 54.714844 L 100.933594 48.535156 C 99.753906 46.875 98.457031 45.246094 97.066406 43.648438 C 93.65625 42.5625 90.757812 40.90625 87.980469 38.492188 C 87.285156 39.066406 86.53125 39.546875 85.6875 39.96875 C 85.324219 40.152344 84.902344 40.242188 84.480469 40.242188 C 84.328125 40.242188 84.175781 40.242188 84.054688 40.210938 C 83.089844 40.058594 82.183594 39.789062 81.339844 39.457031 C 81.128906 39.367188 80.917969 39.277344 80.734375 39.183594 C 80.433594 39.515625 80.191406 39.878906 79.949219 40.242188 Z M 73.640625 54.835938 C 75.964844 56.34375 78.472656 57.460938 81.097656 58.246094 C 81.371094 58.335938 81.640625 58.394531 81.914062 58.457031 C 82.15625 58.515625 82.394531 58.394531 82.515625 58.183594 C 84.296875 55.046875 85.597656 52.0625 86.441406 49.105469 C 84.054688 46.453125 81.792969 43.589844 79.738281 40.511719 C 77.113281 44.433594 74.847656 48.773438 72.828125 53.78125 C 72.734375 54.023438 72.828125 54.292969 73.039062 54.445312 C 73.21875 54.566406 73.429688 54.714844 73.640625 54.835938 Z M 62.230469 87.617188 C 62.230469 87.675781 62.261719 87.738281 62.320312 87.765625 C 62.351562 87.796875 62.410156 87.828125 62.472656 87.765625 C 62.863281 87.527344 63.347656 87.074219 63.617188 86.199219 C 63.679688 86.019531 63.738281 85.808594 63.769531 85.566406 C 63.800781 85.445312 63.800781 85.324219 63.832031 85.175781 C 63.890625 84.78125 64.042969 84.421875 64.28125 84.117188 C 64.375 83.996094 64.523438 83.878906 64.644531 83.785156 C 64.855469 83.636719 65.128906 83.425781 65.339844 83.183594 C 65.613281 82.882812 65.851562 82.488281 65.945312 82.007812 C 65.945312 81.917969 66.035156 81.855469 66.125 81.886719 C 66.214844 81.886719 66.277344 81.976562 66.246094 82.066406 C 66.246094 82.128906 66.214844 82.1875 66.214844 82.25 C 66.367188 82.1875 66.546875 82.1875 66.726562 82.25 C 66.820312 81.734375 67 81.40625 67.273438 81.253906 C 67.511719 81.101562 67.785156 81.101562 68.148438 81.222656 C 68.148438 81.191406 68.148438 81.191406 68.175781 81.164062 C 68.269531 80.742188 68.449219 80.46875 68.722656 80.347656 C 68.839844 80.289062 68.960938 80.257812 69.082031 80.289062 L 72.101562 77.304688 C 72.101562 76.882812 72.222656 76.457031 72.433594 76.097656 C 74.0625 73.324219 75.210938 70.519531 76.085938 67.019531 C 76.269531 66.296875 76.570312 65.664062 76.992188 65.089844 C 78.5625 62.917969 79.832031 60.746094 80.855469 58.515625 C 78.351562 57.761719 75.90625 56.675781 73.640625 55.230469 C 72.496094 57.460938 71.40625 60.082031 70.351562 63.21875 C 70.261719 63.523438 70.109375 63.824219 69.957031 64.15625 C 68.117188 67.894531 67.152344 71.785156 66.183594 76.851562 C 66.0625 77.515625 65.761719 78.175781 65.339844 78.71875 L 62.894531 81.886719 C 62.59375 82.277344 62.410156 82.792969 62.382812 83.304688 L 62.261719 87.164062 Z M 36.75 106.496094 C 37.929688 107.097656 39.015625 107.972656 39.921875 109.027344 C 42.546875 107.730469 45.324219 107.578125 47.769531 108.574219 C 49.308594 109.207031 50.667969 110.265625 51.753906 111.679688 C 55.679688 109.8125 59.394531 106.886719 62.742188 102.964844 C 62.984375 102.695312 63.074219 102.332031 63.015625 102 C 62.953125 101.640625 62.742188 101.335938 62.441406 101.15625 L 56.644531 97.566406 L 49.492188 104.714844 C 49.097656 105.078125 48.734375 105.347656 48.34375 105.53125 C 47.980469 105.710938 47.621094 105.769531 47.285156 105.769531 C 46.863281 105.769531 46.503906 105.621094 46.230469 105.378906 C 45.65625 104.804688 45.6875 103.628906 47.015625 102.273438 L 53.597656 95.699219 L 50.183594 93.585938 C 49.761719 93.347656 49.25 93.347656 48.828125 93.617188 C 42.789062 97.839844 38.773438 102.089844 36.75 106.496094 Z M 146.546875 120.003906 C 145.640625 118.558594 144.160156 117.378906 142.046875 116.355469 C 138.605469 114.667969 134.773438 113.914062 130.878906 113.640625 C 131 114.214844 131.242188 114.789062 131.511719 115.269531 C 132.027344 116.113281 132.238281 116.898438 132.175781 117.710938 C 132.359375 118.195312 132.449219 118.585938 132.507812 118.949219 C 132.570312 119.523438 132.328125 120.066406 131.875 120.488281 C 131.300781 121 130.605469 121.390625 129.820312 121.664062 C 129.792969 121.691406 129.730469 121.691406 129.703125 121.691406 C 129.609375 121.691406 129.519531 121.664062 129.429688 121.601562 C 129.308594 121.511719 129.128906 121.363281 129.007812 121.179688 C 128.976562 121.210938 128.945312 121.242188 128.917969 121.242188 C 128.222656 123.050781 126.410156 124.558594 124.085938 125.25 C 123.242188 125.492188 122.394531 125.613281 121.582031 125.613281 C 120.222656 125.613281 118.984375 125.25 118.078125 124.589844 C 117.503906 124.136719 117.144531 123.503906 117.082031 122.808594 C 117.050781 122.296875 117.171875 121.785156 117.414062 121.332031 C 117.445312 121.179688 117.503906 121.058594 117.597656 120.910156 C 118.078125 120.003906 118.925781 119.3125 119.828125 118.675781 C 119.828125 118.675781 119.859375 118.675781 119.859375 118.648438 C 119.980469 118.558594 120.101562 118.464844 120.222656 118.375 C 120.613281 118.105469 121.039062 117.804688 121.398438 117.5 C 122.152344 116.867188 122.457031 115.875 122.183594 114.90625 L 121.820312 113.640625 C 120.554688 113.703125 119.316406 113.792969 118.109375 113.851562 C 117.234375 113.914062 116.359375 113.972656 115.511719 114.003906 C 104.585938 114.636719 96.253906 114.425781 88.101562 113.25 L 88.042969 113.640625 C 87.980469 114.246094 87.980469 114.816406 88.132812 115.390625 C 88.464844 116.777344 88.433594 118.4375 88.070312 119.914062 C 88.011719 120.09375 87.949219 120.277344 87.828125 120.425781 C 87.921875 121 87.890625 121.332031 87.769531 121.691406 C 87.648438 121.964844 87.40625 122.144531 87.136719 122.207031 C 85.898438 122.445312 84.839844 122.539062 83.875 122.539062 C 83.300781 122.539062 82.757812 122.507812 82.246094 122.417969 C 81.972656 122.355469 81.730469 122.175781 81.609375 121.933594 C 81.550781 121.753906 81.492188 121.542969 81.519531 121.300781 C 81.460938 121.300781 81.371094 121.300781 81.308594 121.332031 C 81.039062 121.691406 80.675781 122.023438 80.402344 122.234375 C 80.191406 122.417969 79.949219 122.566406 79.679688 122.628906 C 78.261719 123.050781 76.601562 123.261719 74.910156 123.261719 C 73.398438 123.261719 71.890625 123.082031 70.53125 122.75 C 69.898438 122.597656 69.414062 122.144531 69.171875 121.574219 C 68.992188 121.152344 68.933594 120.699219 68.992188 120.304688 C 68.960938 120.15625 68.933594 119.972656 68.960938 119.824219 C 69.054688 118.707031 69.71875 117.863281 70.773438 117.5625 C 71.980469 117.199219 73.066406 116.839844 74.15625 116.445312 C 75.332031 115.992188 76.480469 115.480469 77.71875 114.878906 C 78.59375 114.425781 79.164062 113.550781 79.226562 112.554688 L 79.257812 111.921875 C 71.167969 111.199219 63.074219 112.707031 55.195312 114.183594 C 54.59375 114.304688 54.019531 114.394531 53.414062 114.515625 C 53.566406 114.816406 53.6875 115.148438 53.808594 115.480469 C 59.753906 114.726562 63.195312 117.289062 64.070312 123.109375 C 64.070312 123.199219 64.011719 123.292969 63.921875 123.292969 C 63.921875 123.292969 63.890625 123.292969 63.890625 123.292969 C 63.800781 123.292969 63.738281 123.230469 63.738281 123.140625 C 62.894531 117.441406 59.605469 115.027344 53.71875 115.8125 C 53.625 115.8125 53.566406 115.78125 53.535156 115.691406 C 53.054688 114.304688 52.417969 113.097656 51.664062 112.042969 C 51.605469 111.953125 51.542969 111.863281 51.453125 111.773438 C 50.398438 110.414062 49.097656 109.417969 47.648438 108.816406 C 45.265625 107.851562 42.546875 108.03125 39.953125 109.328125 C 39.890625 109.359375 39.800781 109.359375 39.738281 109.300781 C 38.835938 108.214844 37.777344 107.367188 36.601562 106.734375 C 36.511719 106.675781 36.390625 106.644531 36.296875 106.585938 C 34.367188 105.648438 32.132812 105.410156 29.867188 105.890625 C 26.667969 106.585938 24.132812 108.726562 23.46875 111.320312 C 23.46875 111.347656 23.4375 111.410156 23.378906 111.410156 C 23.347656 111.441406 23.289062 111.441406 23.257812 111.410156 C 21.535156 110.898438 19.484375 111.46875 18.15625 112.828125 C 16.949219 114.035156 16.554688 115.691406 17.039062 117.320312 C 17.070312 117.382812 17.039062 117.441406 17.007812 117.472656 C 16.976562 117.5 16.917969 117.53125 16.855469 117.53125 C 12.722656 116.535156 9.824219 118.042969 8.042969 122.144531 C 8.011719 122.234375 7.921875 122.265625 7.832031 122.234375 C 7.742188 122.207031 7.710938 122.117188 7.742188 122.023438 C 7.832031 121.84375 7.921875 121.664062 7.980469 121.480469 C 4.539062 122.355469 2.425781 123.53125 1.703125 125.011719 C 1.28125 125.855469 1.308594 126.851562 1.824219 127.9375 C 2.578125 129.59375 4.632812 130.167969 6.351562 130.527344 C 16.101562 132.460938 26.09375 132.066406 35.785156 131.707031 C 41.28125 131.492188 46.925781 131.28125 52.480469 131.492188 C 57.492188 131.675781 62.59375 132.488281 67.511719 133.273438 C 75.058594 134.480469 82.847656 135.714844 90.578125 134.75 C 105.1875 132.910156 119.40625 132.882812 131.363281 133.0625 C 134.710938 133.121094 137.703125 133.09375 140.507812 132.1875 C 143.527344 131.222656 146.214844 128.71875 147.179688 125.976562 C 147.964844 123.925781 147.722656 121.84375 146.546875 120.003906 Z M 108.660156 121.542969 C 107.542969 121.542969 106.636719 121.753906 106.636719 121.996094 C 106.636719 122.234375 107.542969 122.445312 108.660156 122.445312 C 109.777344 122.445312 110.683594 122.234375 110.683594 121.996094 C 110.683594 121.753906 109.808594 121.542969 108.660156 121.542969 Z M 45.203125 122.175781 C 44.933594 122.175781 44.722656 122.386719 44.722656 122.660156 C 44.722656 122.929688 44.933594 123.140625 45.203125 123.140625 C 45.476562 123.140625 45.6875 122.929688 45.6875 122.660156 C 45.6875 122.386719 45.445312 122.175781 45.203125 122.175781 Z M 85.113281 36.261719 C 85.023438 36.230469 84.933594 36.289062 84.902344 36.382812 C 84.8125 36.832031 84.507812 37.105469 84.027344 37.253906 C 83.9375 37.285156 83.875 37.375 83.90625 37.464844 C 83.9375 37.527344 83.996094 37.585938 84.054688 37.585938 C 84.054688 37.585938 84.085938 37.585938 84.085938 37.585938 C 84.691406 37.4375 85.050781 37.042969 85.171875 36.472656 C 85.265625 36.382812 85.203125 36.289062 85.113281 36.261719 Z M 82.09375 30.347656 C 82.304688 30.136719 82.457031 30.019531 82.636719 29.867188 C 82.820312 29.714844 82.96875 29.59375 83.179688 29.445312 L 83.210938 29.414062 C 83.242188 29.382812 83.273438 29.355469 83.300781 29.292969 C 83.332031 29.171875 83.242188 29.054688 83.121094 29.023438 C 82.757812 28.933594 82.425781 29.082031 82.15625 29.292969 C 82.035156 29.414062 81.914062 29.535156 81.851562 29.6875 C 81.761719 29.835938 81.730469 30.019531 81.730469 30.167969 C 81.730469 30.230469 81.761719 30.257812 81.792969 30.320312 C 81.851562 30.410156 82.003906 30.441406 82.09375 30.347656 Z M 80.855469 36.832031 C 80.945312 37.074219 81.1875 37.195312 81.429688 37.195312 C 81.460938 37.195312 81.492188 37.195312 81.550781 37.195312 C 82.304688 37.042969 82.878906 36.59375 83.273438 35.839844 C 83.300781 35.746094 83.273438 35.65625 83.210938 35.628906 C 83.121094 35.597656 83.03125 35.628906 83 35.6875 C 82.636719 36.351562 82.15625 36.742188 81.519531 36.863281 C 81.398438 36.894531 81.25 36.804688 81.1875 36.683594 C 80.496094 35.175781 79.769531 33.847656 79.015625 32.703125 C 78.953125 32.640625 78.863281 32.609375 78.773438 32.640625 C 78.714844 32.703125 78.683594 32.792969 78.714844 32.882812 C 79.46875 34.027344 80.191406 35.355469 80.855469 36.832031 Z M 83.511719 31.828125 C 83.84375 32.128906 84.328125 32.160156 84.570312 31.886719 C 84.8125 31.617188 84.75 31.164062 84.417969 30.863281 C 84.085938 30.5625 83.632812 30.53125 83.363281 30.800781 C 83.121094 31.074219 83.179688 31.527344 83.511719 31.828125 Z M 77.414062 33.847656 C 77.054688 33.816406 76.722656 34.027344 76.507812 34.269531 C 76.386719 34.390625 76.296875 34.542969 76.269531 34.691406 C 76.207031 34.84375 76.175781 35.023438 76.238281 35.203125 C 76.238281 35.265625 76.269531 35.296875 76.328125 35.324219 C 76.417969 35.414062 76.570312 35.386719 76.660156 35.296875 L 76.691406 35.265625 C 76.839844 35.054688 76.960938 34.902344 77.113281 34.722656 C 77.265625 34.542969 77.386719 34.421875 77.566406 34.238281 L 77.597656 34.210938 C 77.625 34.179688 77.65625 34.117188 77.65625 34.058594 C 77.625 33.96875 77.535156 33.847656 77.414062 33.847656 Z M 89.039062 22.871094 C 88.585938 22.839844 88.253906 23.140625 88.191406 23.65625 C 88.191406 23.746094 88.253906 23.835938 88.34375 23.835938 C 88.433594 23.835938 88.523438 23.777344 88.523438 23.683594 C 88.585938 23.351562 88.765625 23.171875 89.039062 23.203125 C 89.460938 23.234375 89.851562 23.777344 89.851562 24.769531 C 89.851562 24.859375 89.914062 24.953125 90.003906 24.953125 C 90.09375 24.953125 90.15625 24.890625 90.15625 24.800781 C 90.15625 23.503906 89.582031 22.902344 89.039062 22.871094 Z M 21.628906 122.660156 C 21.355469 122.660156 21.144531 122.871094 21.144531 123.140625 C 21.144531 123.414062 21.355469 123.625 21.628906 123.625 C 21.898438 123.625 22.109375 123.414062 22.109375 123.140625 C 22.109375 122.871094 21.898438 122.660156 21.628906 122.660156 Z M 27.0625 113.730469 C 26.789062 113.730469 26.578125 113.941406 26.578125 114.214844 C 26.578125 114.484375 26.789062 114.695312 27.0625 114.695312 C 27.332031 114.695312 27.542969 114.484375 27.542969 114.214844 C 27.542969 113.941406 27.332031 113.730469 27.0625 113.730469 Z M 77.777344 35.386719 C 77.535156 35.65625 77.597656 36.109375 77.929688 36.410156 C 78.261719 36.710938 78.742188 36.742188 78.984375 36.472656 C 79.226562 36.199219 79.164062 35.746094 78.832031 35.445312 C 78.5 35.144531 78.050781 35.113281 77.777344 35.386719 Z M 37.113281 118.347656 C 36.84375 118.347656 36.628906 118.558594 36.628906 118.828125 C 36.628906 119.101562 36.84375 119.3125 37.113281 119.3125 C 37.386719 119.3125 37.597656 119.101562 37.597656 118.828125 C 37.597656 118.585938 37.386719 118.347656 37.113281 118.347656 Z M 89.609375 49.136719 C 89.550781 49.078125 89.582031 48.957031 89.671875 48.925781 L 95.015625 45.457031 C 95.074219 45.398438 95.195312 45.429688 95.226562 45.488281 L 96.644531 47.328125 C 96.765625 47.507812 96.796875 47.71875 96.675781 47.902344 L 96.585938 48.050781 L 97.972656 50.101562 C 98.09375 50.3125 98.09375 50.554688 97.941406 50.734375 L 96.34375 52.753906 C 96.28125 52.847656 96.191406 52.90625 96.070312 52.9375 C 95.46875 53.117188 93.71875 53.722656 93.445312 53.722656 C 93.265625 53.722656 93.113281 53.628906 92.992188 53.480469 L 91.542969 51.339844 L 91.332031 51.367188 C 91.300781 51.367188 91.273438 51.367188 91.273438 51.367188 C 91.089844 51.367188 90.910156 51.277344 90.820312 51.128906 Z M 95.890625 52.664062 L 94.742188 50.917969 C 94.714844 50.917969 94.714844 50.917969 94.683594 50.945312 L 91.90625 51.339844 L 93.265625 53.359375 C 93.324219 53.417969 93.414062 53.480469 93.503906 53.449219 Z M 96.402344 48.351562 L 95.074219 50.644531 C 95.046875 50.675781 95.046875 50.707031 95.015625 50.734375 L 96.132812 52.484375 L 96.160156 52.453125 L 97.703125 50.492188 C 97.730469 50.464844 97.761719 50.402344 97.761719 50.375 C 97.761719 50.34375 97.761719 50.28125 97.730469 50.253906 Z M 89.972656 49.105469 L 91.121094 50.976562 C 91.152344 51.035156 91.242188 51.066406 91.300781 51.066406 L 91.363281 51.066406 L 91.722656 51.007812 L 94.5 50.613281 L 94.652344 50.585938 C 94.714844 50.585938 94.773438 50.523438 94.804688 50.492188 L 96.191406 48.050781 L 96.375 47.71875 C 96.402344 47.660156 96.402344 47.570312 96.375 47.507812 L 95.195312 45.96875 L 95.164062 45.941406 L 95.046875 45.789062 L 95.015625 45.757812 L 92.507812 47.386719 L 92.175781 47.597656 Z M 72.375 63.640625 C 73.308594 63.851562 74.246094 64.183594 75.121094 64.578125 C 75.152344 64.578125 75.179688 64.578125 75.179688 64.578125 C 75.242188 64.578125 75.300781 64.546875 75.332031 64.488281 C 75.363281 64.394531 75.332031 64.304688 75.242188 64.277344 C 74.335938 63.882812 73.398438 63.550781 72.433594 63.339844 C 72.34375 63.308594 72.253906 63.371094 72.222656 63.460938 C 72.253906 63.523438 72.3125 63.613281 72.375 63.640625 Z M 72.375 63.640625 "/></g></svg>