<svg xmlns="http://www.w3.org/2000/svg" xmlns:xlink="http://www.w3.org/1999/xlink" width="200" zoomAndPan="magnify" viewBox="0 0 150 149.999998" height="200" preserveAspectRatio="xMidYMid meet" version="1.2"><defs><clipPath id="f157af7b9e"><path d="M 21.761719 93 L 128.261719 93 L 128.261719 115 L 21.761719 115 Z M 21.761719 93 "/></clipPath></defs><g id="8971f77992"><path style=" stroke:none;fill-rule:nonzero;fill:#b96751;fill-opacity:1;" d="M 78.542969 40.292969 C 78.441406 40.328125 77.734375 46.265625 80.972656 46.503906 C 82.054688 45.1875 93.496094 33.34375 94.304688 33.109375 C 95.148438 33.175781 101.359375 31.085938 101.191406 30.378906 C 101.023438 29.667969 97.851562 30.550781 97.851562 30.550781 C 99.945312 29.878906 102.234375 28.21875 101.796875 27.710938 C 101.359375 27.207031 97.949219 28.992188 97.949219 28.992188 C 100.109375 27.542969 101.664062 26.394531 101.222656 25.890625 C 100.785156 25.382812 96.769531 27.847656 96.769531 27.847656 C 97.917969 26.597656 99.367188 25.382812 98.761719 24.84375 C 98.152344 24.304688 94.507812 27.476562 94.507812 27.476562 C 94.507812 27.476562 94.171875 24.203125 93.195312 24.269531 C 92.21875 24.335938 92.789062 28.082031 91.914062 29.734375 C 91.03125 31.386719 80.46875 38 78.542969 40.292969 Z M 78.542969 40.292969 "/><path style=" stroke:none;fill-rule:nonzero;fill:#b96751;fill-opacity:1;" d="M 70.886719 40.789062 C 70.96875 40.847656 69.882812 46.5625 66.808594 45.832031 C 66.195312 44.292969 59.066406 29.953125 58.382812 29.496094 C 57.582031 29.3125 52.4375 25.546875 52.800781 24.941406 C 53.167969 24.335938 55.675781 25.921875 55.675781 25.921875 C 53.933594 24.683594 52.464844 22.632812 53.023438 22.289062 C 53.578125 21.949219 56.214844 24.609375 56.214844 24.609375 C 54.636719 22.632812 53.535156 21.109375 54.089844 20.773438 C 54.644531 20.429688 57.648438 23.894531 57.648438 23.894531 C 56.949219 22.402344 55.960938 20.847656 56.683594 20.527344 C 57.40625 20.207031 59.851562 24.21875 59.851562 24.21875 C 59.851562 24.21875 61.125 21.28125 62.015625 21.628906 C 62.902344 21.980469 61.269531 25.285156 61.597656 27.078125 C 61.921875 28.867188 69.777344 38.097656 70.886719 40.789062 Z M 70.886719 40.789062 "/><path style=" stroke:none;fill-rule:nonzero;fill:#b96751;fill-opacity:1;" d="M 77.050781 69.1875 C 77.242188 69.441406 79.523438 71.722656 82.3125 71.21875 C 84.101562 70.894531 90.875 61.644531 92.652344 61.898438 C 94.425781 62.152344 97.152344 64.6875 98.042969 64.558594 C 98.929688 64.433594 101.085938 62.53125 99.183594 59.867188 C 97.28125 57.203125 93.921875 55.554688 92.207031 55.9375 C 90.496094 56.320312 84.976562 60.503906 84.976562 60.503906 Z M 77.050781 69.1875 "/><path style=" stroke:none;fill-rule:nonzero;fill:#b96751;fill-opacity:1;" d="M 69.886719 70.835938 C 69.511719 72.207031 72.082031 75.3125 73.691406 76.160156 C 75.296875 77.007812 85.261719 74.511719 86.460938 75.847656 C 87.664062 77.179688 88.898438 80.679688 89.660156 81.152344 C 90.425781 81.625 92.527344 81.742188 92.777344 78.476562 C 93.027344 75.214844 91.503906 71.796875 89.945312 70.992188 C 88.386719 70.183594 77.054688 69.191406 77.054688 69.191406 Z M 69.886719 70.835938 "/><path style=" stroke:none;fill-rule:nonzero;fill:#020232;fill-opacity:1;" d="M 81.304688 71.464844 C 78.832031 71.464844 76.972656 69.285156 76.953125 69.257812 L 77.148438 69.117188 C 77.488281 69.570312 79.753906 71.75 82.285156 71.097656 C 83.171875 70.871094 83.984375 69.863281 83.992188 69.847656 L 84.179688 70 C 84.144531 70.042969 83.308594 71.082031 82.34375 71.328125 C 81.988281 71.421875 81.640625 71.464844 81.304688 71.464844 Z M 81.304688 71.464844 "/><path style=" stroke:none;fill-rule:nonzero;fill:#bdecbb;fill-opacity:1;" d="M 63.988281 56.953125 C 63.988281 56.953125 59.738281 66.90625 58.28125 67.476562 C 59.230469 70.644531 61.324219 70.644531 63.988281 70.773438 C 66.652344 70.898438 68.742188 74.640625 72.167969 73.691406 C 75.59375 72.738281 77.621094 69.316406 79.714844 68.175781 C 81.808594 67.03125 88.785156 63.484375 86.753906 59.109375 C 84.535156 58.921875 79.398438 55.941406 79.398438 55.941406 Z M 63.988281 56.953125 "/><path style=" stroke:none;fill-rule:nonzero;fill:#b96751;fill-opacity:1;" d="M 78.542969 40.292969 L 74.546875 38.558594 L 68.417969 39.941406 L 68.417969 45.894531 L 74.546875 48.792969 L 80.972656 46.5 Z M 78.542969 40.292969 "/><path style=" stroke:none;fill-rule:nonzero;fill:#71bdd8;fill-opacity:1;" d="M 78.542969 40.292969 C 77.3125 43.3125 77.738281 45.09375 80.972656 46.503906 C 80.972656 46.503906 78.757812 55.3125 80.972656 56.71875 C 76.546875 59.914062 63.519531 57.871094 62.371094 56.71875 C 63.011719 53.144531 63.949219 42.597656 70.894531 39.15625 L 71.671875 40.027344 C 71.671875 40.027344 69.570312 43.578125 72.359375 44.148438 C 75.152344 44.71875 76.355469 39.648438 76.355469 39.648438 Z M 78.542969 40.292969 "/><path style=" stroke:none;fill-rule:nonzero;fill:#b96751;fill-opacity:1;" d="M 67.714844 32.238281 C 67.601562 34.507812 69.007812 35.738281 68.542969 36.675781 C 67.707031 38.339844 69.726562 41.136719 74.15625 40.730469 C 76.90625 40.472656 80.96875 38.488281 80.855469 35.078125 C 80.742188 31.671875 74.078125 22.691406 67.714844 32.238281 Z M 67.714844 32.238281 "/><path style=" stroke:none;fill-rule:nonzero;fill:#020232;fill-opacity:1;" d="M 73.277344 40.890625 C 70.316406 40.890625 69.054688 39.410156 68.722656 38.921875 C 68.203125 38.160156 68.09375 37.300781 68.4375 36.621094 L 68.648438 36.730469 C 68.347656 37.328125 68.449219 38.097656 68.921875 38.785156 C 69.847656 40.144531 71.804688 40.828125 74.148438 40.609375 L 74.167969 40.851562 C 73.855469 40.878906 73.558594 40.890625 73.277344 40.890625 Z M 73.277344 40.890625 "/><path style=" stroke:none;fill-rule:nonzero;fill:#020232;fill-opacity:1;" d="M 67.179688 32.59375 C 68.167969 32.59375 71.144531 31.492188 71.75 30.613281 C 71.75 30.613281 70.097656 32.648438 68.773438 33.3125 C 69.65625 33.421875 72.246094 33.640625 72.246094 33.640625 C 72.246094 33.640625 74.277344 31.273438 74.28125 30.613281 C 74.335938 31.660156 74.945312 33.257812 75.4375 33.640625 L 76.871094 33.367188 C 76.871094 33.367188 77.421875 35.019531 77.808594 35.347656 C 78.632812 33.472656 79.902344 34.644531 80.066406 35.347656 C 80.25 36.160156 79.851562 37.671875 78.652344 37.890625 C 78.226562 38.890625 78.652344 39.039062 78.476562 39.15625 C 85.628906 35.382812 90.3125 24.554688 89.042969 19.597656 C 89.042969 19.597656 83.371094 18.605469 83.535156 18.605469 C 83.699219 18.605469 83.09375 23.78125 82.710938 24.554688 C 82.710938 24.554688 82.820312 17.449219 82.050781 15.027344 L 76.101562 15.46875 C 76.101562 15.46875 77.589844 22.390625 77.257812 23.0625 C 77.257812 23.0625 75.878906 17.339844 75.824219 16.957031 L 70.886719 17.898438 C 70.886719 17.898438 74.691406 24.691406 69.710938 27.976562 C 67.882812 29.179688 66.574219 30.445312 67.179688 32.59375 Z M 67.179688 32.59375 "/><path style=" stroke:none;fill-rule:nonzero;fill:#020232;fill-opacity:1;" d="M 70.785156 36.078125 C 70.664062 35.855469 70.382812 35.625 70.097656 35.632812 C 69.867188 35.636719 69.671875 35.789062 69.527344 36.078125 L 69.3125 35.96875 C 69.550781 35.5 69.867188 35.394531 70.09375 35.390625 C 70.097656 35.390625 70.105469 35.390625 70.105469 35.390625 C 70.503906 35.390625 70.847656 35.6875 70.996094 35.96875 Z M 70.785156 36.078125 "/><path style=" stroke:none;fill-rule:nonzero;fill:#020232;fill-opacity:1;" d="M 74.589844 36.078125 C 74.46875 35.855469 74.191406 35.625 73.902344 35.632812 C 73.675781 35.636719 73.476562 35.789062 73.332031 36.078125 L 73.117188 35.96875 C 73.351562 35.496094 73.671875 35.394531 73.898438 35.390625 C 73.902344 35.390625 73.90625 35.390625 73.910156 35.390625 C 74.308594 35.390625 74.652344 35.6875 74.800781 35.964844 Z M 74.589844 36.078125 "/><path style=" stroke:none;fill-rule:nonzero;fill:#020232;fill-opacity:1;" d="M 78.714844 37.082031 C 78.507812 37.023438 78.355469 36.84375 78.292969 36.566406 C 78.199219 36.140625 78.316406 35.492188 78.652344 35.203125 C 78.816406 35.058594 79.015625 35.023438 79.214844 35.101562 L 79.128906 35.324219 C 79.015625 35.277344 78.910156 35.296875 78.808594 35.382812 C 78.574219 35.585938 78.4375 36.128906 78.527344 36.515625 C 78.554688 36.644531 78.625 36.808594 78.777344 36.851562 Z M 78.714844 37.082031 "/><path style=" stroke:none;fill-rule:nonzero;fill:#020232;fill-opacity:1;" d="M 71.566406 37.210938 L 71.199219 36.511719 L 71.328125 36.464844 C 71.332031 36.460938 71.75 36.300781 71.863281 36.027344 L 72.082031 36.121094 C 71.976562 36.378906 71.695312 36.550781 71.535156 36.632812 L 71.777344 37.101562 Z M 71.566406 37.210938 "/><path style=" stroke:none;fill-rule:nonzero;fill:#020232;fill-opacity:1;" d="M 72.132812 38.148438 C 71.617188 38.148438 70.988281 37.992188 70.78125 37.539062 L 71 37.441406 C 71.136719 37.738281 71.640625 37.929688 72.226562 37.90625 C 72.691406 37.886719 73.296875 37.714844 73.445312 37.292969 L 73.671875 37.375 C 73.480469 37.90625 72.777344 38.125 72.234375 38.144531 C 72.199219 38.148438 72.167969 38.148438 72.132812 38.148438 Z M 72.132812 38.148438 "/><path style=" stroke:none;fill-rule:nonzero;fill:#71bdd8;fill-opacity:1;" d="M 64.195312 66.882812 C 64.125 66.144531 64.472656 65.375 65.238281 64.59375 C 65.414062 64.410156 65.605469 64.234375 65.785156 64.066406 C 66.203125 63.683594 66.628906 63.285156 66.929688 62.804688 C 67.335938 62.15625 67.472656 61.199219 66.949219 60.628906 L 67.125 60.46875 C 67.757812 61.160156 67.570312 62.230469 67.132812 62.933594 C 66.816406 63.441406 66.378906 63.847656 65.953125 64.242188 C 65.773438 64.410156 65.585938 64.585938 65.410156 64.765625 C 64.699219 65.492188 64.375 66.199219 64.4375 66.863281 Z M 64.195312 66.882812 "/><path style=" stroke:none;fill-rule:nonzero;fill:#71bdd8;fill-opacity:1;" d="M 70.917969 70.214844 L 70.765625 70.027344 C 72.019531 69.011719 72.851562 67.511719 73.046875 65.90625 C 73.246094 64.308594 72.800781 62.648438 71.832031 61.359375 L 72.023438 61.214844 C 73.03125 62.554688 73.492188 64.273438 73.289062 65.9375 C 73.082031 67.601562 72.21875 69.160156 70.917969 70.214844 Z M 70.917969 70.214844 "/><path style=" stroke:none;fill-rule:nonzero;fill:#71bdd8;fill-opacity:1;" d="M 78.878906 62.34375 C 78.640625 62.34375 78.40625 62.300781 78.195312 62.214844 C 77.460938 61.917969 76.933594 61.25 76.507812 60.710938 L 76.699219 60.5625 C 77.125 61.105469 77.609375 61.71875 78.285156 61.992188 C 78.90625 62.238281 79.78125 62.085938 80.046875 61.457031 C 80.085938 61.363281 80.113281 61.261719 80.140625 61.152344 C 80.199219 60.925781 80.257812 60.691406 80.449219 60.523438 C 80.652344 60.34375 80.96875 60.292969 81.316406 60.382812 C 81.441406 60.414062 81.558594 60.457031 81.671875 60.5 C 81.808594 60.550781 81.9375 60.597656 82.074219 60.625 C 82.441406 60.699219 82.851562 60.574219 83.171875 60.296875 C 83.488281 60.015625 83.664062 59.628906 83.640625 59.253906 L 83.878906 59.238281 C 83.910156 59.683594 83.707031 60.148438 83.328125 60.476562 C 82.953125 60.804688 82.464844 60.949219 82.027344 60.859375 C 81.875 60.828125 81.730469 60.777344 81.589844 60.726562 C 81.476562 60.6875 81.371094 60.644531 81.261719 60.617188 C 81.128906 60.585938 80.8125 60.53125 80.605469 60.707031 C 80.472656 60.824219 80.421875 61.015625 80.371094 61.214844 C 80.34375 61.328125 80.3125 61.445312 80.265625 61.550781 C 80.039062 62.085938 79.457031 62.34375 78.878906 62.34375 Z M 78.878906 62.34375 "/><path style=" stroke:none;fill-rule:nonzero;fill:#020232;fill-opacity:1;" d="M 75.4375 53.929688 C 72.105469 53.855469 68.984375 51.617188 67.847656 48.484375 L 68.074219 48.402344 C 69.175781 51.445312 72.207031 53.617188 75.441406 53.691406 Z M 75.4375 53.929688 "/><path style=" stroke:none;fill-rule:nonzero;fill:#020232;fill-opacity:1;" d="M 75.992188 49.152344 C 74.265625 49.152344 72.542969 48.585938 71.191406 47.492188 L 71.34375 47.304688 C 73.476562 49.027344 76.574219 49.40625 79.058594 48.242188 L 79.160156 48.460938 C 78.167969 48.929688 77.078125 49.152344 75.992188 49.152344 Z M 75.992188 49.152344 "/><path style=" stroke:none;fill-rule:nonzero;fill:#020232;fill-opacity:1;" d="M 90.699219 58.507812 L 90.523438 58.347656 C 90.972656 57.851562 91.828125 57.035156 92.542969 57.128906 C 92.835938 57.167969 93.0625 57.34375 93.230469 57.660156 L 93.015625 57.769531 C 92.890625 57.523438 92.722656 57.390625 92.511719 57.367188 C 92.074219 57.308594 91.410156 57.726562 90.699219 58.507812 Z M 90.699219 58.507812 "/><path style=" stroke:none;fill-rule:nonzero;fill:#020232;fill-opacity:1;" d="M 89.6875 73.011719 L 89.449219 72.96875 C 89.5 72.695312 89.449219 72.492188 89.296875 72.34375 C 88.980469 72.027344 88.203125 71.960938 87.164062 72.152344 L 87.121094 71.917969 C 87.777344 71.796875 88.953125 71.667969 89.464844 72.171875 C 89.671875 72.378906 89.746094 72.660156 89.6875 73.011719 Z M 89.6875 73.011719 "/><path style=" stroke:none;fill-rule:nonzero;fill:#020232;fill-opacity:1;" d="M 99.1875 63.960938 C 98.644531 63.949219 97.542969 63.171875 97.421875 63.082031 L 97.5625 62.886719 C 97.878906 63.117188 98.796875 63.710938 99.191406 63.71875 Z M 99.1875 63.960938 "/><path style=" stroke:none;fill-rule:nonzero;fill:#020232;fill-opacity:1;" d="M 99.726562 63.105469 C 99.234375 63.105469 98.105469 62.332031 97.976562 62.242188 L 98.113281 62.046875 C 98.582031 62.371094 99.433594 62.878906 99.734375 62.867188 L 99.746094 63.105469 C 99.742188 63.105469 99.734375 63.105469 99.726562 63.105469 Z M 99.726562 63.105469 "/><path style=" stroke:none;fill-rule:nonzero;fill:#020232;fill-opacity:1;" d="M 99.921875 62.085938 C 99.320312 61.972656 98.328125 61.449219 98.285156 61.429688 L 98.394531 61.214844 C 98.402344 61.21875 99.398438 61.742188 99.964844 61.847656 Z M 99.921875 62.085938 "/><path style=" stroke:none;fill-rule:nonzero;fill:#020232;fill-opacity:1;" d="M 99.398438 60.878906 C 99 60.878906 98.570312 60.597656 98.511719 60.554688 L 98.644531 60.355469 C 98.820312 60.472656 99.332031 60.746094 99.597656 60.589844 L 99.71875 60.796875 C 99.621094 60.855469 99.511719 60.878906 99.398438 60.878906 Z M 99.398438 60.878906 "/><path style=" stroke:none;fill-rule:nonzero;fill:#020232;fill-opacity:1;" d="M 55.597656 26.238281 L 55.386719 26.121094 C 56.03125 24.996094 57.097656 24.09375 58.3125 23.644531 L 58.394531 23.871094 C 57.234375 24.300781 56.214844 25.160156 55.597656 26.238281 Z M 55.597656 26.238281 "/><path style=" stroke:none;fill-rule:nonzero;fill:#020232;fill-opacity:1;" d="M 97.730469 30.972656 C 97.5 29.742188 96.890625 28.570312 96.019531 27.671875 L 96.191406 27.503906 C 97.097656 28.433594 97.726562 29.652344 97.96875 30.925781 Z M 97.730469 30.972656 "/><path style=" stroke:none;fill-rule:nonzero;fill:#020232;fill-opacity:1;" d="M 92.203125 80.972656 C 91.742188 80.972656 91.285156 80.726562 91.03125 80.34375 C 90.773438 79.953125 90.730469 79.421875 90.925781 78.996094 L 91.140625 79.09375 C 90.980469 79.449219 91.015625 79.886719 91.230469 80.210938 C 91.441406 80.53125 91.820312 80.730469 92.199219 80.730469 C 92.207031 80.730469 92.21875 80.730469 92.222656 80.730469 L 92.230469 80.972656 C 92.222656 80.972656 92.210938 80.972656 92.203125 80.972656 Z M 92.203125 80.972656 "/><path style=" stroke:none;fill-rule:nonzero;fill:#020232;fill-opacity:1;" d="M 91.058594 81.363281 C 90.386719 81.027344 89.96875 80.273438 90.039062 79.523438 L 90.28125 79.546875 C 90.21875 80.1875 90.589844 80.859375 91.167969 81.148438 Z M 91.058594 81.363281 "/><path style=" stroke:none;fill-rule:nonzero;fill:#020232;fill-opacity:1;" d="M 90.175781 81.589844 C 89.667969 81.109375 89.375 80.40625 89.386719 79.703125 L 89.625 79.710938 C 89.613281 80.34375 89.882812 80.980469 90.34375 81.417969 Z M 90.175781 81.589844 "/><path style=" stroke:none;fill-rule:nonzero;fill:#020232;fill-opacity:1;" d="M 88.753906 79.472656 L 88.992188 79.429688 L 89.214844 80.625 L 88.976562 80.667969 Z M 88.753906 79.472656 "/><path style=" stroke:none;fill-rule:nonzero;fill:#b96751;fill-opacity:1;" d="M 55.671875 113.074219 L 55.671875 134.5 C 55.671875 134.761719 56.839844 134.972656 58.28125 134.972656 C 59.71875 134.972656 60.890625 134.761719 60.890625 134.5 L 60.890625 113.074219 Z M 55.671875 113.074219 "/><path style=" stroke:none;fill-rule:nonzero;fill:#b96751;fill-opacity:1;" d="M 28.1875 108.683594 L 28.1875 126.386719 C 28.1875 126.605469 29.152344 126.777344 30.34375 126.777344 C 31.53125 126.777344 32.496094 126.605469 32.496094 126.386719 L 32.496094 108.683594 Z M 28.1875 108.683594 "/><path style=" stroke:none;fill-rule:nonzero;fill:#b96751;fill-opacity:1;" d="M 94.367188 113.074219 L 94.367188 134.5 C 94.367188 134.761719 93.199219 134.972656 91.757812 134.972656 C 90.320312 134.972656 89.152344 134.761719 89.152344 134.5 L 89.152344 113.074219 Z M 94.367188 113.074219 "/><path style=" stroke:none;fill-rule:nonzero;fill:#b96751;fill-opacity:1;" d="M 121.851562 108.683594 L 121.851562 126.386719 C 121.851562 126.605469 120.886719 126.777344 119.695312 126.777344 C 118.507812 126.777344 117.542969 126.605469 117.542969 126.386719 L 117.542969 108.683594 Z M 121.851562 108.683594 "/><g clip-rule="nonzero" clip-path="url(#f157af7b9e)"><path style=" stroke:none;fill-rule:nonzero;fill:#020232;fill-opacity:1;" d="M 75.019531 114.15625 C 61.019531 114.15625 47.847656 113.167969 37.933594 111.371094 C 33.0625 110.488281 29.222656 109.453125 26.519531 108.296875 C 23.320312 106.929688 21.761719 105.402344 21.761719 103.628906 C 21.761719 101.855469 23.320312 100.332031 26.515625 98.960938 C 29.21875 97.804688 33.058594 96.769531 37.929688 95.886719 C 47.847656 94.09375 61.019531 93.101562 75.015625 93.101562 C 89.015625 93.101562 102.1875 94.089844 112.101562 95.886719 C 116.972656 96.769531 120.8125 97.804688 123.515625 98.960938 C 126.714844 100.332031 128.269531 101.859375 128.269531 103.628906 C 128.269531 105.398438 126.714844 106.925781 123.515625 108.296875 C 120.816406 109.453125 116.976562 110.488281 112.101562 111.371094 C 102.191406 113.167969 89.019531 114.15625 75.019531 114.15625 Z M 75.019531 95.261719 C 61.144531 95.261719 48.109375 96.238281 38.316406 98.011719 C 26.953125 100.070312 23.921875 102.511719 23.921875 103.628906 C 23.921875 104.746094 26.953125 107.1875 38.316406 109.246094 C 48.109375 111.019531 61.144531 111.996094 75.019531 111.996094 C 88.894531 111.996094 101.925781 111.019531 111.71875 109.246094 C 123.082031 107.1875 126.113281 104.75 126.113281 103.628906 C 126.113281 102.507812 123.082031 100.070312 111.71875 98.011719 C 101.925781 96.238281 88.894531 95.261719 75.019531 95.261719 Z M 75.019531 95.261719 "/></g><path style=" stroke:none;fill-rule:nonzero;fill:#71bdd8;fill-opacity:1;" d="M 118.695312 101.433594 C 118.695312 105.4375 99.140625 108.683594 75.019531 108.683594 C 50.902344 108.683594 31.347656 105.4375 31.347656 101.433594 C 31.347656 97.429688 50.898438 88.40625 75.019531 88.40625 C 99.136719 88.40625 118.695312 97.425781 118.695312 101.433594 Z M 118.695312 101.433594 "/><path style=" stroke:none;fill-rule:nonzero;fill:#020232;fill-opacity:1;" d="M 29.878906 107.945312 C 29.332031 107.3125 29.097656 106.460938 29.269531 105.730469 C 29.460938 104.898438 30.207031 104.25 31.003906 104.21875 C 31.097656 104.214844 31.191406 104.222656 31.285156 104.234375 C 31.347656 104.050781 31.425781 103.871094 31.535156 103.699219 C 31.90625 103.121094 32.703125 102.667969 33.441406 102.972656 C 33.605469 103.039062 33.738281 103.128906 33.855469 103.238281 C 34.242188 102.78125 34.890625 102.464844 35.507812 102.691406 C 35.933594 102.851562 36.273438 103.261719 36.410156 103.789062 C 36.523438 104.230469 36.492188 104.695312 36.464844 105.101562 L 35.988281 105.070312 C 36.011719 104.679688 36.039062 104.277344 35.945312 103.910156 C 35.871094 103.621094 35.671875 103.265625 35.339844 103.144531 C 34.90625 102.984375 34.414062 103.273438 34.160156 103.632812 C 34.402344 104.066406 34.488281 104.613281 34.539062 105.105469 C 34.5625 105.316406 34.585938 105.578125 34.496094 105.828125 C 34.394531 106.105469 34.109375 106.359375 33.773438 106.320312 C 33.507812 106.285156 33.277344 106.066406 33.203125 105.769531 C 33.144531 105.542969 33.179688 105.3125 33.207031 105.128906 C 33.273438 104.652344 33.355469 104.128906 33.589844 103.65625 C 33.5 103.554688 33.390625 103.472656 33.261719 103.417969 C 32.78125 103.21875 32.214844 103.539062 31.941406 103.960938 C 31.859375 104.09375 31.792969 104.234375 31.742188 104.382812 C 31.914062 104.464844 32.074219 104.578125 32.207031 104.71875 C 32.507812 105.023438 32.660156 105.410156 32.636719 105.800781 C 32.617188 106.105469 32.441406 106.417969 32.195312 106.578125 C 32.011719 106.695312 31.804688 106.722656 31.609375 106.648438 C 31.285156 106.523438 31.117188 106.1875 31.109375 105.644531 C 31.109375 105.359375 31.117188 105.035156 31.171875 104.703125 C 31.121094 104.699219 31.070312 104.695312 31.023438 104.695312 C 30.4375 104.71875 29.886719 105.207031 29.742188 105.835938 C 29.605469 106.421875 29.796875 107.105469 30.25 107.628906 Z M 31.628906 104.871094 C 31.589844 105.136719 31.582031 105.40625 31.585938 105.644531 C 31.589844 105.824219 31.613281 106.136719 31.777344 106.199219 C 31.808594 106.210938 31.855469 106.222656 31.929688 106.175781 C 32.050781 106.097656 32.144531 105.925781 32.15625 105.773438 C 32.167969 105.519531 32.066406 105.265625 31.863281 105.054688 C 31.789062 104.984375 31.714844 104.921875 31.628906 104.871094 Z M 33.882812 104.207031 C 33.777344 104.53125 33.726562 104.878906 33.679688 105.199219 C 33.65625 105.359375 33.628906 105.519531 33.667969 105.652344 C 33.691406 105.753906 33.765625 105.835938 33.828125 105.84375 C 33.902344 105.855469 34.003906 105.769531 34.042969 105.664062 C 34.097656 105.515625 34.078125 105.332031 34.058594 105.152344 C 34.027344 104.84375 33.980469 104.507812 33.882812 104.207031 Z M 33.882812 104.207031 "/><path style=" stroke:none;fill-rule:nonzero;fill:#020232;fill-opacity:1;" d="M 44.722656 111.207031 C 44.085938 110.894531 43.699219 110.140625 43.824219 109.449219 C 43.941406 108.804688 44.5 108.277344 45.132812 108.175781 C 45.238281 107.734375 45.546875 107.378906 45.933594 107.273438 C 46.152344 107.214844 46.394531 107.234375 46.621094 107.324219 C 46.6875 107.167969 46.765625 107.027344 46.863281 106.894531 C 47.351562 106.226562 48.277344 105.976562 48.921875 106.34375 C 49.683594 106.773438 49.808594 107.71875 49.832031 108.59375 L 49.351562 108.605469 C 49.335938 107.867188 49.238281 107.074219 48.6875 106.761719 C 48.207031 106.492188 47.554688 106.757812 47.25 107.179688 C 47.160156 107.304688 47.089844 107.4375 47.039062 107.574219 C 47.0625 107.59375 47.082031 107.609375 47.101562 107.628906 C 47.378906 107.898438 47.554688 108.246094 47.707031 108.550781 C 47.789062 108.71875 47.890625 108.921875 47.90625 109.15625 C 47.925781 109.457031 47.777344 109.738281 47.535156 109.847656 C 47.300781 109.953125 47.039062 109.886719 46.855469 109.742188 C 46.8125 110.007812 46.667969 110.246094 46.398438 110.332031 C 46.023438 110.445312 45.640625 110.191406 45.402344 109.660156 C 45.265625 109.367188 45.132812 109.027344 45.101562 108.667969 C 44.710938 108.78125 44.371094 109.128906 44.296875 109.53125 C 44.207031 110.019531 44.480469 110.550781 44.933594 110.773438 Z M 45.585938 108.667969 C 45.617188 108.945312 45.726562 109.222656 45.835938 109.464844 C 45.945312 109.699219 46.125 109.917969 46.257812 109.875 C 46.367188 109.839844 46.410156 109.640625 46.378906 109.480469 C 46.3125 109.09375 45.972656 108.761719 45.585938 108.667969 Z M 46.917969 108.144531 C 46.894531 108.4375 46.921875 108.710938 46.953125 108.902344 C 46.976562 109.050781 47.015625 109.214844 47.105469 109.324219 C 47.167969 109.402344 47.273438 109.441406 47.335938 109.414062 C 47.394531 109.386719 47.4375 109.289062 47.429688 109.1875 C 47.417969 109.050781 47.347656 108.90625 47.277344 108.765625 C 47.167969 108.550781 47.058594 108.332031 46.917969 108.144531 Z M 45.632812 108.183594 C 45.9375 108.246094 46.21875 108.402344 46.433594 108.617188 C 46.414062 108.324219 46.429688 108.046875 46.484375 107.785156 C 46.339844 107.722656 46.1875 107.703125 46.0625 107.734375 C 45.855469 107.792969 45.707031 107.980469 45.632812 108.183594 Z M 45.632812 108.183594 "/><path style=" stroke:none;fill-rule:nonzero;fill:#020232;fill-opacity:1;" d="M 58.453125 112.746094 C 58.128906 112.746094 57.804688 112.609375 57.546875 112.355469 C 57.21875 112.039062 57.046875 111.59375 57.09375 111.167969 C 57.167969 110.507812 57.714844 109.921875 58.394531 109.773438 C 58.4375 109.765625 58.484375 109.757812 58.53125 109.75 C 58.699219 109.277344 58.992188 108.847656 59.339844 108.582031 C 59.4375 108.105469 59.699219 107.632812 60.234375 107.292969 C 60.714844 106.988281 61.378906 106.976562 61.890625 107.257812 C 62.679688 107.699219 62.875 108.644531 62.96875 109.605469 L 62.492188 109.648438 C 62.414062 108.820312 62.257812 108.007812 61.660156 107.675781 C 61.300781 107.476562 60.828125 107.488281 60.492188 107.699219 C 60.230469 107.863281 60.058594 108.0625 59.945312 108.277344 C 60.492188 108.121094 61.082031 108.21875 61.480469 108.574219 C 61.78125 108.84375 61.945312 109.28125 61.90625 109.714844 C 61.871094 110.109375 61.675781 110.441406 61.371094 110.625 C 61.089844 110.796875 60.742188 110.824219 60.414062 110.738281 C 60.613281 111.15625 60.617188 111.65625 60.273438 111.96875 C 60.09375 112.136719 59.851562 112.210938 59.589844 112.179688 C 59.226562 112.140625 58.851562 111.90625 58.628906 111.582031 C 58.375 111.222656 58.316406 110.746094 58.394531 110.265625 C 57.964844 110.402344 57.617188 110.792969 57.574219 111.214844 C 57.542969 111.492188 57.660156 111.792969 57.882812 112.007812 C 58.078125 112.195312 58.316406 112.285156 58.542969 112.253906 L 58.613281 112.726562 C 58.558594 112.738281 58.507812 112.746094 58.453125 112.746094 Z M 58.886719 110.226562 C 58.796875 110.625 58.824219 111.03125 59.023438 111.3125 C 59.164062 111.519531 59.421875 111.679688 59.640625 111.707031 C 59.765625 111.71875 59.871094 111.691406 59.949219 111.617188 C 60.171875 111.414062 60.0625 110.976562 59.824219 110.710938 C 59.585938 110.441406 59.238281 110.265625 58.886719 110.226562 Z M 59.777344 108.867188 C 59.742188 109.296875 59.871094 109.695312 59.980469 109.867188 C 60.203125 110.226562 60.742188 110.453125 61.121094 110.222656 C 61.292969 110.117188 61.40625 109.917969 61.429688 109.675781 C 61.457031 109.390625 61.351562 109.109375 61.160156 108.9375 C 60.816406 108.628906 60.230469 108.605469 59.777344 108.867188 Z M 59.042969 109.761719 C 59.179688 109.785156 59.320312 109.824219 59.453125 109.878906 C 59.382812 109.710938 59.332031 109.511719 59.308594 109.296875 C 59.207031 109.4375 59.117188 109.59375 59.042969 109.761719 Z M 59.042969 109.761719 "/><path style=" stroke:none;fill-rule:nonzero;fill:#020232;fill-opacity:1;" d="M 78.566406 113.332031 C 77.855469 113.332031 77.179688 113.007812 76.773438 112.476562 C 76.417969 112.007812 76.308594 111.390625 76.445312 110.851562 C 76.398438 110.433594 76.492188 110.007812 76.703125 109.648438 C 76.6875 109.5625 76.675781 109.476562 76.671875 109.394531 C 76.652344 108.917969 76.84375 108.433594 77.191406 108.058594 C 77.542969 107.683594 78.019531 107.460938 78.492188 107.449219 C 78.96875 107.441406 79.449219 107.640625 79.816406 108 C 80.183594 108.359375 80.394531 108.835938 80.394531 109.3125 L 79.917969 109.3125 C 79.917969 108.964844 79.757812 108.613281 79.480469 108.34375 C 79.207031 108.074219 78.847656 107.917969 78.503906 107.929688 C 78.15625 107.9375 77.808594 108.101562 77.542969 108.382812 C 77.34375 108.597656 77.210938 108.855469 77.167969 109.117188 C 77.65625 108.742188 78.320312 108.617188 78.910156 108.800781 C 79.488281 108.980469 80.019531 109.550781 79.902344 110.191406 C 79.855469 110.484375 79.683594 110.714844 79.460938 110.882812 C 79.5 111.171875 79.449219 111.464844 79.308594 111.707031 C 79.007812 112.234375 78.316406 112.511719 77.699219 112.351562 C 77.453125 112.289062 77.226562 112.160156 77.035156 111.988281 C 77.070312 112.058594 77.109375 112.125 77.160156 112.1875 C 77.488281 112.621094 78.066406 112.875 78.660156 112.84375 L 78.683594 113.324219 C 78.640625 113.332031 78.605469 113.332031 78.566406 113.332031 Z M 76.9375 110.886719 C 76.945312 110.925781 76.953125 110.960938 76.960938 110.996094 C 77.078125 111.429688 77.421875 111.785156 77.820312 111.886719 C 78.226562 111.992188 78.699219 111.808594 78.894531 111.472656 C 78.953125 111.367188 78.988281 111.242188 78.992188 111.113281 C 78.878906 111.148438 78.765625 111.167969 78.652344 111.171875 C 78.179688 111.203125 77.6875 111.023438 77.304688 110.679688 C 77.246094 110.628906 77.195312 110.574219 77.144531 110.515625 C 77.109375 110.554688 77.082031 110.59375 77.054688 110.640625 C 77.003906 110.71875 76.96875 110.800781 76.9375 110.886719 Z M 77.523438 110.222656 C 77.554688 110.257812 77.589844 110.289062 77.625 110.324219 C 77.914062 110.582031 78.273438 110.71875 78.621094 110.695312 C 78.710938 110.691406 78.800781 110.671875 78.890625 110.644531 C 78.789062 110.4375 78.628906 110.269531 78.4375 110.183594 C 78.15625 110.054688 77.8125 110.082031 77.523438 110.222656 Z M 78.042969 109.621094 C 78.25 109.621094 78.449219 109.664062 78.636719 109.746094 C 78.917969 109.875 79.152344 110.097656 79.300781 110.382812 C 79.367188 110.308594 79.414062 110.214844 79.429688 110.113281 C 79.5 109.738281 79.140625 109.378906 78.765625 109.265625 C 78.285156 109.113281 77.714844 109.246094 77.351562 109.597656 C 77.304688 109.640625 77.261719 109.6875 77.222656 109.738281 C 77.234375 109.765625 77.246094 109.792969 77.257812 109.824219 C 77.503906 109.691406 77.773438 109.621094 78.042969 109.621094 Z M 78.042969 109.621094 "/><path style=" stroke:none;fill-rule:nonzero;fill:#020232;fill-opacity:1;" d="M 102.730469 112.050781 L 102.441406 111.671875 C 102.855469 111.351562 103.328125 110.992188 103.566406 110.515625 C 103.773438 110.105469 103.777344 109.503906 103.417969 109.210938 C 103.300781 109.117188 103.148438 109.054688 102.980469 109.035156 C 103.179688 109.769531 102.875 110.609375 102.238281 111.035156 C 101.839844 111.296875 101.257812 111.375 100.90625 111.007812 C 100.699219 110.789062 100.628906 110.445312 100.71875 110.117188 C 100.710938 110.121094 100.707031 110.128906 100.699219 110.136719 C 100.425781 110.359375 100.058594 110.410156 99.785156 110.261719 C 99.40625 110.054688 99.339844 109.582031 99.394531 109.242188 C 99.511719 108.539062 100.070312 107.941406 100.75 107.753906 C 100.578125 107.363281 100.144531 107.015625 99.691406 107.101562 C 99.273438 107.175781 98.992188 107.585938 98.894531 107.953125 C 98.773438 108.402344 98.84375 108.90625 98.917969 109.34375 L 98.445312 109.425781 C 98.359375 108.9375 98.285156 108.375 98.429688 107.832031 C 98.597656 107.199219 99.054688 106.726562 99.601562 106.628906 C 100.246094 106.511719 100.9375 106.933594 101.210938 107.613281 C 101.21875 107.640625 101.230469 107.667969 101.242188 107.695312 C 101.847656 107.710938 102.433594 108.042969 102.765625 108.550781 C 103.121094 108.535156 103.472656 108.632812 103.722656 108.84375 C 104.285156 109.300781 104.28125 110.160156 103.996094 110.730469 C 103.703125 111.308594 103.1875 111.703125 102.730469 112.050781 Z M 102.492188 109.085938 C 102.203125 109.175781 101.917969 109.363281 101.585938 109.679688 C 101.425781 109.835938 101.265625 110.003906 101.195312 110.207031 C 101.128906 110.382812 101.152344 110.578125 101.253906 110.683594 C 101.414062 110.851562 101.746094 110.792969 101.972656 110.636719 C 102.453125 110.316406 102.683594 109.636719 102.492188 109.085938 Z M 100.863281 108.222656 C 100.371094 108.363281 99.949219 108.8125 99.867188 109.320312 C 99.835938 109.515625 99.867188 109.761719 100.011719 109.84375 C 100.125 109.902344 100.289062 109.851562 100.386719 109.769531 C 100.535156 109.648438 100.625 109.449219 100.683594 109.289062 C 100.796875 109.003906 100.898438 108.617188 100.863281 108.222656 Z M 101.339844 108.183594 C 101.382812 108.660156 101.265625 109.113281 101.136719 109.449219 C 101.175781 109.410156 101.214844 109.371094 101.253906 109.332031 C 101.480469 109.117188 101.820312 108.824219 102.246094 108.660156 C 102.015625 108.402344 101.6875 108.226562 101.339844 108.183594 Z M 101.339844 108.183594 "/><path style=" stroke:none;fill-rule:nonzero;fill:#020232;fill-opacity:1;" d="M 124.117188 106.898438 L 123.800781 106.539062 C 124.105469 106.269531 124.441406 105.9375 124.625 105.527344 C 124.804688 105.125 124.796875 104.691406 124.601562 104.394531 C 124.4375 104.140625 124.183594 104.042969 123.996094 104.003906 C 123.789062 103.960938 123.5625 103.972656 123.355469 104.03125 C 123.351562 104.296875 123.285156 104.566406 123.167969 104.792969 C 123.160156 104.808594 122.535156 106 121.96875 106.117188 C 121.835938 106.148438 121.707031 106.117188 121.605469 106.039062 C 121.527344 105.976562 121.4375 105.859375 121.449219 105.644531 C 121.472656 105.109375 122.179688 104.148438 122.707031 103.800781 C 122.75 103.773438 122.789062 103.746094 122.832031 103.726562 C 122.789062 103.574219 122.707031 103.441406 122.578125 103.347656 C 122.292969 103.144531 121.878906 103.203125 121.585938 103.355469 C 121.675781 103.871094 121.480469 104.449219 121.296875 104.894531 C 121.222656 105.074219 121.003906 105.609375 120.515625 105.617188 C 120.515625 105.617188 120.511719 105.617188 120.507812 105.617188 C 120.332031 105.617188 120.167969 105.539062 120.042969 105.398438 C 119.886719 105.226562 119.8125 104.976562 119.839844 104.75 C 119.886719 104.394531 120.121094 104.109375 120.292969 103.90625 C 120.503906 103.65625 120.730469 103.382812 121.011719 103.160156 C 120.984375 103.121094 120.957031 103.082031 120.921875 103.046875 C 120.621094 102.738281 120.0625 102.8125 119.714844 103.050781 C 119.6875 103.066406 119.667969 103.085938 119.644531 103.101562 C 119.734375 103.632812 119.578125 104.207031 119.507812 104.457031 C 119.464844 104.628906 119.402344 104.84375 119.257812 105.019531 C 119.09375 105.21875 118.78125 105.347656 118.507812 105.21875 C 118.371094 105.152344 118.273438 105.039062 118.226562 104.894531 C 118.113281 104.558594 118.3125 104.152344 118.375 104.035156 C 118.5625 103.6875 118.785156 103.277344 119.105469 102.945312 C 119.054688 102.832031 118.980469 102.738281 118.890625 102.667969 C 118.707031 102.53125 118.496094 102.535156 118.351562 102.5625 C 118.066406 102.617188 117.789062 102.8125 117.640625 103.054688 C 117.382812 103.488281 117.386719 104.042969 117.441406 104.484375 L 117.457031 104.484375 L 117.523438 104.957031 L 117.039062 105.03125 L 117 104.792969 C 116.914062 104.253906 116.839844 103.457031 117.230469 102.808594 C 117.445312 102.449219 117.839844 102.171875 118.257812 102.089844 C 118.597656 102.023438 118.925781 102.09375 119.179688 102.28125 C 119.308594 102.382812 119.40625 102.496094 119.480469 102.625 C 119.996094 102.289062 120.777344 102.207031 121.261719 102.707031 C 121.320312 102.765625 121.371094 102.828125 121.414062 102.898438 C 121.910156 102.65625 122.46875 102.675781 122.851562 102.953125 C 123.0625 103.105469 123.199219 103.3125 123.277344 103.546875 C 123.539062 103.480469 123.820312 103.472656 124.089844 103.527344 C 124.480469 103.609375 124.804688 103.820312 125 104.125 C 125.28125 104.558594 125.300781 105.167969 125.058594 105.714844 C 124.84375 106.21875 124.460938 106.59375 124.117188 106.898438 Z M 122.84375 104.296875 C 122.386719 104.671875 121.972656 105.363281 121.929688 105.628906 C 122.117188 105.515625 122.488281 105.0625 122.742188 104.574219 C 122.789062 104.488281 122.820312 104.394531 122.84375 104.296875 Z M 121.128906 103.695312 C 120.964844 103.855469 120.8125 104.035156 120.667969 104.210938 C 120.484375 104.429688 120.34375 104.609375 120.320312 104.808594 C 120.308594 104.898438 120.34375 105.007812 120.40625 105.078125 C 120.4375 105.117188 120.472656 105.136719 120.511719 105.136719 C 120.511719 105.136719 120.511719 105.136719 120.515625 105.136719 C 120.628906 105.132812 120.742188 104.992188 120.859375 104.710938 C 121.027344 104.304688 121.117188 103.96875 121.128906 103.695312 Z M 119.191406 103.605469 C 119.042969 103.820312 118.921875 104.046875 118.804688 104.265625 C 118.707031 104.445312 118.65625 104.644531 118.6875 104.746094 C 118.695312 104.769531 118.707031 104.777344 118.722656 104.785156 C 118.761719 104.800781 118.84375 104.777344 118.898438 104.710938 C 118.976562 104.617188 119.015625 104.472656 119.054688 104.332031 C 119.128906 104.058594 119.171875 103.820312 119.191406 103.605469 Z M 119.191406 103.605469 "/><path style=" stroke:none;fill-rule:nonzero;fill:#020232;fill-opacity:1;" d="M 47.628906 102.425781 L 47.585938 102.191406 C 51.046875 101.597656 59.550781 96.363281 59.925781 95.769531 L 60.128906 95.894531 C 59.644531 96.667969 51.066406 101.839844 47.628906 102.425781 Z M 47.628906 102.425781 "/><path style=" stroke:none;fill-rule:nonzero;fill:#020232;fill-opacity:1;" d="M 110.144531 102.980469 C 107.921875 102.523438 95.484375 97.421875 94.273438 95.90625 L 94.460938 95.757812 C 95.554688 97.125 107.816406 102.257812 110.195312 102.742188 Z M 110.144531 102.980469 "/><path style=" stroke:none;fill-rule:nonzero;fill:#020232;fill-opacity:1;" d="M 95.296875 105.441406 C 94.113281 105.0625 91.925781 102.617188 90.332031 100.828125 C 89.695312 100.121094 89.148438 99.503906 88.785156 99.15625 L 88.953125 98.984375 C 89.320312 99.335938 89.871094 99.953125 90.507812 100.667969 C 92.085938 102.433594 94.246094 104.855469 95.367188 105.210938 Z M 95.296875 105.441406 "/></g></svg>