<svg xmlns="http://www.w3.org/2000/svg" xmlns:xlink="http://www.w3.org/1999/xlink" width="200" zoomAndPan="magnify" viewBox="0 0 150 149.999998" height="200" preserveAspectRatio="xMidYMid meet" version="1.2"><defs><clipPath id="dfd9f523d1"><path d="M 74 30 L 127 30 L 127 122.457031 L 74 122.457031 Z M 74 30 "/></clipPath></defs><g id="2c7db48e16"><path style=" stroke:none;fill-rule:nonzero;fill:#d76746;fill-opacity:1;" d="M 56.21875 52.855469 L 59.644531 52.855469 L 69.15625 112.15625 L 65.8125 112.691406 L 62.058594 89.285156 L 38.121094 90.34375 L 38.617188 112.875 L 35.234375 112.953125 L 34.28125 69.796875 L 26.433594 109.425781 L 23.113281 108.769531 L 33.933594 54.121094 L 33.90625 52.855469 L 37.296875 52.855469 L 36.988281 54.40625 L 37.707031 86.957031 L 47.085938 86.542969 L 42.398438 31.363281 L 46.132812 31.363281 L 50.808594 86.394531 L 61.519531 85.921875 Z M 56.21875 52.855469 L 59.644531 52.855469 L 69.15625 112.15625 L 65.8125 112.691406 L 62.058594 89.285156 L 38.121094 90.34375 L 38.617188 112.875 L 35.234375 112.953125 L 34.28125 69.796875 L 26.433594 109.425781 L 23.113281 108.769531 L 33.933594 54.121094 L 33.90625 52.855469 L 37.296875 52.855469 L 36.988281 54.40625 L 37.707031 86.957031 L 47.085938 86.542969 L 42.398438 31.363281 L 46.132812 31.363281 L 50.808594 86.394531 L 61.519531 85.921875 Z M 56.21875 52.855469 "/><path style=" stroke:none;fill-rule:nonzero;fill:#ffdcb4;fill-opacity:1;" d="M 65.757812 40.632812 C 67.070312 40.878906 73.644531 85.523438 72.6875 86.398438 C 71.726562 87.277344 27.242188 88.011719 25.617188 87.570312 C 23.996094 87.132812 18.597656 42.601562 19.613281 41.871094 C 20.628906 41.140625 63.933594 40.285156 65.757812 40.632812 Z M 65.757812 40.632812 "/><path style=" stroke:none;fill-rule:nonzero;fill:#3c2f2f;fill-opacity:1;" d="M 52.324219 68.386719 C 52.265625 68.613281 53.484375 69.136719 53.484375 69.136719 L 53.6875 68.144531 C 53.6875 68.144531 52.386719 68.160156 52.324219 68.386719 Z M 82.289062 72.488281 C 79.652344 72.039062 56.761719 67.925781 56.53125 67.925781 C 55.796875 68.996094 55.9375 70.351562 55.9375 70.351562 C 55.9375 70.351562 78.878906 73.90625 81.925781 74.40625 C 82.496094 74.527344 83.023438 72.800781 82.289062 72.488281 Z M 56.636719 58.441406 C 56.210938 56.820312 55.359375 55.445312 53.914062 54.546875 C 52.738281 53.816406 51.378906 53.453125 50 53.285156 C 50.6875 53.0625 51.355469 52.78125 51.988281 52.425781 C 52.488281 52.144531 53.730469 51.328125 52.867188 50.695312 C 52.191406 50.199219 51.148438 50.808594 50.542969 51.136719 C 50.070312 51.390625 49.625 51.691406 49.203125 52.023438 C 49.257812 51.933594 49.3125 51.839844 49.371094 51.75 C 49.710938 51.195312 50.105469 50.648438 50.382812 50.054688 C 50.707031 49.351562 50.644531 48.144531 49.644531 48.066406 C 48.667969 47.992188 48.070312 49.289062 47.679688 49.976562 C 47.445312 50.386719 47.234375 50.8125 47.03125 51.238281 C 47.074219 50.707031 47.082031 50.167969 47.042969 49.632812 C 47 49.015625 46.996094 47.320312 45.976562 47.507812 C 45.070312 47.675781 44.785156 49.277344 44.6875 49.992188 C 44.554688 50.949219 44.859375 52.039062 44.550781 52.964844 C 44 52.03125 43.214844 51.25 42.261719 50.722656 C 41.539062 50.324219 40.378906 49.890625 39.65625 50.535156 C 38.808594 51.296875 39.738281 52.292969 40.457031 52.667969 C 41.246094 53.078125 42.105469 53.363281 42.980469 53.5625 C 41.667969 53.820312 40.394531 54.25 39.28125 54.988281 C 37.730469 56.015625 36.703125 57.558594 36.003906 59.257812 C 35.507812 60.460938 35.132812 61.707031 35.050781 63.011719 C 34.949219 64.582031 35.207031 66.164062 35.636719 67.664062 C 36.417969 70.378906 37.738281 73.003906 39.671875 75.082031 C 41.484375 77.03125 43.894531 78.449219 46.617188 78.472656 C 49.367188 78.496094 51.5 76.859375 53.125 74.769531 C 54.707031 72.742188 55.679688 70.261719 56.363281 67.800781 C 57.207031 64.757812 57.4375 61.519531 56.636719 58.441406 Z M 50.097656 51.945312 C 50.671875 51.566406 51.425781 51.0625 52.128906 50.996094 C 52.410156 50.96875 52.546875 50.957031 52.550781 51.261719 C 52.554688 51.585938 52.378906 51.644531 52.117188 51.808594 C 51.785156 52.019531 51.4375 52.203125 51.082031 52.371094 C 50.296875 52.738281 49.46875 52.996094 48.621094 53.167969 C 49.070312 52.710938 49.558594 52.296875 50.097656 51.945312 Z M 47.714844 50.890625 C 47.925781 50.484375 48.148438 50.085938 48.386719 49.695312 C 48.601562 49.34375 48.816406 48.945312 49.160156 48.699219 C 49.730469 48.28125 50.203125 48.824219 50.105469 49.421875 C 50.03125 49.886719 49.707031 50.3125 49.464844 50.707031 C 48.960938 51.523438 48.460938 52.339844 47.957031 53.15625 C 47.882812 53.15625 47.808594 53.152344 47.730469 53.152344 C 47.398438 53.148438 47.066406 53.160156 46.730469 53.171875 C 47.011719 52.390625 47.335938 51.628906 47.714844 50.890625 Z M 45.136719 51.519531 C 45.097656 50.492188 45.152344 49.535156 45.558594 48.574219 C 45.636719 48.386719 45.757812 48.117188 45.953125 48.03125 C 46.300781 47.878906 46.414062 48.390625 46.460938 48.648438 C 46.550781 49.175781 46.597656 49.710938 46.601562 50.25 C 46.613281 51.25 46.472656 52.234375 46.207031 53.199219 C 45.980469 53.210938 45.75 53.222656 45.523438 53.242188 C 45.324219 53.253906 45.125 53.273438 44.921875 53.292969 C 45.152344 52.738281 45.164062 52.128906 45.136719 51.519531 Z M 41.425781 52.582031 C 40.964844 52.402344 40.464844 52.210938 40.105469 51.855469 C 39.734375 51.492188 39.671875 50.910156 40.253906 50.734375 C 41.015625 50.507812 41.867188 50.992188 42.472656 51.398438 C 43.203125 51.890625 43.78125 52.554688 44.210938 53.320312 C 43.257812 53.175781 42.320312 52.9375 41.425781 52.582031 Z M 53.882812 72.820312 C 52.730469 74.84375 50.929688 77.003906 48.628906 77.71875 C 46.09375 78.507812 43.300781 77.625 41.304688 75.980469 C 39.234375 74.277344 37.738281 71.960938 36.753906 69.484375 C 35.667969 66.761719 35.027344 63.691406 35.933594 60.824219 C 36.472656 59.113281 37.242188 57.402344 38.5625 56.148438 C 39.953125 54.832031 41.808594 54.214844 43.664062 53.914062 C 43.90625 53.875 44.152344 53.84375 44.394531 53.816406 C 44.429688 53.820312 44.464844 53.824219 44.496094 53.832031 C 44.546875 53.835938 44.589844 53.816406 44.628906 53.785156 C 44.925781 53.753906 45.222656 53.730469 45.523438 53.707031 C 45.769531 53.6875 46.023438 53.671875 46.285156 53.65625 C 46.355469 53.6875 46.433594 53.6875 46.503906 53.648438 C 46.984375 53.625 47.476562 53.613281 47.980469 53.617188 C 48.042969 53.652344 48.117188 53.65625 48.179688 53.621094 C 51.191406 53.683594 54.398438 54.40625 55.738281 57.257812 C 56.257812 58.359375 56.472656 59.640625 56.589844 60.84375 C 56.738281 62.339844 56.671875 63.855469 56.429688 65.34375 C 56.011719 67.894531 55.167969 70.5625 53.882812 72.820312 Z M 40.347656 61.332031 C 40.683594 61.542969 41.132812 61.398438 41.371094 61.109375 C 41.5 60.953125 41.582031 60.765625 41.628906 60.570312 C 41.671875 60.390625 41.707031 60.191406 41.695312 60.003906 C 41.683594 59.785156 41.609375 59.566406 41.433594 59.425781 C 41.246094 59.273438 41.003906 59.230469 40.789062 59.347656 C 40.757812 59.363281 40.734375 59.386719 40.714844 59.414062 C 40.636719 59.394531 40.550781 59.40625 40.5 59.46875 C 40.253906 59.769531 40.003906 60.089844 39.964844 60.488281 C 39.933594 60.808594 40.070312 61.15625 40.347656 61.332031 Z M 40.429688 60.507812 C 40.429688 60.507812 40.429688 60.507812 40.429688 60.503906 C 40.433594 60.484375 40.433594 60.464844 40.441406 60.449219 C 40.449219 60.410156 40.460938 60.371094 40.476562 60.332031 C 40.492188 60.285156 40.53125 60.214844 40.566406 60.160156 C 40.648438 60.023438 40.730469 59.921875 40.828125 59.800781 C 40.835938 59.792969 40.839844 59.78125 40.847656 59.769531 C 40.902344 59.785156 40.96875 59.777344 41.023438 59.75 C 41.027344 59.746094 41.027344 59.746094 41.027344 59.746094 C 41.03125 59.746094 41.03125 59.746094 41.03125 59.742188 C 41.039062 59.742188 41.046875 59.742188 41.054688 59.742188 C 41.054688 59.746094 41.058594 59.746094 41.0625 59.746094 C 41.058594 59.746094 41.058594 59.746094 41.058594 59.746094 C 41.054688 59.742188 41.054688 59.742188 41.054688 59.742188 C 41.054688 59.742188 41.058594 59.742188 41.058594 59.742188 C 41.074219 59.746094 41.066406 59.746094 41.0625 59.746094 C 41.070312 59.746094 41.078125 59.75 41.089844 59.753906 C 41.089844 59.753906 41.09375 59.753906 41.09375 59.753906 C 41.109375 59.761719 41.121094 59.769531 41.132812 59.777344 C 41.105469 59.761719 41.136719 59.78125 41.148438 59.789062 C 41.152344 59.796875 41.160156 59.800781 41.164062 59.808594 C 41.167969 59.8125 41.171875 59.816406 41.171875 59.820312 C 41.191406 59.851562 41.195312 59.855469 41.203125 59.882812 C 41.222656 59.949219 41.226562 59.972656 41.230469 60.046875 C 41.234375 60.292969 41.179688 60.574219 41.039062 60.78125 C 40.988281 60.855469 40.890625 60.925781 40.8125 60.949219 C 40.804688 60.953125 40.765625 60.960938 40.761719 60.964844 C 40.730469 60.96875 40.699219 60.96875 40.671875 60.964844 C 40.707031 60.96875 40.636719 60.957031 40.628906 60.953125 C 40.625 60.953125 40.628906 60.953125 40.625 60.953125 C 40.613281 60.945312 40.597656 60.9375 40.582031 60.929688 C 40.582031 60.925781 40.578125 60.925781 40.574219 60.921875 C 40.566406 60.917969 40.558594 60.910156 40.558594 60.910156 C 40.542969 60.894531 40.53125 60.882812 40.519531 60.867188 C 40.519531 60.863281 40.492188 60.828125 40.488281 60.820312 C 40.480469 60.808594 40.453125 60.742188 40.46875 60.78125 C 40.457031 60.757812 40.449219 60.734375 40.445312 60.710938 C 40.441406 60.699219 40.4375 60.683594 40.433594 60.667969 C 40.433594 60.667969 40.429688 60.652344 40.429688 60.644531 C 40.429688 60.640625 40.429688 60.636719 40.429688 60.636719 C 40.425781 60.621094 40.425781 60.609375 40.425781 60.59375 C 40.425781 60.566406 40.425781 60.539062 40.429688 60.507812 Z M 47.527344 58.550781 C 47.429688 58.625 47.375 58.75 47.445312 58.871094 C 47.503906 58.96875 47.664062 59.027344 47.765625 58.953125 C 47.816406 58.914062 47.828125 58.90625 47.886719 58.894531 C 47.890625 58.894531 47.925781 58.894531 47.933594 58.894531 C 47.960938 58.894531 47.960938 58.894531 48 58.90625 C 48.089844 58.929688 48.164062 58.976562 48.226562 59.066406 C 48.378906 59.289062 48.394531 59.609375 48.367188 59.871094 C 48.339844 60.109375 48.226562 60.363281 48.007812 60.445312 C 47.894531 60.484375 47.808594 60.472656 47.722656 60.421875 C 47.632812 60.367188 47.566406 60.28125 47.519531 60.175781 C 47.386719 59.878906 47.503906 59.496094 47.59375 59.191406 C 47.675781 58.902344 47.226562 58.78125 47.144531 59.066406 C 47.023438 59.488281 46.914062 59.9375 47.09375 60.359375 C 47.253906 60.730469 47.617188 60.992188 48.035156 60.917969 C 48.449219 60.84375 48.730469 60.457031 48.804688 60.066406 C 48.878906 59.679688 48.859375 59.203125 48.648438 58.855469 C 48.425781 58.496094 47.902344 58.269531 47.527344 58.550781 Z M 53.316406 59.140625 C 53.21875 59.121094 53.109375 59.15625 53.058594 59.242188 C 52.976562 59.242188 52.898438 59.277344 52.855469 59.351562 C 52.6875 59.640625 52.519531 59.980469 52.539062 60.324219 C 52.558594 60.679688 52.789062 60.988281 53.144531 61.070312 C 53.484375 61.148438 53.824219 61.027344 54.03125 60.75 C 54.21875 60.5 54.269531 60.136719 54.15625 59.839844 C 54.015625 59.480469 53.691406 59.21875 53.316406 59.140625 Z M 53.746094 60.246094 C 53.742188 60.257812 53.742188 60.273438 53.738281 60.285156 C 53.730469 60.316406 53.722656 60.34375 53.714844 60.371094 C 53.714844 60.371094 53.710938 60.375 53.710938 60.378906 C 53.703125 60.394531 53.699219 60.40625 53.691406 60.417969 C 53.679688 60.441406 53.664062 60.460938 53.652344 60.484375 C 53.640625 60.496094 53.632812 60.507812 53.621094 60.515625 C 53.613281 60.523438 53.578125 60.554688 53.574219 60.558594 C 53.554688 60.570312 53.535156 60.582031 53.511719 60.597656 C 53.511719 60.597656 53.507812 60.597656 53.507812 60.597656 C 53.511719 60.597656 53.511719 60.597656 53.519531 60.59375 C 53.515625 60.597656 53.511719 60.597656 53.507812 60.597656 C 53.5 60.601562 53.496094 60.601562 53.496094 60.601562 C 53.492188 60.605469 53.488281 60.605469 53.484375 60.605469 C 53.460938 60.613281 53.4375 60.617188 53.414062 60.625 C 53.414062 60.625 53.414062 60.625 53.410156 60.625 C 53.402344 60.625 53.390625 60.628906 53.378906 60.628906 C 53.347656 60.628906 53.320312 60.625 53.289062 60.625 C 53.289062 60.625 53.289062 60.625 53.285156 60.625 C 53.273438 60.621094 53.261719 60.621094 53.25 60.617188 C 53.226562 60.609375 53.207031 60.601562 53.183594 60.59375 C 53.238281 60.613281 53.167969 60.585938 53.152344 60.574219 C 53.140625 60.570312 53.132812 60.5625 53.121094 60.558594 C 53.121094 60.554688 53.117188 60.554688 53.113281 60.546875 C 53.101562 60.535156 53.054688 60.476562 53.082031 60.523438 C 53.066406 60.5 53.054688 60.476562 53.039062 60.449219 C 53.035156 60.445312 53.035156 60.445312 53.035156 60.441406 C 53.03125 60.429688 53.023438 60.414062 53.019531 60.402344 C 53.015625 60.390625 53.015625 60.375 53.011719 60.363281 C 53.007812 60.355469 53.007812 60.347656 53.007812 60.34375 C 53.007812 60.308594 53.003906 60.277344 53.003906 60.242188 C 53.003906 60.226562 53.007812 60.214844 53.007812 60.199219 C 53.007812 60.191406 53.011719 60.183594 53.011719 60.179688 C 53.023438 60.105469 53.046875 60.035156 53.070312 59.964844 C 53.074219 59.953125 53.082031 59.9375 53.085938 59.925781 C 53.089844 59.917969 53.09375 59.910156 53.097656 59.902344 C 53.097656 59.898438 53.097656 59.898438 53.097656 59.894531 C 53.113281 59.859375 53.128906 59.828125 53.148438 59.792969 C 53.179688 59.730469 53.214844 59.667969 53.25 59.605469 C 53.285156 59.617188 53.320312 59.625 53.355469 59.636719 C 53.363281 59.644531 53.390625 59.65625 53.398438 59.660156 C 53.429688 59.675781 53.457031 59.691406 53.488281 59.710938 C 53.492188 59.714844 53.5 59.71875 53.503906 59.726562 C 53.511719 59.726562 53.523438 59.738281 53.527344 59.742188 C 53.550781 59.761719 53.574219 59.78125 53.59375 59.804688 C 53.609375 59.820312 53.625 59.835938 53.640625 59.855469 C 53.640625 59.859375 53.644531 59.863281 53.644531 59.863281 C 53.65625 59.878906 53.667969 59.898438 53.675781 59.914062 C 53.691406 59.9375 53.703125 59.960938 53.714844 59.984375 C 53.691406 59.9375 53.726562 60.019531 53.730469 60.03125 C 53.734375 60.054688 53.742188 60.082031 53.746094 60.109375 C 53.746094 60.128906 53.75 60.148438 53.75 60.167969 C 53.75 60.191406 53.746094 60.21875 53.746094 60.246094 Z M 46.644531 65.851562 C 46.421875 65.710938 46.136719 65.683594 45.90625 65.816406 C 45.753906 65.910156 45.777344 66.085938 45.871094 66.183594 C 45.765625 66.257812 45.730469 66.382812 45.695312 66.5 C 45.660156 66.632812 45.632812 66.765625 45.613281 66.902344 C 45.578125 67.167969 45.574219 67.4375 45.609375 67.707031 C 45.640625 67.953125 45.707031 68.214844 45.941406 68.347656 C 46.320312 68.558594 46.816406 68.335938 47 67.96875 C 47.113281 67.738281 47.140625 67.484375 47.140625 67.230469 C 47.136719 66.984375 47.128906 66.730469 47.074219 66.492188 C 47.011719 66.230469 46.875 65.996094 46.644531 65.851562 Z M 46.667969 67.398438 C 46.660156 67.539062 46.632812 67.667969 46.566406 67.789062 C 46.53125 67.851562 46.4375 67.921875 46.367188 67.941406 C 46.300781 67.960938 46.304688 67.964844 46.238281 67.960938 C 46.214844 67.957031 46.183594 67.949219 46.164062 67.9375 C 46.144531 67.921875 46.113281 67.875 46.101562 67.828125 C 46.082031 67.757812 46.070312 67.6875 46.0625 67.613281 C 46.042969 67.417969 46.042969 67.214844 46.066406 67.019531 C 46.078125 66.929688 46.09375 66.839844 46.113281 66.75 C 46.121094 66.714844 46.132812 66.679688 46.140625 66.644531 C 46.265625 66.589844 46.335938 66.46875 46.292969 66.328125 C 46.273438 66.273438 46.238281 66.230469 46.195312 66.199219 C 46.210938 66.195312 46.226562 66.191406 46.25 66.195312 C 46.28125 66.195312 46.328125 66.207031 46.363281 66.226562 C 46.46875 66.277344 46.53125 66.355469 46.578125 66.46875 C 46.636719 66.609375 46.648438 66.761719 46.660156 66.90625 C 46.667969 67.070312 46.679688 67.238281 46.667969 67.398438 Z M 41.210938 67.488281 Z M 41.25 67.035156 C 41.296875 66.960938 41.3125 66.859375 41.261719 66.789062 C 41.125 66.597656 40.902344 66.523438 40.675781 66.589844 C 40.449219 66.65625 40.308594 66.835938 40.230469 67.046875 C 40.152344 67.25 40.132812 67.492188 40.117188 67.707031 C 40.101562 67.933594 40.113281 68.171875 40.199219 68.382812 C 40.351562 68.769531 40.785156 69.089844 41.210938 68.945312 C 41.59375 68.816406 41.734375 68.429688 41.753906 68.058594 C 41.773438 67.71875 41.71875 67.03125 41.25 67.035156 Z M 41.207031 67.488281 C 41.207031 67.488281 41.199219 67.484375 41.203125 67.484375 C 41.199219 67.484375 41.203125 67.480469 41.203125 67.480469 C 41.203125 67.480469 41.203125 67.476562 41.207031 67.484375 C 41.207031 67.484375 41.207031 67.488281 41.207031 67.488281 C 41.207031 67.488281 41.207031 67.488281 41.210938 67.488281 C 41.207031 67.484375 41.207031 67.480469 41.203125 67.480469 C 41.207031 67.472656 41.210938 67.472656 41.210938 67.488281 C 41.214844 67.488281 41.210938 67.488281 41.214844 67.488281 C 41.210938 67.488281 41.210938 67.488281 41.210938 67.488281 C 41.207031 67.488281 41.207031 67.488281 41.207031 67.488281 C 41.207031 67.488281 41.203125 67.488281 41.203125 67.484375 C 41.203125 67.484375 41.207031 67.488281 41.207031 67.488281 Z M 41.28125 68.128906 C 41.28125 68.132812 41.28125 68.140625 41.277344 68.148438 C 41.277344 68.160156 41.273438 68.171875 41.273438 68.183594 C 41.265625 68.210938 41.261719 68.242188 41.253906 68.269531 C 41.246094 68.296875 41.238281 68.320312 41.226562 68.34375 C 41.222656 68.347656 41.210938 68.375 41.207031 68.382812 C 41.199219 68.394531 41.191406 68.40625 41.183594 68.417969 C 41.183594 68.421875 41.183594 68.417969 41.183594 68.421875 C 41.171875 68.433594 41.113281 68.484375 41.144531 68.460938 C 41.125 68.472656 41.105469 68.484375 41.082031 68.496094 C 41.078125 68.5 41.078125 68.496094 41.074219 68.5 C 41.0625 68.503906 41.050781 68.507812 41.039062 68.507812 C 40.992188 68.523438 41.019531 68.511719 41.027344 68.511719 C 41.011719 68.511719 40.996094 68.511719 40.980469 68.511719 C 40.976562 68.511719 40.96875 68.511719 40.960938 68.507812 C 40.945312 68.507812 40.925781 68.5 40.910156 68.496094 C 40.835938 68.472656 40.734375 68.394531 40.683594 68.316406 C 40.53125 68.078125 40.570312 67.75 40.613281 67.472656 C 40.632812 67.320312 40.664062 67.175781 40.742188 67.074219 C 40.742188 67.074219 40.75 67.066406 40.753906 67.0625 C 40.761719 67.058594 40.773438 67.050781 40.777344 67.046875 C 40.78125 67.050781 40.859375 67.03125 40.816406 67.035156 C 40.828125 67.03125 40.839844 67.03125 40.847656 67.03125 C 40.855469 67.03125 40.855469 67.03125 40.855469 67.03125 C 40.859375 67.03125 40.859375 67.03125 40.863281 67.035156 C 40.867188 67.039062 40.871094 67.039062 40.875 67.039062 C 40.917969 67.089844 40.972656 67.121094 41.035156 67.132812 C 41.003906 67.167969 40.984375 67.210938 40.984375 67.261719 C 40.984375 67.378906 41.089844 67.5 41.214844 67.496094 C 41.21875 67.503906 41.222656 67.515625 41.230469 67.523438 C 41.230469 67.527344 41.230469 67.527344 41.230469 67.527344 C 41.234375 67.527344 41.230469 67.527344 41.234375 67.53125 C 41.246094 67.5625 41.253906 67.597656 41.261719 67.628906 C 41.265625 67.640625 41.265625 67.652344 41.269531 67.664062 C 41.269531 67.667969 41.269531 67.667969 41.269531 67.667969 C 41.273438 67.695312 41.277344 67.722656 41.277344 67.75 C 41.285156 67.816406 41.289062 67.882812 41.289062 67.953125 C 41.289062 68.011719 41.285156 68.070312 41.28125 68.128906 Z M 52.085938 65.445312 C 51.722656 65.542969 51.492188 65.847656 51.351562 66.179688 C 51.210938 66.523438 51.089844 66.910156 51.152344 67.28125 C 51.214844 67.652344 51.550781 68.003906 51.945312 67.964844 C 52.070312 67.953125 52.179688 67.867188 52.179688 67.730469 C 52.179688 67.617188 52.070312 67.484375 51.945312 67.5 C 51.839844 67.511719 51.761719 67.476562 51.691406 67.382812 C 51.605469 67.277344 51.59375 67.140625 51.601562 67.003906 C 51.613281 66.832031 51.675781 66.660156 51.730469 66.5 C 51.777344 66.355469 51.832031 66.210938 51.925781 66.09375 C 52 66 52.09375 65.929688 52.210938 65.898438 C 52.316406 65.867188 52.414062 65.886719 52.492188 65.96875 C 52.695312 66.183594 52.605469 66.535156 52.539062 66.8125 C 52.46875 67.105469 52.917969 67.226562 52.988281 66.9375 C 53.078125 66.566406 53.144531 66.175781 52.957031 65.824219 C 52.789062 65.507812 52.433594 65.351562 52.085938 65.445312 Z M 52.085938 65.445312 "/><path style=" stroke:none;fill-rule:nonzero;fill:#ffb7a4;fill-opacity:1;" d="M 93.421875 50.167969 C 93.574219 49.332031 100.421875 49.027344 100.421875 49.027344 L 108.03125 59.902344 C 108.03125 59.902344 102.171875 69.632812 97.148438 67.808594 C 92.128906 65.984375 91.445312 54.5 91.445312 54.5 C 91.445312 54.5 93.269531 51.003906 93.421875 50.167969 Z M 68.125 73.929688 L 66.277344 72.445312 C 66.277344 72.445312 61.902344 67.53125 61.070312 67.4375 C 60.238281 67.34375 60.152344 68.101562 60.160156 68.367188 C 60.171875 68.636719 60.464844 69.089844 60.464844 69.089844 C 60.464844 69.089844 59.730469 69.390625 59.902344 70.597656 C 59.328125 70.699219 58.820312 71.472656 58.914062 72.015625 C 58.023438 72.109375 58.324219 74.324219 59.78125 76.695312 C 60.121094 77.253906 61.371094 78.71875 63.089844 80.574219 C 64.664062 81.53125 65.371094 76.042969 68.125 73.929688 Z M 55.9375 70.351562 C 55.9375 70.351562 54.519531 69.695312 53.484375 69.136719 L 53.6875 68.144531 C 54.898438 68.011719 56.53125 67.925781 56.53125 67.925781 C 56.007812 68.933594 55.9375 70.351562 55.9375 70.351562 Z M 55.9375 70.351562 "/><path style=" stroke:none;fill-rule:nonzero;fill:#d76746;fill-opacity:0.5;" d="M 20.914062 42.304688 C 20.925781 42.414062 22.148438 52.519531 23.476562 63.226562 C 26.203125 85.15625 26.667969 85.25 27.113281 85.339844 C 27.226562 85.359375 27.765625 85.371094 28.644531 85.371094 C 35.761719 85.371094 65.773438 84.660156 70.332031 84.558594 C 71.878906 84.433594 71.761719 83.675781 71.078125 83.597656 C 59.144531 83.867188 29.824219 84.691406 27.40625 84.585938 C 26.53125 82.402344 23.527344 58.539062 21.6875 42.21875 C 21.660156 42.003906 21.46875 41.847656 21.253906 41.875 C 21.042969 41.898438 20.886719 42.089844 20.914062 42.304688 Z M 93.671875 61.078125 C 95.398438 60.421875 96.503906 59.121094 96.144531 58.175781 C 95.785156 57.230469 94.09375 56.996094 92.367188 57.65625 C 92.199219 57.71875 92.011719 57.789062 91.859375 57.863281 C 92.085938 59.175781 92.355469 60.390625 92.65625 61.355469 C 92.984375 61.292969 93.332031 61.207031 93.671875 61.078125 Z M 93.671875 61.078125 "/><path style=" stroke:none;fill-rule:nonzero;fill:#97c7eb;fill-opacity:1;" d="M 94.488281 71.609375 C 94.488281 71.609375 93.089844 65.632812 109.855469 62.332031 C 126.972656 58.960938 131.082031 64.765625 125.300781 72.445312 C 128.191406 73.511719 127.125 78.148438 124.996094 78.679688 C 124.996094 78.679688 126.566406 93.125 127.074219 104.175781 C 126.363281 109.449219 120.277344 112.082031 108.613281 110.460938 C 96.949219 108.839844 93.902344 106.101562 93.902344 103.972656 C 93.902344 101.84375 96.238281 98.703125 95.019531 94.949219 C 91.46875 97.078125 85.511719 98.21875 77.828125 95.101562 C 70.140625 91.984375 62.535156 82.40625 62.535156 82.40625 C 62.535156 82.40625 63.828125 76.019531 69.230469 72.824219 C 71.738281 74.195312 80.71875 80.277344 81.25 80.429688 C 82.164062 79.667969 83.179688 79.820312 83.355469 80.886719 C 86.574219 78.070312 92.8125 72.75 94.488281 71.609375 Z M 94.488281 71.609375 "/><path style=" stroke:none;fill-rule:nonzero;fill:#3c2f2f;fill-opacity:0.2;" d="M 95.539062 95.035156 C 95.421875 95.035156 95.308594 94.984375 95.230469 94.886719 C 95.097656 94.71875 95.128906 94.472656 95.296875 94.339844 C 95.347656 94.300781 100.171875 90.523438 102.855469 87.542969 C 103 87.382812 103.246094 87.371094 103.40625 87.515625 C 103.566406 87.660156 103.578125 87.90625 103.433594 88.0625 C 100.703125 91.09375 95.824219 94.914062 95.777344 94.953125 C 95.707031 95.007812 95.621094 95.035156 95.539062 95.035156 Z M 99.507812 94.425781 C 99.625 94.375 102.347656 93.222656 103.300781 92.585938 C 103.476562 92.46875 103.527344 92.226562 103.40625 92.046875 C 103.289062 91.867188 103.046875 91.820312 102.867188 91.9375 C 101.976562 92.535156 99.234375 93.695312 99.207031 93.707031 C 99.007812 93.792969 98.914062 94.019531 99 94.21875 C 99.066406 94.378906 99.230469 94.46875 99.394531 94.453125 C 99.433594 94.449219 99.472656 94.441406 99.507812 94.425781 Z M 124.699219 79.335938 C 124.878906 79.21875 124.929688 78.976562 124.8125 78.796875 C 124.695312 78.617188 124.457031 78.566406 124.277344 78.683594 C 124.234375 78.710938 119.886719 81.410156 112.550781 77.476562 C 103.71875 72.742188 95.171875 71.265625 95.085938 71.25 C 94.867188 71.21875 94.671875 71.359375 94.636719 71.570312 C 94.601562 71.78125 94.742188 71.980469 94.957031 72.019531 C 95.039062 72.03125 103.46875 73.488281 112.183594 78.160156 C 115.421875 79.898438 118.105469 80.414062 120.144531 80.414062 C 122.996094 80.414062 124.589844 79.40625 124.699219 79.335938 Z M 125.109375 72.871094 C 125.289062 72.75 125.335938 72.507812 125.21875 72.332031 C 125.097656 72.152344 124.855469 72.105469 124.675781 72.222656 C 124.625 72.257812 119.265625 75.710938 109.378906 72.179688 C 109.175781 72.109375 108.953125 72.214844 108.882812 72.417969 C 108.808594 72.617188 108.914062 72.839844 109.117188 72.914062 C 112.589844 74.152344 115.515625 74.570312 117.875 74.570312 C 122.503906 74.570312 124.960938 72.972656 125.109375 72.871094 Z M 79.085938 84.1875 L 81.167969 80.996094 C 81.285156 80.816406 81.234375 80.574219 81.054688 80.457031 C 80.875 80.34375 80.636719 80.390625 80.519531 80.570312 L 78.433594 83.761719 C 78.316406 83.941406 78.367188 84.183594 78.546875 84.300781 C 78.613281 84.34375 78.6875 84.363281 78.761719 84.363281 C 78.886719 84.363281 79.011719 84.300781 79.085938 84.1875 Z M 83.683594 85.058594 L 83.683594 81.269531 C 83.683594 81.054688 83.507812 80.882812 83.292969 80.882812 C 83.078125 80.882812 82.902344 81.054688 82.902344 81.269531 L 82.902344 85.058594 C 82.902344 85.273438 83.078125 85.449219 83.292969 85.449219 C 83.507812 85.449219 83.683594 85.273438 83.683594 85.058594 Z M 83.683594 85.058594 "/><g clip-rule="nonzero" clip-path="url(#dfd9f523d1)"><path style=" stroke:none;fill-rule:nonzero;fill:#3c2f2f;fill-opacity:1;" d="M 101.5625 64.691406 C 101.5625 64.691406 100.648438 61.800781 99.738281 59.824219 C 103.085938 54.957031 100.042969 52.449219 96.847656 53.894531 C 85.28125 56.328125 82.085938 51.003906 87.414062 46.003906 C 77.675781 45.414062 87.867188 36.101562 93.042969 35.039062 C 94.257812 30.019531 119.519531 27.28125 124.082031 37.167969 C 128.648438 47.050781 123.894531 62.179688 123.117188 62.207031 C 113.835938 62.511719 101.5625 64.691406 101.5625 64.691406 Z M 93.902344 103.972656 C 93.902344 103.972656 88.140625 99.207031 80.015625 100.273438 C 71.890625 101.335938 70.808594 121.105469 94.632812 120.953125 C 103.015625 122.171875 110.398438 122.253906 112.519531 122.320312 C 114.695312 122.390625 128.722656 121.183594 126.296875 106.53125 C 122.863281 108.179688 104.695312 107.925781 93.902344 103.972656 Z M 93.902344 103.972656 "/></g><path style=" stroke:none;fill-rule:nonzero;fill:#d76746;fill-opacity:1;" d="M 61.84375 71.261719 C 61.9375 71.273438 62.039062 71.25 62.121094 71.183594 C 62.292969 71.054688 62.324219 70.808594 62.195312 70.640625 L 61.023438 69.121094 C 60.894531 68.949219 60.648438 68.917969 60.480469 69.050781 C 60.308594 69.179688 60.277344 69.421875 60.40625 69.59375 L 61.578125 71.113281 C 61.644531 71.199219 61.742188 71.25 61.84375 71.261719 Z M 61.070312 72.800781 C 61.148438 72.804688 61.230469 72.785156 61.300781 72.738281 C 61.480469 72.621094 61.53125 72.378906 61.417969 72.199219 L 60.429688 70.679688 C 60.3125 70.5 60.074219 70.449219 59.894531 70.566406 C 59.710938 70.683594 59.660156 70.921875 59.777344 71.101562 L 60.761719 72.621094 C 60.835938 72.730469 60.949219 72.792969 61.070312 72.800781 Z M 59.78125 73.921875 C 59.871094 73.9375 59.96875 73.925781 60.050781 73.875 C 60.238281 73.765625 60.296875 73.527344 60.191406 73.34375 L 59.457031 72.097656 C 59.34375 71.914062 59.105469 71.851562 58.921875 71.960938 C 58.738281 72.070312 58.675781 72.308594 58.785156 72.492188 L 59.519531 73.738281 C 59.578125 73.839844 59.675781 73.902344 59.78125 73.921875 Z M 59.78125 73.921875 "/></g></svg>