<svg xmlns="http://www.w3.org/2000/svg" xmlns:xlink="http://www.w3.org/1999/xlink" width="200" zoomAndPan="magnify" viewBox="0 0 150 149.999998" height="200" preserveAspectRatio="xMidYMid meet" version="1.2"><g id="49485fd512"><path style=" stroke:none;fill-rule:nonzero;fill:#ffcc4d;fill-opacity:1;" d="M 150 75 C 150 116.421875 116.421875 150 75 150 C 33.582031 150 0 116.421875 0 75 C 0 33.582031 33.582031 0 75 0 C 116.421875 0 150 33.582031 150 75 "/><path style=" stroke:none;fill-rule:nonzero;fill:#664500;fill-opacity:1;" d="M 106.1875 124.496094 C 106 123.75 101.320312 106.25 75 106.25 C 48.675781 106.25 44 123.75 43.8125 124.496094 C 43.582031 125.398438 43.992188 126.335938 44.800781 126.804688 C 45.613281 127.257812 46.628906 127.132812 47.300781 126.484375 C 47.378906 126.402344 55.441406 118.75 75 118.75 C 94.558594 118.75 102.625 126.402344 102.699219 126.480469 C 103.101562 126.875 103.632812 127.082031 104.167969 127.082031 C 104.515625 127.082031 104.871094 126.996094 105.191406 126.816406 C 106.007812 126.351562 106.417969 125.402344 106.1875 124.496094 Z M 65.445312 72.054688 C 51.882812 58.492188 30.085938 58.332031 29.167969 58.332031 C 26.867188 58.332031 25.003906 60.195312 25.003906 62.492188 C 25 64.792969 26.863281 66.660156 29.164062 66.667969 C 29.285156 66.667969 37.183594 66.757812 45.757812 69.738281 C 43.289062 72.402344 41.667969 76.546875 41.667969 81.25 C 41.667969 89.308594 46.328125 95.832031 52.082031 95.832031 C 57.835938 95.832031 62.5 89.308594 62.5 81.25 C 62.5 80.523438 62.421875 79.832031 62.347656 79.136719 C 62.398438 79.136719 62.449219 79.167969 62.5 79.167969 C 63.566406 79.167969 64.632812 78.757812 65.445312 77.945312 C 67.074219 76.316406 67.074219 73.683594 65.445312 72.054688 Z M 120.832031 58.332031 C 119.914062 58.332031 98.121094 58.492188 84.554688 72.054688 C 82.925781 73.683594 82.925781 76.316406 84.554688 77.945312 C 85.367188 78.757812 86.433594 79.167969 87.5 79.167969 C 87.554688 79.167969 87.601562 79.136719 87.648438 79.136719 C 87.582031 79.832031 87.5 80.523438 87.5 81.25 C 87.5 89.308594 92.164062 95.832031 97.917969 95.832031 C 103.671875 95.832031 108.332031 89.308594 108.332031 81.25 C 108.332031 76.546875 106.710938 72.402344 104.242188 69.738281 C 112.816406 66.757812 120.714844 66.667969 120.839844 66.667969 C 123.136719 66.660156 125 64.792969 124.996094 62.492188 C 124.992188 60.195312 123.132812 58.332031 120.832031 58.332031 Z M 120.832031 58.332031 "/></g></svg>