<svg xmlns="http://www.w3.org/2000/svg" xmlns:xlink="http://www.w3.org/1999/xlink" width="200" zoomAndPan="magnify" viewBox="0 0 150 149.999998" height="200" preserveAspectRatio="xMidYMid meet" version="1.2"><g id="1f213517e7"><path style=" stroke:none;fill-rule:nonzero;fill:#f5db48;fill-opacity:1;" d="M 75 0 C 116.410156 0 150 33.589844 150 75 C 150 116.410156 116.410156 150 75 150 C 33.589844 150 0 116.410156 0 75 C 0 33.589844 33.589844 0 75 0 Z M 75 0 "/><path style=" stroke:none;fill-rule:nonzero;fill:#5d3f3f;fill-opacity:1;" d="M 121.324219 65.53125 C 119.707031 65.53125 118.382812 64.207031 118.382812 62.589844 C 118.382812 55.089844 112.292969 48.96875 104.765625 48.96875 C 97.234375 48.96875 91.175781 55.058594 91.175781 62.589844 C 91.175781 64.207031 89.851562 65.53125 88.234375 65.53125 C 86.617188 65.53125 85.292969 64.207031 85.292969 62.589844 C 85.292969 51.851562 94.03125 43.089844 104.792969 43.089844 C 115.558594 43.089844 124.292969 51.824219 124.292969 62.589844 C 124.265625 64.207031 122.941406 65.53125 121.324219 65.53125 Z M 121.324219 65.53125 "/><path style=" stroke:none;fill-rule:nonzero;fill:#5d3f3f;fill-opacity:1;" d="M 61.765625 65.53125 C 60.148438 65.53125 58.824219 64.207031 58.824219 62.589844 C 58.824219 55.089844 52.734375 48.96875 45.207031 48.96875 C 37.675781 48.96875 31.589844 55.058594 31.589844 62.589844 C 31.589844 64.207031 30.265625 65.53125 28.648438 65.53125 C 27.03125 65.53125 25.707031 64.207031 25.707031 62.589844 C 25.707031 51.851562 34.441406 43.089844 45.207031 43.089844 C 55.96875 43.089844 64.707031 51.824219 64.707031 62.589844 C 64.707031 64.207031 63.382812 65.53125 61.765625 65.53125 Z M 61.765625 65.53125 "/><path style=" stroke:none;fill-rule:nonzero;fill:#5d3f3f;fill-opacity:1;" d="M 75 123.792969 C 57.148438 123.792969 41.265625 110.882812 37.207031 93.117188 C 36.851562 91.53125 37.824219 89.96875 39.410156 89.589844 C 41 89.234375 42.558594 90.207031 42.941406 91.792969 C 46.410156 106.910156 59.882812 117.882812 75 117.882812 C 90.117188 117.882812 103.617188 106.910156 107.058594 91.792969 C 107.410156 90.207031 109 89.234375 110.589844 89.589844 C 112.175781 89.941406 113.175781 91.53125 112.792969 93.117188 C 108.734375 110.882812 92.851562 123.792969 75 123.792969 Z M 75 123.792969 "/></g></svg>