<svg xmlns="http://www.w3.org/2000/svg" xmlns:xlink="http://www.w3.org/1999/xlink" width="200" zoomAndPan="magnify" viewBox="0 0 150 149.999998" height="200" preserveAspectRatio="xMidYMid meet" version="1.2"><defs><clipPath id="2050a25462"><path d="M 88 47 L 109 47 L 109 68 L 88 68 Z M 88 47 "/></clipPath><clipPath id="722ee8ca04"><path d="M 108.648438 57.792969 C 108.648438 58.449219 108.582031 59.101562 108.453125 59.746094 C 108.328125 60.390625 108.136719 61.015625 107.886719 61.621094 C 107.632812 62.226562 107.328125 62.804688 106.960938 63.351562 C 106.597656 63.894531 106.183594 64.402344 105.71875 64.863281 C 105.253906 65.328125 104.75 65.742188 104.203125 66.109375 C 103.65625 66.472656 103.082031 66.78125 102.472656 67.03125 C 101.867188 67.285156 101.242188 67.472656 100.597656 67.601562 C 99.953125 67.730469 99.304688 67.792969 98.648438 67.792969 C 97.992188 67.792969 97.339844 67.730469 96.695312 67.601562 C 96.050781 67.472656 95.425781 67.285156 94.820312 67.03125 C 94.214844 66.78125 93.636719 66.472656 93.089844 66.109375 C 92.546875 65.742188 92.039062 65.328125 91.574219 64.863281 C 91.113281 64.402344 90.695312 63.894531 90.332031 63.351562 C 89.96875 62.804688 89.660156 62.226562 89.410156 61.621094 C 89.15625 61.015625 88.96875 60.390625 88.839844 59.746094 C 88.710938 59.101562 88.648438 58.449219 88.648438 57.792969 C 88.648438 57.136719 88.710938 56.488281 88.839844 55.84375 C 88.96875 55.199219 89.15625 54.574219 89.410156 53.96875 C 89.660156 53.359375 89.96875 52.785156 90.332031 52.238281 C 90.695312 51.691406 91.113281 51.1875 91.574219 50.722656 C 92.039062 50.257812 92.546875 49.84375 93.089844 49.480469 C 93.636719 49.113281 94.214844 48.804688 94.820312 48.554688 C 95.425781 48.304688 96.050781 48.113281 96.695312 47.984375 C 97.339844 47.859375 97.992188 47.792969 98.648438 47.792969 C 99.304688 47.792969 99.953125 47.859375 100.597656 47.984375 C 101.242188 48.113281 101.867188 48.304688 102.472656 48.554688 C 103.082031 48.804688 103.65625 49.113281 104.203125 49.480469 C 104.75 49.84375 105.253906 50.257812 105.71875 50.722656 C 106.183594 51.1875 106.597656 51.691406 106.960938 52.238281 C 107.328125 52.785156 107.632812 53.359375 107.886719 53.96875 C 108.136719 54.574219 108.328125 55.199219 108.453125 55.84375 C 108.582031 56.488281 108.648438 57.136719 108.648438 57.792969 Z M 108.648438 57.792969 "/></clipPath><radialGradient gradientTransform="matrix(1,0,0,-1,-0.294116,150.294112)" id="c7e7023e14" gradientUnits="userSpaceOnUse" r="9.999999" cx="98.929401" fx="98.929401" cy="92.499993" fy="92.499993"><stop style="stop-color:#161414;stop-opacity:1;" offset="0"/><stop style="stop-color:#171515;stop-opacity:1;" offset="0.0625"/><stop style="stop-color:#181616;stop-opacity:1;" offset="0.121094"/><stop style="stop-color:#181717;stop-opacity:1;" offset="0.175781"/><stop style="stop-color:#191818;stop-opacity:1;" offset="0.226562"/><stop style="stop-color:#1a1818;stop-opacity:1;" offset="0.273438"/><stop style="stop-color:#1a1919;stop-opacity:1;" offset="0.316406"/><stop style="stop-color:#1b1a1a;stop-opacity:1;" offset="0.355469"/><stop style="stop-color:#1b1a1a;stop-opacity:1;" offset="0.394531"/><stop style="stop-color:#1c1b1b;stop-opacity:1;" offset="0.429688"/><stop style="stop-color:#1d1c1c;stop-opacity:1;" offset="0.445312"/><stop style="stop-color:#1e1d1d;stop-opacity:1;" offset="0.476562"/><stop style="stop-color:#1f1e1e;stop-opacity:1;" offset="0.507812"/><stop style="stop-color:#1f1e1e;stop-opacity:1;" offset="0.535156"/><stop style="stop-color:#201f1f;stop-opacity:1;" offset="0.5625"/><stop style="stop-color:#212020;stop-opacity:1;" offset="0.589844"/><stop style="stop-color:#222121;stop-opacity:1;" offset="0.613281"/><stop style="stop-color:#222121;stop-opacity:1;" offset="0.636719"/><stop style="stop-color:#232222;stop-opacity:1;" offset="0.65625"/><stop style="stop-color:#242323;stop-opacity:1;" offset="0.675781"/><stop style="stop-color:#242323;stop-opacity:1;" offset="0.695312"/><stop style="stop-color:#252424;stop-opacity:1;" offset="0.710938"/><stop style="stop-color:#252424;stop-opacity:1;" offset="0.726562"/><stop style="stop-color:#262525;stop-opacity:1;" offset="0.757812"/><stop style="stop-color:#272626;stop-opacity:1;" offset="0.785156"/><stop style="stop-color:#282727;stop-opacity:1;" offset="0.808594"/><stop style="stop-color:#282727;stop-opacity:1;" offset="0.832031"/><stop style="stop-color:#292828;stop-opacity:1;" offset="0.851562"/><stop style="stop-color:#2a2929;stop-opacity:1;" offset="0.867188"/><stop style="stop-color:#2a2929;stop-opacity:1;" offset="0.898438"/><stop style="stop-color:#2b2a2a;stop-opacity:1;" offset="0.921875"/><stop style="stop-color:#2b2b2b;stop-opacity:1;" offset="0.941406"/><stop style="stop-color:#2c2b2b;stop-opacity:1;" offset="0.953125"/><stop style="stop-color:#2d2c2c;stop-opacity:1;" offset="0.976562"/><stop style="stop-color:#2d2d2d;stop-opacity:1;" offset="1"/></radialGradient><clipPath id="4a06cba856"><path d="M 41 47 L 62 47 L 62 68 L 41 68 Z M 41 47 "/></clipPath><clipPath id="aa793b6bd0"><path d="M 61.351562 57.792969 C 61.351562 58.449219 61.289062 59.101562 61.160156 59.746094 C 61.03125 60.390625 60.84375 61.015625 60.589844 61.621094 C 60.339844 62.226562 60.03125 62.804688 59.667969 63.351562 C 59.304688 63.894531 58.886719 64.402344 58.425781 64.863281 C 57.960938 65.328125 57.453125 65.742188 56.910156 66.109375 C 56.363281 66.472656 55.785156 66.78125 55.179688 67.03125 C 54.574219 67.285156 53.949219 67.472656 53.304688 67.601562 C 52.660156 67.730469 52.007812 67.792969 51.351562 67.792969 C 50.695312 67.792969 50.046875 67.730469 49.402344 67.601562 C 48.757812 67.472656 48.132812 67.285156 47.527344 67.03125 C 46.917969 66.78125 46.34375 66.472656 45.796875 66.109375 C 45.25 65.742188 44.746094 65.328125 44.28125 64.863281 C 43.816406 64.402344 43.402344 63.894531 43.039062 63.351562 C 42.671875 62.804688 42.367188 62.226562 42.113281 61.621094 C 41.863281 61.015625 41.671875 60.390625 41.546875 59.746094 C 41.417969 59.101562 41.351562 58.449219 41.351562 57.792969 C 41.351562 57.136719 41.417969 56.488281 41.546875 55.84375 C 41.671875 55.199219 41.863281 54.574219 42.113281 53.96875 C 42.367188 53.359375 42.671875 52.785156 43.039062 52.238281 C 43.402344 51.691406 43.816406 51.1875 44.28125 50.722656 C 44.746094 50.257812 45.25 49.84375 45.796875 49.480469 C 46.34375 49.113281 46.917969 48.804688 47.527344 48.554688 C 48.132812 48.304688 48.757812 48.113281 49.402344 47.984375 C 50.046875 47.859375 50.695312 47.792969 51.351562 47.792969 C 52.007812 47.792969 52.660156 47.859375 53.304688 47.984375 C 53.949219 48.113281 54.574219 48.304688 55.179688 48.554688 C 55.785156 48.804688 56.363281 49.113281 56.910156 49.480469 C 57.453125 49.84375 57.960938 50.257812 58.425781 50.722656 C 58.886719 51.1875 59.304688 51.691406 59.667969 52.238281 C 60.03125 52.785156 60.339844 53.359375 60.589844 53.96875 C 60.84375 54.574219 61.03125 55.199219 61.160156 55.84375 C 61.289062 56.488281 61.351562 57.136719 61.351562 57.792969 Z M 61.351562 57.792969 "/></clipPath><radialGradient gradientTransform="matrix(1,0,0,-1,-0.294116,150.294112)" id="6c0f4fd8c2" gradientUnits="userSpaceOnUse" r="9.999999" cx="51.65882" fx="51.65882" cy="92.499993" fy="92.499993"><stop style="stop-color:#161414;stop-opacity:1;" offset="0"/><stop style="stop-color:#171515;stop-opacity:1;" offset="0.0625"/><stop style="stop-color:#181616;stop-opacity:1;" offset="0.121094"/><stop style="stop-color:#181717;stop-opacity:1;" offset="0.175781"/><stop style="stop-color:#191818;stop-opacity:1;" offset="0.226562"/><stop style="stop-color:#1a1818;stop-opacity:1;" offset="0.273438"/><stop style="stop-color:#1a1919;stop-opacity:1;" offset="0.316406"/><stop style="stop-color:#1b1a1a;stop-opacity:1;" offset="0.355469"/><stop style="stop-color:#1b1a1a;stop-opacity:1;" offset="0.394531"/><stop style="stop-color:#1c1b1b;stop-opacity:1;" offset="0.429688"/><stop style="stop-color:#1d1c1c;stop-opacity:1;" offset="0.445312"/><stop style="stop-color:#1e1d1d;stop-opacity:1;" offset="0.476562"/><stop style="stop-color:#1f1e1e;stop-opacity:1;" offset="0.507812"/><stop style="stop-color:#1f1e1e;stop-opacity:1;" offset="0.535156"/><stop style="stop-color:#201f1f;stop-opacity:1;" offset="0.5625"/><stop style="stop-color:#212020;stop-opacity:1;" offset="0.589844"/><stop style="stop-color:#222121;stop-opacity:1;" offset="0.613281"/><stop style="stop-color:#222121;stop-opacity:1;" offset="0.636719"/><stop style="stop-color:#232222;stop-opacity:1;" offset="0.65625"/><stop style="stop-color:#242323;stop-opacity:1;" offset="0.675781"/><stop style="stop-color:#242323;stop-opacity:1;" offset="0.695312"/><stop style="stop-color:#252424;stop-opacity:1;" offset="0.710938"/><stop style="stop-color:#252424;stop-opacity:1;" offset="0.726562"/><stop style="stop-color:#262525;stop-opacity:1;" offset="0.757812"/><stop style="stop-color:#272626;stop-opacity:1;" offset="0.785156"/><stop style="stop-color:#282727;stop-opacity:1;" offset="0.808594"/><stop style="stop-color:#282727;stop-opacity:1;" offset="0.832031"/><stop style="stop-color:#292828;stop-opacity:1;" offset="0.851562"/><stop style="stop-color:#2a2929;stop-opacity:1;" offset="0.867188"/><stop style="stop-color:#2a2929;stop-opacity:1;" offset="0.898438"/><stop style="stop-color:#2b2a2a;stop-opacity:1;" offset="0.921875"/><stop style="stop-color:#2b2b2b;stop-opacity:1;" offset="0.941406"/><stop style="stop-color:#2c2b2b;stop-opacity:1;" offset="0.953125"/><stop style="stop-color:#2d2c2c;stop-opacity:1;" offset="0.976562"/><stop style="stop-color:#2d2d2d;stop-opacity:1;" offset="1"/></radialGradient></defs><g id="cca105d0f4"><path style=" stroke:none;fill-rule:nonzero;fill:#f5db48;fill-opacity:1;" d="M 75 0 C 116.410156 0 150 33.589844 150 75 C 150 116.410156 116.410156 150 75 150 C 33.589844 150 0 116.410156 0 75 C 0 33.589844 33.589844 0 75 0 Z M 75 0 "/><g clip-rule="nonzero" clip-path="url(#2050a25462)"><g clip-rule="nonzero" clip-path="url(#722ee8ca04)"><path style=" stroke:none;fill-rule:nonzero;fill:url(#c7e7023e14);" d="M 88.648438 67.792969 L 88.648438 47.792969 L 108.648438 47.792969 L 108.648438 67.792969 Z M 88.648438 67.792969 "/></g></g><g clip-rule="nonzero" clip-path="url(#4a06cba856)"><g clip-rule="nonzero" clip-path="url(#aa793b6bd0)"><path style=" stroke:none;fill-rule:nonzero;fill:url(#6c0f4fd8c2);" d="M 41.351562 67.792969 L 41.351562 47.792969 L 61.351562 47.792969 L 61.351562 67.792969 Z M 41.351562 67.792969 "/></g></g><path style=" stroke:none;fill-rule:nonzero;fill:#5d3f3f;fill-opacity:1;" d="M 109.941406 119.441406 C 108.589844 119.441406 107.382812 118.53125 107.089844 117.148438 C 103.617188 102.03125 90.148438 91.058594 75.03125 91.058594 C 59.910156 91.058594 46.410156 102.03125 42.96875 117.148438 C 42.617188 118.734375 41.03125 119.707031 39.441406 119.351562 C 37.851562 119 36.851562 117.410156 37.234375 115.824219 C 41.292969 98.058594 57.207031 85.148438 75.03125 85.148438 C 92.851562 85.148438 108.765625 98.058594 112.824219 115.824219 C 113.175781 117.410156 112.207031 118.96875 110.617188 119.351562 C 110.382812 119.410156 110.148438 119.441406 109.941406 119.441406 Z M 109.941406 119.441406 "/></g></svg>