<svg xmlns="http://www.w3.org/2000/svg" xmlns:xlink="http://www.w3.org/1999/xlink" width="200" zoomAndPan="magnify" viewBox="0 0 150 149.999998" height="200" preserveAspectRatio="xMidYMid meet" version="1.2"><g id="0bf7e28a36"><path style=" stroke:none;fill-rule:nonzero;fill:#ff8b49;fill-opacity:1;" d="M 118.957031 69.53125 C 114.816406 68.023438 110.589844 65.425781 106.753906 62.589844 C 106.421875 62.347656 106.121094 62.105469 105.789062 61.863281 C 105.636719 61.746094 105.484375 61.625 105.335938 61.53125 C 105.003906 61.292969 104.699219 61.050781 104.367188 60.777344 C 97.632812 55.464844 92.652344 50.03125 92.652344 50.03125 L 90.566406 61.925781 C 90.566406 61.925781 94.796875 65.035156 99.960938 68.507812 C 100.292969 68.746094 100.625 68.957031 100.957031 69.199219 C 101.105469 69.320312 101.289062 69.410156 101.441406 69.53125 C 101.773438 69.742188 102.105469 69.984375 102.4375 70.195312 C 107.570312 73.609375 113.066406 76.988281 115.933594 77.953125 C 122.308594 80.097656 144.414062 91.71875 131.667969 94.195312 C 118.925781 96.671875 111.828125 81.96875 105.667969 90.179688 C 99.507812 98.390625 107.722656 105.394531 114.605469 107.839844 C 121.492188 110.285156 130.21875 114.722656 140.09375 98.902344 C 150 83.085938 131.578125 74.152344 118.957031 69.53125 Z M 108.625 92.746094 C 108.507812 90.242188 114.789062 95.402344 118.382812 98.300781 C 118.078125 98.210938 108.71875 95.222656 108.625 92.746094 Z M 108.625 92.746094 "/><path style=" stroke:none;fill-rule:nonzero;fill:#281c22;fill-opacity:1;" d="M 115.121094 77.441406 C 115.542969 74.542969 115.996094 71.644531 116.417969 68.746094 C 116.449219 68.566406 116.75 68.625 116.71875 68.839844 C 116.296875 71.734375 115.84375 74.632812 115.421875 77.53125 C 115.390625 77.710938 115.089844 77.652344 115.121094 77.441406 Z M 118.894531 78.46875 C 119.226562 75.71875 119.679688 72.972656 120.253906 70.257812 C 120.285156 70.074219 120.011719 69.984375 119.953125 70.167969 C 119.378906 72.914062 118.925781 75.660156 118.59375 78.4375 C 118.59375 78.648438 118.894531 78.648438 118.894531 78.46875 Z M 123.121094 81.246094 C 123.816406 78.195312 124.480469 75.175781 125.175781 72.128906 C 125.207031 71.945312 124.933594 71.855469 124.875 72.039062 C 124.179688 75.085938 123.515625 78.105469 122.820312 81.152344 C 122.789062 81.335938 123.09375 81.425781 123.121094 81.246094 Z M 126.714844 83.238281 C 127.683594 80.25 128.527344 77.230469 129.253906 74.179688 C 129.285156 74 129.011719 73.910156 128.949219 74.089844 C 128.226562 77.140625 127.410156 80.15625 126.414062 83.144531 C 126.355469 83.328125 126.65625 83.417969 126.714844 83.238281 Z M 130.460938 85.199219 C 131.335938 82.179688 132.210938 79.160156 133.058594 76.144531 C 133.117188 75.960938 132.816406 75.871094 132.757812 76.050781 C 131.878906 79.070312 131.003906 82.089844 130.160156 85.109375 C 130.097656 85.289062 130.402344 85.378906 130.460938 85.199219 Z M 133.238281 87.402344 C 134.566406 84.746094 135.804688 82.089844 136.984375 79.375 C 137.074219 79.191406 136.804688 79.042969 136.710938 79.222656 C 135.535156 81.9375 134.296875 84.625 132.96875 87.25 C 132.90625 87.402344 133.179688 87.582031 133.238281 87.402344 Z M 140.546875 83.265625 C 138.675781 85.589844 137.015625 88.097656 135.566406 90.691406 C 135.472656 90.875 135.746094 91.023438 135.835938 90.84375 C 137.285156 88.246094 138.917969 85.804688 140.757812 83.480469 C 140.878906 83.328125 140.667969 83.117188 140.546875 83.265625 Z M 112.523438 93.953125 C 113.125 92.414062 113.730469 90.90625 114.335938 89.363281 C 114.394531 89.183594 114.125 89.09375 114.03125 89.273438 C 113.429688 90.8125 112.824219 92.324219 112.21875 93.863281 C 112.160156 94.074219 112.433594 94.132812 112.523438 93.953125 Z M 114.910156 95.492188 C 115.480469 93.921875 116.085938 92.351562 116.75 90.8125 C 116.839844 90.632812 116.570312 90.480469 116.480469 90.664062 C 115.8125 92.234375 115.179688 93.832031 114.605469 95.433594 C 114.546875 95.613281 114.847656 95.675781 114.910156 95.492188 Z M 122.457031 97.9375 C 122.761719 96.550781 122.972656 95.070312 123.425781 93.710938 C 123.484375 93.53125 123.183594 93.441406 123.121094 93.621094 C 122.667969 94.980469 122.457031 96.457031 122.15625 97.847656 C 122.125 98.027344 122.429688 98.117188 122.457031 97.9375 Z M 126.65625 97.304688 C 126.898438 96.457031 127.046875 95.582031 127.140625 94.675781 C 127.167969 94.496094 126.867188 94.496094 126.835938 94.675781 C 126.746094 95.523438 126.59375 96.367188 126.355469 97.214844 C 126.324219 97.425781 126.59375 97.484375 126.65625 97.304688 Z M 135.535156 91.597656 C 134.808594 94.042969 132.636719 95.613281 130.429688 96.671875 C 127.925781 97.847656 125.175781 98.480469 122.398438 98.542969 C 120.917969 98.570312 119.46875 98.390625 118.050781 98.089844 C 118.050781 98.089844 118.050781 98.058594 118.050781 98.058594 C 118.59375 96.125 119.136719 94.226562 119.679688 92.292969 C 119.742188 92.113281 119.4375 92.019531 119.378906 92.203125 C 118.835938 94.132812 118.289062 96.035156 117.746094 97.96875 C 117.746094 98 117.746094 98 117.746094 98 C 114.636719 97.242188 111.769531 95.734375 109.351562 93.621094 C 109.835938 92.835938 110.316406 92.019531 110.769531 91.207031 C 110.769531 91.175781 110.800781 91.144531 110.800781 91.117188 C 110.921875 90.90625 110.921875 90.664062 110.679688 90.453125 C 107.839844 88.21875 104.972656 85.984375 101.921875 84.023438 C 101.800781 83.929688 101.652344 83.902344 101.53125 83.929688 C 101.289062 83.871094 101.046875 83.929688 100.867188 84.171875 C 99.054688 86.558594 97.394531 89.003906 95.882812 91.570312 C 95.824219 91.660156 95.792969 91.75 95.792969 91.839844 C 95.519531 92.050781 95.371094 92.445312 95.730469 92.714844 C 98.238281 94.828125 101.078125 96.488281 103.796875 98.332031 C 103.644531 97.785156 103.523438 97.214844 103.492188 96.671875 C 101.289062 95.191406 99.023438 93.800781 96.96875 92.140625 C 98.390625 89.757812 99.929688 87.464844 101.589844 85.230469 C 104.339844 87.011719 106.90625 88.972656 109.472656 90.996094 C 109.140625 91.570312 108.808594 92.140625 108.445312 92.714844 C 108.414062 92.683594 108.386719 92.65625 108.355469 92.625 C 108.203125 92.472656 107.992188 92.683594 108.144531 92.835938 C 108.203125 92.898438 108.234375 92.925781 108.292969 92.988281 C 108.292969 92.988281 108.265625 93.015625 108.265625 93.015625 C 108.71875 93.410156 109.078125 93.742188 109.171875 93.832031 C 115.300781 99.207031 124.601562 100.445312 131.789062 96.1875 C 133.570312 95.128906 135.140625 93.652344 135.746094 91.628906 C 135.867188 91.476562 135.566406 91.417969 135.535156 91.597656 Z M 101.289062 71.222656 C 101.800781 71.042969 102.164062 70.617188 102.4375 70.167969 C 102.105469 69.953125 101.773438 69.714844 101.441406 69.503906 C 101.320312 69.714844 101.167969 69.953125 100.925781 70.074219 C 100.804688 70.136719 100.714844 70.105469 100.59375 70.105469 C 100.5625 70.105469 100.535156 70.074219 100.503906 70.074219 C 100.535156 69.953125 100.65625 69.773438 100.714844 69.652344 C 100.773438 69.53125 100.835938 69.410156 100.894531 69.289062 C 100.925781 69.261719 100.925781 69.230469 100.957031 69.199219 C 102.316406 66.574219 103.796875 64.070312 105.335938 61.53125 C 105.484375 61.292969 105.636719 61.050781 105.789062 60.777344 C 105.9375 60.566406 106.242188 60.386719 106.390625 60.71875 C 106.484375 60.898438 106.179688 61.292969 106.089844 61.414062 C 106 61.5625 105.910156 61.714844 105.789062 61.835938 C 106.089844 62.078125 106.421875 62.316406 106.753906 62.558594 C 107.359375 61.714844 108.082031 60.507812 107.085938 59.691406 C 106.484375 59.207031 105.636719 59.238281 105.09375 59.691406 C 105.003906 59.722656 104.941406 59.8125 104.882812 59.902344 C 104.792969 59.992188 104.730469 60.113281 104.671875 60.265625 C 104.582031 60.414062 104.488281 60.597656 104.367188 60.746094 C 102.828125 63.285156 101.320312 65.820312 99.960938 68.445312 C 99.960938 68.445312 99.960938 68.445312 99.929688 68.476562 C 99.929688 68.476562 99.929688 68.507812 99.898438 68.507812 C 99.898438 68.535156 99.867188 68.566406 99.867188 68.597656 C 99.777344 68.746094 99.71875 68.898438 99.628906 69.050781 C 99.597656 69.078125 99.597656 69.140625 99.597656 69.171875 C 99.324219 69.714844 99.144531 70.285156 99.65625 70.832031 C 100.082031 71.3125 100.746094 71.433594 101.289062 71.222656 Z M 101.289062 71.222656 "/><path style=" stroke:none;fill-rule:nonzero;fill:#85d6ff;fill-opacity:1;" d="M 94.371094 130.660156 C 89.601562 136.636719 87.066406 141.40625 75.800781 143.1875 C 74.53125 143.398438 73.171875 143.550781 71.691406 143.671875 C 64.957031 144.214844 55.65625 143.972656 42.429688 142.675781 C 0 138.539062 8.425781 134.675781 7.578125 98.148438 C 7.128906 79.253906 6.734375 59.027344 13.046875 44.144531 C 18.695312 30.863281 29.714844 21.835938 50.886719 21.835938 C 50.886719 21.835938 76.644531 20.902344 86.972656 36.929688 C 93.769531 47.496094 94.644531 59.269531 96.304688 72.398438 C 97.179688 79.191406 98.269531 86.375 100.535156 93.953125 C 107.175781 116.171875 101.46875 121.753906 94.371094 130.660156 Z M 94.371094 130.660156 "/><path style=" stroke:none;fill-rule:nonzero;fill:#ff8b49;fill-opacity:1;" d="M 75.800781 143.21875 C 68.855469 144.335938 58.585938 144.273438 42.398438 142.703125 C 0 138.539062 8.425781 134.675781 7.578125 98.148438 C 7.128906 79.253906 6.734375 59.027344 13.046875 44.144531 C 13.046875 44.144531 21.59375 33.25 42.882812 33.851562 C 64.171875 34.457031 77.429688 44.328125 79.726562 84.113281 C 81.539062 115.535156 86.550781 135.398438 75.800781 143.21875 Z M 75.800781 143.21875 "/><path style=" stroke:none;fill-rule:nonzero;fill:#85d6ff;fill-opacity:1;" d="M 57.46875 137.753906 C 40.921875 138.359375 17.183594 136.425781 10.8125 132.410156 C 6.222656 129.542969 6.433594 112.066406 6.914062 102.4375 C 6.976562 101.167969 7.035156 100.019531 7.128906 99.054688 C 7.246094 97.394531 7.21875 95.734375 7.128906 94.105469 C 6.976562 91.449219 7.367188 86.980469 11.625 86.46875 C 17.695312 85.742188 64.566406 84.925781 68.792969 87.703125 C 70.789062 89.03125 71.785156 95.222656 72.359375 102.375 C 72.960938 110.34375 73.023438 119.519531 73.234375 124.503906 C 73.597656 133.949219 74.019531 137.148438 57.46875 137.753906 Z M 57.46875 137.753906 "/><path style=" stroke:none;fill-rule:nonzero;fill:#fffaa4;fill-opacity:1;" d="M 72.328125 102.375 C 71.875 102.4375 41.644531 107.476562 6.914062 102.4375 C 6.976562 101.167969 7.035156 100.019531 7.128906 99.054688 C 7.246094 97.394531 7.21875 95.734375 7.128906 94.105469 C 6.976562 91.449219 7.367188 86.980469 11.625 86.46875 C 17.695312 85.742188 64.566406 84.925781 68.792969 87.703125 C 70.757812 89.03125 71.785156 95.222656 72.328125 102.375 Z M 72.328125 102.375 "/><path style=" stroke:none;fill-rule:nonzero;fill:#ff8b49;fill-opacity:1;" d="M 63.359375 14.621094 C 51.1875 14.472656 51.035156 17.730469 50.25 20.054688 C 49.464844 22.382812 47.230469 26.910156 41.375 27.058594 C 35.515625 27.210938 35.0625 26.0625 41.375 23.589844 C 47.683594 21.113281 47.082031 10.730469 56.714844 8.164062 C 66.347656 5.597656 71.632812 8.796875 70.90625 17.640625 C 70.453125 23.136719 72.597656 26.09375 74.320312 27.511719 C 75.015625 28.085938 74.714844 29.203125 73.835938 29.382812 C 61.183594 32.039062 63.359375 14.621094 63.359375 14.621094 Z M 63.359375 14.621094 "/><path style=" stroke:none;fill-rule:nonzero;fill:#281c22;fill-opacity:1;" d="M 68.160156 28.929688 C 68.3125 29.050781 68.097656 29.261719 67.949219 29.144531 C 66.167969 27.722656 64.839844 25.851562 64.023438 23.710938 C 63.265625 21.71875 63.027344 19.605469 63.207031 17.492188 C 63.328125 16.132812 63.539062 14.59375 62.601562 13.445312 C 61.816406 12.511719 60.519531 12.296875 59.371094 12.296875 C 54.75 12.328125 50.191406 14.621094 47.140625 18.035156 C 47.019531 18.183594 46.808594 17.972656 46.929688 17.824219 C 48.652344 15.890625 50.796875 14.351562 53.210938 13.355469 C 56.261719 12.085938 63.265625 10.335938 63.601562 15.46875 C 63.691406 16.796875 63.386719 18.125 63.449219 19.453125 C 63.507812 20.691406 63.71875 21.929688 64.113281 23.136719 C 64.867188 25.398438 66.257812 27.453125 68.160156 28.929688 Z M 96.546875 74.632812 C 96.636719 74.453125 96.394531 74.300781 96.277344 74.484375 C 94.011719 78.4375 91.351562 82.210938 88.210938 85.53125 C 86.882812 77.59375 85.375 69.714844 83.5 61.894531 C 81.71875 54.621094 79.425781 47.222656 74.804688 41.21875 C 70.636719 35.8125 64.867188 32.402344 58.316406 30.710938 C 51.792969 29.023438 44.816406 28.660156 38.113281 29.023438 C 30.894531 29.414062 23.464844 31.074219 17.90625 35.964844 C 17.757812 36.085938 17.96875 36.296875 18.121094 36.175781 C 23.101562 31.769531 29.6875 29.988281 36.179688 29.445312 C 42.761719 28.871094 49.679688 29.144531 56.171875 30.53125 C 62.84375 31.949219 69.035156 34.910156 73.503906 40.160156 C 78.367188 45.835938 80.902344 53.050781 82.714844 60.203125 C 84.890625 68.65625 86.492188 77.230469 87.910156 85.832031 C 85.644531 88.1875 83.140625 90.300781 80.332031 92.019531 C 80.179688 92.113281 80.332031 92.382812 80.480469 92.292969 C 87.398438 88.007812 92.5625 81.578125 96.546875 74.632812 Z M 99.082031 87.824219 C 95.492188 95.070312 89.238281 100.804688 81.78125 103.882812 C 81.597656 103.945312 81.507812 103.671875 81.6875 103.582031 C 89.089844 100.5625 95.25 94.828125 98.8125 87.675781 C 98.902344 87.523438 99.175781 87.675781 99.082031 87.824219 Z M 72.265625 102.617188 C 67.554688 103.25 62.84375 103.765625 58.132812 104.125 C 44.179688 105.210938 30.109375 105.09375 16.15625 103.765625 L 13.347656 113.726562 L 11.808594 113.726562 L 11.292969 112.941406 L 14.40625 103.582031 C 11.898438 103.339844 9.363281 103.039062 6.855469 102.707031 C 6.675781 102.675781 6.675781 102.375 6.855469 102.40625 C 11.625 103.039062 16.429688 103.523438 21.261719 103.882812 C 38.230469 105.121094 55.324219 104.609375 72.207031 102.316406 C 72.386719 102.316406 72.476562 102.585938 72.265625 102.617188 Z M 72.265625 102.617188 "/></g></svg>