<svg xmlns="http://www.w3.org/2000/svg" xmlns:xlink="http://www.w3.org/1999/xlink" width="200" zoomAndPan="magnify" viewBox="0 0 150 149.999998" height="200" preserveAspectRatio="xMidYMid meet" version="1.2"><defs><clipPath id="6044cc316b"><path d="M 51 6 L 146.523438 6 L 146.523438 150 L 51 150 Z M 51 6 "/></clipPath><clipPath id="9df71efa50"><path d="M 3.273438 0 L 135 0 L 135 146 L 3.273438 146 Z M 3.273438 0 "/></clipPath><clipPath id="ee03730dfc"><path d="M 3.273438 32 L 62 32 L 62 146 L 3.273438 146 Z M 3.273438 32 "/></clipPath></defs><g id="d95c6d13c1"><g clip-rule="nonzero" clip-path="url(#6044cc316b)"><path style=" stroke:none;fill-rule:nonzero;fill:#ef3642;fill-opacity:1;" d="M 79.300781 9.929688 C 85.910156 8.824219 92.519531 7.722656 99.125 6.621094 C 114.914062 42.652344 130.699219 78.675781 146.484375 114.707031 C 118.949219 126.472656 91.417969 138.234375 63.882812 150 C 59.84375 148.527344 55.804688 147.058594 51.765625 145.589844 C 60.941406 100.363281 70.121094 55.144531 79.300781 9.929688 Z M 79.300781 9.929688 "/></g><g clip-rule="nonzero" clip-path="url(#9df71efa50)"><path style=" stroke:none;fill-rule:nonzero;fill:#e93c5c;fill-opacity:1;" d="M 3.304688 36.394531 L 85.910156 0 L 134.371094 109.191406 L 51.765625 145.585938 Z M 3.304688 36.394531 "/></g><g clip-rule="nonzero" clip-path="url(#ee03730dfc)"><path style=" stroke:none;fill-rule:nonzero;fill:#a31e30;fill-opacity:1;" d="M 3.304688 36.394531 L 12.195312 32.480469 L 61.238281 141.292969 L 51.765625 145.585938 Z M 3.304688 36.394531 "/></g><path style=" stroke:none;fill-rule:nonzero;fill:#95191e;fill-opacity:0.4;" d="M 11.59375 55.066406 L 51.765625 145.585938 L 119.429688 115.769531 C 65.878906 103.347656 31.210938 75.863281 11.59375 55.066406 Z M 11.59375 55.066406 "/><path style=" stroke:none;fill-rule:nonzero;fill:#e9eaea;fill-opacity:1;" d="M 55.199219 144.074219 L 63.882812 147.394531 L 143.183594 113.601562 L 97.007812 6.972656 L 87.125 2.75 C 102.875 38.230469 118.621094 73.707031 134.363281 109.191406 C 107.980469 120.816406 81.589844 132.445312 55.199219 144.074219 Z M 55.199219 144.074219 "/></g></svg>