<svg xmlns="http://www.w3.org/2000/svg" xmlns:xlink="http://www.w3.org/1999/xlink" width="200" zoomAndPan="magnify" viewBox="0 0 150 149.999998" height="200" preserveAspectRatio="xMidYMid meet" version="1.2"><defs><clipPath id="c184f75498"><path d="M 0 46.773438 L 150 46.773438 L 150 95 L 0 95 Z M 0 46.773438 "/></clipPath><clipPath id="353fdbf4e1"><path d="M 17.203125 50.355469 L 141.480469 50.355469 L 141.480469 103.023438 L 17.203125 103.023438 Z M 17.203125 50.355469 "/></clipPath></defs><g id="ff4e0c3665"><g clip-rule="nonzero" clip-path="url(#c184f75498)"><path style=" stroke:none;fill-rule:nonzero;fill:#f36342;fill-opacity:1;" d="M 145.300781 65.679688 C 146.15625 66.292969 146.664062 67.28125 146.664062 68.332031 L 146.664062 77.292969 L 149.253906 79.875 C 149.644531 80.265625 149.867188 80.792969 149.867188 81.34375 L 149.867188 86.890625 C 149.867188 87.375 149.679688 87.847656 149.332031 88.1875 C 146.378906 91.074219 140.839844 92.332031 139.285156 92.636719 C 139.027344 92.6875 138.765625 92.714844 138.5 92.714844 L 41.863281 92.714844 L 36.847656 94.628906 L 4.722656 94.628906 C 2.1875 94.628906 0.132812 92.582031 0.132812 90.054688 L 0.132812 79.632812 C 2.480469 64.640625 36.847656 64.320312 36.847656 64.320312 C 36.847656 64.320312 47.09375 56.769531 57.765625 52.089844 C 68.4375 47.410156 71.636719 46.773438 94.371094 46.773438 C 117.101562 46.773438 119.984375 48.15625 125.640625 51.453125 C 131.296875 54.75 145.300781 65.679688 145.300781 65.679688 "/></g><path style=" stroke:none;fill-rule:nonzero;fill:#fac810;fill-opacity:1;" d="M 2.378906 77.015625 C 2.660156 76.1875 3.265625 75.503906 4.0625 75.136719 C 7.816406 73.414062 13.179688 72.691406 15.8125 72.429688 C 16.410156 72.367188 16.789062 73.058594 16.414062 73.527344 L 13.359375 77.363281 C 12.375 78.59375 10.882812 79.3125 9.304688 79.3125 L 4.027344 79.3125 C 2.832031 79.3125 1.992188 78.140625 2.378906 77.015625 "/><path style=" stroke:none;fill-rule:nonzero;fill:#e64830;fill-opacity:1;" d="M 86.0625 90.253906 C 86.039062 89.957031 85.097656 76.167969 85.097656 72.363281 C 85.097656 68.566406 88.082031 50.675781 88.273438 49.527344 C 86.476562 49.546875 84.75 49.578125 83.199219 49.625 C 73.859375 49.917969 65.5625 52.042969 58.542969 55.945312 C 54.675781 58.097656 51.480469 60.472656 49.480469 62.085938 C 47.539062 63.660156 46.378906 65.988281 46.300781 68.480469 L 45.714844 87.589844 C 45.6875 88.5 46.027344 89.355469 46.667969 90.003906 C 47.308594 90.648438 48.148438 90.992188 49.074219 90.976562 Z M 119.886719 67.0625 C 116.671875 73.695312 109.144531 84.136719 106.058594 88.316406 C 105.144531 89.554688 103.679688 90.3125 102.132812 90.34375 L 49.082031 91.378906 C 49.058594 91.378906 49.03125 91.378906 49.007812 91.378906 C 48.011719 91.378906 47.082031 90.992188 46.378906 90.285156 C 45.660156 89.558594 45.277344 88.597656 45.3125 87.582031 L 45.898438 68.464844 C 45.976562 65.859375 47.191406 63.417969 49.226562 61.773438 C 51.238281 60.148438 54.453125 57.757812 58.347656 55.59375 C 65.421875 51.660156 73.78125 49.515625 83.1875 49.222656 C 90.273438 49.003906 100.992188 49.128906 105.273438 49.191406 C 106.535156 49.210938 107.734375 49.617188 108.75 50.363281 L 109.335938 50.890625 C 109.109375 50.859375 108.875 50.832031 108.640625 50.808594 L 108.492188 50.675781 C 107.5625 49.992188 106.441406 49.613281 105.269531 49.597656 C 101.960938 49.546875 88.679688 49.558594 88.679688 49.558594 C 88.648438 49.746094 85.5 68.558594 85.5 72.363281 C 85.5 76.175781 86.457031 90.09375 86.464844 90.234375 L 102.125 89.9375 C 103.566406 89.910156 104.882812 89.234375 105.734375 88.078125 C 108.8125 83.90625 116.324219 73.488281 119.523438 66.886719 C 119.9375 66.027344 119.894531 65.027344 119.398438 64.210938 L 118.289062 62.621094 L 118.769531 62.605469 L 119.738281 63.992188 C 120.3125 64.9375 120.363281 66.082031 119.886719 67.0625 Z M 146.648438 76.800781 C 146.652344 76.800781 146.660156 76.800781 146.664062 76.800781 L 146.664062 68.332031 C 146.664062 68.195312 146.65625 68.058594 146.636719 67.925781 L 140.164062 67.925781 C 139.75 67.925781 139.378906 68.144531 139.179688 68.507812 C 138.984375 68.875 139 69.300781 139.226562 69.648438 L 142.136719 74.105469 C 143.148438 75.65625 144.792969 76.640625 146.648438 76.800781 Z M 42.214844 64.261719 C 42.722656 65.726562 43.125 67.757812 42.367188 68.101562 C 41.164062 68.648438 37.972656 70.097656 23.007812 70.5 C 11.957031 70.792969 5.269531 73.210938 2.609375 74.40625 C 2.414062 74.636719 2.222656 74.875 2.042969 75.117188 C 3.945312 74.167969 10.769531 71.230469 23.015625 70.902344 C 38.066406 70.5 41.3125 69.023438 42.535156 68.46875 C 43.722656 67.929688 43.019531 65.375 42.625 64.207031 C 42.488281 64.226562 42.351562 64.246094 42.214844 64.261719 Z M 124.726562 75.867188 C 116.703125 75.867188 110.195312 82.351562 110.195312 90.347656 L 110.195312 92.714844 L 138.5 92.714844 C 138.753906 92.714844 139.007812 92.6875 139.257812 92.640625 L 139.257812 90.347656 C 139.257812 82.351562 132.75 75.867188 124.726562 75.867188 Z M 44.453125 92.714844 L 41.863281 92.714844 L 36.847656 94.628906 L 15.390625 94.628906 L 15.390625 90.347656 C 15.390625 82.351562 21.898438 75.867188 29.921875 75.867188 C 37.949219 75.867188 44.453125 82.351562 44.453125 90.347656 L 44.453125 92.714844 "/><g clip-rule="nonzero" clip-path="url(#353fdbf4e1)"><path style=" stroke:none;fill-rule:nonzero;fill:#3e3b39;fill-opacity:1;" d="M 50.351562 64.660156 L 82.6875 63.601562 C 83.5 63.574219 84.183594 62.988281 84.332031 62.191406 L 86.242188 51.863281 C 86.386719 51.097656 85.804688 50.382812 85.023438 50.371094 C 79.890625 50.296875 62.554688 51.015625 49.777344 63.335938 C 49.269531 63.828125 49.644531 64.683594 50.351562 64.660156 Z M 125.640625 51.453125 C 125.40625 51.316406 125.179688 51.183594 124.953125 51.054688 L 122.195312 51.054688 C 121.820312 51.054688 121.65625 51.519531 121.941406 51.753906 L 133.640625 61.308594 C 134.792969 62.253906 136.257812 62.742188 137.753906 62.679688 L 141.210938 62.53125 C 136.625 59.039062 129.34375 53.609375 125.640625 51.453125 Z M 90.460938 63.371094 L 122.445312 62.507812 C 123.210938 62.484375 123.660156 61.632812 123.234375 60.996094 C 121.148438 57.875 115.566406 50.863281 107.519531 50.742188 C 100.109375 50.628906 94.066406 50.675781 91.230469 50.714844 C 90.261719 50.726562 89.488281 51.511719 89.488281 52.476562 L 89.488281 62.429688 C 89.488281 62.960938 89.925781 63.386719 90.460938 63.371094 Z M 45.855469 62.84375 C 49.320312 60.324219 56.660156 55.121094 62.824219 51.695312 C 63.136719 51.523438 63.011719 51.054688 62.652344 51.054688 L 60.167969 51.054688 C 59.40625 51.375 58.609375 51.71875 57.765625 52.089844 C 47.09375 56.769531 36.847656 64.320312 36.847656 64.320312 L 41.316406 64.320312 C 42.949219 64.320312 44.539062 63.804688 45.855469 62.84375 Z M 124.726562 78.054688 C 117.808594 78.054688 112.199219 83.644531 112.199219 90.539062 C 112.199219 97.433594 117.808594 103.023438 124.726562 103.023438 C 131.644531 103.023438 137.253906 97.433594 137.253906 90.539062 C 137.253906 83.644531 131.644531 78.054688 124.726562 78.054688 Z M 42.449219 90.539062 C 42.449219 97.433594 36.839844 103.023438 29.921875 103.023438 C 23.003906 103.023438 17.394531 97.433594 17.394531 90.539062 C 17.394531 83.644531 23.003906 78.054688 29.921875 78.054688 C 36.839844 78.054688 42.449219 83.644531 42.449219 90.539062 "/></g><path style=" stroke:none;fill-rule:nonzero;fill:#e4e4e3;fill-opacity:1;" d="M 91.875 62.414062 L 102.296875 51.769531 C 103.683594 51.777344 105.152344 51.792969 106.6875 51.816406 C 107.105469 51.824219 107.507812 51.851562 107.910156 51.898438 L 97.804688 62.214844 Z M 85.058594 52.03125 L 74.359375 62.957031 L 71.027344 63.152344 L 82.707031 51.226562 C 83.183594 51.21875 83.609375 51.21875 83.964844 51.226562 C 84.488281 51.234375 84.90625 51.578125 85.058594 52.03125 Z M 78.664062 51.453125 L 67.1875 63.175781 L 60.84375 63.371094 L 71.332031 52.660156 C 74.042969 52.015625 76.542969 51.65625 78.664062 51.453125 Z M 128.308594 98.699219 C 127.960938 97.042969 126.488281 95.800781 124.726562 95.800781 C 122.960938 95.800781 121.492188 97.042969 121.144531 98.699219 C 119.089844 97.800781 117.4375 96.15625 116.539062 94.109375 C 118.199219 93.761719 119.445312 92.296875 119.445312 90.539062 C 119.445312 88.78125 118.199219 87.316406 116.539062 86.96875 C 117.433594 84.933594 119.074219 83.296875 121.113281 82.394531 C 121.382812 84.144531 122.894531 85.488281 124.726562 85.488281 C 126.558594 85.488281 128.070312 84.144531 128.339844 82.394531 C 130.382812 83.296875 132.019531 84.933594 132.914062 86.96875 C 131.253906 87.316406 130.007812 88.78125 130.007812 90.539062 C 130.007812 92.296875 131.253906 93.761719 132.914062 94.109375 C 132.015625 96.15625 130.363281 97.800781 128.308594 98.699219 Z M 124.726562 80.300781 C 119.050781 80.300781 114.449219 84.882812 114.449219 90.539062 C 114.449219 96.195312 119.050781 100.777344 124.726562 100.777344 C 130.402344 100.777344 135.003906 96.195312 135.003906 90.539062 C 135.003906 84.882812 130.402344 80.300781 124.726562 80.300781 Z M 126.828125 90.546875 C 126.828125 91.703125 125.886719 92.640625 124.726562 92.640625 C 123.566406 92.640625 122.625 91.703125 122.625 90.546875 C 122.625 89.390625 123.566406 88.449219 124.726562 88.449219 C 125.886719 88.449219 126.828125 89.390625 126.828125 90.546875 Z M 33.503906 98.699219 C 33.15625 97.042969 31.6875 95.800781 29.921875 95.800781 C 28.160156 95.800781 26.6875 97.042969 26.339844 98.699219 C 24.285156 97.800781 22.636719 96.15625 21.734375 94.109375 C 23.394531 93.761719 24.640625 92.296875 24.640625 90.539062 C 24.640625 88.78125 23.394531 87.316406 21.734375 86.96875 C 22.632812 84.933594 24.269531 83.296875 26.308594 82.394531 C 26.578125 84.144531 28.089844 85.488281 29.921875 85.488281 C 31.753906 85.488281 33.269531 84.144531 33.535156 82.394531 C 35.578125 83.296875 37.214844 84.933594 38.113281 86.96875 C 36.453125 87.316406 35.203125 88.78125 35.203125 90.539062 C 35.203125 92.296875 36.453125 93.761719 38.113281 94.109375 C 37.210938 96.15625 35.5625 97.800781 33.503906 98.699219 Z M 29.921875 80.300781 C 24.246094 80.300781 19.648438 84.882812 19.648438 90.539062 C 19.648438 96.195312 24.246094 100.777344 29.921875 100.777344 C 35.597656 100.777344 40.199219 96.195312 40.199219 90.539062 C 40.199219 84.882812 35.597656 80.300781 29.921875 80.300781 Z M 29.921875 88.449219 C 28.761719 88.449219 27.820312 89.390625 27.820312 90.546875 C 27.820312 91.703125 28.761719 92.640625 29.921875 92.640625 C 31.085938 92.640625 32.027344 91.703125 32.027344 90.546875 C 32.027344 89.390625 31.085938 88.449219 29.921875 88.449219 Z M 149.867188 84.492188 L 147.511719 84.492188 C 146.777344 84.492188 146.183594 83.898438 146.183594 83.171875 C 146.183594 82.441406 146.777344 81.847656 147.511719 81.847656 L 149.867188 81.847656 L 149.867188 84.492188 "/></g></svg>