<svg xmlns="http://www.w3.org/2000/svg" xmlns:xlink="http://www.w3.org/1999/xlink" width="200" zoomAndPan="magnify" viewBox="0 0 150 149.999998" height="200" preserveAspectRatio="xMidYMid meet" version="1.2"><g id="8541376826"><path style=" stroke:none;fill-rule:nonzero;fill:#f95c32;fill-opacity:1;" d="M 150 75 C 150 116.421875 116.421875 150 75 150 C 33.578125 150 0 116.421875 0 75 C 0 33.578125 33.578125 0 75 0 C 116.421875 0 150 33.578125 150 75 Z M 150 75 "/><path style=" stroke:none;fill-rule:nonzero;fill:#f95c32;fill-opacity:1;" d="M 75 0 C 33.578125 0 0 33.578125 0 75 C 0 116.421875 33.578125 150 75 150 C 116.421875 150 150 116.421875 150 75 C 150 33.578125 116.421875 0 75 0 Z M 75 141.210938 C 38.433594 141.210938 8.789062 111.566406 8.789062 75 C 8.789062 38.433594 38.433594 8.789062 75 8.789062 C 111.566406 8.789062 141.210938 38.433594 141.210938 75 C 141.210938 111.566406 111.566406 141.210938 75 141.210938 Z M 75 141.210938 "/><path style=" stroke:none;fill-rule:nonzero;fill:#fffade;fill-opacity:1;" d="M 75 8.789062 C 38.433594 8.789062 8.789062 38.433594 8.789062 75 C 8.789062 111.566406 38.433594 141.210938 75 141.210938 C 111.566406 141.210938 141.210938 111.566406 141.210938 75 C 141.210938 38.433594 111.566406 8.789062 75 8.789062 Z M 74.628906 12.261719 L 74.648438 11.910156 L 75 11.78125 L 75.28125 11.976562 L 75.507812 12.261719 L 75.515625 12.695312 L 75.390625 13.132812 L 75.460938 13.566406 L 75.390625 14.003906 L 75.519531 14.441406 L 75.484375 14.875 L 75.539062 15.3125 L 75.398438 15.75 L 75.410156 16.183594 L 75.511719 16.621094 L 75.542969 17.058594 L 75.507812 17.496094 L 75.433594 17.929688 L 75.402344 18.367188 L 75.378906 18.804688 L 75.484375 19.242188 L 75.46875 19.675781 L 75.46875 20.113281 L 75.390625 20.550781 L 75.429688 20.988281 L 75.472656 21.429688 L 75.402344 21.867188 L 75.269531 22.136719 L 75 22.277344 L 74.636719 22.230469 L 74.523438 21.867188 L 74.539062 21.429688 L 74.578125 20.996094 L 74.53125 20.558594 L 74.492188 20.125 L 74.492188 19.6875 L 74.527344 19.25 L 74.558594 18.816406 L 74.566406 18.378906 L 74.59375 17.941406 L 74.476562 17.503906 L 74.640625 17.070312 L 74.507812 16.632812 L 74.585938 16.195312 L 74.570312 15.761719 L 74.59375 15.324219 L 74.492188 14.886719 L 74.488281 14.449219 L 74.597656 14.011719 L 74.515625 13.578125 L 74.46875 13.136719 L 74.632812 12.699219 Z M 20.230469 43.378906 L 20.554688 43.210938 L 20.855469 43.304688 L 21.273438 43.453125 L 21.617188 43.726562 L 22.011719 43.917969 L 22.367188 44.171875 L 22.746094 44.386719 L 23.160156 44.542969 L 23.550781 44.734375 L 23.882812 45.039062 L 24.664062 45.429688 L 25.035156 45.65625 L 25.453125 45.804688 L 25.765625 46.136719 L 26.140625 46.359375 L 26.574219 46.480469 L 26.902344 46.78125 L 27.351562 46.882812 L 27.710938 47.132812 L 28.085938 47.355469 L 28.445312 47.613281 L 28.808594 47.859375 L 29.167969 48.113281 L 29.417969 48.316406 L 29.410156 48.679688 L 28.984375 48.933594 L 28.777344 48.789062 L 28.378906 48.613281 L 27.964844 48.453125 L 27.59375 48.226562 L 27.277344 47.902344 L 26.839844 47.785156 L 26.464844 47.566406 L 26.152344 47.234375 L 25.746094 47.066406 L 25.359375 46.863281 L 24.945312 46.707031 L 24.589844 46.453125 L 24.253906 46.164062 L 23.824219 46.035156 L 23.515625 45.699219 L 23.136719 45.484375 L 22.75 45.277344 L 22.304688 45.175781 L 21.929688 44.945312 L 21.554688 44.722656 L 21.183594 44.488281 L 20.808594 44.261719 L 20.464844 43.976562 L 20.167969 43.765625 Z M 19.6875 75.503906 L 19.25 75.53125 L 18.816406 75.511719 L 18.378906 75.453125 L 17.941406 75.433594 L 17.503906 75.488281 L 17.070312 75.363281 L 16.632812 75.417969 L 16.195312 75.375 L 15.761719 75.480469 L 15.324219 75.5 L 14.886719 75.394531 L 14.449219 75.515625 L 14.011719 75.429688 L 13.574219 75.390625 L 13.136719 75.472656 L 12.699219 75.519531 L 12.261719 75.492188 L 11.957031 75.304688 L 11.898438 75 L 11.882812 74.621094 L 12.261719 74.550781 L 12.695312 74.628906 L 13.132812 74.589844 L 13.566406 74.558594 L 14.003906 74.632812 L 14.441406 74.574219 L 14.875 74.554688 L 15.3125 74.628906 L 15.75 74.460938 L 16.1875 74.621094 L 16.621094 74.5 L 17.058594 74.542969 L 17.496094 74.515625 L 17.929688 74.503906 L 18.367188 74.578125 L 18.804688 74.5625 L 19.242188 74.585938 L 19.675781 74.507812 L 20.113281 74.515625 L 20.550781 74.625 L 20.988281 74.566406 L 21.429688 74.59375 L 21.867188 74.542969 L 22.148438 74.714844 L 22.265625 75 L 22.175781 75.308594 L 21.867188 75.457031 L 21.429688 75.46875 L 20.996094 75.433594 L 20.558594 75.472656 L 20.125 75.390625 Z M 29.1875 101.917969 L 28.824219 102.160156 L 28.4375 102.359375 L 28.105469 102.660156 L 27.703125 102.828125 L 27.316406 103.039062 L 26.933594 103.242188 L 26.527344 103.414062 L 26.222656 103.757812 L 25.789062 103.882812 L 25.460938 104.183594 L 25.070312 104.375 L 24.714844 104.636719 L 24.296875 104.785156 L 23.921875 105.003906 L 23.515625 105.175781 L 22.796875 105.675781 L 22.4375 105.929688 L 22.050781 106.136719 L 21.660156 106.332031 L 21.277344 106.550781 L 20.917969 106.800781 L 20.667969 106.738281 L 20.277344 106.59375 L 20.171875 106.238281 L 20.421875 105.941406 L 20.789062 105.707031 L 21.191406 105.535156 L 21.566406 105.3125 L 21.933594 105.082031 L 22.339844 104.90625 L 22.699219 104.660156 L 23.101562 104.488281 L 23.492188 104.285156 L 23.832031 104.003906 L 24.242188 103.84375 L 24.625 103.636719 L 24.96875 103.355469 L 25.347656 103.144531 L 25.714844 102.90625 L 26.121094 102.738281 L 26.515625 102.546875 L 26.851562 102.25 L 27.25 102.070312 L 27.617188 101.832031 L 27.988281 101.601562 L 28.347656 101.339844 L 28.765625 101.1875 L 29.101562 101.125 L 29.402344 101.328125 L 29.5 101.707031 Z M 43.375 20.222656 L 43.765625 20.171875 L 43.964844 20.476562 L 44.261719 20.804688 L 44.464844 21.191406 L 44.613281 21.609375 L 44.898438 21.949219 L 45.117188 22.324219 L 45.28125 22.734375 L 45.535156 23.089844 L 45.824219 23.425781 L 45.910156 23.882812 L 46.226562 24.203125 L 46.476562 24.558594 L 46.640625 24.972656 L 46.886719 25.332031 L 47.101562 25.710938 L 47.222656 26.148438 L 47.566406 26.453125 L 47.769531 26.839844 L 47.992188 27.214844 L 48.234375 27.582031 L 48.378906 28.003906 L 48.65625 28.347656 L 48.824219 28.757812 L 48.792969 29.082031 L 48.621094 29.3125 L 48.433594 29.472656 L 48.023438 29.222656 L 47.886719 28.796875 L 47.59375 28.464844 L 47.332031 28.113281 L 47.144531 27.71875 L 46.945312 27.328125 L 46.757812 26.933594 L 46.539062 26.554688 L 46.269531 26.207031 L 46.050781 25.828125 L 45.894531 25.417969 L 45.613281 25.078125 L 45.402344 24.691406 L 45.207031 24.304688 L 44.929688 23.960938 L 44.789062 23.535156 L 44.609375 23.136719 L 44.351562 22.78125 L 44.175781 22.375 L 43.953125 22 L 43.734375 21.621094 L 43.390625 21.3125 L 43.234375 20.894531 L 43.128906 20.535156 Z M 48.847656 121.253906 L 48.578125 121.601562 L 48.371094 121.984375 L 48.214844 122.398438 L 48.023438 122.789062 L 47.75 123.136719 L 47.558594 123.53125 L 47.3125 123.890625 L 47.023438 124.230469 L 46.855469 124.632812 L 46.667969 125.03125 L 46.398438 125.378906 L 46.234375 125.789062 L 45.992188 126.152344 L 45.820312 126.554688 L 45.605469 126.933594 L 45.347656 127.292969 L 45.070312 127.636719 L 44.953125 128.074219 L 44.609375 128.378906 L 44.472656 128.804688 L 44.171875 129.140625 L 43.949219 129.515625 L 43.628906 129.847656 L 43.425781 129.683594 L 43.148438 129.460938 L 43.179688 129.074219 L 43.402344 128.699219 L 43.632812 128.328125 L 43.828125 127.9375 L 44.125 127.605469 L 44.390625 127.257812 L 44.589844 126.867188 L 44.707031 126.433594 L 44.945312 126.066406 L 45.242188 125.734375 L 45.46875 125.359375 L 45.625 124.949219 L 45.816406 124.554688 L 46.042969 124.183594 L 46.441406 123.402344 L 46.699219 123.046875 L 46.921875 122.671875 L 47.128906 122.285156 L 47.339844 121.902344 L 47.617188 121.558594 L 47.792969 121.152344 L 47.992188 120.761719 L 48.296875 120.507812 L 48.660156 120.621094 L 48.871094 120.898438 Z M 75.515625 135.988281 L 75.453125 136.421875 L 75.449219 136.859375 L 75.496094 137.300781 L 75.429688 137.738281 L 75.308594 138.046875 L 75 138.144531 L 74.695312 138.046875 L 74.476562 137.738281 L 74.585938 137.304688 L 74.609375 136.867188 L 74.570312 136.429688 L 74.457031 135.996094 L 74.496094 135.558594 L 74.59375 135.121094 L 74.542969 134.6875 L 74.535156 134.25 L 74.613281 133.8125 L 74.574219 133.378906 L 74.605469 132.941406 L 74.550781 132.503906 L 74.523438 132.066406 L 74.515625 131.632812 L 74.578125 131.195312 L 74.601562 130.757812 L 74.546875 130.320312 L 74.480469 129.882812 L 74.566406 129.449219 L 74.566406 129.011719 L 74.625 128.570312 L 74.5 128.132812 L 74.707031 127.839844 L 75 127.65625 L 75.273438 127.859375 L 75.46875 128.132812 L 75.363281 128.570312 L 75.390625 129.003906 L 75.421875 129.441406 L 75.4375 129.875 L 75.472656 130.3125 L 75.363281 130.75 L 75.390625 131.183594 L 75.457031 131.621094 L 75.527344 132.058594 L 75.394531 132.496094 L 75.535156 132.929688 L 75.464844 133.367188 L 75.402344 133.804688 L 75.542969 134.238281 L 75.464844 134.675781 L 75.453125 135.113281 L 75.367188 135.550781 Z M 99.660156 76.351562 L 78.910156 76.351562 C 78.347656 77.972656 76.8125 79.136719 75 79.136719 C 72.714844 79.136719 70.863281 77.285156 70.863281 75 C 70.863281 73.1875 72.027344 71.652344 73.648438 71.089844 L 73.648438 30.585938 C 73.648438 29.839844 74.253906 29.234375 75 29.234375 C 75.746094 29.234375 76.351562 29.839844 76.351562 30.585938 L 76.351562 71.089844 C 77.546875 71.503906 78.496094 72.453125 78.90625 73.648438 L 99.660156 73.648438 C 100.40625 73.648438 101.007812 74.253906 101.007812 75 C 101.007812 75.746094 100.40625 76.351562 99.660156 76.351562 Z M 106.578125 129.695312 L 106.371094 129.707031 L 105.992188 129.550781 L 105.734375 129.199219 L 105.570312 128.789062 L 105.316406 128.433594 L 105.097656 128.054688 L 104.957031 127.632812 L 104.695312 127.28125 L 104.46875 126.90625 L 104.296875 126.503906 L 103.988281 126.175781 L 103.859375 125.746094 L 103.632812 125.375 L 103.386719 125.015625 L 103.128906 124.660156 L 102.863281 124.308594 L 102.714844 123.890625 L 102.433594 123.550781 L 102.230469 123.160156 L 102.054688 122.757812 L 101.882812 122.351562 L 101.617188 122 L 101.332031 121.660156 L 101.144531 121.257812 L 101.160156 120.90625 L 101.363281 120.664062 L 101.667969 120.636719 L 101.96875 120.785156 L 102.125 121.195312 L 102.382812 121.550781 L 102.570312 121.945312 L 102.796875 122.320312 L 103.011719 122.699219 L 103.332031 123.015625 L 103.453125 123.449219 L 103.667969 123.832031 L 103.917969 124.191406 L 104.109375 124.582031 L 104.335938 124.953125 L 104.503906 125.363281 L 104.796875 125.695312 L 105.046875 126.054688 L 105.265625 126.433594 L 105.410156 126.855469 L 105.710938 127.1875 L 105.878906 127.59375 L 106.144531 127.945312 L 106.351562 128.332031 L 106.546875 128.722656 L 106.816406 129.078125 L 106.828125 129.457031 Z M 106.789062 20.910156 L 106.503906 21.246094 L 106.273438 21.617188 L 106.066406 22 L 105.871094 22.390625 L 105.738281 22.816406 L 105.425781 23.140625 L 105.21875 23.527344 L 105.070312 23.941406 L 104.832031 24.3125 L 104.574219 24.664062 L 104.390625 25.0625 L 104.085938 25.390625 L 103.921875 25.796875 L 103.679688 26.160156 L 103.503906 26.566406 L 103.339844 26.972656 L 103.101562 27.339844 L 102.78125 27.660156 L 102.558594 28.035156 L 102.363281 28.429688 L 102.125 28.796875 L 101.898438 29.175781 L 101.566406 29.453125 L 101.367188 29.328125 L 101.113281 29.105469 L 101.207031 28.777344 L 101.449219 28.414062 L 101.558594 27.972656 L 101.796875 27.609375 L 102.085938 27.269531 L 102.28125 26.878906 L 102.472656 26.484375 L 102.6875 26.105469 L 102.929688 25.742188 L 103.113281 25.34375 L 103.355469 24.980469 L 103.585938 24.613281 L 103.785156 24.222656 L 104.042969 23.867188 L 104.242188 23.480469 L 104.414062 23.074219 L 104.601562 22.679688 L 104.957031 22.378906 L 105.113281 21.964844 L 105.3125 21.574219 L 105.558594 21.210938 L 105.699219 20.785156 L 105.996094 20.453125 L 106.242188 20.195312 L 106.5625 20.328125 L 106.871094 20.53125 Z M 120.558594 48.308594 L 120.800781 48.0625 L 121.152344 47.800781 L 121.542969 47.605469 L 121.902344 47.359375 L 122.285156 47.144531 L 122.683594 46.96875 L 123.019531 46.675781 L 123.453125 46.550781 L 123.78125 46.25 L 124.152344 46.015625 L 124.570312 45.871094 L 124.914062 45.597656 L 125.332031 45.449219 L 125.691406 45.195312 L 126.078125 44.996094 L 126.429688 44.734375 L 126.871094 44.621094 L 127.238281 44.382812 L 127.601562 44.136719 L 127.929688 43.832031 L 128.332031 43.652344 L 128.695312 43.402344 L 129.140625 43.300781 L 129.449219 43.199219 L 129.753906 43.386719 L 129.816406 43.761719 L 129.554688 44.015625 L 129.144531 44.175781 L 128.765625 44.390625 L 128.457031 44.726562 L 128.027344 44.855469 L 127.691406 45.148438 L 127.300781 45.34375 L 126.886719 45.496094 L 126.503906 45.703125 L 126.121094 45.917969 L 125.753906 46.152344 L 125.375 46.367188 L 125.046875 46.671875 L 124.652344 46.859375 L 124.261719 47.054688 L 123.917969 47.335938 L 123.511719 47.507812 L 123.109375 47.683594 L 122.722656 47.886719 L 122.359375 48.132812 L 122.035156 48.445312 L 121.652344 48.65625 L 121.242188 48.828125 L 121.015625 48.800781 L 120.589844 48.679688 Z M 129.332031 106.816406 L 129.125 106.730469 L 128.703125 106.589844 L 128.347656 106.332031 L 128.003906 106.054688 L 127.589844 105.898438 L 127.199219 105.703125 L 126.828125 105.476562 L 126.476562 105.214844 L 126.113281 104.96875 L 125.699219 104.8125 L 125.335938 104.570312 L 124.929688 104.402344 L 124.546875 104.195312 L 124.230469 103.871094 L 123.820312 103.707031 L 123.417969 103.527344 L 123.042969 103.308594 L 122.648438 103.121094 L 122.324219 102.800781 L 121.890625 102.675781 L 121.578125 102.347656 L 121.152344 102.203125 L 120.792969 101.949219 L 120.597656 101.679688 L 120.609375 101.332031 L 120.917969 101.203125 L 121.222656 101.207031 L 121.621094 101.386719 L 121.992188 101.613281 L 122.375 101.820312 L 122.714844 102.109375 L 123.128906 102.261719 L 123.492188 102.507812 L 123.878906 102.710938 L 124.226562 102.980469 L 124.617188 103.175781 L 124.976562 103.421875 L 125.402344 103.558594 L 125.785156 103.769531 L 126.179688 103.960938 L 126.558594 104.175781 L 126.898438 104.457031 L 127.28125 104.667969 L 127.660156 104.882812 L 128.074219 105.046875 L 128.421875 105.3125 L 128.828125 105.492188 L 129.210938 105.703125 L 129.554688 105.988281 L 129.742188 106.257812 L 129.789062 106.632812 Z M 137.738281 75.441406 L 137.304688 75.472656 L 136.867188 75.367188 L 136.433594 75.425781 L 135.996094 75.386719 L 135.558594 75.476562 L 135.125 75.472656 L 134.6875 75.535156 L 134.25 75.441406 L 133.816406 75.382812 L 133.378906 75.386719 L 132.941406 75.414062 L 132.503906 75.480469 L 132.070312 75.535156 L 131.632812 75.46875 L 131.195312 75.40625 L 130.761719 75.363281 L 130.324219 75.429688 L 129.886719 75.40625 L 129.449219 75.375 L 129.011719 75.417969 L 128.574219 75.464844 L 128.132812 75.394531 L 127.78125 75.355469 L 127.632812 75 L 127.785156 74.652344 L 128.132812 74.523438 L 128.570312 74.535156 L 129.003906 74.496094 L 129.441406 74.5625 L 129.875 74.585938 L 130.3125 74.539062 L 130.75 74.542969 L 131.183594 74.550781 L 131.621094 74.59375 L 132.058594 74.480469 L 132.496094 74.546875 L 132.929688 74.507812 L 133.367188 74.558594 L 133.804688 74.464844 L 134.238281 74.476562 L 134.675781 74.515625 L 135.113281 74.507812 L 135.550781 74.566406 L 135.988281 74.578125 L 136.421875 74.488281 L 136.859375 74.480469 L 137.300781 74.574219 L 137.738281 74.605469 L 138.101562 74.636719 L 138.109375 75 L 138.066406 75.328125 Z M 137.738281 75.441406 "/><path style=" stroke:none;fill-rule:nonzero;fill:#1b1b2b;fill-opacity:1;" d="M 48.660156 120.621094 L 48.871094 120.898438 L 48.847656 121.253906 L 48.578125 121.601562 L 48.367188 121.984375 L 48.214844 122.398438 L 48.023438 122.789062 L 47.75 123.136719 L 47.558594 123.53125 L 47.3125 123.890625 L 47.023438 124.230469 L 46.851562 124.632812 L 46.667969 125.03125 L 46.398438 125.378906 L 46.234375 125.789062 L 45.992188 126.152344 L 45.820312 126.554688 L 45.601562 126.933594 L 45.347656 127.292969 L 45.070312 127.632812 L 44.953125 128.074219 L 44.609375 128.378906 L 44.472656 128.804688 L 44.171875 129.136719 L 43.949219 129.515625 L 43.628906 129.847656 L 43.425781 129.683594 L 43.148438 129.460938 L 43.179688 129.070312 L 43.402344 128.699219 L 43.632812 128.328125 L 43.828125 127.9375 L 44.125 127.605469 L 44.390625 127.257812 L 44.589844 126.867188 L 44.707031 126.433594 L 44.945312 126.066406 L 45.242188 125.734375 L 45.46875 125.359375 L 45.625 124.949219 L 45.816406 124.554688 L 46.042969 124.183594 L 46.441406 123.402344 L 46.699219 123.046875 L 46.917969 122.671875 L 47.128906 122.285156 L 47.339844 121.902344 L 47.613281 121.558594 L 47.792969 121.152344 L 47.992188 120.761719 L 48.296875 120.507812 Z M 106.242188 20.195312 L 106 20.453125 L 105.703125 20.789062 L 105.558594 21.210938 L 105.3125 21.574219 L 105.113281 21.964844 L 104.957031 22.378906 L 104.601562 22.679688 L 104.414062 23.074219 L 104.246094 23.480469 L 104.042969 23.871094 L 103.785156 24.222656 L 103.585938 24.613281 L 103.355469 24.984375 L 103.113281 25.34375 L 102.929688 25.746094 L 102.6875 26.109375 L 102.472656 26.488281 L 102.28125 26.878906 L 102.085938 27.269531 L 101.796875 27.609375 L 101.558594 27.972656 L 101.449219 28.414062 L 101.207031 28.777344 L 101.113281 29.105469 L 101.367188 29.328125 L 101.566406 29.453125 L 101.898438 29.175781 L 102.125 28.800781 L 102.363281 28.433594 L 102.558594 28.039062 L 102.78125 27.664062 L 103.101562 27.339844 L 103.339844 26.976562 L 103.503906 26.566406 L 103.679688 26.164062 L 103.921875 25.800781 L 104.085938 25.390625 L 104.394531 25.0625 L 104.574219 24.664062 L 104.832031 24.3125 L 105.070312 23.945312 L 105.21875 23.527344 L 105.425781 23.144531 L 105.738281 22.820312 L 105.871094 22.394531 L 106.066406 22 L 106.273438 21.617188 L 106.503906 21.246094 L 106.789062 20.910156 L 106.871094 20.535156 L 106.5625 20.332031 Z M 29.105469 101.121094 L 28.765625 101.1875 L 28.347656 101.339844 L 27.992188 101.597656 L 27.617188 101.832031 L 27.253906 102.070312 L 26.851562 102.25 L 26.519531 102.546875 L 26.121094 102.734375 L 25.714844 102.90625 L 25.347656 103.140625 L 24.96875 103.355469 L 24.625 103.632812 L 24.242188 103.84375 L 23.832031 104 L 23.492188 104.285156 L 23.105469 104.484375 L 22.699219 104.660156 L 22.339844 104.90625 L 21.9375 105.078125 L 21.566406 105.3125 L 21.191406 105.535156 L 20.789062 105.707031 L 20.421875 105.941406 L 20.175781 106.234375 L 20.277344 106.59375 L 20.667969 106.738281 L 20.917969 106.800781 L 21.28125 106.550781 L 21.660156 106.332031 L 22.054688 106.136719 L 22.4375 105.925781 L 22.796875 105.675781 L 23.15625 105.421875 L 23.515625 105.175781 L 23.921875 105.003906 L 24.296875 104.785156 L 24.714844 104.636719 L 25.070312 104.375 L 25.460938 104.183594 L 25.789062 103.878906 L 26.222656 103.753906 L 26.527344 103.410156 L 26.933594 103.242188 L 27.320312 103.035156 L 27.703125 102.828125 L 28.109375 102.65625 L 28.4375 102.359375 L 28.828125 102.160156 L 29.1875 101.917969 L 29.5 101.703125 L 29.402344 101.324219 Z M 121.242188 48.828125 L 121.652344 48.65625 L 122.035156 48.445312 L 122.363281 48.132812 L 122.722656 47.886719 L 123.109375 47.683594 L 123.515625 47.507812 L 123.917969 47.335938 L 124.261719 47.054688 L 124.652344 46.859375 L 125.046875 46.671875 L 125.375 46.367188 L 125.753906 46.152344 L 126.121094 45.917969 L 126.886719 45.496094 L 127.300781 45.34375 L 127.691406 45.148438 L 128.027344 44.855469 L 128.457031 44.726562 L 128.765625 44.390625 L 129.144531 44.179688 L 129.554688 44.015625 L 129.816406 43.761719 L 129.753906 43.386719 L 129.449219 43.199219 L 129.140625 43.300781 L 128.695312 43.40625 L 128.332031 43.652344 L 127.929688 43.832031 L 127.601562 44.136719 L 127.238281 44.382812 L 126.871094 44.621094 L 126.429688 44.734375 L 126.078125 44.996094 L 125.691406 45.195312 L 125.332031 45.449219 L 124.917969 45.601562 L 124.570312 45.871094 L 124.152344 46.019531 L 123.78125 46.25 L 123.453125 46.554688 L 123.019531 46.675781 L 122.6875 46.96875 L 122.285156 47.144531 L 121.90625 47.359375 L 121.542969 47.605469 L 121.15625 47.804688 L 120.800781 48.0625 L 120.558594 48.3125 L 120.589844 48.679688 L 121.015625 48.800781 Z M 20.996094 75.433594 L 21.429688 75.464844 L 21.867188 75.457031 L 22.175781 75.308594 L 22.265625 75 L 22.148438 74.714844 L 21.867188 74.542969 L 21.429688 74.59375 L 20.988281 74.5625 L 20.550781 74.625 L 20.113281 74.515625 L 19.675781 74.507812 L 19.242188 74.585938 L 18.804688 74.5625 L 18.367188 74.578125 L 17.929688 74.5 L 17.496094 74.515625 L 17.058594 74.539062 L 16.621094 74.5 L 16.1875 74.621094 L 15.75 74.460938 L 15.3125 74.628906 L 14.875 74.554688 L 14.441406 74.570312 L 14.003906 74.632812 L 13.566406 74.558594 L 13.132812 74.589844 L 12.695312 74.628906 L 12.261719 74.550781 L 11.882812 74.621094 L 11.898438 75 L 11.957031 75.304688 L 12.261719 75.492188 L 12.699219 75.523438 L 13.140625 75.472656 L 13.578125 75.390625 L 14.011719 75.429688 L 14.449219 75.519531 L 14.886719 75.394531 L 15.324219 75.5 L 15.761719 75.480469 L 16.195312 75.375 L 16.632812 75.417969 L 17.070312 75.363281 L 17.507812 75.488281 L 17.941406 75.433594 L 18.378906 75.453125 L 18.816406 75.511719 L 19.25 75.53125 L 19.6875 75.503906 L 20.125 75.390625 L 20.558594 75.472656 Z M 138.101562 74.636719 L 137.738281 74.605469 L 137.300781 74.574219 L 136.859375 74.480469 L 136.421875 74.488281 L 135.988281 74.578125 L 135.550781 74.566406 L 135.113281 74.507812 L 134.675781 74.515625 L 134.238281 74.476562 L 133.804688 74.464844 L 133.367188 74.558594 L 132.929688 74.507812 L 132.496094 74.546875 L 132.058594 74.480469 L 131.621094 74.59375 L 131.183594 74.550781 L 130.75 74.542969 L 130.3125 74.539062 L 129.875 74.585938 L 129.441406 74.5625 L 129.003906 74.496094 L 128.570312 74.535156 L 128.132812 74.523438 L 127.785156 74.652344 L 127.632812 75 L 127.78125 75.355469 L 128.132812 75.394531 L 128.574219 75.464844 L 129.011719 75.417969 L 129.449219 75.375 L 129.886719 75.40625 L 130.324219 75.429688 L 130.761719 75.363281 L 131.195312 75.40625 L 131.632812 75.46875 L 132.070312 75.535156 L 132.503906 75.480469 L 132.941406 75.414062 L 133.378906 75.386719 L 133.816406 75.382812 L 134.25 75.441406 L 134.6875 75.535156 L 135.125 75.472656 L 135.558594 75.476562 L 135.996094 75.386719 L 136.433594 75.425781 L 136.867188 75.367188 L 137.304688 75.472656 L 137.738281 75.441406 L 138.066406 75.328125 L 138.109375 75 Z M 20.808594 44.261719 L 21.183594 44.488281 L 21.554688 44.722656 L 21.929688 44.945312 L 22.304688 45.175781 L 22.75 45.277344 L 23.136719 45.480469 L 23.515625 45.699219 L 23.824219 46.035156 L 24.253906 46.164062 L 24.589844 46.453125 L 24.945312 46.707031 L 25.359375 46.863281 L 25.746094 47.066406 L 26.152344 47.234375 L 26.464844 47.566406 L 26.839844 47.785156 L 27.277344 47.902344 L 27.59375 48.226562 L 27.964844 48.453125 L 28.378906 48.609375 L 28.777344 48.789062 L 28.984375 48.933594 L 29.410156 48.679688 L 29.417969 48.316406 L 29.167969 48.113281 L 28.808594 47.859375 L 28.445312 47.613281 L 28.085938 47.355469 L 27.710938 47.132812 L 27.351562 46.882812 L 26.902344 46.78125 L 26.574219 46.480469 L 26.140625 46.355469 L 25.765625 46.136719 L 25.453125 45.804688 L 25.035156 45.65625 L 24.664062 45.429688 L 23.882812 45.039062 L 23.550781 44.734375 L 23.160156 44.539062 L 22.746094 44.386719 L 22.367188 44.171875 L 22.011719 43.914062 L 21.617188 43.726562 L 21.273438 43.453125 L 20.855469 43.304688 L 20.554688 43.210938 L 20.230469 43.378906 L 20.167969 43.765625 L 20.464844 43.976562 Z M 129.554688 105.988281 L 129.210938 105.703125 L 128.828125 105.492188 L 128.421875 105.3125 L 128.074219 105.046875 L 127.660156 104.882812 L 127.28125 104.667969 L 126.898438 104.457031 L 126.558594 104.175781 L 126.179688 103.960938 L 125.785156 103.769531 L 125.402344 103.558594 L 124.980469 103.421875 L 124.617188 103.175781 L 124.226562 102.980469 L 123.878906 102.710938 L 123.492188 102.507812 L 123.128906 102.261719 L 122.714844 102.109375 L 122.378906 101.820312 L 121.992188 101.613281 L 121.621094 101.386719 L 121.222656 101.207031 L 120.917969 101.203125 L 120.609375 101.332031 L 120.597656 101.679688 L 120.792969 101.949219 L 121.15625 102.203125 L 121.578125 102.347656 L 121.890625 102.675781 L 122.328125 102.800781 L 122.648438 103.121094 L 123.042969 103.308594 L 123.417969 103.527344 L 123.820312 103.707031 L 124.230469 103.871094 L 124.546875 104.195312 L 124.933594 104.402344 L 125.335938 104.570312 L 125.703125 104.8125 L 126.113281 104.96875 L 126.476562 105.214844 L 126.828125 105.476562 L 127.199219 105.703125 L 127.59375 105.898438 L 128.003906 106.054688 L 128.347656 106.332031 L 128.703125 106.589844 L 129.125 106.730469 L 129.332031 106.816406 L 129.789062 106.632812 L 129.742188 106.261719 Z M 43.390625 21.3125 L 43.734375 21.621094 L 43.953125 22 L 44.175781 22.375 L 44.351562 22.78125 L 44.609375 23.136719 L 44.789062 23.535156 L 44.929688 23.957031 L 45.207031 24.304688 L 45.402344 24.691406 L 45.613281 25.074219 L 45.894531 25.414062 L 46.050781 25.828125 L 46.269531 26.207031 L 46.539062 26.554688 L 46.757812 26.933594 L 46.945312 27.328125 L 47.144531 27.71875 L 47.332031 28.113281 L 47.59375 28.464844 L 47.886719 28.796875 L 48.023438 29.21875 L 48.433594 29.472656 L 48.621094 29.308594 L 48.792969 29.082031 L 48.824219 28.757812 L 48.65625 28.347656 L 48.378906 28 L 48.234375 27.578125 L 47.992188 27.214844 L 47.769531 26.839844 L 47.566406 26.453125 L 47.222656 26.144531 L 47.101562 25.710938 L 46.886719 25.332031 L 46.640625 24.972656 L 46.476562 24.558594 L 46.226562 24.203125 L 45.910156 23.878906 L 45.824219 23.425781 L 45.535156 23.089844 L 45.28125 22.734375 L 45.117188 22.324219 L 44.898438 21.945312 L 44.613281 21.605469 L 44.464844 21.191406 L 44.261719 20.804688 L 43.964844 20.472656 L 43.765625 20.171875 L 43.375 20.222656 L 43.128906 20.53125 L 43.234375 20.894531 Z M 106.546875 128.722656 L 106.347656 128.332031 L 106.144531 127.941406 L 105.878906 127.59375 L 105.710938 127.183594 L 105.410156 126.851562 L 105.261719 126.433594 L 105.046875 126.054688 L 104.796875 125.695312 L 104.503906 125.359375 L 104.335938 124.953125 L 104.109375 124.582031 L 103.917969 124.1875 L 103.667969 123.828125 L 103.453125 123.449219 L 103.332031 123.015625 L 103.011719 122.695312 L 102.796875 122.316406 L 102.570312 121.945312 L 102.382812 121.546875 L 102.125 121.195312 L 101.96875 120.78125 L 101.667969 120.636719 L 101.363281 120.664062 L 101.160156 120.90625 L 101.144531 121.257812 L 101.332031 121.65625 L 101.617188 122 L 101.882812 122.351562 L 102.050781 122.757812 L 102.230469 123.160156 L 102.433594 123.546875 L 102.714844 123.886719 L 102.863281 124.308594 L 103.128906 124.660156 L 103.386719 125.011719 L 103.632812 125.375 L 103.859375 125.746094 L 103.988281 126.175781 L 104.296875 126.5 L 104.46875 126.90625 L 104.695312 127.28125 L 104.957031 127.628906 L 105.097656 128.054688 L 105.316406 128.429688 L 105.570312 128.789062 L 105.730469 129.195312 L 105.988281 129.550781 L 106.371094 129.707031 L 106.578125 129.695312 L 106.828125 129.453125 L 106.816406 129.074219 Z M 74.515625 13.578125 L 74.597656 14.011719 L 74.488281 14.449219 L 74.492188 14.886719 L 74.59375 15.324219 L 74.570312 15.761719 L 74.585938 16.195312 L 74.507812 16.632812 L 74.640625 17.070312 L 74.476562 17.503906 L 74.59375 17.941406 L 74.566406 18.378906 L 74.558594 18.816406 L 74.527344 19.25 L 74.492188 19.6875 L 74.492188 20.125 L 74.53125 20.558594 L 74.578125 20.996094 L 74.539062 21.429688 L 74.523438 21.867188 L 74.636719 22.230469 L 75 22.277344 L 75.269531 22.136719 L 75.402344 21.867188 L 75.472656 21.425781 L 75.429688 20.988281 L 75.390625 20.550781 L 75.46875 20.113281 L 75.46875 19.675781 L 75.484375 19.238281 L 75.378906 18.804688 L 75.402344 18.367188 L 75.433594 17.929688 L 75.507812 17.496094 L 75.542969 17.058594 L 75.507812 16.621094 L 75.410156 16.183594 L 75.398438 15.75 L 75.539062 15.3125 L 75.484375 14.875 L 75.519531 14.441406 L 75.390625 14.003906 L 75.460938 13.566406 L 75.390625 13.132812 L 75.515625 12.695312 L 75.507812 12.261719 L 75.28125 11.976562 L 75 11.78125 L 74.648438 11.910156 L 74.628906 12.261719 L 74.632812 12.699219 L 74.46875 13.136719 Z M 75.464844 134.675781 L 75.539062 134.238281 L 75.398438 133.804688 L 75.464844 133.367188 L 75.535156 132.929688 L 75.394531 132.492188 L 75.527344 132.058594 L 75.453125 131.621094 L 75.390625 131.183594 L 75.363281 130.746094 L 75.46875 130.3125 L 75.4375 129.875 L 75.421875 129.4375 L 75.390625 129.003906 L 75.363281 128.566406 L 75.46875 128.132812 L 75.273438 127.859375 L 75 127.65625 L 74.703125 127.835938 L 74.5 128.132812 L 74.621094 128.570312 L 74.5625 129.007812 L 74.5625 129.445312 L 74.480469 129.882812 L 74.546875 130.320312 L 74.601562 130.757812 L 74.574219 131.195312 L 74.515625 131.632812 L 74.523438 132.066406 L 74.550781 132.503906 L 74.605469 132.941406 L 74.574219 133.375 L 74.613281 133.8125 L 74.535156 134.25 L 74.542969 134.6875 L 74.59375 135.121094 L 74.496094 135.558594 L 74.457031 135.996094 L 74.566406 136.429688 L 74.609375 136.867188 L 74.585938 137.300781 L 74.476562 137.738281 L 74.691406 138.042969 L 75 138.144531 L 75.308594 138.046875 L 75.425781 137.738281 L 75.496094 137.300781 L 75.449219 136.859375 L 75.453125 136.421875 L 75.515625 135.988281 L 75.367188 135.550781 L 75.453125 135.113281 Z M 99.660156 73.648438 L 78.910156 73.648438 C 78.496094 72.453125 77.546875 71.503906 76.351562 71.089844 L 76.351562 30.585938 C 76.351562 29.839844 75.746094 29.234375 75 29.234375 C 74.253906 29.234375 73.648438 29.839844 73.648438 30.585938 L 73.648438 71.089844 C 72.027344 71.652344 70.863281 73.1875 70.863281 75 C 70.863281 77.285156 72.714844 79.136719 75 79.136719 C 76.8125 79.136719 78.347656 77.972656 78.910156 76.351562 L 99.660156 76.351562 C 100.40625 76.351562 101.007812 75.746094 101.007812 75 C 101.007812 74.253906 100.40625 73.648438 99.660156 73.648438 Z M 99.660156 73.648438 "/></g></svg>