<svg xmlns="http://www.w3.org/2000/svg" xmlns:xlink="http://www.w3.org/1999/xlink" width="200" zoomAndPan="magnify" viewBox="0 0 150 149.999998" height="200" preserveAspectRatio="xMidYMid meet" version="1.2"><g id="c91a3f5c6e"><path style=" stroke:none;fill-rule:nonzero;fill:#1a3863;fill-opacity:1;" d="M 69.003906 20.566406 C 64.484375 20.734375 62.953125 28.933594 62.066406 32.277344 C 61.015625 36.234375 59.792969 40.03125 58.449219 43.90625 C 57.007812 48.058594 56.644531 52.480469 55.222656 56.582031 C 53.53125 61.460938 50.320312 67.820312 51.4375 73.128906 C 52.019531 75.886719 54.640625 76.710938 57.042969 77.527344 C 60.878906 78.832031 64.574219 80.441406 68.277344 82.09375 C 64.40625 80.9375 60.292969 79.558594 56.644531 77.820312 C 53.15625 76.160156 51.179688 74.828125 47.234375 75.675781 C 38.78125 77.492188 30.429688 79.949219 22.03125 82.019531 C 17.882812 83.042969 13.96875 84.519531 9.726562 85.175781 C 8.5 85.367188 0.355469 86.382812 2.515625 89.292969 C 3.042969 90.003906 5.414062 90.367188 6.164062 90.730469 C 7.980469 91.605469 9.71875 92.632812 11.527344 93.523438 C 15.402344 95.433594 19.1875 97.535156 23.148438 99.265625 C 21.96875 99.839844 26.261719 102.15625 26.679688 102.375 C 29.347656 103.777344 32.148438 104.914062 34.84375 106.273438 C 36.765625 107.242188 38.757812 108.066406 40.675781 109.035156 C 42.492188 109.949219 43.390625 111.25 44.902344 112.4375 C 46.191406 113.449219 48.03125 113.867188 49.515625 114.511719 C 51.855469 115.535156 54.121094 116.726562 56.421875 117.839844 C 60.527344 119.824219 64.847656 121.273438 68.972656 123.199219 C 72.90625 125.035156 76.566406 127.066406 80.625 128.652344 C 80.902344 128.757812 82.230469 129.519531 82.605469 129.464844 C 83.242188 129.375 83.15625 129.054688 83.65625 128.8125 C 85.9375 127.699219 88.417969 126.859375 90.746094 125.835938 C 95.148438 123.894531 99.648438 122.195312 104.007812 120.15625 C 108.757812 117.933594 113.230469 115.164062 117.992188 112.980469 C 120.382812 111.882812 130.265625 109.503906 125.328125 105.601562 C 129.363281 107.0625 130.679688 101.734375 131.917969 99.03125 C 134.273438 93.878906 136.101562 88.539062 137.398438 83.019531 C 138.621094 77.847656 139.632812 72.710938 141.113281 67.59375 C 142.757812 61.910156 144.824219 56.171875 145.992188 50.367188 C 146.367188 48.492188 146.773438 46.671875 147.308594 44.8125 C 147.886719 42.808594 149.152344 39.859375 148.230469 37.859375 C 146.503906 34.121094 139.1875 32.40625 135.640625 31.449219 C 124.382812 28.402344 112.75 27.511719 101.449219 24.71875 C 100.238281 24.417969 98.8125 23.949219 97.550781 24.027344 C 96.4375 24.097656 95.621094 24.664062 94.492188 24.5625 C 91.769531 24.316406 89.136719 22.988281 86.351562 22.738281 C 85.148438 22.632812 83.921875 22.828125 82.730469 22.683594 C 81.296875 22.511719 79.917969 21.902344 78.515625 21.566406 C 75.390625 20.808594 72.21875 20.472656 69.003906 20.566406 Z M 55.410156 72.574219 C 53.476562 71.089844 56.484375 64.34375 56.917969 62.628906 C 58.113281 57.898438 59.726562 53.316406 60.855469 48.570312 C 61.988281 43.804688 63.121094 39.003906 64.546875 34.3125 C 65.175781 32.242188 65.96875 30.261719 66.757812 28.25 C 67.40625 26.597656 67.652344 25.027344 69.582031 24.597656 C 73.300781 23.769531 78.542969 26.175781 82.015625 27.3125 C 86.300781 28.71875 90.605469 29.039062 95.011719 29.835938 C 104.328125 31.515625 113.339844 34.800781 122.777344 35.90625 C 127.261719 36.429688 131.828125 36.316406 136.144531 37.761719 C 137.863281 38.335938 139.464844 38.980469 141.269531 39.167969 C 143.089844 39.355469 144.460938 39.738281 144.183594 41.890625 C 143.992188 43.375 143.152344 44.753906 142.78125 46.203125 C 142.136719 48.714844 141.746094 51.304688 141.101562 53.824219 C 139.894531 58.574219 138.472656 63.261719 137.273438 68.011719 C 135.058594 76.785156 131.433594 85.0625 128.898438 93.75 C 128.210938 96.109375 127.691406 99.902344 124.484375 98.511719 C 120.800781 96.914062 117.308594 95 113.460938 93.75 C 108.722656 92.210938 104.125 90.65625 99.539062 88.691406 C 94.503906 86.53125 89.296875 85.050781 84.152344 83.195312 C 79.046875 81.351562 74.125 79.074219 69.078125 77.085938 C 66.703125 76.148438 64.300781 75.285156 61.882812 74.464844 C 60.75 74.078125 59.601562 73.621094 58.4375 73.332031 C 57.488281 73.097656 56.222656 73.195312 55.410156 72.574219 Z M 97.367188 25.097656 C 97.09375 24.988281 97.210938 24.984375 97.71875 25.089844 Z M 43.875 79.953125 C 46.863281 78.824219 49.871094 78.289062 52.96875 79.332031 C 56.082031 80.378906 58.964844 82.128906 61.984375 83.40625 C 68.226562 86.046875 74.238281 89.160156 80.441406 91.890625 C 86.328125 94.480469 92.515625 96.261719 98.441406 98.8125 C 103.105469 100.820312 108.328125 102.230469 112.792969 104.640625 C 114.8125 105.730469 114.453125 106.34375 112.734375 107.410156 C 110.226562 108.964844 107.523438 110.042969 104.886719 111.355469 C 102.828125 112.375 99.957031 114.265625 97.546875 113.816406 C 94.5625 113.261719 91.25 111.125 88.503906 109.859375 C 76.734375 104.4375 65.167969 98.730469 53.285156 93.515625 C 46.667969 90.609375 39.84375 88.140625 33.105469 85.546875 C 32.558594 85.339844 30.234375 84.890625 30.300781 84 C 30.367188 83.128906 32.769531 82.890625 33.359375 82.757812 C 36.886719 81.945312 40.472656 81.226562 43.875 79.953125 Z M 26.976562 98.863281 C 26.644531 98.085938 42.519531 92.628906 43.480469 92.523438 C 46.929688 92.132812 51.507812 96.222656 54.417969 97.761719 C 58.007812 99.652344 61.859375 100.734375 65.464844 102.476562 C 69.632812 104.488281 65.105469 104.9375 63.167969 105.730469 C 59.46875 107.246094 54.761719 110.328125 50.644531 110.160156 C 48.792969 110.085938 47.230469 108.863281 45.640625 108.039062 C 43.25 106.796875 40.765625 105.71875 38.347656 104.53125 C 35.898438 103.328125 33.414062 102.191406 30.96875 100.984375 C 30.320312 100.664062 27.300781 99.621094 26.976562 98.863281 Z M 115.617188 101.777344 C 112.152344 100.625 108.765625 99.183594 105.359375 97.871094 C 102.1875 96.652344 98.5 95.585938 95.523438 93.96875 C 99.484375 95.609375 103.617188 96.84375 107.625 98.367188 C 110.820312 99.578125 114.398438 100.261719 117.195312 102.324219 C 116.671875 102.136719 116.144531 101.953125 115.613281 101.777344 Z M 115.617188 101.777344 "/><path style=" stroke:none;fill-rule:nonzero;fill:#d7d7d7;fill-opacity:1;" d="M 68.835938 24.585938 C 67.089844 24.910156 65.660156 30.9375 65.207031 32.324219 C 63.835938 36.507812 62.800781 40.8125 61.640625 45.058594 C 60.410156 49.578125 59.105469 54.074219 57.957031 58.617188 C 57.40625 60.789062 56.894531 62.96875 56.296875 65.132812 C 55.828125 66.824219 54.710938 69.367188 54.878906 71.171875 C 55.015625 72.617188 55.921875 72.792969 57.300781 73.152344 C 59.511719 73.722656 61.609375 74.335938 63.761719 75.125 C 68.105469 76.714844 72.382812 78.476562 76.691406 80.144531 C 85.261719 83.460938 93.890625 86.640625 102.574219 89.683594 C 102.273438 88.503906 107.65625 86.1875 108.484375 85.609375 C 111.175781 83.789062 113.675781 81.738281 115.980469 79.449219 C 120.742188 74.535156 124.761719 69.074219 128.039062 63.066406 C 131.171875 57.292969 133.511719 51.214844 135.054688 44.828125 C 135.414062 43.503906 135.691406 42.164062 135.886719 40.808594 C 135.960938 40.171875 135.808594 38.816406 136.441406 38.382812 C 136.644531 38.246094 138.632812 39.039062 138.871094 39.089844 C 140.53125 39.425781 142.242188 39.503906 143.871094 40.003906 C 143.027344 38.625 139.417969 38.929688 137.953125 38.339844 C 134.753906 37.050781 131.59375 36.496094 128.164062 36.253906 C 121.152344 35.753906 114.515625 34.488281 107.679688 32.835938 C 100.859375 31.1875 93.984375 30.15625 87.136719 28.730469 C 81.449219 27.542969 74.792969 23.511719 68.835938 24.585938 Z M 68.835938 24.585938 "/><path style=" stroke:none;fill-rule:nonzero;fill:#d7d7d7;fill-opacity:1;" d="M 141.089844 52.261719 C 139.804688 57.125 138.089844 61.890625 137.304688 66.875 C 139.414062 61.433594 140.527344 55.695312 141.71875 50 C 141.492188 50.75 141.289062 51.503906 141.089844 52.261719 Z M 141.089844 52.261719 "/><path style=" stroke:none;fill-rule:nonzero;fill:#d7d7d7;fill-opacity:1;" d="M 133.339844 77.296875 C 132.628906 80.285156 131.871094 83.261719 131.070312 86.226562 C 132.195312 83.257812 133.410156 80.320312 134.394531 77.300781 C 133.910156 77.539062 133.714844 77.082031 133.453125 76.800781 Z M 133.339844 77.296875 "/><path style=" stroke:none;fill-rule:nonzero;fill:#d7d7d7;fill-opacity:1;" d="M 119.453125 96.128906 C 120.347656 97.386719 122.25 97.285156 123.550781 97.769531 C 122.902344 97.074219 123.003906 96.886719 121.894531 96.515625 C 121.457031 96.371094 119.382812 96.03125 119.453125 96.128906 Z M 119.453125 96.128906 "/><path style=" stroke:none;fill-rule:nonzero;fill:#d7d7d7;fill-opacity:1;" d="M 49.867188 78.566406 C 46.65625 78.566406 43.710938 80.039062 40.691406 80.925781 C 37.785156 81.777344 34.21875 81.800781 31.511719 83.191406 C 29.300781 84.328125 31.128906 84.8125 32.660156 85.371094 C 35.675781 86.464844 38.632812 87.703125 41.636719 88.824219 C 54.199219 93.507812 66.339844 99.199219 78.316406 105.207031 C 84.023438 108.066406 89.980469 110.398438 95.726562 113.167969 C 98.15625 114.34375 99.574219 113.925781 101.9375 112.800781 C 104.34375 111.652344 106.75 110.535156 109.160156 109.398438 C 110.230469 108.894531 114.410156 107.1875 114.246094 105.859375 C 114.074219 104.464844 109.113281 103.226562 108.214844 102.863281 C 101.910156 100.328125 95.769531 97.136719 89.3125 95.019531 C 85.816406 93.875 82.375 92.820312 79.046875 91.222656 C 75.597656 89.570312 72.261719 87.699219 68.746094 86.195312 C 65.417969 84.769531 62.011719 83.535156 58.773438 81.90625 C 56.027344 80.523438 53.054688 78.566406 49.867188 78.566406 Z M 43.460938 81.320312 C 43.492188 81.3125 43.359375 81.351562 43.460938 81.320312 Z M 43.460938 81.320312 "/><path style=" stroke:none;fill-rule:nonzero;fill:#d7d7d7;fill-opacity:1;" d="M 44.195312 92.464844 C 40.660156 92.464844 37.421875 94.75 34.105469 95.726562 C 32.773438 96.117188 27.4375 96.914062 27.042969 98.460938 C 26.75 99.621094 31.582031 101.28125 32.460938 101.691406 C 36.480469 103.5625 40.511719 105.546875 44.460938 107.5625 C 46.210938 108.453125 48.578125 110.222656 50.617188 110.128906 C 52.949219 110.023438 55.695312 108.785156 57.894531 108.046875 C 59.527344 107.546875 61.101562 106.914062 62.628906 106.148438 C 63.355469 105.761719 66.902344 105.121094 67.183594 104.332031 C 67.785156 102.644531 57.886719 99.390625 56.480469 98.75 C 54.003906 97.617188 51.683594 96.246094 49.304688 94.929688 C 47.875 94.140625 45.882812 92.464844 44.195312 92.464844 Z M 44.195312 92.464844 "/><path style=" stroke:none;fill-rule:nonzero;fill:#acacac;fill-opacity:1;" d="M 136.582031 38.277344 C 135.835938 38.277344 135.183594 43.808594 135.070312 44.425781 C 134.417969 47.976562 133.222656 51.433594 131.90625 54.789062 C 128.683594 63.003906 123.527344 70.671875 117.710938 77.269531 C 114.898438 80.496094 111.742188 83.332031 108.234375 85.777344 C 106.617188 86.890625 100.558594 88.796875 103.898438 90.726562 C 106.585938 92.277344 110.355469 92.984375 113.253906 93.996094 C 115.421875 94.753906 117.621094 95.582031 119.863281 96.085938 C 120.527344 96.234375 121.21875 96.277344 121.878906 96.449219 C 122.886719 96.714844 122.824219 96.9375 123.441406 97.5 C 127.273438 101.023438 128.183594 95.871094 129.160156 92.742188 C 130.800781 87.488281 132.253906 82.175781 133.453125 76.800781 C 134.273438 78.980469 136.167969 72.332031 136.304688 71.785156 C 137.699219 66.21875 138.6875 60.664062 140.292969 55.136719 C 141.027344 52.625 141.980469 50.128906 142.566406 47.582031 C 142.996094 45.71875 143.929688 43.875 144.269531 42.035156 C 144.621094 40.144531 143.253906 39.628906 141.609375 39.347656 C 140.089844 39.085938 138.054688 38.277344 136.582031 38.277344 Z M 136.582031 38.277344 "/><path style=" stroke:none;fill-rule:nonzero;fill:#010101;fill-opacity:1;" d="M 66.742188 19.519531 C 63.851562 20.816406 63.136719 25.089844 62.355469 27.789062 C 61.042969 32.3125 59.476562 36.753906 58.203125 41.292969 C 55.785156 49.917969 52.59375 58.601562 51.203125 67.472656 C 50.882812 69.542969 49.972656 72.839844 50.6875 74.878906 C 51.691406 77.75 51.800781 73.035156 51.785156 72.152344 C 51.710938 68.019531 53.238281 63.789062 54.3125 59.828125 C 55.710938 54.675781 57.277344 49.570312 58.828125 44.460938 C 60.421875 39.21875 62.054688 34.003906 63.851562 28.832031 C 64.621094 26.617188 65.242188 24.34375 66.605469 22.417969 C 66.882812 22.027344 68.839844 18.578125 66.742188 19.519531 Z M 66.742188 19.519531 "/><path style=" stroke:none;fill-rule:nonzero;fill:#010101;fill-opacity:1;" d="M 68.484375 19.535156 C 67.847656 19.578125 64.28125 20.445312 65.703125 21.664062 C 66.011719 21.929688 67.476562 20.941406 67.832031 20.855469 C 69.023438 20.566406 70.40625 20.894531 71.585938 21.121094 C 77.679688 22.289062 83.808594 23.34375 89.960938 24.175781 C 102.894531 25.921875 115.660156 28.136719 128.441406 30.761719 C 133.636719 31.828125 139.390625 32.585938 144.117188 35.121094 C 144.972656 35.578125 147.15625 37.371094 148.199219 36.972656 C 150.007812 36.28125 147.324219 34.457031 146.566406 34.035156 C 142.066406 31.550781 136.421875 30.707031 131.476562 29.644531 C 125.003906 28.253906 118.542969 26.832031 112.023438 25.683594 C 104.722656 24.394531 97.378906 23.433594 90.027344 22.496094 C 86.445312 22.039062 82.855469 21.609375 79.292969 21.007812 C 75.738281 20.40625 72.125 19.277344 68.484375 19.535156 Z M 132.21875 31.746094 Z M 145.773438 35.796875 Z M 145.773438 35.796875 "/><path style=" stroke:none;fill-rule:nonzero;fill:#010101;fill-opacity:1;" d="M 147.078125 35.222656 C 146.253906 35.867188 147.464844 35.722656 147.621094 35.917969 C 147.464844 35.71875 147.878906 34.59375 147.078125 35.222656 Z M 147.078125 35.222656 "/><path style=" stroke:none;fill-rule:nonzero;fill:#010101;fill-opacity:1;" d="M 146.039062 34.96875 C 145.808594 35.519531 147.238281 36.828125 147.464844 37.285156 C 148.179688 38.730469 147.832031 40.308594 147.53125 41.847656 C 146.675781 46.246094 145.425781 50.59375 144.1875 54.894531 C 141.769531 63.269531 139.6875 71.734375 137.285156 80.113281 C 136.085938 84.285156 134.796875 88.4375 133.382812 92.542969 C 132.648438 94.675781 131.878906 96.796875 131.070312 98.90625 C 130.445312 100.535156 129.921875 103.015625 128.742188 104.34375 C 128.210938 104.945312 125.878906 105.5 126.617188 106.632812 C 127.421875 107.863281 129.402344 106.289062 129.953125 105.675781 C 132.128906 103.242188 132.9375 99.621094 133.84375 96.578125 C 136.765625 86.792969 140.046875 77.148438 142.621094 67.257812 C 143.695312 63.046875 145.667969 56.417969 146.992188 51.394531 C 147.933594 47.824219 149.144531 44.117188 149.4375 40.425781 C 149.550781 39 149.613281 37.375 148.824219 36.109375 C 148.460938 35.535156 146.601562 33.597656 146.039062 34.96875 Z M 147.863281 38.828125 Z M 145.433594 50.316406 Z M 145.363281 50.578125 Z M 145.363281 50.578125 "/><path style=" stroke:none;fill-rule:nonzero;fill:#010101;fill-opacity:1;" d="M 50.691406 72.734375 C 49.269531 73.351562 51.3125 75.328125 51.851562 75.839844 C 53.429688 77.347656 55.480469 78.023438 57.488281 78.785156 C 63.300781 80.988281 68.996094 83.296875 74.679688 85.8125 C 86.457031 91.019531 98.371094 95.878906 110.296875 100.722656 C 115.390625 102.792969 120.871094 106.113281 126.347656 106.984375 C 128.230469 107.28125 128.777344 105.984375 126.910156 105.210938 C 124.355469 104.152344 121.53125 103.464844 118.925781 102.449219 C 106.992188 97.804688 95.132812 93.085938 83.515625 87.683594 C 77.152344 84.726562 70.546875 82.167969 64.015625 79.601562 C 61.199219 78.496094 58.335938 77.492188 55.488281 76.46875 C 54.273438 76.03125 53.171875 75.652344 52.363281 74.628906 C 52.046875 74.226562 51.460938 72.402344 50.691406 72.734375 Z M 50.691406 72.734375 "/><path style=" stroke:none;fill-rule:nonzero;fill:#010101;fill-opacity:1;" d="M 67.582031 23.40625 C 66.628906 24.378906 66.585938 26.152344 66.269531 27.386719 C 65.746094 29.417969 64.972656 31.394531 64.289062 33.375 C 62.730469 37.898438 61.378906 42.464844 60.027344 47.054688 C 58.089844 53.636719 56.179688 60.230469 54.300781 66.832031 C 54.019531 67.8125 52.625 71.507812 53.691406 72.355469 C 55.132812 73.5 55.742188 68.652344 55.90625 67.964844 C 57.976562 59.285156 60.679688 50.699219 63.15625 42.121094 C 64.558594 37.25 66.390625 32.515625 67.785156 27.644531 C 67.960938 27.03125 69.207031 22.136719 67.582031 23.40625 Z M 55.113281 70.421875 Z M 55.113281 70.421875 "/><path style=" stroke:none;fill-rule:nonzero;fill:#010101;fill-opacity:1;" d="M 53.730469 71.710938 C 52.65625 72.550781 60.90625 75.644531 61.503906 75.875 C 67.523438 78.175781 73.605469 80.296875 79.59375 82.6875 C 90.9375 87.214844 102.652344 90.878906 114.082031 95.214844 C 116.28125 96.050781 118.492188 96.871094 120.632812 97.855469 C 122.195312 98.570312 123.847656 99.601562 125.570312 99.871094 C 126.542969 100.023438 127.941406 99.980469 127.207031 98.667969 C 126.621094 97.625 123.300781 97.039062 122.277344 96.621094 C 110.1875 91.6875 97.796875 87.5625 85.476562 83.253906 C 78.726562 80.890625 72.160156 78.007812 65.398438 75.695312 C 63.15625 74.953125 60.972656 74.066406 58.847656 73.027344 C 57.753906 72.484375 54.960938 70.746094 53.730469 71.710938 Z M 53.730469 71.710938 "/><path style=" stroke:none;fill-rule:nonzero;fill:#010101;fill-opacity:1;" d="M 143.972656 39.652344 C 143.675781 42.992188 141.902344 46.492188 141.0625 49.78125 C 139.847656 54.523438 138.46875 59.222656 137.113281 63.921875 C 134.542969 72.835938 132.328125 81.886719 129.398438 90.691406 C 128.699219 92.796875 127.964844 94.90625 127.105469 96.953125 C 126.816406 97.636719 125.699219 99.308594 126.519531 99.9375 C 128.464844 101.425781 130.75 92.449219 130.96875 91.738281 C 133.777344 82.578125 136.136719 73.277344 138.789062 64.070312 C 140.222656 59.082031 141.503906 54.066406 142.785156 49.042969 C 143.390625 46.675781 144.117188 44.34375 144.851562 42.015625 C 145.0625 41.355469 145.644531 40.230469 145.21875 39.566406 C 144.910156 39.082031 144.046875 38.824219 143.972656 39.652344 Z M 140.925781 50.308594 Z M 138.453125 65.324219 Z M 138.453125 65.324219 "/><path style=" stroke:none;fill-rule:nonzero;fill:#010101;fill-opacity:1;" d="M 68.238281 23.335938 C 66.238281 23.476562 69.34375 24.9375 69.78125 25.046875 C 72.132812 25.632812 74.542969 26.097656 76.917969 26.597656 C 82.578125 27.789062 88.265625 28.867188 93.914062 30.117188 C 105.324219 32.640625 116.738281 35.175781 128.226562 37.332031 C 130.8125 37.820312 133.425781 38.171875 136.019531 38.621094 C 138.457031 39.042969 141.039062 40.203125 143.429688 40.453125 C 145.441406 40.660156 145.492188 39.511719 143.742188 38.570312 C 141.859375 37.558594 139.484375 37.453125 137.425781 37.054688 C 126.238281 34.890625 114.992188 32.894531 103.839844 30.558594 C 97.601562 29.253906 91.425781 27.75 85.15625 26.628906 C 82.167969 26.09375 79.144531 25.585938 76.195312 24.875 C 73.609375 24.246094 70.949219 23.140625 68.238281 23.335938 Z M 68.238281 23.335938 "/><path style=" stroke:none;fill-rule:nonzero;fill:#010101;fill-opacity:1;" d="M 51.214844 74.144531 C 48.601562 74.382812 46.097656 75.484375 43.511719 75.953125 C 40.523438 76.496094 37.5625 77.070312 34.613281 77.785156 C 29.242188 79.09375 23.925781 80.617188 18.550781 81.917969 C 13.921875 83.039062 9.230469 83.984375 4.632812 85.222656 C 3.457031 85.539062 1.503906 85.921875 0.886719 87.140625 C 0 88.886719 2.011719 90.238281 3.289062 90.984375 C 12.210938 96.214844 21.789062 100.453125 30.867188 105.421875 C 40.941406 110.929688 50.921875 116.636719 61.371094 121.40625 C 66.058594 123.546875 70.824219 125.445312 75.398438 127.820312 C 76.382812 128.332031 82.453125 131.796875 83.035156 129.71875 C 83.53125 127.949219 77.996094 126.9375 76.839844 126.433594 C 71.648438 124.167969 66.503906 121.699219 61.34375 119.34375 C 50.859375 114.5625 40.746094 109.019531 30.710938 103.359375 C 22.375 98.65625 13.664062 94.691406 5.242188 90.167969 C 4.667969 89.859375 2.382812 88.941406 2.347656 88.097656 C 2.304688 86.976562 5.136719 86.570312 5.84375 86.410156 C 10.136719 85.457031 14.425781 84.554688 18.703125 83.507812 C 24.890625 81.988281 31.058594 80.382812 37.265625 78.953125 C 40.328125 78.25 43.441406 77.691406 46.464844 76.832031 C 47.867188 76.433594 49.484375 76.136719 50.820312 75.605469 C 51.140625 75.476562 51.601562 75.65625 51.824219 75.265625 C 52.089844 74.792969 51.871094 74.085938 51.214844 74.144531 Z M 22.835938 80.878906 Z M 12.625 83.375 Z M 17.574219 83.816406 Z M 5.859375 84.929688 Z M 5.917969 84.914062 Z M 5.917969 84.914062 "/><path style=" stroke:none;fill-rule:nonzero;fill:#010101;fill-opacity:1;" d="M 126.421875 105.804688 C 125.804688 106.25 126.546875 107.457031 126.304688 108.042969 C 125.925781 108.957031 125.199219 109.132812 124.316406 109.433594 C 122.273438 110.132812 120.277344 110.851562 118.292969 111.710938 C 113.261719 113.886719 108.398438 116.46875 103.511719 118.949219 C 98.621094 121.429688 93.808594 124.023438 88.863281 126.390625 C 86.804688 127.367188 84.675781 128.144531 82.46875 128.71875 C 80.605469 129.222656 80.480469 130.578125 82.652344 130.683594 C 84.480469 130.773438 86.382812 129.511719 87.976562 128.757812 C 90.578125 127.53125 93.144531 126.246094 95.695312 124.910156 C 100.628906 122.332031 105.5625 119.757812 110.59375 117.378906 C 115.363281 115.125 120.121094 112.804688 125.03125 110.886719 C 126.601562 110.273438 127.816406 109.699219 127.878906 107.878906 C 127.898438 107.171875 127.625 104.933594 126.421875 105.804688 Z M 92.222656 124.757812 Z M 81.683594 130.601562 Z M 81.683594 130.601562 "/><path style=" stroke:none;fill-rule:nonzero;fill:#010101;fill-opacity:1;" d="M 49.191406 77.367188 C 43.769531 77.746094 38.726562 80.050781 33.636719 81.753906 C 32.941406 81.988281 26.625 83.480469 29.15625 84.488281 C 30.207031 84.90625 32.921875 83.355469 33.980469 83.023438 C 36.277344 82.296875 38.566406 81.519531 40.886719 80.867188 C 43.375 80.167969 46.027344 79.167969 48.609375 78.921875 C 51.140625 78.6875 53.542969 79.644531 55.871094 80.527344 C 65.957031 84.363281 75.554688 89.660156 85.421875 94.042969 C 90.296875 96.207031 95.234375 98.175781 100.1875 100.140625 C 102.730469 101.152344 105.207031 102.320312 107.75 103.316406 C 110.046875 104.21875 112.46875 104.898438 114.550781 106.269531 C 110.53125 107.894531 106.746094 109.742188 102.851562 111.636719 C 102.289062 111.910156 96.320312 114.46875 98.796875 115.191406 C 99.949219 115.527344 101.632812 114.085938 102.570312 113.613281 C 104.601562 112.589844 106.601562 111.550781 108.609375 110.46875 C 110.203125 109.628906 111.871094 108.964844 113.605469 108.476562 C 114.570312 108.1875 116.453125 107.804688 116.527344 106.519531 C 116.636719 104.660156 112.855469 103.441406 111.574219 102.921875 C 108.695312 101.753906 105.816406 100.578125 102.945312 99.398438 C 94.03125 95.726562 85.121094 92.203125 76.375 88.136719 C 71.679688 85.953125 67.015625 83.703125 62.289062 81.589844 C 58.304688 79.804688 53.699219 77.058594 49.191406 77.367188 Z M 51.375 79.054688 Z M 51.375 79.054688 "/><path style=" stroke:none;fill-rule:nonzero;fill:#010101;fill-opacity:1;" d="M 28.96875 83.320312 C 27.648438 83.828125 30.117188 84.851562 30.507812 85.039062 C 32.472656 85.957031 34.445312 86.855469 36.4375 87.714844 C 41.550781 89.921875 46.703125 92.003906 51.832031 94.164062 C 62.226562 98.539062 72.460938 103.257812 82.761719 107.839844 C 87.460938 109.933594 91.988281 112.566406 96.726562 114.523438 C 98.765625 115.363281 99.84375 114.128906 97.90625 112.960938 C 96.386719 112.042969 94.425781 111.542969 92.820312 110.746094 C 82.53125 105.640625 71.894531 101.097656 61.328125 96.613281 C 55.398438 94.101562 49.410156 91.730469 43.464844 89.253906 C 40.683594 88.09375 37.894531 86.949219 35.101562 85.816406 C 33.929688 85.34375 30.289062 82.816406 28.96875 83.320312 Z M 28.96875 83.320312 "/><path style=" stroke:none;fill-rule:nonzero;fill:#010101;fill-opacity:1;" d="M 43.664062 91.640625 C 39.761719 93.066406 35.835938 94.535156 31.859375 95.746094 C 30.386719 96.195312 28.820312 96.425781 27.445312 97.140625 C 26.148438 97.820312 25.601562 98.738281 27.421875 98.480469 C 28.988281 98.257812 30.792969 97.226562 32.332031 96.765625 C 34.148438 96.21875 35.960938 95.667969 37.75 95.042969 C 39.460938 94.445312 41.203125 93.953125 42.894531 93.308594 C 43.238281 93.175781 43.933594 93.179688 44.132812 92.859375 C 44.347656 92.519531 44.789062 91.230469 43.664062 91.640625 Z M 43.664062 91.640625 "/><path style=" stroke:none;fill-rule:nonzero;fill:#010101;fill-opacity:1;" d="M 26.054688 98.609375 C 25.863281 99.757812 32.261719 101.859375 33.199219 102.328125 C 35.984375 103.734375 38.71875 105.21875 41.4375 106.742188 C 43.835938 108.085938 46.359375 109.675781 49.003906 110.46875 C 50.53125 110.925781 51.453125 110.734375 49.824219 109.523438 C 46.292969 106.902344 41.839844 105.296875 37.9375 103.304688 C 36.765625 102.710938 26.238281 97.480469 26.054688 98.609375 Z M 26.054688 98.609375 "/><path style=" stroke:none;fill-rule:nonzero;fill:#010101;fill-opacity:1;" d="M 67.957031 103.847656 C 64.042969 105.125 60.171875 106.535156 56.234375 107.738281 C 54.640625 108.226562 52.664062 108.5625 51.222656 109.441406 C 49.179688 110.691406 51.03125 110.804688 52.394531 110.472656 C 55.855469 109.628906 59.296875 108.195312 62.710938 107.152344 C 64.328125 106.660156 66.230469 106.386719 67.710938 105.550781 C 68.183594 105.285156 68.917969 105.332031 68.929688 104.578125 C 68.9375 104.457031 68.914062 104.339844 68.863281 104.226562 C 68.808594 104.117188 68.734375 104.023438 68.636719 103.953125 C 68.539062 103.878906 68.429688 103.832031 68.3125 103.8125 C 68.191406 103.796875 68.074219 103.804688 67.957031 103.847656 Z M 67.957031 103.847656 "/><path style=" stroke:none;fill-rule:nonzero;fill:#010101;fill-opacity:1;" d="M 44.066406 91.746094 C 42.421875 92.375 47.4375 94.507812 47.820312 94.71875 C 51.332031 96.683594 54.949219 98.359375 58.582031 100.078125 C 61.28125 101.355469 63.90625 102.722656 66.554688 104.085938 C 67.394531 104.519531 70.304688 105.757812 69.421875 103.828125 C 68.824219 102.515625 65.765625 101.507812 64.582031 100.945312 C 62.589844 100 60.550781 99.160156 58.511719 98.316406 C 55.953125 97.261719 53.453125 96.066406 51 94.78125 C 49.320312 93.902344 46.074219 90.976562 44.066406 91.746094 Z M 68.167969 104.757812 Z M 68.300781 104.84375 Z M 68.300781 104.84375 "/><path style=" stroke:none;fill-rule:nonzero;fill:#010101;fill-opacity:1;" d="M 68.367188 103.980469 C 67.753906 104.308594 66.671875 105.515625 67.898438 105.601562 C 69.019531 105.675781 69.417969 103.425781 68.367188 103.980469 Z M 68.367188 103.980469 "/></g></svg>