<svg xmlns="http://www.w3.org/2000/svg" xmlns:xlink="http://www.w3.org/1999/xlink" width="200" zoomAndPan="magnify" viewBox="0 0 150 149.999998" height="200" preserveAspectRatio="xMidYMid meet" version="1.2"><defs><clipPath id="b673c591a1"><path d="M 19 27.410156 L 145 27.410156 L 145 122.660156 L 19 122.660156 Z M 19 27.410156 "/></clipPath></defs><g id="0e381eee66"><path style=" stroke:none;fill-rule:nonzero;fill:#000000;fill-opacity:1;" d="M 149.941406 91.699219 L 149.917969 91.699219 L 149.917969 91.605469 C 149.890625 89.128906 149.3125 86.632812 148.191406 84.1875 L 147.957031 83.671875 L 139.523438 83.65625 L 139.25 82.914062 L 128.847656 82.894531 L 128.898438 82.96875 L 127.742188 82.894531 L 23.441406 82.71875 L 23.320312 83.082031 L 18.6875 83.234375 L 18.492188 83.8125 C 18.40625 84.054688 18.261719 84.511719 18.101562 85.140625 L 1.230469 88.457031 L 1.113281 88.519531 C 0.800781 88.691406 0.296875 89.179688 0.128906 90.585938 L 0.0742188 90.582031 L 0.0703125 91.4375 L 0.0429688 92.179688 L 0.0898438 92.179688 C 0.148438 93.175781 0.382812 93.777344 0.832031 94.09375 C 1.023438 94.226562 1.242188 94.292969 1.457031 94.296875 L 18.40625 97.6875 C 18.578125 98.246094 18.761719 98.796875 18.972656 99.328125 L 19.191406 99.890625 L 23.421875 99.898438 L 23.492188 100.269531 L 34.695312 100.285156 L 34.652344 100.226562 L 35.800781 100.289062 L 139.355469 100.460938 L 139.953125 99.488281 L 148.046875 99.351562 L 148.292969 98.886719 C 148.722656 98.070312 149.738281 95.824219 149.898438 92.613281 L 149.902344 92.542969 L 149.925781 92.542969 L 149.921875 92.140625 Z M 149.941406 91.699219 "/><path style=" stroke:none;fill-rule:nonzero;fill:#fbbd97;fill-opacity:1;" d="M 138.84375 84.179688 L 138.65625 83.667969 L 131.222656 83.667969 C 132.570312 85.507812 133.914062 87.957031 134.015625 90.484375 C 134.09375 92.453125 133.429688 94.195312 132.046875 95.667969 C 130.648438 97.15625 129.832031 98.40625 129.371094 99.441406 L 138.910156 99.441406 L 139.289062 98.816406 C 142.351562 93.800781 138.878906 84.273438 138.84375 84.179688 Z M 131.464844 90.589844 C 131.363281 87.949219 129.316406 85.214844 127.941406 83.667969 L 107.261719 83.667969 C 101.714844 86.0625 89.6875 86.875 81.039062 86.839844 C 70.125 86.796875 60.308594 85.582031 55.371094 83.667969 L 40.769531 83.667969 C 40.914062 85.53125 40.246094 88.304688 36.898438 91.859375 C 35.988281 92.828125 35.570312 93.914062 35.621094 95.1875 C 35.679688 96.648438 36.332031 98.140625 37.132812 99.441406 L 54.332031 99.441406 C 59.960938 96.683594 73.777344 95.992188 81.089844 96.019531 C 92.582031 96.066406 102.625 97.375 107.359375 99.441406 L 126.65625 99.441406 C 127.136719 97.898438 128.183594 96.050781 130.1875 93.917969 C 131.09375 92.949219 131.515625 91.863281 131.464844 90.589844 Z M 38.210938 83.667969 L 24.105469 83.667969 L 24.042969 83.851562 C 22.335938 89.0625 24.132812 98.695312 24.277344 99.441406 L 34.226562 99.441406 C 33.589844 98.148438 33.128906 96.734375 33.070312 95.292969 C 32.992188 93.324219 33.65625 91.582031 35.039062 90.109375 C 38.019531 86.941406 38.371094 84.820312 38.210938 83.667969 Z M 56.015625 99.816406 L 57.722656 99.816406 C 62.484375 98.484375 70.730469 97.507812 81.085938 97.550781 C 90.339844 97.585938 98.6875 98.464844 103.792969 99.816406 L 105.570312 99.816406 C 100.621094 98.164062 91.398438 97.058594 81.085938 97.015625 C 71.210938 96.980469 61.09375 97.984375 56.015625 99.816406 Z M 105.382812 83.289062 L 103.460938 83.289062 C 98.59375 84.492188 90.746094 85.347656 81.046875 85.3125 C 72.371094 85.277344 64.492188 84.5 59.335938 83.289062 L 57.339844 83.289062 C 62.445312 84.804688 71.253906 85.804688 81.042969 85.84375 C 90.464844 85.878906 100.109375 84.964844 105.382812 83.289062 Z M 105.382812 83.289062 "/><g clip-rule="nonzero" clip-path="url(#b673c591a1)"><path style=" stroke:none;fill-rule:nonzero;fill:#000000;fill-opacity:1;" d="M 141.566406 117.566406 L 141.542969 117.550781 L 141.597656 117.476562 C 143.035156 115.453125 144.03125 113.09375 144.5625 110.457031 L 144.671875 109.902344 L 137.859375 104.929688 L 138.074219 104.167969 L 129.667969 98.035156 L 129.664062 98.125 L 128.773438 97.382812 L 44.496094 35.894531 L 44.183594 36.117188 L 40.347656 33.515625 L 39.847656 33.867188 C 39.636719 34.011719 39.25 34.296875 38.75 34.710938 L 23.15625 27.472656 L 23.019531 27.453125 C 22.671875 27.40625 21.976562 27.507812 21.011719 28.546875 L 20.972656 28.507812 L 20.46875 29.199219 L 20.007812 29.785156 L 20.042969 29.8125 C 19.507812 30.652344 19.347656 31.277344 19.523438 31.796875 C 19.601562 32.015625 19.738281 32.199219 19.910156 32.332031 C 20.03125 32.464844 29 42.191406 31.628906 45.042969 C 31.441406 45.59375 31.265625 46.152344 31.125 46.703125 L 30.972656 47.289062 L 34.390625 49.78125 L 34.226562 50.121094 L 43.28125 56.726562 L 43.285156 56.652344 L 44.175781 57.378906 L 127.851562 118.429688 L 128.90625 117.992188 L 135.539062 122.640625 L 136.011719 122.410156 C 136.835938 122.003906 138.976562 120.785156 140.992188 118.277344 L 141.035156 118.222656 L 141.054688 118.238281 L 141.289062 117.910156 Z M 141.566406 117.566406 "/></g><path style=" stroke:none;fill-rule:nonzero;fill:#95b5df;fill-opacity:1;" d="M 136.90625 105.046875 L 137.054688 104.519531 L 130.503906 99.742188 C 130.417969 102.550781 129.773438 105.636719 127.886719 108.226562 C 125.960938 110.875 123.503906 112.0625 121.175781 112.460938 L 127.972656 117.417969 L 128.648438 117.136719 C 134.074219 114.886719 136.875 105.144531 136.90625 105.046875 Z M 51.804688 42.324219 L 44.492188 36.988281 L 44.332031 37.101562 C 39.882812 40.304688 35.664062 49.152344 35.34375 49.835938 L 42.449219 55.019531 C 42.535156 52.21875 43.183594 49.144531 45.0625 46.558594 C 47 43.902344 49.46875 42.714844 51.804688 42.324219 Z M 127.914062 97.851562 L 55.292969 44.871094 C 53.226562 44.507812 49.691406 44.546875 47.128906 48.066406 C 45.214844 50.695312 44.871094 54.085938 45.035156 56.910156 L 117.703125 109.925781 C 119.777344 110.28125 123.277344 110.214844 125.824219 106.722656 C 127.746094 104.085938 128.082031 100.679688 127.914062 97.851562 Z M 84.765625 83.882812 C 76.660156 77.96875 62.089844 65.734375 64.980469 61.765625 C 67.871094 57.796875 83.96875 67.9375 92.074219 73.851562 C 100.183594 79.765625 114.753906 92 111.859375 95.96875 C 108.96875 99.9375 92.875 89.800781 84.765625 83.882812 Z M 91.742188 74.308594 C 80.464844 66.082031 67.570312 59.261719 65.511719 62.085938 C 63.453125 64.914062 73.886719 75.113281 85.164062 83.339844 C 96.4375 91.566406 109.332031 98.386719 111.390625 95.558594 C 113.449219 92.734375 103.015625 82.535156 91.742188 74.308594 Z M 85.476562 82.910156 C 72.011719 73.085938 64.503906 64.375 65.941406 62.402344 C 67.378906 60.425781 77.964844 64.914062 91.429688 74.738281 C 104.894531 84.5625 112.398438 93.273438 110.960938 95.246094 C 109.523438 97.21875 98.941406 92.730469 85.476562 82.910156 Z M 73.070312 70.253906 C 72.671875 69.964844 72.464844 69.582031 72.449219 69.105469 C 72.429688 68.628906 72.609375 68.132812 72.984375 67.617188 C 73.359375 67.101562 73.800781 66.769531 74.300781 66.617188 C 74.804688 66.46875 75.253906 66.542969 75.65625 66.832031 C 76.082031 67.144531 76.316406 67.460938 76.367188 67.792969 L 77.238281 67.339844 C 77.070312 66.871094 76.710938 66.4375 76.15625 66.035156 C 75.511719 65.5625 74.808594 65.414062 74.046875 65.59375 C 73.28125 65.773438 72.640625 66.21875 72.121094 66.929688 C 71.5625 67.699219 71.308594 68.4375 71.359375 69.15625 C 71.410156 69.871094 71.769531 70.472656 72.445312 70.964844 C 73.117188 71.457031 73.765625 71.644531 74.382812 71.53125 L 74.492188 70.546875 C 73.996094 70.683594 73.523438 70.585938 73.070312 70.253906 Z M 81.199219 73.175781 C 81.539062 73.0625 81.816406 72.863281 82.023438 72.578125 C 82.714844 71.628906 82.449219 70.707031 81.222656 69.8125 C 81.023438 69.667969 80.757812 69.488281 80.421875 69.269531 C 80.085938 69.046875 79.894531 68.921875 79.847656 68.886719 L 76.328125 73.714844 L 77.21875 74.363281 L 78.691406 72.347656 C 78.914062 72.53125 79.089844 72.671875 79.214844 72.769531 L 79.050781 75.699219 L 80.039062 76.421875 L 80.199219 73.207031 C 80.527344 73.296875 80.859375 73.289062 81.199219 73.175781 Z M 80.460938 72.328125 C 80.222656 72.304688 79.925781 72.167969 79.566406 71.90625 C 79.484375 71.84375 79.367188 71.75 79.21875 71.621094 L 80.195312 70.28125 C 80.304688 70.339844 80.40625 70.40625 80.5 70.472656 C 80.882812 70.75 81.125 71.003906 81.234375 71.226562 C 81.34375 71.449219 81.3125 71.683594 81.140625 71.917969 C 80.929688 72.210938 80.703125 72.347656 80.460938 72.328125 Z M 87.074219 74.070312 L 81.585938 77.5625 L 82.539062 78.257812 L 83.589844 77.523438 L 85.242188 78.726562 L 84.878906 79.964844 L 85.824219 80.65625 L 87.453125 74.34375 Z M 84.308594 77.046875 L 86.1875 75.6875 L 85.46875 77.890625 Z M 90.96875 80.117188 L 91.324219 77.222656 L 90.414062 76.558594 L 89.96875 80.59375 L 88.527344 82.574219 L 89.382812 83.199219 L 90.824219 81.21875 L 94.519531 79.554688 L 93.617188 78.894531 Z M 98.558594 82.371094 C 97.929688 81.914062 97.25 81.78125 96.527344 81.984375 C 95.804688 82.183594 95.195312 82.628906 94.691406 83.316406 C 94.121094 84.101562 93.839844 84.847656 93.859375 85.554688 C 93.875 86.257812 94.207031 86.847656 94.855469 87.320312 C 95.558594 87.832031 96.269531 88 96.984375 87.824219 C 97.703125 87.648438 98.34375 87.171875 98.910156 86.390625 C 99.476562 85.613281 99.730469 84.878906 99.679688 84.179688 C 99.625 83.480469 99.253906 82.878906 98.558594 82.371094 Z M 96.71875 86.816406 C 96.273438 86.957031 95.835938 86.871094 95.410156 86.558594 C 95.046875 86.292969 94.878906 85.933594 94.914062 85.484375 C 94.949219 85.035156 95.171875 84.53125 95.582031 83.964844 C 95.960938 83.449219 96.363281 83.109375 96.789062 82.953125 C 97.21875 82.796875 97.621094 82.855469 98.003906 83.136719 C 98.835938 83.742188 98.84375 84.613281 98.019531 85.742188 C 97.597656 86.320312 97.164062 86.679688 96.71875 86.816406 Z M 105.726562 87.730469 L 105.707031 87.714844 L 103.585938 90.632812 L 103.425781 86.050781 L 103.015625 85.75 L 99.496094 90.578125 L 100.320312 91.179688 L 102.496094 88.191406 L 102.609375 92.746094 L 102.6875 92.785156 L 103.128906 92.988281 L 106.421875 88.46875 L 106.089844 88.109375 Z M 105.726562 87.730469 "/><path style=" stroke:none;fill-rule:nonzero;fill:#f26522;fill-opacity:1;" d="M 18.003906 86.242188 L 4.269531 88.964844 C 8.6875 88.976562 13.804688 89.097656 15.585938 89.566406 C 18.304688 90.28125 8.664062 90.1875 1.492188 89.566406 C 1.335938 89.730469 0.992188 90.265625 0.992188 91.8125 C 0.992188 93.816406 1.566406 93.605469 1.566406 93.605469 L 18.269531 96.917969 C 17.101562 92.507812 17.496094 88.632812 18.003906 86.242188 Z M 22.792969 94.675781 C 22.640625 93.183594 22.519531 91.488281 22.519531 89.792969 C 22.519531 88.457031 22.605469 87.132812 22.792969 85.898438 C 22.890625 85.285156 23.007812 84.695312 23.164062 84.140625 L 22.792969 84.152344 L 22.417969 84.164062 L 19.351562 84.273438 C 19.246094 84.578125 19.050781 85.203125 18.855469 86.074219 C 18.597656 87.234375 18.34375 88.839844 18.316406 90.734375 C 18.613281 90.605469 19.191406 90.554688 19.847656 90.589844 C 20.71875 90.636719 21.726562 90.828125 22.417969 91.179688 L 22.539062 91.242188 L 22.417969 91.269531 C 22.050781 91.339844 20.882812 91.550781 19.847656 91.554688 C 19.21875 91.554688 18.640625 91.480469 18.3125 91.25 C 18.328125 93.011719 18.550781 95 19.144531 97.089844 C 19.335938 97.777344 19.570312 98.472656 19.847656 99.175781 L 23.429688 99.175781 C 23.363281 98.824219 23.273438 98.285156 23.171875 97.613281 C 23.046875 96.804688 22.910156 95.796875 22.792969 94.675781 Z M 148.929688 89.679688 C 146.683594 89.511719 144.582031 89.292969 143.023438 89.035156 C 143.023438 89.035156 145.574219 88.976562 148.820312 88.964844 C 148.574219 87.574219 148.132812 86.078125 147.410156 84.511719 L 140.03125 84.511719 C 140.324219 85.402344 140.820312 87.078125 141.171875 89.070312 C 141.351562 90.09375 141.492188 91.203125 141.546875 92.332031 C 141.5625 92.660156 141.574219 92.984375 141.574219 93.3125 C 141.574219 93.609375 141.5625 93.90625 141.546875 94.199219 C 141.5 95.074219 141.382812 95.9375 141.171875 96.761719 C 141.015625 97.386719 140.808594 97.988281 140.542969 98.558594 L 141.171875 98.546875 L 141.546875 98.539062 L 141.925781 98.53125 L 147.558594 98.425781 C 147.933594 97.710938 149.074219 95.257812 149.074219 91.753906 C 149.070312 91.097656 149.023438 90.402344 148.929688 89.679688 Z M 148.929688 89.679688 "/><path style=" stroke:none;fill-rule:nonzero;fill:#0071bc;fill-opacity:1;" d="M 34.328125 39.765625 C 35.617188 37.832031 37.003906 36.378906 38.101562 35.390625 L 22.90625 28.332031 C 22.90625 28.332031 22.332031 28.257812 21.28125 29.601562 C 24.628906 31.96875 32.378906 37.546875 34.328125 39.765625 Z M 21.097656 29.839844 C 21.09375 29.847656 21.085938 29.855469 21.078125 29.863281 C 19.898438 31.484375 20.488281 31.652344 20.488281 31.652344 L 32.035156 44.175781 C 32.621094 42.660156 33.332031 41.316406 34.082031 40.140625 C 31.980469 38.9375 25.109375 33.574219 21.097656 29.839844 Z M 37.011719 45.03125 C 37.765625 43.730469 38.667969 42.292969 39.664062 40.921875 C 40.453125 39.84375 41.296875 38.820312 42.175781 37.9375 C 42.613281 37.5 43.058594 37.089844 43.511719 36.730469 L 43.207031 36.527344 L 42.894531 36.316406 L 40.355469 34.59375 C 40.089844 34.777344 39.5625 35.167969 38.890625 35.757812 C 38 36.542969 36.851562 37.6875 35.710938 39.203125 C 36.027344 39.273438 36.523438 39.574219 37.035156 39.992188 C 37.710938 40.539062 38.414062 41.289062 38.765625 41.980469 C 38.789062 42.023438 38.808594 42.0625 38.828125 42.105469 L 38.714844 42.054688 C 38.371094 41.894531 37.308594 41.378906 36.46875 40.769531 C 35.960938 40.398438 35.535156 39.996094 35.40625 39.617188 C 34.378906 41.050781 33.390625 42.789062 32.640625 44.828125 C 32.394531 45.496094 32.171875 46.195312 31.980469 46.925781 L 34.875 49.039062 C 35.03125 48.714844 35.273438 48.226562 35.585938 47.625 C 35.960938 46.898438 36.445312 46.003906 37.011719 45.03125 Z M 134.507812 112.929688 L 134.5 112.917969 C 134.449219 112.996094 134.398438 113.070312 134.347656 113.148438 C 134.167969 113.417969 133.988281 113.691406 133.792969 113.953125 C 133.621094 114.195312 133.4375 114.425781 133.25 114.65625 C 132.699219 115.332031 132.09375 115.960938 131.4375 116.503906 C 130.941406 116.914062 130.421875 117.28125 129.871094 117.582031 L 130.386719 117.945312 L 130.695312 118.160156 L 131.003906 118.378906 L 135.617188 121.613281 C 136.292969 121.28125 138.363281 120.132812 140.300781 117.722656 C 138.0625 116.027344 135.953125 114.347656 134.777344 113.199219 C 134.679688 113.105469 134.589844 113.015625 134.507812 112.929688 Z M 134.785156 112.457031 L 134.832031 112.484375 C 134.929688 112.546875 135.035156 112.613281 135.148438 112.6875 C 136.445312 113.535156 138.59375 115.140625 140.875 116.960938 C 142.066406 115.285156 143.128906 113.089844 143.691406 110.285156 L 137.730469 105.933594 C 137.441406 106.824219 136.855469 108.472656 135.964844 110.289062 C 135.621094 110.996094 135.226562 111.730469 134.785156 112.457031 Z M 134.785156 112.457031 "/></g></svg>