<svg xmlns="http://www.w3.org/2000/svg" xmlns:xlink="http://www.w3.org/1999/xlink" width="200" zoomAndPan="magnify" viewBox="0 0 150 149.999998" height="200" preserveAspectRatio="xMidYMid meet" version="1.2"><defs><clipPath id="a7de8813d0"><path d="M 0.0742188 139 L 11 139 L 11 150 L 0.0742188 150 Z M 0.0742188 139 "/></clipPath></defs><g id="499bb59098"><g clip-rule="nonzero" clip-path="url(#a7de8813d0)"><path style=" stroke:none;fill-rule:evenodd;fill:#000000;fill-opacity:1;" d="M 9.925781 140.152344 L 9.925781 140.148438 C 9.011719 139.238281 7.523438 139.238281 6.609375 140.148438 L 0.988281 145.765625 C 0.078125 146.675781 0.078125 148.167969 0.988281 149.078125 C 1.898438 149.988281 3.390625 149.988281 4.300781 149.078125 L 9.925781 143.460938 C 10.835938 142.550781 10.835938 141.0625 9.925781 140.152344 Z M 9.925781 140.152344 "/></g><path style=" stroke:none;fill-rule:evenodd;fill:#f043bf;fill-opacity:1;" d="M 30.375 130.300781 C 31.519531 131.445312 31.734375 133.585938 30.375 134.464844 L 14.640625 144.640625 C 13.28125 145.519531 11.984375 145.230469 10.472656 144.640625 C 6.792969 143.207031 6.863281 143.277344 5.429688 139.601562 C 4.839844 138.09375 4.550781 136.796875 5.429688 135.4375 L 15.617188 119.71875 C 16.496094 118.359375 18.640625 118.574219 19.785156 119.71875 C 23.355469 123.289062 26.804688 126.730469 30.375 130.300781 Z M 30.375 130.300781 "/><path style=" stroke:none;fill-rule:evenodd;fill:#f043bf;fill-opacity:1;" d="M 146.84375 3.375 L 146.839844 3.371094 C 143.605469 0.136719 138.308594 0.136719 135.070312 3.371094 L 127.039062 11.394531 C 123.800781 14.628906 123.800781 19.921875 127.039062 23.152344 L 127.039062 23.15625 C 130.277344 26.390625 135.574219 26.390625 138.8125 23.152344 L 146.84375 15.132812 C 150.082031 11.898438 150.078125 6.605469 146.84375 3.375 Z M 146.84375 3.375 "/><path style=" stroke:none;fill-rule:evenodd;fill:#4a6ff4;fill-opacity:1;" d="M 134.035156 37.105469 C 119.597656 53.160156 59.828125 110.695312 43.484375 124.847656 C 35.222656 132.003906 29.285156 133.78125 22.792969 127.324219 C 16.304688 120.867188 18.0625 114.902344 25.242188 106.625 C 39.410156 90.296875 97.003906 30.589844 113.074219 16.164062 C 123.898438 6.449219 130.488281 2.75 138.964844 11.355469 C 147.445312 19.960938 143.6875 26.375 134.035156 37.105469 Z M 134.035156 37.105469 "/><path style=" stroke:none;fill-rule:evenodd;fill:#fdbe01;fill-opacity:1;" d="M 90.1875 81 C 86.796875 84.28125 83.394531 87.554688 80.042969 90.765625 L 59.359375 70.105469 C 62.574219 66.757812 65.851562 63.355469 69.136719 59.96875 Z M 90.1875 81 "/><path style=" stroke:none;fill-rule:evenodd;fill:#fdbe01;fill-opacity:1;" d="M 139.792969 30.152344 L 120.042969 10.421875 C 118.34375 11.636719 116.550781 13.105469 114.625 14.792969 L 135.410156 35.558594 C 137.101562 33.632812 138.578125 31.84375 139.792969 30.152344 Z M 139.792969 30.152344 "/><path style=" stroke:none;fill-rule:evenodd;fill:#000000;fill-opacity:1;" d="M 119.515625 10.089844 C 119.277344 9.851562 118.976562 9.453125 118.628906 9.003906 C 118.046875 8.234375 117.378906 7.359375 116.507812 6.449219 C 112.933594 2.722656 107.832031 0.0195312 100.355469 7.179688 C 95.847656 11.496094 87.484375 20.746094 80.148438 29.476562 C 73.78125 37.046875 66.109375 45.660156 67.136719 51.804688 C 71.554688 52.769531 74.800781 51.816406 78.363281 48.863281 C 80.660156 46.964844 82.164062 43.441406 82.675781 37.953125 C 83.679688 36.730469 84.722656 35.476562 85.785156 34.210938 C 93.066406 25.546875 101.207031 16.519531 105.4375 12.464844 C 108.398438 9.628906 110.101562 10.371094 111.214844 11.53125 C 111.75 12.085938 112.304688 12.816406 112.792969 13.453125 C 113.34375 14.175781 113.832031 14.816406 114.304688 15.292969 Z M 119.515625 10.089844 "/></g></svg>