<svg xmlns="http://www.w3.org/2000/svg" xmlns:xlink="http://www.w3.org/1999/xlink" width="200" zoomAndPan="magnify" viewBox="0 0 150 149.999998" height="200" preserveAspectRatio="xMidYMid meet" version="1.2"><defs><clipPath id="9c36626ba1"><path d="M 128 0.273438 L 150 0.273438 L 150 21 L 128 21 Z M 128 0.273438 "/></clipPath><clipPath id="4f1c3a6139"><path d="M 0 125 L 23 125 L 23 149.523438 L 0 149.523438 Z M 0 125 "/></clipPath><clipPath id="9fa91f2e3f"><path d="M 0 0.273438 L 150 0.273438 L 150 149.523438 L 0 149.523438 Z M 0 0.273438 "/></clipPath></defs><g id="93e4b71846"><g clip-rule="nonzero" clip-path="url(#9c36626ba1)"><path style=" stroke:none;fill-rule:nonzero;fill:#ff6d6d;fill-opacity:1;" d="M 149.523438 9.21875 C 149.328125 9.738281 149.113281 10.015625 148.734375 10.390625 C 148.03125 11.089844 147.328125 11.792969 146.625 12.496094 C 146.316406 12.800781 146.011719 13.105469 145.703125 13.410156 C 145.488281 13.628906 145.269531 13.84375 145.054688 14.058594 C 143.234375 15.875 141.414062 17.691406 139.589844 19.507812 C 139.214844 19.878906 138.84375 20.25 138.46875 20.625 C 138.394531 20.558594 138.316406 20.496094 138.238281 20.429688 C 136.996094 19.375 135.742188 18.285156 134.539062 17.21875 C 133.746094 16.515625 132.976562 15.828125 132.246094 15.167969 C 131.109375 14.144531 130.074219 13.195312 129.214844 12.402344 C 129.140625 12.335938 129.066406 12.265625 128.996094 12.199219 C 128.988281 12.195312 128.980469 12.1875 128.972656 12.175781 C 130.359375 10.792969 131.75 9.410156 133.152344 8.039062 C 133.753906 7.449219 134.359375 6.863281 134.96875 6.273438 C 135.085938 6.160156 135.203125 6.046875 135.324219 5.933594 L 135.328125 5.929688 C 136.542969 4.765625 137.914062 3.65625 139.011719 2.378906 C 139.675781 1.609375 140.605469 0.898438 141.625 0.695312 C 143.175781 0.382812 144.523438 1.175781 145.714844 2.089844 C 146.960938 3.046875 148.089844 4.265625 148.921875 5.601562 C 149.613281 6.707031 149.996094 7.921875 149.523438 9.21875 Z M 149.523438 9.21875 "/></g><path style=" stroke:none;fill-rule:nonzero;fill:#a3bcf9;fill-opacity:1;" d="M 145.054688 14.058594 C 143.234375 15.875 141.414062 17.691406 139.589844 19.507812 C 139.03125 20.058594 138.480469 20.617188 137.921875 21.167969 C 137.917969 21.179688 137.914062 21.1875 137.902344 21.191406 C 136.378906 22.707031 134.855469 24.226562 133.332031 25.746094 C 133.328125 25.75 133.328125 25.75 133.328125 25.75 C 133.070312 26.003906 132.816406 26.261719 132.558594 26.515625 C 132.234375 26.835938 131.914062 27.160156 131.589844 27.480469 C 131.515625 27.414062 131.441406 27.351562 131.367188 27.28125 C 128.191406 24.523438 125.078125 21.332031 122.753906 18.835938 C 122.6875 18.761719 122.617188 18.6875 122.550781 18.617188 C 126.082031 15.089844 129.582031 11.527344 133.148438 8.039062 C 133.753906 7.449219 134.359375 6.863281 134.964844 6.273438 C 135.109375 6.289062 135.246094 6.300781 135.375 6.3125 C 134.738281 6.9375 134.105469 7.558594 133.46875 8.183594 C 133.328125 8.324219 133.179688 8.464844 133.035156 8.609375 C 134.699219 9.625 136.265625 10.785156 137.726562 12.078125 C 137.808594 12.148438 137.890625 12.21875 137.972656 12.292969 C 137.972656 12.296875 137.976562 12.296875 137.976562 12.296875 C 138.453125 12.722656 138.921875 13.167969 139.375 13.625 C 139.382812 13.628906 139.386719 13.636719 139.394531 13.640625 C 139.414062 13.660156 139.4375 13.675781 139.457031 13.699219 C 139.464844 13.707031 139.472656 13.714844 139.476562 13.722656 C 139.480469 13.726562 139.480469 13.726562 139.480469 13.726562 C 140.394531 14.644531 141.257812 15.609375 142.066406 16.617188 C 142.265625 16.417969 142.460938 16.222656 142.65625 16.027344 C 143.382812 15.304688 144.105469 14.585938 144.832031 13.863281 C 144.90625 13.929688 144.980469 13.996094 145.054688 14.058594 Z M 145.054688 14.058594 "/><g clip-rule="nonzero" clip-path="url(#4f1c3a6139)"><path style=" stroke:none;fill-rule:nonzero;fill:#ffd9d0;fill-opacity:1;" d="M 22.671875 135.605469 C 22.59375 135.800781 22.523438 136.011719 22.460938 136.238281 C 21.558594 137.132812 20.660156 138.027344 19.761719 138.925781 C 19.75 138.933594 19.742188 138.945312 19.730469 138.949219 C 19.722656 138.953125 19.714844 138.957031 19.707031 138.964844 C 19.539062 139.054688 19.363281 139.144531 19.195312 139.234375 C 18.472656 139.621094 17.75 140.007812 17.03125 140.390625 C 14.140625 141.933594 11.25 143.476562 8.359375 145.015625 C 7.722656 145.359375 7.089844 145.695312 6.453125 146.035156 C 6.445312 146.042969 6.433594 146.046875 6.421875 146.050781 C 4.515625 147.070312 2.609375 148.089844 0.699219 149.105469 C 0.570312 148.972656 0.441406 148.839844 0.316406 148.699219 C 1.882812 145.886719 3.445312 143.082031 5.011719 140.269531 C 6.648438 137.324219 8.285156 134.386719 9.921875 131.445312 C 10.160156 131.019531 10.398438 130.59375 10.632812 130.167969 L 10.640625 130.152344 C 10.648438 130.140625 10.65625 130.128906 10.667969 130.121094 C 10.667969 130.117188 10.671875 130.113281 10.675781 130.113281 C 12.046875 128.746094 13.417969 127.378906 14.789062 126.011719 C 15.074219 125.726562 15.355469 125.441406 15.640625 125.160156 C 15.84375 125.144531 16.011719 125.121094 16.136719 125.089844 C 17.546875 124.746094 20.414062 127.226562 21.3125 127.527344 C 22.210938 127.824219 23.410156 133.804688 22.671875 135.605469 Z M 22.671875 135.605469 "/></g><path style=" stroke:none;fill-rule:nonzero;fill:#f1b353;fill-opacity:1;" d="M 145.441406 13.253906 C 145.28125 13.410156 145.128906 13.570312 144.96875 13.726562 C 144.199219 14.492188 143.425781 15.257812 142.65625 16.027344 C 142.460938 16.222656 142.265625 16.417969 142.066406 16.617188 C 141.257812 15.609375 140.394531 14.644531 139.480469 13.726562 C 139.480469 13.726562 139.480469 13.726562 139.476562 13.722656 C 139.472656 13.714844 139.464844 13.707031 139.457031 13.699219 C 139.4375 13.675781 139.414062 13.660156 139.394531 13.640625 C 139.386719 13.636719 139.382812 13.628906 139.375 13.625 C 138.921875 13.167969 138.453125 12.722656 137.976562 12.296875 C 137.976562 12.296875 137.972656 12.296875 137.972656 12.292969 C 137.890625 12.21875 137.808594 12.148438 137.726562 12.078125 C 136.265625 10.785156 134.699219 9.625 133.035156 8.609375 C 133.179688 8.464844 133.328125 8.324219 133.46875 8.183594 C 133.359375 8.136719 133.25 8.085938 133.148438 8.039062 C 129.429688 11.675781 125.785156 15.394531 122.101562 19.0625 C 118.945312 22.207031 115.792969 25.355469 112.636719 28.5 C 109.558594 31.5625 106.488281 34.625 103.410156 37.6875 C 101.625 39.46875 99.835938 41.253906 98.046875 43.035156 C 94.410156 46.664062 90.773438 50.289062 87.128906 53.914062 C 80.402344 60.617188 73.679688 67.320312 66.957031 74.023438 L 46.058594 94.847656 C 39.910156 100.972656 33.761719 107.101562 27.613281 113.226562 C 23.625 117.203125 19.632812 121.183594 15.640625 125.160156 C 15.355469 125.441406 15.070312 125.726562 14.789062 126.011719 C 13.417969 127.378906 12.046875 128.746094 10.675781 130.113281 C 10.671875 130.117188 10.667969 130.117188 10.664062 130.121094 C 10.65625 130.128906 10.648438 130.140625 10.640625 130.152344 L 10.632812 130.167969 C 10.394531 130.59375 10.160156 131.023438 9.921875 131.445312 C 9.984375 131.53125 10.050781 131.613281 10.121094 131.699219 C 10.304688 131.367188 10.488281 131.035156 10.675781 130.707031 C 10.722656 130.617188 10.773438 130.527344 10.820312 130.441406 C 14.140625 132.691406 17.058594 135.546875 19.433594 138.769531 C 18.566406 139.234375 17.703125 139.695312 16.839844 140.15625 C 16.902344 140.234375 16.964844 140.308594 17.03125 140.390625 C 17.75 140.007812 18.472656 139.621094 19.195312 139.238281 C 19.363281 139.144531 19.539062 139.054688 19.707031 138.964844 C 19.714844 138.960938 19.71875 138.953125 19.730469 138.949219 C 19.742188 138.945312 19.75 138.933594 19.757812 138.925781 C 20.660156 138.03125 21.558594 137.132812 22.460938 136.238281 C 23.320312 135.382812 24.179688 134.523438 25.039062 133.667969 C 29.609375 129.113281 34.175781 124.5625 38.742188 120.007812 C 45.058594 113.714844 51.371094 107.421875 57.683594 101.132812 C 64.671875 94.164062 71.664062 87.195312 78.65625 80.230469 C 85.261719 73.644531 91.871094 67.0625 98.476562 60.480469 C 103.632812 55.34375 108.785156 50.207031 113.933594 45.070312 C 114.089844 44.917969 114.242188 44.769531 114.394531 44.617188 C 116.878906 42.136719 119.367188 39.660156 121.855469 37.179688 C 125.421875 33.625 128.988281 30.070312 132.558594 26.519531 C 132.816406 26.261719 133.070312 26.007812 133.328125 25.753906 C 133.328125 25.75 133.328125 25.75 133.332031 25.746094 C 134.855469 24.226562 136.378906 22.710938 137.902344 21.195312 C 137.914062 21.1875 137.917969 21.179688 137.921875 21.167969 C 138.480469 20.617188 139.03125 20.0625 139.589844 19.507812 C 141.414062 17.691406 143.230469 15.875 145.054688 14.0625 C 145.269531 13.84375 145.488281 13.628906 145.703125 13.414062 C 145.617188 13.359375 145.527344 13.304688 145.441406 13.253906 Z M 137.808594 20.859375 C 135.316406 17.6875 132.296875 14.886719 128.871094 12.746094 C 128.90625 12.707031 128.945312 12.667969 128.980469 12.632812 C 129.269531 12.34375 129.558594 12.058594 129.847656 11.769531 C 130.152344 11.460938 130.464844 11.152344 130.773438 10.847656 C 131.464844 10.160156 132.164062 9.472656 132.859375 8.785156 C 132.898438 8.878906 133.480469 9.230469 133.589844 9.300781 C 134.957031 10.171875 136.253906 11.15625 137.476562 12.234375 C 137.484375 12.253906 137.496094 12.273438 137.519531 12.289062 C 137.820312 12.53125 138.085938 12.859375 138.371094 13.128906 C 138.65625 13.394531 138.964844 13.640625 139.25 13.910156 C 139.257812 13.917969 139.265625 13.925781 139.273438 13.929688 C 140.183594 14.847656 141.046875 15.816406 141.859375 16.820312 C 140.507812 18.167969 139.160156 19.515625 137.808594 20.859375 Z M 137.808594 20.859375 "/><g clip-rule="nonzero" clip-path="url(#9fa91f2e3f)"><path style=" stroke:none;fill-rule:nonzero;fill:#122026;fill-opacity:1;" d="M 0.207031 149.410156 L 0.171875 149.402344 L 0.128906 149.390625 L 0.109375 149.375 L 0.0859375 149.375 L 0.0703125 149.351562 C 0.0546875 149.335938 0.0429688 149.324219 0.0351562 149.308594 L 0.0234375 149.292969 C 0.0234375 149.292969 0.0234375 149.273438 0.0234375 149.273438 C 0.0195312 149.273438 0.0078125 149.253906 0.00390625 149.226562 C -0.00390625 149.144531 0.015625 149.097656 0.0507812 149.058594 L 0.253906 148.691406 L 6.160156 138.078125 C 7.398438 135.859375 8.632812 133.636719 9.867188 131.417969 C 10.046875 131.105469 10.21875 130.789062 10.394531 130.476562 L 10.582031 130.140625 C 10.597656 130.105469 10.613281 130.089844 10.625 130.078125 L 11.035156 129.667969 C 12.273438 128.4375 13.507812 127.203125 14.746094 125.96875 L 27.574219 113.183594 C 33.722656 107.054688 39.871094 100.929688 46.019531 94.804688 L 66.914062 73.976562 C 73.636719 67.277344 80.359375 60.574219 87.085938 53.871094 C 90.730469 50.246094 94.367188 46.621094 98.003906 42.988281 C 99.34375 41.660156 100.679688 40.328125 102.015625 38.996094 L 103.367188 37.644531 L 112.59375 28.457031 L 115.582031 25.476562 C 117.742188 23.324219 119.898438 21.171875 122.058594 19.019531 L 122.507812 18.574219 C 123.699219 17.386719 124.882812 16.195312 126.070312 15.003906 C 127.023438 14.046875 127.972656 13.089844 128.929688 12.132812 C 130.171875 10.890625 131.644531 9.425781 133.109375 7.996094 C 133.640625 7.476562 134.171875 6.960938 134.703125 6.445312 L 134.925781 6.230469 C 134.996094 6.164062 135.066406 6.09375 135.136719 6.027344 L 135.28125 5.886719 C 135.675781 5.511719 136.085938 5.140625 136.484375 4.777344 C 137.339844 4.007812 138.222656 3.207031 138.964844 2.339844 C 139.421875 1.808594 140.375 0.882812 141.613281 0.636719 C 141.84375 0.589844 142.082031 0.566406 142.3125 0.566406 C 143.644531 0.566406 144.800781 1.3125 145.75 2.042969 C 147.039062 3.03125 148.152344 4.25 148.96875 5.566406 C 149.796875 6.894531 149.996094 8.097656 149.578125 9.238281 C 149.382812 9.765625 149.15625 10.054688 148.777344 10.433594 C 148.074219 11.132812 147.371094 11.835938 146.667969 12.539062 C 146.417969 12.78125 146.171875 13.027344 145.929688 13.273438 L 145.746094 13.453125 C 145.605469 13.597656 145.457031 13.742188 145.3125 13.886719 C 145.3125 13.886719 140.542969 18.640625 139.632812 19.546875 C 139.382812 19.796875 139.132812 20.046875 138.882812 20.296875 L 138.511719 20.667969 C 138.332031 20.847656 138.148438 21.027344 137.964844 21.210938 L 137.9375 21.242188 C 136.421875 22.75 134.898438 24.269531 133.375 25.789062 C 133.132812 26.027344 132.902344 26.257812 132.667969 26.492188 L 128.023438 31.117188 C 125.980469 33.152344 123.9375 35.1875 121.898438 37.222656 L 119.304688 39.804688 C 117.679688 41.421875 116.058594 43.039062 114.4375 44.65625 C 114.285156 44.808594 114.132812 44.957031 113.976562 45.109375 L 108.8125 50.261719 C 105.382812 53.679688 101.953125 57.101562 98.519531 60.519531 L 92.125 66.894531 C 87.648438 71.351562 83.175781 75.808594 78.699219 80.269531 C 71.707031 87.238281 64.714844 94.207031 57.726562 101.175781 L 38.785156 120.046875 C 34.734375 124.085938 30.683594 128.125 26.636719 132.160156 L 24.667969 134.121094 C 23.949219 134.839844 23.222656 135.558594 22.503906 136.277344 C 21.898438 136.878906 21.292969 137.484375 20.6875 138.085938 L 19.800781 138.964844 C 19.792969 138.976562 19.777344 138.992188 19.757812 139.003906 C 19.757812 139.003906 19.324219 139.234375 19.222656 139.289062 C 18.5 139.671875 17.78125 140.058594 17.058594 140.441406 C 14.171875 141.988281 11.277344 143.53125 8.386719 145.070312 C 7.753906 145.410156 7.121094 145.746094 6.488281 146.082031 C 6.480469 146.089844 6.460938 146.101562 6.4375 146.109375 L 0.324219 149.375 C 0.277344 149.40625 0.234375 149.410156 0.21875 149.410156 Z M 3.949219 142.910156 C 4.546875 143.308594 5.03125 143.722656 5.429688 144.175781 C 5.644531 144.417969 5.917969 144.742188 6.144531 145.101562 C 6.175781 145.148438 6.214844 145.203125 6.257812 145.261719 C 6.332031 145.371094 6.421875 145.492188 6.484375 145.613281 L 6.691406 145.503906 C 7.175781 145.246094 7.65625 144.988281 8.140625 144.730469 L 10.289062 143.585938 C 12.460938 142.425781 14.636719 141.261719 16.808594 140.101562 C 17.65625 139.652344 18.5 139.203125 19.34375 138.75 C 16.941406 135.496094 14.082031 132.726562 10.84375 130.527344 L 10.171875 131.730469 C 8.699219 134.378906 7.222656 137.027344 5.75 139.675781 L 5.179688 140.699219 C 4.769531 141.4375 4.359375 142.175781 3.949219 142.910156 Z M 11.097656 130.199219 C 14.359375 132.421875 17.246094 135.214844 19.675781 138.503906 C 20.53125 137.652344 21.382812 136.804688 22.238281 135.953125 L 22.628906 135.5625 C 25.757812 132.441406 28.886719 129.324219 32.015625 126.207031 L 35.480469 122.753906 C 41.179688 117.074219 46.878906 111.394531 52.578125 105.714844 L 73.355469 85.007812 C 73.355469 85.007812 90.222656 68.199219 93.746094 64.691406 L 100.238281 58.21875 C 103.671875 54.792969 107.105469 51.371094 110.542969 47.945312 L 113.355469 45.144531 C 114.761719 43.738281 116.175781 42.335938 117.585938 40.929688 C 118.578125 39.941406 119.570312 38.953125 120.5625 37.964844 C 122.253906 36.277344 123.953125 34.585938 125.648438 32.898438 L 128.929688 29.628906 C 129.726562 28.832031 130.527344 28.035156 131.324219 27.238281 L 132.949219 25.621094 C 130.460938 22.355469 127.519531 19.617188 124.199219 17.480469 C 124.074219 17.605469 123.945312 17.734375 123.820312 17.859375 L 122.796875 18.875 C 121.007812 20.660156 119.214844 22.441406 117.425781 24.226562 C 116.074219 25.574219 99.210938 42.382812 98.011719 43.578125 C 95.214844 46.371094 92.410156 49.160156 89.605469 51.953125 L 87.871094 53.683594 C 81.824219 59.710938 75.777344 65.734375 69.730469 71.761719 C 62.742188 78.730469 55.75 85.699219 48.753906 92.667969 L 16.179688 125.132812 C 14.484375 126.820312 12.789062 128.507812 11.097656 130.199219 Z M 128.964844 12.734375 C 130.117188 13.457031 131.234375 14.261719 132.285156 15.121094 C 133.082031 15.773438 133.851562 16.464844 134.582031 17.175781 C 135.714844 18.277344 136.804688 19.488281 137.8125 20.769531 L 141.777344 16.816406 C 140.964844 15.816406 140.105469 14.859375 139.230469 13.96875 C 139.0625 13.816406 138.910156 13.683594 138.753906 13.550781 C 138.613281 13.425781 138.46875 13.304688 138.332031 13.175781 C 138.214844 13.066406 138.101562 12.949219 137.988281 12.828125 C 137.828125 12.65625 137.660156 12.480469 137.480469 12.335938 C 137.453125 12.3125 137.4375 12.292969 137.425781 12.269531 C 136.199219 11.191406 134.898438 10.207031 133.554688 9.351562 L 133.496094 9.3125 C 133.136719 9.089844 132.941406 8.957031 132.855469 8.871094 C 132.171875 9.542969 131.492188 10.214844 130.8125 10.890625 C 130.503906 11.195312 130.195312 11.503906 129.886719 11.8125 L 129.6875 12.015625 C 129.542969 12.15625 129.398438 12.300781 129.257812 12.441406 C 129.1875 12.507812 129.125 12.574219 129.054688 12.640625 C 129.058594 12.640625 128.984375 12.710938 128.964844 12.734375 Z M 139.53125 13.691406 C 140.414062 14.578125 141.269531 15.53125 142.074219 16.527344 L 144.925781 13.683594 C 145.03125 13.582031 145.132812 13.476562 145.234375 13.375 L 145.398438 13.210938 C 145.765625 12.847656 146.128906 12.484375 146.492188 12.121094 L 146.574219 12.039062 C 146.808594 11.808594 147.058594 11.578125 147.300781 11.359375 C 148.367188 10.382812 149.472656 9.375 149.367188 7.8125 C 149.265625 6.308594 148.144531 4.945312 147.0625 3.816406 C 145.800781 2.488281 144.140625 0.960938 142.464844 0.960938 L 142.390625 0.964844 C 140.824219 1.011719 139.726562 2.125 138.664062 3.203125 C 138.453125 3.417969 138.242188 3.628906 138.03125 3.832031 C 137.265625 4.566406 136.5 5.304688 135.738281 6.046875 L 135.628906 6.15625 C 135.558594 6.222656 135.488281 6.292969 135.417969 6.359375 C 134.78125 6.980469 134.148438 7.601562 133.511719 8.226562 C 133.511719 8.226562 133.230469 8.5 133.132812 8.597656 C 134.75 9.589844 136.308594 10.742188 137.765625 12.035156 C 137.847656 12.101562 137.925781 12.171875 138.007812 12.242188 L 138.015625 12.25 C 138.488281 12.671875 138.960938 13.121094 139.417969 13.582031 C 139.457031 13.617188 139.480469 13.636719 139.5 13.65625 C 139.507812 13.664062 139.519531 13.675781 139.527344 13.691406 Z M 106.46875 46.054688 C 106.0625 46.054688 105.679688 45.960938 105.335938 45.777344 C 105.199219 45.707031 105.074219 45.625 104.960938 45.535156 C 104.003906 44.765625 103.496094 43.257812 104.304688 42.070312 C 104.554688 41.695312 104.886719 41.386719 105.207031 41.085938 C 105.277344 41.019531 105.347656 40.953125 105.417969 40.886719 C 105.859375 40.460938 111.542969 35.015625 111.542969 35.015625 C 112.042969 34.535156 112.757812 34.25 113.453125 34.25 C 113.933594 34.25 114.390625 34.386719 114.769531 34.640625 C 115.660156 35.246094 116.152344 36.320312 115.992188 37.320312 C 115.9375 37.652344 115.816406 37.964844 115.628906 38.242188 C 115.355469 38.648438 114.988281 38.988281 114.636719 39.320312 C 114.546875 39.402344 114.460938 39.480469 114.375 39.566406 C 113.867188 40.046875 113.367188 40.527344 112.863281 41.007812 L 108.375 45.308594 L 108.355469 45.328125 C 108.335938 45.34375 108.324219 45.355469 108.304688 45.363281 C 108.210938 45.449219 108.085938 45.539062 107.957031 45.621094 C 107.5 45.90625 106.984375 46.054688 106.46875 46.054688 Z M 106.46875 46.054688 "/></g></g></svg>