<svg xmlns="http://www.w3.org/2000/svg" xmlns:xlink="http://www.w3.org/1999/xlink" width="200" zoomAndPan="magnify" viewBox="0 0 150 149.999998" height="200" preserveAspectRatio="xMidYMid meet" version="1.2"><defs><clipPath id="b5d729439f"><path d="M 0 0.046875 L 150 0.046875 L 150 149.953125 L 0 149.953125 Z M 0 0.046875 "/></clipPath></defs><g id="bde5f51b24"><path style=" stroke:none;fill-rule:nonzero;fill:#c8e2f8;fill-opacity:1;" d="M 11.351562 38.125 L 15.335938 34.140625 C 16.28125 33.191406 17.816406 33.191406 18.761719 34.140625 C 19.703125 35.082031 19.703125 36.613281 18.761719 37.558594 L 14.769531 41.542969 L 21.296875 48.070312 L 31.105469 38.25 C 32.050781 37.304688 33.582031 37.304688 34.527344 38.25 C 35.472656 39.195312 35.472656 40.726562 34.527344 41.671875 L 24.714844 51.492188 L 31.238281 58.011719 L 35.222656 54.023438 C 36.167969 53.078125 37.699219 53.078125 38.644531 54.023438 C 39.589844 54.96875 39.589844 56.5 38.644531 57.445312 L 34.660156 61.433594 L 41.179688 67.953125 L 50.992188 58.132812 C 51.9375 57.1875 53.46875 57.1875 54.414062 58.132812 C 55.355469 59.078125 55.355469 60.609375 54.414062 61.554688 L 44.597656 71.375 L 51.117188 77.890625 L 55.097656 73.910156 C 56.042969 72.960938 57.574219 72.960938 58.519531 73.910156 C 59.464844 74.851562 59.464844 76.382812 58.519531 77.328125 L 54.539062 81.3125 L 61.058594 87.832031 L 70.878906 78.015625 C 71.820312 77.066406 73.351562 77.066406 74.296875 78.015625 C 75.246094 78.960938 75.246094 80.492188 74.296875 81.4375 L 64.480469 91.257812 L 71 97.777344 L 74.980469 93.789062 C 75.929688 92.84375 77.460938 92.84375 78.402344 93.789062 C 79.347656 94.734375 79.347656 96.265625 78.402344 97.210938 L 74.417969 101.199219 L 80.941406 107.71875 L 90.757812 97.898438 C 91.703125 96.953125 93.230469 96.953125 94.175781 97.898438 C 95.121094 98.84375 95.121094 100.375 94.175781 101.320312 L 84.363281 111.140625 L 90.878906 117.65625 L 94.867188 113.671875 C 95.8125 112.726562 97.34375 112.726562 98.289062 113.671875 C 99.230469 114.617188 99.230469 116.148438 98.289062 117.09375 L 94.300781 121.078125 L 100.820312 127.597656 L 110.640625 117.78125 C 111.585938 116.839844 113.117188 116.839844 114.0625 117.78125 C 115.007812 118.730469 115.007812 120.261719 114.0625 121.207031 L 104.242188 131.019531 L 110.761719 137.542969 L 114.75 133.554688 C 115.695312 132.609375 117.226562 132.609375 118.171875 133.554688 C 119.117188 134.5 119.117188 136.03125 118.171875 136.976562 L 114.1875 140.964844 L 116.925781 143.703125 C 118.753906 145.527344 121.976562 145.527344 123.800781 143.703125 L 143.746094 123.753906 C 143.933594 123.566406 144.097656 123.367188 144.25 123.15625 L 34.492188 13.390625 C 31.675781 10.574219 26.980469 10.667969 24.046875 13.597656 L 5.539062 32.109375 C 5.738281 32.4375 5.972656 32.746094 6.25 33.023438 L 11.351562 38.125 "/><path style=" stroke:none;fill-rule:nonzero;fill:#02a9f4;fill-opacity:1;" d="M 34.492188 13.390625 L 144.25 123.15625 C 144.839844 122.339844 145.164062 121.355469 145.164062 120.320312 C 145.164062 119.015625 144.660156 117.792969 143.75 116.882812 L 33.074219 6.203125 C 32.160156 5.289062 30.941406 4.789062 29.640625 4.789062 C 28.335938 4.789062 27.113281 5.289062 26.199219 6.207031 L 6.25 26.152344 C 5.339844 27.066406 4.839844 28.285156 4.839844 29.589844 C 4.839844 30.496094 5.085938 31.359375 5.539062 32.109375 L 24.046875 13.597656 C 26.980469 10.667969 31.675781 10.574219 34.492188 13.390625 "/><g clip-rule="nonzero" clip-path="url(#b5d729439f)"><path style=" stroke:none;fill-rule:nonzero;fill:#000000;fill-opacity:1;" d="M 116.925781 143.703125 L 114.1875 140.964844 L 118.171875 136.976562 C 119.117188 136.03125 119.117188 134.5 118.171875 133.554688 C 117.226562 132.609375 115.695312 132.609375 114.75 133.554688 L 110.761719 137.542969 L 104.242188 131.019531 L 114.0625 121.207031 C 115.007812 120.261719 115.007812 118.730469 114.0625 117.78125 C 113.117188 116.839844 111.585938 116.839844 110.640625 117.78125 L 100.820312 127.597656 L 94.300781 121.078125 L 98.289062 117.09375 C 99.230469 116.148438 99.230469 114.617188 98.289062 113.671875 C 97.34375 112.726562 95.8125 112.726562 94.867188 113.671875 L 90.878906 117.65625 L 84.363281 111.140625 L 94.175781 101.320312 C 95.121094 100.375 95.121094 98.84375 94.175781 97.898438 C 93.230469 96.953125 91.703125 96.953125 90.757812 97.898438 L 80.941406 107.71875 L 74.417969 101.199219 L 78.402344 97.210938 C 79.347656 96.265625 79.347656 94.734375 78.402344 93.789062 C 77.460938 92.84375 75.929688 92.84375 74.980469 93.789062 L 71 97.777344 L 64.480469 91.257812 L 74.296875 81.4375 C 75.246094 80.492188 75.246094 78.960938 74.296875 78.015625 C 73.351562 77.066406 71.820312 77.066406 70.878906 78.015625 L 61.058594 87.832031 L 54.539062 81.3125 L 58.519531 77.328125 C 59.464844 76.382812 59.464844 74.851562 58.519531 73.910156 C 57.574219 72.960938 56.042969 72.960938 55.097656 73.910156 L 51.117188 77.890625 L 44.597656 71.375 L 54.414062 61.554688 C 55.355469 60.609375 55.355469 59.078125 54.414062 58.132812 C 53.46875 57.1875 51.9375 57.1875 50.992188 58.132812 L 41.179688 67.953125 L 34.660156 61.433594 L 38.644531 57.445312 C 39.589844 56.5 39.589844 54.96875 38.644531 54.023438 C 37.699219 53.078125 36.167969 53.078125 35.222656 54.023438 L 31.238281 58.011719 L 24.714844 51.492188 L 34.527344 41.671875 C 35.472656 40.726562 35.472656 39.195312 34.527344 38.25 C 33.582031 37.304688 32.050781 37.304688 31.105469 38.25 L 21.296875 48.070312 L 14.769531 41.542969 L 18.761719 37.558594 C 19.703125 36.613281 19.703125 35.082031 18.761719 34.140625 C 17.816406 33.191406 16.28125 33.191406 15.335938 34.140625 L 11.351562 38.125 L 6.25 33.023438 C 5.972656 32.746094 5.738281 32.4375 5.539062 32.109375 C 5.085938 31.359375 4.839844 30.496094 4.839844 29.589844 C 4.839844 28.285156 5.339844 27.066406 6.25 26.152344 L 26.199219 6.207031 C 27.113281 5.289062 28.335938 4.789062 29.640625 4.789062 C 30.941406 4.789062 32.160156 5.289062 33.074219 6.203125 L 143.75 116.882812 C 144.660156 117.792969 145.164062 119.015625 145.164062 120.320312 C 145.164062 121.355469 144.839844 122.339844 144.25 123.15625 C 144.097656 123.367188 143.933594 123.566406 143.746094 123.753906 L 123.800781 143.703125 C 121.976562 145.527344 118.753906 145.527344 116.925781 143.703125 Z M 147.167969 113.457031 L 36.496094 2.78125 C 32.835938 -0.867188 26.429688 -0.871094 22.777344 2.785156 L 2.835938 22.734375 C 1.003906 24.558594 0 26.988281 0 29.589844 C 0 32.183594 1.003906 34.621094 2.832031 36.445312 L 113.507812 147.125 C 115.335938 148.953125 117.769531 149.953125 120.367188 149.953125 C 122.960938 149.953125 125.394531 148.949219 127.222656 147.125 L 147.164062 127.179688 C 148.996094 125.351562 150.003906 122.921875 150.003906 120.320312 C 150.003906 117.722656 148.996094 115.285156 147.167969 113.457031 "/></g></g></svg>