<svg xmlns="http://www.w3.org/2000/svg" xmlns:xlink="http://www.w3.org/1999/xlink" width="200" zoomAndPan="magnify" viewBox="0 0 150 149.999998" height="200" preserveAspectRatio="xMidYMid meet" version="1.2"><g id="3af1cf8535"><path style=" stroke:none;fill-rule:nonzero;fill:#d5dbd5;fill-opacity:1;" d="M 12.136719 29.972656 L 57.148438 56.378906 L 54.699219 2.675781 C 54.699219 2.675781 60.703125 0.00390625 62.371094 7.503906 C 64.039062 15.003906 72.675781 64.53125 72.675781 64.53125 L 78.960938 68.171875 C 78.960938 68.171875 83.15625 78.304688 86.453125 81.34375 C 86.453125 81.34375 73.898438 78.851562 71.621094 79.453125 C 71.621094 79.453125 68.203125 85.941406 66.753906 94.285156 C 66.753906 94.285156 60.492188 83.351562 58.589844 82.207031 L 58.238281 73.933594 L 13.605469 39.816406 C 13.605469 39.816406 6.0625 34.726562 12.136719 29.972656 Z M 12.136719 29.972656 "/><path style=" stroke:none;fill-rule:nonzero;fill:#754f5b;fill-opacity:1;" d="M 72.355469 64.640625 C 72.308594 64.640625 72.265625 64.628906 72.222656 64.605469 L 57.339844 56.628906 C 57.207031 56.558594 57.152344 56.386719 57.226562 56.25 C 57.300781 56.117188 57.46875 56.0625 57.605469 56.136719 L 72.488281 64.113281 C 72.625 64.1875 72.675781 64.355469 72.601562 64.492188 C 72.550781 64.585938 72.453125 64.640625 72.355469 64.640625 Z M 72.355469 64.640625 "/><path style=" stroke:none;fill-rule:nonzero;fill:#754f5b;fill-opacity:1;" d="M 71.277344 79.664062 C 71.273438 79.664062 71.273438 79.664062 71.273438 79.664062 C 71.085938 79.660156 66.632812 79.625 65.125 79.113281 C 63.617188 78.601562 58.605469 74.523438 58.390625 74.347656 C 58.273438 74.25 58.253906 74.074219 58.351562 73.953125 C 58.449219 73.835938 58.625 73.816406 58.746094 73.914062 C 58.796875 73.957031 63.890625 78.105469 65.308594 78.582031 C 66.726562 79.066406 71.234375 79.101562 71.277344 79.101562 C 71.433594 79.105469 71.558594 79.230469 71.554688 79.386719 C 71.554688 79.539062 71.429688 79.664062 71.277344 79.664062 Z M 71.277344 79.664062 "/><path style=" stroke:none;fill-rule:nonzero;fill:#e225af;fill-opacity:1;" d="M 63.65625 142.75 C 72.183594 135.511719 72.269531 123.757812 72.269531 123.757812 C 72.269531 123.757812 74.0625 112.941406 68.671875 97.359375 C 64.394531 85 60.910156 82.648438 58.5625 81.515625 C 57.761719 81.128906 55.847656 81.015625 55.597656 86.863281 C 55.226562 95.507812 49.265625 101.949219 47.542969 104.222656 C 45.667969 106.703125 40.75 111.425781 37.339844 117.28125 C 33.929688 123.136719 32.9375 133.722656 37.621094 140.214844 C 42.308594 146.703125 55.128906 149.992188 63.65625 142.75 Z M 49.355469 137.355469 C 43.734375 136.140625 39.519531 130.574219 42.144531 121.757812 C 44.398438 114.1875 52.511719 109.355469 56.859375 110.71875 C 62.300781 112.421875 64.367188 120.566406 62.675781 126.1875 C 60.394531 133.753906 56.042969 138.800781 49.355469 137.355469 Z M 49.355469 137.355469 "/><path style=" stroke:none;fill-rule:nonzero;fill:#fca7e5;fill-opacity:1;" d="M 49.675781 143.425781 C 58.144531 144.878906 66.433594 138.199219 68.933594 127.234375 C 71.433594 116.269531 69.761719 102.640625 61.296875 101.1875 C 52.828125 99.734375 42.570312 112 38.367188 121.179688 C 32.292969 134.445312 41.210938 141.972656 49.675781 143.425781 Z M 42.144531 121.757812 C 44.398438 114.1875 52.511719 109.355469 56.859375 110.71875 C 62.300781 112.421875 64.367188 120.566406 62.675781 126.1875 C 60.394531 133.753906 56.042969 138.800781 49.355469 137.355469 C 43.734375 136.140625 39.519531 130.574219 42.144531 121.757812 Z M 42.144531 121.757812 "/><path style=" stroke:none;fill-rule:nonzero;fill:#e225af;fill-opacity:1;" d="M 140.753906 78.699219 C 137.449219 71.410156 127.761719 67.003906 120.980469 67.042969 C 114.195312 67.085938 107.648438 68.996094 104.5625 69.390625 C 101.730469 69.75 93.175781 71.710938 85.480469 67.730469 C 80.277344 65.039062 79.421875 66.753906 79.359375 67.640625 C 79.175781 70.238281 79.484375 74.425781 88.089844 84.28125 C 98.9375 96.707031 109.226562 100.53125 109.226562 100.53125 C 109.226562 100.53125 119.476562 106.304688 130.003906 102.519531 C 140.539062 98.734375 144.058594 85.988281 140.753906 78.699219 Z M 116.109375 93.429688 C 110.386719 92.097656 104.339844 86.253906 105.570312 80.691406 C 106.550781 76.246094 114.777344 71.621094 122.472656 73.4375 C 131.4375 75.546875 134.175781 81.964844 132.433594 87.441406 C 130.363281 93.957031 123.8125 95.21875 116.109375 93.429688 Z M 116.109375 93.429688 "/><path style=" stroke:none;fill-rule:nonzero;fill:#fca7e5;fill-opacity:1;" d="M 123.855469 69.875 C 113.789062 68.949219 98.035156 71.738281 95.085938 79.796875 C 92.132812 87.855469 103.136719 96.082031 113.902344 99.371094 C 124.667969 102.660156 134.59375 98.800781 137.542969 90.742188 C 140.496094 82.683594 138.398438 71.210938 123.855469 69.875 Z M 132.433594 87.441406 C 130.363281 93.957031 123.8125 95.21875 116.109375 93.429688 C 110.386719 92.097656 104.339844 86.253906 105.570312 80.691406 C 106.550781 76.246094 114.777344 71.621094 122.472656 73.4375 C 131.4375 75.546875 134.175781 81.964844 132.433594 87.441406 Z M 132.433594 87.441406 "/><path style=" stroke:none;fill-rule:nonzero;fill:#754f5b;fill-opacity:1;" d="M 66.863281 73.074219 C 66.328125 73.074219 65.804688 72.917969 65.351562 72.613281 C 64.742188 72.207031 64.328125 71.589844 64.183594 70.875 C 63.886719 69.398438 64.847656 67.953125 66.328125 67.65625 C 67.046875 67.511719 67.777344 67.65625 68.382812 68.0625 C 68.992188 68.46875 69.40625 69.085938 69.550781 69.800781 C 69.695312 70.515625 69.550781 71.246094 69.144531 71.851562 C 68.742188 72.460938 68.121094 72.875 67.40625 73.019531 C 67.222656 73.054688 67.042969 73.074219 66.863281 73.074219 Z M 66.871094 68.164062 C 66.726562 68.164062 66.582031 68.175781 66.441406 68.207031 C 65.261719 68.441406 64.496094 69.589844 64.734375 70.765625 C 64.96875 71.941406 66.117188 72.707031 67.296875 72.46875 C 67.867188 72.355469 68.355469 72.027344 68.679688 71.542969 C 69 71.058594 69.117188 70.480469 69 69.910156 C 68.886719 69.339844 68.558594 68.851562 68.074219 68.527344 C 67.710938 68.289062 67.296875 68.164062 66.871094 68.164062 Z M 66.871094 68.164062 "/></g></svg>