<svg xmlns="http://www.w3.org/2000/svg" xmlns:xlink="http://www.w3.org/1999/xlink" width="200" zoomAndPan="magnify" viewBox="0 0 150 149.999998" height="200" preserveAspectRatio="xMidYMid meet" version="1.2"><defs><clipPath id="9229131e46"><path d="M 0 5.453125 L 150 5.453125 L 150 143 L 0 143 Z M 0 5.453125 "/></clipPath></defs><g id="c278452851"><path style=" stroke:none;fill-rule:nonzero;fill:#9ed7cc;fill-opacity:1;" d="M 143.664062 64.351562 C 142.65625 64.707031 141.484375 64.582031 140.484375 63.640625 C 134.613281 58.113281 129.242188 52.074219 123.757812 46.171875 C 123.109375 45.464844 122.855469 44.679688 122.882812 43.925781 C 114.863281 36.238281 104.789062 31.0625 94.917969 26.027344 C 94.242188 25.679688 93.796875 25.207031 93.550781 24.683594 C 87.792969 22 82.070312 19.242188 76.382812 16.414062 C 75.8125 16.128906 75.410156 15.761719 75.144531 15.34375 C 74.894531 15.695312 74.574219 15.988281 74.167969 16.183594 C 60.539062 22.828125 47.257812 30.09375 34.011719 37.453125 C 30.910156 40.605469 27.855469 43.808594 24.816406 47.027344 C 24.75 47.664062 24.445312 48.304688 23.820312 48.871094 C 21.199219 51.246094 18.703125 53.75 16.359375 56.398438 C 14.386719 58.636719 11.722656 61.203125 10.769531 64.09375 C 9.789062 67.078125 5.941406 66.796875 4.753906 64.753906 C 4.105469 64.484375 3.523438 64.050781 3.074219 63.480469 C 0.84375 60.632812 4.171875 57.246094 5.863281 54.972656 C 9.257812 50.410156 13.066406 46.207031 17.335938 42.441406 C 17.988281 41.863281 18.710938 41.613281 19.410156 41.601562 C 20.652344 39.976562 21.898438 38.359375 23.175781 36.765625 C 23.777344 36.011719 24.394531 35.269531 25.023438 34.535156 C 25.066406 34.414062 25.113281 34.296875 25.167969 34.179688 C 27.257812 29.761719 31.074219 26.605469 35.550781 25.042969 C 37.917969 23.558594 40.472656 22.378906 43.265625 21.636719 C 43.683594 21.523438 44.070312 21.496094 44.433594 21.53125 C 44.828125 21.308594 45.222656 21.089844 45.621094 20.871094 C 52.53125 17.054688 59.582031 13.3125 67.054688 10.726562 C 69.402344 8.929688 71.980469 7.609375 74.933594 7.109375 C 76.558594 6.832031 78.035156 7.414062 78.722656 8.964844 C 78.9375 9.457031 79.011719 10.046875 78.941406 10.621094 C 79.164062 10.679688 79.390625 10.765625 79.617188 10.878906 C 80.488281 11.308594 81.355469 11.738281 82.226562 12.167969 C 83.234375 11.359375 84.652344 11.304688 85.878906 11.875 C 98.097656 17.605469 109.859375 24.246094 121.074219 31.742188 C 121.722656 31.804688 122.382812 32.109375 122.964844 32.753906 C 130.941406 41.621094 138.75 50.691406 147.195312 59.121094 C 149.800781 61.722656 146.480469 65.597656 143.664062 64.351562 Z M 94.128906 53.085938 C 93.882812 51.054688 92.484375 48.921875 90.113281 49.082031 C 83.824219 49.511719 77.523438 49.710938 71.21875 49.644531 C 68.070312 49.617188 64.917969 49.515625 61.773438 49.367188 C 58.183594 49.199219 54.578125 50.742188 54.558594 54.878906 C 54.542969 57.742188 57.121094 59.101562 59.636719 58.738281 C 60.492188 58.617188 61.351562 58.519531 62.210938 58.433594 C 63.746094 58.976562 65.539062 58.652344 67.121094 58.59375 C 68.582031 58.539062 70.046875 58.496094 71.507812 58.46875 C 77.78125 58.34375 84.050781 58.460938 90.316406 58.792969 C 92.300781 58.902344 94.582031 56.863281 94.332031 54.789062 C 94.265625 54.222656 94.195312 53.65625 94.128906 53.085938 Z M 94.128906 53.085938 "/><path style=" stroke:none;fill-rule:nonzero;fill:#efefef;fill-opacity:1;" d="M 113.359375 81.082031 C 107.414062 81.828125 101.410156 81.632812 95.4375 81.578125 C 89.265625 81.519531 83.09375 81.472656 76.925781 81.40625 C 64.699219 81.273438 52.558594 80.625 40.378906 79.597656 C 39.828125 79.550781 39.382812 79.664062 39.027344 79.886719 C 38.214844 80.015625 37.65625 80.488281 37.335938 81.09375 C 37.019531 81.277344 36.738281 81.550781 36.523438 81.917969 C 36.097656 82.640625 36.109375 83.742188 36.585938 84.5 C 36.285156 85.828125 37.039062 87.414062 38.847656 87.496094 C 40.855469 87.589844 42.847656 87.457031 44.824219 87.140625 C 44.800781 87.632812 44.8125 88.148438 44.832031 88.679688 C 44.753906 89.027344 44.753906 89.398438 44.867188 89.796875 C 44.875 89.820312 44.882812 89.839844 44.890625 89.859375 C 45.011719 92.097656 45.21875 94.332031 45.253906 96.570312 C 45.335938 101.632812 44.9375 106.660156 45.148438 111.730469 C 45.351562 116.671875 45.695312 121.613281 45.511719 126.5625 C 45.421875 129.003906 45.203125 131.441406 44.734375 133.84375 C 44.273438 136.203125 43.652344 138.410156 44.234375 140.808594 C 44.703125 142.742188 46.800781 142.902344 48.035156 141.96875 C 53.484375 142.558594 58.976562 142.714844 64.449219 142.375 C 66.730469 142.234375 68.988281 141.964844 71.25 141.695312 C 71.628906 142.242188 72.257812 142.617188 73.144531 142.589844 C 78.429688 142.453125 83.710938 142.515625 88.992188 142.785156 C 89.964844 142.832031 90.628906 142.394531 90.988281 141.765625 C 91.238281 141.785156 91.492188 141.808594 91.742188 141.832031 C 94.175781 142.042969 96.609375 142.230469 99.054688 142.253906 C 101.609375 142.28125 104.160156 141.96875 106.710938 142.117188 C 109.773438 142.296875 109.796875 137.605469 106.8125 137.324219 C 106.8125 120.542969 106.8125 103.761719 106.8125 86.980469 C 107.804688 87.054688 108.789062 87.15625 109.777344 87.292969 C 110.113281 87.335938 110.449219 87.335938 110.769531 87.289062 C 111.59375 87.34375 112.425781 87.382812 113.253906 87.410156 C 115.0625 87.464844 115.8125 85.855469 115.511719 84.484375 C 115.992188 83.035156 115.296875 80.835938 113.359375 81.082031 Z M 53.21875 90.949219 C 55.25 90.867188 57.285156 90.730469 59.320312 90.734375 C 62.226562 90.742188 65.058594 91.582031 67.933594 91.832031 C 67.90625 91.949219 67.882812 92.070312 67.871094 92.191406 C 67.621094 94.128906 66.324219 95.542969 65.292969 97.117188 C 64.335938 98.574219 63.710938 100.203125 63.023438 101.796875 C 62.242188 103.601562 61.460938 105.410156 60.679688 107.21875 C 60.597656 107.414062 60.503906 107.617188 60.402344 107.820312 C 60.273438 107.542969 60.132812 107.273438 59.972656 107.007812 C 59.007812 105.394531 57.78125 103.949219 56.796875 102.34375 C 54.710938 98.960938 53.296875 95.242188 51.894531 91.539062 C 51.8125 91.324219 51.710938 91.136719 51.59375 90.96875 C 52.152344 90.96875 52.699219 90.96875 53.21875 90.949219 Z M 50.015625 99.703125 C 50.714844 101.269531 51.476562 102.804688 52.347656 104.28125 C 53.363281 105.992188 54.636719 107.519531 55.683594 109.207031 C 56.660156 110.78125 57.054688 112.636719 58.160156 114.125 C 58.175781 114.148438 58.195312 114.171875 58.210938 114.191406 C 58.21875 114.230469 58.226562 114.269531 58.238281 114.308594 C 58.242188 114.316406 58.246094 114.324219 58.25 114.332031 C 58.191406 114.402344 58.136719 114.472656 58.085938 114.550781 C 56.074219 117.542969 54.882812 120.9375 52.703125 123.851562 C 51.917969 124.902344 51.101562 125.925781 50.308594 126.964844 C 50.308594 126.933594 50.3125 126.902344 50.3125 126.871094 C 50.503906 122.339844 50.234375 117.808594 50.027344 113.28125 C 49.816406 108.738281 49.839844 104.246094 50.015625 99.703125 Z M 65.0625 137.53125 C 59.660156 137.902344 54.238281 137.792969 48.851562 137.253906 C 48.921875 136.785156 49.027344 136.316406 49.136719 135.851562 C 49.894531 135.894531 50.644531 135.542969 51.085938 134.625 C 52.570312 131.542969 54.828125 128.996094 56.859375 126.273438 C 58.296875 124.351562 59.300781 122.222656 60.398438 120.136719 C 62.804688 125.667969 66.097656 130.769531 70.171875 135.285156 C 70.183594 135.300781 70.199219 135.3125 70.210938 135.324219 C 70.214844 135.855469 70.21875 136.390625 70.230469 136.925781 C 68.480469 137.164062 66.742188 137.417969 65.0625 137.53125 Z M 70.363281 125.324219 C 70.324219 126.152344 70.300781 126.980469 70.273438 127.808594 C 67.191406 123.566406 64.789062 118.863281 63.152344 113.863281 C 63.753906 113.398438 64.117188 112.664062 63.921875 111.742188 C 64.460938 110.15625 65.285156 108.601562 65.949219 107.074219 C 66.699219 105.332031 67.421875 103.574219 68.207031 101.847656 C 68.859375 100.414062 69.738281 99.203125 70.609375 97.90625 C 70.550781 99.59375 70.5 101.289062 70.476562 102.980469 C 70.402344 107.886719 70.542969 112.789062 71.15625 117.65625 C 70.519531 120.132812 70.472656 122.757812 70.363281 125.324219 Z M 75.199219 136.449219 C 75.144531 136.453125 75.09375 136.453125 75.042969 136.457031 C 75.039062 136.332031 75.039062 136.210938 75.035156 136.09375 C 75.09375 136.144531 75.15625 136.191406 75.21875 136.234375 C 75.210938 136.304688 75.207031 136.378906 75.199219 136.449219 Z M 98.539062 86.417969 C 98.664062 86.519531 98.804688 86.605469 98.960938 86.675781 C 98.734375 86.675781 98.503906 86.675781 98.277344 86.679688 C 98.265625 86.589844 98.25 86.5 98.230469 86.414062 C 98.335938 86.414062 98.4375 86.414062 98.539062 86.417969 Z M 91.582031 91.554688 C 93.289062 91.542969 94.992188 91.53125 96.703125 91.515625 C 97.558594 91.511719 98.410156 91.503906 99.265625 91.496094 C 99.390625 91.496094 99.515625 91.496094 99.640625 91.496094 C 97.140625 96.660156 94.34375 101.882812 92.410156 107.328125 C 91.011719 105.648438 89.71875 103.882812 88.542969 102.023438 C 86.578125 98.90625 85.222656 95.40625 83.027344 92.441406 C 82.78125 92.105469 82.476562 91.824219 82.144531 91.625 C 85.289062 91.597656 88.433594 91.574219 91.582031 91.554688 Z M 81.710938 99.570312 C 82.664062 101.375 83.578125 103.203125 84.679688 104.914062 C 85.519531 106.214844 86.417969 107.480469 87.363281 108.710938 C 87.402344 108.953125 87.476562 109.203125 87.601562 109.460938 C 88.121094 110.523438 88.59375 111.59375 88.996094 112.699219 C 89.128906 113.0625 89.628906 114.109375 89.789062 114.867188 C 87.882812 117.765625 85.972656 120.667969 84.066406 123.566406 C 83.699219 124.125 83.335938 124.6875 82.976562 125.25 C 82.96875 120.992188 82.925781 116.722656 82.578125 112.484375 C 82.230469 108.21875 81.339844 103.863281 81.710938 99.570312 Z M 101.992188 137.386719 C 101.113281 137.425781 100.234375 137.460938 99.355469 137.457031 C 96.8125 137.445312 94.273438 137.253906 91.738281 137.03125 C 87.835938 136.691406 83.933594 136.308594 80.023438 136.371094 C 80.054688 135.984375 80.082031 135.597656 80.105469 135.210938 C 80.3125 135.351562 80.539062 135.464844 80.769531 135.527344 C 82.125 135.917969 83.261719 135.054688 83.730469 133.851562 C 84.902344 130.84375 86.800781 128.160156 88.5625 125.476562 C 89.75 123.675781 90.933594 121.871094 92.117188 120.070312 C 93.289062 122.179688 94.496094 124.269531 95.820312 126.285156 C 96.730469 127.683594 97.703125 129.042969 98.730469 130.355469 C 99.730469 131.640625 101.074219 132.890625 101.609375 134.457031 C 101.707031 134.738281 101.835938 134.980469 101.992188 135.183594 C 101.992188 135.921875 101.992188 136.65625 101.992188 137.386719 Z M 100.300781 124.355469 C 98.347656 121.421875 96.644531 118.332031 94.953125 115.242188 C 95.171875 114.980469 95.339844 114.648438 95.429688 114.230469 C 96.675781 108.421875 99.332031 102.953125 101.992188 97.582031 C 101.992188 107.261719 101.992188 116.945312 101.992188 126.625 C 101.398438 125.878906 100.816406 125.128906 100.300781 124.355469 Z M 52.363281 64.226562 L 52.378906 64.332031 L 53.089844 64.28125 L 53.761719 64.332031 L 53.773438 64.234375 L 56.683594 64.027344 L 100.617188 64.804688 L 100.148438 42.582031 L 48.652344 42.566406 L 49.039062 63.976562 Z M 94.890625 48.914062 L 94.890625 60.058594 L 59.117188 59.730469 L 59.128906 59.71875 L 54.738281 59.578125 L 54.199219 59.445312 L 54.230469 59.097656 L 53.734375 48.113281 Z M 94.890625 48.914062 "/><path style=" stroke:none;fill-rule:nonzero;fill:#ee5c59;fill-opacity:1;" d="M 132.796875 86.183594 C 132.972656 81.078125 132.902344 75.964844 132.59375 70.867188 C 132.277344 65.691406 132.382812 59.546875 129.597656 54.988281 C 128.707031 53.535156 127.128906 52.679688 125.5 52.636719 C 123.976562 50.867188 122.457031 49.09375 120.933594 47.320312 C 120.839844 46.820312 120.675781 46.316406 120.429688 45.824219 C 118.59375 42.097656 115.074219 39.859375 111.773438 37.566406 C 111.453125 37.34375 111.136719 37.121094 110.820312 36.890625 C 110.894531 36.9375 110.222656 36.40625 110.144531 36.335938 C 109.394531 35.675781 108.710938 34.953125 108.019531 34.242188 C 106.367188 32.550781 104.550781 31.054688 102.476562 29.90625 C 98.429688 27.667969 94.171875 25.785156 90.082031 23.621094 C 85.929688 21.417969 81.828125 19.117188 77.78125 16.734375 C 76.355469 15.902344 74.332031 15.808594 72.917969 16.734375 C 69.695312 18.851562 66.457031 20.953125 63.21875 23.058594 C 62.222656 22.941406 61.191406 23.117188 60.300781 23.675781 C 54.675781 27.210938 48.683594 29.804688 42.769531 32.78125 C 37.265625 35.554688 31.878906 39.5 29.234375 45.230469 C 29.09375 45.539062 28.976562 45.855469 28.886719 46.171875 C 26.890625 48.191406 25.058594 50.363281 23.5625 52.796875 C 20.078125 58.46875 19.945312 64.730469 19.578125 71.175781 C 19.21875 77.488281 18.578125 83.859375 18.597656 90.183594 C 18.605469 92.949219 18.9375 95.675781 19.460938 98.363281 C 18.769531 105.058594 18.296875 111.78125 18.125 118.511719 C 18.023438 122.359375 18.019531 126.203125 18.117188 130.050781 C 18.164062 131.90625 18.234375 133.761719 18.328125 135.617188 C 18.457031 138.179688 18.402344 140.382812 20.082031 142.488281 C 21.089844 143.75 23.289062 144.191406 24.765625 143.722656 C 24.832031 143.699219 24.894531 143.683594 24.957031 143.660156 C 25.742188 143.414062 26.496094 142.953125 27.101562 142.347656 C 27.71875 142.3125 28.34375 142.277344 28.960938 142.242188 C 30.988281 142.214844 33.011719 142.097656 35.035156 141.898438 C 35.363281 141.867188 35.691406 141.808594 36.011719 141.722656 C 36.535156 141.859375 37.058594 141.996094 37.578125 142.136719 C 40.796875 143.003906 43.425781 140.582031 43.675781 137.503906 C 44.675781 125.28125 45.515625 113.039062 43.980469 100.878906 C 44.183594 99.421875 44.398438 97.960938 44.613281 96.492188 C 44.765625 95.46875 44.683594 94.390625 44.347656 93.429688 C 44.628906 92.820312 44.816406 92.140625 44.902344 91.40625 C 45.183594 88.941406 43.1875 86.640625 40.894531 86.007812 C 39.464844 85.617188 38.125 85.945312 36.851562 86.5 C 36.691406 86.089844 36.535156 85.675781 36.386719 85.25 C 36.371094 85.199219 36.351562 85.148438 36.332031 85.09375 C 36.601562 83.777344 36.785156 82.433594 37.035156 81.050781 C 37.15625 80.402344 37.289062 79.789062 37.4375 79.195312 C 37.765625 79.1875 38.085938 79.179688 38.390625 79.171875 C 40.394531 79.109375 42.414062 78.957031 44.417969 79.066406 C 46.148438 79.160156 48.46875 79.914062 50.582031 80.070312 C 52.78125 80.234375 55.015625 79.875 57.191406 79.515625 C 65.515625 80.257812 73.894531 80.367188 82.269531 80.503906 C 88.730469 80.605469 95.191406 80.648438 101.652344 80.632812 C 104.828125 80.621094 108.007812 80.597656 111.1875 80.5625 C 112.511719 80.546875 114.0625 80.578125 115.539062 80.394531 C 115.476562 82.558594 115.4375 84.722656 115.410156 86.890625 C 113.988281 86.210938 112.257812 86.117188 110.972656 87.066406 C 109.28125 88.316406 108.105469 89.757812 107.777344 91.886719 C 107.480469 93.839844 107.550781 95.8125 107.53125 97.777344 C 107.496094 101.601562 107.457031 105.421875 107.421875 109.25 C 107.382812 113.074219 107.347656 116.894531 107.308594 120.722656 C 107.277344 124.167969 106.652344 128.265625 107.757812 131.585938 C 107.855469 131.878906 107.96875 132.160156 108.097656 132.433594 C 108.09375 132.746094 108.097656 133.066406 108.101562 133.390625 C 108.070312 134.398438 108.082031 135.402344 108.148438 136.417969 C 108.257812 138.15625 109.230469 139.855469 110.71875 140.691406 C 111.953125 141.683594 113.535156 142.113281 115.277344 142.109375 C 119.203125 142.09375 123.132812 142 127.0625 141.945312 C 130.519531 141.898438 132.121094 138.925781 131.707031 135.863281 C 130.867188 129.710938 130.390625 123.183594 130.230469 116.855469 C 130.171875 114.664062 130.164062 112.46875 130.183594 110.273438 C 131.636719 102.324219 132.519531 94.257812 132.796875 86.183594 Z M 86.746094 64.1875 C 80.976562 63.941406 75.09375 63.539062 69.472656 65.125 C 62.652344 64.550781 55.816406 63.371094 49.035156 63.976562 C 49.269531 60.160156 49.296875 56.339844 49.117188 52.515625 C 49.101562 52.152344 49.039062 51.785156 48.945312 51.433594 C 49.050781 50.65625 48.96875 49.863281 48.691406 49.117188 C 48.691406 49.117188 48.691406 49.117188 48.691406 49.113281 C 48.683594 48.675781 48.6875 48.234375 48.699219 47.800781 C 48.722656 46.925781 48.773438 46.054688 48.851562 45.179688 C 48.875 44.886719 48.859375 44.597656 48.8125 44.3125 C 49.613281 43.734375 50.425781 43.160156 51.238281 42.589844 C 54.296875 42.480469 57.359375 42.375 60.421875 42.269531 C 63.101562 43.277344 66.71875 43.0625 69.675781 42.496094 C 70.183594 42.546875 70.695312 42.601562 71.191406 42.667969 C 74.535156 43.09375 77.917969 42.964844 81.289062 42.953125 C 87.214844 42.933594 93.144531 42.910156 99.070312 42.890625 C 99.148438 43.519531 99.328125 44.148438 99.597656 44.753906 C 99.804688 45.207031 100.007812 45.667969 100.207031 46.128906 C 100.414062 52.351562 100.621094 58.574219 100.832031 64.796875 C 96.136719 64.589844 91.441406 64.390625 86.746094 64.1875 Z M 65.175781 97.265625 C 65.324219 97.648438 65.328125 98.101562 65.089844 98.566406 C 64.234375 100.226562 62.546875 105.46875 59.816406 103.976562 C 58.550781 103.28125 58.078125 101.609375 57.378906 100.441406 C 56.5625 99.078125 55.601562 97.804688 54.644531 96.539062 C 54.558594 96.425781 54.496094 96.3125 54.445312 96.199219 C 54.171875 95.964844 54.035156 95.675781 54.003906 95.375 C 53.910156 95.367188 53.8125 95.359375 53.71875 95.355469 C 51.652344 95.261719 51.648438 92.226562 53.71875 92.152344 C 54.886719 92.113281 55.984375 92.253906 57.054688 92.5625 C 58.074219 92.496094 59.09375 92.574219 60.132812 92.570312 C 61.980469 92.566406 63.796875 92.347656 65.601562 91.964844 C 67.125 91.636719 67.984375 93.3125 67.445312 94.335938 C 67.4375 94.589844 67.351562 94.863281 67.160156 95.136719 C 66.589844 95.96875 65.902344 96.621094 65.175781 97.265625 Z M 69.703125 123.0625 C 69.742188 123.152344 69.78125 123.238281 69.820312 123.324219 C 69.898438 123.425781 69.949219 123.535156 69.972656 123.644531 C 70.089844 123.886719 70.207031 124.125 70.332031 124.359375 C 70.808594 125.273438 69.425781 126.082031 68.945312 125.167969 C 68.546875 124.410156 68.195312 123.628906 67.878906 122.835938 C 67.792969 122.734375 67.714844 122.617188 67.648438 122.480469 C 67.082031 121.300781 66.601562 120.089844 66.230469 118.84375 C 65.628906 118.808594 65.042969 118.46875 64.796875 117.742188 C 64.617188 117.207031 64.390625 116.648438 64.183594 116.074219 C 64.027344 115.8125 63.90625 115.53125 63.84375 115.222656 C 63.824219 115.109375 63.8125 114.992188 63.8125 114.878906 C 63.671875 114.3125 63.589844 113.742188 63.636719 113.1875 C 63.722656 112.175781 64.34375 111.238281 64.988281 110.375 C 65.261719 109.402344 65.589844 108.445312 65.988281 107.511719 C 66.453125 106.417969 67.183594 105.378906 67.414062 104.214844 C 67.8125 102.1875 70.910156 103.054688 70.511719 105.066406 C 70.386719 105.699219 70.132812 106.28125 69.855469 106.847656 C 69.917969 107.035156 69.945312 107.25 69.925781 107.492188 C 69.890625 107.917969 69.828125 108.328125 69.75 108.734375 C 70.375 109.261719 70.691406 110.25 70.089844 111.078125 C 70.121094 114.148438 70.34375 117.207031 70.550781 120.269531 C 70.566406 120.53125 70.53125 120.757812 70.453125 120.953125 C 70.832031 121.84375 70.371094 122.671875 69.703125 123.0625 Z M 50.480469 107.4375 C 50.230469 106.597656 49.933594 105.777344 49.585938 104.972656 C 49.320312 104.351562 49.835938 103.789062 50.332031 103.75 C 50.199219 103.382812 50.058594 103.019531 49.917969 102.65625 C 49.816406 102.398438 49.855469 102.183594 49.96875 102.019531 C 49.949219 101.925781 49.929688 101.835938 49.910156 101.742188 C 49.703125 100.734375 51.152344 100.324219 51.457031 101.316406 C 51.738281 102.222656 52.03125 103.121094 52.332031 104.015625 C 52.722656 104.050781 53.074219 104.417969 53.054688 104.8125 C 53.046875 104.910156 53.046875 105.007812 53.054688 105.109375 C 53.058594 105.132812 53.0625 105.164062 53.0625 105.195312 C 53.0625 105.179688 53.066406 105.191406 53.074219 105.226562 C 53.09375 105.324219 53.125 105.417969 53.148438 105.511719 C 53.160156 105.535156 53.164062 105.558594 53.175781 105.578125 C 53.179688 105.59375 53.1875 105.609375 53.199219 105.632812 C 53.253906 105.75 53.285156 105.875 53.289062 105.992188 C 53.5 106.378906 53.710938 106.769531 53.914062 107.160156 C 54.015625 107.222656 54.117188 107.3125 54.199219 107.445312 C 55.402344 109.351562 56.496094 111.3125 57.480469 113.339844 C 57.800781 113.992188 57.15625 114.722656 56.558594 114.527344 C 56.558594 114.53125 56.558594 114.535156 56.558594 114.539062 C 56.667969 114.777344 56.660156 115.003906 56.578125 115.199219 C 56.929688 115.414062 57.148438 115.859375 56.871094 116.273438 C 55.777344 117.914062 54.679688 119.558594 53.582031 121.199219 C 53.429688 121.433594 53.214844 121.539062 53 121.566406 C 52.703125 122.003906 52.402344 122.445312 52.09375 122.882812 C 52.003906 123.011719 51.894531 123.101562 51.78125 123.160156 C 51.636719 123.707031 51.496094 124.257812 51.355469 124.804688 C 51.09375 125.804688 49.546875 125.378906 49.804688 124.378906 C 49.855469 124.191406 49.90625 124.007812 49.953125 123.816406 C 49.890625 123.675781 49.863281 123.507812 49.898438 123.320312 C 49.90625 123.289062 49.917969 123.234375 49.929688 123.164062 C 49.890625 123.03125 49.890625 122.886719 49.945312 122.730469 C 50.003906 122.582031 50.0625 122.433594 50.121094 122.28125 C 50.128906 122.269531 50.132812 122.25 50.136719 122.234375 C 50.046875 121.136719 50.09375 120.070312 50.261719 119 C 50.3125 117.738281 50.363281 116.480469 50.410156 115.21875 C 50.414062 115.15625 50.421875 115.09375 50.4375 115.035156 C 50.410156 114.660156 50.378906 114.285156 50.351562 113.910156 C 50.21875 113.128906 50.117188 112.34375 50.046875 111.546875 C 50.035156 111.429688 50.050781 111.320312 50.082031 111.226562 C 50.078125 111.203125 50.070312 111.175781 50.066406 111.148438 C 49.96875 110.71875 50.160156 110.410156 50.441406 110.265625 C 50.363281 110 50.289062 109.734375 50.222656 109.464844 C 50.105469 109.015625 50.3125 108.703125 50.613281 108.570312 C 50.574219 108.445312 50.53125 108.328125 50.492188 108.207031 C 50.414062 107.972656 50.445312 107.777344 50.535156 107.617188 C 50.519531 107.554688 50.503906 107.492188 50.480469 107.4375 Z M 68.902344 136.03125 C 68.835938 136.019531 68.773438 136.007812 68.707031 135.992188 C 68.710938 135.894531 68.6875 135.785156 68.640625 135.675781 C 68.628906 135.625 68.605469 135.574219 68.585938 135.523438 C 68.597656 135.378906 68.5625 135.226562 68.464844 135.066406 C 68.316406 134.832031 68.164062 134.597656 68.011719 134.367188 C 67.375 133.101562 66.6875 131.863281 65.960938 130.648438 C 66.164062 130.425781 66.25 130.09375 66.066406 129.738281 C 65.058594 127.785156 63.890625 125.9375 62.582031 124.183594 C 62.054688 123.34375 61.53125 122.503906 61.003906 121.664062 C 60.964844 121.601562 60.921875 121.550781 60.878906 121.507812 C 61.027344 121.125 60.902344 120.742188 60.554688 120.5 C 60.535156 120.484375 60.515625 120.46875 60.492188 120.457031 C 60.175781 120.234375 59.714844 120.359375 59.472656 120.636719 C 59.207031 120.671875 58.964844 120.847656 58.898438 121.207031 C 58.726562 122.132812 58.488281 123.054688 58.214844 123.96875 C 57.871094 123.769531 57.40625 123.792969 57.15625 124.246094 C 55.414062 127.445312 53.5 130.542969 51.414062 133.53125 C 51.152344 133.90625 51.28125 134.269531 51.550781 134.488281 C 51.390625 134.667969 51.230469 134.847656 51.0625 135.023438 C 51.058594 135.027344 51.054688 135.035156 51.050781 135.042969 C 50.882812 135.136719 50.71875 135.226562 50.542969 135.3125 C 50.332031 135.417969 50.21875 135.59375 50.175781 135.789062 C 49.289062 136.144531 49.695312 137.527344 50.679688 137.304688 C 50.773438 137.28125 50.871094 137.257812 50.964844 137.238281 C 51.015625 137.242188 51.066406 137.25 51.125 137.246094 C 56.890625 137 62.792969 136.292969 68.480469 137.585938 C 69.480469 137.808594 69.910156 136.261719 68.902344 136.03125 Z M 58.929688 130.039062 C 58.941406 130.019531 58.953125 130 58.964844 129.976562 C 58.976562 130.003906 58.980469 130.03125 58.988281 130.0625 C 58.96875 130.050781 58.949219 130.050781 58.929688 130.039062 Z M 83.953125 93.476562 C 83.585938 92.945312 83.992188 92.085938 84.804688 92.246094 C 85.679688 92.421875 86.558594 92.570312 87.4375 92.699219 C 87.875 92.628906 88.316406 92.601562 88.769531 92.628906 C 89.828125 92.152344 90.996094 92.0625 92.195312 92.148438 C 92.902344 92.199219 93.59375 92.25 94.28125 92.289062 C 94.890625 92.269531 95.5 92.285156 96.109375 92.351562 C 96.480469 92.355469 96.851562 92.347656 97.230469 92.335938 C 97.390625 92.285156 97.542969 92.28125 97.679688 92.316406 C 97.890625 92.308594 98.097656 92.296875 98.3125 92.277344 C 99.050781 92.222656 99.308594 93.175781 98.878906 93.648438 C 98.851562 93.675781 98.824219 93.707031 98.796875 93.738281 C 98.746094 93.871094 98.644531 93.992188 98.484375 94.082031 C 98.246094 94.34375 98.007812 94.609375 97.777344 94.871094 C 97.785156 95.007812 97.761719 95.152344 97.679688 95.300781 C 97.484375 95.664062 97.285156 96.019531 97.078125 96.371094 C 97.074219 96.390625 97.066406 96.414062 97.054688 96.433594 C 97.003906 96.574219 96.925781 96.691406 96.828125 96.785156 C 96.757812 96.90625 96.683594 97.023438 96.613281 97.140625 C 96.554688 97.339844 96.492188 97.542969 96.429688 97.742188 C 96.449219 97.886719 96.433594 98.042969 96.367188 98.203125 C 95.808594 99.480469 95.25 100.753906 94.691406 102.03125 C 94.597656 102.242188 94.453125 102.363281 94.292969 102.414062 C 93.949219 103.339844 93.613281 104.265625 93.273438 105.1875 C 92.984375 105.972656 92.027344 105.914062 91.722656 105.1875 C 91.542969 104.746094 91.328125 104.328125 91.101562 103.917969 C 91.0625 103.886719 91.023438 103.847656 90.984375 103.808594 C 89.585938 102.140625 88.308594 100.394531 87.148438 98.550781 C 86.964844 98.257812 87.019531 97.929688 87.203125 97.691406 C 86.777344 97.164062 86.328125 96.65625 85.84375 96.167969 C 85.625 95.949219 85.578125 95.660156 85.648438 95.40625 C 85.617188 95.367188 85.585938 95.332031 85.554688 95.292969 C 85.460938 95.195312 85.371094 95.097656 85.269531 95.003906 C 85.230469 94.96875 85.203125 94.933594 85.171875 94.898438 C 84.90625 94.855469 84.640625 94.808594 84.375 94.757812 C 83.769531 94.644531 83.675781 93.902344 83.953125 93.476562 Z M 82.125 123.613281 C 82.101562 124.058594 82.511719 124.394531 82.929688 124.414062 C 83.007812 124.417969 83.085938 124.421875 83.167969 124.425781 C 83.804688 124.457031 84.046875 123.859375 83.898438 123.386719 C 84.015625 123.265625 84.105469 123.101562 84.128906 122.894531 C 84.136719 122.839844 84.140625 122.789062 84.148438 122.734375 C 84.726562 121.582031 85.398438 120.488281 86.167969 119.453125 C 86.242188 119.355469 86.285156 119.257812 86.304688 119.160156 C 86.539062 119.160156 86.777344 119.046875 86.953125 118.777344 C 87.6875 117.660156 89.140625 116.226562 89.070312 114.78125 C 89.6875 114.75 89.996094 113.882812 89.558594 113.402344 C 89.296875 113.113281 89.027344 112.886719 88.703125 112.753906 C 88.660156 112.574219 88.613281 112.410156 88.550781 112.273438 C 87.933594 110.867188 86.96875 109.554688 86.128906 108.273438 C 85.738281 107.675781 85.328125 106.871094 84.839844 106.167969 C 84.613281 105.640625 84.390625 105.117188 84.164062 104.589844 C 84.089844 104.113281 83.9375 103.664062 83.707031 103.183594 C 83.265625 102.25 81.882812 103.0625 82.320312 103.988281 C 82.332031 104.003906 82.335938 104.019531 82.34375 104.035156 C 82.316406 104.1875 82.328125 104.351562 82.398438 104.519531 C 82.464844 104.675781 82.53125 104.828125 82.597656 104.984375 C 82.488281 105.121094 82.425781 105.296875 82.410156 105.480469 C 82.347656 105.671875 82.375 105.851562 82.453125 106.007812 C 82.460938 106.046875 82.464844 106.085938 82.472656 106.121094 C 82.460938 106.214844 82.472656 106.320312 82.503906 106.433594 C 82.523438 106.507812 82.546875 106.582031 82.566406 106.65625 C 82.625 106.96875 82.691406 107.273438 82.765625 107.582031 C 82.535156 107.753906 82.378906 108.039062 82.4375 108.394531 C 82.472656 108.597656 82.5 108.800781 82.53125 109.003906 C 82.144531 112.621094 82.109375 116.238281 82.421875 119.863281 C 82.449219 120.15625 82.601562 120.363281 82.804688 120.488281 C 82.796875 120.539062 82.792969 120.585938 82.785156 120.636719 C 82.46875 121.601562 82.179688 122.558594 82.125 123.613281 Z M 85.28125 111.226562 C 85.273438 111.226562 85.273438 111.226562 85.265625 111.226562 C 85.261719 111.207031 85.261719 111.1875 85.253906 111.167969 C 85.265625 111.1875 85.273438 111.207031 85.28125 111.226562 Z M 101.839844 113.964844 C 101.851562 114.851562 101.863281 115.734375 101.875 116.621094 C 102.195312 119.542969 102.347656 122.472656 102.328125 125.414062 C 102.320312 126.445312 100.71875 126.445312 100.722656 125.414062 C 100.726562 125.144531 100.722656 124.875 100.722656 124.609375 C 100.65625 124.546875 100.59375 124.472656 100.546875 124.371094 C 100.082031 123.417969 99.875 122.386719 99.511719 121.398438 C 98.847656 120.164062 98.21875 118.914062 97.625 117.648438 C 97.179688 117.070312 96.734375 116.5 96.277344 115.933594 C 96.035156 115.632812 96.046875 115.285156 96.183594 115.011719 C 96.152344 114.925781 96.136719 114.828125 96.136719 114.714844 C 96.144531 114.414062 96.152344 114.117188 96.160156 113.816406 C 96.164062 113.511719 96.320312 113.292969 96.527344 113.164062 C 96.480469 113.027344 96.484375 112.863281 96.558594 112.679688 C 96.777344 112.148438 97 111.617188 97.21875 111.089844 C 97.128906 110.886719 97.105469 110.652344 97.214844 110.40625 C 98.34375 107.78125 99.371094 105.117188 100.421875 102.464844 C 100.453125 102.148438 100.484375 101.839844 100.515625 101.527344 C 100.535156 101.375 100.585938 101.25 100.65625 101.140625 C 100.667969 101.085938 100.671875 101.027344 100.679688 100.964844 C 100.695312 100.878906 100.722656 100.808594 100.753906 100.742188 C 100.910156 99.777344 102.457031 99.78125 102.351562 100.789062 C 102.335938 100.941406 102.320312 101.09375 102.308594 101.242188 C 102.332031 101.328125 102.347656 101.425781 102.339844 101.535156 C 102.261719 102.636719 102.175781 103.734375 102.085938 104.832031 C 102.117188 105.632812 102.167969 106.425781 102.191406 107.207031 C 102.257812 109.214844 102.316406 111.222656 102.378906 113.230469 C 102.390625 113.640625 102.144531 113.882812 101.839844 113.964844 Z M 101.261719 135.820312 C 101.109375 135.714844 100.972656 135.613281 100.839844 135.507812 C 100.601562 135.0625 100.28125 134.738281 99.789062 134.472656 C 99.773438 134.449219 99.75 134.429688 99.734375 134.40625 C 99.472656 133.980469 99.179688 133.578125 98.847656 133.1875 C 98.027344 131.738281 97.15625 130.316406 96.222656 128.9375 C 95.628906 127.773438 95.042969 126.609375 94.457031 125.441406 C 94.3125 124.859375 94.175781 124.273438 94.058594 123.679688 C 94.035156 123.554688 93.980469 123.453125 93.910156 123.371094 C 93.890625 123.078125 93.867188 122.785156 93.855469 122.492188 C 93.828125 121.917969 93.105469 121.5 92.640625 121.761719 C 92.5625 121.597656 92.480469 121.4375 92.402344 121.273438 C 92 120.445312 90.695312 121.03125 90.933594 121.890625 C 91.007812 122.152344 91.085938 122.410156 91.164062 122.671875 C 90.839844 122.828125 90.617188 123.15625 90.78125 123.566406 C 90.785156 123.582031 90.792969 123.601562 90.804688 123.617188 C 90.703125 123.648438 90.605469 123.695312 90.527344 123.765625 C 90.136719 123.640625 89.640625 123.773438 89.453125 124.265625 C 89.429688 124.332031 89.40625 124.398438 89.382812 124.464844 C 89.375 124.476562 89.371094 124.492188 89.367188 124.507812 C 89.207031 124.941406 89.058594 125.378906 88.921875 125.820312 C 88.65625 125.808594 88.40625 125.921875 88.277344 126.214844 C 88.25 126.277344 88.222656 126.34375 88.199219 126.40625 C 88.195312 126.410156 88.195312 126.414062 88.191406 126.421875 C 88.078125 126.6875 87.964844 126.953125 87.859375 127.21875 C 87.683594 127.269531 87.523438 127.375 87.417969 127.558594 C 86.246094 129.558594 85.074219 131.558594 83.902344 133.554688 C 82.765625 134.269531 81.972656 135.3125 81.613281 136.707031 C 81.472656 137.253906 82.003906 137.914062 82.601562 137.691406 C 83.859375 137.21875 85.132812 136.914062 86.425781 136.777344 C 86.589844 136.792969 86.757812 136.800781 86.921875 136.8125 C 88.617188 137.050781 90.300781 137.109375 92.003906 136.972656 C 92.503906 136.988281 93.007812 137 93.507812 137.003906 C 93.632812 137.089844 93.789062 137.128906 93.988281 137.109375 C 94.320312 137.070312 94.648438 137.042969 94.980469 137.027344 C 95.09375 137.257812 95.320312 137.429688 95.664062 137.421875 C 97.394531 137.386719 99.125 137.351562 100.855469 137.316406 C 101.6875 137.296875 101.902344 136.261719 101.261719 135.820312 Z M 87.675781 134.808594 C 87.660156 134.808594 87.640625 134.804688 87.625 134.804688 C 87.664062 134.769531 87.699219 134.726562 87.726562 134.683594 C 87.753906 134.722656 87.777344 134.765625 87.804688 134.800781 C 87.765625 134.804688 87.71875 134.804688 87.675781 134.808594 Z M 92.683594 128.335938 C 92.707031 128.113281 92.730469 127.894531 92.753906 127.671875 C 92.789062 127.921875 92.820312 128.175781 92.859375 128.421875 C 92.804688 128.386719 92.746094 128.355469 92.683594 128.335938 Z M 92.683594 128.335938 "/><path style=" stroke:none;fill-rule:nonzero;fill:#efefef;fill-opacity:1;" d="M 81.46875 138.09375 C 81.398438 139.394531 80.425781 140.496094 79.0625 140.496094 C 77.808594 140.496094 76.582031 139.390625 76.652344 138.09375 C 76.742188 136.457031 76.773438 134.824219 76.738281 133.1875 C 76.679688 130.089844 81.496094 130.097656 81.558594 133.1875 C 81.589844 134.824219 81.558594 136.460938 81.46875 138.09375 Z M 81.46875 138.09375 "/><g clip-rule="nonzero" clip-path="url(#9229131e46)"><path style=" stroke:none;fill-rule:nonzero;fill:#000000;fill-opacity:1;" d="M 149.683594 60.652344 C 141.804688 51.957031 133.929688 43.261719 126.050781 34.566406 C 124.589844 32.953125 123.125 31.339844 121.664062 29.726562 C 121.167969 29.175781 120.792969 28.941406 120.136719 28.59375 C 115.320312 26.050781 110.496094 23.511719 105.671875 20.980469 C 98.988281 17.472656 92.296875 13.96875 85.585938 10.503906 C 83.148438 9.25 80.71875 7.992188 78.261719 6.769531 C 77.488281 6.382812 76.230469 5.453125 75.320312 5.453125 C 74.28125 5.453125 72.824219 6.480469 71.921875 6.902344 C 69.386719 8.078125 66.863281 9.28125 64.34375 10.488281 C 57.511719 13.757812 50.699219 17.0625 43.886719 20.371094 C 39.082031 22.707031 34.28125 25.046875 29.480469 27.394531 C 29.246094 27.507812 28.941406 27.601562 28.734375 27.761719 C 27.667969 28.566406 26.832031 30.210938 26.011719 31.273438 C 24.8125 32.824219 23.597656 34.363281 22.375 35.894531 C 17.746094 41.675781 12.929688 47.304688 7.9375 52.777344 C 5.511719 55.4375 3.039062 58.0625 0.53125 60.652344 C 0.125 61.066406 0.695312 61.691406 1.128906 61.402344 C 1.144531 61.425781 1.164062 61.449219 1.1875 61.472656 C 2.960938 63.183594 4.71875 64.917969 6.515625 66.605469 C 7.453125 67.488281 7.992188 67.839844 8.953125 66.882812 C 9.84375 65.988281 10.554688 64.800781 11.371094 63.828125 C 12.109375 62.949219 12.871094 62.085938 13.648438 61.242188 C 14.648438 60.164062 15.683594 59.125 16.746094 58.109375 C 16.894531 58.359375 17.230469 58.488281 17.472656 58.207031 C 17.570312 58.09375 17.667969 57.980469 17.765625 57.863281 C 18.511719 70.546875 17.929688 83.199219 17.773438 95.890625 C 17.621094 108.292969 17.738281 120.703125 17.882812 133.105469 C 17.917969 136.183594 17.957031 139.265625 18.003906 142.347656 C 18.007812 142.605469 18.222656 142.828125 18.484375 142.828125 C 48.1875 142.828125 77.894531 142.828125 107.601562 142.828125 C 115.933594 142.828125 124.269531 142.828125 132.601562 142.828125 C 132.863281 142.828125 133.085938 142.605469 133.082031 142.347656 C 133.023438 132.546875 132.984375 122.75 132.960938 112.945312 C 132.925781 99.304688 132.800781 85.652344 133.082031 72.015625 C 133.179688 67.304688 133.285156 62.59375 133.386719 57.882812 C 136.179688 61.054688 138.976562 64.226562 141.773438 67.398438 C 141.953125 67.605469 142.265625 67.558594 142.453125 67.398438 C 144.863281 65.378906 147.269531 63.355469 149.683594 61.332031 C 149.886719 61.15625 149.84375 60.828125 149.683594 60.652344 Z M 36.253906 79.472656 C 35.816406 81.90625 35.664062 84.34375 35.820312 86.8125 C 35.835938 87.09375 36.050781 87.246094 36.273438 87.269531 C 36.273438 105.46875 36.28125 123.667969 36.28125 141.863281 C 33.859375 141.863281 31.4375 141.863281 29.015625 141.863281 C 29.117188 117.707031 29.21875 93.550781 29.320312 69.386719 C 29.347656 62.523438 29.375 55.652344 29.40625 48.789062 C 29.410156 48.171875 28.445312 48.167969 28.445312 48.789062 C 28.339844 73.105469 28.238281 97.425781 28.140625 121.742188 C 28.113281 128.453125 28.085938 135.15625 28.058594 141.863281 C 25.027344 141.863281 21.996094 141.863281 18.964844 141.863281 C 18.839844 133.785156 18.761719 125.703125 18.710938 117.625 C 18.675781 111.125 18.660156 104.621094 18.71875 98.121094 C 18.773438 91.714844 19.101562 85.316406 19.183594 78.910156 C 19.273438 71.601562 19.144531 64.265625 18.683594 56.964844 C 18.679688 56.910156 18.667969 56.867188 18.652344 56.824219 C 22.0625 52.808594 25.453125 48.777344 28.941406 44.828125 C 30.792969 42.730469 32.6875 40.664062 34.667969 38.683594 C 35.199219 38.152344 35.636719 37.660156 36.261719 37.28125 C 39.433594 35.355469 42.832031 33.730469 46.097656 31.96875 C 55.351562 26.96875 64.613281 21.964844 73.867188 16.964844 C 74.226562 16.773438 74.746094 16.59375 75.058594 16.328125 C 75.628906 16.859375 76.910156 17.265625 77.519531 17.597656 C 80.382812 19.148438 83.246094 20.699219 86.109375 22.25 C 86.109375 29.085938 86.109375 35.917969 86.109375 42.75 C 78.195312 42.773438 70.28125 42.660156 62.371094 42.414062 C 62.371094 42.410156 62.371094 42.410156 62.371094 42.40625 C 62.371094 38.917969 62.371094 35.429688 62.371094 31.941406 C 62.371094 31.324219 61.40625 31.320312 61.40625 31.941406 C 61.40625 35.421875 61.40625 38.90625 61.40625 42.386719 C 57.359375 42.253906 53.316406 42.089844 49.273438 41.890625 C 49.273438 40.574219 49.269531 39.257812 49.269531 37.945312 C 49.269531 35.757812 49.230469 33.558594 49.292969 31.371094 C 49.308594 30.753906 48.347656 30.753906 48.328125 31.371094 C 48.226562 34.929688 48.25 38.5 48.277344 42.066406 C 48.1875 42.21875 48.191406 42.429688 48.285156 42.589844 C 48.300781 44.355469 48.316406 46.117188 48.320312 47.878906 C 48.339844 56.054688 48.367188 64.226562 48.464844 72.402344 C 48.488281 74.574219 48.386719 76.808594 48.609375 78.96875 C 48.609375 78.980469 48.613281 78.984375 48.617188 78.996094 C 44.585938 78.882812 40.554688 78.757812 36.527344 78.609375 C 36 78.582031 35.914062 79.234375 36.253906 79.472656 Z M 75.195312 16.203125 C 75.289062 16.125 75.261719 16.164062 75.195312 16.203125 Z M 99.65625 63.335938 C 99.65625 63.664062 99.65625 63.988281 99.65625 64.316406 C 95.472656 64.265625 91.289062 64.214844 87.105469 64.160156 C 86.929688 63.988281 86.609375 63.984375 86.421875 64.152344 C 82.078125 64.097656 77.730469 64.039062 73.382812 63.988281 C 73.210938 63.832031 72.910156 63.828125 72.722656 63.976562 C 66.960938 63.90625 61.199219 63.835938 55.441406 63.761719 C 53.457031 63.734375 51.46875 63.710938 49.484375 63.683594 C 49.359375 56.746094 49.398438 49.800781 49.605469 42.863281 C 66.238281 43.679688 82.894531 43.910156 99.542969 43.550781 C 99.476562 50.140625 99.554688 56.746094 99.65625 63.335938 Z M 99.949219 78.964844 C 99.96875 79.132812 100.050781 79.25 100.164062 79.324219 C 87.511719 79.503906 74.855469 79.488281 62.203125 79.285156 C 62.28125 79.207031 62.332031 79.101562 62.335938 78.964844 C 62.445312 74.25 62.558594 69.53125 62.667969 64.816406 C 65.953125 64.855469 69.238281 64.898438 72.523438 64.9375 C 72.410156 67.195312 72.132812 69.429688 72.050781 71.691406 C 72.03125 72.308594 72.992188 72.308594 73.011719 71.691406 C 73.09375 69.433594 73.371094 67.199219 73.484375 64.949219 C 77.742188 65.003906 81.996094 65.058594 86.253906 65.109375 C 86.140625 69.730469 86.035156 74.347656 85.921875 78.964844 C 85.910156 79.582031 86.871094 79.582031 86.886719 78.964844 C 86.996094 74.347656 87.105469 69.738281 87.214844 65.121094 C 89.378906 65.148438 91.542969 65.175781 93.707031 65.203125 C 95.695312 65.226562 97.691406 65.253906 99.679688 65.277344 C 99.722656 67.878906 99.761719 70.476562 99.796875 73.070312 C 99.828125 75.019531 99.746094 77.019531 99.949219 78.964844 Z M 61.480469 79.273438 C 57.507812 79.203125 53.535156 79.117188 49.5625 79.011719 C 49.5625 78.996094 49.566406 78.984375 49.5625 78.964844 C 49.378906 77.183594 49.453125 75.347656 49.429688 73.5625 C 49.390625 70.589844 49.371094 67.617188 49.347656 64.644531 C 53.46875 64.695312 57.589844 64.75 61.710938 64.800781 C 61.597656 69.519531 61.484375 74.242188 61.375 78.960938 C 61.367188 79.097656 61.414062 79.195312 61.480469 79.273438 Z M 43.488281 141.863281 C 41.40625 141.863281 39.324219 141.863281 37.242188 141.863281 C 37.242188 123.722656 37.234375 105.582031 37.234375 87.441406 C 39.460938 87.722656 41.675781 87.765625 43.910156 87.5625 C 43.910156 105.550781 43.910156 123.539062 43.910156 141.527344 C 43.910156 141.675781 43.964844 141.785156 44.050781 141.863281 C 43.863281 141.863281 43.671875 141.863281 43.488281 141.863281 Z M 106.625 141.863281 C 96.660156 141.863281 86.699219 141.863281 76.738281 141.863281 C 76.714844 123.839844 76.695312 105.8125 76.671875 87.785156 C 86.65625 87.785156 96.640625 87.785156 106.625 87.785156 C 106.625 105.8125 106.625 123.839844 106.625 141.863281 Z M 107.027344 86.828125 C 87.777344 86.828125 68.519531 86.828125 49.269531 86.828125 C 48.648438 86.828125 48.644531 87.785156 49.269531 87.785156 C 58.082031 87.785156 66.894531 87.785156 75.707031 87.785156 C 75.730469 105.8125 75.75 123.839844 75.773438 141.863281 C 65.425781 141.863281 55.082031 141.863281 44.730469 141.863281 C 44.816406 141.785156 44.871094 141.675781 44.871094 141.527344 C 44.871094 123.453125 44.871094 105.378906 44.871094 87.304688 C 44.871094 87.230469 44.855469 87.167969 44.832031 87.109375 C 44.894531 86.828125 44.746094 86.519531 44.386719 86.558594 C 41.878906 86.828125 39.382812 86.796875 36.878906 86.4375 C 36.839844 86.429688 36.800781 86.429688 36.761719 86.433594 C 36.648438 84.132812 36.785156 81.859375 37.203125 79.585938 C 61.800781 80.480469 86.425781 80.644531 111.035156 80.085938 C 111.199219 80.429688 111.761719 80.421875 111.914062 80.066406 C 112.972656 80.039062 114.035156 80.015625 115.09375 79.988281 C 115.003906 82.207031 114.921875 84.425781 114.835938 86.648438 C 114.835938 86.667969 114.839844 86.683594 114.839844 86.699219 C 112.335938 86.902344 109.839844 86.914062 107.332031 86.730469 C 107.207031 86.722656 107.105469 86.761719 107.027344 86.828125 Z M 132.066406 131.285156 C 132.078125 134.8125 132.097656 138.335938 132.117188 141.863281 C 126.226562 141.863281 120.335938 141.863281 114.445312 141.863281 L 114.445312 141.859375 C 114.496094 128.574219 114.316406 115.269531 113.9375 101.984375 C 113.859375 99.316406 113.808594 96.628906 113.578125 93.964844 C 113.527344 93.351562 112.5625 93.347656 112.617188 93.964844 C 113.105469 99.699219 113.078125 105.503906 113.179688 111.253906 C 113.3125 118.777344 113.402344 126.300781 113.453125 133.824219 C 113.46875 136.5 113.492188 139.179688 113.476562 141.859375 C 111.515625 141.859375 109.546875 141.859375 107.585938 141.859375 C 107.585938 123.835938 107.585938 105.808594 107.585938 87.785156 C 107.671875 87.785156 107.753906 87.785156 107.84375 87.785156 C 107.925781 87.785156 107.996094 87.765625 108.058594 87.734375 C 110.453125 87.871094 112.839844 87.835938 115.230469 87.625 C 115.601562 87.59375 115.746094 87.226562 115.667969 86.953125 C 115.742188 86.878906 115.796875 86.777344 115.800781 86.636719 C 115.894531 84.253906 115.984375 81.871094 116.078125 79.488281 C 116.085938 79.234375 115.847656 79 115.597656 79.007812 C 114.382812 79.039062 113.171875 79.066406 111.953125 79.097656 C 111.988281 69.011719 111.945312 58.824219 111.089844 48.777344 C 111.039062 48.167969 110.074219 48.160156 110.128906 48.777344 C 110.984375 58.832031 111.027344 69.027344 110.992188 79.121094 C 107.589844 79.195312 104.1875 79.261719 100.785156 79.308594 C 100.875 79.234375 100.929688 79.117188 100.910156 78.957031 C 100.410156 74.167969 100.714844 69.183594 100.679688 64.378906 C 100.648438 59.429688 100.628906 54.484375 100.617188 49.539062 C 100.617188 47.542969 100.617188 45.542969 100.617188 43.546875 C 100.617188 43.507812 100.613281 43.46875 100.601562 43.4375 C 100.601562 43.332031 100.601562 43.230469 100.601562 43.125 C 100.613281 43.070312 100.613281 43.011719 100.601562 42.957031 C 100.601562 42.871094 100.601562 42.785156 100.601562 42.699219 C 100.601562 40.734375 100.570312 38.765625 100.628906 36.800781 C 100.644531 36.183594 99.683594 36.183594 99.664062 36.800781 C 99.609375 38.726562 99.578125 40.65625 99.550781 42.582031 C 95.386719 42.671875 91.222656 42.726562 87.058594 42.746094 C 87.058594 36.085938 87.058594 29.425781 87.058594 22.765625 C 88.148438 23.355469 89.234375 23.945312 90.324219 24.535156 C 98.761719 29.109375 107.167969 33.746094 115.640625 38.253906 C 116.199219 38.554688 116.300781 38.769531 116.886719 39.425781 C 118.414062 41.132812 119.941406 42.835938 121.46875 44.546875 C 121.738281 44.847656 122.015625 45.15625 122.285156 45.460938 C 122.1875 68.613281 122.082031 91.765625 121.980469 114.921875 C 121.949219 121.554688 121.925781 128.191406 121.894531 134.824219 C 121.890625 135.441406 122.855469 135.445312 122.855469 134.824219 C 122.957031 111.664062 123.058594 88.5 123.160156 65.335938 C 123.1875 59.070312 123.214844 52.804688 123.242188 46.535156 C 126.121094 49.757812 129 52.972656 131.878906 56.195312 C 132.066406 56.402344 132.25 56.609375 132.433594 56.816406 C 132.222656 66.761719 132.011719 76.703125 131.980469 86.652344 C 131.941406 101.53125 131.996094 116.410156 132.066406 131.285156 Z M 142.164062 66.390625 C 139.199219 63.027344 136.234375 59.664062 133.273438 56.300781 C 130.507812 53.210938 127.738281 50.117188 124.976562 47.027344 C 123.058594 44.886719 121.148438 42.746094 119.230469 40.605469 C 118.421875 39.699219 117.628906 38.515625 116.679688 37.75 C 116.125 37.308594 115.371094 37.019531 114.75 36.683594 C 113.03125 35.753906 111.316406 34.828125 109.605469 33.894531 C 104.496094 31.128906 99.390625 28.359375 94.28125 25.59375 C 89.523438 23.015625 84.765625 20.4375 80.007812 17.855469 C 78.675781 17.136719 77.34375 16.414062 76.011719 15.691406 C 75.472656 15.398438 75.242188 15.222656 74.652344 15.449219 C 73.554688 15.867188 72.488281 16.621094 71.453125 17.175781 C 69.421875 18.273438 67.398438 19.367188 65.367188 20.464844 C 60.046875 23.339844 54.726562 26.214844 49.40625 29.089844 C 45.28125 31.316406 41.15625 33.546875 37.03125 35.773438 C 35.984375 36.339844 35.269531 36.742188 34.410156 37.585938 C 30.195312 41.738281 26.382812 46.273438 22.546875 50.769531 C 21.160156 52.394531 19.773438 54.019531 18.390625 55.644531 C 18.230469 55.578125 18.046875 55.589844 17.882812 55.734375 C 15.105469 58.230469 12.507812 60.917969 10.140625 63.8125 C 9.691406 64.359375 9.285156 64.957031 8.8125 65.480469 C 8.34375 66 8.03125 66.390625 7.417969 66.140625 C 7.027344 65.984375 6.625 65.378906 6.308594 65.070312 C 4.832031 63.648438 3.351562 62.21875 1.867188 60.792969 C 1.84375 60.765625 1.816406 60.746094 1.785156 60.726562 C 6.597656 55.742188 11.269531 50.621094 15.773438 45.359375 C 18.117188 42.621094 20.417969 39.851562 22.675781 37.042969 C 23.804688 35.636719 24.921875 34.222656 26.027344 32.804688 C 27.015625 31.539062 27.898438 30.03125 29.027344 28.898438 C 29.832031 28.089844 31.078125 27.679688 32.125 27.171875 C 34.550781 25.988281 36.980469 24.804688 39.410156 23.621094 C 51.027344 17.960938 62.582031 12.046875 74.40625 6.820312 C 74.601562 6.734375 75.070312 6.511719 75.28125 6.433594 C 75.316406 6.449219 75.386719 6.460938 75.425781 6.472656 C 75.691406 6.550781 75.949219 6.710938 76.199219 6.824219 C 78.125 7.742188 80.019531 8.726562 81.914062 9.695312 C 88.296875 12.964844 94.648438 16.292969 101 19.617188 C 106.589844 22.546875 112.175781 25.484375 117.753906 28.425781 C 118.441406 28.785156 119.128906 29.148438 119.8125 29.515625 C 119.941406 29.578125 120.648438 29.984375 120.457031 29.828125 C 121.417969 30.605469 122.222656 31.78125 123.046875 32.6875 C 131.480469 41.992188 139.910156 51.296875 148.339844 60.601562 C 148.441406 60.714844 148.546875 60.828125 148.648438 60.941406 C 146.488281 62.757812 144.328125 64.574219 142.164062 66.390625 Z M 49.136719 92.695312 C 49.203125 92.695312 49.269531 92.695312 49.335938 92.695312 C 49.839844 104.121094 49.882812 115.5625 49.472656 126.992188 C 49.472656 127.019531 49.46875 127.046875 49.472656 127.078125 C 49.347656 130.511719 49.183594 133.941406 48.976562 137.375 C 48.964844 137.632812 49.210938 137.855469 49.460938 137.855469 C 56.402344 137.855469 63.34375 137.855469 70.285156 137.855469 C 70.546875 137.855469 70.769531 137.632812 70.769531 137.375 C 70.769531 124.613281 70.769531 111.855469 70.769531 99.089844 C 70.777344 99.039062 70.777344 98.988281 70.769531 98.9375 C 70.769531 98.585938 70.769531 98.234375 70.769531 97.882812 C 70.769531 95.992188 70.769531 94.101562 70.769531 92.207031 C 70.769531 91.949219 70.546875 91.726562 70.285156 91.726562 C 63.238281 91.726562 56.1875 91.726562 49.136719 91.726562 C 48.519531 91.734375 48.519531 92.695312 49.136719 92.695312 Z M 69.808594 136.898438 C 63.324219 136.898438 56.835938 136.898438 50.351562 136.898438 C 53.992188 131.535156 57.300781 125.964844 60.261719 120.199219 C 63.0625 125.765625 66.03125 131.242188 69.167969 136.625 C 69.320312 136.886719 69.601562 136.902344 69.808594 136.785156 C 69.808594 136.824219 69.808594 136.859375 69.808594 136.898438 Z M 69.808594 125.164062 C 68.167969 122.15625 66.523438 119.152344 64.882812 116.148438 C 64.585938 115.605469 63.941406 114.828125 63.828125 114.21875 C 63.746094 113.769531 63.640625 114.289062 64.128906 113.699219 C 64.699219 113.015625 65.019531 111.933594 65.382812 111.132812 C 66.910156 107.769531 68.148438 104.261719 69.808594 100.957031 C 69.808594 109.027344 69.808594 117.09375 69.808594 125.164062 Z M 52.449219 92.695312 C 57.449219 92.695312 62.449219 92.695312 67.449219 92.695312 C 64.769531 97.226562 62.621094 102.023438 60.160156 106.667969 C 57.84375 101.875 55.023438 97.351562 52.449219 92.695312 Z M 50.59375 101.355469 C 52.667969 104.96875 54.652344 108.632812 56.511719 112.359375 C 56.710938 112.757812 57.539062 113.964844 57.527344 114.085938 C 57.519531 114.222656 57.292969 114.464844 57.21875 114.582031 C 56.75 115.332031 56.28125 116.078125 55.808594 116.828125 C 54.039062 119.648438 52.269531 122.472656 50.5 125.292969 C 50.75 117.316406 50.785156 109.332031 50.59375 101.355469 Z M 56.984375 116.761719 C 57.394531 116.113281 57.90625 115.457031 58.238281 114.765625 C 58.660156 113.890625 58.046875 113.285156 57.605469 112.402344 C 55.402344 107.964844 53.035156 103.609375 50.539062 99.328125 C 50.476562 97.113281 50.398438 94.90625 50.300781 92.695312 C 50.746094 92.695312 51.191406 92.695312 51.636719 92.695312 C 51.546875 92.828125 51.519531 93.003906 51.617188 93.183594 C 54.339844 98.105469 57.34375 102.875 59.726562 107.976562 C 59.824219 108.1875 60.003906 108.25 60.175781 108.214844 C 60.324219 108.214844 60.464844 108.144531 60.554688 107.976562 C 63.203125 103.082031 65.441406 97.980469 68.277344 93.183594 C 68.382812 93 68.355469 92.828125 68.265625 92.695312 C 68.777344 92.695312 69.292969 92.695312 69.804688 92.695312 C 69.804688 94.769531 69.804688 96.835938 69.804688 98.910156 C 67.617188 102.800781 66.214844 107.066406 64.339844 111.101562 C 63.910156 112.035156 62.652344 113.507812 62.882812 114.503906 C 63 115.03125 63.511719 115.660156 63.765625 116.125 C 65.777344 119.804688 67.792969 123.492188 69.804688 127.171875 C 69.804688 128.679688 69.804688 130.191406 69.804688 131.699219 C 69.804688 133.070312 69.804688 134.4375 69.804688 135.804688 C 66.609375 130.316406 63.59375 124.726562 60.75 119.046875 C 60.492188 118.523438 59.738281 118.925781 59.882812 119.4375 C 59.71875 119.410156 59.546875 119.472656 59.449219 119.671875 C 56.621094 125.167969 53.480469 130.492188 50.039062 135.625 C 50.195312 132.820312 50.324219 130.011719 50.425781 127.207031 C 52.617188 123.726562 54.800781 120.242188 56.984375 116.761719 Z M 81.226562 92.695312 C 81.292969 92.695312 81.363281 92.695312 81.429688 92.695312 C 81.523438 94.859375 81.601562 97.03125 81.664062 99.203125 C 81.558594 99.335938 81.519531 99.519531 81.632812 99.714844 C 81.648438 99.742188 81.667969 99.769531 81.683594 99.796875 C 81.925781 108.773438 81.894531 117.753906 81.578125 126.726562 C 81.558594 126.753906 81.546875 126.78125 81.527344 126.808594 C 81.40625 127.003906 81.445312 127.191406 81.554688 127.328125 C 81.445312 130.382812 81.296875 133.441406 81.121094 136.496094 C 81.074219 136.558594 81.035156 136.625 80.988281 136.6875 C 80.832031 136.914062 80.910156 137.136719 81.074219 137.265625 C 81.074219 137.304688 81.074219 137.339844 81.070312 137.378906 C 81.054688 137.636719 81.304688 137.855469 81.550781 137.855469 C 88.492188 137.855469 95.4375 137.855469 102.378906 137.855469 C 102.636719 137.855469 102.859375 137.636719 102.859375 137.378906 C 102.859375 124.214844 102.859375 111.050781 102.859375 97.890625 C 102.859375 95.996094 102.859375 94.105469 102.859375 92.214844 C 102.859375 91.953125 102.636719 91.734375 102.378906 91.734375 C 95.328125 91.734375 88.277344 91.734375 81.226562 91.734375 C 80.605469 91.734375 80.605469 92.695312 81.226562 92.695312 Z M 101.898438 125.871094 C 100.273438 122.59375 98.644531 119.320312 97.023438 116.042969 C 96.773438 115.546875 96.148438 114.742188 96.101562 114.1875 C 96.097656 114.160156 96.074219 114.125 96.046875 114.09375 C 96.160156 114.066406 96.476562 113.59375 96.523438 113.5 C 96.933594 112.691406 97.296875 111.859375 97.640625 111.019531 C 99.109375 107.425781 100.121094 103.609375 101.898438 100.144531 C 101.898438 108.722656 101.898438 117.296875 101.898438 125.871094 Z M 84.109375 92.695312 C 89.105469 92.695312 94.105469 92.695312 99.105469 92.695312 C 96.574219 96.988281 94.757812 101.625 92.460938 106.035156 C 90.082031 101.34375 86.671875 97.277344 84.109375 92.695312 Z M 82.066406 136.808594 C 85.683594 131.472656 88.972656 125.933594 91.917969 120.199219 C 94.71875 125.765625 97.6875 131.242188 100.824219 136.625 C 101.136719 137.15625 101.96875 136.671875 101.65625 136.136719 C 98.390625 130.539062 95.3125 124.839844 92.410156 119.046875 C 92.152344 118.523438 91.398438 118.925781 91.546875 119.4375 C 91.378906 119.410156 91.207031 119.476562 91.109375 119.671875 C 88.414062 124.917969 85.433594 130.007812 82.171875 134.921875 C 82.316406 132.292969 82.433594 129.65625 82.527344 127.019531 C 84.675781 123.601562 86.820312 120.179688 88.960938 116.761719 C 89.371094 116.113281 89.882812 115.457031 90.21875 114.765625 C 90.636719 113.890625 90.023438 113.285156 89.585938 112.402344 C 87.414062 108.03125 85.085938 103.75 82.632812 99.53125 C 82.570312 97.25 82.488281 94.972656 82.386719 92.695312 C 82.691406 92.695312 82.988281 92.695312 83.289062 92.695312 C 83.199219 92.828125 83.175781 93.003906 83.277344 93.183594 C 85.988281 98.03125 89.644531 102.296875 92.027344 107.335938 C 92.125 107.546875 92.304688 107.609375 92.472656 107.578125 C 92.621094 107.578125 92.765625 107.507812 92.855469 107.335938 C 95.363281 102.6875 97.246094 97.742188 99.933594 93.183594 C 100.042969 93 100.015625 92.828125 99.921875 92.695312 C 100.578125 92.695312 101.238281 92.695312 101.894531 92.695312 C 101.894531 94.644531 101.894531 96.59375 101.894531 98.542969 C 101.757812 98.550781 101.625 98.617188 101.535156 98.777344 C 99.496094 102.402344 98.425781 106.46875 96.890625 110.308594 C 96.441406 111.441406 95.898438 112.511719 95.378906 113.609375 C 95.164062 114.066406 95.089844 114.035156 95.171875 114.484375 C 95.261719 114.976562 95.714844 115.582031 95.933594 116.019531 C 97.796875 119.777344 99.664062 123.539062 101.53125 127.296875 C 101.613281 127.46875 101.753906 127.542969 101.894531 127.542969 C 101.894531 128.929688 101.894531 130.316406 101.894531 131.707031 C 101.894531 133.4375 101.894531 135.171875 101.894531 136.898438 C 95.285156 136.898438 88.667969 136.898438 82.058594 136.898438 C 82.0625 136.867188 82.066406 136.835938 82.066406 136.808594 Z M 82.6875 101.554688 C 84.714844 105.105469 86.660156 108.699219 88.492188 112.359375 C 88.691406 112.757812 89.515625 113.964844 89.507812 114.085938 C 89.496094 114.222656 89.269531 114.464844 89.195312 114.582031 C 88.726562 115.332031 88.257812 116.078125 87.789062 116.828125 C 86.058594 119.589844 84.324219 122.34375 82.59375 125.105469 C 82.839844 117.257812 82.867188 109.402344 82.6875 101.554688 Z M 37.449219 38.308594 C 37.394531 37.691406 38.359375 37.699219 38.410156 38.308594 C 39.285156 48.613281 39.308594 59.0625 39.269531 69.398438 C 39.269531 70.019531 38.304688 70.015625 38.308594 69.398438 C 38.347656 59.0625 38.324219 48.609375 37.449219 38.308594 Z M 73.675781 31.847656 C 73.84375 26.941406 74.011719 22.035156 74.179688 17.125 C 74.199219 16.507812 75.160156 16.507812 75.140625 17.125 C 74.972656 22.035156 74.804688 26.941406 74.636719 31.847656 C 74.617188 32.464844 73.652344 32.46875 73.675781 31.847656 Z M 94.890625 47.953125 C 88.308594 47.953125 81.722656 47.953125 75.140625 47.953125 C 75.019531 47.566406 74.398438 47.566406 74.238281 47.953125 C 67.714844 47.953125 61.191406 47.953125 54.664062 47.953125 C 54.496094 47.503906 53.714844 47.554688 53.734375 48.113281 C 53.851562 51.949219 53.714844 55.757812 53.367188 59.578125 C 53.328125 59.96875 53.707031 60.109375 54 60.003906 C 54.0625 60.035156 54.136719 60.058594 54.226562 60.058594 C 67.78125 60.058594 81.335938 60.058594 94.890625 60.058594 C 95.507812 60.058594 95.511719 59.101562 94.890625 59.101562 C 88.28125 59.101562 81.671875 59.101562 75.0625 59.101562 C 74.964844 55.703125 74.992188 52.308594 75.132812 48.917969 C 81.558594 48.917969 87.984375 48.917969 94.40625 48.917969 C 94.40625 51.304688 94.40625 53.6875 94.40625 56.078125 C 94.40625 56.695312 95.371094 56.695312 95.371094 56.078125 C 95.371094 53.53125 95.371094 50.980469 95.371094 48.4375 C 95.375 48.171875 95.152344 47.953125 94.890625 47.953125 Z M 74.101562 59.097656 C 67.523438 59.097656 60.949219 59.097656 54.371094 59.097656 C 54.664062 55.703125 54.789062 52.316406 54.714844 48.914062 C 61.199219 48.914062 67.683594 48.914062 74.167969 48.914062 C 74.027344 52.304688 74 55.703125 74.101562 59.097656 Z M 141.574219 58.273438 C 141.953125 58.765625 141.113281 59.242188 140.742188 58.761719 C 136.730469 53.535156 132.4375 48.527344 127.890625 43.753906 C 127.464844 43.304688 128.144531 42.625 128.574219 43.074219 C 133.175781 47.910156 137.507812 52.980469 141.574219 58.273438 Z M 136.410156 56.570312 C 136.757812 57.085938 135.921875 57.566406 135.578125 57.054688 C 134.359375 55.230469 133.027344 53.5 131.582031 51.851562 C 131.175781 51.382812 131.851562 50.703125 132.261719 51.167969 C 133.761719 52.878906 135.144531 54.679688 136.410156 56.570312 Z M 104.894531 25.890625 C 96.917969 22.078125 89.128906 17.890625 81.554688 13.339844 C 81.023438 13.019531 81.507812 12.191406 82.042969 12.511719 C 89.621094 17.0625 97.40625 21.25 105.382812 25.0625 C 105.941406 25.332031 105.449219 26.160156 104.894531 25.890625 Z M 110.78125 29.359375 C 110.128906 28.941406 109.476562 28.527344 108.824219 28.109375 C 108.304688 27.777344 108.789062 26.945312 109.3125 27.28125 C 109.964844 27.699219 110.617188 28.113281 111.265625 28.53125 C 111.785156 28.859375 111.300781 29.691406 110.78125 29.359375 Z M 57.703125 18.105469 C 52.578125 21.050781 47.449219 24 42.324219 26.945312 C 41.78125 27.257812 41.296875 26.429688 41.835938 26.117188 C 46.960938 23.171875 52.089844 20.222656 57.21875 17.277344 C 57.753906 16.964844 58.238281 17.792969 57.703125 18.105469 Z M 24.976562 41.667969 C 20.421875 46.78125 15.867188 51.890625 11.3125 57.003906 C 10.898438 57.464844 10.222656 56.785156 10.632812 56.324219 C 15.1875 51.210938 19.742188 46.101562 24.296875 40.988281 C 24.707031 40.527344 25.386719 41.210938 24.976562 41.667969 Z M 24.976562 41.667969 "/></g></g></svg>