<svg xmlns="http://www.w3.org/2000/svg" xmlns:xlink="http://www.w3.org/1999/xlink" width="200" zoomAndPan="magnify" viewBox="0 0 150 149.999998" height="200" preserveAspectRatio="xMidYMid meet" version="1.2"><defs><clipPath id="f771b7edc1"><path d="M 0 23.589844 L 150 23.589844 L 150 126.339844 L 0 126.339844 Z M 0 23.589844 "/></clipPath><clipPath id="3301677425"><path d="M 4 23.589844 L 150 23.589844 L 150 126 L 4 126 Z M 4 23.589844 "/></clipPath></defs><g id="c9feadb143"><g clip-rule="nonzero" clip-path="url(#f771b7edc1)"><path style=" stroke:none;fill-rule:nonzero;fill:#fac172;fill-opacity:1;" d="M 137.316406 73.699219 L 137.316406 126.335938 L 8.738281 124.558594 L 7.851562 76.425781 L 0.046875 76.589844 L 7.355469 52.214844 L 7.40625 52.214844 L 7.003906 30.402344 L 4.589844 30.402344 L 4.589844 23.589844 L 141.761719 23.589844 L 141.761719 30.402344 L 137.316406 30.402344 L 137.316406 53.414062 L 149.957031 73.433594 Z M 137.316406 73.699219 "/></g><path style=" stroke:none;fill-rule:nonzero;fill:#e15c45;fill-opacity:1;" d="M 46.945312 52.484375 L 60.238281 52.574219 L 59.980469 75.328125 L 47.46875 75.59375 Z M 23.425781 76.097656 L 35.910156 75.835938 C 36.039062 69.074219 36.253906 58.335938 36.417969 52.410156 L 25.164062 52.335938 Z M 0.046875 76.589844 L 12.046875 76.339844 L 16.476562 52.277344 L 7.355469 52.214844 Z M 70.933594 52.648438 L 71.828125 75.078125 L 83.730469 74.828125 L 81.503906 52.71875 Z M 127.785156 53.039062 L 116.695312 52.960938 L 124.128906 73.976562 L 134.808594 73.753906 Z M 92.332031 52.792969 L 96.632812 74.554688 L 111.292969 74.246094 L 103.691406 52.871094 Z M 41.597656 38.816406 C 42.101562 38.816406 42.496094 38.9375 42.808594 39.1875 C 43.074219 39.390625 43.214844 39.621094 43.347656 40.050781 L 45.796875 39.488281 C 45.605469 38.910156 45.414062 38.550781 45.089844 38.179688 C 44.296875 37.21875 43.15625 36.75 41.65625 36.75 C 38.628906 36.75 36.722656 38.753906 36.722656 41.910156 C 36.722656 43.554688 37.226562 44.984375 38.136719 45.894531 C 38.988281 46.757812 40.179688 47.179688 41.703125 47.179688 C 42.59375 47.179688 43.46875 47.035156 44.25 46.773438 C 44.789062 46.59375 45.113281 46.4375 45.773438 46.015625 C 45.703125 45.464844 45.691406 45.078125 45.691406 44.226562 L 45.691406 42.882812 C 45.691406 42.105469 45.714844 41.707031 45.773438 41.253906 C 45.246094 41.300781 44.800781 41.3125 44.1875 41.3125 L 43.226562 41.3125 C 42.386719 41.3125 42.101562 41.300781 41.65625 41.238281 L 41.65625 43.363281 C 42.027344 43.316406 42.230469 43.304688 42.84375 43.304688 L 43.421875 43.304688 L 43.421875 44.671875 C 42.832031 44.972656 42.316406 45.105469 41.679688 45.105469 C 40.921875 45.105469 40.335938 44.875 39.949219 44.457031 C 39.46875 43.925781 39.21875 43.0625 39.21875 41.949219 C 39.21875 39.933594 40.058594 38.816406 41.597656 38.816406 Z M 48.789062 38.808594 C 48.722656 38.179688 48.660156 37.804688 48.546875 37.324219 C 49 37.296875 49.375 37.265625 50.070312 37.195312 L 52.714844 36.917969 C 54.367188 36.746094 55.414062 37.5 55.566406 38.964844 C 55.640625 39.6875 55.5 40.277344 55.140625 40.695312 C 54.910156 40.957031 54.707031 41.089844 54.226562 41.304688 C 54.761719 41.414062 55.023438 41.625 55.421875 42.3125 C 55.609375 42.621094 55.789062 42.953125 56.363281 44.003906 C 56.503906 44.277344 56.652344 44.519531 56.964844 45.03125 L 54.582031 45.28125 C 54.488281 44.960938 54.320312 44.558594 53.917969 43.746094 C 53.496094 42.894531 53.351562 42.675781 53.074219 42.476562 C 52.839844 42.304688 52.574219 42.25 52.25 42.285156 L 51.210938 42.394531 L 51.386719 44.0625 C 51.457031 44.753906 51.519531 45.128906 51.628906 45.589844 L 49.441406 45.820312 C 49.453125 45.34375 49.441406 45.039062 49.363281 44.285156 Z M 50.839844 38.84375 L 51.027344 40.652344 L 52.617188 40.488281 C 53.21875 40.425781 53.546875 40.019531 53.484375 39.4375 C 53.425781 38.871094 53.070312 38.609375 52.4375 38.675781 Z M 67.679688 41.023438 C 67.679688 43.800781 65.984375 45.644531 63.425781 45.644531 C 60.847656 45.644531 59.183594 43.84375 59.183594 41.054688 C 59.183594 38.277344 60.847656 36.5 63.4375 36.5 C 66.027344 36.5 67.679688 38.265625 67.679688 41.023438 Z M 65.488281 41.042969 C 65.488281 39.339844 64.710938 38.308594 63.4375 38.308594 C 62.152344 38.308594 61.363281 39.351562 61.363281 41.042969 C 61.363281 42.761719 62.152344 43.824219 63.4375 43.824219 C 64.710938 43.824219 65.488281 42.769531 65.488281 41.042969 Z M 74.691406 46.160156 C 76.03125 46.25 77.136719 45.898438 77.875 45.15625 C 78.378906 44.644531 78.660156 44.117188 78.929688 43.191406 L 76.648438 42.691406 C 76.550781 43.15625 76.457031 43.371094 76.25 43.625 C 75.902344 44.046875 75.363281 44.265625 74.753906 44.226562 C 73.378906 44.136719 72.628906 42.984375 72.75 41.175781 C 72.871094 39.347656 73.726562 38.335938 75.082031 38.425781 C 76.035156 38.488281 76.589844 39.027344 76.734375 40.050781 L 79.046875 39.757812 C 78.945312 39.09375 78.785156 38.671875 78.460938 38.195312 C 77.804688 37.179688 76.714844 36.621094 75.285156 36.523438 C 73.988281 36.4375 72.839844 36.773438 72.027344 37.46875 C 71.09375 38.273438 70.542969 39.515625 70.441406 41.023438 C 70.34375 42.511719 70.722656 43.835938 71.488281 44.722656 C 72.222656 45.574219 73.339844 46.070312 74.691406 46.160156 Z M 87.082031 43.832031 L 84.457031 44.125 L 84.265625 42.414062 L 86.464844 42.171875 C 87.167969 42.09375 87.515625 42.078125 88 42.074219 L 87.789062 40.191406 C 87.1875 40.320312 86.941406 40.359375 86.273438 40.433594 L 84.074219 40.675781 L 83.90625 39.179688 L 86.554688 38.886719 C 87.234375 38.8125 87.605469 38.792969 88.078125 38.792969 L 87.867188 36.890625 C 87.394531 36.992188 87.050781 37.050781 86.359375 37.128906 L 83.113281 37.488281 C 82.320312 37.578125 82.03125 37.597656 81.613281 37.625 C 81.730469 38.113281 81.789062 38.46875 81.859375 39.097656 L 82.476562 44.652344 C 82.554688 45.355469 82.574219 45.734375 82.558594 46.144531 C 82.992188 46.078125 83.277344 46.035156 84.050781 45.949219 L 87.257812 45.59375 C 88.132812 45.5 88.5 45.476562 88.941406 45.480469 L 88.730469 43.578125 C 88.300781 43.679688 87.855469 43.746094 87.082031 43.832031 Z M 93.726562 45.230469 L 91.40625 44.9375 C 91.535156 44.449219 91.597656 44.125 91.699219 43.328125 L 92.441406 37.523438 C 92.527344 36.855469 92.554688 36.453125 92.558594 35.929688 C 93.03125 36.011719 93.429688 36.070312 94.160156 36.164062 L 96.96875 36.523438 C 98.71875 36.746094 99.617188 37.78125 99.417969 39.335938 C 99.320312 40.101562 99.027344 40.679688 98.554688 41.023438 C 98.253906 41.238281 98.011719 41.328125 97.460938 41.433594 C 97.988281 41.675781 98.207031 41.953125 98.453125 42.765625 C 98.570312 43.128906 98.675781 43.515625 99.011719 44.742188 C 99.089844 45.0625 99.1875 45.347656 99.382812 45.953125 L 96.859375 45.632812 C 96.835938 45.277344 96.765625 44.820312 96.542969 43.878906 C 96.320312 42.898438 96.222656 42.632812 95.980469 42.363281 C 95.78125 42.128906 95.523438 42.007812 95.175781 41.964844 L 94.074219 41.824219 L 93.851562 43.59375 C 93.757812 44.324219 93.726562 44.726562 93.726562 45.230469 Z M 94.3125 39.976562 L 95.996094 40.191406 C 96.632812 40.273438 97.070312 39.9375 97.148438 39.320312 C 97.226562 38.714844 96.921875 38.359375 96.25 38.273438 L 94.558594 38.058594 Z M 104.3125 42.042969 L 104.3125 43.933594 C 104.3125 44.507812 104.28125 44.976562 104.230469 45.449219 L 106.460938 45.449219 C 106.402344 44.917969 106.382812 44.46875 106.382812 43.933594 L 106.382812 42.042969 L 108.726562 38.175781 C 108.859375 37.949219 109.246094 37.367188 109.542969 36.9375 L 106.953125 36.9375 C 106.882812 37.234375 106.738281 37.550781 106.484375 38.019531 L 105.347656 40.085938 L 104.210938 38.011719 C 103.953125 37.558594 103.84375 37.292969 103.730469 36.9375 L 101.140625 36.9375 C 101.546875 37.519531 101.773438 37.855469 101.957031 38.171875 Z M 104.3125 42.042969 "/><g clip-rule="nonzero" clip-path="url(#3301677425)"><path style=" stroke:none;fill-rule:nonzero;fill:#f9efe8;fill-opacity:1;" d="M 141.761719 30.402344 L 4.589844 30.402344 L 4.589844 23.589844 L 141.761719 23.589844 Z M 36.488281 52.414062 L 36.417969 52.410156 C 36.253906 58.335938 36.039062 69.074219 35.910156 75.835938 L 35.9375 75.835938 L 47.46875 75.59375 L 46.945312 52.484375 Z M 12.046875 76.339844 L 23.425781 76.097656 L 25.164062 52.335938 L 16.476562 52.277344 Z M 59.980469 75.328125 L 71.828125 75.078125 L 70.933594 52.648438 L 60.238281 52.574219 Z M 137.117188 53.101562 L 127.785156 53.039062 L 134.808594 73.753906 L 149.957031 73.433594 Z M 103.691406 52.871094 L 111.292969 74.246094 L 124.128906 73.976562 L 116.695312 52.960938 Z M 81.503906 52.71875 L 83.730469 74.828125 L 96.632812 74.554688 L 92.332031 52.792969 Z M 60.085938 125.269531 L 91.996094 125.707031 L 92.875 83.636719 L 58.804688 84.226562 Z M 60.085938 125.269531 "/></g><path style=" stroke:none;fill-rule:nonzero;fill:#303d36;fill-opacity:1;" d="M 73.597656 116.695312 L 73.625 116.675781 L 73.652344 116.679688 C 73.644531 116.6875 73.628906 116.695312 73.617188 116.703125 Z M 72.414062 117.09375 C 72.398438 117.324219 72.367188 117.558594 72.355469 117.789062 C 72.34375 118.023438 72.429688 118.25 72.609375 118.476562 C 72.875 118.8125 72.933594 119.160156 72.652344 119.503906 C 72.613281 119.554688 72.625 119.621094 72.671875 119.667969 C 72.8125 119.8125 72.871094 119.953125 72.695312 120.089844 C 72.519531 120.226562 72.480469 120.363281 72.492188 120.511719 C 72.507812 120.746094 72.441406 120.984375 72.535156 121.21875 C 72.398438 121.230469 72.257812 121.242188 72.117188 121.238281 C 71.855469 121.230469 71.601562 121.285156 71.355469 121.574219 C 71.199219 121.757812 71.011719 121.742188 70.84375 121.554688 C 70.648438 121.335938 70.449219 121.277344 70.242188 121.296875 C 70.039062 121.320312 69.835938 121.328125 69.632812 121.339844 C 69.167969 121.363281 68.703125 121.414062 68.234375 121.402344 C 67.773438 121.394531 67.308594 121.503906 66.847656 121.152344 C 66.765625 121.089844 66.671875 121.144531 66.585938 121.144531 L 66.0625 121.15625 C 65.855469 121.164062 65.652344 121.210938 65.449219 121.179688 C 65.273438 121.152344 65.128906 121.492188 64.945312 121.320312 C 64.742188 121.128906 64.546875 121.308594 64.347656 121.390625 C 64.238281 121.433594 64.117188 121.355469 64.007812 121.445312 C 63.804688 121.257812 63.601562 121.332031 63.394531 121.375 C 63.492188 121.25 63.429688 121.09375 63.359375 120.960938 C 63.234375 120.710938 63.089844 120.457031 62.871094 120.214844 C 62.746094 120.078125 62.789062 120.011719 63.09375 119.945312 C 63.195312 119.925781 63.296875 119.847656 63.273438 119.804688 C 63.070312 119.460938 63.367188 119.132812 63.28125 118.789062 C 63.195312 118.445312 63.253906 118.105469 63.226562 117.761719 C 63.191406 117.304688 63.132812 116.84375 63.085938 116.386719 C 63.070312 116.238281 62.890625 116.089844 62.839844 115.949219 C 62.796875 115.816406 63.019531 115.699219 63.03125 115.5625 C 63.0625 115.195312 63.0625 114.828125 63.03125 114.453125 C 62.988281 113.9375 62.914062 113.414062 62.835938 112.890625 C 62.796875 112.652344 62.832031 112.4375 62.976562 112.242188 C 63.074219 112.101562 62.988281 111.914062 63.050781 111.757812 C 63.105469 111.628906 62.964844 111.464844 62.859375 111.304688 C 62.78125 111.183594 62.734375 111.050781 62.804688 110.960938 C 62.898438 110.839844 62.925781 110.71875 62.734375 110.542969 C 62.628906 110.445312 62.546875 110.34375 62.480469 110.246094 C 62.378906 110.089844 62.867188 110.195312 62.84375 110.070312 C 62.789062 109.722656 63.128906 109.480469 62.726562 109.046875 C 62.878906 108.953125 62.914062 108.828125 62.753906 108.644531 C 62.460938 108.320312 62.449219 108.070312 62.714844 107.898438 C 62.792969 107.847656 62.796875 107.757812 62.792969 107.675781 L 62.570312 104.230469 L 62.523438 103.457031 L 62.449219 102.585938 L 62.394531 101.804688 L 62.328125 100.933594 L 62.273438 100.152344 C 62.640625 100.070312 62.105469 99.523438 62.203125 99.300781 C 62.25 99.1875 62.222656 99.03125 62.273438 98.921875 C 62.316406 98.832031 62.28125 98.710938 62.207031 98.558594 C 62.152344 98.453125 62.113281 98.332031 62.171875 98.292969 C 62.449219 98.101562 62.328125 97.671875 62.304688 97.300781 L 61.84375 90.933594 L 61.800781 89.992188 C 61.78125 89.675781 61.78125 89.371094 61.714844 89.011719 C 61.648438 88.648438 61.820312 88.515625 61.8125 88.214844 C 61.8125 88.191406 61.757812 88.109375 61.714844 88.058594 C 61.667969 88.007812 61.585938 87.929688 61.558594 87.917969 C 61.132812 87.714844 60.996094 87.855469 61.035156 88.179688 C 61.121094 88.878906 61.167969 89.535156 61.171875 90.160156 C 61.175781 90.414062 61.1875 90.679688 61.21875 90.957031 C 61.253906 91.265625 61.339844 91.613281 61.101562 91.695312 C 61.125 91.882812 61.140625 92.058594 61.179688 92.253906 C 61.203125 92.355469 61.3125 92.519531 61.3125 92.597656 C 61.3125 93.25 61.558594 94.070312 61.183594 94.453125 C 61.136719 94.5 61.144531 94.59375 61.152344 94.683594 C 61.195312 95.285156 61.113281 95.804688 61.253906 96.464844 C 61.316406 96.757812 61.300781 97.007812 61.308594 97.269531 C 61.324219 97.734375 61.320312 98.191406 61.351562 98.667969 C 61.378906 99.054688 61.488281 99.484375 61.261719 99.734375 C 61.230469 99.769531 61.347656 99.894531 61.320312 99.929688 C 61.226562 100.058594 61.488281 100.359375 61.417969 100.480469 C 61.339844 100.621094 61.464844 100.835938 61.492188 101.015625 C 61.542969 101.351562 61.777344 101.777344 61.390625 101.902344 C 61.363281 101.910156 61.40625 101.964844 61.429688 102.003906 C 61.574219 102.234375 61.210938 102.246094 61.476562 102.527344 C 61.808594 102.875 61.429688 102.890625 61.402344 103.074219 C 61.394531 103.128906 61.386719 103.1875 61.433594 103.257812 C 61.730469 103.6875 61.855469 104.035156 61.515625 104.214844 C 61.488281 104.230469 61.492188 104.265625 61.511719 104.300781 C 61.660156 104.554688 61.449219 104.6875 61.578125 104.921875 C 61.730469 105.191406 61.464844 105.273438 61.5 105.488281 C 61.609375 106.164062 61.621094 106.800781 61.554688 107.421875 C 61.542969 107.527344 61.671875 107.679688 61.734375 107.8125 C 61.765625 107.871094 61.867188 107.964844 61.824219 107.992188 C 61.585938 108.144531 61.660156 108.398438 61.675781 108.636719 C 61.699219 109.015625 61.847656 109.429688 61.472656 109.703125 C 61.421875 109.742188 61.425781 109.808594 61.4375 109.867188 C 61.535156 110.441406 61.363281 110.96875 61.714844 111.585938 C 61.539062 111.742188 62.007812 112.039062 61.640625 112.15625 C 61.636719 112.300781 61.574219 112.441406 61.648438 112.59375 C 61.726562 112.753906 61.761719 112.890625 61.664062 113.019531 C 61.59375 113.121094 61.613281 113.246094 61.617188 113.363281 L 61.726562 115.402344 C 61.738281 115.664062 61.707031 115.929688 62.066406 116.199219 C 61.871094 116.324219 62.148438 116.492188 62.054688 116.621094 C 61.921875 116.808594 61.753906 116.988281 61.644531 117.179688 C 61.53125 117.375 61.488281 117.582031 61.695312 117.792969 C 61.964844 118.066406 61.996094 118.320312 61.804688 118.578125 C 61.769531 118.628906 61.792969 118.695312 61.839844 118.746094 C 62.003906 118.925781 62.007812 119.097656 61.851562 119.265625 C 61.722656 119.40625 61.976562 119.554688 61.800781 119.695312 C 61.59375 119.863281 61.996094 120.03125 61.847656 120.210938 C 61.734375 120.34375 61.753906 120.503906 61.761719 120.648438 L 61.875 122.222656 L 61.929688 123.007812 L 62.671875 122.972656 L 63.300781 122.941406 C 63.421875 122.9375 63.535156 122.902344 63.632812 122.738281 C 63.683594 122.652344 63.734375 122.660156 63.796875 122.730469 C 63.992188 122.949219 64.195312 122.933594 64.398438 122.90625 C 64.6875 122.867188 64.984375 122.960938 65.265625 122.738281 C 65.550781 122.507812 65.835938 122.9375 66.125 122.835938 C 66.585938 122.667969 67.046875 122.714844 67.511719 122.960938 C 67.609375 123.007812 67.628906 122.644531 67.695312 122.597656 C 67.769531 122.554688 67.859375 122.664062 67.9375 122.707031 C 68.082031 122.785156 68.230469 122.945312 68.367188 122.925781 C 68.542969 122.898438 68.707031 122.925781 68.878906 123.015625 C 68.964844 123.0625 69.054688 123.054688 69.140625 123.03125 C 69.285156 122.996094 69.425781 122.917969 69.566406 122.871094 C 69.621094 122.851562 69.679688 122.851562 69.734375 122.878906 C 70.175781 123.125 70.605469 122.941406 71.039062 122.859375 C 71.121094 122.84375 71.195312 122.6875 71.289062 122.789062 C 71.488281 123.003906 71.691406 122.902344 71.894531 122.914062 C 72.070312 122.921875 72.242188 122.90625 72.417969 122.894531 C 72.59375 122.882812 72.757812 122.777344 72.929688 122.6875 C 73.058594 122.617188 73.199219 122.8125 73.339844 122.816406 L 74.097656 122.84375 L 74.148438 121.996094 C 74.148438 121.960938 74.140625 121.925781 74.109375 121.890625 C 73.988281 121.75 73.929688 121.621094 74.089844 121.476562 C 74.175781 121.398438 74.171875 121.304688 74.171875 121.21875 C 74.164062 120.492188 74.152344 119.765625 74.128906 119.039062 C 74.125 118.921875 74.074219 118.804688 73.988281 118.695312 C 73.894531 118.578125 73.914062 118.476562 73.972656 118.359375 C 74.234375 117.84375 74.152344 117.320312 73.921875 116.804688 C 73.902344 116.765625 73.730469 116.734375 73.617188 116.703125 C 73.480469 116.800781 73.25 116.855469 72.972656 116.875 C 72.648438 116.902344 72.425781 116.949219 72.414062 117.09375 Z M 61.589844 87.90625 C 61.839844 88.199219 61.96875 88.300781 62.117188 88.304688 L 64.101562 88.355469 L 64.910156 88.355469 C 65.207031 88.359375 65.53125 88.410156 65.671875 88.179688 C 66.089844 88.425781 66.300781 88.332031 66.582031 88.347656 C 66.859375 88.359375 67.132812 88.367188 67.363281 88.28125 C 67.523438 88.222656 67.644531 88.078125 67.929688 88.328125 C 68.394531 88.253906 68.949219 88.453125 69.328125 88.113281 C 69.402344 88.050781 69.492188 88.140625 69.578125 88.167969 C 69.730469 88.21875 69.878906 88.257812 70.007812 88.234375 C 70.105469 88.21875 70.167969 88.042969 70.273438 88.042969 C 70.382812 88.046875 70.523438 88.210938 70.640625 88.242188 C 70.8125 88.285156 70.976562 88.285156 71.140625 88.28125 C 71.304688 88.277344 71.472656 88.304688 71.648438 88.429688 C 71.804688 88.183594 72.023438 88.453125 72.207031 88.457031 C 72.363281 88.464844 72.503906 88.292969 72.660156 88.226562 C 72.652344 88.257812 72.636719 88.289062 72.609375 88.316406 C 72.5 88.433594 72.554688 88.539062 72.675781 88.648438 C 72.792969 88.761719 72.785156 88.878906 72.65625 88.988281 C 72.496094 89.125 72.417969 89.261719 72.464844 89.410156 C 72.511719 89.550781 72.703125 89.679688 72.574219 89.832031 C 72.492188 89.933594 72.730469 90.050781 72.59375 90.164062 C 72.421875 90.308594 72.710938 90.449219 72.671875 90.585938 C 72.640625 90.703125 72.738281 90.828125 72.65625 90.925781 C 72.347656 91.300781 72.492188 91.675781 72.5 92.054688 C 72.503906 92.316406 72.542969 92.578125 72.546875 92.839844 L 72.546875 95.28125 C 72.550781 95.398438 72.566406 95.515625 72.636719 95.628906 C 72.78125 95.855469 72.78125 96.070312 72.675781 96.308594 C 72.511719 96.675781 72.464844 97.0625 72.8125 97.429688 C 72.894531 97.519531 72.832031 97.59375 72.757812 97.679688 C 72.601562 97.84375 72.640625 98.019531 72.726562 98.191406 C 72.761719 98.261719 72.890625 98.277344 73.074219 98.25 C 73.140625 98.238281 73.265625 98.230469 73.289062 98.242188 C 73.371094 98.285156 73.453125 98.335938 73.472656 98.390625 C 73.492188 98.445312 73.492188 98.519531 73.410156 98.558594 C 72.824219 98.832031 72.578125 99.167969 72.390625 99.507812 C 72.292969 99.675781 72.296875 99.851562 72.8125 99.957031 C 73.023438 100 72.820312 100.125 72.9375 100.183594 C 73.066406 100.25 73.292969 100.289062 73.441406 100.347656 C 73.570312 100.402344 73.441406 100.546875 73.269531 100.566406 C 73.125 100.582031 72.980469 100.59375 72.839844 100.609375 C 72.523438 100.648438 72.375 100.734375 72.394531 100.867188 C 72.410156 100.988281 72.554688 101.074219 72.800781 101.160156 C 73.226562 101.308594 73.261719 101.453125 73.007812 101.617188 C 72.890625 101.691406 72.742188 101.757812 72.621094 101.832031 C 72.453125 101.933594 72.371094 102.042969 72.523438 102.160156 C 72.703125 102.292969 72.777344 102.433594 72.734375 102.582031 C 72.707031 102.667969 72.6875 102.757812 72.609375 102.835938 C 72.480469 102.964844 72.632812 103.050781 72.839844 103.140625 C 72.988281 103.207031 73.113281 103.28125 73.027344 103.375 C 72.925781 103.484375 72.832031 103.601562 72.988281 103.710938 C 73.183594 103.851562 72.863281 103.992188 73.039062 104.132812 C 73.15625 104.222656 72.953125 104.292969 72.917969 104.375 C 72.859375 104.519531 72.792969 104.664062 72.863281 104.820312 C 72.878906 104.925781 72.894531 105.039062 72.914062 105.15625 C 72.925781 105.21875 73.183594 105.296875 73.398438 105.308594 C 73.8125 105.324219 73.980469 105.292969 74.132812 105.175781 C 74.410156 104.964844 74.574219 104.75 74.355469 104.511719 C 74.5 104.363281 74.160156 104.222656 74.253906 104.089844 C 74.371094 103.917969 74.242188 103.742188 74.355469 103.578125 C 74.503906 103.375 74.511719 103.183594 74.277344 102.984375 C 74.121094 102.847656 74.117188 102.707031 74.25 102.5625 C 74.351562 102.453125 74.453125 102.339844 74.46875 102.226562 C 74.507812 101.9375 74.507812 101.648438 74.503906 101.355469 C 74.503906 101.269531 74.5 101.171875 74.402344 101.101562 C 74.144531 100.902344 74.132812 100.722656 74.382812 100.519531 C 74.503906 100.421875 74.492188 100.292969 74.488281 100.179688 C 74.484375 100.035156 74.421875 99.890625 74.394531 99.746094 C 74.367188 99.597656 74.277344 99.460938 74.207031 99.316406 C 74.140625 99.183594 74.296875 99.039062 74.34375 98.894531 C 74.355469 98.867188 74.347656 98.832031 74.3125 98.8125 C 74.007812 98.621094 74.371094 98.414062 74.179688 98.222656 C 74.511719 97.820312 74.375 97.421875 74.144531 97.019531 C 74.085938 96.914062 74.15625 96.789062 74.0625 96.675781 C 74.339844 96.550781 74.058594 96.394531 74.171875 96.269531 C 74.347656 96.070312 74.347656 95.875 74.335938 95.667969 C 74.285156 94.710938 74.257812 93.75 74.234375 92.789062 C 74.230469 92.644531 74.171875 92.484375 74.3125 92.359375 C 74.511719 92.1875 74.296875 92.015625 74.4375 91.855469 C 74.542969 91.738281 74.269531 91.644531 74.375 91.519531 C 74.488281 91.390625 74.460938 91.242188 74.503906 91.101562 C 74.546875 90.972656 74.414062 90.882812 74.132812 90.8125 C 73.847656 90.738281 73.785156 90.628906 73.953125 90.511719 C 74.148438 90.378906 74.195312 90.234375 74.089844 90.089844 C 73.988281 89.949219 73.949219 89.820312 74.007812 89.667969 C 74.128906 89.355469 74.128906 89.035156 74.222656 88.714844 C 74.261719 88.574219 74.550781 88.433594 74.402344 88.296875 C 74.21875 88.125 74.378906 87.957031 74.277344 87.785156 C 74.191406 87.644531 74.125 87.5 74.09375 87.351562 L 73.949219 86.675781 L 73.511719 86.777344 C 73.304688 86.824219 73.097656 86.804688 72.882812 86.671875 C 72.695312 86.554688 72.597656 86.65625 72.546875 87.019531 C 72.441406 87.082031 72.40625 86.78125 72.332031 86.707031 C 72.203125 86.585938 72.125 86.851562 72.003906 86.847656 C 71.734375 86.832031 71.457031 86.828125 71.199219 86.886719 C 70.917969 86.949219 70.519531 86.367188 70.300781 86.800781 C 70.167969 86.726562 70.027344 86.601562 69.902344 86.585938 C 69.585938 86.546875 69.25 86.488281 69.019531 86.71875 C 68.785156 86.957031 68.351562 86.507812 68.097656 86.671875 C 67.953125 86.769531 67.785156 86.816406 67.660156 86.941406 C 67.53125 87.074219 67.382812 87.109375 67.125 86.925781 C 66.828125 86.714844 66.617188 86.738281 66.441406 86.816406 C 66.34375 86.863281 66.3125 87.03125 66.199219 87.035156 C 66.085938 87.035156 65.898438 86.894531 65.746094 86.839844 C 65.554688 86.769531 65.421875 86.808594 65.367188 86.960938 C 65.347656 87.015625 65.316406 87.085938 65.25 87.050781 C 64.976562 86.914062 64.917969 87.085938 64.792969 87.160156 C 64.574219 87.285156 64.394531 87.472656 63.910156 87.179688 C 63.414062 86.886719 63.433594 87.246094 63.109375 87.15625 C 63.082031 87.296875 62.976562 87.34375 62.859375 87.382812 C 62.761719 87.410156 62.625 87.386719 62.414062 87.269531 C 62.253906 87.179688 62.125 87.140625 62.089844 87.195312 C 62.042969 87.277344 61.941406 87.285156 61.726562 87.183594 C 61.527344 87.089844 61.351562 87.03125 61.179688 86.980469 C 61.039062 86.941406 61.039062 87.027344 61.085938 87.136719 C 61.179688 87.359375 61.335938 87.609375 61.589844 87.90625 Z M 74.121094 106.703125 C 73.925781 106.667969 73.890625 106.625 74.03125 106.570312 C 74.363281 106.4375 74.570312 106.304688 74.3125 106.109375 C 74.230469 106.042969 74.332031 105.941406 74.355469 105.859375 C 74.394531 105.714844 74.394531 105.710938 74.097656 105.660156 C 73.828125 105.609375 73.554688 105.5625 73.273438 105.527344 C 73.140625 105.511719 72.964844 105.515625 72.84375 105.535156 C 72.730469 105.554688 72.574219 105.617188 72.589844 105.652344 C 72.679688 105.910156 72.859375 106.160156 73.140625 106.398438 C 73.242188 106.480469 73.328125 106.574219 73.214844 106.644531 C 72.949219 106.804688 72.875 106.960938 73.15625 107.128906 C 73.1875 107.148438 73.179688 107.1875 73.148438 107.207031 C 72.945312 107.34375 72.953125 107.476562 73.140625 107.617188 C 73.289062 107.730469 73.035156 107.757812 72.84375 107.796875 C 72.667969 107.835938 72.707031 107.878906 72.863281 107.933594 C 73.207031 108.050781 73.199219 108.054688 72.960938 108.203125 C 72.882812 108.25 72.796875 108.296875 72.734375 108.347656 C 72.710938 108.367188 72.734375 108.410156 72.773438 108.417969 C 73.222656 108.523438 73.171875 108.613281 72.75 108.695312 C 72.746094 108.804688 72.78125 108.917969 72.722656 109.019531 C 72.660156 109.140625 72.644531 109.25 72.769531 109.359375 C 73.019531 109.585938 73.101562 109.800781 72.777344 110.027344 C 72.675781 110.097656 72.664062 110.195312 72.644531 110.28125 C 72.582031 110.566406 72.597656 110.859375 72.332031 111.136719 C 72.261719 111.210938 72.285156 111.3125 72.355469 111.390625 C 72.539062 111.585938 72.597656 111.785156 72.605469 111.988281 C 72.613281 112.25 72.648438 112.511719 72.675781 112.773438 C 72.699219 112.976562 72.660156 113.179688 72.472656 113.371094 C 72.375 113.46875 72.472656 113.542969 72.613281 113.609375 C 72.878906 113.734375 72.953125 113.855469 72.738281 114.003906 C 72.59375 114.101562 72.484375 114.210938 72.402344 114.320312 C 72.34375 114.40625 72.375 114.507812 72.574219 114.558594 C 72.863281 114.628906 73.078125 114.71875 72.753906 114.816406 C 72.300781 114.957031 72.648438 115.148438 72.46875 115.292969 C 72.253906 115.46875 72.582031 115.632812 72.488281 115.800781 C 72.417969 115.925781 72.585938 116.023438 72.703125 116.128906 C 72.882812 116.289062 73.066406 116.449219 73.285156 116.601562 C 73.339844 116.636719 73.5 116.652344 73.625 116.675781 C 73.789062 116.523438 74.011719 116.375 74.085938 116.21875 C 74.214844 115.9375 74.261719 115.648438 74.324219 115.367188 C 74.390625 115.078125 74.390625 114.785156 74.375 114.496094 C 74.363281 114.207031 74.300781 113.917969 74.257812 113.628906 C 74.03125 113.484375 74.25 113.351562 74.292969 113.210938 C 74.320312 113.128906 74.328125 113.128906 73.878906 113.105469 C 73.816406 113.101562 73.703125 113.09375 73.703125 113.085938 C 73.695312 113.03125 73.660156 112.957031 73.730469 112.929688 C 73.992188 112.832031 74.304688 112.75 74.292969 112.582031 C 74.28125 112.4375 74.285156 112.292969 74.265625 112.148438 C 74.253906 112.070312 74.140625 112.042969 73.96875 112.066406 C 73.796875 112.089844 73.640625 112.082031 73.601562 112.023438 C 73.566406 111.976562 73.574219 111.898438 73.652344 111.871094 C 73.914062 111.773438 74.300781 111.710938 74.050781 111.527344 C 74.125 111.300781 74.132812 111.078125 73.976562 110.851562 C 73.929688 110.777344 74.015625 110.664062 74.148438 110.609375 C 74.550781 110.441406 74.601562 110.28125 74.371094 110.0625 C 74.210938 109.910156 74.273438 109.71875 74.257812 109.546875 C 74.226562 109.195312 74.285156 108.84375 74.167969 108.5 C 74.097656 108.296875 74.066406 108.113281 74.207031 107.917969 C 74.292969 107.800781 74.167969 107.6875 74.042969 107.582031 C 73.972656 107.523438 74.015625 107.476562 74.171875 107.441406 C 74.640625 107.332031 74.574219 107.148438 74.574219 106.976562 C 74.578125 106.851562 74.421875 106.757812 74.121094 106.703125 Z M 89.3125 118.015625 L 89.285156 118.039062 L 89.304688 118.042969 C 89.316406 118.035156 89.332031 118.027344 89.339844 118.019531 Z M 89.882812 120.292969 C 89.875 120.183594 89.824219 120.070312 89.730469 119.964844 C 89.636719 119.855469 89.652344 119.757812 89.710938 119.640625 C 89.953125 119.132812 89.859375 118.628906 89.613281 118.132812 C 89.59375 118.09375 89.421875 118.070312 89.304688 118.042969 C 89.171875 118.144531 88.941406 118.203125 88.667969 118.230469 C 88.34375 118.261719 88.121094 118.316406 88.117188 118.457031 C 88.105469 118.683594 88.078125 118.910156 88.074219 119.132812 C 88.070312 119.359375 88.160156 119.578125 88.347656 119.792969 C 88.617188 120.109375 88.6875 120.4375 88.429688 120.777344 C 88.292969 120.796875 88.164062 120.855469 88.035156 121 C 87.898438 120.894531 87.757812 121.0625 87.628906 120.988281 C 87.207031 120.730469 86.785156 120.882812 86.363281 120.871094 C 86.109375 120.863281 85.863281 120.917969 85.625 121.207031 C 85.472656 121.386719 85.292969 121.375 85.128906 121.183594 C 84.9375 120.964844 84.746094 120.90625 84.542969 120.925781 C 84.347656 120.949219 84.148438 120.957031 83.953125 120.96875 C 83.5 120.992188 83.046875 121.039062 82.597656 121.027344 C 82.144531 121.019531 81.695312 121.128906 81.246094 120.777344 C 81.167969 120.714844 81.078125 120.769531 80.992188 120.769531 L 80.484375 120.78125 C 80.285156 120.789062 80.089844 120.832031 79.890625 120.800781 C 79.722656 120.773438 79.578125 121.113281 79.402344 120.941406 C 79.203125 120.75 79.015625 120.929688 78.820312 121.011719 C 78.773438 121.03125 78.71875 121.023438 78.667969 121.023438 C 78.527344 120.804688 78.449219 120.597656 78.65625 120.382812 C 78.773438 120.265625 78.714844 120.109375 78.652344 119.96875 C 78.539062 119.71875 78.410156 119.464844 78.207031 119.214844 C 78.089844 119.070312 78.136719 119.011719 78.445312 118.96875 C 78.546875 118.953125 78.65625 118.886719 78.632812 118.84375 C 78.449219 118.496094 78.765625 118.199219 78.703125 117.863281 C 78.636719 117.523438 78.714844 117.195312 78.707031 116.863281 C 78.699219 116.417969 78.667969 115.96875 78.648438 115.519531 C 78.644531 115.375 78.46875 115.21875 78.429688 115.078125 C 78.394531 114.945312 78.625 114.847656 78.644531 114.71875 C 78.695312 114.363281 78.71875 114.007812 78.710938 113.644531 C 78.695312 113.140625 78.65625 112.628906 78.605469 112.113281 C 78.582031 111.882812 78.628906 111.675781 78.785156 111.496094 C 78.894531 111.371094 78.816406 111.179688 78.890625 111.035156 C 78.949219 110.914062 78.820312 110.742188 78.726562 110.582031 C 78.652344 110.457031 78.617188 110.324219 78.6875 110.246094 C 78.789062 110.132812 78.824219 110.019531 78.644531 109.832031 C 78.542969 109.730469 78.46875 109.628906 78.410156 109.527344 C 78.316406 109.371094 78.796875 109.507812 78.785156 109.382812 C 78.746094 109.042969 79.101562 108.828125 78.726562 108.382812 C 78.886719 108.304688 78.929688 108.183594 78.777344 107.996094 C 78.503906 107.660156 78.507812 107.417969 78.78125 107.269531 C 78.863281 107.226562 78.875 107.140625 78.875 107.058594 L 78.859375 103.707031 L 78.855469 102.949219 L 78.835938 102.101562 L 78.828125 101.34375 L 78.8125 100.492188 L 78.804688 99.734375 C 79.179688 99.679688 78.675781 99.113281 78.789062 98.902344 C 78.84375 98.796875 78.820312 98.640625 78.878906 98.542969 C 78.929688 98.457031 78.898438 98.335938 78.835938 98.183594 C 78.789062 98.078125 78.753906 97.960938 78.8125 97.925781 C 79.105469 97.757812 79.011719 97.335938 79.011719 96.972656 L 78.929688 90.773438 L 78.945312 89.859375 C 78.945312 89.550781 78.960938 89.257812 78.917969 88.902344 C 78.871094 88.546875 79.054688 88.429688 79.066406 88.136719 C 79.066406 88.113281 79.015625 88.03125 78.976562 87.980469 C 78.933594 87.925781 78.855469 87.847656 78.824219 87.832031 C 78.402344 87.605469 78.253906 87.734375 78.273438 88.050781 C 78.320312 88.734375 78.328125 89.375 78.296875 89.976562 C 78.285156 90.226562 78.28125 90.484375 78.296875 90.753906 C 78.3125 91.054688 78.378906 91.398438 78.128906 91.464844 C 78.144531 91.644531 78.148438 91.816406 78.179688 92.007812 C 78.195312 92.105469 78.296875 92.273438 78.292969 92.351562 C 78.25 92.980469 78.453125 93.792969 78.054688 94.140625 C 78.003906 94.183594 78.003906 94.273438 78.003906 94.363281 C 78.015625 94.945312 77.898438 95.441406 78.003906 96.09375 C 78.050781 96.382812 78.015625 96.621094 78.011719 96.875 C 78 97.328125 77.964844 97.769531 77.96875 98.234375 C 77.972656 98.609375 78.058594 99.03125 77.816406 99.261719 C 77.785156 99.292969 77.894531 99.421875 77.863281 99.457031 C 77.761719 99.574219 78.007812 99.882812 77.929688 99.996094 C 77.84375 100.125 77.953125 100.34375 77.972656 100.519531 C 78.003906 100.847656 78.210938 101.273438 77.816406 101.367188 C 77.792969 101.375 77.832031 101.433594 77.851562 101.46875 C 77.980469 101.703125 77.621094 101.691406 77.867188 101.980469 C 78.179688 102.339844 77.800781 102.332031 77.761719 102.503906 C 77.75 102.558594 77.734375 102.613281 77.78125 102.6875 C 78.050781 103.121094 78.15625 103.46875 77.804688 103.621094 C 77.777344 103.632812 77.777344 103.667969 77.796875 103.699219 C 77.929688 103.960938 77.710938 104.070312 77.828125 104.308594 C 77.960938 104.578125 77.691406 104.640625 77.710938 104.851562 C 77.785156 105.515625 77.757812 106.132812 77.65625 106.726562 C 77.636719 106.832031 77.753906 106.988281 77.8125 107.117188 C 77.839844 107.179688 77.933594 107.277344 77.890625 107.300781 C 77.640625 107.429688 77.703125 107.683594 77.703125 107.910156 C 77.703125 108.28125 77.828125 108.695312 77.4375 108.933594 C 77.382812 108.964844 77.382812 109.03125 77.390625 109.089844 C 77.457031 109.652344 77.253906 110.148438 77.566406 110.773438 C 77.382812 110.914062 77.832031 111.230469 77.460938 111.320312 C 77.449219 111.460938 77.375 111.589844 77.441406 111.742188 C 77.511719 111.902344 77.539062 112.039062 77.433594 112.15625 C 77.355469 112.246094 77.367188 112.371094 77.363281 112.484375 L 77.351562 114.46875 C 77.347656 114.726562 77.300781 114.976562 77.644531 115.265625 C 77.441406 115.371094 77.710938 115.554688 77.609375 115.671875 C 77.464844 115.84375 77.289062 116.007812 77.164062 116.183594 C 77.039062 116.363281 76.984375 116.5625 77.179688 116.78125 C 77.429688 117.066406 77.449219 117.3125 77.242188 117.546875 C 77.203125 117.59375 77.222656 117.660156 77.269531 117.714844 C 77.421875 117.902344 77.414062 118.066406 77.246094 118.21875 C 77.109375 118.34375 77.355469 118.507812 77.171875 118.632812 C 76.953125 118.777344 77.347656 118.96875 77.1875 119.132812 C 77.066406 119.253906 77.074219 119.410156 77.074219 119.550781 L 77.101562 121.707031 C 77.101562 121.730469 77.105469 121.757812 77.109375 121.78125 L 77.253906 122.675781 L 77.878906 122.550781 C 77.96875 122.535156 78.050781 122.484375 78.125 122.355469 C 78.175781 122.269531 78.222656 122.277344 78.285156 122.347656 C 78.472656 122.570312 78.671875 122.554688 78.871094 122.527344 C 79.152344 122.488281 79.4375 122.582031 79.710938 122.355469 C 79.988281 122.128906 80.261719 122.558594 80.542969 122.457031 C 80.992188 122.292969 81.441406 122.339844 81.894531 122.582031 C 81.984375 122.632812 82.003906 122.269531 82.074219 122.222656 C 82.140625 122.175781 82.226562 122.289062 82.308594 122.332031 C 82.445312 122.410156 82.589844 122.570312 82.722656 122.550781 C 82.894531 122.523438 83.054688 122.550781 83.21875 122.640625 C 83.300781 122.6875 83.390625 122.679688 83.472656 122.660156 C 83.613281 122.621094 83.75 122.542969 83.890625 122.5 C 83.941406 122.480469 84 122.476562 84.050781 122.507812 C 84.476562 122.753906 84.894531 122.570312 85.316406 122.488281 C 85.398438 122.472656 85.46875 122.316406 85.558594 122.417969 C 85.753906 122.636719 85.953125 122.535156 86.148438 122.542969 C 86.316406 122.550781 86.488281 122.539062 86.65625 122.527344 C 86.828125 122.515625 86.988281 122.410156 87.152344 122.320312 C 87.3125 122.234375 87.488281 122.558594 87.652344 122.410156 C 87.789062 122.285156 87.910156 122.222656 88.054688 122.382812 C 88.128906 122.464844 88.222656 122.457031 88.304688 122.453125 L 89.136719 122.425781 L 89.996094 122.390625 L 89.949219 121.578125 Z M 78.855469 87.820312 C 79.097656 88.125 79.222656 88.230469 79.363281 88.238281 L 81.261719 88.335938 L 82.035156 88.351562 C 82.316406 88.359375 82.621094 88.421875 82.773438 88.183594 C 83.15625 88.445312 83.367188 88.351562 83.632812 88.371094 C 83.898438 88.390625 84.15625 88.398438 84.382812 88.3125 C 84.542969 88.253906 84.671875 88.109375 84.921875 88.371094 C 85.375 88.296875 85.882812 88.511719 86.289062 88.164062 C 86.367188 88.097656 86.441406 88.191406 86.523438 88.222656 C 86.660156 88.273438 86.796875 88.316406 86.921875 88.296875 C 87.023438 88.28125 87.105469 88.101562 87.207031 88.105469 C 87.226562 88.105469 87.25 88.113281 87.273438 88.125 C 87.265625 88.152344 87.257812 88.175781 87.257812 88.203125 C 87.253906 88.367188 87.4375 88.527344 87.503906 88.691406 C 87.535156 88.773438 87.535156 88.863281 87.480469 88.945312 C 87.140625 89.425781 87.101562 89.894531 87.527344 90.355469 C 87.570312 90.40625 87.546875 90.46875 87.5 90.519531 C 87.390625 90.640625 87.449219 90.738281 87.574219 90.84375 C 87.695312 90.949219 87.691406 91.066406 87.566406 91.175781 C 87.410156 91.308594 87.335938 91.445312 87.386719 91.589844 C 87.4375 91.722656 87.628906 91.84375 87.507812 91.996094 C 87.425781 92.09375 87.671875 92.203125 87.535156 92.316406 C 87.367188 92.464844 87.660156 92.589844 87.625 92.726562 C 87.597656 92.839844 87.699219 92.957031 87.617188 93.054688 C 87.320312 93.425781 87.476562 93.789062 87.496094 94.152344 C 87.507812 94.40625 87.554688 94.660156 87.5625 94.914062 L 87.632812 97.285156 C 87.636719 97.398438 87.660156 97.511719 87.734375 97.617188 C 87.882812 97.835938 87.886719 98.042969 87.789062 98.277344 C 87.636719 98.640625 87.601562 99.011719 87.957031 99.363281 C 88.042969 99.445312 87.984375 99.519531 87.910156 99.605469 C 87.761719 99.769531 87.804688 99.9375 87.894531 100.101562 C 87.933594 100.171875 88.0625 100.183594 88.242188 100.148438 C 88.308594 100.136719 88.433594 100.125 88.457031 100.136719 C 88.539062 100.175781 88.625 100.222656 88.648438 100.273438 C 88.667969 100.328125 88.667969 100.398438 88.589844 100.4375 C 88.011719 100.722656 87.773438 101.054688 87.59375 101.390625 C 87.503906 101.558594 87.511719 101.726562 88.027344 101.8125 C 88.246094 101.851562 88.042969 101.976562 88.164062 102.03125 C 88.289062 102.09375 88.519531 102.121094 88.671875 102.175781 C 88.800781 102.222656 88.675781 102.367188 88.503906 102.390625 C 88.363281 102.410156 88.214844 102.429688 88.074219 102.445312 C 87.761719 102.496094 87.617188 102.582031 87.636719 102.710938 C 87.65625 102.828125 87.804688 102.90625 88.050781 102.980469 C 88.484375 103.113281 88.523438 103.253906 88.269531 103.421875 C 88.15625 103.496094 88.011719 103.5625 87.890625 103.636719 C 87.726562 103.742188 87.648438 103.851562 87.804688 103.960938 C 87.984375 104.085938 88.066406 104.21875 88.027344 104.363281 C 88.003906 104.445312 87.984375 104.535156 87.90625 104.613281 C 87.785156 104.742188 87.9375 104.824219 88.148438 104.90625 C 88.296875 104.960938 88.425781 105.03125 88.339844 105.125 C 88.242188 105.234375 88.152344 105.351562 88.3125 105.453125 C 88.511719 105.585938 88.195312 105.730469 88.375 105.859375 C 88.492188 105.945312 88.292969 106.019531 88.261719 106.101562 C 88.207031 106.242188 88.144531 106.382812 88.21875 106.53125 C 88.234375 106.632812 88.257812 106.746094 88.277344 106.859375 C 88.289062 106.917969 88.550781 106.988281 88.765625 106.992188 C 89.179688 106.996094 89.347656 106.957031 89.496094 106.84375 C 89.765625 106.628906 89.925781 106.414062 89.699219 106.191406 C 89.839844 106.042969 89.496094 105.914062 89.585938 105.78125 C 89.699219 105.613281 89.566406 105.449219 89.675781 105.285156 C 89.816406 105.082031 89.816406 104.894531 89.582031 104.710938 C 89.417969 104.582031 89.410156 104.445312 89.539062 104.300781 C 89.636719 104.195312 89.738281 104.082031 89.75 103.96875 C 89.78125 103.6875 89.773438 103.40625 89.761719 103.125 C 89.757812 103.039062 89.75 102.945312 89.652344 102.878906 C 89.390625 102.691406 89.371094 102.519531 89.613281 102.316406 C 89.734375 102.21875 89.71875 102.09375 89.714844 101.980469 C 89.703125 101.839844 89.636719 101.703125 89.605469 101.5625 C 89.574219 101.421875 89.476562 101.289062 89.40625 101.152344 C 89.335938 101.027344 89.484375 100.878906 89.53125 100.742188 C 89.539062 100.714844 89.53125 100.679688 89.496094 100.660156 C 89.1875 100.484375 89.546875 100.269531 89.347656 100.089844 C 89.667969 99.691406 89.519531 99.308594 89.28125 98.921875 C 89.21875 98.824219 89.285156 98.703125 89.1875 98.59375 C 89.460938 98.464844 89.175781 98.320312 89.285156 98.195312 C 89.457031 97.996094 89.449219 97.808594 89.433594 97.609375 C 89.351562 96.679688 89.300781 95.75 89.25 94.816406 C 89.242188 94.679688 89.175781 94.523438 89.316406 94.398438 C 89.511719 94.226562 89.289062 94.066406 89.425781 93.90625 C 89.53125 93.789062 89.253906 93.703125 89.355469 93.582031 C 89.464844 93.453125 89.433594 93.308594 89.472656 93.171875 C 89.507812 93.042969 89.375 92.960938 89.089844 92.902344 C 88.804688 92.835938 88.738281 92.730469 88.90625 92.613281 C 89.09375 92.480469 89.136719 92.339844 89.03125 92.203125 C 88.925781 92.070312 88.882812 91.945312 88.933594 91.796875 C 89.046875 91.488281 89.039062 91.175781 89.121094 90.863281 C 89.160156 90.726562 89.445312 90.582031 89.292969 90.453125 C 89.101562 90.292969 89.257812 90.125 89.148438 89.960938 C 88.9375 89.636719 88.832031 89.296875 89.058594 88.957031 C 89.171875 88.789062 89.074219 88.695312 88.707031 88.628906 C 88.644531 88.527344 88.945312 88.507812 89.019531 88.445312 C 89.144531 88.332031 88.875 88.242188 88.878906 88.128906 C 88.890625 87.898438 88.898438 87.664062 88.851562 87.4375 L 88.738281 86.855469 L 88.332031 86.929688 L 88.261719 86.941406 C 87.980469 87.003906 87.675781 86.40625 87.402344 86.835938 C 87.285156 86.757812 87.160156 86.628906 87.042969 86.609375 C 86.742188 86.5625 86.417969 86.496094 86.164062 86.726562 C 85.90625 86.964844 85.539062 86.496094 85.269531 86.660156 C 85.117188 86.757812 84.945312 86.800781 84.8125 86.929688 C 84.667969 87.0625 84.519531 87.097656 84.289062 86.902344 C 84.023438 86.679688 83.8125 86.699219 83.632812 86.777344 C 83.53125 86.824219 83.488281 86.996094 83.375 87 C 83.265625 87 83.09375 86.847656 82.953125 86.789062 C 82.765625 86.710938 82.636719 86.75 82.566406 86.910156 C 82.542969 86.964844 82.507812 87.039062 82.449219 87 C 82.191406 86.851562 82.121094 87.03125 81.992188 87.105469 C 81.769531 87.230469 81.585938 87.421875 81.132812 87.109375 C 80.660156 86.796875 80.664062 87.175781 80.351562 87.074219 C 80.316406 87.21875 80.214844 87.269531 80.097656 87.304688 C 80.003906 87.335938 79.867188 87.304688 79.667969 87.183594 C 79.515625 87.089844 79.390625 87.042969 79.355469 87.101562 C 79.304688 87.183594 79.207031 87.191406 79 87.082031 C 78.808594 86.984375 78.636719 86.921875 78.46875 86.867188 C 78.335938 86.824219 78.332031 86.914062 78.375 87.027344 C 78.464844 87.257812 78.613281 87.511719 78.855469 87.820312 Z M 89.757812 117.558594 C 89.878906 117.28125 89.917969 117.003906 89.972656 116.722656 C 90.03125 116.441406 90.023438 116.160156 90 115.878906 C 89.980469 115.597656 89.910156 115.320312 89.859375 115.039062 C 89.625 114.90625 89.84375 114.769531 89.882812 114.636719 C 89.910156 114.550781 89.914062 114.554688 89.464844 114.542969 C 89.402344 114.542969 89.289062 114.535156 89.289062 114.527344 C 89.277344 114.476562 89.242188 114.40625 89.3125 114.378906 C 89.574219 114.273438 89.878906 114.183594 89.863281 114.023438 C 89.847656 113.882812 89.847656 113.742188 89.824219 113.605469 C 89.8125 113.527344 89.695312 113.503906 89.527344 113.53125 C 89.355469 113.5625 89.199219 113.558594 89.15625 113.5 C 89.121094 113.457031 89.125 113.378906 89.203125 113.351562 C 89.464844 113.25 89.847656 113.179688 89.589844 113.007812 C 89.660156 112.785156 89.660156 112.566406 89.5 112.351562 C 89.449219 112.285156 89.535156 112.171875 89.664062 112.113281 C 90.058594 111.9375 90.109375 111.785156 89.871094 111.578125 C 89.707031 111.433594 89.761719 111.246094 89.742188 111.078125 C 89.703125 110.742188 89.75 110.398438 89.625 110.066406 C 89.546875 109.871094 89.511719 109.691406 89.648438 109.5 C 89.730469 109.382812 89.601562 109.277344 89.472656 109.179688 C 89.402344 109.125 89.445312 109.078125 89.601562 109.035156 C 90.0625 108.917969 89.992188 108.742188 89.988281 108.578125 C 89.988281 108.453125 89.832031 108.367188 89.527344 108.324219 C 89.332031 108.296875 89.292969 108.257812 89.4375 108.195312 C 89.761719 108.0625 89.96875 107.925781 89.703125 107.742188 C 89.617188 107.679688 89.714844 107.578125 89.738281 107.496094 C 89.773438 107.359375 89.773438 107.355469 89.476562 107.3125 C 89.203125 107.273438 88.929688 107.230469 88.648438 107.207031 C 88.515625 107.195312 88.339844 107.203125 88.21875 107.226562 C 88.105469 107.25 87.953125 107.3125 87.964844 107.347656 C 88.066406 107.597656 88.25 107.835938 88.539062 108.058594 C 88.640625 108.132812 88.734375 108.222656 88.621094 108.292969 C 88.359375 108.457031 88.289062 108.609375 88.578125 108.765625 C 88.609375 108.78125 88.601562 108.820312 88.570312 108.839844 C 88.371094 108.976562 88.382812 109.105469 88.574219 109.238281 C 88.722656 109.34375 88.46875 109.375 88.28125 109.421875 C 88.105469 109.464844 88.144531 109.503906 88.304688 109.554688 C 88.652344 109.660156 88.644531 109.664062 88.410156 109.8125 C 88.332031 109.859375 88.246094 109.90625 88.1875 109.957031 C 88.164062 109.976562 88.1875 110.019531 88.226562 110.027344 C 88.679688 110.113281 88.632812 110.203125 88.214844 110.296875 C 88.210938 110.402344 88.25 110.511719 88.195312 110.613281 C 88.136719 110.730469 88.125 110.839844 88.25 110.941406 C 88.507812 111.152344 88.59375 111.359375 88.277344 111.589844 C 88.179688 111.660156 88.167969 111.753906 88.152344 111.835938 C 88.097656 112.117188 88.121094 112.398438 87.863281 112.675781 C 87.796875 112.75 87.824219 112.851562 87.894531 112.921875 C 88.082031 113.105469 88.148438 113.296875 88.160156 113.496094 C 88.179688 113.75 88.21875 114.003906 88.253906 114.257812 C 88.285156 114.453125 88.25 114.652344 88.066406 114.84375 C 87.972656 114.941406 88.070312 115.007812 88.214844 115.070312 C 88.484375 115.183594 88.5625 115.296875 88.351562 115.445312 C 88.210938 115.546875 88.101562 115.65625 88.027344 115.765625 C 87.96875 115.847656 88.003906 115.945312 88.203125 115.988281 C 88.492188 116.054688 88.710938 116.132812 88.390625 116.238281 C 87.941406 116.386719 88.292969 116.5625 88.117188 116.707031 C 87.910156 116.886719 88.242188 117.035156 88.152344 117.199219 C 88.085938 117.324219 88.253906 117.414062 88.375 117.511719 C 88.5625 117.660156 88.75 117.8125 88.96875 117.953125 C 89.023438 117.988281 89.1875 117.996094 89.3125 118.015625 C 89.472656 117.863281 89.691406 117.714844 89.757812 117.558594 Z M 89.757812 117.558594 "/><path style=" stroke:none;fill-rule:nonzero;fill:#c5ded8;fill-opacity:1;" d="M 98.40625 84.09375 L 137.316406 84.09375 L 137.316406 114.078125 L 98.011719 113.898438 Z M 51.003906 84.882812 L 8.019531 85.414062 L 8.507812 112.03125 L 51.003906 113.898438 Z M 51.003906 84.882812 "/></g></svg>