<svg xmlns="http://www.w3.org/2000/svg" xmlns:xlink="http://www.w3.org/1999/xlink" width="200" zoomAndPan="magnify" viewBox="0 0 150 149.999998" height="200" preserveAspectRatio="xMidYMid meet" version="1.2"><defs><clipPath id="8e53b03dfb"><path d="M 7.5 11.171875 L 142.5 11.171875 L 142.5 146.171875 L 7.5 146.171875 Z M 7.5 11.171875 "/></clipPath></defs><g id="b11bda7fe9"><g clip-rule="nonzero" clip-path="url(#8e53b03dfb)"><path style=" stroke:none;fill-rule:nonzero;fill:#493b34;fill-opacity:1;" d="M 142.488281 69.675781 L 142.488281 136.570312 C 142.488281 136.964844 142.171875 137.285156 141.773438 137.285156 L 131.609375 137.285156 C 131.207031 140.089844 128.929688 142.308594 126.035156 142.636719 C 124.957031 144.769531 122.773438 146.121094 120.359375 146.121094 C 118.628906 146.121094 117.015625 145.4375 115.824219 144.222656 C 114.632812 145.4375 113.019531 146.121094 111.285156 146.121094 C 109.847656 146.121094 108.472656 145.644531 107.355469 144.761719 C 106.320312 145.441406 105.101562 145.8125 103.855469 145.8125 C 102.472656 145.8125 101.140625 145.363281 100.046875 144.542969 C 98.949219 145.363281 97.617188 145.8125 96.234375 145.8125 C 94.628906 145.8125 93.097656 145.207031 91.929688 144.132812 C 90.761719 145.207031 89.234375 145.8125 87.628906 145.8125 C 85.917969 145.8125 84.28125 145.109375 83.09375 143.90625 C 81.902344 145.109375 80.265625 145.8125 78.554688 145.8125 C 76.023438 145.8125 73.734375 144.292969 72.726562 142 C 70.089844 141.6875 67.972656 139.78125 67.328125 137.285156 L 10.652344 137.285156 C 10.257812 137.285156 9.9375 136.964844 9.9375 136.570312 L 9.9375 47.042969 L 8.214844 47.042969 C 7.820312 47.042969 7.5 46.722656 7.5 46.328125 L 7.5 11.925781 C 7.5 11.53125 7.820312 11.210938 8.214844 11.210938 L 85.695312 11.210938 C 86.089844 11.210938 86.410156 11.53125 86.410156 11.925781 L 86.410156 46.328125 C 86.410156 46.722656 86.089844 47.042969 85.695312 47.042969 L 83.972656 47.042969 L 83.972656 68.964844 L 141.777344 68.964844 C 142.171875 68.960938 142.488281 69.28125 142.488281 69.675781 Z M 142.488281 69.675781 "/></g><path style=" stroke:none;fill-rule:nonzero;fill:#e2b384;fill-opacity:1;" d="M 58.691406 48.347656 C 58.691406 54.820312 53.425781 60.082031 46.953125 60.082031 C 40.484375 60.082031 35.21875 54.820312 35.21875 48.347656 C 35.21875 47.90625 35.246094 47.472656 35.292969 47.042969 L 11.367188 47.042969 L 11.367188 135.855469 L 36.703125 135.855469 L 36.703125 118.902344 C 36.703125 118.507812 37.023438 118.1875 37.417969 118.1875 L 56.492188 118.1875 C 56.886719 118.1875 57.207031 118.507812 57.207031 118.902344 L 57.207031 135.855469 L 67.128906 135.855469 C 67.125 135.796875 67.121094 135.742188 67.121094 135.683594 C 67.121094 132.515625 69.449219 129.882812 72.480469 129.402344 C 73.0625 127.550781 74.46875 126.089844 76.226562 125.386719 L 62.527344 125.386719 C 62.132812 125.386719 61.8125 125.066406 61.8125 124.671875 L 61.8125 118.625 C 61.8125 118.230469 62.132812 117.910156 62.527344 117.910156 L 77.8125 117.910156 C 78.207031 117.910156 78.527344 118.230469 78.527344 118.625 L 78.527344 124.671875 C 78.527344 124.765625 78.507812 124.855469 78.472656 124.9375 C 78.5 124.9375 78.527344 124.933594 78.554688 124.933594 C 80.066406 124.933594 81.453125 125.464844 82.542969 126.34375 L 82.542969 47.042969 L 58.613281 47.042969 C 58.664062 47.472656 58.691406 47.90625 58.691406 48.347656 Z M 19.539062 64.828125 C 19.539062 64.433594 19.859375 64.113281 20.253906 64.113281 L 29.171875 64.113281 C 29.566406 64.113281 29.886719 64.433594 29.886719 64.828125 L 29.886719 73.746094 C 29.886719 74.140625 29.566406 74.460938 29.171875 74.460938 L 20.253906 74.460938 C 19.859375 74.460938 19.539062 74.140625 19.539062 73.746094 Z M 19.539062 84.136719 C 19.539062 83.742188 19.859375 83.421875 20.253906 83.421875 L 29.171875 83.421875 C 29.566406 83.421875 29.886719 83.742188 29.886719 84.136719 L 29.886719 93.054688 C 29.886719 93.449219 29.566406 93.769531 29.171875 93.769531 L 20.253906 93.769531 C 19.859375 93.769531 19.539062 93.449219 19.539062 93.054688 Z M 19.539062 102.167969 C 19.539062 101.773438 19.859375 101.453125 20.253906 101.453125 L 29.171875 101.453125 C 29.566406 101.453125 29.886719 101.773438 29.886719 102.167969 L 29.886719 111.085938 C 29.886719 111.480469 29.566406 111.800781 29.171875 111.800781 L 20.253906 111.800781 C 19.859375 111.800781 19.539062 111.480469 19.539062 111.085938 Z M 32.726562 124.671875 C 32.726562 125.066406 32.40625 125.386719 32.011719 125.386719 L 16.726562 125.386719 C 16.328125 125.386719 16.011719 125.066406 16.011719 124.671875 L 16.011719 118.625 C 16.011719 118.230469 16.328125 117.910156 16.726562 117.910156 L 32.011719 117.910156 C 32.40625 117.910156 32.726562 118.230469 32.726562 118.625 Z M 52.128906 111.085938 C 52.128906 111.480469 51.808594 111.800781 51.414062 111.800781 L 42.496094 111.800781 C 42.101562 111.800781 41.78125 111.480469 41.78125 111.085938 L 41.78125 102.167969 C 41.78125 101.773438 42.101562 101.453125 42.496094 101.453125 L 51.414062 101.453125 C 51.808594 101.453125 52.128906 101.773438 52.128906 102.167969 Z M 52.128906 93.054688 C 52.128906 93.449219 51.808594 93.769531 51.414062 93.769531 L 42.496094 93.769531 C 42.101562 93.769531 41.78125 93.449219 41.78125 93.054688 L 41.78125 84.136719 C 41.78125 83.742188 42.101562 83.421875 42.496094 83.421875 L 51.414062 83.421875 C 51.808594 83.421875 52.128906 83.742188 52.128906 84.136719 Z M 52.128906 73.746094 C 52.128906 74.140625 51.808594 74.460938 51.414062 74.460938 L 42.496094 74.460938 C 42.101562 74.460938 41.78125 74.140625 41.78125 73.746094 L 41.78125 64.828125 C 41.78125 64.433594 42.101562 64.113281 42.496094 64.113281 L 51.414062 64.113281 C 51.808594 64.113281 52.128906 64.433594 52.128906 64.828125 Z M 64.023438 64.828125 C 64.023438 64.433594 64.34375 64.113281 64.738281 64.113281 L 73.65625 64.113281 C 74.050781 64.113281 74.371094 64.433594 74.371094 64.828125 L 74.371094 73.746094 C 74.371094 74.140625 74.050781 74.460938 73.65625 74.460938 L 64.738281 74.460938 C 64.34375 74.460938 64.023438 74.140625 64.023438 73.746094 Z M 64.023438 84.136719 C 64.023438 83.742188 64.34375 83.421875 64.738281 83.421875 L 73.65625 83.421875 C 74.050781 83.421875 74.371094 83.742188 74.371094 84.136719 L 74.371094 93.054688 C 74.371094 93.449219 74.050781 93.769531 73.65625 93.769531 L 64.738281 93.769531 C 64.34375 93.769531 64.023438 93.449219 64.023438 93.054688 Z M 64.023438 102.167969 C 64.023438 101.773438 64.34375 101.453125 64.738281 101.453125 L 73.65625 101.453125 C 74.050781 101.453125 74.371094 101.773438 74.371094 102.167969 L 74.371094 111.085938 C 74.371094 111.480469 74.050781 111.800781 73.65625 111.800781 L 64.738281 111.800781 C 64.34375 111.800781 64.023438 111.480469 64.023438 111.085938 Z M 83.972656 104.792969 L 83.972656 126.09375 C 85.035156 125.351562 86.3125 124.933594 87.628906 124.933594 C 89.285156 124.933594 90.796875 125.570312 91.929688 126.613281 C 93.097656 125.539062 94.636719 124.933594 96.234375 124.933594 C 97.660156 124.933594 98.980469 125.40625 100.042969 126.203125 C 101.140625 125.382812 102.472656 124.933594 103.855469 124.933594 C 105.339844 124.933594 106.703125 125.445312 107.785156 126.296875 C 108.820312 125.617188 110.039062 125.246094 111.285156 125.246094 C 113.058594 125.246094 114.664062 125.976562 115.820312 127.148438 C 117.011719 125.929688 118.628906 125.246094 120.359375 125.246094 C 121.019531 125.246094 121.65625 125.351562 122.261719 125.542969 L 122.261719 104.792969 Z M 115.929688 118.605469 C 115.929688 119 115.609375 119.320312 115.214844 119.320312 L 90.5625 119.320312 C 90.167969 119.320312 89.847656 119 89.847656 118.605469 L 89.847656 112.714844 C 89.847656 112.320312 90.167969 112 90.5625 112 L 115.214844 112 C 115.609375 112 115.929688 112.320312 115.929688 112.714844 Z M 115.929688 118.605469 "/><path style=" stroke:none;fill-rule:nonzero;fill:#e35e5e;fill-opacity:1;" d="M 57.085938 42.441406 C 55.050781 38.960938 51.273438 36.613281 46.953125 36.613281 C 42.636719 36.613281 38.859375 38.960938 36.824219 42.441406 C 37.703125 37.648438 41.910156 34 46.953125 34 C 52 34 56.207031 37.648438 57.085938 42.441406 Z M 57.261719 48.347656 C 57.261719 54.03125 52.636719 58.652344 46.953125 58.652344 C 41.273438 58.652344 36.648438 54.03125 36.648438 48.347656 C 36.648438 42.667969 41.273438 38.042969 46.953125 38.042969 C 52.636719 38.042969 57.261719 42.667969 57.261719 48.347656 Z M 49.722656 42.234375 C 49.722656 41.839844 49.402344 41.519531 49.007812 41.519531 L 44.902344 41.519531 C 44.507812 41.519531 44.1875 41.835938 44.1875 42.234375 L 44.1875 46.003906 L 40.417969 46.003906 C 40.023438 46.003906 39.703125 46.324219 39.703125 46.71875 L 39.703125 50.820312 C 39.703125 51.214844 40.023438 51.535156 40.417969 51.535156 L 44.1875 51.535156 L 44.1875 55.308594 C 44.1875 55.703125 44.507812 56.023438 44.902344 56.023438 L 49.007812 56.023438 C 49.402344 56.023438 49.722656 55.703125 49.722656 55.308594 L 49.722656 51.535156 L 53.492188 51.535156 C 53.886719 51.535156 54.207031 51.214844 54.207031 50.820312 L 54.207031 46.71875 C 54.207031 46.324219 53.886719 46.003906 53.492188 46.003906 L 49.722656 46.003906 Z M 49.722656 42.234375 "/><path style=" stroke:none;fill-rule:nonzero;fill:#ced5cd;fill-opacity:1;" d="M 80.9375 38.136719 L 56.929688 38.136719 C 54.859375 34.800781 51.164062 32.570312 46.953125 32.570312 C 42.746094 32.570312 39.050781 34.800781 36.980469 38.136719 L 12.972656 38.136719 L 12.972656 16.683594 L 80.9375 16.683594 Z M 84.980469 16.078125 L 84.980469 12.640625 L 8.929688 12.640625 L 8.929688 42.175781 L 35.417969 42.175781 C 35.585938 41.265625 35.859375 40.390625 36.226562 39.566406 L 12.257812 39.566406 C 11.863281 39.566406 11.542969 39.246094 11.542969 38.851562 L 11.542969 15.96875 C 11.542969 15.574219 11.863281 15.253906 12.257812 15.253906 L 81.652344 15.253906 C 82.046875 15.253906 82.367188 15.574219 82.367188 15.96875 L 82.367188 38.851562 C 82.367188 39.246094 82.046875 39.566406 81.652344 39.566406 L 57.683594 39.566406 C 58.050781 40.390625 58.324219 41.265625 58.492188 42.175781 L 84.980469 42.175781 Z M 45.617188 42.949219 L 45.617188 46.71875 C 45.617188 47.113281 45.296875 47.433594 44.902344 47.433594 L 41.132812 47.433594 L 41.132812 50.105469 L 44.902344 50.105469 C 45.296875 50.105469 45.617188 50.425781 45.617188 50.820312 L 45.617188 54.59375 L 48.292969 54.59375 L 48.292969 50.820312 C 48.292969 50.425781 48.613281 50.105469 49.007812 50.105469 L 52.777344 50.105469 L 52.777344 47.433594 L 49.007812 47.433594 C 48.613281 47.433594 48.292969 47.113281 48.292969 46.71875 L 48.292969 42.949219 Z M 35.242188 43.605469 L 8.929688 43.605469 L 8.929688 45.613281 L 35.292969 45.613281 C 35.246094 45.183594 35.21875 44.75 35.21875 44.308594 C 35.21875 44.070312 35.230469 43.839844 35.242188 43.605469 Z M 84.980469 43.605469 L 58.667969 43.605469 C 58.679688 43.839844 58.691406 44.070312 58.691406 44.308594 C 58.691406 44.75 58.664062 45.183594 58.617188 45.613281 L 84.980469 45.613281 Z M 83.972656 102.882812 L 83.972656 103.363281 L 141.0625 103.363281 L 141.0625 101.359375 L 83.972656 101.359375 Z M 83.972656 70.390625 L 83.972656 99.929688 L 141.0625 99.929688 L 141.0625 70.390625 Z M 138.617188 132.417969 L 141.0625 132.417969 L 141.0625 104.792969 L 138.617188 104.792969 Z M 131.140625 133.847656 C 131.414062 134.472656 131.589844 135.148438 131.648438 135.855469 L 141.058594 135.855469 L 141.058594 133.847656 Z M 137.1875 104.792969 L 123.691406 104.792969 L 123.691406 126.203125 C 125.097656 127.078125 126.152344 128.484375 126.550781 130.152344 C 128.046875 130.449219 129.355469 131.273438 130.277344 132.417969 L 137.1875 132.417969 Z M 20.96875 92.339844 L 28.457031 92.339844 L 28.457031 84.851562 L 20.96875 84.851562 Z M 20.96875 110.371094 L 28.457031 110.371094 L 28.457031 102.882812 L 20.96875 102.882812 Z M 17.441406 123.957031 L 31.296875 123.957031 L 31.296875 119.339844 L 17.441406 119.339844 Z M 91.277344 117.890625 L 114.5 117.890625 L 114.5 113.429688 L 91.277344 113.429688 Z M 50.699219 84.851562 L 43.210938 84.851562 L 43.210938 92.339844 L 50.699219 92.339844 Z M 28.457031 65.542969 L 20.96875 65.542969 L 20.96875 73.03125 L 28.457031 73.03125 Z M 38.132812 135.777344 L 46.242188 135.777344 L 46.242188 131.390625 L 44.121094 131.390625 C 43.726562 131.390625 43.40625 131.070312 43.40625 130.675781 L 43.40625 126.027344 C 43.40625 125.632812 43.726562 125.3125 44.121094 125.3125 L 46.242188 125.3125 L 46.242188 119.617188 L 38.132812 119.617188 Z M 65.453125 92.339844 L 72.941406 92.339844 L 72.941406 84.851562 L 65.453125 84.851562 Z M 72.941406 65.542969 L 65.453125 65.542969 L 65.453125 73.03125 L 72.941406 73.03125 Z M 43.210938 110.371094 L 50.699219 110.371094 L 50.699219 102.882812 L 43.210938 102.882812 Z M 65.453125 110.371094 L 72.941406 110.371094 L 72.941406 102.882812 L 65.453125 102.882812 Z M 63.242188 123.957031 L 77.097656 123.957031 L 77.097656 119.339844 L 63.242188 119.339844 Z M 50.699219 65.542969 L 43.210938 65.542969 L 43.210938 73.03125 L 50.699219 73.03125 Z M 47.667969 125.3125 L 49.789062 125.3125 C 50.183594 125.3125 50.503906 125.632812 50.503906 126.027344 L 50.503906 130.675781 C 50.503906 131.070312 50.183594 131.390625 49.789062 131.390625 L 47.667969 131.390625 L 47.667969 135.777344 L 55.777344 135.777344 L 55.777344 119.617188 L 47.667969 119.617188 Z M 47.667969 125.3125 "/><path style=" stroke:none;fill-rule:nonzero;fill:#94b453;fill-opacity:1;" d="M 47.667969 126.742188 L 49.074219 126.742188 L 49.074219 129.960938 L 47.667969 129.960938 Z M 44.835938 129.960938 L 46.238281 129.960938 L 46.238281 126.742188 L 44.835938 126.742188 Z M 125.3125 131.460938 C 124.324219 131.460938 123.371094 131.75 122.554688 132.300781 C 122.226562 132.523438 121.785156 132.4375 121.5625 132.109375 C 121.34375 131.78125 121.429688 131.339844 121.753906 131.117188 C 122.730469 130.457031 123.859375 130.09375 125.03125 130.042969 C 124.367188 128.074219 122.488281 126.675781 120.359375 126.675781 C 118.957031 126.675781 117.648438 127.261719 116.710938 128.289062 C 117.304688 129.257812 117.648438 130.390625 117.648438 131.605469 C 117.648438 132 117.328125 132.320312 116.933594 132.320312 C 116.539062 132.320312 116.21875 132 116.21875 131.605469 C 116.21875 128.886719 114.007812 126.675781 111.285156 126.675781 C 110.40625 126.675781 109.570312 126.902344 108.828125 127.332031 C 109.695312 128.421875 110.21875 129.796875 110.21875 131.296875 C 110.21875 131.691406 109.898438 132.011719 109.503906 132.011719 C 109.109375 132.011719 108.789062 131.691406 108.789062 131.296875 C 108.789062 128.578125 106.578125 126.363281 103.855469 126.363281 C 102.867188 126.363281 101.914062 126.664062 101.105469 127.210938 C 102.035156 128.316406 102.59375 129.742188 102.59375 131.296875 C 102.59375 131.691406 102.277344 132.011719 101.878906 132.011719 C 101.484375 132.011719 101.164062 131.691406 101.164062 131.296875 C 101.164062 128.578125 98.953125 126.363281 96.234375 126.363281 C 94.980469 126.363281 93.777344 126.84375 92.867188 127.691406 C 93.574219 128.71875 93.992188 129.960938 93.992188 131.296875 C 93.992188 131.691406 93.671875 132.011719 93.277344 132.011719 C 92.878906 132.011719 92.5625 131.691406 92.5625 131.296875 C 92.5625 128.578125 90.347656 126.363281 87.628906 126.363281 C 86.21875 126.363281 84.914062 126.949219 83.980469 127.980469 C 84.574219 128.945312 84.917969 130.082031 84.917969 131.296875 C 84.917969 131.691406 84.597656 132.011719 84.203125 132.011719 C 83.808594 132.011719 83.488281 131.691406 83.488281 131.296875 C 83.488281 128.578125 81.273438 126.363281 78.554688 126.363281 C 76.574219 126.363281 74.792969 127.578125 74.027344 129.347656 C 75.105469 129.4375 76.140625 129.800781 77.042969 130.410156 C 77.378906 130.636719 77.695312 130.898438 77.984375 131.1875 C 78.261719 131.464844 78.261719 131.917969 77.984375 132.195312 C 77.84375 132.335938 77.660156 132.40625 77.476562 132.40625 C 77.292969 132.40625 77.113281 132.335938 76.972656 132.195312 C 76.75 131.972656 76.503906 131.769531 76.242188 131.59375 C 75.425781 131.042969 74.472656 130.753906 73.484375 130.753906 C 70.765625 130.753906 68.554688 132.964844 68.554688 135.683594 C 68.554688 138.324219 70.617188 140.488281 73.253906 140.609375 C 73.519531 140.625 73.742188 140.78125 73.855469 141.003906 C 73.867188 141.023438 73.875 141.050781 73.886719 141.070312 C 73.886719 141.074219 73.890625 141.074219 73.890625 141.078125 C 73.898438 141.097656 73.910156 141.113281 73.917969 141.132812 C 74.625 143.078125 76.488281 144.382812 78.554688 144.382812 C 80.132812 144.382812 81.578125 143.65625 82.519531 142.386719 C 82.523438 142.378906 82.53125 142.371094 82.539062 142.363281 C 82.554688 142.34375 82.570312 142.328125 82.585938 142.3125 C 82.605469 142.292969 82.625 142.273438 82.644531 142.257812 C 82.652344 142.253906 82.660156 142.246094 82.667969 142.238281 C 82.675781 142.234375 82.6875 142.226562 82.695312 142.222656 C 82.71875 142.207031 82.738281 142.195312 82.761719 142.179688 C 82.78125 142.171875 82.800781 142.164062 82.824219 142.152344 C 82.84375 142.144531 82.867188 142.136719 82.890625 142.128906 C 82.910156 142.125 82.933594 142.117188 82.957031 142.113281 C 82.976562 142.109375 83 142.105469 83.023438 142.105469 C 83.046875 142.101562 83.070312 142.101562 83.09375 142.101562 C 83.113281 142.101562 83.136719 142.101562 83.160156 142.105469 C 83.183594 142.105469 83.207031 142.109375 83.226562 142.113281 C 83.25 142.117188 83.273438 142.125 83.296875 142.128906 C 83.316406 142.136719 83.339844 142.144531 83.363281 142.152344 C 83.382812 142.164062 83.402344 142.171875 83.421875 142.183594 C 83.445312 142.195312 83.46875 142.207031 83.488281 142.222656 C 83.5 142.230469 83.507812 142.234375 83.519531 142.238281 C 83.527344 142.246094 83.53125 142.253906 83.539062 142.257812 C 83.558594 142.277344 83.578125 142.292969 83.597656 142.3125 C 83.613281 142.328125 83.628906 142.347656 83.644531 142.363281 C 83.652344 142.371094 83.660156 142.378906 83.667969 142.386719 C 84.609375 143.65625 86.050781 144.382812 87.628906 144.382812 C 89.078125 144.382812 90.445312 143.75 91.386719 142.644531 C 91.628906 142.363281 92.039062 142.316406 92.335938 142.527344 C 92.351562 142.535156 92.371094 142.546875 92.382812 142.558594 C 92.386719 142.558594 92.390625 142.5625 92.394531 142.566406 C 92.40625 142.574219 92.414062 142.585938 92.425781 142.597656 C 92.445312 142.613281 92.464844 142.628906 92.480469 142.648438 C 93.421875 143.75 94.789062 144.382812 96.234375 144.382812 C 97.46875 144.382812 98.652344 143.921875 99.5625 143.089844 C 99.574219 143.082031 99.585938 143.074219 99.59375 143.066406 C 99.613281 143.050781 99.632812 143.035156 99.65625 143.019531 C 99.675781 143.007812 99.691406 142.996094 99.710938 142.988281 C 99.734375 142.976562 99.757812 142.964844 99.777344 142.957031 C 99.800781 142.949219 99.820312 142.941406 99.839844 142.933594 C 99.863281 142.925781 99.886719 142.921875 99.910156 142.917969 C 99.933594 142.914062 99.953125 142.910156 99.976562 142.90625 C 100 142.90625 100.023438 142.902344 100.046875 142.902344 C 100.070312 142.902344 100.089844 142.90625 100.109375 142.90625 C 100.136719 142.910156 100.160156 142.914062 100.183594 142.917969 C 100.203125 142.921875 100.226562 142.925781 100.246094 142.933594 C 100.269531 142.941406 100.292969 142.949219 100.316406 142.957031 C 100.335938 142.964844 100.355469 142.976562 100.375 142.984375 C 100.394531 142.996094 100.417969 143.007812 100.4375 143.023438 C 100.457031 143.035156 100.476562 143.050781 100.496094 143.066406 C 100.503906 143.074219 100.515625 143.082031 100.527344 143.089844 C 101.4375 143.921875 102.621094 144.382812 103.855469 144.382812 C 104.992188 144.382812 106.0625 144.007812 106.945312 143.296875 C 106.949219 143.292969 106.953125 143.289062 106.960938 143.285156 C 106.984375 143.265625 107.011719 143.25 107.039062 143.234375 C 107.054688 143.226562 107.066406 143.21875 107.082031 143.210938 C 107.109375 143.199219 107.136719 143.1875 107.164062 143.175781 C 107.179688 143.171875 107.199219 143.167969 107.214844 143.160156 C 107.242188 143.15625 107.269531 143.152344 107.296875 143.148438 C 107.316406 143.144531 107.332031 143.140625 107.351562 143.140625 C 107.378906 143.136719 107.40625 143.140625 107.433594 143.140625 C 107.449219 143.140625 107.46875 143.140625 107.488281 143.144531 C 107.515625 143.148438 107.539062 143.15625 107.566406 143.160156 C 107.585938 143.164062 107.601562 143.171875 107.621094 143.175781 C 107.644531 143.183594 107.667969 143.195312 107.691406 143.207031 C 107.710938 143.214844 107.730469 143.222656 107.75 143.234375 C 107.769531 143.246094 107.789062 143.261719 107.808594 143.273438 C 107.828125 143.289062 107.847656 143.300781 107.867188 143.316406 C 107.871094 143.324219 107.878906 143.328125 107.886719 143.332031 C 108.808594 144.210938 110.015625 144.691406 111.285156 144.691406 C 112.851562 144.691406 114.289062 143.972656 115.230469 142.722656 C 115.46875 142.40625 115.917969 142.34375 116.234375 142.578125 C 116.246094 142.589844 116.257812 142.601562 116.273438 142.613281 C 116.34375 142.65625 116.40625 142.710938 116.460938 142.78125 C 117.402344 143.996094 118.824219 144.691406 120.359375 144.691406 C 122.347656 144.691406 124.128906 143.511719 124.90625 141.679688 C 124.910156 141.667969 124.917969 141.65625 124.925781 141.640625 C 124.9375 141.617188 124.949219 141.59375 124.964844 141.570312 C 124.976562 141.550781 124.992188 141.535156 125.003906 141.519531 C 125.019531 141.5 125.035156 141.480469 125.050781 141.464844 C 125.066406 141.445312 125.085938 141.433594 125.101562 141.417969 C 125.121094 141.402344 125.136719 141.386719 125.15625 141.375 C 125.175781 141.359375 125.195312 141.351562 125.210938 141.339844 C 125.234375 141.328125 125.253906 141.316406 125.277344 141.304688 C 125.296875 141.296875 125.316406 141.289062 125.339844 141.285156 C 125.363281 141.277344 125.382812 141.269531 125.40625 141.261719 C 125.433594 141.257812 125.457031 141.253906 125.484375 141.25 C 125.5 141.25 125.515625 141.246094 125.53125 141.246094 C 128.171875 141.121094 130.246094 138.992188 130.246094 136.390625 C 130.246094 133.671875 128.03125 131.460938 125.3125 131.460938 Z M 125.3125 131.460938 "/></g></svg>