<svg xmlns="http://www.w3.org/2000/svg" xmlns:xlink="http://www.w3.org/1999/xlink" width="200" zoomAndPan="magnify" viewBox="0 0 150 149.999998" height="200" preserveAspectRatio="xMidYMid meet" version="1.2"><defs/><g id="74743e3462"><g style="fill:#2196f3;fill-opacity:1;"><g transform="translate(44.496092, 116.481745)"><path style="stroke:none" d="M 57.21875 -28.359375 C 57.21875 -23.796875 56.316406 -19.597656 54.515625 -15.765625 C 52.722656 -11.941406 50.316406 -8.625 47.296875 -5.8125 C 44.285156 -3 40.785156 -0.800781 36.796875 0.78125 C 32.804688 2.375 28.648438 3.171875 24.328125 3.171875 C 22.703125 3.171875 20.6875 3.03125 18.28125 2.75 C 15.875 2.46875 13.566406 1.914062 11.359375 1.09375 C 9.160156 0.28125 7.285156 -0.816406 5.734375 -2.203125 C 4.191406 -3.585938 3.421875 -5.378906 3.421875 -7.578125 C 3.421875 -9.941406 4.050781 -11.773438 5.3125 -13.078125 C 6.582031 -14.378906 8.398438 -15.03125 10.765625 -15.03125 C 13.117188 -15.03125 15.414062 -14.804688 17.65625 -14.359375 C 19.90625 -13.910156 22.210938 -13.6875 24.578125 -13.6875 C 26.367188 -13.6875 28.160156 -13.972656 29.953125 -14.546875 C 31.742188 -15.117188 33.351562 -15.953125 34.78125 -17.046875 C 36.207031 -18.148438 37.367188 -19.457031 38.265625 -20.96875 C 39.160156 -22.476562 39.609375 -24.207031 39.609375 -26.15625 C 39.609375 -27.21875 39.40625 -28.519531 39 -30.0625 C 38.59375 -31.613281 38.019531 -33.0625 37.28125 -34.40625 C 36.550781 -35.757812 35.65625 -36.921875 34.59375 -37.890625 C 33.539062 -38.867188 32.359375 -39.359375 31.046875 -39.359375 C 29.828125 -39.359375 28.625 -39.15625 27.4375 -38.75 C 26.257812 -38.34375 25.039062 -37.914062 23.78125 -37.46875 C 22.519531 -37.019531 21.234375 -36.59375 19.921875 -36.1875 C 18.617188 -35.78125 17.273438 -35.578125 15.890625 -35.578125 C 14.097656 -35.578125 12.773438 -36.328125 11.921875 -37.828125 C 11.066406 -39.335938 10.640625 -40.828125 10.640625 -42.296875 C 10.640625 -45.722656 12.1875 -48.046875 15.28125 -49.265625 C 16.914062 -49.921875 18.972656 -50.796875 21.453125 -51.890625 C 23.941406 -52.992188 26.367188 -54.28125 28.734375 -55.75 C 31.097656 -57.21875 33.132812 -58.867188 34.84375 -60.703125 C 36.550781 -62.535156 37.40625 -64.507812 37.40625 -66.625 C 37.40625 -68.257812 36.753906 -69.847656 35.453125 -71.390625 C 34.148438 -72.941406 32.601562 -73.71875 30.8125 -73.71875 C 29.019531 -73.71875 27.347656 -73.226562 25.796875 -72.25 C 24.242188 -71.269531 22.710938 -70.1875 21.203125 -69 C 19.703125 -67.820312 18.15625 -66.742188 16.5625 -65.765625 C 14.976562 -64.796875 13.285156 -64.3125 11.484375 -64.3125 C 10.585938 -64.3125 9.648438 -64.492188 8.671875 -64.859375 C 7.703125 -65.222656 6.804688 -65.707031 5.984375 -66.3125 C 5.171875 -66.925781 4.5 -67.679688 3.96875 -68.578125 C 3.4375 -69.472656 3.171875 -70.410156 3.171875 -71.390625 C 3.171875 -72.535156 3.414062 -73.71875 3.90625 -74.9375 C 4.394531 -76.164062 4.96875 -77.226562 5.625 -78.125 C 8.394531 -82.363281 12.082031 -85.539062 16.6875 -87.65625 C 21.289062 -89.769531 26.039062 -90.828125 30.9375 -90.828125 C 38.425781 -90.828125 44.390625 -88.789062 48.828125 -84.71875 C 53.273438 -80.644531 55.5 -74.898438 55.5 -67.484375 C 55.5 -63.078125 54.582031 -59.203125 52.75 -55.859375 C 50.914062 -52.523438 47.800781 -50.125 43.40625 -48.65625 C 45.769531 -48.164062 47.828125 -47.25 49.578125 -45.90625 C 51.328125 -44.5625 52.769531 -42.953125 53.90625 -41.078125 C 55.050781 -39.203125 55.890625 -37.160156 56.421875 -34.953125 C 56.953125 -32.753906 57.21875 -30.554688 57.21875 -28.359375 Z M 57.21875 -28.359375 "/></g></g></g></svg>