<svg xmlns="http://www.w3.org/2000/svg" xmlns:xlink="http://www.w3.org/1999/xlink" width="200" zoomAndPan="magnify" viewBox="0 0 150 149.999998" height="200" preserveAspectRatio="xMidYMid meet" version="1.2"><defs/><g id="8871eb6d4a"><g style="fill:#2196f3;fill-opacity:1;"><g transform="translate(0.539064, 115.181695)"><path style="stroke:none" d="M 70.5 -22.25 C 70.5 -17.28125 69.296875 -12.988281 66.890625 -9.375 C 64.484375 -5.769531 61.414062 -2.804688 57.6875 -0.484375 C 53.957031 1.835938 49.828125 3.5625 45.296875 4.6875 C 40.765625 5.8125 36.332031 6.375 32 6.375 C 28.789062 6.375 25.378906 5.910156 21.765625 4.984375 C 18.160156 4.066406 14.832031 2.664062 11.78125 0.78125 C 8.738281 -1.101562 6.210938 -3.488281 4.203125 -6.375 C 2.203125 -9.257812 1.203125 -12.628906 1.203125 -16.484375 C 1.203125 -19.609375 1.722656 -22.550781 2.765625 -25.3125 C 3.804688 -28.082031 5.226562 -30.648438 7.03125 -33.015625 C 8.84375 -35.390625 10.929688 -37.5 13.296875 -39.34375 C 15.660156 -41.1875 18.164062 -42.789062 20.8125 -44.15625 C 18.800781 -44.789062 16.851562 -45.707031 14.96875 -46.90625 C 13.09375 -48.113281 11.429688 -49.519531 9.984375 -51.125 C 8.535156 -52.726562 7.367188 -54.53125 6.484375 -56.53125 C 5.609375 -58.539062 5.171875 -60.671875 5.171875 -62.921875 C 5.171875 -67.328125 6.351562 -71.15625 8.71875 -74.40625 C 11.082031 -77.65625 14.066406 -80.320312 17.671875 -82.40625 C 21.285156 -84.488281 25.195312 -86.03125 29.40625 -87.03125 C 33.625 -88.039062 37.578125 -88.546875 41.265625 -88.546875 C 44.066406 -88.546875 46.910156 -88.222656 49.796875 -87.578125 C 52.691406 -86.929688 55.320312 -85.882812 57.6875 -84.4375 C 60.050781 -83 61.992188 -81.117188 63.515625 -78.796875 C 65.035156 -76.472656 65.796875 -73.664062 65.796875 -70.375 C 65.796875 -65.238281 64.332031 -60.722656 61.40625 -56.828125 C 58.476562 -52.941406 54.851562 -49.796875 50.53125 -47.390625 C 53.332031 -46.671875 55.957031 -45.507812 58.40625 -43.90625 C 60.851562 -42.300781 62.976562 -40.394531 64.78125 -38.1875 C 66.582031 -35.988281 67.984375 -33.523438 68.984375 -30.796875 C 69.992188 -28.066406 70.5 -25.21875 70.5 -22.25 Z M 47.515625 -67.609375 C 47.515625 -68.566406 47.210938 -69.328125 46.609375 -69.890625 C 46.015625 -70.453125 45.296875 -70.910156 44.453125 -71.265625 C 43.609375 -71.628906 42.722656 -71.875 41.796875 -72 C 40.878906 -72.125 40.097656 -72.1875 39.453125 -72.1875 C 38.492188 -72.1875 37.25 -72.0625 35.71875 -71.8125 C 34.195312 -71.570312 32.710938 -71.171875 31.265625 -70.609375 C 29.828125 -70.054688 28.585938 -69.316406 27.546875 -68.390625 C 26.503906 -67.460938 25.984375 -66.359375 25.984375 -65.078125 C 25.984375 -63.710938 26.34375 -62.53125 27.0625 -61.53125 C 27.789062 -60.53125 28.691406 -59.664062 29.765625 -58.9375 C 30.847656 -58.21875 32.007812 -57.675781 33.25 -57.3125 C 34.5 -56.957031 35.6875 -56.738281 36.8125 -56.65625 C 37.613281 -57.144531 38.613281 -57.769531 39.8125 -58.53125 C 41.019531 -59.289062 42.203125 -60.171875 43.359375 -61.171875 C 44.523438 -62.171875 45.507812 -63.210938 46.3125 -64.296875 C 47.113281 -65.378906 47.515625 -66.484375 47.515625 -67.609375 Z M 50.765625 -21.53125 C 50.765625 -23.457031 50.320312 -25.203125 49.4375 -26.765625 C 48.5625 -28.328125 47.421875 -29.671875 46.015625 -30.796875 C 44.609375 -31.921875 43.039062 -32.863281 41.3125 -33.625 C 39.59375 -34.382812 37.890625 -34.925781 36.203125 -35.25 C 34.597656 -34.53125 32.914062 -33.628906 31.15625 -32.546875 C 29.394531 -31.460938 27.769531 -30.195312 26.28125 -28.75 C 24.800781 -27.3125 23.578125 -25.726562 22.609375 -24 C 21.648438 -22.269531 21.171875 -20.40625 21.171875 -18.40625 C 21.171875 -16.957031 21.691406 -15.753906 22.734375 -14.796875 C 23.773438 -13.835938 25.015625 -13.078125 26.453125 -12.515625 C 27.898438 -11.953125 29.40625 -11.550781 30.96875 -11.3125 C 32.539062 -11.070312 33.847656 -10.953125 34.890625 -10.953125 C 36.492188 -10.953125 38.238281 -11.128906 40.125 -11.484375 C 42.007812 -11.847656 43.734375 -12.453125 45.296875 -13.296875 C 46.859375 -14.140625 48.160156 -15.238281 49.203125 -16.59375 C 50.242188 -17.957031 50.765625 -19.601562 50.765625 -21.53125 Z M 50.765625 -21.53125 "/></g></g><g style="fill:#2196f3;fill-opacity:1;"><g transform="translate(73.434102, 115.181695)"><path style="stroke:none" d="M 73.5 -41.75 C 73.5 -36.289062 72.675781 -30.8125 71.03125 -25.3125 C 69.394531 -19.820312 66.988281 -14.851562 63.8125 -10.40625 C 60.644531 -5.957031 56.695312 -2.347656 51.96875 0.421875 C 47.238281 3.191406 41.785156 4.578125 35.609375 4.578125 C 30.398438 4.578125 25.707031 3.210938 21.53125 0.484375 C 17.363281 -2.242188 13.816406 -5.710938 10.890625 -9.921875 C 7.960938 -14.128906 5.710938 -18.738281 4.140625 -23.75 C 2.578125 -28.769531 1.796875 -33.601562 1.796875 -38.25 C 1.796875 -41.539062 2.238281 -44.988281 3.125 -48.59375 C 4.007812 -52.207031 5.273438 -55.773438 6.921875 -59.296875 C 8.566406 -62.828125 10.53125 -66.21875 12.8125 -69.46875 C 15.09375 -72.71875 17.65625 -75.566406 20.5 -78.015625 C 23.351562 -80.460938 26.441406 -82.40625 29.765625 -83.84375 C 33.097656 -85.289062 36.570312 -86.015625 40.1875 -86.015625 C 46.351562 -86.015625 51.5625 -84.691406 55.8125 -82.046875 C 60.0625 -79.398438 63.488281 -75.96875 66.09375 -71.75 C 68.707031 -67.539062 70.59375 -62.8125 71.75 -57.5625 C 72.914062 -52.3125 73.5 -47.039062 73.5 -41.75 Z M 56.0625 -42.34375 C 56.0625 -44.351562 55.78125 -46.71875 55.21875 -49.4375 C 54.65625 -52.164062 53.789062 -54.734375 52.625 -57.140625 C 51.46875 -59.546875 49.96875 -61.585938 48.125 -63.265625 C 46.28125 -64.953125 44.070312 -65.796875 41.5 -65.796875 C 38.375 -65.796875 35.585938 -64.8125 33.140625 -62.84375 C 30.691406 -60.882812 28.625 -58.460938 26.9375 -55.578125 C 25.257812 -52.691406 23.957031 -49.601562 23.03125 -46.3125 C 22.113281 -43.03125 21.65625 -40.0625 21.65625 -37.40625 C 21.65625 -35.320312 21.9375 -32.957031 22.5 -30.3125 C 23.0625 -27.664062 23.941406 -25.160156 25.140625 -22.796875 C 26.347656 -20.429688 27.890625 -18.425781 29.765625 -16.78125 C 31.648438 -15.132812 33.878906 -14.3125 36.453125 -14.3125 C 39.578125 -14.3125 42.363281 -15.289062 44.8125 -17.25 C 47.257812 -19.21875 49.300781 -21.625 50.9375 -24.46875 C 52.582031 -27.320312 53.847656 -30.375 54.734375 -33.625 C 55.617188 -36.875 56.0625 -39.78125 56.0625 -42.34375 Z M 56.0625 -42.34375 "/></g></g></g></svg>