<svg xmlns="http://www.w3.org/2000/svg" xmlns:xlink="http://www.w3.org/1999/xlink" width="200" zoomAndPan="magnify" viewBox="0 0 150 149.999998" height="200" preserveAspectRatio="xMidYMid meet" version="1.2"><defs/><g id="7ad65b7752"><g style="fill:#2196f3;fill-opacity:1;"><g transform="translate(8.859376, 116.481745)"><path style="stroke:none" d="M 62.953125 -26.65625 C 62.953125 -21.925781 62.117188 -17.765625 60.453125 -14.171875 C 58.785156 -10.585938 56.523438 -7.613281 53.671875 -5.25 C 50.816406 -2.894531 47.453125 -1.109375 43.578125 0.109375 C 39.710938 1.335938 35.535156 1.953125 31.046875 1.953125 C 25.992188 1.953125 21.613281 0.9375 17.90625 -1.09375 C 14.195312 -3.132812 11.160156 -5.84375 8.796875 -9.21875 C 6.429688 -12.601562 4.675781 -16.4375 3.53125 -20.71875 C 2.394531 -25 1.828125 -29.421875 1.828125 -33.984375 C 1.828125 -37.242188 2.394531 -40.910156 3.53125 -44.984375 C 4.675781 -49.066406 6.269531 -53.203125 8.3125 -57.390625 C 10.351562 -61.585938 12.71875 -65.660156 15.40625 -69.609375 C 18.09375 -73.566406 20.984375 -77.09375 24.078125 -80.1875 C 27.179688 -83.289062 30.421875 -85.78125 33.796875 -87.65625 C 37.179688 -89.53125 40.503906 -90.46875 43.765625 -90.46875 C 45.640625 -90.46875 47.332031 -89.957031 48.84375 -88.9375 C 50.351562 -87.914062 51.109375 -86.390625 51.109375 -84.359375 C 51.109375 -83.210938 50.617188 -81.988281 49.640625 -80.6875 C 48.660156 -79.382812 47.5 -78.097656 46.15625 -76.828125 C 44.8125 -75.566406 43.425781 -74.34375 42 -73.15625 C 40.570312 -71.976562 39.445312 -70.898438 38.625 -69.921875 C 36.75 -67.804688 35.015625 -65.546875 33.421875 -63.140625 C 31.835938 -60.734375 30.476562 -58.226562 29.34375 -55.625 C 30.5625 -56.03125 31.820312 -56.332031 33.125 -56.53125 C 34.4375 -56.738281 35.742188 -56.84375 37.046875 -56.84375 C 41.203125 -56.84375 44.890625 -55.988281 48.109375 -54.28125 C 51.328125 -52.570312 54.035156 -50.3125 56.234375 -47.5 C 58.429688 -44.6875 60.097656 -41.460938 61.234375 -37.828125 C 62.378906 -34.203125 62.953125 -30.476562 62.953125 -26.65625 Z M 45.84375 -26.53125 C 45.84375 -30.851562 44.519531 -34.175781 41.875 -36.5 C 39.226562 -38.820312 35.820312 -39.984375 31.65625 -39.984375 C 30.269531 -39.984375 28.679688 -39.773438 26.890625 -39.359375 C 25.097656 -38.953125 23.550781 -38.34375 22.25 -37.53125 C 21.757812 -37.207031 21.472656 -36.597656 21.390625 -35.703125 C 21.304688 -34.804688 21.265625 -34.070312 21.265625 -33.5 C 21.265625 -31.625 21.53125 -29.644531 22.0625 -27.5625 C 22.59375 -25.488281 23.390625 -23.554688 24.453125 -21.765625 C 25.515625 -19.972656 26.859375 -18.503906 28.484375 -17.359375 C 30.117188 -16.222656 32.035156 -15.65625 34.234375 -15.65625 C 37.578125 -15.65625 40.347656 -16.585938 42.546875 -18.453125 C 44.742188 -20.328125 45.84375 -23.019531 45.84375 -26.53125 Z M 45.84375 -26.53125 "/></g></g><g style="fill:#2196f3;fill-opacity:1;"><g transform="translate(74.994343, 116.481745)"><path style="stroke:none" d="M 62.953125 -26.65625 C 62.953125 -21.925781 62.117188 -17.765625 60.453125 -14.171875 C 58.785156 -10.585938 56.523438 -7.613281 53.671875 -5.25 C 50.816406 -2.894531 47.453125 -1.109375 43.578125 0.109375 C 39.710938 1.335938 35.535156 1.953125 31.046875 1.953125 C 25.992188 1.953125 21.613281 0.9375 17.90625 -1.09375 C 14.195312 -3.132812 11.160156 -5.84375 8.796875 -9.21875 C 6.429688 -12.601562 4.675781 -16.4375 3.53125 -20.71875 C 2.394531 -25 1.828125 -29.421875 1.828125 -33.984375 C 1.828125 -37.242188 2.394531 -40.910156 3.53125 -44.984375 C 4.675781 -49.066406 6.269531 -53.203125 8.3125 -57.390625 C 10.351562 -61.585938 12.71875 -65.660156 15.40625 -69.609375 C 18.09375 -73.566406 20.984375 -77.09375 24.078125 -80.1875 C 27.179688 -83.289062 30.421875 -85.78125 33.796875 -87.65625 C 37.179688 -89.53125 40.503906 -90.46875 43.765625 -90.46875 C 45.640625 -90.46875 47.332031 -89.957031 48.84375 -88.9375 C 50.351562 -87.914062 51.109375 -86.390625 51.109375 -84.359375 C 51.109375 -83.210938 50.617188 -81.988281 49.640625 -80.6875 C 48.660156 -79.382812 47.5 -78.097656 46.15625 -76.828125 C 44.8125 -75.566406 43.425781 -74.34375 42 -73.15625 C 40.570312 -71.976562 39.445312 -70.898438 38.625 -69.921875 C 36.75 -67.804688 35.015625 -65.546875 33.421875 -63.140625 C 31.835938 -60.734375 30.476562 -58.226562 29.34375 -55.625 C 30.5625 -56.03125 31.820312 -56.332031 33.125 -56.53125 C 34.4375 -56.738281 35.742188 -56.84375 37.046875 -56.84375 C 41.203125 -56.84375 44.890625 -55.988281 48.109375 -54.28125 C 51.328125 -52.570312 54.035156 -50.3125 56.234375 -47.5 C 58.429688 -44.6875 60.097656 -41.460938 61.234375 -37.828125 C 62.378906 -34.203125 62.953125 -30.476562 62.953125 -26.65625 Z M 45.84375 -26.53125 C 45.84375 -30.851562 44.519531 -34.175781 41.875 -36.5 C 39.226562 -38.820312 35.820312 -39.984375 31.65625 -39.984375 C 30.269531 -39.984375 28.679688 -39.773438 26.890625 -39.359375 C 25.097656 -38.953125 23.550781 -38.34375 22.25 -37.53125 C 21.757812 -37.207031 21.472656 -36.597656 21.390625 -35.703125 C 21.304688 -34.804688 21.265625 -34.070312 21.265625 -33.5 C 21.265625 -31.625 21.53125 -29.644531 22.0625 -27.5625 C 22.59375 -25.488281 23.390625 -23.554688 24.453125 -21.765625 C 25.515625 -19.972656 26.859375 -18.503906 28.484375 -17.359375 C 30.117188 -16.222656 32.035156 -15.65625 34.234375 -15.65625 C 37.578125 -15.65625 40.347656 -16.585938 42.546875 -18.453125 C 44.742188 -20.328125 45.84375 -23.019531 45.84375 -26.53125 Z M 45.84375 -26.53125 "/></g></g></g></svg>