<svg xmlns="http://www.w3.org/2000/svg" xmlns:xlink="http://www.w3.org/1999/xlink" width="200" zoomAndPan="magnify" viewBox="0 0 150 149.999998" height="200" preserveAspectRatio="xMidYMid meet" version="1.2"><defs/><g id="a985bb6c70"><g style="fill:#2196f3;fill-opacity:1;"><g transform="translate(25.605469, 116.481745)"><path style="stroke:none" d="M 26.890625 -60.265625 C 26.890625 -57.742188 26.847656 -55.21875 26.765625 -52.6875 C 26.691406 -50.164062 26.613281 -47.640625 26.53125 -45.109375 C 26.363281 -40.953125 26.28125 -36.816406 26.28125 -32.703125 C 26.28125 -28.585938 26.160156 -24.453125 25.921875 -20.296875 C 25.835938 -18.910156 25.753906 -17.054688 25.671875 -14.734375 C 25.585938 -12.410156 25.28125 -10.125 24.75 -7.875 C 24.226562 -5.632812 23.394531 -3.679688 22.25 -2.015625 C 21.101562 -0.347656 19.515625 0.484375 17.484375 0.484375 C 15.523438 0.484375 13.929688 -0.1875 12.703125 -1.53125 C 11.484375 -2.875 10.523438 -4.582031 9.828125 -6.65625 C 9.140625 -8.738281 8.671875 -11.0625 8.421875 -13.625 C 8.179688 -16.195312 8.039062 -18.722656 8 -21.203125 C 7.96875 -23.691406 7.988281 -25.992188 8.0625 -28.109375 C 8.144531 -30.234375 8.1875 -31.867188 8.1875 -33.015625 C 8.1875 -38.554688 8.207031 -44.097656 8.25 -49.640625 C 8.289062 -55.179688 8.351562 -60.722656 8.4375 -66.265625 C 6.800781 -67.648438 5.515625 -69.335938 4.578125 -71.328125 C 3.640625 -73.328125 3.171875 -75.390625 3.171875 -77.515625 C 3.171875 -80.847656 4.171875 -83.695312 6.171875 -86.0625 C 8.171875 -88.425781 10.921875 -89.609375 14.421875 -89.609375 C 17.441406 -89.609375 19.804688 -88.46875 21.515625 -86.1875 C 23.222656 -83.90625 24.460938 -81.175781 25.234375 -78 C 26.015625 -74.820312 26.484375 -71.582031 26.640625 -68.28125 C 26.804688 -64.976562 26.890625 -62.304688 26.890625 -60.265625 Z M 26.890625 -60.265625 "/></g></g><g style="fill:#2196f3;fill-opacity:1;"><g transform="translate(59.345304, 116.481745)"><path style="stroke:none" d="M 63.203125 -56.484375 C 63.203125 -53.222656 62.648438 -49.472656 61.546875 -45.234375 C 60.453125 -40.992188 58.945312 -36.671875 57.03125 -32.265625 C 55.113281 -27.867188 52.867188 -23.550781 50.296875 -19.3125 C 47.734375 -15.070312 44.921875 -11.28125 41.859375 -7.9375 C 38.804688 -4.601562 35.628906 -1.921875 32.328125 0.109375 C 29.035156 2.148438 25.71875 3.171875 22.375 3.171875 C 20.582031 3.171875 18.972656 2.617188 17.546875 1.515625 C 16.117188 0.421875 15.40625 -1.101562 15.40625 -3.0625 C 15.40625 -3.957031 15.546875 -4.707031 15.828125 -5.3125 C 16.117188 -5.925781 16.507812 -6.5625 17 -7.21875 C 18.789062 -9.5 20.625 -11.59375 22.5 -13.5 C 24.375 -15.414062 26.226562 -17.332031 28.0625 -19.25 C 29.894531 -21.164062 31.664062 -23.179688 33.375 -25.296875 C 35.082031 -27.421875 36.628906 -29.867188 38.015625 -32.640625 C 35.328125 -31.910156 32.554688 -31.546875 29.703125 -31.546875 C 25.628906 -31.546875 21.941406 -32.175781 18.640625 -33.4375 C 15.335938 -34.695312 12.546875 -36.507812 10.265625 -38.875 C 7.984375 -41.238281 6.226562 -44.070312 5 -47.375 C 3.78125 -50.675781 3.171875 -54.363281 3.171875 -58.4375 C 3.171875 -63 3.882812 -67.195312 5.3125 -71.03125 C 6.738281 -74.863281 8.773438 -78.179688 11.421875 -80.984375 C 14.078125 -83.796875 17.257812 -86 20.96875 -87.59375 C 24.675781 -89.1875 28.851562 -89.984375 33.5 -89.984375 C 38.382812 -89.984375 42.679688 -89.101562 46.390625 -87.34375 C 50.097656 -85.59375 53.195312 -83.1875 55.6875 -80.125 C 58.175781 -77.070312 60.050781 -73.507812 61.3125 -69.4375 C 62.570312 -65.363281 63.203125 -61.046875 63.203125 -56.484375 Z M 46.953125 -58.6875 C 46.953125 -60.632812 46.6875 -62.546875 46.15625 -64.421875 C 45.625 -66.296875 44.828125 -67.96875 43.765625 -69.4375 C 42.703125 -70.90625 41.375 -72.085938 39.78125 -72.984375 C 38.195312 -73.878906 36.304688 -74.328125 34.109375 -74.328125 C 29.703125 -74.328125 26.21875 -72.960938 23.65625 -70.234375 C 21.09375 -67.503906 19.8125 -63.9375 19.8125 -59.53125 C 19.8125 -55.300781 20.972656 -52.0625 23.296875 -49.8125 C 25.617188 -47.570312 28.859375 -46.453125 33.015625 -46.453125 C 37.328125 -46.453125 40.726562 -47.390625 43.21875 -49.265625 C 45.707031 -51.140625 46.953125 -54.28125 46.953125 -58.6875 Z M 46.953125 -58.6875 "/></g></g></g></svg>