<svg xmlns="http://www.w3.org/2000/svg" xmlns:xlink="http://www.w3.org/1999/xlink" width="200" zoomAndPan="magnify" viewBox="0 0 150 149.999998" height="200" preserveAspectRatio="xMidYMid meet" version="1.2"><defs/><g id="89179e65ed"><g style="fill:#2196f3;fill-opacity:1;"><g transform="translate(41.249999, 116.481745)"><path style="stroke:none" d="M 26.890625 -60.265625 C 26.890625 -57.742188 26.847656 -55.21875 26.765625 -52.6875 C 26.691406 -50.164062 26.613281 -47.640625 26.53125 -45.109375 C 26.363281 -40.953125 26.28125 -36.816406 26.28125 -32.703125 C 26.28125 -28.585938 26.160156 -24.453125 25.921875 -20.296875 C 25.835938 -18.910156 25.753906 -17.054688 25.671875 -14.734375 C 25.585938 -12.410156 25.28125 -10.125 24.75 -7.875 C 24.226562 -5.632812 23.394531 -3.679688 22.25 -2.015625 C 21.101562 -0.347656 19.515625 0.484375 17.484375 0.484375 C 15.523438 0.484375 13.929688 -0.1875 12.703125 -1.53125 C 11.484375 -2.875 10.523438 -4.582031 9.828125 -6.65625 C 9.140625 -8.738281 8.671875 -11.0625 8.421875 -13.625 C 8.179688 -16.195312 8.039062 -18.722656 8 -21.203125 C 7.96875 -23.691406 7.988281 -25.992188 8.0625 -28.109375 C 8.144531 -30.234375 8.1875 -31.867188 8.1875 -33.015625 C 8.1875 -38.554688 8.207031 -44.097656 8.25 -49.640625 C 8.289062 -55.179688 8.351562 -60.722656 8.4375 -66.265625 C 6.800781 -67.648438 5.515625 -69.335938 4.578125 -71.328125 C 3.640625 -73.328125 3.171875 -75.390625 3.171875 -77.515625 C 3.171875 -80.847656 4.171875 -83.695312 6.171875 -86.0625 C 8.171875 -88.425781 10.921875 -89.609375 14.421875 -89.609375 C 17.441406 -89.609375 19.804688 -88.46875 21.515625 -86.1875 C 23.222656 -83.90625 24.460938 -81.175781 25.234375 -78 C 26.015625 -74.820312 26.484375 -71.582031 26.640625 -68.28125 C 26.804688 -64.976562 26.890625 -62.304688 26.890625 -60.265625 Z M 26.890625 -60.265625 "/></g></g><g style="fill:#2196f3;fill-opacity:1;"><g transform="translate(74.989834, 116.481745)"><path style="stroke:none" d="M 26.890625 -60.265625 C 26.890625 -57.742188 26.847656 -55.21875 26.765625 -52.6875 C 26.691406 -50.164062 26.613281 -47.640625 26.53125 -45.109375 C 26.363281 -40.953125 26.28125 -36.816406 26.28125 -32.703125 C 26.28125 -28.585938 26.160156 -24.453125 25.921875 -20.296875 C 25.835938 -18.910156 25.753906 -17.054688 25.671875 -14.734375 C 25.585938 -12.410156 25.28125 -10.125 24.75 -7.875 C 24.226562 -5.632812 23.394531 -3.679688 22.25 -2.015625 C 21.101562 -0.347656 19.515625 0.484375 17.484375 0.484375 C 15.523438 0.484375 13.929688 -0.1875 12.703125 -1.53125 C 11.484375 -2.875 10.523438 -4.582031 9.828125 -6.65625 C 9.140625 -8.738281 8.671875 -11.0625 8.421875 -13.625 C 8.179688 -16.195312 8.039062 -18.722656 8 -21.203125 C 7.96875 -23.691406 7.988281 -25.992188 8.0625 -28.109375 C 8.144531 -30.234375 8.1875 -31.867188 8.1875 -33.015625 C 8.1875 -38.554688 8.207031 -44.097656 8.25 -49.640625 C 8.289062 -55.179688 8.351562 -60.722656 8.4375 -66.265625 C 6.800781 -67.648438 5.515625 -69.335938 4.578125 -71.328125 C 3.640625 -73.328125 3.171875 -75.390625 3.171875 -77.515625 C 3.171875 -80.847656 4.171875 -83.695312 6.171875 -86.0625 C 8.171875 -88.425781 10.921875 -89.609375 14.421875 -89.609375 C 17.441406 -89.609375 19.804688 -88.46875 21.515625 -86.1875 C 23.222656 -83.90625 24.460938 -81.175781 25.234375 -78 C 26.015625 -74.820312 26.484375 -71.582031 26.640625 -68.28125 C 26.804688 -64.976562 26.890625 -62.304688 26.890625 -60.265625 Z M 26.890625 -60.265625 "/></g></g></g></svg>