<svg xmlns="http://www.w3.org/2000/svg" xmlns:xlink="http://www.w3.org/1999/xlink" width="200" zoomAndPan="magnify" viewBox="0 0 150 149.999998" height="200" preserveAspectRatio="xMidYMid meet" version="1.2"><defs/><g id="b1b9c43e88"><g style="fill:#2196f3;fill-opacity:1;"><g transform="translate(4.218751, 116.481745)"><path style="stroke:none" d="M 61.859375 -28.609375 C 61.859375 -23.796875 61.101562 -19.515625 59.59375 -15.765625 C 58.09375 -12.015625 55.972656 -8.835938 53.234375 -6.234375 C 50.503906 -3.628906 47.242188 -1.632812 43.453125 -0.25 C 39.671875 1.132812 35.457031 1.828125 30.8125 1.828125 C 28.28125 1.828125 25.484375 1.378906 22.421875 0.484375 C 19.367188 -0.410156 16.5 -1.710938 13.8125 -3.421875 C 11.125 -5.128906 8.882812 -7.1875 7.09375 -9.59375 C 5.300781 -12 4.40625 -14.671875 4.40625 -17.609375 C 4.40625 -19.722656 5.054688 -21.429688 6.359375 -22.734375 C 7.660156 -24.035156 9.367188 -24.6875 11.484375 -24.6875 C 13.523438 -24.6875 15.238281 -24.28125 16.625 -23.46875 C 18.007812 -22.65625 19.375 -21.738281 20.71875 -20.71875 C 22.0625 -19.695312 23.585938 -18.78125 25.296875 -17.96875 C 27.015625 -17.15625 29.21875 -16.75 31.90625 -16.75 C 35.164062 -16.75 37.8125 -17.890625 39.84375 -20.171875 C 41.882812 -22.453125 42.90625 -25.179688 42.90625 -28.359375 C 42.90625 -31.378906 42.210938 -33.988281 40.828125 -36.1875 C 39.441406 -38.382812 37.160156 -39.484375 33.984375 -39.484375 C 32.515625 -39.484375 31.1875 -39.320312 30 -39 C 28.820312 -38.675781 27.679688 -38.304688 26.578125 -37.890625 C 25.484375 -37.484375 24.382812 -37.097656 23.28125 -36.734375 C 22.1875 -36.367188 21.066406 -36.101562 19.921875 -35.9375 C 19.023438 -35.78125 17.882812 -35.84375 16.5 -36.125 C 15.113281 -36.40625 13.707031 -36.832031 12.28125 -37.40625 C 10.851562 -37.976562 9.566406 -38.648438 8.421875 -39.421875 C 7.285156 -40.203125 6.554688 -41.039062 6.234375 -41.9375 C 5.992188 -42.664062 5.769531 -44.253906 5.5625 -46.703125 C 5.351562 -49.148438 5.1875 -51.796875 5.0625 -54.640625 C 4.945312 -57.492188 4.867188 -60.203125 4.828125 -62.765625 C 4.785156 -65.335938 4.765625 -67.113281 4.765625 -68.09375 C 4.765625 -68.75 4.765625 -69.804688 4.765625 -71.265625 C 4.765625 -72.734375 4.828125 -74.265625 4.953125 -75.859375 C 5.078125 -77.453125 5.21875 -78.941406 5.375 -80.328125 C 5.539062 -81.710938 5.828125 -82.644531 6.234375 -83.125 C 6.722656 -83.863281 7.925781 -84.554688 9.84375 -85.203125 C 11.757812 -85.859375 14 -86.472656 16.5625 -87.046875 C 19.132812 -87.617188 21.925781 -88.128906 24.9375 -88.578125 C 27.957031 -89.023438 30.832031 -89.410156 33.5625 -89.734375 C 36.289062 -90.054688 38.773438 -90.300781 41.015625 -90.46875 C 43.253906 -90.632812 44.863281 -90.71875 45.84375 -90.71875 C 46.988281 -90.71875 48.191406 -90.570312 49.453125 -90.28125 C 50.710938 -90 51.851562 -89.550781 52.875 -88.9375 C 53.894531 -88.320312 54.726562 -87.523438 55.375 -86.546875 C 56.03125 -85.578125 56.359375 -84.398438 56.359375 -83.015625 C 56.359375 -80.804688 55.582031 -79.050781 54.03125 -77.75 C 52.488281 -76.445312 50.78125 -75.46875 48.90625 -74.8125 C 47.4375 -74.320312 45.640625 -73.914062 43.515625 -73.59375 C 41.398438 -73.269531 39.238281 -72.960938 37.03125 -72.671875 C 34.832031 -72.390625 32.691406 -72.164062 30.609375 -72 C 28.535156 -71.84375 26.726562 -71.722656 25.1875 -71.640625 L 25.421875 -53.90625 C 27.054688 -54.238281 28.6875 -54.503906 30.3125 -54.703125 C 31.945312 -54.910156 33.617188 -55.015625 35.328125 -55.015625 C 43.972656 -55.015625 50.554688 -52.769531 55.078125 -48.28125 C 59.597656 -43.800781 61.859375 -37.242188 61.859375 -28.609375 Z M 61.859375 -28.609375 "/></g></g><g style="fill:#2196f3;fill-opacity:1;"><g transform="translate(68.520032, 116.481745)"><path style="stroke:none" d="M 74.703125 -42.421875 C 74.703125 -36.878906 73.863281 -31.316406 72.1875 -25.734375 C 70.519531 -20.148438 68.078125 -15.097656 64.859375 -10.578125 C 61.640625 -6.054688 57.625 -2.390625 52.8125 0.421875 C 48 3.234375 42.457031 4.640625 36.1875 4.640625 C 30.882812 4.640625 26.113281 3.253906 21.875 0.484375 C 17.644531 -2.285156 14.039062 -5.804688 11.0625 -10.078125 C 8.09375 -14.359375 5.8125 -19.046875 4.21875 -24.140625 C 2.625 -29.234375 1.828125 -34.144531 1.828125 -38.875 C 1.828125 -42.21875 2.273438 -45.722656 3.171875 -49.390625 C 4.066406 -53.054688 5.347656 -56.679688 7.015625 -60.265625 C 8.691406 -63.859375 10.691406 -67.300781 13.015625 -70.59375 C 15.335938 -73.894531 17.945312 -76.789062 20.84375 -79.28125 C 23.738281 -81.769531 26.875 -83.742188 30.25 -85.203125 C 33.632812 -86.671875 37.160156 -87.40625 40.828125 -87.40625 C 47.109375 -87.40625 52.40625 -86.0625 56.71875 -83.375 C 61.039062 -80.6875 64.523438 -77.203125 67.171875 -72.921875 C 69.828125 -68.640625 71.742188 -63.828125 72.921875 -58.484375 C 74.109375 -53.148438 74.703125 -47.796875 74.703125 -42.421875 Z M 56.96875 -43.03125 C 56.96875 -45.070312 56.679688 -47.476562 56.109375 -50.25 C 55.546875 -53.019531 54.671875 -55.625 53.484375 -58.0625 C 52.304688 -60.507812 50.78125 -62.585938 48.90625 -64.296875 C 47.03125 -66.015625 44.785156 -66.875 42.171875 -66.875 C 38.992188 -66.875 36.160156 -65.875 33.671875 -63.875 C 31.191406 -61.875 29.09375 -59.40625 27.375 -56.46875 C 25.664062 -53.539062 24.34375 -50.40625 23.40625 -47.0625 C 22.46875 -43.726562 22 -40.710938 22 -38.015625 C 22 -35.898438 22.285156 -33.5 22.859375 -30.8125 C 23.429688 -28.125 24.328125 -25.578125 25.546875 -23.171875 C 26.773438 -20.765625 28.34375 -18.722656 30.25 -17.046875 C 32.164062 -15.378906 34.429688 -14.546875 37.046875 -14.546875 C 40.222656 -14.546875 43.050781 -15.539062 45.53125 -17.53125 C 48.019531 -19.53125 50.097656 -21.976562 51.765625 -24.875 C 53.441406 -27.769531 54.726562 -30.867188 55.625 -34.171875 C 56.519531 -37.472656 56.96875 -40.425781 56.96875 -43.03125 Z M 56.96875 -43.03125 "/></g></g></g></svg>