<svg xmlns="http://www.w3.org/2000/svg" xmlns:xlink="http://www.w3.org/1999/xlink" width="200" zoomAndPan="magnify" viewBox="0 0 150 149.999998" height="200" preserveAspectRatio="xMidYMid meet" version="1.2"><defs/><g id="56b895f387"><g style="fill:#2196f3;fill-opacity:1;"><g transform="translate(5.250001, 116.481745)"><path style="stroke:none" d="M 71.640625 -22.609375 C 71.640625 -17.554688 70.414062 -13.195312 67.96875 -9.53125 C 65.53125 -5.863281 62.414062 -2.847656 58.625 -0.484375 C 54.832031 1.878906 50.632812 3.628906 46.03125 4.765625 C 41.425781 5.910156 36.921875 6.484375 32.515625 6.484375 C 29.253906 6.484375 25.789062 6.015625 22.125 5.078125 C 18.457031 4.140625 15.070312 2.710938 11.96875 0.796875 C 8.875 -1.117188 6.304688 -3.539062 4.265625 -6.46875 C 2.234375 -9.40625 1.21875 -12.832031 1.21875 -16.75 C 1.21875 -19.925781 1.75 -22.921875 2.8125 -25.734375 C 3.875 -28.546875 5.320312 -31.15625 7.15625 -33.5625 C 8.988281 -35.96875 11.101562 -38.101562 13.5 -39.96875 C 15.90625 -41.84375 18.457031 -43.472656 21.15625 -44.859375 C 19.113281 -45.515625 17.132812 -46.453125 15.21875 -47.671875 C 13.300781 -48.898438 11.609375 -50.328125 10.140625 -51.953125 C 8.679688 -53.585938 7.5 -55.421875 6.59375 -57.453125 C 5.695312 -59.492188 5.25 -61.65625 5.25 -63.9375 C 5.25 -68.414062 6.453125 -72.304688 8.859375 -75.609375 C 11.265625 -78.910156 14.300781 -81.617188 17.96875 -83.734375 C 21.632812 -85.859375 25.609375 -87.429688 29.890625 -88.453125 C 34.171875 -89.472656 38.1875 -89.984375 41.9375 -89.984375 C 44.789062 -89.984375 47.679688 -89.65625 50.609375 -89 C 53.546875 -88.34375 56.21875 -87.28125 58.625 -85.8125 C 61.03125 -84.351562 63.003906 -82.441406 64.546875 -80.078125 C 66.097656 -77.710938 66.875 -74.859375 66.875 -71.515625 C 66.875 -66.296875 65.382812 -61.707031 62.40625 -57.75 C 59.4375 -53.800781 55.75 -50.609375 51.34375 -48.171875 C 54.195312 -47.429688 56.863281 -46.242188 59.34375 -44.609375 C 61.832031 -42.984375 63.992188 -41.050781 65.828125 -38.8125 C 67.660156 -36.570312 69.085938 -34.066406 70.109375 -31.296875 C 71.128906 -28.523438 71.640625 -25.628906 71.640625 -22.609375 Z M 48.296875 -68.703125 C 48.296875 -69.679688 47.988281 -70.457031 47.375 -71.03125 C 46.757812 -71.601562 46.023438 -72.070312 45.171875 -72.4375 C 44.316406 -72.800781 43.421875 -73.046875 42.484375 -73.171875 C 41.546875 -73.296875 40.75 -73.359375 40.09375 -73.359375 C 39.113281 -73.359375 37.847656 -73.234375 36.296875 -72.984375 C 34.753906 -72.742188 33.25 -72.335938 31.78125 -71.765625 C 30.3125 -71.191406 29.046875 -70.4375 27.984375 -69.5 C 26.929688 -68.5625 26.40625 -67.441406 26.40625 -66.140625 C 26.40625 -64.753906 26.769531 -63.550781 27.5 -62.53125 C 28.238281 -61.507812 29.15625 -60.628906 30.25 -59.890625 C 31.351562 -59.160156 32.535156 -58.613281 33.796875 -58.25 C 35.066406 -57.882812 36.269531 -57.660156 37.40625 -57.578125 C 38.21875 -58.066406 39.234375 -58.695312 40.453125 -59.46875 C 41.679688 -60.25 42.882812 -61.144531 44.0625 -62.15625 C 45.25 -63.175781 46.25 -64.238281 47.0625 -65.34375 C 47.882812 -66.445312 48.296875 -67.566406 48.296875 -68.703125 Z M 51.59375 -21.890625 C 51.59375 -23.835938 51.144531 -25.601562 50.25 -27.1875 C 49.351562 -28.78125 48.191406 -30.148438 46.765625 -31.296875 C 45.335938 -32.441406 43.742188 -33.398438 41.984375 -34.171875 C 40.234375 -34.941406 38.503906 -35.488281 36.796875 -35.8125 C 35.171875 -35.082031 33.457031 -34.164062 31.65625 -33.0625 C 29.863281 -31.96875 28.210938 -30.6875 26.703125 -29.21875 C 25.203125 -27.75 23.960938 -26.140625 22.984375 -24.390625 C 22.003906 -22.640625 21.515625 -20.742188 21.515625 -18.703125 C 21.515625 -17.234375 22.039062 -16.007812 23.09375 -15.03125 C 24.15625 -14.050781 25.421875 -13.273438 26.890625 -12.703125 C 28.359375 -12.140625 29.882812 -11.734375 31.46875 -11.484375 C 33.0625 -11.242188 34.390625 -11.125 35.453125 -11.125 C 37.085938 -11.125 38.859375 -11.304688 40.765625 -11.671875 C 42.679688 -12.035156 44.429688 -12.644531 46.015625 -13.5 C 47.609375 -14.363281 48.9375 -15.488281 50 -16.875 C 51.0625 -18.257812 51.59375 -19.929688 51.59375 -21.890625 Z M 51.59375 -21.890625 "/></g></g><g style="fill:#2196f3;fill-opacity:1;"><g transform="translate(79.330944, 116.481745)"><path style="stroke:none" d="M 64.0625 -80.6875 C 64.0625 -79.539062 63.753906 -77.945312 63.140625 -75.90625 C 62.535156 -73.875 61.765625 -71.570312 60.828125 -69 C 59.890625 -66.4375 58.828125 -63.75 57.640625 -60.9375 C 56.460938 -58.125 55.300781 -55.4375 54.15625 -52.875 C 53.019531 -50.3125 51.960938 -47.925781 50.984375 -45.71875 C 50.003906 -43.519531 49.226562 -41.8125 48.65625 -40.59375 C 47.59375 -38.144531 46.242188 -35.066406 44.609375 -31.359375 C 42.984375 -27.648438 41.234375 -23.859375 39.359375 -19.984375 C 37.484375 -16.117188 35.546875 -12.492188 33.546875 -9.109375 C 31.554688 -5.722656 29.707031 -3.09375 28 -1.21875 C 26.28125 0.65625 24.242188 1.59375 21.890625 1.59375 C 20.085938 1.59375 18.578125 1.023438 17.359375 -0.109375 C 16.140625 -1.253906 15.53125 -2.765625 15.53125 -4.640625 C 15.53125 -7.171875 16.078125 -10.1875 17.171875 -13.6875 C 18.273438 -17.195312 19.578125 -20.765625 21.078125 -24.390625 C 22.585938 -28.015625 24.15625 -31.535156 25.78125 -34.953125 C 27.414062 -38.378906 28.804688 -41.316406 29.953125 -43.765625 C 32.066406 -48.578125 34.179688 -53.320312 36.296875 -58 C 38.421875 -62.6875 40.546875 -67.4375 42.671875 -72.25 C 41.523438 -72.414062 40.320312 -72.535156 39.0625 -72.609375 C 37.800781 -72.691406 36.597656 -72.734375 35.453125 -72.734375 C 31.296875 -72.734375 27.035156 -72.425781 22.671875 -71.8125 C 18.316406 -71.207031 14.101562 -70.5 10.03125 -69.6875 C 9.613281 -69.601562 9 -69.5625 8.1875 -69.5625 C 6.3125 -69.5625 4.78125 -70.128906 3.59375 -71.265625 C 2.414062 -72.410156 1.828125 -73.921875 1.828125 -75.796875 C 1.828125 -77.753906 2.5 -79.460938 3.84375 -80.921875 C 5.195312 -82.390625 6.953125 -83.632812 9.109375 -84.65625 C 11.265625 -85.675781 13.664062 -86.507812 16.3125 -87.15625 C 18.96875 -87.8125 21.578125 -88.34375 24.140625 -88.75 C 26.710938 -89.164062 29.097656 -89.429688 31.296875 -89.546875 C 33.492188 -89.671875 35.242188 -89.734375 36.546875 -89.734375 C 37.929688 -89.734375 39.945312 -89.628906 42.59375 -89.421875 C 45.25 -89.222656 47.984375 -88.898438 50.796875 -88.453125 C 53.609375 -88.003906 56.195312 -87.390625 58.5625 -86.609375 C 60.925781 -85.835938 62.515625 -84.84375 63.328125 -83.625 C 63.734375 -83.132812 63.957031 -82.664062 64 -82.21875 C 64.039062 -81.769531 64.0625 -81.257812 64.0625 -80.6875 Z M 64.0625 -80.6875 "/></g></g></g></svg>