<svg xmlns="http://www.w3.org/2000/svg" xmlns:xlink="http://www.w3.org/1999/xlink" width="200" zoomAndPan="magnify" viewBox="0 0 150 149.999998" height="200" preserveAspectRatio="xMidYMid meet" version="1.2"><defs/><g id="6d118e945d"><g style="fill:#2196f3;fill-opacity:1;"><g transform="translate(5.859376, 116.481745)"><path style="stroke:none" d="M 57.21875 -28.359375 C 57.21875 -23.796875 56.316406 -19.597656 54.515625 -15.765625 C 52.722656 -11.941406 50.316406 -8.625 47.296875 -5.8125 C 44.285156 -3 40.785156 -0.800781 36.796875 0.78125 C 32.804688 2.375 28.648438 3.171875 24.328125 3.171875 C 22.703125 3.171875 20.6875 3.03125 18.28125 2.75 C 15.875 2.46875 13.566406 1.914062 11.359375 1.09375 C 9.160156 0.28125 7.285156 -0.816406 5.734375 -2.203125 C 4.191406 -3.585938 3.421875 -5.378906 3.421875 -7.578125 C 3.421875 -9.941406 4.050781 -11.773438 5.3125 -13.078125 C 6.582031 -14.378906 8.398438 -15.03125 10.765625 -15.03125 C 13.117188 -15.03125 15.414062 -14.804688 17.65625 -14.359375 C 19.90625 -13.910156 22.210938 -13.6875 24.578125 -13.6875 C 26.367188 -13.6875 28.160156 -13.972656 29.953125 -14.546875 C 31.742188 -15.117188 33.351562 -15.953125 34.78125 -17.046875 C 36.207031 -18.148438 37.367188 -19.457031 38.265625 -20.96875 C 39.160156 -22.476562 39.609375 -24.207031 39.609375 -26.15625 C 39.609375 -27.21875 39.40625 -28.519531 39 -30.0625 C 38.59375 -31.613281 38.019531 -33.0625 37.28125 -34.40625 C 36.550781 -35.757812 35.65625 -36.921875 34.59375 -37.890625 C 33.539062 -38.867188 32.359375 -39.359375 31.046875 -39.359375 C 29.828125 -39.359375 28.625 -39.15625 27.4375 -38.75 C 26.257812 -38.34375 25.039062 -37.914062 23.78125 -37.46875 C 22.519531 -37.019531 21.234375 -36.59375 19.921875 -36.1875 C 18.617188 -35.78125 17.273438 -35.578125 15.890625 -35.578125 C 14.097656 -35.578125 12.773438 -36.328125 11.921875 -37.828125 C 11.066406 -39.335938 10.640625 -40.828125 10.640625 -42.296875 C 10.640625 -45.722656 12.1875 -48.046875 15.28125 -49.265625 C 16.914062 -49.921875 18.972656 -50.796875 21.453125 -51.890625 C 23.941406 -52.992188 26.367188 -54.28125 28.734375 -55.75 C 31.097656 -57.21875 33.132812 -58.867188 34.84375 -60.703125 C 36.550781 -62.535156 37.40625 -64.507812 37.40625 -66.625 C 37.40625 -68.257812 36.753906 -69.847656 35.453125 -71.390625 C 34.148438 -72.941406 32.601562 -73.71875 30.8125 -73.71875 C 29.019531 -73.71875 27.347656 -73.226562 25.796875 -72.25 C 24.242188 -71.269531 22.710938 -70.1875 21.203125 -69 C 19.703125 -67.820312 18.15625 -66.742188 16.5625 -65.765625 C 14.976562 -64.796875 13.285156 -64.3125 11.484375 -64.3125 C 10.585938 -64.3125 9.648438 -64.492188 8.671875 -64.859375 C 7.703125 -65.222656 6.804688 -65.707031 5.984375 -66.3125 C 5.171875 -66.925781 4.5 -67.679688 3.96875 -68.578125 C 3.4375 -69.472656 3.171875 -70.410156 3.171875 -71.390625 C 3.171875 -72.535156 3.414062 -73.71875 3.90625 -74.9375 C 4.394531 -76.164062 4.96875 -77.226562 5.625 -78.125 C 8.394531 -82.363281 12.082031 -85.539062 16.6875 -87.65625 C 21.289062 -89.769531 26.039062 -90.828125 30.9375 -90.828125 C 38.425781 -90.828125 44.390625 -88.789062 48.828125 -84.71875 C 53.273438 -80.644531 55.5 -74.898438 55.5 -67.484375 C 55.5 -63.078125 54.582031 -59.203125 52.75 -55.859375 C 50.914062 -52.523438 47.800781 -50.125 43.40625 -48.65625 C 45.769531 -48.164062 47.828125 -47.25 49.578125 -45.90625 C 51.328125 -44.5625 52.769531 -42.953125 53.90625 -41.078125 C 55.050781 -39.203125 55.890625 -37.160156 56.421875 -34.953125 C 56.953125 -32.753906 57.21875 -30.554688 57.21875 -28.359375 Z M 57.21875 -28.359375 "/></g></g><g style="fill:#2196f3;fill-opacity:1;"><g transform="translate(66.860021, 116.481745)"><path style="stroke:none" d="M 74.703125 -42.421875 C 74.703125 -36.878906 73.863281 -31.316406 72.1875 -25.734375 C 70.519531 -20.148438 68.078125 -15.097656 64.859375 -10.578125 C 61.640625 -6.054688 57.625 -2.390625 52.8125 0.421875 C 48 3.234375 42.457031 4.640625 36.1875 4.640625 C 30.882812 4.640625 26.113281 3.253906 21.875 0.484375 C 17.644531 -2.285156 14.039062 -5.804688 11.0625 -10.078125 C 8.09375 -14.359375 5.8125 -19.046875 4.21875 -24.140625 C 2.625 -29.234375 1.828125 -34.144531 1.828125 -38.875 C 1.828125 -42.21875 2.273438 -45.722656 3.171875 -49.390625 C 4.066406 -53.054688 5.347656 -56.679688 7.015625 -60.265625 C 8.691406 -63.859375 10.691406 -67.300781 13.015625 -70.59375 C 15.335938 -73.894531 17.945312 -76.789062 20.84375 -79.28125 C 23.738281 -81.769531 26.875 -83.742188 30.25 -85.203125 C 33.632812 -86.671875 37.160156 -87.40625 40.828125 -87.40625 C 47.109375 -87.40625 52.40625 -86.0625 56.71875 -83.375 C 61.039062 -80.6875 64.523438 -77.203125 67.171875 -72.921875 C 69.828125 -68.640625 71.742188 -63.828125 72.921875 -58.484375 C 74.109375 -53.148438 74.703125 -47.796875 74.703125 -42.421875 Z M 56.96875 -43.03125 C 56.96875 -45.070312 56.679688 -47.476562 56.109375 -50.25 C 55.546875 -53.019531 54.671875 -55.625 53.484375 -58.0625 C 52.304688 -60.507812 50.78125 -62.585938 48.90625 -64.296875 C 47.03125 -66.015625 44.785156 -66.875 42.171875 -66.875 C 38.992188 -66.875 36.160156 -65.875 33.671875 -63.875 C 31.191406 -61.875 29.09375 -59.40625 27.375 -56.46875 C 25.664062 -53.539062 24.34375 -50.40625 23.40625 -47.0625 C 22.46875 -43.726562 22 -40.710938 22 -38.015625 C 22 -35.898438 22.285156 -33.5 22.859375 -30.8125 C 23.429688 -28.125 24.328125 -25.578125 25.546875 -23.171875 C 26.773438 -20.765625 28.34375 -18.722656 30.25 -17.046875 C 32.164062 -15.378906 34.429688 -14.546875 37.046875 -14.546875 C 40.222656 -14.546875 43.050781 -15.539062 45.53125 -17.53125 C 48.019531 -19.53125 50.097656 -21.976562 51.765625 -24.875 C 53.441406 -27.769531 54.726562 -30.867188 55.625 -34.171875 C 56.519531 -37.472656 56.96875 -40.425781 56.96875 -43.03125 Z M 56.96875 -43.03125 "/></g></g></g></svg>