<svg xmlns="http://www.w3.org/2000/svg" xmlns:xlink="http://www.w3.org/1999/xlink" width="200" zoomAndPan="magnify" viewBox="0 0 150 149.999998" height="200" preserveAspectRatio="xMidYMid meet" version="1.2"><defs/><g id="5886c6a00a"><g style="fill:#2196f3;fill-opacity:1;"><g transform="translate(36.36328, 116.481745)"><path style="stroke:none" d="M 74.703125 -42.421875 C 74.703125 -36.878906 73.863281 -31.316406 72.1875 -25.734375 C 70.519531 -20.148438 68.078125 -15.097656 64.859375 -10.578125 C 61.640625 -6.054688 57.625 -2.390625 52.8125 0.421875 C 48 3.234375 42.457031 4.640625 36.1875 4.640625 C 30.882812 4.640625 26.113281 3.253906 21.875 0.484375 C 17.644531 -2.285156 14.039062 -5.804688 11.0625 -10.078125 C 8.09375 -14.359375 5.8125 -19.046875 4.21875 -24.140625 C 2.625 -29.234375 1.828125 -34.144531 1.828125 -38.875 C 1.828125 -42.21875 2.273438 -45.722656 3.171875 -49.390625 C 4.066406 -53.054688 5.347656 -56.679688 7.015625 -60.265625 C 8.691406 -63.859375 10.691406 -67.300781 13.015625 -70.59375 C 15.335938 -73.894531 17.945312 -76.789062 20.84375 -79.28125 C 23.738281 -81.769531 26.875 -83.742188 30.25 -85.203125 C 33.632812 -86.671875 37.160156 -87.40625 40.828125 -87.40625 C 47.109375 -87.40625 52.40625 -86.0625 56.71875 -83.375 C 61.039062 -80.6875 64.523438 -77.203125 67.171875 -72.921875 C 69.828125 -68.640625 71.742188 -63.828125 72.921875 -58.484375 C 74.109375 -53.148438 74.703125 -47.796875 74.703125 -42.421875 Z M 56.96875 -43.03125 C 56.96875 -45.070312 56.679688 -47.476562 56.109375 -50.25 C 55.546875 -53.019531 54.671875 -55.625 53.484375 -58.0625 C 52.304688 -60.507812 50.78125 -62.585938 48.90625 -64.296875 C 47.03125 -66.015625 44.785156 -66.875 42.171875 -66.875 C 38.992188 -66.875 36.160156 -65.875 33.671875 -63.875 C 31.191406 -61.875 29.09375 -59.40625 27.375 -56.46875 C 25.664062 -53.539062 24.34375 -50.40625 23.40625 -47.0625 C 22.46875 -43.726562 22 -40.710938 22 -38.015625 C 22 -35.898438 22.285156 -33.5 22.859375 -30.8125 C 23.429688 -28.125 24.328125 -25.578125 25.546875 -23.171875 C 26.773438 -20.765625 28.34375 -18.722656 30.25 -17.046875 C 32.164062 -15.378906 34.429688 -14.546875 37.046875 -14.546875 C 40.222656 -14.546875 43.050781 -15.539062 45.53125 -17.53125 C 48.019531 -19.53125 50.097656 -21.976562 51.765625 -24.875 C 53.441406 -27.769531 54.726562 -30.867188 55.625 -34.171875 C 56.519531 -37.472656 56.96875 -40.425781 56.96875 -43.03125 Z M 56.96875 -43.03125 "/></g></g></g></svg>