<svg xmlns="http://www.w3.org/2000/svg" xmlns:xlink="http://www.w3.org/1999/xlink" width="200" zoomAndPan="magnify" viewBox="0 0 150 149.999998" height="200" preserveAspectRatio="xMidYMid meet" version="1.2"><defs/><g id="b1e6c9f436"><g style="fill:#2196f3;fill-opacity:1;"><g transform="translate(3.117189, 116.481745)"><path style="stroke:none" d="M 68.953125 -49.265625 C 68.953125 -47.148438 68.378906 -45.476562 67.234375 -44.25 C 66.097656 -43.03125 64.550781 -42.21875 62.59375 -41.8125 C 58.757812 -40.914062 55.007812 -40.304688 51.34375 -39.984375 C 51.019531 -36.796875 50.734375 -33.632812 50.484375 -30.5 C 50.242188 -27.363281 50 -24.25 49.75 -21.15625 C 49.59375 -19.6875 49.429688 -17.664062 49.265625 -15.09375 C 49.109375 -12.53125 48.722656 -10.023438 48.109375 -7.578125 C 47.492188 -5.128906 46.59375 -2.988281 45.40625 -1.15625 C 44.226562 0.675781 42.625 1.59375 40.59375 1.59375 C 38.632812 1.59375 37.101562 0.738281 36 -0.96875 C 34.90625 -2.6875 34.070312 -4.6875 33.5 -6.96875 C 32.925781 -9.25 32.554688 -11.550781 32.390625 -13.875 C 32.234375 -16.195312 32.15625 -18.007812 32.15625 -19.3125 C 32.15625 -22.65625 32.253906 -25.9375 32.453125 -29.15625 C 32.660156 -32.375 32.847656 -35.613281 33.015625 -38.875 C 30.890625 -38.707031 28.765625 -38.601562 26.640625 -38.5625 C 24.523438 -38.53125 22.410156 -38.515625 20.296875 -38.515625 C 19.316406 -38.515625 18.09375 -38.53125 16.625 -38.5625 C 15.15625 -38.601562 13.6875 -38.707031 12.21875 -38.875 C 10.757812 -39.039062 9.394531 -39.347656 8.125 -39.796875 C 6.863281 -40.242188 5.945312 -40.914062 5.375 -41.8125 C 4.96875 -42.382812 4.660156 -43.382812 4.453125 -44.8125 C 4.253906 -46.238281 4.09375 -47.785156 3.96875 -49.453125 C 3.851562 -51.117188 3.796875 -52.726562 3.796875 -54.28125 C 3.796875 -55.832031 3.796875 -56.972656 3.796875 -57.703125 C 3.796875 -59.578125 3.796875 -61.410156 3.796875 -63.203125 C 3.796875 -64.992188 3.875 -66.828125 4.03125 -68.703125 C 4.113281 -70.492188 4.210938 -72.632812 4.328125 -75.125 C 4.453125 -77.613281 4.863281 -80 5.5625 -82.28125 C 6.257812 -84.5625 7.28125 -86.515625 8.625 -88.140625 C 9.96875 -89.773438 11.898438 -90.59375 14.421875 -90.59375 C 15.972656 -90.59375 17.21875 -89.859375 18.15625 -88.390625 C 19.09375 -86.921875 19.828125 -85.207031 20.359375 -83.25 C 20.890625 -81.300781 21.234375 -79.328125 21.390625 -77.328125 C 21.554688 -75.328125 21.640625 -73.796875 21.640625 -72.734375 C 21.640625 -70.296875 21.535156 -67.851562 21.328125 -65.40625 C 21.128906 -62.957031 20.828125 -60.550781 20.421875 -58.1875 C 22.785156 -58.351562 25.128906 -58.492188 27.453125 -58.609375 C 29.773438 -58.734375 32.113281 -58.878906 34.46875 -59.046875 C 34.550781 -59.859375 34.691406 -61.507812 34.890625 -64 C 35.097656 -66.488281 35.363281 -69.132812 35.6875 -71.9375 C 36.019531 -74.75 36.347656 -77.378906 36.671875 -79.828125 C 37.003906 -82.273438 37.332031 -83.863281 37.65625 -84.59375 C 38.300781 -86.144531 39.316406 -87.429688 40.703125 -88.453125 C 42.085938 -89.472656 43.679688 -89.984375 45.484375 -89.984375 C 47.597656 -89.984375 49.101562 -89.328125 50 -88.015625 C 50.894531 -86.710938 51.503906 -85.164062 51.828125 -83.375 C 52.242188 -81.09375 52.488281 -78.726562 52.5625 -76.28125 C 52.644531 -73.84375 52.6875 -71.441406 52.6875 -69.078125 C 52.6875 -65.566406 52.566406 -62.0625 52.328125 -58.5625 C 54.117188 -58.394531 55.867188 -58.1875 57.578125 -57.9375 C 59.296875 -57.695312 61.050781 -57.375 62.84375 -56.96875 C 64.789062 -56.5625 66.296875 -55.664062 67.359375 -54.28125 C 68.421875 -52.894531 68.953125 -51.222656 68.953125 -49.265625 Z M 68.953125 -49.265625 "/></g></g><g style="fill:#2196f3;fill-opacity:1;"><g transform="translate(69.618893, 116.481745)"><path style="stroke:none" d="M 74.703125 -42.421875 C 74.703125 -36.878906 73.863281 -31.316406 72.1875 -25.734375 C 70.519531 -20.148438 68.078125 -15.097656 64.859375 -10.578125 C 61.640625 -6.054688 57.625 -2.390625 52.8125 0.421875 C 48 3.234375 42.457031 4.640625 36.1875 4.640625 C 30.882812 4.640625 26.113281 3.253906 21.875 0.484375 C 17.644531 -2.285156 14.039062 -5.804688 11.0625 -10.078125 C 8.09375 -14.359375 5.8125 -19.046875 4.21875 -24.140625 C 2.625 -29.234375 1.828125 -34.144531 1.828125 -38.875 C 1.828125 -42.21875 2.273438 -45.722656 3.171875 -49.390625 C 4.066406 -53.054688 5.347656 -56.679688 7.015625 -60.265625 C 8.691406 -63.859375 10.691406 -67.300781 13.015625 -70.59375 C 15.335938 -73.894531 17.945312 -76.789062 20.84375 -79.28125 C 23.738281 -81.769531 26.875 -83.742188 30.25 -85.203125 C 33.632812 -86.671875 37.160156 -87.40625 40.828125 -87.40625 C 47.109375 -87.40625 52.40625 -86.0625 56.71875 -83.375 C 61.039062 -80.6875 64.523438 -77.203125 67.171875 -72.921875 C 69.828125 -68.640625 71.742188 -63.828125 72.921875 -58.484375 C 74.109375 -53.148438 74.703125 -47.796875 74.703125 -42.421875 Z M 56.96875 -43.03125 C 56.96875 -45.070312 56.679688 -47.476562 56.109375 -50.25 C 55.546875 -53.019531 54.671875 -55.625 53.484375 -58.0625 C 52.304688 -60.507812 50.78125 -62.585938 48.90625 -64.296875 C 47.03125 -66.015625 44.785156 -66.875 42.171875 -66.875 C 38.992188 -66.875 36.160156 -65.875 33.671875 -63.875 C 31.191406 -61.875 29.09375 -59.40625 27.375 -56.46875 C 25.664062 -53.539062 24.34375 -50.40625 23.40625 -47.0625 C 22.46875 -43.726562 22 -40.710938 22 -38.015625 C 22 -35.898438 22.285156 -33.5 22.859375 -30.8125 C 23.429688 -28.125 24.328125 -25.578125 25.546875 -23.171875 C 26.773438 -20.765625 28.34375 -18.722656 30.25 -17.046875 C 32.164062 -15.378906 34.429688 -14.546875 37.046875 -14.546875 C 40.222656 -14.546875 43.050781 -15.539062 45.53125 -17.53125 C 48.019531 -19.53125 50.097656 -21.976562 51.765625 -24.875 C 53.441406 -27.769531 54.726562 -30.867188 55.625 -34.171875 C 56.519531 -37.472656 56.96875 -40.425781 56.96875 -43.03125 Z M 56.96875 -43.03125 "/></g></g></g></svg>