<svg xmlns="http://www.w3.org/2000/svg" xmlns:xlink="http://www.w3.org/1999/xlink" width="200" zoomAndPan="magnify" viewBox="0 0 150 149.999998" height="200" preserveAspectRatio="xMidYMid meet" version="1.2"><defs/><g id="dffbfc5b92"><g style="fill:#2196f3;fill-opacity:1;"><g transform="translate(10.019532, 116.481745)"><path style="stroke:none" d="M 68.953125 -49.265625 C 68.953125 -47.148438 68.378906 -45.476562 67.234375 -44.25 C 66.097656 -43.03125 64.550781 -42.21875 62.59375 -41.8125 C 58.757812 -40.914062 55.007812 -40.304688 51.34375 -39.984375 C 51.019531 -36.796875 50.734375 -33.632812 50.484375 -30.5 C 50.242188 -27.363281 50 -24.25 49.75 -21.15625 C 49.59375 -19.6875 49.429688 -17.664062 49.265625 -15.09375 C 49.109375 -12.53125 48.722656 -10.023438 48.109375 -7.578125 C 47.492188 -5.128906 46.59375 -2.988281 45.40625 -1.15625 C 44.226562 0.675781 42.625 1.59375 40.59375 1.59375 C 38.632812 1.59375 37.101562 0.738281 36 -0.96875 C 34.90625 -2.6875 34.070312 -4.6875 33.5 -6.96875 C 32.925781 -9.25 32.554688 -11.550781 32.390625 -13.875 C 32.234375 -16.195312 32.15625 -18.007812 32.15625 -19.3125 C 32.15625 -22.65625 32.253906 -25.9375 32.453125 -29.15625 C 32.660156 -32.375 32.847656 -35.613281 33.015625 -38.875 C 30.890625 -38.707031 28.765625 -38.601562 26.640625 -38.5625 C 24.523438 -38.53125 22.410156 -38.515625 20.296875 -38.515625 C 19.316406 -38.515625 18.09375 -38.53125 16.625 -38.5625 C 15.15625 -38.601562 13.6875 -38.707031 12.21875 -38.875 C 10.757812 -39.039062 9.394531 -39.347656 8.125 -39.796875 C 6.863281 -40.242188 5.945312 -40.914062 5.375 -41.8125 C 4.96875 -42.382812 4.660156 -43.382812 4.453125 -44.8125 C 4.253906 -46.238281 4.09375 -47.785156 3.96875 -49.453125 C 3.851562 -51.117188 3.796875 -52.726562 3.796875 -54.28125 C 3.796875 -55.832031 3.796875 -56.972656 3.796875 -57.703125 C 3.796875 -59.578125 3.796875 -61.410156 3.796875 -63.203125 C 3.796875 -64.992188 3.875 -66.828125 4.03125 -68.703125 C 4.113281 -70.492188 4.210938 -72.632812 4.328125 -75.125 C 4.453125 -77.613281 4.863281 -80 5.5625 -82.28125 C 6.257812 -84.5625 7.28125 -86.515625 8.625 -88.140625 C 9.96875 -89.773438 11.898438 -90.59375 14.421875 -90.59375 C 15.972656 -90.59375 17.21875 -89.859375 18.15625 -88.390625 C 19.09375 -86.921875 19.828125 -85.207031 20.359375 -83.25 C 20.890625 -81.300781 21.234375 -79.328125 21.390625 -77.328125 C 21.554688 -75.328125 21.640625 -73.796875 21.640625 -72.734375 C 21.640625 -70.296875 21.535156 -67.851562 21.328125 -65.40625 C 21.128906 -62.957031 20.828125 -60.550781 20.421875 -58.1875 C 22.785156 -58.351562 25.128906 -58.492188 27.453125 -58.609375 C 29.773438 -58.734375 32.113281 -58.878906 34.46875 -59.046875 C 34.550781 -59.859375 34.691406 -61.507812 34.890625 -64 C 35.097656 -66.488281 35.363281 -69.132812 35.6875 -71.9375 C 36.019531 -74.75 36.347656 -77.378906 36.671875 -79.828125 C 37.003906 -82.273438 37.332031 -83.863281 37.65625 -84.59375 C 38.300781 -86.144531 39.316406 -87.429688 40.703125 -88.453125 C 42.085938 -89.472656 43.679688 -89.984375 45.484375 -89.984375 C 47.597656 -89.984375 49.101562 -89.328125 50 -88.015625 C 50.894531 -86.710938 51.503906 -85.164062 51.828125 -83.375 C 52.242188 -81.09375 52.488281 -78.726562 52.5625 -76.28125 C 52.644531 -73.84375 52.6875 -71.441406 52.6875 -69.078125 C 52.6875 -65.566406 52.566406 -62.0625 52.328125 -58.5625 C 54.117188 -58.394531 55.867188 -58.1875 57.578125 -57.9375 C 59.296875 -57.695312 61.050781 -57.375 62.84375 -56.96875 C 64.789062 -56.5625 66.296875 -55.664062 67.359375 -54.28125 C 68.421875 -52.894531 68.953125 -51.222656 68.953125 -49.265625 Z M 68.953125 -49.265625 "/></g></g><g style="fill:#2196f3;fill-opacity:1;"><g transform="translate(76.521237, 116.481745)"><path style="stroke:none" d="M 61 -11.25 C 61 -8.882812 60.222656 -6.96875 58.671875 -5.5 C 57.128906 -4.03125 55.257812 -3.09375 53.0625 -2.6875 C 50.613281 -2.113281 47.835938 -1.601562 44.734375 -1.15625 C 41.640625 -0.707031 38.484375 -0.320312 35.265625 0 C 32.046875 0.320312 28.890625 0.566406 25.796875 0.734375 C 22.703125 0.898438 19.890625 0.984375 17.359375 0.984375 C 16.703125 0.984375 15.785156 0.960938 14.609375 0.921875 C 13.429688 0.878906 12.207031 0.796875 10.9375 0.671875 C 9.675781 0.546875 8.492188 0.359375 7.390625 0.109375 C 6.296875 -0.128906 5.460938 -0.453125 4.890625 -0.859375 C 4.316406 -1.347656 3.804688 -2.019531 3.359375 -2.875 C 2.910156 -3.726562 2.523438 -4.664062 2.203125 -5.6875 C 1.878906 -6.707031 1.632812 -7.703125 1.46875 -8.671875 C 1.300781 -9.648438 1.21875 -10.507812 1.21875 -11.25 C 1.21875 -12.382812 1.359375 -13.421875 1.640625 -14.359375 C 1.929688 -15.296875 2.484375 -16.175781 3.296875 -17 C 4.273438 -18.050781 5.296875 -19.085938 6.359375 -20.109375 C 7.421875 -21.128906 8.4375 -22.128906 9.40625 -23.109375 C 10.550781 -24.328125 12.0625 -25.9375 13.9375 -27.9375 C 15.8125 -29.9375 17.828125 -32.175781 19.984375 -34.65625 C 22.148438 -37.144531 24.3125 -39.753906 26.46875 -42.484375 C 28.625 -45.210938 30.597656 -47.878906 32.390625 -50.484375 C 34.191406 -53.097656 35.640625 -55.546875 36.734375 -57.828125 C 37.835938 -60.109375 38.390625 -62.0625 38.390625 -63.6875 C 38.390625 -65.238281 37.941406 -66.523438 37.046875 -67.546875 C 36.148438 -68.566406 34.925781 -69.078125 33.375 -69.078125 C 31.664062 -69.078125 30.078125 -68.460938 28.609375 -67.234375 C 27.140625 -66.015625 25.671875 -64.691406 24.203125 -63.265625 C 22.734375 -61.835938 21.164062 -60.507812 19.5 -59.28125 C 17.832031 -58.0625 15.9375 -57.453125 13.8125 -57.453125 C 11.289062 -57.453125 9.316406 -58.1875 7.890625 -59.65625 C 6.460938 -61.125 5.75 -63.082031 5.75 -65.53125 C 5.75 -69.113281 6.539062 -72.429688 8.125 -75.484375 C 9.71875 -78.546875 11.816406 -81.175781 14.421875 -83.375 C 17.035156 -85.570312 19.972656 -87.300781 23.234375 -88.5625 C 26.492188 -89.832031 29.832031 -90.46875 33.25 -90.46875 C 36.757812 -90.46875 40.019531 -90.054688 43.03125 -89.234375 C 46.050781 -88.421875 48.660156 -87.160156 50.859375 -85.453125 C 53.054688 -83.742188 54.785156 -81.5625 56.046875 -78.90625 C 57.316406 -76.257812 57.953125 -73.0625 57.953125 -69.3125 C 57.953125 -66.382812 57.441406 -63.3125 56.421875 -60.09375 C 55.398438 -56.875 54.050781 -53.632812 52.375 -50.375 C 50.707031 -47.113281 48.796875 -43.867188 46.640625 -40.640625 C 44.484375 -37.421875 42.257812 -34.34375 39.96875 -31.40625 C 37.6875 -28.476562 35.40625 -25.75 33.125 -23.21875 C 30.84375 -20.695312 28.765625 -18.5 26.890625 -16.625 C 30.890625 -17.113281 35.085938 -17.601562 39.484375 -18.09375 C 43.890625 -18.582031 48.128906 -18.828125 52.203125 -18.828125 C 54.566406 -18.828125 56.625 -18.191406 58.375 -16.921875 C 60.125 -15.660156 61 -13.769531 61 -11.25 Z M 61 -11.25 "/></g></g></g></svg>