<svg xmlns="http://www.w3.org/2000/svg" xmlns:xlink="http://www.w3.org/1999/xlink" width="200" zoomAndPan="magnify" viewBox="0 0 150 149.999998" height="200" preserveAspectRatio="xMidYMid meet" version="1.2"><defs/><g id="5495ac721d"><g style="fill:#2196f3;fill-opacity:1;"><g transform="translate(3.29297, 116.481745)"><path style="stroke:none" d="M 62.953125 -26.65625 C 62.953125 -21.925781 62.117188 -17.765625 60.453125 -14.171875 C 58.785156 -10.585938 56.523438 -7.613281 53.671875 -5.25 C 50.816406 -2.894531 47.453125 -1.109375 43.578125 0.109375 C 39.710938 1.335938 35.535156 1.953125 31.046875 1.953125 C 25.992188 1.953125 21.613281 0.9375 17.90625 -1.09375 C 14.195312 -3.132812 11.160156 -5.84375 8.796875 -9.21875 C 6.429688 -12.601562 4.675781 -16.4375 3.53125 -20.71875 C 2.394531 -25 1.828125 -29.421875 1.828125 -33.984375 C 1.828125 -37.242188 2.394531 -40.910156 3.53125 -44.984375 C 4.675781 -49.066406 6.269531 -53.203125 8.3125 -57.390625 C 10.351562 -61.585938 12.71875 -65.660156 15.40625 -69.609375 C 18.09375 -73.566406 20.984375 -77.09375 24.078125 -80.1875 C 27.179688 -83.289062 30.421875 -85.78125 33.796875 -87.65625 C 37.179688 -89.53125 40.503906 -90.46875 43.765625 -90.46875 C 45.640625 -90.46875 47.332031 -89.957031 48.84375 -88.9375 C 50.351562 -87.914062 51.109375 -86.390625 51.109375 -84.359375 C 51.109375 -83.210938 50.617188 -81.988281 49.640625 -80.6875 C 48.660156 -79.382812 47.5 -78.097656 46.15625 -76.828125 C 44.8125 -75.566406 43.425781 -74.34375 42 -73.15625 C 40.570312 -71.976562 39.445312 -70.898438 38.625 -69.921875 C 36.75 -67.804688 35.015625 -65.546875 33.421875 -63.140625 C 31.835938 -60.734375 30.476562 -58.226562 29.34375 -55.625 C 30.5625 -56.03125 31.820312 -56.332031 33.125 -56.53125 C 34.4375 -56.738281 35.742188 -56.84375 37.046875 -56.84375 C 41.203125 -56.84375 44.890625 -55.988281 48.109375 -54.28125 C 51.328125 -52.570312 54.035156 -50.3125 56.234375 -47.5 C 58.429688 -44.6875 60.097656 -41.460938 61.234375 -37.828125 C 62.378906 -34.203125 62.953125 -30.476562 62.953125 -26.65625 Z M 45.84375 -26.53125 C 45.84375 -30.851562 44.519531 -34.175781 41.875 -36.5 C 39.226562 -38.820312 35.820312 -39.984375 31.65625 -39.984375 C 30.269531 -39.984375 28.679688 -39.773438 26.890625 -39.359375 C 25.097656 -38.953125 23.550781 -38.34375 22.25 -37.53125 C 21.757812 -37.207031 21.472656 -36.597656 21.390625 -35.703125 C 21.304688 -34.804688 21.265625 -34.070312 21.265625 -33.5 C 21.265625 -31.625 21.53125 -29.644531 22.0625 -27.5625 C 22.59375 -25.488281 23.390625 -23.554688 24.453125 -21.765625 C 25.515625 -19.972656 26.859375 -18.503906 28.484375 -17.359375 C 30.117188 -16.222656 32.035156 -15.65625 34.234375 -15.65625 C 37.578125 -15.65625 40.347656 -16.585938 42.546875 -18.453125 C 44.742188 -20.328125 45.84375 -23.019531 45.84375 -26.53125 Z M 45.84375 -26.53125 "/></g></g><g style="fill:#2196f3;fill-opacity:1;"><g transform="translate(69.427937, 116.481745)"><path style="stroke:none" d="M 74.703125 -42.421875 C 74.703125 -36.878906 73.863281 -31.316406 72.1875 -25.734375 C 70.519531 -20.148438 68.078125 -15.097656 64.859375 -10.578125 C 61.640625 -6.054688 57.625 -2.390625 52.8125 0.421875 C 48 3.234375 42.457031 4.640625 36.1875 4.640625 C 30.882812 4.640625 26.113281 3.253906 21.875 0.484375 C 17.644531 -2.285156 14.039062 -5.804688 11.0625 -10.078125 C 8.09375 -14.359375 5.8125 -19.046875 4.21875 -24.140625 C 2.625 -29.234375 1.828125 -34.144531 1.828125 -38.875 C 1.828125 -42.21875 2.273438 -45.722656 3.171875 -49.390625 C 4.066406 -53.054688 5.347656 -56.679688 7.015625 -60.265625 C 8.691406 -63.859375 10.691406 -67.300781 13.015625 -70.59375 C 15.335938 -73.894531 17.945312 -76.789062 20.84375 -79.28125 C 23.738281 -81.769531 26.875 -83.742188 30.25 -85.203125 C 33.632812 -86.671875 37.160156 -87.40625 40.828125 -87.40625 C 47.109375 -87.40625 52.40625 -86.0625 56.71875 -83.375 C 61.039062 -80.6875 64.523438 -77.203125 67.171875 -72.921875 C 69.828125 -68.640625 71.742188 -63.828125 72.921875 -58.484375 C 74.109375 -53.148438 74.703125 -47.796875 74.703125 -42.421875 Z M 56.96875 -43.03125 C 56.96875 -45.070312 56.679688 -47.476562 56.109375 -50.25 C 55.546875 -53.019531 54.671875 -55.625 53.484375 -58.0625 C 52.304688 -60.507812 50.78125 -62.585938 48.90625 -64.296875 C 47.03125 -66.015625 44.785156 -66.875 42.171875 -66.875 C 38.992188 -66.875 36.160156 -65.875 33.671875 -63.875 C 31.191406 -61.875 29.09375 -59.40625 27.375 -56.46875 C 25.664062 -53.539062 24.34375 -50.40625 23.40625 -47.0625 C 22.46875 -43.726562 22 -40.710938 22 -38.015625 C 22 -35.898438 22.285156 -33.5 22.859375 -30.8125 C 23.429688 -28.125 24.328125 -25.578125 25.546875 -23.171875 C 26.773438 -20.765625 28.34375 -18.722656 30.25 -17.046875 C 32.164062 -15.378906 34.429688 -14.546875 37.046875 -14.546875 C 40.222656 -14.546875 43.050781 -15.539062 45.53125 -17.53125 C 48.019531 -19.53125 50.097656 -21.976562 51.765625 -24.875 C 53.441406 -27.769531 54.726562 -30.867188 55.625 -34.171875 C 56.519531 -37.472656 56.96875 -40.425781 56.96875 -43.03125 Z M 56.96875 -43.03125 "/></g></g></g></svg>