<svg xmlns="http://www.w3.org/2000/svg" xmlns:xlink="http://www.w3.org/1999/xlink" width="200" zoomAndPan="magnify" viewBox="0 0 150 149.999998" height="200" preserveAspectRatio="xMidYMid meet" version="1.2"><defs/><g id="e2ffd0bd92"><g style="fill:#2196f3;fill-opacity:1;"><g transform="translate(9.222657, 116.481745)"><path style="stroke:none" d="M 62.953125 -26.65625 C 62.953125 -21.925781 62.117188 -17.765625 60.453125 -14.171875 C 58.785156 -10.585938 56.523438 -7.613281 53.671875 -5.25 C 50.816406 -2.894531 47.453125 -1.109375 43.578125 0.109375 C 39.710938 1.335938 35.535156 1.953125 31.046875 1.953125 C 25.992188 1.953125 21.613281 0.9375 17.90625 -1.09375 C 14.195312 -3.132812 11.160156 -5.84375 8.796875 -9.21875 C 6.429688 -12.601562 4.675781 -16.4375 3.53125 -20.71875 C 2.394531 -25 1.828125 -29.421875 1.828125 -33.984375 C 1.828125 -37.242188 2.394531 -40.910156 3.53125 -44.984375 C 4.675781 -49.066406 6.269531 -53.203125 8.3125 -57.390625 C 10.351562 -61.585938 12.71875 -65.660156 15.40625 -69.609375 C 18.09375 -73.566406 20.984375 -77.09375 24.078125 -80.1875 C 27.179688 -83.289062 30.421875 -85.78125 33.796875 -87.65625 C 37.179688 -89.53125 40.503906 -90.46875 43.765625 -90.46875 C 45.640625 -90.46875 47.332031 -89.957031 48.84375 -88.9375 C 50.351562 -87.914062 51.109375 -86.390625 51.109375 -84.359375 C 51.109375 -83.210938 50.617188 -81.988281 49.640625 -80.6875 C 48.660156 -79.382812 47.5 -78.097656 46.15625 -76.828125 C 44.8125 -75.566406 43.425781 -74.34375 42 -73.15625 C 40.570312 -71.976562 39.445312 -70.898438 38.625 -69.921875 C 36.75 -67.804688 35.015625 -65.546875 33.421875 -63.140625 C 31.835938 -60.734375 30.476562 -58.226562 29.34375 -55.625 C 30.5625 -56.03125 31.820312 -56.332031 33.125 -56.53125 C 34.4375 -56.738281 35.742188 -56.84375 37.046875 -56.84375 C 41.203125 -56.84375 44.890625 -55.988281 48.109375 -54.28125 C 51.328125 -52.570312 54.035156 -50.3125 56.234375 -47.5 C 58.429688 -44.6875 60.097656 -41.460938 61.234375 -37.828125 C 62.378906 -34.203125 62.953125 -30.476562 62.953125 -26.65625 Z M 45.84375 -26.53125 C 45.84375 -30.851562 44.519531 -34.175781 41.875 -36.5 C 39.226562 -38.820312 35.820312 -39.984375 31.65625 -39.984375 C 30.269531 -39.984375 28.679688 -39.773438 26.890625 -39.359375 C 25.097656 -38.953125 23.550781 -38.34375 22.25 -37.53125 C 21.757812 -37.207031 21.472656 -36.597656 21.390625 -35.703125 C 21.304688 -34.804688 21.265625 -34.070312 21.265625 -33.5 C 21.265625 -31.625 21.53125 -29.644531 22.0625 -27.5625 C 22.59375 -25.488281 23.390625 -23.554688 24.453125 -21.765625 C 25.515625 -19.972656 26.859375 -18.503906 28.484375 -17.359375 C 30.117188 -16.222656 32.035156 -15.65625 34.234375 -15.65625 C 37.578125 -15.65625 40.347656 -16.585938 42.546875 -18.453125 C 44.742188 -20.328125 45.84375 -23.019531 45.84375 -26.53125 Z M 45.84375 -26.53125 "/></g></g><g style="fill:#2196f3;fill-opacity:1;"><g transform="translate(75.357625, 116.481745)"><path style="stroke:none" d="M 64.0625 -80.6875 C 64.0625 -79.539062 63.753906 -77.945312 63.140625 -75.90625 C 62.535156 -73.875 61.765625 -71.570312 60.828125 -69 C 59.890625 -66.4375 58.828125 -63.75 57.640625 -60.9375 C 56.460938 -58.125 55.300781 -55.4375 54.15625 -52.875 C 53.019531 -50.3125 51.960938 -47.925781 50.984375 -45.71875 C 50.003906 -43.519531 49.226562 -41.8125 48.65625 -40.59375 C 47.59375 -38.144531 46.242188 -35.066406 44.609375 -31.359375 C 42.984375 -27.648438 41.234375 -23.859375 39.359375 -19.984375 C 37.484375 -16.117188 35.546875 -12.492188 33.546875 -9.109375 C 31.554688 -5.722656 29.707031 -3.09375 28 -1.21875 C 26.28125 0.65625 24.242188 1.59375 21.890625 1.59375 C 20.085938 1.59375 18.578125 1.023438 17.359375 -0.109375 C 16.140625 -1.253906 15.53125 -2.765625 15.53125 -4.640625 C 15.53125 -7.171875 16.078125 -10.1875 17.171875 -13.6875 C 18.273438 -17.195312 19.578125 -20.765625 21.078125 -24.390625 C 22.585938 -28.015625 24.15625 -31.535156 25.78125 -34.953125 C 27.414062 -38.378906 28.804688 -41.316406 29.953125 -43.765625 C 32.066406 -48.578125 34.179688 -53.320312 36.296875 -58 C 38.421875 -62.6875 40.546875 -67.4375 42.671875 -72.25 C 41.523438 -72.414062 40.320312 -72.535156 39.0625 -72.609375 C 37.800781 -72.691406 36.597656 -72.734375 35.453125 -72.734375 C 31.296875 -72.734375 27.035156 -72.425781 22.671875 -71.8125 C 18.316406 -71.207031 14.101562 -70.5 10.03125 -69.6875 C 9.613281 -69.601562 9 -69.5625 8.1875 -69.5625 C 6.3125 -69.5625 4.78125 -70.128906 3.59375 -71.265625 C 2.414062 -72.410156 1.828125 -73.921875 1.828125 -75.796875 C 1.828125 -77.753906 2.5 -79.460938 3.84375 -80.921875 C 5.195312 -82.390625 6.953125 -83.632812 9.109375 -84.65625 C 11.265625 -85.675781 13.664062 -86.507812 16.3125 -87.15625 C 18.96875 -87.8125 21.578125 -88.34375 24.140625 -88.75 C 26.710938 -89.164062 29.097656 -89.429688 31.296875 -89.546875 C 33.492188 -89.671875 35.242188 -89.734375 36.546875 -89.734375 C 37.929688 -89.734375 39.945312 -89.628906 42.59375 -89.421875 C 45.25 -89.222656 47.984375 -88.898438 50.796875 -88.453125 C 53.609375 -88.003906 56.195312 -87.390625 58.5625 -86.609375 C 60.925781 -85.835938 62.515625 -84.84375 63.328125 -83.625 C 63.734375 -83.132812 63.957031 -82.664062 64 -82.21875 C 64.039062 -81.769531 64.0625 -81.257812 64.0625 -80.6875 Z M 64.0625 -80.6875 "/></g></g></g></svg>