<svg xmlns="http://www.w3.org/2000/svg" xmlns:xlink="http://www.w3.org/1999/xlink" width="200" zoomAndPan="magnify" viewBox="0 0 150 149.999998" height="200" preserveAspectRatio="xMidYMid meet" version="1.2"><defs/><g id="8fb8eb02f6"><g style="fill:#2196f3;fill-opacity:1;"><g transform="translate(11.238282, 116.481745)"><path style="stroke:none" d="M 57.21875 -28.359375 C 57.21875 -23.796875 56.316406 -19.597656 54.515625 -15.765625 C 52.722656 -11.941406 50.316406 -8.625 47.296875 -5.8125 C 44.285156 -3 40.785156 -0.800781 36.796875 0.78125 C 32.804688 2.375 28.648438 3.171875 24.328125 3.171875 C 22.703125 3.171875 20.6875 3.03125 18.28125 2.75 C 15.875 2.46875 13.566406 1.914062 11.359375 1.09375 C 9.160156 0.28125 7.285156 -0.816406 5.734375 -2.203125 C 4.191406 -3.585938 3.421875 -5.378906 3.421875 -7.578125 C 3.421875 -9.941406 4.050781 -11.773438 5.3125 -13.078125 C 6.582031 -14.378906 8.398438 -15.03125 10.765625 -15.03125 C 13.117188 -15.03125 15.414062 -14.804688 17.65625 -14.359375 C 19.90625 -13.910156 22.210938 -13.6875 24.578125 -13.6875 C 26.367188 -13.6875 28.160156 -13.972656 29.953125 -14.546875 C 31.742188 -15.117188 33.351562 -15.953125 34.78125 -17.046875 C 36.207031 -18.148438 37.367188 -19.457031 38.265625 -20.96875 C 39.160156 -22.476562 39.609375 -24.207031 39.609375 -26.15625 C 39.609375 -27.21875 39.40625 -28.519531 39 -30.0625 C 38.59375 -31.613281 38.019531 -33.0625 37.28125 -34.40625 C 36.550781 -35.757812 35.65625 -36.921875 34.59375 -37.890625 C 33.539062 -38.867188 32.359375 -39.359375 31.046875 -39.359375 C 29.828125 -39.359375 28.625 -39.15625 27.4375 -38.75 C 26.257812 -38.34375 25.039062 -37.914062 23.78125 -37.46875 C 22.519531 -37.019531 21.234375 -36.59375 19.921875 -36.1875 C 18.617188 -35.78125 17.273438 -35.578125 15.890625 -35.578125 C 14.097656 -35.578125 12.773438 -36.328125 11.921875 -37.828125 C 11.066406 -39.335938 10.640625 -40.828125 10.640625 -42.296875 C 10.640625 -45.722656 12.1875 -48.046875 15.28125 -49.265625 C 16.914062 -49.921875 18.972656 -50.796875 21.453125 -51.890625 C 23.941406 -52.992188 26.367188 -54.28125 28.734375 -55.75 C 31.097656 -57.21875 33.132812 -58.867188 34.84375 -60.703125 C 36.550781 -62.535156 37.40625 -64.507812 37.40625 -66.625 C 37.40625 -68.257812 36.753906 -69.847656 35.453125 -71.390625 C 34.148438 -72.941406 32.601562 -73.71875 30.8125 -73.71875 C 29.019531 -73.71875 27.347656 -73.226562 25.796875 -72.25 C 24.242188 -71.269531 22.710938 -70.1875 21.203125 -69 C 19.703125 -67.820312 18.15625 -66.742188 16.5625 -65.765625 C 14.976562 -64.796875 13.285156 -64.3125 11.484375 -64.3125 C 10.585938 -64.3125 9.648438 -64.492188 8.671875 -64.859375 C 7.703125 -65.222656 6.804688 -65.707031 5.984375 -66.3125 C 5.171875 -66.925781 4.5 -67.679688 3.96875 -68.578125 C 3.4375 -69.472656 3.171875 -70.410156 3.171875 -71.390625 C 3.171875 -72.535156 3.414062 -73.71875 3.90625 -74.9375 C 4.394531 -76.164062 4.96875 -77.226562 5.625 -78.125 C 8.394531 -82.363281 12.082031 -85.539062 16.6875 -87.65625 C 21.289062 -89.769531 26.039062 -90.828125 30.9375 -90.828125 C 38.425781 -90.828125 44.390625 -88.789062 48.828125 -84.71875 C 53.273438 -80.644531 55.5 -74.898438 55.5 -67.484375 C 55.5 -63.078125 54.582031 -59.203125 52.75 -55.859375 C 50.914062 -52.523438 47.800781 -50.125 43.40625 -48.65625 C 45.769531 -48.164062 47.828125 -47.25 49.578125 -45.90625 C 51.328125 -44.5625 52.769531 -42.953125 53.90625 -41.078125 C 55.050781 -39.203125 55.890625 -37.160156 56.421875 -34.953125 C 56.953125 -32.753906 57.21875 -30.554688 57.21875 -28.359375 Z M 57.21875 -28.359375 "/></g></g><g style="fill:#2196f3;fill-opacity:1;"><g transform="translate(72.238927, 116.481745)"><path style="stroke:none" d="M 68.953125 -49.265625 C 68.953125 -47.148438 68.378906 -45.476562 67.234375 -44.25 C 66.097656 -43.03125 64.550781 -42.21875 62.59375 -41.8125 C 58.757812 -40.914062 55.007812 -40.304688 51.34375 -39.984375 C 51.019531 -36.796875 50.734375 -33.632812 50.484375 -30.5 C 50.242188 -27.363281 50 -24.25 49.75 -21.15625 C 49.59375 -19.6875 49.429688 -17.664062 49.265625 -15.09375 C 49.109375 -12.53125 48.722656 -10.023438 48.109375 -7.578125 C 47.492188 -5.128906 46.59375 -2.988281 45.40625 -1.15625 C 44.226562 0.675781 42.625 1.59375 40.59375 1.59375 C 38.632812 1.59375 37.101562 0.738281 36 -0.96875 C 34.90625 -2.6875 34.070312 -4.6875 33.5 -6.96875 C 32.925781 -9.25 32.554688 -11.550781 32.390625 -13.875 C 32.234375 -16.195312 32.15625 -18.007812 32.15625 -19.3125 C 32.15625 -22.65625 32.253906 -25.9375 32.453125 -29.15625 C 32.660156 -32.375 32.847656 -35.613281 33.015625 -38.875 C 30.890625 -38.707031 28.765625 -38.601562 26.640625 -38.5625 C 24.523438 -38.53125 22.410156 -38.515625 20.296875 -38.515625 C 19.316406 -38.515625 18.09375 -38.53125 16.625 -38.5625 C 15.15625 -38.601562 13.6875 -38.707031 12.21875 -38.875 C 10.757812 -39.039062 9.394531 -39.347656 8.125 -39.796875 C 6.863281 -40.242188 5.945312 -40.914062 5.375 -41.8125 C 4.96875 -42.382812 4.660156 -43.382812 4.453125 -44.8125 C 4.253906 -46.238281 4.09375 -47.785156 3.96875 -49.453125 C 3.851562 -51.117188 3.796875 -52.726562 3.796875 -54.28125 C 3.796875 -55.832031 3.796875 -56.972656 3.796875 -57.703125 C 3.796875 -59.578125 3.796875 -61.410156 3.796875 -63.203125 C 3.796875 -64.992188 3.875 -66.828125 4.03125 -68.703125 C 4.113281 -70.492188 4.210938 -72.632812 4.328125 -75.125 C 4.453125 -77.613281 4.863281 -80 5.5625 -82.28125 C 6.257812 -84.5625 7.28125 -86.515625 8.625 -88.140625 C 9.96875 -89.773438 11.898438 -90.59375 14.421875 -90.59375 C 15.972656 -90.59375 17.21875 -89.859375 18.15625 -88.390625 C 19.09375 -86.921875 19.828125 -85.207031 20.359375 -83.25 C 20.890625 -81.300781 21.234375 -79.328125 21.390625 -77.328125 C 21.554688 -75.328125 21.640625 -73.796875 21.640625 -72.734375 C 21.640625 -70.296875 21.535156 -67.851562 21.328125 -65.40625 C 21.128906 -62.957031 20.828125 -60.550781 20.421875 -58.1875 C 22.785156 -58.351562 25.128906 -58.492188 27.453125 -58.609375 C 29.773438 -58.734375 32.113281 -58.878906 34.46875 -59.046875 C 34.550781 -59.859375 34.691406 -61.507812 34.890625 -64 C 35.097656 -66.488281 35.363281 -69.132812 35.6875 -71.9375 C 36.019531 -74.75 36.347656 -77.378906 36.671875 -79.828125 C 37.003906 -82.273438 37.332031 -83.863281 37.65625 -84.59375 C 38.300781 -86.144531 39.316406 -87.429688 40.703125 -88.453125 C 42.085938 -89.472656 43.679688 -89.984375 45.484375 -89.984375 C 47.597656 -89.984375 49.101562 -89.328125 50 -88.015625 C 50.894531 -86.710938 51.503906 -85.164062 51.828125 -83.375 C 52.242188 -81.09375 52.488281 -78.726562 52.5625 -76.28125 C 52.644531 -73.84375 52.6875 -71.441406 52.6875 -69.078125 C 52.6875 -65.566406 52.566406 -62.0625 52.328125 -58.5625 C 54.117188 -58.394531 55.867188 -58.1875 57.578125 -57.9375 C 59.296875 -57.695312 61.050781 -57.375 62.84375 -56.96875 C 64.789062 -56.5625 66.296875 -55.664062 67.359375 -54.28125 C 68.421875 -52.894531 68.953125 -51.222656 68.953125 -49.265625 Z M 68.953125 -49.265625 "/></g></g></g></svg>