<svg xmlns="http://www.w3.org/2000/svg" xmlns:xlink="http://www.w3.org/1999/xlink" width="200" zoomAndPan="magnify" viewBox="0 0 150 149.999998" height="200" preserveAspectRatio="xMidYMid meet" version="1.2"><defs/><g id="ac2bb30f72"><g style="fill:#2196f3;fill-opacity:1;"><g transform="translate(10.324219, 116.481745)"><path style="stroke:none" d="M 61.859375 -28.609375 C 61.859375 -23.796875 61.101562 -19.515625 59.59375 -15.765625 C 58.09375 -12.015625 55.972656 -8.835938 53.234375 -6.234375 C 50.503906 -3.628906 47.242188 -1.632812 43.453125 -0.25 C 39.671875 1.132812 35.457031 1.828125 30.8125 1.828125 C 28.28125 1.828125 25.484375 1.378906 22.421875 0.484375 C 19.367188 -0.410156 16.5 -1.710938 13.8125 -3.421875 C 11.125 -5.128906 8.882812 -7.1875 7.09375 -9.59375 C 5.300781 -12 4.40625 -14.671875 4.40625 -17.609375 C 4.40625 -19.722656 5.054688 -21.429688 6.359375 -22.734375 C 7.660156 -24.035156 9.367188 -24.6875 11.484375 -24.6875 C 13.523438 -24.6875 15.238281 -24.28125 16.625 -23.46875 C 18.007812 -22.65625 19.375 -21.738281 20.71875 -20.71875 C 22.0625 -19.695312 23.585938 -18.78125 25.296875 -17.96875 C 27.015625 -17.15625 29.21875 -16.75 31.90625 -16.75 C 35.164062 -16.75 37.8125 -17.890625 39.84375 -20.171875 C 41.882812 -22.453125 42.90625 -25.179688 42.90625 -28.359375 C 42.90625 -31.378906 42.210938 -33.988281 40.828125 -36.1875 C 39.441406 -38.382812 37.160156 -39.484375 33.984375 -39.484375 C 32.515625 -39.484375 31.1875 -39.320312 30 -39 C 28.820312 -38.675781 27.679688 -38.304688 26.578125 -37.890625 C 25.484375 -37.484375 24.382812 -37.097656 23.28125 -36.734375 C 22.1875 -36.367188 21.066406 -36.101562 19.921875 -35.9375 C 19.023438 -35.78125 17.882812 -35.84375 16.5 -36.125 C 15.113281 -36.40625 13.707031 -36.832031 12.28125 -37.40625 C 10.851562 -37.976562 9.566406 -38.648438 8.421875 -39.421875 C 7.285156 -40.203125 6.554688 -41.039062 6.234375 -41.9375 C 5.992188 -42.664062 5.769531 -44.253906 5.5625 -46.703125 C 5.351562 -49.148438 5.1875 -51.796875 5.0625 -54.640625 C 4.945312 -57.492188 4.867188 -60.203125 4.828125 -62.765625 C 4.785156 -65.335938 4.765625 -67.113281 4.765625 -68.09375 C 4.765625 -68.75 4.765625 -69.804688 4.765625 -71.265625 C 4.765625 -72.734375 4.828125 -74.265625 4.953125 -75.859375 C 5.078125 -77.453125 5.21875 -78.941406 5.375 -80.328125 C 5.539062 -81.710938 5.828125 -82.644531 6.234375 -83.125 C 6.722656 -83.863281 7.925781 -84.554688 9.84375 -85.203125 C 11.757812 -85.859375 14 -86.472656 16.5625 -87.046875 C 19.132812 -87.617188 21.925781 -88.128906 24.9375 -88.578125 C 27.957031 -89.023438 30.832031 -89.410156 33.5625 -89.734375 C 36.289062 -90.054688 38.773438 -90.300781 41.015625 -90.46875 C 43.253906 -90.632812 44.863281 -90.71875 45.84375 -90.71875 C 46.988281 -90.71875 48.191406 -90.570312 49.453125 -90.28125 C 50.710938 -90 51.851562 -89.550781 52.875 -88.9375 C 53.894531 -88.320312 54.726562 -87.523438 55.375 -86.546875 C 56.03125 -85.578125 56.359375 -84.398438 56.359375 -83.015625 C 56.359375 -80.804688 55.582031 -79.050781 54.03125 -77.75 C 52.488281 -76.445312 50.78125 -75.46875 48.90625 -74.8125 C 47.4375 -74.320312 45.640625 -73.914062 43.515625 -73.59375 C 41.398438 -73.269531 39.238281 -72.960938 37.03125 -72.671875 C 34.832031 -72.390625 32.691406 -72.164062 30.609375 -72 C 28.535156 -71.84375 26.726562 -71.722656 25.1875 -71.640625 L 25.421875 -53.90625 C 27.054688 -54.238281 28.6875 -54.503906 30.3125 -54.703125 C 31.945312 -54.910156 33.617188 -55.015625 35.328125 -55.015625 C 43.972656 -55.015625 50.554688 -52.769531 55.078125 -48.28125 C 59.597656 -43.800781 61.859375 -37.242188 61.859375 -28.609375 Z M 61.859375 -28.609375 "/></g></g><g style="fill:#2196f3;fill-opacity:1;"><g transform="translate(74.6255, 116.481745)"><path style="stroke:none" d="M 63.203125 -56.484375 C 63.203125 -53.222656 62.648438 -49.472656 61.546875 -45.234375 C 60.453125 -40.992188 58.945312 -36.671875 57.03125 -32.265625 C 55.113281 -27.867188 52.867188 -23.550781 50.296875 -19.3125 C 47.734375 -15.070312 44.921875 -11.28125 41.859375 -7.9375 C 38.804688 -4.601562 35.628906 -1.921875 32.328125 0.109375 C 29.035156 2.148438 25.71875 3.171875 22.375 3.171875 C 20.582031 3.171875 18.972656 2.617188 17.546875 1.515625 C 16.117188 0.421875 15.40625 -1.101562 15.40625 -3.0625 C 15.40625 -3.957031 15.546875 -4.707031 15.828125 -5.3125 C 16.117188 -5.925781 16.507812 -6.5625 17 -7.21875 C 18.789062 -9.5 20.625 -11.59375 22.5 -13.5 C 24.375 -15.414062 26.226562 -17.332031 28.0625 -19.25 C 29.894531 -21.164062 31.664062 -23.179688 33.375 -25.296875 C 35.082031 -27.421875 36.628906 -29.867188 38.015625 -32.640625 C 35.328125 -31.910156 32.554688 -31.546875 29.703125 -31.546875 C 25.628906 -31.546875 21.941406 -32.175781 18.640625 -33.4375 C 15.335938 -34.695312 12.546875 -36.507812 10.265625 -38.875 C 7.984375 -41.238281 6.226562 -44.070312 5 -47.375 C 3.78125 -50.675781 3.171875 -54.363281 3.171875 -58.4375 C 3.171875 -63 3.882812 -67.195312 5.3125 -71.03125 C 6.738281 -74.863281 8.773438 -78.179688 11.421875 -80.984375 C 14.078125 -83.796875 17.257812 -86 20.96875 -87.59375 C 24.675781 -89.1875 28.851562 -89.984375 33.5 -89.984375 C 38.382812 -89.984375 42.679688 -89.101562 46.390625 -87.34375 C 50.097656 -85.59375 53.195312 -83.1875 55.6875 -80.125 C 58.175781 -77.070312 60.050781 -73.507812 61.3125 -69.4375 C 62.570312 -65.363281 63.203125 -61.046875 63.203125 -56.484375 Z M 46.953125 -58.6875 C 46.953125 -60.632812 46.6875 -62.546875 46.15625 -64.421875 C 45.625 -66.296875 44.828125 -67.96875 43.765625 -69.4375 C 42.703125 -70.90625 41.375 -72.085938 39.78125 -72.984375 C 38.195312 -73.878906 36.304688 -74.328125 34.109375 -74.328125 C 29.703125 -74.328125 26.21875 -72.960938 23.65625 -70.234375 C 21.09375 -67.503906 19.8125 -63.9375 19.8125 -59.53125 C 19.8125 -55.300781 20.972656 -52.0625 23.296875 -49.8125 C 25.617188 -47.570312 28.859375 -46.453125 33.015625 -46.453125 C 37.328125 -46.453125 40.726562 -47.390625 43.21875 -49.265625 C 45.707031 -51.140625 46.953125 -54.28125 46.953125 -58.6875 Z M 46.953125 -58.6875 "/></g></g></g></svg>