<svg xmlns="http://www.w3.org/2000/svg" xmlns:xlink="http://www.w3.org/1999/xlink" width="200" zoomAndPan="magnify" viewBox="0 0 150 149.999998" height="200" preserveAspectRatio="xMidYMid meet" version="1.2"><defs/><g id="108c05f035"><g style="fill:#2196f3;fill-opacity:1;"><g transform="translate(19.5, 116.481745)"><path style="stroke:none" d="M 26.890625 -60.265625 C 26.890625 -57.742188 26.847656 -55.21875 26.765625 -52.6875 C 26.691406 -50.164062 26.613281 -47.640625 26.53125 -45.109375 C 26.363281 -40.953125 26.28125 -36.816406 26.28125 -32.703125 C 26.28125 -28.585938 26.160156 -24.453125 25.921875 -20.296875 C 25.835938 -18.910156 25.753906 -17.054688 25.671875 -14.734375 C 25.585938 -12.410156 25.28125 -10.125 24.75 -7.875 C 24.226562 -5.632812 23.394531 -3.679688 22.25 -2.015625 C 21.101562 -0.347656 19.515625 0.484375 17.484375 0.484375 C 15.523438 0.484375 13.929688 -0.1875 12.703125 -1.53125 C 11.484375 -2.875 10.523438 -4.582031 9.828125 -6.65625 C 9.140625 -8.738281 8.671875 -11.0625 8.421875 -13.625 C 8.179688 -16.195312 8.039062 -18.722656 8 -21.203125 C 7.96875 -23.691406 7.988281 -25.992188 8.0625 -28.109375 C 8.144531 -30.234375 8.1875 -31.867188 8.1875 -33.015625 C 8.1875 -38.554688 8.207031 -44.097656 8.25 -49.640625 C 8.289062 -55.179688 8.351562 -60.722656 8.4375 -66.265625 C 6.800781 -67.648438 5.515625 -69.335938 4.578125 -71.328125 C 3.640625 -73.328125 3.171875 -75.390625 3.171875 -77.515625 C 3.171875 -80.847656 4.171875 -83.695312 6.171875 -86.0625 C 8.171875 -88.425781 10.921875 -89.609375 14.421875 -89.609375 C 17.441406 -89.609375 19.804688 -88.46875 21.515625 -86.1875 C 23.222656 -83.90625 24.460938 -81.175781 25.234375 -78 C 26.015625 -74.820312 26.484375 -71.582031 26.640625 -68.28125 C 26.804688 -64.976562 26.890625 -62.304688 26.890625 -60.265625 Z M 26.890625 -60.265625 "/></g></g><g style="fill:#2196f3;fill-opacity:1;"><g transform="translate(53.239836, 116.481745)"><path style="stroke:none" d="M 74.703125 -42.421875 C 74.703125 -36.878906 73.863281 -31.316406 72.1875 -25.734375 C 70.519531 -20.148438 68.078125 -15.097656 64.859375 -10.578125 C 61.640625 -6.054688 57.625 -2.390625 52.8125 0.421875 C 48 3.234375 42.457031 4.640625 36.1875 4.640625 C 30.882812 4.640625 26.113281 3.253906 21.875 0.484375 C 17.644531 -2.285156 14.039062 -5.804688 11.0625 -10.078125 C 8.09375 -14.359375 5.8125 -19.046875 4.21875 -24.140625 C 2.625 -29.234375 1.828125 -34.144531 1.828125 -38.875 C 1.828125 -42.21875 2.273438 -45.722656 3.171875 -49.390625 C 4.066406 -53.054688 5.347656 -56.679688 7.015625 -60.265625 C 8.691406 -63.859375 10.691406 -67.300781 13.015625 -70.59375 C 15.335938 -73.894531 17.945312 -76.789062 20.84375 -79.28125 C 23.738281 -81.769531 26.875 -83.742188 30.25 -85.203125 C 33.632812 -86.671875 37.160156 -87.40625 40.828125 -87.40625 C 47.109375 -87.40625 52.40625 -86.0625 56.71875 -83.375 C 61.039062 -80.6875 64.523438 -77.203125 67.171875 -72.921875 C 69.828125 -68.640625 71.742188 -63.828125 72.921875 -58.484375 C 74.109375 -53.148438 74.703125 -47.796875 74.703125 -42.421875 Z M 56.96875 -43.03125 C 56.96875 -45.070312 56.679688 -47.476562 56.109375 -50.25 C 55.546875 -53.019531 54.671875 -55.625 53.484375 -58.0625 C 52.304688 -60.507812 50.78125 -62.585938 48.90625 -64.296875 C 47.03125 -66.015625 44.785156 -66.875 42.171875 -66.875 C 38.992188 -66.875 36.160156 -65.875 33.671875 -63.875 C 31.191406 -61.875 29.09375 -59.40625 27.375 -56.46875 C 25.664062 -53.539062 24.34375 -50.40625 23.40625 -47.0625 C 22.46875 -43.726562 22 -40.710938 22 -38.015625 C 22 -35.898438 22.285156 -33.5 22.859375 -30.8125 C 23.429688 -28.125 24.328125 -25.578125 25.546875 -23.171875 C 26.773438 -20.765625 28.34375 -18.722656 30.25 -17.046875 C 32.164062 -15.378906 34.429688 -14.546875 37.046875 -14.546875 C 40.222656 -14.546875 43.050781 -15.539062 45.53125 -17.53125 C 48.019531 -19.53125 50.097656 -21.976562 51.765625 -24.875 C 53.441406 -27.769531 54.726562 -30.867188 55.625 -34.171875 C 56.519531 -37.472656 56.96875 -40.425781 56.96875 -43.03125 Z M 56.96875 -43.03125 "/></g></g></g></svg>