<svg xmlns="http://www.w3.org/2000/svg" xmlns:xlink="http://www.w3.org/1999/xlink" width="200" zoomAndPan="magnify" viewBox="0 0 150 149.999998" height="200" preserveAspectRatio="xMidYMid meet" version="1.2"><defs/><g id="a9fee2c597"><g style="fill:#2196f3;fill-opacity:1;"><g transform="translate(4.88672, 116.481745)"><path style="stroke:none" d="M 62.953125 -26.65625 C 62.953125 -21.925781 62.117188 -17.765625 60.453125 -14.171875 C 58.785156 -10.585938 56.523438 -7.613281 53.671875 -5.25 C 50.816406 -2.894531 47.453125 -1.109375 43.578125 0.109375 C 39.710938 1.335938 35.535156 1.953125 31.046875 1.953125 C 25.992188 1.953125 21.613281 0.9375 17.90625 -1.09375 C 14.195312 -3.132812 11.160156 -5.84375 8.796875 -9.21875 C 6.429688 -12.601562 4.675781 -16.4375 3.53125 -20.71875 C 2.394531 -25 1.828125 -29.421875 1.828125 -33.984375 C 1.828125 -37.242188 2.394531 -40.910156 3.53125 -44.984375 C 4.675781 -49.066406 6.269531 -53.203125 8.3125 -57.390625 C 10.351562 -61.585938 12.71875 -65.660156 15.40625 -69.609375 C 18.09375 -73.566406 20.984375 -77.09375 24.078125 -80.1875 C 27.179688 -83.289062 30.421875 -85.78125 33.796875 -87.65625 C 37.179688 -89.53125 40.503906 -90.46875 43.765625 -90.46875 C 45.640625 -90.46875 47.332031 -89.957031 48.84375 -88.9375 C 50.351562 -87.914062 51.109375 -86.390625 51.109375 -84.359375 C 51.109375 -83.210938 50.617188 -81.988281 49.640625 -80.6875 C 48.660156 -79.382812 47.5 -78.097656 46.15625 -76.828125 C 44.8125 -75.566406 43.425781 -74.34375 42 -73.15625 C 40.570312 -71.976562 39.445312 -70.898438 38.625 -69.921875 C 36.75 -67.804688 35.015625 -65.546875 33.421875 -63.140625 C 31.835938 -60.734375 30.476562 -58.226562 29.34375 -55.625 C 30.5625 -56.03125 31.820312 -56.332031 33.125 -56.53125 C 34.4375 -56.738281 35.742188 -56.84375 37.046875 -56.84375 C 41.203125 -56.84375 44.890625 -55.988281 48.109375 -54.28125 C 51.328125 -52.570312 54.035156 -50.3125 56.234375 -47.5 C 58.429688 -44.6875 60.097656 -41.460938 61.234375 -37.828125 C 62.378906 -34.203125 62.953125 -30.476562 62.953125 -26.65625 Z M 45.84375 -26.53125 C 45.84375 -30.851562 44.519531 -34.175781 41.875 -36.5 C 39.226562 -38.820312 35.820312 -39.984375 31.65625 -39.984375 C 30.269531 -39.984375 28.679688 -39.773438 26.890625 -39.359375 C 25.097656 -38.953125 23.550781 -38.34375 22.25 -37.53125 C 21.757812 -37.207031 21.472656 -36.597656 21.390625 -35.703125 C 21.304688 -34.804688 21.265625 -34.070312 21.265625 -33.5 C 21.265625 -31.625 21.53125 -29.644531 22.0625 -27.5625 C 22.59375 -25.488281 23.390625 -23.554688 24.453125 -21.765625 C 25.515625 -19.972656 26.859375 -18.503906 28.484375 -17.359375 C 30.117188 -16.222656 32.035156 -15.65625 34.234375 -15.65625 C 37.578125 -15.65625 40.347656 -16.585938 42.546875 -18.453125 C 44.742188 -20.328125 45.84375 -23.019531 45.84375 -26.53125 Z M 45.84375 -26.53125 "/></g></g><g style="fill:#2196f3;fill-opacity:1;"><g transform="translate(71.021687, 116.481745)"><path style="stroke:none" d="M 71.640625 -22.609375 C 71.640625 -17.554688 70.414062 -13.195312 67.96875 -9.53125 C 65.53125 -5.863281 62.414062 -2.847656 58.625 -0.484375 C 54.832031 1.878906 50.632812 3.628906 46.03125 4.765625 C 41.425781 5.910156 36.921875 6.484375 32.515625 6.484375 C 29.253906 6.484375 25.789062 6.015625 22.125 5.078125 C 18.457031 4.140625 15.070312 2.710938 11.96875 0.796875 C 8.875 -1.117188 6.304688 -3.539062 4.265625 -6.46875 C 2.234375 -9.40625 1.21875 -12.832031 1.21875 -16.75 C 1.21875 -19.925781 1.75 -22.921875 2.8125 -25.734375 C 3.875 -28.546875 5.320312 -31.15625 7.15625 -33.5625 C 8.988281 -35.96875 11.101562 -38.101562 13.5 -39.96875 C 15.90625 -41.84375 18.457031 -43.472656 21.15625 -44.859375 C 19.113281 -45.515625 17.132812 -46.453125 15.21875 -47.671875 C 13.300781 -48.898438 11.609375 -50.328125 10.140625 -51.953125 C 8.679688 -53.585938 7.5 -55.421875 6.59375 -57.453125 C 5.695312 -59.492188 5.25 -61.65625 5.25 -63.9375 C 5.25 -68.414062 6.453125 -72.304688 8.859375 -75.609375 C 11.265625 -78.910156 14.300781 -81.617188 17.96875 -83.734375 C 21.632812 -85.859375 25.609375 -87.429688 29.890625 -88.453125 C 34.171875 -89.472656 38.1875 -89.984375 41.9375 -89.984375 C 44.789062 -89.984375 47.679688 -89.65625 50.609375 -89 C 53.546875 -88.34375 56.21875 -87.28125 58.625 -85.8125 C 61.03125 -84.351562 63.003906 -82.441406 64.546875 -80.078125 C 66.097656 -77.710938 66.875 -74.859375 66.875 -71.515625 C 66.875 -66.296875 65.382812 -61.707031 62.40625 -57.75 C 59.4375 -53.800781 55.75 -50.609375 51.34375 -48.171875 C 54.195312 -47.429688 56.863281 -46.242188 59.34375 -44.609375 C 61.832031 -42.984375 63.992188 -41.050781 65.828125 -38.8125 C 67.660156 -36.570312 69.085938 -34.066406 70.109375 -31.296875 C 71.128906 -28.523438 71.640625 -25.628906 71.640625 -22.609375 Z M 48.296875 -68.703125 C 48.296875 -69.679688 47.988281 -70.457031 47.375 -71.03125 C 46.757812 -71.601562 46.023438 -72.070312 45.171875 -72.4375 C 44.316406 -72.800781 43.421875 -73.046875 42.484375 -73.171875 C 41.546875 -73.296875 40.75 -73.359375 40.09375 -73.359375 C 39.113281 -73.359375 37.847656 -73.234375 36.296875 -72.984375 C 34.753906 -72.742188 33.25 -72.335938 31.78125 -71.765625 C 30.3125 -71.191406 29.046875 -70.4375 27.984375 -69.5 C 26.929688 -68.5625 26.40625 -67.441406 26.40625 -66.140625 C 26.40625 -64.753906 26.769531 -63.550781 27.5 -62.53125 C 28.238281 -61.507812 29.15625 -60.628906 30.25 -59.890625 C 31.351562 -59.160156 32.535156 -58.613281 33.796875 -58.25 C 35.066406 -57.882812 36.269531 -57.660156 37.40625 -57.578125 C 38.21875 -58.066406 39.234375 -58.695312 40.453125 -59.46875 C 41.679688 -60.25 42.882812 -61.144531 44.0625 -62.15625 C 45.25 -63.175781 46.25 -64.238281 47.0625 -65.34375 C 47.882812 -66.445312 48.296875 -67.566406 48.296875 -68.703125 Z M 51.59375 -21.890625 C 51.59375 -23.835938 51.144531 -25.601562 50.25 -27.1875 C 49.351562 -28.78125 48.191406 -30.148438 46.765625 -31.296875 C 45.335938 -32.441406 43.742188 -33.398438 41.984375 -34.171875 C 40.234375 -34.941406 38.503906 -35.488281 36.796875 -35.8125 C 35.171875 -35.082031 33.457031 -34.164062 31.65625 -33.0625 C 29.863281 -31.96875 28.210938 -30.6875 26.703125 -29.21875 C 25.203125 -27.75 23.960938 -26.140625 22.984375 -24.390625 C 22.003906 -22.640625 21.515625 -20.742188 21.515625 -18.703125 C 21.515625 -17.234375 22.039062 -16.007812 23.09375 -15.03125 C 24.15625 -14.050781 25.421875 -13.273438 26.890625 -12.703125 C 28.359375 -12.140625 29.882812 -11.734375 31.46875 -11.484375 C 33.0625 -11.242188 34.390625 -11.125 35.453125 -11.125 C 37.085938 -11.125 38.859375 -11.304688 40.765625 -11.671875 C 42.679688 -12.035156 44.429688 -12.644531 46.015625 -13.5 C 47.609375 -14.363281 48.9375 -15.488281 50 -16.875 C 51.0625 -18.257812 51.59375 -19.929688 51.59375 -21.890625 Z M 51.59375 -21.890625 "/></g></g></g></svg>