<svg xmlns="http://www.w3.org/2000/svg" xmlns:xlink="http://www.w3.org/1999/xlink" width="200" zoomAndPan="magnify" viewBox="0 0 150 149.999998" height="200" preserveAspectRatio="xMidYMid meet" version="1.2"><defs/><g id="58490fae19"><g style="fill:#2196f3;fill-opacity:1;"><g transform="translate(24.878906, 116.481745)"><path style="stroke:none" d="M 26.890625 -60.265625 C 26.890625 -57.742188 26.847656 -55.21875 26.765625 -52.6875 C 26.691406 -50.164062 26.613281 -47.640625 26.53125 -45.109375 C 26.363281 -40.953125 26.28125 -36.816406 26.28125 -32.703125 C 26.28125 -28.585938 26.160156 -24.453125 25.921875 -20.296875 C 25.835938 -18.910156 25.753906 -17.054688 25.671875 -14.734375 C 25.585938 -12.410156 25.28125 -10.125 24.75 -7.875 C 24.226562 -5.632812 23.394531 -3.679688 22.25 -2.015625 C 21.101562 -0.347656 19.515625 0.484375 17.484375 0.484375 C 15.523438 0.484375 13.929688 -0.1875 12.703125 -1.53125 C 11.484375 -2.875 10.523438 -4.582031 9.828125 -6.65625 C 9.140625 -8.738281 8.671875 -11.0625 8.421875 -13.625 C 8.179688 -16.195312 8.039062 -18.722656 8 -21.203125 C 7.96875 -23.691406 7.988281 -25.992188 8.0625 -28.109375 C 8.144531 -30.234375 8.1875 -31.867188 8.1875 -33.015625 C 8.1875 -38.554688 8.207031 -44.097656 8.25 -49.640625 C 8.289062 -55.179688 8.351562 -60.722656 8.4375 -66.265625 C 6.800781 -67.648438 5.515625 -69.335938 4.578125 -71.328125 C 3.640625 -73.328125 3.171875 -75.390625 3.171875 -77.515625 C 3.171875 -80.847656 4.171875 -83.695312 6.171875 -86.0625 C 8.171875 -88.425781 10.921875 -89.609375 14.421875 -89.609375 C 17.441406 -89.609375 19.804688 -88.46875 21.515625 -86.1875 C 23.222656 -83.90625 24.460938 -81.175781 25.234375 -78 C 26.015625 -74.820312 26.484375 -71.582031 26.640625 -68.28125 C 26.804688 -64.976562 26.890625 -62.304688 26.890625 -60.265625 Z M 26.890625 -60.265625 "/></g></g><g style="fill:#2196f3;fill-opacity:1;"><g transform="translate(58.618742, 116.481745)"><path style="stroke:none" d="M 68.953125 -49.265625 C 68.953125 -47.148438 68.378906 -45.476562 67.234375 -44.25 C 66.097656 -43.03125 64.550781 -42.21875 62.59375 -41.8125 C 58.757812 -40.914062 55.007812 -40.304688 51.34375 -39.984375 C 51.019531 -36.796875 50.734375 -33.632812 50.484375 -30.5 C 50.242188 -27.363281 50 -24.25 49.75 -21.15625 C 49.59375 -19.6875 49.429688 -17.664062 49.265625 -15.09375 C 49.109375 -12.53125 48.722656 -10.023438 48.109375 -7.578125 C 47.492188 -5.128906 46.59375 -2.988281 45.40625 -1.15625 C 44.226562 0.675781 42.625 1.59375 40.59375 1.59375 C 38.632812 1.59375 37.101562 0.738281 36 -0.96875 C 34.90625 -2.6875 34.070312 -4.6875 33.5 -6.96875 C 32.925781 -9.25 32.554688 -11.550781 32.390625 -13.875 C 32.234375 -16.195312 32.15625 -18.007812 32.15625 -19.3125 C 32.15625 -22.65625 32.253906 -25.9375 32.453125 -29.15625 C 32.660156 -32.375 32.847656 -35.613281 33.015625 -38.875 C 30.890625 -38.707031 28.765625 -38.601562 26.640625 -38.5625 C 24.523438 -38.53125 22.410156 -38.515625 20.296875 -38.515625 C 19.316406 -38.515625 18.09375 -38.53125 16.625 -38.5625 C 15.15625 -38.601562 13.6875 -38.707031 12.21875 -38.875 C 10.757812 -39.039062 9.394531 -39.347656 8.125 -39.796875 C 6.863281 -40.242188 5.945312 -40.914062 5.375 -41.8125 C 4.96875 -42.382812 4.660156 -43.382812 4.453125 -44.8125 C 4.253906 -46.238281 4.09375 -47.785156 3.96875 -49.453125 C 3.851562 -51.117188 3.796875 -52.726562 3.796875 -54.28125 C 3.796875 -55.832031 3.796875 -56.972656 3.796875 -57.703125 C 3.796875 -59.578125 3.796875 -61.410156 3.796875 -63.203125 C 3.796875 -64.992188 3.875 -66.828125 4.03125 -68.703125 C 4.113281 -70.492188 4.210938 -72.632812 4.328125 -75.125 C 4.453125 -77.613281 4.863281 -80 5.5625 -82.28125 C 6.257812 -84.5625 7.28125 -86.515625 8.625 -88.140625 C 9.96875 -89.773438 11.898438 -90.59375 14.421875 -90.59375 C 15.972656 -90.59375 17.21875 -89.859375 18.15625 -88.390625 C 19.09375 -86.921875 19.828125 -85.207031 20.359375 -83.25 C 20.890625 -81.300781 21.234375 -79.328125 21.390625 -77.328125 C 21.554688 -75.328125 21.640625 -73.796875 21.640625 -72.734375 C 21.640625 -70.296875 21.535156 -67.851562 21.328125 -65.40625 C 21.128906 -62.957031 20.828125 -60.550781 20.421875 -58.1875 C 22.785156 -58.351562 25.128906 -58.492188 27.453125 -58.609375 C 29.773438 -58.734375 32.113281 -58.878906 34.46875 -59.046875 C 34.550781 -59.859375 34.691406 -61.507812 34.890625 -64 C 35.097656 -66.488281 35.363281 -69.132812 35.6875 -71.9375 C 36.019531 -74.75 36.347656 -77.378906 36.671875 -79.828125 C 37.003906 -82.273438 37.332031 -83.863281 37.65625 -84.59375 C 38.300781 -86.144531 39.316406 -87.429688 40.703125 -88.453125 C 42.085938 -89.472656 43.679688 -89.984375 45.484375 -89.984375 C 47.597656 -89.984375 49.101562 -89.328125 50 -88.015625 C 50.894531 -86.710938 51.503906 -85.164062 51.828125 -83.375 C 52.242188 -81.09375 52.488281 -78.726562 52.5625 -76.28125 C 52.644531 -73.84375 52.6875 -71.441406 52.6875 -69.078125 C 52.6875 -65.566406 52.566406 -62.0625 52.328125 -58.5625 C 54.117188 -58.394531 55.867188 -58.1875 57.578125 -57.9375 C 59.296875 -57.695312 61.050781 -57.375 62.84375 -56.96875 C 64.789062 -56.5625 66.296875 -55.664062 67.359375 -54.28125 C 68.421875 -52.894531 68.953125 -51.222656 68.953125 -49.265625 Z M 68.953125 -49.265625 "/></g></g></g></svg>