<svg xmlns="http://www.w3.org/2000/svg" xmlns:xlink="http://www.w3.org/1999/xlink" width="200" zoomAndPan="magnify" viewBox="0 0 150 149.999998" height="200" preserveAspectRatio="xMidYMid meet" version="1.2"><defs/><g id="a59e3500f5"><g style="fill:#2196f3;fill-opacity:1;"><g transform="translate(26.402343, 116.481745)"><path style="stroke:none" d="M 61 -11.25 C 61 -8.882812 60.222656 -6.96875 58.671875 -5.5 C 57.128906 -4.03125 55.257812 -3.09375 53.0625 -2.6875 C 50.613281 -2.113281 47.835938 -1.601562 44.734375 -1.15625 C 41.640625 -0.707031 38.484375 -0.320312 35.265625 0 C 32.046875 0.320312 28.890625 0.566406 25.796875 0.734375 C 22.703125 0.898438 19.890625 0.984375 17.359375 0.984375 C 16.703125 0.984375 15.785156 0.960938 14.609375 0.921875 C 13.429688 0.878906 12.207031 0.796875 10.9375 0.671875 C 9.675781 0.546875 8.492188 0.359375 7.390625 0.109375 C 6.296875 -0.128906 5.460938 -0.453125 4.890625 -0.859375 C 4.316406 -1.347656 3.804688 -2.019531 3.359375 -2.875 C 2.910156 -3.726562 2.523438 -4.664062 2.203125 -5.6875 C 1.878906 -6.707031 1.632812 -7.703125 1.46875 -8.671875 C 1.300781 -9.648438 1.21875 -10.507812 1.21875 -11.25 C 1.21875 -12.382812 1.359375 -13.421875 1.640625 -14.359375 C 1.929688 -15.296875 2.484375 -16.175781 3.296875 -17 C 4.273438 -18.050781 5.296875 -19.085938 6.359375 -20.109375 C 7.421875 -21.128906 8.4375 -22.128906 9.40625 -23.109375 C 10.550781 -24.328125 12.0625 -25.9375 13.9375 -27.9375 C 15.8125 -29.9375 17.828125 -32.175781 19.984375 -34.65625 C 22.148438 -37.144531 24.3125 -39.753906 26.46875 -42.484375 C 28.625 -45.210938 30.597656 -47.878906 32.390625 -50.484375 C 34.191406 -53.097656 35.640625 -55.546875 36.734375 -57.828125 C 37.835938 -60.109375 38.390625 -62.0625 38.390625 -63.6875 C 38.390625 -65.238281 37.941406 -66.523438 37.046875 -67.546875 C 36.148438 -68.566406 34.925781 -69.078125 33.375 -69.078125 C 31.664062 -69.078125 30.078125 -68.460938 28.609375 -67.234375 C 27.140625 -66.015625 25.671875 -64.691406 24.203125 -63.265625 C 22.734375 -61.835938 21.164062 -60.507812 19.5 -59.28125 C 17.832031 -58.0625 15.9375 -57.453125 13.8125 -57.453125 C 11.289062 -57.453125 9.316406 -58.1875 7.890625 -59.65625 C 6.460938 -61.125 5.75 -63.082031 5.75 -65.53125 C 5.75 -69.113281 6.539062 -72.429688 8.125 -75.484375 C 9.71875 -78.546875 11.816406 -81.175781 14.421875 -83.375 C 17.035156 -85.570312 19.972656 -87.300781 23.234375 -88.5625 C 26.492188 -89.832031 29.832031 -90.46875 33.25 -90.46875 C 36.757812 -90.46875 40.019531 -90.054688 43.03125 -89.234375 C 46.050781 -88.421875 48.660156 -87.160156 50.859375 -85.453125 C 53.054688 -83.742188 54.785156 -81.5625 56.046875 -78.90625 C 57.316406 -76.257812 57.953125 -73.0625 57.953125 -69.3125 C 57.953125 -66.382812 57.441406 -63.3125 56.421875 -60.09375 C 55.398438 -56.875 54.050781 -53.632812 52.375 -50.375 C 50.707031 -47.113281 48.796875 -43.867188 46.640625 -40.640625 C 44.484375 -37.421875 42.257812 -34.34375 39.96875 -31.40625 C 37.6875 -28.476562 35.40625 -25.75 33.125 -23.21875 C 30.84375 -20.695312 28.765625 -18.5 26.890625 -16.625 C 30.890625 -17.113281 35.085938 -17.601562 39.484375 -18.09375 C 43.890625 -18.582031 48.128906 -18.828125 52.203125 -18.828125 C 54.566406 -18.828125 56.625 -18.191406 58.375 -16.921875 C 60.125 -15.660156 61 -13.769531 61 -11.25 Z M 61 -11.25 "/></g></g><g style="fill:#2196f3;fill-opacity:1;"><g transform="translate(89.847904, 116.481745)"><path style="stroke:none" d="M 26.890625 -60.265625 C 26.890625 -57.742188 26.847656 -55.21875 26.765625 -52.6875 C 26.691406 -50.164062 26.613281 -47.640625 26.53125 -45.109375 C 26.363281 -40.953125 26.28125 -36.816406 26.28125 -32.703125 C 26.28125 -28.585938 26.160156 -24.453125 25.921875 -20.296875 C 25.835938 -18.910156 25.753906 -17.054688 25.671875 -14.734375 C 25.585938 -12.410156 25.28125 -10.125 24.75 -7.875 C 24.226562 -5.632812 23.394531 -3.679688 22.25 -2.015625 C 21.101562 -0.347656 19.515625 0.484375 17.484375 0.484375 C 15.523438 0.484375 13.929688 -0.1875 12.703125 -1.53125 C 11.484375 -2.875 10.523438 -4.582031 9.828125 -6.65625 C 9.140625 -8.738281 8.671875 -11.0625 8.421875 -13.625 C 8.179688 -16.195312 8.039062 -18.722656 8 -21.203125 C 7.96875 -23.691406 7.988281 -25.992188 8.0625 -28.109375 C 8.144531 -30.234375 8.1875 -31.867188 8.1875 -33.015625 C 8.1875 -38.554688 8.207031 -44.097656 8.25 -49.640625 C 8.289062 -55.179688 8.351562 -60.722656 8.4375 -66.265625 C 6.800781 -67.648438 5.515625 -69.335938 4.578125 -71.328125 C 3.640625 -73.328125 3.171875 -75.390625 3.171875 -77.515625 C 3.171875 -80.847656 4.171875 -83.695312 6.171875 -86.0625 C 8.171875 -88.425781 10.921875 -89.609375 14.421875 -89.609375 C 17.441406 -89.609375 19.804688 -88.46875 21.515625 -86.1875 C 23.222656 -83.90625 24.460938 -81.175781 25.234375 -78 C 26.015625 -74.820312 26.484375 -71.582031 26.640625 -68.28125 C 26.804688 -64.976562 26.890625 -62.304688 26.890625 -60.265625 Z M 26.890625 -60.265625 "/></g></g></g></svg>