<svg xmlns="http://www.w3.org/2000/svg" xmlns:xlink="http://www.w3.org/1999/xlink" width="200" zoomAndPan="magnify" viewBox="0 0 150 149.999998" height="200" preserveAspectRatio="xMidYMid meet" version="1.2"><defs/><g id="aa94691034"><g style="fill:#2196f3;fill-opacity:1;"><g transform="translate(9.046876, 116.481745)"><path style="stroke:none" d="M 64.0625 -80.6875 C 64.0625 -79.539062 63.753906 -77.945312 63.140625 -75.90625 C 62.535156 -73.875 61.765625 -71.570312 60.828125 -69 C 59.890625 -66.4375 58.828125 -63.75 57.640625 -60.9375 C 56.460938 -58.125 55.300781 -55.4375 54.15625 -52.875 C 53.019531 -50.3125 51.960938 -47.925781 50.984375 -45.71875 C 50.003906 -43.519531 49.226562 -41.8125 48.65625 -40.59375 C 47.59375 -38.144531 46.242188 -35.066406 44.609375 -31.359375 C 42.984375 -27.648438 41.234375 -23.859375 39.359375 -19.984375 C 37.484375 -16.117188 35.546875 -12.492188 33.546875 -9.109375 C 31.554688 -5.722656 29.707031 -3.09375 28 -1.21875 C 26.28125 0.65625 24.242188 1.59375 21.890625 1.59375 C 20.085938 1.59375 18.578125 1.023438 17.359375 -0.109375 C 16.140625 -1.253906 15.53125 -2.765625 15.53125 -4.640625 C 15.53125 -7.171875 16.078125 -10.1875 17.171875 -13.6875 C 18.273438 -17.195312 19.578125 -20.765625 21.078125 -24.390625 C 22.585938 -28.015625 24.15625 -31.535156 25.78125 -34.953125 C 27.414062 -38.378906 28.804688 -41.316406 29.953125 -43.765625 C 32.066406 -48.578125 34.179688 -53.320312 36.296875 -58 C 38.421875 -62.6875 40.546875 -67.4375 42.671875 -72.25 C 41.523438 -72.414062 40.320312 -72.535156 39.0625 -72.609375 C 37.800781 -72.691406 36.597656 -72.734375 35.453125 -72.734375 C 31.296875 -72.734375 27.035156 -72.425781 22.671875 -71.8125 C 18.316406 -71.207031 14.101562 -70.5 10.03125 -69.6875 C 9.613281 -69.601562 9 -69.5625 8.1875 -69.5625 C 6.3125 -69.5625 4.78125 -70.128906 3.59375 -71.265625 C 2.414062 -72.410156 1.828125 -73.921875 1.828125 -75.796875 C 1.828125 -77.753906 2.5 -79.460938 3.84375 -80.921875 C 5.195312 -82.390625 6.953125 -83.632812 9.109375 -84.65625 C 11.265625 -85.675781 13.664062 -86.507812 16.3125 -87.15625 C 18.96875 -87.8125 21.578125 -88.34375 24.140625 -88.75 C 26.710938 -89.164062 29.097656 -89.429688 31.296875 -89.546875 C 33.492188 -89.671875 35.242188 -89.734375 36.546875 -89.734375 C 37.929688 -89.734375 39.945312 -89.628906 42.59375 -89.421875 C 45.25 -89.222656 47.984375 -88.898438 50.796875 -88.453125 C 53.609375 -88.003906 56.195312 -87.390625 58.5625 -86.609375 C 60.925781 -85.835938 62.515625 -84.84375 63.328125 -83.625 C 63.734375 -83.132812 63.957031 -82.664062 64 -82.21875 C 64.039062 -81.769531 64.0625 -81.257812 64.0625 -80.6875 Z M 64.0625 -80.6875 "/></g></g><g style="fill:#2196f3;fill-opacity:1;"><g transform="translate(74.448369, 116.481745)"><path style="stroke:none" d="M 68.953125 -49.265625 C 68.953125 -47.148438 68.378906 -45.476562 67.234375 -44.25 C 66.097656 -43.03125 64.550781 -42.21875 62.59375 -41.8125 C 58.757812 -40.914062 55.007812 -40.304688 51.34375 -39.984375 C 51.019531 -36.796875 50.734375 -33.632812 50.484375 -30.5 C 50.242188 -27.363281 50 -24.25 49.75 -21.15625 C 49.59375 -19.6875 49.429688 -17.664062 49.265625 -15.09375 C 49.109375 -12.53125 48.722656 -10.023438 48.109375 -7.578125 C 47.492188 -5.128906 46.59375 -2.988281 45.40625 -1.15625 C 44.226562 0.675781 42.625 1.59375 40.59375 1.59375 C 38.632812 1.59375 37.101562 0.738281 36 -0.96875 C 34.90625 -2.6875 34.070312 -4.6875 33.5 -6.96875 C 32.925781 -9.25 32.554688 -11.550781 32.390625 -13.875 C 32.234375 -16.195312 32.15625 -18.007812 32.15625 -19.3125 C 32.15625 -22.65625 32.253906 -25.9375 32.453125 -29.15625 C 32.660156 -32.375 32.847656 -35.613281 33.015625 -38.875 C 30.890625 -38.707031 28.765625 -38.601562 26.640625 -38.5625 C 24.523438 -38.53125 22.410156 -38.515625 20.296875 -38.515625 C 19.316406 -38.515625 18.09375 -38.53125 16.625 -38.5625 C 15.15625 -38.601562 13.6875 -38.707031 12.21875 -38.875 C 10.757812 -39.039062 9.394531 -39.347656 8.125 -39.796875 C 6.863281 -40.242188 5.945312 -40.914062 5.375 -41.8125 C 4.96875 -42.382812 4.660156 -43.382812 4.453125 -44.8125 C 4.253906 -46.238281 4.09375 -47.785156 3.96875 -49.453125 C 3.851562 -51.117188 3.796875 -52.726562 3.796875 -54.28125 C 3.796875 -55.832031 3.796875 -56.972656 3.796875 -57.703125 C 3.796875 -59.578125 3.796875 -61.410156 3.796875 -63.203125 C 3.796875 -64.992188 3.875 -66.828125 4.03125 -68.703125 C 4.113281 -70.492188 4.210938 -72.632812 4.328125 -75.125 C 4.453125 -77.613281 4.863281 -80 5.5625 -82.28125 C 6.257812 -84.5625 7.28125 -86.515625 8.625 -88.140625 C 9.96875 -89.773438 11.898438 -90.59375 14.421875 -90.59375 C 15.972656 -90.59375 17.21875 -89.859375 18.15625 -88.390625 C 19.09375 -86.921875 19.828125 -85.207031 20.359375 -83.25 C 20.890625 -81.300781 21.234375 -79.328125 21.390625 -77.328125 C 21.554688 -75.328125 21.640625 -73.796875 21.640625 -72.734375 C 21.640625 -70.296875 21.535156 -67.851562 21.328125 -65.40625 C 21.128906 -62.957031 20.828125 -60.550781 20.421875 -58.1875 C 22.785156 -58.351562 25.128906 -58.492188 27.453125 -58.609375 C 29.773438 -58.734375 32.113281 -58.878906 34.46875 -59.046875 C 34.550781 -59.859375 34.691406 -61.507812 34.890625 -64 C 35.097656 -66.488281 35.363281 -69.132812 35.6875 -71.9375 C 36.019531 -74.75 36.347656 -77.378906 36.671875 -79.828125 C 37.003906 -82.273438 37.332031 -83.863281 37.65625 -84.59375 C 38.300781 -86.144531 39.316406 -87.429688 40.703125 -88.453125 C 42.085938 -89.472656 43.679688 -89.984375 45.484375 -89.984375 C 47.597656 -89.984375 49.101562 -89.328125 50 -88.015625 C 50.894531 -86.710938 51.503906 -85.164062 51.828125 -83.375 C 52.242188 -81.09375 52.488281 -78.726562 52.5625 -76.28125 C 52.644531 -73.84375 52.6875 -71.441406 52.6875 -69.078125 C 52.6875 -65.566406 52.566406 -62.0625 52.328125 -58.5625 C 54.117188 -58.394531 55.867188 -58.1875 57.578125 -57.9375 C 59.296875 -57.695312 61.050781 -57.375 62.84375 -56.96875 C 64.789062 -56.5625 66.296875 -55.664062 67.359375 -54.28125 C 68.421875 -52.894531 68.953125 -51.222656 68.953125 -49.265625 Z M 68.953125 -49.265625 "/></g></g></g></svg>