<svg xmlns="http://www.w3.org/2000/svg" xmlns:xlink="http://www.w3.org/1999/xlink" width="200" zoomAndPan="magnify" viewBox="0 0 150 149.999998" height="200" preserveAspectRatio="xMidYMid meet" version="1.2"><defs/><g id="e3fe349946"><g style="fill:#2196f3;fill-opacity:1;"><g transform="translate(0.914064, 116.481745)"><path style="stroke:none" d="M 71.640625 -22.609375 C 71.640625 -17.554688 70.414062 -13.195312 67.96875 -9.53125 C 65.53125 -5.863281 62.414062 -2.847656 58.625 -0.484375 C 54.832031 1.878906 50.632812 3.628906 46.03125 4.765625 C 41.425781 5.910156 36.921875 6.484375 32.515625 6.484375 C 29.253906 6.484375 25.789062 6.015625 22.125 5.078125 C 18.457031 4.140625 15.070312 2.710938 11.96875 0.796875 C 8.875 -1.117188 6.304688 -3.539062 4.265625 -6.46875 C 2.234375 -9.40625 1.21875 -12.832031 1.21875 -16.75 C 1.21875 -19.925781 1.75 -22.921875 2.8125 -25.734375 C 3.875 -28.546875 5.320312 -31.15625 7.15625 -33.5625 C 8.988281 -35.96875 11.101562 -38.101562 13.5 -39.96875 C 15.90625 -41.84375 18.457031 -43.472656 21.15625 -44.859375 C 19.113281 -45.515625 17.132812 -46.453125 15.21875 -47.671875 C 13.300781 -48.898438 11.609375 -50.328125 10.140625 -51.953125 C 8.679688 -53.585938 7.5 -55.421875 6.59375 -57.453125 C 5.695312 -59.492188 5.25 -61.65625 5.25 -63.9375 C 5.25 -68.414062 6.453125 -72.304688 8.859375 -75.609375 C 11.265625 -78.910156 14.300781 -81.617188 17.96875 -83.734375 C 21.632812 -85.859375 25.609375 -87.429688 29.890625 -88.453125 C 34.171875 -89.472656 38.1875 -89.984375 41.9375 -89.984375 C 44.789062 -89.984375 47.679688 -89.65625 50.609375 -89 C 53.546875 -88.34375 56.21875 -87.28125 58.625 -85.8125 C 61.03125 -84.351562 63.003906 -82.441406 64.546875 -80.078125 C 66.097656 -77.710938 66.875 -74.859375 66.875 -71.515625 C 66.875 -66.296875 65.382812 -61.707031 62.40625 -57.75 C 59.4375 -53.800781 55.75 -50.609375 51.34375 -48.171875 C 54.195312 -47.429688 56.863281 -46.242188 59.34375 -44.609375 C 61.832031 -42.984375 63.992188 -41.050781 65.828125 -38.8125 C 67.660156 -36.570312 69.085938 -34.066406 70.109375 -31.296875 C 71.128906 -28.523438 71.640625 -25.628906 71.640625 -22.609375 Z M 48.296875 -68.703125 C 48.296875 -69.679688 47.988281 -70.457031 47.375 -71.03125 C 46.757812 -71.601562 46.023438 -72.070312 45.171875 -72.4375 C 44.316406 -72.800781 43.421875 -73.046875 42.484375 -73.171875 C 41.546875 -73.296875 40.75 -73.359375 40.09375 -73.359375 C 39.113281 -73.359375 37.847656 -73.234375 36.296875 -72.984375 C 34.753906 -72.742188 33.25 -72.335938 31.78125 -71.765625 C 30.3125 -71.191406 29.046875 -70.4375 27.984375 -69.5 C 26.929688 -68.5625 26.40625 -67.441406 26.40625 -66.140625 C 26.40625 -64.753906 26.769531 -63.550781 27.5 -62.53125 C 28.238281 -61.507812 29.15625 -60.628906 30.25 -59.890625 C 31.351562 -59.160156 32.535156 -58.613281 33.796875 -58.25 C 35.066406 -57.882812 36.269531 -57.660156 37.40625 -57.578125 C 38.21875 -58.066406 39.234375 -58.695312 40.453125 -59.46875 C 41.679688 -60.25 42.882812 -61.144531 44.0625 -62.15625 C 45.25 -63.175781 46.25 -64.238281 47.0625 -65.34375 C 47.882812 -66.445312 48.296875 -67.566406 48.296875 -68.703125 Z M 51.59375 -21.890625 C 51.59375 -23.835938 51.144531 -25.601562 50.25 -27.1875 C 49.351562 -28.78125 48.191406 -30.148438 46.765625 -31.296875 C 45.335938 -32.441406 43.742188 -33.398438 41.984375 -34.171875 C 40.234375 -34.941406 38.503906 -35.488281 36.796875 -35.8125 C 35.171875 -35.082031 33.457031 -34.164062 31.65625 -33.0625 C 29.863281 -31.96875 28.210938 -30.6875 26.703125 -29.21875 C 25.203125 -27.75 23.960938 -26.140625 22.984375 -24.390625 C 22.003906 -22.640625 21.515625 -20.742188 21.515625 -18.703125 C 21.515625 -17.234375 22.039062 -16.007812 23.09375 -15.03125 C 24.15625 -14.050781 25.421875 -13.273438 26.890625 -12.703125 C 28.359375 -12.140625 29.882812 -11.734375 31.46875 -11.484375 C 33.0625 -11.242188 34.390625 -11.125 35.453125 -11.125 C 37.085938 -11.125 38.859375 -11.304688 40.765625 -11.671875 C 42.679688 -12.035156 44.429688 -12.644531 46.015625 -13.5 C 47.609375 -14.363281 48.9375 -15.488281 50 -16.875 C 51.0625 -18.257812 51.59375 -19.929688 51.59375 -21.890625 Z M 51.59375 -21.890625 "/></g></g><g style="fill:#2196f3;fill-opacity:1;"><g transform="translate(74.995007, 116.481745)"><path style="stroke:none" d="M 71.640625 -22.609375 C 71.640625 -17.554688 70.414062 -13.195312 67.96875 -9.53125 C 65.53125 -5.863281 62.414062 -2.847656 58.625 -0.484375 C 54.832031 1.878906 50.632812 3.628906 46.03125 4.765625 C 41.425781 5.910156 36.921875 6.484375 32.515625 6.484375 C 29.253906 6.484375 25.789062 6.015625 22.125 5.078125 C 18.457031 4.140625 15.070312 2.710938 11.96875 0.796875 C 8.875 -1.117188 6.304688 -3.539062 4.265625 -6.46875 C 2.234375 -9.40625 1.21875 -12.832031 1.21875 -16.75 C 1.21875 -19.925781 1.75 -22.921875 2.8125 -25.734375 C 3.875 -28.546875 5.320312 -31.15625 7.15625 -33.5625 C 8.988281 -35.96875 11.101562 -38.101562 13.5 -39.96875 C 15.90625 -41.84375 18.457031 -43.472656 21.15625 -44.859375 C 19.113281 -45.515625 17.132812 -46.453125 15.21875 -47.671875 C 13.300781 -48.898438 11.609375 -50.328125 10.140625 -51.953125 C 8.679688 -53.585938 7.5 -55.421875 6.59375 -57.453125 C 5.695312 -59.492188 5.25 -61.65625 5.25 -63.9375 C 5.25 -68.414062 6.453125 -72.304688 8.859375 -75.609375 C 11.265625 -78.910156 14.300781 -81.617188 17.96875 -83.734375 C 21.632812 -85.859375 25.609375 -87.429688 29.890625 -88.453125 C 34.171875 -89.472656 38.1875 -89.984375 41.9375 -89.984375 C 44.789062 -89.984375 47.679688 -89.65625 50.609375 -89 C 53.546875 -88.34375 56.21875 -87.28125 58.625 -85.8125 C 61.03125 -84.351562 63.003906 -82.441406 64.546875 -80.078125 C 66.097656 -77.710938 66.875 -74.859375 66.875 -71.515625 C 66.875 -66.296875 65.382812 -61.707031 62.40625 -57.75 C 59.4375 -53.800781 55.75 -50.609375 51.34375 -48.171875 C 54.195312 -47.429688 56.863281 -46.242188 59.34375 -44.609375 C 61.832031 -42.984375 63.992188 -41.050781 65.828125 -38.8125 C 67.660156 -36.570312 69.085938 -34.066406 70.109375 -31.296875 C 71.128906 -28.523438 71.640625 -25.628906 71.640625 -22.609375 Z M 48.296875 -68.703125 C 48.296875 -69.679688 47.988281 -70.457031 47.375 -71.03125 C 46.757812 -71.601562 46.023438 -72.070312 45.171875 -72.4375 C 44.316406 -72.800781 43.421875 -73.046875 42.484375 -73.171875 C 41.546875 -73.296875 40.75 -73.359375 40.09375 -73.359375 C 39.113281 -73.359375 37.847656 -73.234375 36.296875 -72.984375 C 34.753906 -72.742188 33.25 -72.335938 31.78125 -71.765625 C 30.3125 -71.191406 29.046875 -70.4375 27.984375 -69.5 C 26.929688 -68.5625 26.40625 -67.441406 26.40625 -66.140625 C 26.40625 -64.753906 26.769531 -63.550781 27.5 -62.53125 C 28.238281 -61.507812 29.15625 -60.628906 30.25 -59.890625 C 31.351562 -59.160156 32.535156 -58.613281 33.796875 -58.25 C 35.066406 -57.882812 36.269531 -57.660156 37.40625 -57.578125 C 38.21875 -58.066406 39.234375 -58.695312 40.453125 -59.46875 C 41.679688 -60.25 42.882812 -61.144531 44.0625 -62.15625 C 45.25 -63.175781 46.25 -64.238281 47.0625 -65.34375 C 47.882812 -66.445312 48.296875 -67.566406 48.296875 -68.703125 Z M 51.59375 -21.890625 C 51.59375 -23.835938 51.144531 -25.601562 50.25 -27.1875 C 49.351562 -28.78125 48.191406 -30.148438 46.765625 -31.296875 C 45.335938 -32.441406 43.742188 -33.398438 41.984375 -34.171875 C 40.234375 -34.941406 38.503906 -35.488281 36.796875 -35.8125 C 35.171875 -35.082031 33.457031 -34.164062 31.65625 -33.0625 C 29.863281 -31.96875 28.210938 -30.6875 26.703125 -29.21875 C 25.203125 -27.75 23.960938 -26.140625 22.984375 -24.390625 C 22.003906 -22.640625 21.515625 -20.742188 21.515625 -18.703125 C 21.515625 -17.234375 22.039062 -16.007812 23.09375 -15.03125 C 24.15625 -14.050781 25.421875 -13.273438 26.890625 -12.703125 C 28.359375 -12.140625 29.882812 -11.734375 31.46875 -11.484375 C 33.0625 -11.242188 34.390625 -11.125 35.453125 -11.125 C 37.085938 -11.125 38.859375 -11.304688 40.765625 -11.671875 C 42.679688 -12.035156 44.429688 -12.644531 46.015625 -13.5 C 47.609375 -14.363281 48.9375 -15.488281 50 -16.875 C 51.0625 -18.257812 51.59375 -19.929688 51.59375 -21.890625 Z M 51.59375 -21.890625 "/></g></g></g></svg>