<svg xmlns="http://www.w3.org/2000/svg" xmlns:xlink="http://www.w3.org/1999/xlink" width="200" zoomAndPan="magnify" viewBox="0 0 150 149.999998" height="200" preserveAspectRatio="xMidYMid meet" version="1.2"><defs/><g id="f226205a99"><g style="fill:#2196f3;fill-opacity:1;"><g transform="translate(8.671876, 116.481745)"><path style="stroke:none" d="M 62.953125 -26.65625 C 62.953125 -21.925781 62.117188 -17.765625 60.453125 -14.171875 C 58.785156 -10.585938 56.523438 -7.613281 53.671875 -5.25 C 50.816406 -2.894531 47.453125 -1.109375 43.578125 0.109375 C 39.710938 1.335938 35.535156 1.953125 31.046875 1.953125 C 25.992188 1.953125 21.613281 0.9375 17.90625 -1.09375 C 14.195312 -3.132812 11.160156 -5.84375 8.796875 -9.21875 C 6.429688 -12.601562 4.675781 -16.4375 3.53125 -20.71875 C 2.394531 -25 1.828125 -29.421875 1.828125 -33.984375 C 1.828125 -37.242188 2.394531 -40.910156 3.53125 -44.984375 C 4.675781 -49.066406 6.269531 -53.203125 8.3125 -57.390625 C 10.351562 -61.585938 12.71875 -65.660156 15.40625 -69.609375 C 18.09375 -73.566406 20.984375 -77.09375 24.078125 -80.1875 C 27.179688 -83.289062 30.421875 -85.78125 33.796875 -87.65625 C 37.179688 -89.53125 40.503906 -90.46875 43.765625 -90.46875 C 45.640625 -90.46875 47.332031 -89.957031 48.84375 -88.9375 C 50.351562 -87.914062 51.109375 -86.390625 51.109375 -84.359375 C 51.109375 -83.210938 50.617188 -81.988281 49.640625 -80.6875 C 48.660156 -79.382812 47.5 -78.097656 46.15625 -76.828125 C 44.8125 -75.566406 43.425781 -74.34375 42 -73.15625 C 40.570312 -71.976562 39.445312 -70.898438 38.625 -69.921875 C 36.75 -67.804688 35.015625 -65.546875 33.421875 -63.140625 C 31.835938 -60.734375 30.476562 -58.226562 29.34375 -55.625 C 30.5625 -56.03125 31.820312 -56.332031 33.125 -56.53125 C 34.4375 -56.738281 35.742188 -56.84375 37.046875 -56.84375 C 41.203125 -56.84375 44.890625 -55.988281 48.109375 -54.28125 C 51.328125 -52.570312 54.035156 -50.3125 56.234375 -47.5 C 58.429688 -44.6875 60.097656 -41.460938 61.234375 -37.828125 C 62.378906 -34.203125 62.953125 -30.476562 62.953125 -26.65625 Z M 45.84375 -26.53125 C 45.84375 -30.851562 44.519531 -34.175781 41.875 -36.5 C 39.226562 -38.820312 35.820312 -39.984375 31.65625 -39.984375 C 30.269531 -39.984375 28.679688 -39.773438 26.890625 -39.359375 C 25.097656 -38.953125 23.550781 -38.34375 22.25 -37.53125 C 21.757812 -37.207031 21.472656 -36.597656 21.390625 -35.703125 C 21.304688 -34.804688 21.265625 -34.070312 21.265625 -33.5 C 21.265625 -31.625 21.53125 -29.644531 22.0625 -27.5625 C 22.59375 -25.488281 23.390625 -23.554688 24.453125 -21.765625 C 25.515625 -19.972656 26.859375 -18.503906 28.484375 -17.359375 C 30.117188 -16.222656 32.035156 -15.65625 34.234375 -15.65625 C 37.578125 -15.65625 40.347656 -16.585938 42.546875 -18.453125 C 44.742188 -20.328125 45.84375 -23.019531 45.84375 -26.53125 Z M 45.84375 -26.53125 "/></g></g><g style="fill:#2196f3;fill-opacity:1;"><g transform="translate(74.806843, 116.481745)"><path style="stroke:none" d="M 68.953125 -49.265625 C 68.953125 -47.148438 68.378906 -45.476562 67.234375 -44.25 C 66.097656 -43.03125 64.550781 -42.21875 62.59375 -41.8125 C 58.757812 -40.914062 55.007812 -40.304688 51.34375 -39.984375 C 51.019531 -36.796875 50.734375 -33.632812 50.484375 -30.5 C 50.242188 -27.363281 50 -24.25 49.75 -21.15625 C 49.59375 -19.6875 49.429688 -17.664062 49.265625 -15.09375 C 49.109375 -12.53125 48.722656 -10.023438 48.109375 -7.578125 C 47.492188 -5.128906 46.59375 -2.988281 45.40625 -1.15625 C 44.226562 0.675781 42.625 1.59375 40.59375 1.59375 C 38.632812 1.59375 37.101562 0.738281 36 -0.96875 C 34.90625 -2.6875 34.070312 -4.6875 33.5 -6.96875 C 32.925781 -9.25 32.554688 -11.550781 32.390625 -13.875 C 32.234375 -16.195312 32.15625 -18.007812 32.15625 -19.3125 C 32.15625 -22.65625 32.253906 -25.9375 32.453125 -29.15625 C 32.660156 -32.375 32.847656 -35.613281 33.015625 -38.875 C 30.890625 -38.707031 28.765625 -38.601562 26.640625 -38.5625 C 24.523438 -38.53125 22.410156 -38.515625 20.296875 -38.515625 C 19.316406 -38.515625 18.09375 -38.53125 16.625 -38.5625 C 15.15625 -38.601562 13.6875 -38.707031 12.21875 -38.875 C 10.757812 -39.039062 9.394531 -39.347656 8.125 -39.796875 C 6.863281 -40.242188 5.945312 -40.914062 5.375 -41.8125 C 4.96875 -42.382812 4.660156 -43.382812 4.453125 -44.8125 C 4.253906 -46.238281 4.09375 -47.785156 3.96875 -49.453125 C 3.851562 -51.117188 3.796875 -52.726562 3.796875 -54.28125 C 3.796875 -55.832031 3.796875 -56.972656 3.796875 -57.703125 C 3.796875 -59.578125 3.796875 -61.410156 3.796875 -63.203125 C 3.796875 -64.992188 3.875 -66.828125 4.03125 -68.703125 C 4.113281 -70.492188 4.210938 -72.632812 4.328125 -75.125 C 4.453125 -77.613281 4.863281 -80 5.5625 -82.28125 C 6.257812 -84.5625 7.28125 -86.515625 8.625 -88.140625 C 9.96875 -89.773438 11.898438 -90.59375 14.421875 -90.59375 C 15.972656 -90.59375 17.21875 -89.859375 18.15625 -88.390625 C 19.09375 -86.921875 19.828125 -85.207031 20.359375 -83.25 C 20.890625 -81.300781 21.234375 -79.328125 21.390625 -77.328125 C 21.554688 -75.328125 21.640625 -73.796875 21.640625 -72.734375 C 21.640625 -70.296875 21.535156 -67.851562 21.328125 -65.40625 C 21.128906 -62.957031 20.828125 -60.550781 20.421875 -58.1875 C 22.785156 -58.351562 25.128906 -58.492188 27.453125 -58.609375 C 29.773438 -58.734375 32.113281 -58.878906 34.46875 -59.046875 C 34.550781 -59.859375 34.691406 -61.507812 34.890625 -64 C 35.097656 -66.488281 35.363281 -69.132812 35.6875 -71.9375 C 36.019531 -74.75 36.347656 -77.378906 36.671875 -79.828125 C 37.003906 -82.273438 37.332031 -83.863281 37.65625 -84.59375 C 38.300781 -86.144531 39.316406 -87.429688 40.703125 -88.453125 C 42.085938 -89.472656 43.679688 -89.984375 45.484375 -89.984375 C 47.597656 -89.984375 49.101562 -89.328125 50 -88.015625 C 50.894531 -86.710938 51.503906 -85.164062 51.828125 -83.375 C 52.242188 -81.09375 52.488281 -78.726562 52.5625 -76.28125 C 52.644531 -73.84375 52.6875 -71.441406 52.6875 -69.078125 C 52.6875 -65.566406 52.566406 -62.0625 52.328125 -58.5625 C 54.117188 -58.394531 55.867188 -58.1875 57.578125 -57.9375 C 59.296875 -57.695312 61.050781 -57.375 62.84375 -56.96875 C 64.789062 -56.5625 66.296875 -55.664062 67.359375 -54.28125 C 68.421875 -52.894531 68.953125 -51.222656 68.953125 -49.265625 Z M 68.953125 -49.265625 "/></g></g></g></svg>