<svg xmlns="http://www.w3.org/2000/svg" xmlns:xlink="http://www.w3.org/1999/xlink" width="200" zoomAndPan="magnify" viewBox="0 0 150 149.999998" height="200" preserveAspectRatio="xMidYMid meet" version="1.2"><defs/><g id="f6518e34dd"><g style="fill:#2196f3;fill-opacity:1;"><g transform="translate(10.757813, 116.481745)"><path style="stroke:none" d="M 61 -11.25 C 61 -8.882812 60.222656 -6.96875 58.671875 -5.5 C 57.128906 -4.03125 55.257812 -3.09375 53.0625 -2.6875 C 50.613281 -2.113281 47.835938 -1.601562 44.734375 -1.15625 C 41.640625 -0.707031 38.484375 -0.320312 35.265625 0 C 32.046875 0.320312 28.890625 0.566406 25.796875 0.734375 C 22.703125 0.898438 19.890625 0.984375 17.359375 0.984375 C 16.703125 0.984375 15.785156 0.960938 14.609375 0.921875 C 13.429688 0.878906 12.207031 0.796875 10.9375 0.671875 C 9.675781 0.546875 8.492188 0.359375 7.390625 0.109375 C 6.296875 -0.128906 5.460938 -0.453125 4.890625 -0.859375 C 4.316406 -1.347656 3.804688 -2.019531 3.359375 -2.875 C 2.910156 -3.726562 2.523438 -4.664062 2.203125 -5.6875 C 1.878906 -6.707031 1.632812 -7.703125 1.46875 -8.671875 C 1.300781 -9.648438 1.21875 -10.507812 1.21875 -11.25 C 1.21875 -12.382812 1.359375 -13.421875 1.640625 -14.359375 C 1.929688 -15.296875 2.484375 -16.175781 3.296875 -17 C 4.273438 -18.050781 5.296875 -19.085938 6.359375 -20.109375 C 7.421875 -21.128906 8.4375 -22.128906 9.40625 -23.109375 C 10.550781 -24.328125 12.0625 -25.9375 13.9375 -27.9375 C 15.8125 -29.9375 17.828125 -32.175781 19.984375 -34.65625 C 22.148438 -37.144531 24.3125 -39.753906 26.46875 -42.484375 C 28.625 -45.210938 30.597656 -47.878906 32.390625 -50.484375 C 34.191406 -53.097656 35.640625 -55.546875 36.734375 -57.828125 C 37.835938 -60.109375 38.390625 -62.0625 38.390625 -63.6875 C 38.390625 -65.238281 37.941406 -66.523438 37.046875 -67.546875 C 36.148438 -68.566406 34.925781 -69.078125 33.375 -69.078125 C 31.664062 -69.078125 30.078125 -68.460938 28.609375 -67.234375 C 27.140625 -66.015625 25.671875 -64.691406 24.203125 -63.265625 C 22.734375 -61.835938 21.164062 -60.507812 19.5 -59.28125 C 17.832031 -58.0625 15.9375 -57.453125 13.8125 -57.453125 C 11.289062 -57.453125 9.316406 -58.1875 7.890625 -59.65625 C 6.460938 -61.125 5.75 -63.082031 5.75 -65.53125 C 5.75 -69.113281 6.539062 -72.429688 8.125 -75.484375 C 9.71875 -78.546875 11.816406 -81.175781 14.421875 -83.375 C 17.035156 -85.570312 19.972656 -87.300781 23.234375 -88.5625 C 26.492188 -89.832031 29.832031 -90.46875 33.25 -90.46875 C 36.757812 -90.46875 40.019531 -90.054688 43.03125 -89.234375 C 46.050781 -88.421875 48.660156 -87.160156 50.859375 -85.453125 C 53.054688 -83.742188 54.785156 -81.5625 56.046875 -78.90625 C 57.316406 -76.257812 57.953125 -73.0625 57.953125 -69.3125 C 57.953125 -66.382812 57.441406 -63.3125 56.421875 -60.09375 C 55.398438 -56.875 54.050781 -53.632812 52.375 -50.375 C 50.707031 -47.113281 48.796875 -43.867188 46.640625 -40.640625 C 44.484375 -37.421875 42.257812 -34.34375 39.96875 -31.40625 C 37.6875 -28.476562 35.40625 -25.75 33.125 -23.21875 C 30.84375 -20.695312 28.765625 -18.5 26.890625 -16.625 C 30.890625 -17.113281 35.085938 -17.601562 39.484375 -18.09375 C 43.890625 -18.582031 48.128906 -18.828125 52.203125 -18.828125 C 54.566406 -18.828125 56.625 -18.191406 58.375 -16.921875 C 60.125 -15.660156 61 -13.769531 61 -11.25 Z M 61 -11.25 "/></g></g><g style="fill:#2196f3;fill-opacity:1;"><g transform="translate(74.203374, 116.481745)"><path style="stroke:none" d="M 63.203125 -56.484375 C 63.203125 -53.222656 62.648438 -49.472656 61.546875 -45.234375 C 60.453125 -40.992188 58.945312 -36.671875 57.03125 -32.265625 C 55.113281 -27.867188 52.867188 -23.550781 50.296875 -19.3125 C 47.734375 -15.070312 44.921875 -11.28125 41.859375 -7.9375 C 38.804688 -4.601562 35.628906 -1.921875 32.328125 0.109375 C 29.035156 2.148438 25.71875 3.171875 22.375 3.171875 C 20.582031 3.171875 18.972656 2.617188 17.546875 1.515625 C 16.117188 0.421875 15.40625 -1.101562 15.40625 -3.0625 C 15.40625 -3.957031 15.546875 -4.707031 15.828125 -5.3125 C 16.117188 -5.925781 16.507812 -6.5625 17 -7.21875 C 18.789062 -9.5 20.625 -11.59375 22.5 -13.5 C 24.375 -15.414062 26.226562 -17.332031 28.0625 -19.25 C 29.894531 -21.164062 31.664062 -23.179688 33.375 -25.296875 C 35.082031 -27.421875 36.628906 -29.867188 38.015625 -32.640625 C 35.328125 -31.910156 32.554688 -31.546875 29.703125 -31.546875 C 25.628906 -31.546875 21.941406 -32.175781 18.640625 -33.4375 C 15.335938 -34.695312 12.546875 -36.507812 10.265625 -38.875 C 7.984375 -41.238281 6.226562 -44.070312 5 -47.375 C 3.78125 -50.675781 3.171875 -54.363281 3.171875 -58.4375 C 3.171875 -63 3.882812 -67.195312 5.3125 -71.03125 C 6.738281 -74.863281 8.773438 -78.179688 11.421875 -80.984375 C 14.078125 -83.796875 17.257812 -86 20.96875 -87.59375 C 24.675781 -89.1875 28.851562 -89.984375 33.5 -89.984375 C 38.382812 -89.984375 42.679688 -89.101562 46.390625 -87.34375 C 50.097656 -85.59375 53.195312 -83.1875 55.6875 -80.125 C 58.175781 -77.070312 60.050781 -73.507812 61.3125 -69.4375 C 62.570312 -65.363281 63.203125 -61.046875 63.203125 -56.484375 Z M 46.953125 -58.6875 C 46.953125 -60.632812 46.6875 -62.546875 46.15625 -64.421875 C 45.625 -66.296875 44.828125 -67.96875 43.765625 -69.4375 C 42.703125 -70.90625 41.375 -72.085938 39.78125 -72.984375 C 38.195312 -73.878906 36.304688 -74.328125 34.109375 -74.328125 C 29.703125 -74.328125 26.21875 -72.960938 23.65625 -70.234375 C 21.09375 -67.503906 19.8125 -63.9375 19.8125 -59.53125 C 19.8125 -55.300781 20.972656 -52.0625 23.296875 -49.8125 C 25.617188 -47.570312 28.859375 -46.453125 33.015625 -46.453125 C 37.328125 -46.453125 40.726562 -47.390625 43.21875 -49.265625 C 45.707031 -51.140625 46.953125 -54.28125 46.953125 -58.6875 Z M 46.953125 -58.6875 "/></g></g></g></svg>