<svg xmlns="http://www.w3.org/2000/svg" xmlns:xlink="http://www.w3.org/1999/xlink" width="200" zoomAndPan="magnify" viewBox="0 0 150 149.999998" height="200" preserveAspectRatio="xMidYMid meet" version="1.2"><defs/><g id="5fdd2e6b4d"><g style="fill:#2196f3;fill-opacity:1;"><g transform="translate(11.121094, 116.481745)"><path style="stroke:none" d="M 61 -11.25 C 61 -8.882812 60.222656 -6.96875 58.671875 -5.5 C 57.128906 -4.03125 55.257812 -3.09375 53.0625 -2.6875 C 50.613281 -2.113281 47.835938 -1.601562 44.734375 -1.15625 C 41.640625 -0.707031 38.484375 -0.320312 35.265625 0 C 32.046875 0.320312 28.890625 0.566406 25.796875 0.734375 C 22.703125 0.898438 19.890625 0.984375 17.359375 0.984375 C 16.703125 0.984375 15.785156 0.960938 14.609375 0.921875 C 13.429688 0.878906 12.207031 0.796875 10.9375 0.671875 C 9.675781 0.546875 8.492188 0.359375 7.390625 0.109375 C 6.296875 -0.128906 5.460938 -0.453125 4.890625 -0.859375 C 4.316406 -1.347656 3.804688 -2.019531 3.359375 -2.875 C 2.910156 -3.726562 2.523438 -4.664062 2.203125 -5.6875 C 1.878906 -6.707031 1.632812 -7.703125 1.46875 -8.671875 C 1.300781 -9.648438 1.21875 -10.507812 1.21875 -11.25 C 1.21875 -12.382812 1.359375 -13.421875 1.640625 -14.359375 C 1.929688 -15.296875 2.484375 -16.175781 3.296875 -17 C 4.273438 -18.050781 5.296875 -19.085938 6.359375 -20.109375 C 7.421875 -21.128906 8.4375 -22.128906 9.40625 -23.109375 C 10.550781 -24.328125 12.0625 -25.9375 13.9375 -27.9375 C 15.8125 -29.9375 17.828125 -32.175781 19.984375 -34.65625 C 22.148438 -37.144531 24.3125 -39.753906 26.46875 -42.484375 C 28.625 -45.210938 30.597656 -47.878906 32.390625 -50.484375 C 34.191406 -53.097656 35.640625 -55.546875 36.734375 -57.828125 C 37.835938 -60.109375 38.390625 -62.0625 38.390625 -63.6875 C 38.390625 -65.238281 37.941406 -66.523438 37.046875 -67.546875 C 36.148438 -68.566406 34.925781 -69.078125 33.375 -69.078125 C 31.664062 -69.078125 30.078125 -68.460938 28.609375 -67.234375 C 27.140625 -66.015625 25.671875 -64.691406 24.203125 -63.265625 C 22.734375 -61.835938 21.164062 -60.507812 19.5 -59.28125 C 17.832031 -58.0625 15.9375 -57.453125 13.8125 -57.453125 C 11.289062 -57.453125 9.316406 -58.1875 7.890625 -59.65625 C 6.460938 -61.125 5.75 -63.082031 5.75 -65.53125 C 5.75 -69.113281 6.539062 -72.429688 8.125 -75.484375 C 9.71875 -78.546875 11.816406 -81.175781 14.421875 -83.375 C 17.035156 -85.570312 19.972656 -87.300781 23.234375 -88.5625 C 26.492188 -89.832031 29.832031 -90.46875 33.25 -90.46875 C 36.757812 -90.46875 40.019531 -90.054688 43.03125 -89.234375 C 46.050781 -88.421875 48.660156 -87.160156 50.859375 -85.453125 C 53.054688 -83.742188 54.785156 -81.5625 56.046875 -78.90625 C 57.316406 -76.257812 57.953125 -73.0625 57.953125 -69.3125 C 57.953125 -66.382812 57.441406 -63.3125 56.421875 -60.09375 C 55.398438 -56.875 54.050781 -53.632812 52.375 -50.375 C 50.707031 -47.113281 48.796875 -43.867188 46.640625 -40.640625 C 44.484375 -37.421875 42.257812 -34.34375 39.96875 -31.40625 C 37.6875 -28.476562 35.40625 -25.75 33.125 -23.21875 C 30.84375 -20.695312 28.765625 -18.5 26.890625 -16.625 C 30.890625 -17.113281 35.085938 -17.601562 39.484375 -18.09375 C 43.890625 -18.582031 48.128906 -18.828125 52.203125 -18.828125 C 54.566406 -18.828125 56.625 -18.191406 58.375 -16.921875 C 60.125 -15.660156 61 -13.769531 61 -11.25 Z M 61 -11.25 "/></g></g><g style="fill:#2196f3;fill-opacity:1;"><g transform="translate(74.566655, 116.481745)"><path style="stroke:none" d="M 61.859375 -28.609375 C 61.859375 -23.796875 61.101562 -19.515625 59.59375 -15.765625 C 58.09375 -12.015625 55.972656 -8.835938 53.234375 -6.234375 C 50.503906 -3.628906 47.242188 -1.632812 43.453125 -0.25 C 39.671875 1.132812 35.457031 1.828125 30.8125 1.828125 C 28.28125 1.828125 25.484375 1.378906 22.421875 0.484375 C 19.367188 -0.410156 16.5 -1.710938 13.8125 -3.421875 C 11.125 -5.128906 8.882812 -7.1875 7.09375 -9.59375 C 5.300781 -12 4.40625 -14.671875 4.40625 -17.609375 C 4.40625 -19.722656 5.054688 -21.429688 6.359375 -22.734375 C 7.660156 -24.035156 9.367188 -24.6875 11.484375 -24.6875 C 13.523438 -24.6875 15.238281 -24.28125 16.625 -23.46875 C 18.007812 -22.65625 19.375 -21.738281 20.71875 -20.71875 C 22.0625 -19.695312 23.585938 -18.78125 25.296875 -17.96875 C 27.015625 -17.15625 29.21875 -16.75 31.90625 -16.75 C 35.164062 -16.75 37.8125 -17.890625 39.84375 -20.171875 C 41.882812 -22.453125 42.90625 -25.179688 42.90625 -28.359375 C 42.90625 -31.378906 42.210938 -33.988281 40.828125 -36.1875 C 39.441406 -38.382812 37.160156 -39.484375 33.984375 -39.484375 C 32.515625 -39.484375 31.1875 -39.320312 30 -39 C 28.820312 -38.675781 27.679688 -38.304688 26.578125 -37.890625 C 25.484375 -37.484375 24.382812 -37.097656 23.28125 -36.734375 C 22.1875 -36.367188 21.066406 -36.101562 19.921875 -35.9375 C 19.023438 -35.78125 17.882812 -35.84375 16.5 -36.125 C 15.113281 -36.40625 13.707031 -36.832031 12.28125 -37.40625 C 10.851562 -37.976562 9.566406 -38.648438 8.421875 -39.421875 C 7.285156 -40.203125 6.554688 -41.039062 6.234375 -41.9375 C 5.992188 -42.664062 5.769531 -44.253906 5.5625 -46.703125 C 5.351562 -49.148438 5.1875 -51.796875 5.0625 -54.640625 C 4.945312 -57.492188 4.867188 -60.203125 4.828125 -62.765625 C 4.785156 -65.335938 4.765625 -67.113281 4.765625 -68.09375 C 4.765625 -68.75 4.765625 -69.804688 4.765625 -71.265625 C 4.765625 -72.734375 4.828125 -74.265625 4.953125 -75.859375 C 5.078125 -77.453125 5.21875 -78.941406 5.375 -80.328125 C 5.539062 -81.710938 5.828125 -82.644531 6.234375 -83.125 C 6.722656 -83.863281 7.925781 -84.554688 9.84375 -85.203125 C 11.757812 -85.859375 14 -86.472656 16.5625 -87.046875 C 19.132812 -87.617188 21.925781 -88.128906 24.9375 -88.578125 C 27.957031 -89.023438 30.832031 -89.410156 33.5625 -89.734375 C 36.289062 -90.054688 38.773438 -90.300781 41.015625 -90.46875 C 43.253906 -90.632812 44.863281 -90.71875 45.84375 -90.71875 C 46.988281 -90.71875 48.191406 -90.570312 49.453125 -90.28125 C 50.710938 -90 51.851562 -89.550781 52.875 -88.9375 C 53.894531 -88.320312 54.726562 -87.523438 55.375 -86.546875 C 56.03125 -85.578125 56.359375 -84.398438 56.359375 -83.015625 C 56.359375 -80.804688 55.582031 -79.050781 54.03125 -77.75 C 52.488281 -76.445312 50.78125 -75.46875 48.90625 -74.8125 C 47.4375 -74.320312 45.640625 -73.914062 43.515625 -73.59375 C 41.398438 -73.269531 39.238281 -72.960938 37.03125 -72.671875 C 34.832031 -72.390625 32.691406 -72.164062 30.609375 -72 C 28.535156 -71.84375 26.726562 -71.722656 25.1875 -71.640625 L 25.421875 -53.90625 C 27.054688 -54.238281 28.6875 -54.503906 30.3125 -54.703125 C 31.945312 -54.910156 33.617188 -55.015625 35.328125 -55.015625 C 43.972656 -55.015625 50.554688 -52.769531 55.078125 -48.28125 C 59.597656 -43.800781 61.859375 -37.242188 61.859375 -28.609375 Z M 61.859375 -28.609375 "/></g></g></g></svg>