<svg xmlns="http://www.w3.org/2000/svg" xmlns:xlink="http://www.w3.org/1999/xlink" width="200" zoomAndPan="magnify" viewBox="0 0 150 149.999998" height="200" preserveAspectRatio="xMidYMid meet" version="1.2"><defs/><g id="d4297fd813"><g style="fill:#2196f3;fill-opacity:1;"><g transform="translate(38.578124, 120.23302)"><path style="stroke:none" d="M 5 17.90625 L 5 -55.203125 C 5 -57.117188 5.0625 -58.535156 5.1875 -59.453125 C 5.3125 -60.367188 5.671875 -61.414062 6.265625 -62.59375 C 7.429688 -64.84375 10.222656 -65.96875 14.640625 -65.96875 C 19.066406 -65.96875 22.050781 -65.40625 23.59375 -64.28125 C 25.132812 -63.15625 26.03125 -61.503906 26.28125 -59.328125 C 29.457031 -63.671875 34.445312 -65.84375 41.25 -65.84375 C 48.050781 -65.84375 54.492188 -62.628906 60.578125 -56.203125 C 66.671875 -49.773438 69.71875 -42.304688 69.71875 -33.796875 C 69.71875 -25.285156 66.691406 -17.816406 60.640625 -11.390625 C 54.597656 -4.960938 48.15625 -1.75 41.3125 -1.75 C 34.46875 -1.75 29.5 -3.671875 26.40625 -7.515625 L 26.40625 17.78125 C 26.40625 19.695312 26.34375 21.113281 26.21875 22.03125 C 26.09375 22.945312 25.71875 24.007812 25.09375 25.21875 C 24.46875 26.425781 23.40625 27.28125 21.90625 27.78125 C 20.40625 28.289062 18.359375 28.546875 15.765625 28.546875 C 13.179688 28.546875 11.117188 28.289062 9.578125 27.78125 C 8.035156 27.28125 6.945312 26.445312 6.3125 25.28125 C 5.6875 24.113281 5.3125 23.070312 5.1875 22.15625 C 5.0625 21.238281 5 19.820312 5 17.90625 Z M 29.78125 -41.046875 C 27.863281 -38.796875 26.90625 -36.335938 26.90625 -33.671875 C 26.90625 -31.003906 27.882812 -28.5625 29.84375 -26.34375 C 31.8125 -24.132812 34.316406 -23.03125 37.359375 -23.03125 C 40.410156 -23.03125 43 -24.113281 45.125 -26.28125 C 47.25 -28.457031 48.3125 -30.921875 48.3125 -33.671875 C 48.3125 -36.421875 47.3125 -38.898438 45.3125 -41.109375 C 43.3125 -43.328125 40.703125 -44.4375 37.484375 -44.4375 C 34.273438 -44.4375 31.707031 -43.304688 29.78125 -41.046875 Z M 29.78125 -41.046875 "/></g></g></g></svg>