<svg xmlns="http://www.w3.org/2000/svg" xmlns:xlink="http://www.w3.org/1999/xlink" width="200" zoomAndPan="magnify" viewBox="0 0 150 149.999998" height="200" preserveAspectRatio="xMidYMid meet" version="1.2"><defs/><g id="f9bc101438"><g style="fill:#2196f3;fill-opacity:1;"><g transform="translate(37.136718, 120.23302)"><path style="stroke:none" d="M 41.5625 -65.71875 C 49.90625 -65.71875 56.847656 -62.546875 62.390625 -56.203125 C 67.941406 -49.859375 70.71875 -42.097656 70.71875 -32.921875 L 70.71875 -10.890625 C 70.71875 -8.972656 70.65625 -7.53125 70.53125 -6.5625 C 70.40625 -5.601562 70.007812 -4.5 69.34375 -3.25 C 68.257812 -1.082031 65.046875 0 59.703125 0 C 54.617188 0 51.445312 -1.082031 50.1875 -3.25 C 49.519531 -4.5 49.125 -5.625 49 -6.625 C 48.875 -7.632812 48.8125 -9.140625 48.8125 -11.140625 L 48.8125 -33.046875 C 48.8125 -36.460938 47.851562 -39.128906 45.9375 -41.046875 C 44.019531 -42.972656 41.578125 -43.9375 38.609375 -43.9375 C 35.648438 -43.9375 33.039062 -43.035156 30.78125 -41.234375 C 28.53125 -39.441406 27.238281 -37.421875 26.90625 -35.171875 L 26.90625 -10.890625 C 26.90625 -8.972656 26.84375 -7.53125 26.71875 -6.5625 C 26.59375 -5.601562 26.195312 -4.5 25.53125 -3.25 C 24.445312 -1.082031 21.234375 0 15.890625 0 C 10.640625 0 7.429688 -1.125 6.265625 -3.375 C 5.671875 -4.625 5.3125 -5.707031 5.1875 -6.625 C 5.0625 -7.550781 5 -9.015625 5 -11.015625 L 5 -85.875 C 5 -87.789062 5.0625 -89.226562 5.1875 -90.1875 C 5.3125 -91.144531 5.671875 -92.207031 6.265625 -93.375 C 7.429688 -95.632812 10.679688 -96.765625 16.015625 -96.765625 C 21.273438 -96.765625 24.445312 -95.632812 25.53125 -93.375 C 26.195312 -92.125 26.59375 -91.019531 26.71875 -90.0625 C 26.84375 -89.101562 26.90625 -87.664062 26.90625 -85.75 L 26.90625 -58.078125 C 31.082031 -63.171875 35.96875 -65.71875 41.5625 -65.71875 Z M 41.5625 -65.71875 "/></g></g></g></svg>