<svg xmlns="http://www.w3.org/2000/svg" xmlns:xlink="http://www.w3.org/1999/xlink" width="200" zoomAndPan="magnify" viewBox="0 0 150 149.999998" height="200" preserveAspectRatio="xMidYMid meet" version="1.2"><defs/><g id="91e15a2a4e"><g style="fill:#2196f3;fill-opacity:1;"><g transform="translate(44.390624, 120.23302)"><path style="stroke:none" d="M 5.5 -5.890625 C 3.914062 -6.890625 3.125 -8.472656 3.125 -10.640625 C 3.125 -12.804688 4.710938 -16.101562 7.890625 -20.53125 C 8.804688 -21.945312 10.285156 -22.65625 12.328125 -22.65625 C 14.367188 -22.65625 17.140625 -21.628906 20.640625 -19.578125 C 24.148438 -17.535156 27.328125 -16.515625 30.171875 -16.515625 C 35.253906 -16.515625 37.796875 -17.519531 37.796875 -19.53125 C 37.796875 -21.113281 35.003906 -22.28125 29.421875 -23.03125 C 24.160156 -23.78125 18.941406 -25.742188 13.765625 -28.921875 C 11.347656 -30.421875 9.34375 -32.773438 7.75 -35.984375 C 6.164062 -39.203125 5.375 -43.019531 5.375 -47.4375 C 5.375 -60.625 14.429688 -67.21875 32.546875 -67.21875 C 38.472656 -67.21875 44.5625 -65.800781 50.8125 -62.96875 C 53.738281 -61.625 55.203125 -59.953125 55.203125 -57.953125 C 55.203125 -55.953125 54.28125 -53.488281 52.4375 -50.5625 C 50.601562 -47.644531 48.726562 -46.1875 46.8125 -46.1875 C 45.8125 -46.1875 43.953125 -46.8125 41.234375 -48.0625 C 38.523438 -49.3125 35.585938 -49.9375 32.421875 -49.9375 C 27.492188 -49.9375 25.03125 -49.019531 25.03125 -47.1875 C 25.03125 -44.6875 27.867188 -43.0625 33.546875 -42.3125 C 39.054688 -41.726562 44.394531 -40.140625 49.5625 -37.546875 C 51.988281 -36.378906 54.015625 -34.351562 55.640625 -31.46875 C 57.265625 -28.59375 58.078125 -24.984375 58.078125 -20.640625 C 58.078125 -16.304688 57.265625 -12.613281 55.640625 -9.5625 C 54.015625 -6.519531 51.738281 -4.25 48.8125 -2.75 C 43.476562 -0.164062 36.78125 1.125 28.71875 1.125 C 20.664062 1.125 12.925781 -1.210938 5.5 -5.890625 Z M 5.5 -5.890625 "/></g></g></g></svg>