<svg xmlns="http://www.w3.org/2000/svg" xmlns:xlink="http://www.w3.org/1999/xlink" width="200" zoomAndPan="magnify" viewBox="0 0 150 149.999998" height="200" preserveAspectRatio="xMidYMid meet" version="1.2"><defs/><g id="26c22115a5"><g style="fill:#2196f3;fill-opacity:1;"><g transform="translate(46.39453, 120.23302)"><path style="stroke:none" d="M 49.8125 -65.21875 C 51.40625 -64.71875 52.722656 -63.859375 53.765625 -62.640625 C 54.804688 -61.429688 55.328125 -59.492188 55.328125 -56.828125 C 55.328125 -54.160156 54.53125 -51.238281 52.9375 -48.0625 C 51.351562 -44.894531 49.0625 -43.3125 46.0625 -43.3125 C 44.5625 -43.3125 43.117188 -43.644531 41.734375 -44.3125 C 40.359375 -44.976562 38.546875 -45.3125 36.296875 -45.3125 C 34.046875 -45.3125 31.9375 -44.519531 29.96875 -42.9375 C 28.007812 -41.351562 27.03125 -39.429688 27.03125 -37.171875 L 27.03125 -10.890625 C 27.03125 -8.972656 26.96875 -7.53125 26.84375 -6.5625 C 26.71875 -5.601562 26.320312 -4.5 25.65625 -3.25 C 24.40625 -1.082031 21.148438 0 15.890625 0 C 11.890625 0 9.015625 -0.707031 7.265625 -2.125 C 5.921875 -3.289062 5.164062 -5.085938 5 -7.515625 C 5 -8.347656 5 -9.554688 5 -11.140625 L 5 -55.078125 C 5 -56.992188 5.0625 -58.429688 5.1875 -59.390625 C 5.3125 -60.347656 5.671875 -61.414062 6.265625 -62.59375 C 7.429688 -64.84375 10.679688 -65.96875 16.015625 -65.96875 C 21.023438 -65.96875 24.15625 -65.007812 25.40625 -63.09375 C 26.320312 -61.75 26.78125 -60.367188 26.78125 -58.953125 C 27.195312 -59.535156 27.800781 -60.242188 28.59375 -61.078125 C 29.394531 -61.910156 31.085938 -63.035156 33.671875 -64.453125 C 36.253906 -65.878906 38.523438 -66.59375 40.484375 -66.59375 C 42.453125 -66.59375 44.101562 -66.488281 45.4375 -66.28125 C 46.769531 -66.070312 48.226562 -65.71875 49.8125 -65.21875 Z M 49.8125 -65.21875 "/></g></g></g></svg>