<svg xmlns="http://www.w3.org/2000/svg" xmlns:xlink="http://www.w3.org/1999/xlink" width="200" zoomAndPan="magnify" viewBox="0 0 150 149.999998" height="200" preserveAspectRatio="xMidYMid meet" version="1.2"><defs/><g id="eebd2537cc"><g style="fill:#2196f3;fill-opacity:1;"><g transform="translate(38.578124, 120.23302)"><path style="stroke:none" d="M 46.5625 -59.328125 C 47.0625 -63.753906 50.316406 -65.96875 56.328125 -65.96875 C 59.492188 -65.96875 61.828125 -65.71875 63.328125 -65.21875 C 64.835938 -64.71875 65.90625 -63.859375 66.53125 -62.640625 C 67.15625 -61.429688 67.53125 -60.367188 67.65625 -59.453125 C 67.78125 -58.535156 67.84375 -57.117188 67.84375 -55.203125 L 67.84375 17.90625 C 67.84375 19.820312 67.78125 21.238281 67.65625 22.15625 C 67.53125 23.070312 67.15625 24.113281 66.53125 25.28125 C 65.90625 26.445312 64.816406 27.28125 63.265625 27.78125 C 61.722656 28.289062 59.660156 28.546875 57.078125 28.546875 C 54.492188 28.546875 52.445312 28.289062 50.9375 27.78125 C 49.4375 27.28125 48.375 26.425781 47.75 25.21875 C 47.125 24.007812 46.75 22.945312 46.625 22.03125 C 46.5 21.113281 46.4375 19.695312 46.4375 17.78125 L 46.4375 -7.515625 C 43.101562 -3.671875 38.390625 -1.75 32.296875 -1.75 C 24.867188 -1.75 18.148438 -4.960938 12.140625 -11.390625 C 6.128906 -17.816406 3.125 -25.285156 3.125 -33.796875 C 3.125 -42.304688 6.171875 -49.773438 12.265625 -56.203125 C 18.359375 -62.628906 24.804688 -65.84375 31.609375 -65.84375 C 38.410156 -65.84375 43.394531 -63.671875 46.5625 -59.328125 Z M 27.71875 -26.28125 C 29.851562 -24.113281 32.421875 -23.03125 35.421875 -23.03125 C 38.429688 -23.03125 40.9375 -24.132812 42.9375 -26.34375 C 44.9375 -28.5625 45.9375 -30.984375 45.9375 -33.609375 C 45.9375 -36.234375 44.976562 -38.691406 43.0625 -40.984375 C 41.144531 -43.285156 38.578125 -44.4375 35.359375 -44.4375 C 32.148438 -44.4375 29.539062 -43.328125 27.53125 -41.109375 C 25.53125 -38.898438 24.53125 -36.421875 24.53125 -33.671875 C 24.53125 -30.921875 25.59375 -28.457031 27.71875 -26.28125 Z M 27.71875 -26.28125 "/></g></g></g></svg>