<svg xmlns="http://www.w3.org/2000/svg" xmlns:xlink="http://www.w3.org/1999/xlink" width="200" zoomAndPan="magnify" viewBox="0 0 150 149.999998" height="200" preserveAspectRatio="xMidYMid meet" version="1.2"><defs/><g id="373f999ac1"><g style="fill:#2196f3;fill-opacity:1;"><g transform="translate(54.527342, 120.23302)"><path style="stroke:none" d="M 5 -86 C 5 -87.914062 5.0625 -89.351562 5.1875 -90.3125 C 5.3125 -91.269531 5.671875 -92.375 6.265625 -93.625 C 7.429688 -95.882812 10.679688 -97.015625 16.015625 -97.015625 C 21.109375 -97.015625 24.28125 -95.882812 25.53125 -93.625 C 26.195312 -92.375 26.59375 -91.25 26.71875 -90.25 C 26.84375 -89.25 26.90625 -87.789062 26.90625 -85.875 L 26.90625 -27.90625 C 26.90625 -24.90625 27.15625 -23.007812 27.65625 -22.21875 C 28.15625 -21.425781 29.257812 -21.03125 30.96875 -21.03125 C 32.6875 -21.03125 33.835938 -20.96875 34.421875 -20.84375 C 35.003906 -20.71875 35.710938 -20.363281 36.546875 -19.78125 C 38.210938 -18.695312 39.046875 -15.734375 39.046875 -10.890625 C 39.046875 -5.628906 38.210938 -2.414062 36.546875 -1.25 C 34.378906 0.25 29.207031 0.5 21.03125 -0.5 C 14.601562 -1.332031 10.429688 -3.460938 8.515625 -6.890625 C 6.171875 -10.972656 5 -17.476562 5 -26.40625 Z M 5 -86 "/></g></g></g></svg>