<svg xmlns="http://www.w3.org/2000/svg" xmlns:xlink="http://www.w3.org/1999/xlink" width="200" zoomAndPan="magnify" viewBox="0 0 150 149.999998" height="200" preserveAspectRatio="xMidYMid meet" version="1.2"><defs/><g id="e1e4fa3349"><g style="fill:#2196f3;fill-opacity:1;"><g transform="translate(41.449218, 120.23302)"><path style="stroke:none" d="M 43.8125 -33.046875 L 60.453125 -19.28125 C 62.546875 -17.519531 63.863281 -16.179688 64.40625 -15.265625 C 64.945312 -14.347656 65.21875 -13.472656 65.21875 -12.640625 C 65.21875 -10.640625 63.921875 -7.925781 61.328125 -4.5 C 58.492188 -1 55.992188 0.75 53.828125 0.75 C 51.984375 0.75 49.4375 -0.457031 46.1875 -2.875 L 44.9375 -3.75 C 43.019531 -5.34375 40.054688 -8.117188 36.046875 -12.078125 C 32.046875 -16.046875 29 -18.863281 26.90625 -20.53125 L 26.90625 -10.890625 C 26.90625 -8.972656 26.84375 -7.53125 26.71875 -6.5625 C 26.59375 -5.601562 26.195312 -4.5 25.53125 -3.25 C 24.445312 -1.082031 21.234375 0 15.890625 0 C 10.640625 0 7.429688 -1.125 6.265625 -3.375 C 5.671875 -4.625 5.3125 -5.726562 5.1875 -6.6875 C 5.0625 -7.65625 5 -9.097656 5 -11.015625 L 5 -86 C 5 -87.914062 5.0625 -89.351562 5.1875 -90.3125 C 5.3125 -91.269531 5.671875 -92.375 6.265625 -93.625 C 7.429688 -95.882812 10.679688 -97.015625 16.015625 -97.015625 C 20.023438 -97.015625 22.863281 -96.300781 24.53125 -94.875 C 25.945312 -93.707031 26.695312 -91.875 26.78125 -89.375 C 26.863281 -88.625 26.90625 -87.457031 26.90625 -85.875 L 26.90625 -46.1875 C 28.414062 -47.4375 30.691406 -49.5625 33.734375 -52.5625 C 36.773438 -55.570312 39.050781 -57.703125 40.5625 -58.953125 L 42.0625 -59.953125 C 44.976562 -62.210938 47.476562 -63.34375 49.5625 -63.34375 C 51.65625 -63.34375 54.054688 -61.648438 56.765625 -58.265625 C 59.472656 -54.890625 60.828125 -52.238281 60.828125 -50.3125 C 60.828125 -48.394531 59.285156 -46.144531 56.203125 -43.5625 Z M 43.8125 -33.046875 "/></g></g></g></svg>