<svg xmlns="http://www.w3.org/2000/svg" xmlns:xlink="http://www.w3.org/1999/xlink" width="200" zoomAndPan="magnify" viewBox="0 0 150 149.999998" height="200" preserveAspectRatio="xMidYMid meet" version="1.2"><defs/><g id="33980e7aa0"><g style="fill:#2196f3;fill-opacity:1;"><g transform="translate(37.453124, 120.23302)"><path style="stroke:none" d="M 3.125 -32.921875 C 3.125 -42.929688 6.628906 -51.191406 13.640625 -57.703125 C 20.648438 -64.210938 28.660156 -67.46875 37.671875 -67.46875 C 46.679688 -67.46875 54.648438 -64.234375 61.578125 -57.765625 C 68.503906 -51.296875 71.96875 -43.054688 71.96875 -33.046875 C 71.96875 -26.117188 70.171875 -19.960938 66.578125 -14.578125 C 62.992188 -9.203125 58.632812 -5.238281 53.5 -2.6875 C 48.375 -0.144531 43.054688 1.125 37.546875 1.125 C 32.046875 1.125 26.707031 -0.226562 21.53125 -2.9375 C 16.351562 -5.65625 11.988281 -9.660156 8.4375 -14.953125 C 4.894531 -20.253906 3.125 -26.242188 3.125 -32.921875 Z M 29.28125 -23.96875 C 31.957031 -21.925781 34.671875 -20.90625 37.421875 -20.90625 C 40.179688 -20.90625 42.9375 -21.945312 45.6875 -24.03125 C 48.4375 -26.113281 49.8125 -29.195312 49.8125 -33.28125 C 49.8125 -37.375 48.519531 -40.421875 45.9375 -42.421875 C 43.351562 -44.429688 40.554688 -45.4375 37.546875 -45.4375 C 34.546875 -45.4375 31.75 -44.390625 29.15625 -42.296875 C 26.570312 -40.210938 25.28125 -37.144531 25.28125 -33.09375 C 25.28125 -29.050781 26.613281 -26.007812 29.28125 -23.96875 Z M 29.28125 -23.96875 "/></g></g></g></svg>