<svg xmlns="http://www.w3.org/2000/svg" xmlns:xlink="http://www.w3.org/1999/xlink" width="200" zoomAndPan="magnify" viewBox="0 0 150 149.999998" height="200" preserveAspectRatio="xMidYMid meet" version="1.2"><defs/><g id="f28e612b60"><g style="fill:#2196f3;fill-opacity:1;"><g transform="translate(42.64453, 120.23302)"><path style="stroke:none" d="M 25.65625 -32.96875 C 25.65625 -29.425781 26.820312 -26.675781 29.15625 -24.71875 C 31.5 -22.757812 33.984375 -21.78125 36.609375 -21.78125 C 39.242188 -21.78125 41.707031 -22.550781 44 -24.09375 C 46.289062 -25.632812 48.144531 -26.40625 49.5625 -26.40625 C 52.070312 -26.40625 55.117188 -24.195312 58.703125 -19.78125 C 60.617188 -17.351562 61.578125 -15.179688 61.578125 -13.265625 C 61.578125 -10.097656 59.285156 -7.132812 54.703125 -4.375 C 49.941406 -1.039062 44.097656 0.625 37.171875 0.625 C 29.410156 0.625 21.941406 -2.171875 14.765625 -7.765625 C 11.347656 -10.429688 8.550781 -13.992188 6.375 -18.453125 C 4.207031 -22.921875 3.125 -27.847656 3.125 -33.234375 C 3.125 -38.617188 4.207031 -43.5 6.375 -47.875 C 8.550781 -52.257812 11.347656 -55.785156 14.765625 -58.453125 C 21.691406 -63.960938 29.078125 -66.71875 36.921875 -66.71875 C 40.097656 -66.71875 43.1875 -66.28125 46.1875 -65.40625 C 49.1875 -64.53125 51.398438 -63.675781 52.828125 -62.84375 L 54.828125 -61.578125 C 56.328125 -60.578125 57.492188 -59.785156 58.328125 -59.203125 C 60.492188 -57.535156 61.578125 -55.632812 61.578125 -53.5 C 61.578125 -51.375 60.703125 -48.976562 58.953125 -46.3125 C 55.953125 -41.71875 53.070312 -39.421875 50.3125 -39.421875 C 48.726562 -39.421875 46.476562 -40.34375 43.5625 -42.1875 C 42.0625 -43.601562 39.910156 -44.3125 37.109375 -44.3125 C 34.316406 -44.3125 31.707031 -43.304688 29.28125 -41.296875 C 26.863281 -39.296875 25.65625 -36.519531 25.65625 -32.96875 Z M 25.65625 -32.96875 "/></g></g></g></svg>