<svg xmlns="http://www.w3.org/2000/svg" xmlns:xlink="http://www.w3.org/1999/xlink" width="200" zoomAndPan="magnify" viewBox="0 0 150 149.999998" height="200" preserveAspectRatio="xMidYMid meet" version="1.2"><defs/><g id="958fa9c4bc"><g style="fill:#2196f3;fill-opacity:1;"><g transform="translate(21.738281, 120.23302)"><path style="stroke:none" d="M 26.53125 -57.203125 C 30.457031 -63.128906 35.175781 -66.09375 40.6875 -66.09375 C 49.195312 -66.09375 55.535156 -62.460938 59.703125 -55.203125 C 60.617188 -56.453125 61.722656 -57.765625 63.015625 -59.140625 C 64.316406 -60.515625 66.382812 -62.015625 69.21875 -63.640625 C 72.050781 -65.273438 74.972656 -66.09375 77.984375 -66.09375 C 84.660156 -66.09375 90.25 -63.523438 94.75 -58.390625 C 99.257812 -53.253906 101.515625 -44.765625 101.515625 -32.921875 L 101.515625 -11.015625 C 101.515625 -9.097656 101.453125 -7.65625 101.328125 -6.6875 C 101.203125 -5.726562 100.804688 -4.625 100.140625 -3.375 C 99.054688 -1.125 95.84375 0 90.5 0 C 85.238281 0 82.023438 -1.164062 80.859375 -3.5 C 80.273438 -4.75 79.921875 -5.851562 79.796875 -6.8125 C 79.671875 -7.78125 79.609375 -9.222656 79.609375 -11.140625 L 79.609375 -33.046875 C 79.609375 -40.304688 77.019531 -43.9375 71.84375 -43.9375 C 68.925781 -43.9375 66.945312 -42.972656 65.90625 -41.046875 C 64.863281 -39.128906 64.34375 -36.421875 64.34375 -32.921875 L 64.34375 -11.015625 C 64.34375 -9.015625 64.28125 -7.550781 64.15625 -6.625 C 64.03125 -5.707031 63.632812 -4.625 62.96875 -3.375 C 61.789062 -1.125 58.535156 0 53.203125 0 C 47.941406 0 44.726562 -1.164062 43.5625 -3.5 C 42.976562 -4.75 42.625 -5.851562 42.5 -6.8125 C 42.375 -7.78125 42.3125 -9.222656 42.3125 -11.140625 L 42.3125 -33.046875 C 42.3125 -40.304688 39.722656 -43.9375 34.546875 -43.9375 C 29.535156 -43.9375 27.03125 -40.304688 27.03125 -33.046875 L 27.03125 -10.890625 C 27.03125 -8.972656 26.96875 -7.53125 26.84375 -6.5625 C 26.71875 -5.601562 26.320312 -4.5 25.65625 -3.25 C 24.40625 -1.082031 21.148438 0 15.890625 0 C 10.640625 0 7.429688 -1.125 6.265625 -3.375 C 5.671875 -4.625 5.3125 -5.707031 5.1875 -6.625 C 5.0625 -7.550781 5 -9.015625 5 -11.015625 L 5 -55.078125 C 5 -56.992188 5.0625 -58.429688 5.1875 -59.390625 C 5.3125 -60.347656 5.710938 -61.414062 6.390625 -62.59375 C 7.640625 -64.84375 10.597656 -65.96875 15.265625 -65.96875 C 19.941406 -65.96875 22.988281 -65.210938 24.40625 -63.703125 C 25.820312 -62.203125 26.53125 -60.035156 26.53125 -57.203125 Z M 26.53125 -57.203125 "/></g></g></g></svg>