<svg xmlns="http://www.w3.org/2000/svg" xmlns:xlink="http://www.w3.org/1999/xlink" width="200" zoomAndPan="magnify" viewBox="0 0 150 149.999998" height="200" preserveAspectRatio="xMidYMid meet" version="1.2"><defs/><g id="04f7b4ef4e"><g style="fill:#2196f3;fill-opacity:1;"><g transform="translate(59.22656, 120.23302)"><path style="stroke:none" d="M 21.84375 -75.796875 C 20.300781 -75.335938 18.234375 -75.109375 15.640625 -75.109375 C 13.054688 -75.109375 11.015625 -75.359375 9.515625 -75.859375 C 8.015625 -76.359375 6.945312 -77.210938 6.3125 -78.421875 C 5.6875 -79.628906 5.3125 -80.710938 5.1875 -81.671875 C 5.0625 -82.628906 5 -84.066406 5 -85.984375 C 5 -87.910156 5.0625 -89.332031 5.1875 -90.25 C 5.3125 -91.164062 5.671875 -92.207031 6.265625 -93.375 C 7.429688 -95.539062 10.640625 -96.625 15.890625 -96.625 C 20.898438 -96.625 24.03125 -95.539062 25.28125 -93.375 C 25.863281 -92.289062 26.21875 -91.289062 26.34375 -90.375 C 26.46875 -89.457031 26.53125 -88.082031 26.53125 -86.25 L 26.53125 -85.5 C 26.53125 -83.65625 26.46875 -82.273438 26.34375 -81.359375 C 26.21875 -80.441406 25.820312 -79.398438 25.15625 -78.234375 C 24.488281 -77.066406 23.382812 -76.253906 21.84375 -75.796875 Z M 9.703125 -65.59375 C 11.242188 -66.09375 13.304688 -66.34375 15.890625 -66.34375 C 18.484375 -66.34375 20.53125 -66.09375 22.03125 -65.59375 C 23.53125 -65.09375 24.59375 -64.234375 25.21875 -63.015625 C 25.84375 -61.804688 26.21875 -60.722656 26.34375 -59.765625 C 26.46875 -58.804688 26.53125 -57.367188 26.53125 -55.453125 L 26.53125 -3.875 C 26.53125 5.882812 23.148438 13.679688 16.390625 19.515625 C 9.640625 25.359375 2.210938 28.28125 -5.890625 28.28125 C -7.804688 28.28125 -9.222656 28.21875 -10.140625 28.09375 C -11.054688 27.96875 -12.097656 27.613281 -13.265625 27.03125 C -15.429688 25.863281 -16.515625 22.816406 -16.515625 17.890625 C -16.515625 12.972656 -15.617188 9.890625 -13.828125 8.640625 C -12.035156 7.390625 -9.613281 6.765625 -6.5625 6.765625 C -3.519531 6.765625 -0.832031 5.925781 1.5 4.25 C 3.832031 2.582031 5 -0.414062 5 -4.75 L 5 -56.328125 C 5 -59.242188 5.394531 -61.390625 6.1875 -62.765625 C 6.988281 -64.148438 8.160156 -65.09375 9.703125 -65.59375 Z M 9.703125 -65.59375 "/></g></g></g></svg>