<svg xmlns="http://www.w3.org/2000/svg" xmlns:xlink="http://www.w3.org/1999/xlink" width="200" zoomAndPan="magnify" viewBox="0 0 150 149.999998" height="200" preserveAspectRatio="xMidYMid meet" version="1.2"><defs/><g id="ddbc8e9cce"><g style="fill:#2196f3;fill-opacity:1;"><g transform="translate(37.570312, 120.23302)"><path style="stroke:none" d="M 49.25 -93.4375 C 49.875 -94.644531 50.976562 -95.5 52.5625 -96 C 54.15625 -96.507812 56.265625 -96.765625 58.890625 -96.765625 C 61.523438 -96.765625 63.632812 -96.507812 65.21875 -96 C 66.800781 -95.5 67.90625 -94.625 68.53125 -93.375 C 69.15625 -92.125 69.53125 -91.019531 69.65625 -90.0625 C 69.78125 -89.101562 69.84375 -87.664062 69.84375 -85.75 L 69.84375 -11.015625 C 69.84375 -9.097656 69.78125 -7.65625 69.65625 -6.6875 C 69.53125 -5.726562 69.132812 -4.664062 68.46875 -3.5 C 67.21875 -1.25 63.691406 -0.125 57.890625 -0.125 C 52.085938 -0.125 48.851562 -2.171875 48.1875 -6.265625 C 44.6875 -2.253906 39.804688 -0.25 33.546875 -0.25 C 26.035156 -0.25 19.191406 -3.523438 13.015625 -10.078125 C 6.835938 -16.628906 3.75 -24.265625 3.75 -32.984375 C 3.75 -41.703125 6.859375 -49.359375 13.078125 -55.953125 C 19.296875 -62.546875 26.117188 -65.84375 33.546875 -65.84375 C 39.722656 -65.84375 44.519531 -63.753906 47.9375 -59.578125 L 47.9375 -85.875 C 47.9375 -87.789062 48 -89.226562 48.125 -90.1875 C 48.25 -91.144531 48.625 -92.226562 49.25 -93.4375 Z M 28.90625 -25.40625 C 31.082031 -23.15625 33.710938 -22.03125 36.796875 -22.03125 C 39.890625 -22.03125 42.457031 -23.15625 44.5 -25.40625 C 46.539062 -27.664062 47.5625 -30.148438 47.5625 -32.859375 C 47.5625 -35.566406 46.582031 -38.085938 44.625 -40.421875 C 42.664062 -42.765625 40.015625 -43.9375 36.671875 -43.9375 C 33.335938 -43.9375 30.664062 -42.785156 28.65625 -40.484375 C 26.65625 -38.191406 25.65625 -35.671875 25.65625 -32.921875 C 25.65625 -30.171875 26.738281 -27.664062 28.90625 -25.40625 Z M 28.90625 -25.40625 "/></g></g></g></svg>