<svg xmlns="http://www.w3.org/2000/svg" xmlns:xlink="http://www.w3.org/1999/xlink" width="200" zoomAndPan="magnify" viewBox="0 0 150 149.999998" height="200" preserveAspectRatio="xMidYMid meet" version="1.2"><defs/><g id="26440e9b30"><g style="fill:#2196f3;fill-opacity:1;"><g transform="translate(49.15288, 104.272759)"><path style="stroke:none" d="M 47.09375 -39.265625 C 47.09375 -36.242188 47.050781 -32.859375 46.96875 -29.109375 C 46.894531 -25.359375 46.816406 -21.546875 46.734375 -17.671875 C 46.648438 -13.796875 46.648438 -10.023438 46.734375 -6.359375 C 46.816406 -2.691406 47.019531 0.566406 47.34375 3.421875 C 47.664062 6.273438 48.113281 8.597656 48.6875 10.390625 C 49.257812 12.191406 50.078125 13.132812 51.140625 13.21875 C 52.523438 13.375 53.421875 12.859375 53.828125 11.671875 C 54.234375 10.492188 54.4375 9.128906 54.4375 7.578125 C 54.4375 6.035156 54.882812 4.875 55.78125 4.09375 C 56.675781 3.320312 57.65625 2.957031 58.71875 3 C 59.78125 3.039062 60.78125 3.488281 61.71875 4.34375 C 62.65625 5.195312 63.164062 6.398438 63.25 7.953125 C 63.488281 12.359375 62.648438 15.882812 60.734375 18.53125 C 58.816406 21.1875 55.578125 22.550781 51.015625 22.625 C 48.078125 22.625 45.789062 21.644531 44.15625 19.6875 C 42.53125 17.738281 41.304688 15.394531 40.484375 12.65625 C 39.671875 9.925781 39.140625 7.15625 38.890625 4.34375 C 38.648438 1.53125 38.488281 -0.734375 38.40625 -2.453125 C 36.289062 -0.734375 34.070312 0.367188 31.75 0.859375 C 29.425781 1.347656 27.203125 1.59375 25.078125 1.59375 C 22.140625 1.59375 19.363281 1.003906 16.75 -0.171875 C 14.144531 -1.359375 11.863281 -2.953125 9.90625 -4.953125 C 7.945312 -6.953125 6.414062 -9.296875 5.3125 -11.984375 C 4.21875 -14.679688 3.671875 -17.492188 3.671875 -20.421875 C 3.671875 -23.359375 4.21875 -26.171875 5.3125 -28.859375 C 6.414062 -31.554688 7.945312 -33.921875 9.90625 -35.953125 C 11.863281 -37.992188 14.144531 -39.609375 16.75 -40.796875 C 19.363281 -41.984375 22.140625 -42.578125 25.078125 -42.578125 C 27.441406 -42.578125 29.660156 -42.207031 31.734375 -41.46875 C 33.816406 -40.738281 35.757812 -39.679688 37.5625 -38.296875 L 37.671875 -40.25 C 37.671875 -41.226562 38.222656 -42.019531 39.328125 -42.625 C 40.429688 -43.238281 41.59375 -43.566406 42.8125 -43.609375 C 44.039062 -43.648438 45.125 -43.320312 46.0625 -42.625 C 47 -41.9375 47.34375 -40.816406 47.09375 -39.265625 Z M 12.59375 -20.546875 C 12.59375 -18.835938 12.921875 -17.207031 13.578125 -15.65625 C 14.234375 -14.101562 15.128906 -12.753906 16.265625 -11.609375 C 17.410156 -10.472656 18.71875 -9.554688 20.1875 -8.859375 C 21.65625 -8.171875 23.242188 -7.828125 24.953125 -7.828125 C 26.671875 -7.828125 28.257812 -8.171875 29.71875 -8.859375 C 31.1875 -9.554688 32.492188 -10.472656 33.640625 -11.609375 C 34.785156 -12.753906 35.679688 -14.101562 36.328125 -15.65625 C 36.984375 -17.207031 37.3125 -18.835938 37.3125 -20.546875 C 37.3125 -22.265625 36.984375 -23.894531 36.328125 -25.4375 C 35.679688 -26.988281 34.785156 -28.351562 33.640625 -29.53125 C 32.492188 -30.71875 31.1875 -31.65625 29.71875 -32.34375 C 28.257812 -33.039062 26.671875 -33.390625 24.953125 -33.390625 C 23.242188 -33.390625 21.65625 -33.039062 20.1875 -32.34375 C 18.71875 -31.65625 17.410156 -30.71875 16.265625 -29.53125 C 15.128906 -28.351562 14.234375 -26.988281 13.578125 -25.4375 C 12.921875 -23.894531 12.59375 -22.265625 12.59375 -20.546875 Z M 12.59375 -20.546875 "/></g></g></g></svg>