<svg xmlns="http://www.w3.org/2000/svg" xmlns:xlink="http://www.w3.org/1999/xlink" width="200" zoomAndPan="magnify" viewBox="0 0 150 149.999998" height="200" preserveAspectRatio="xMidYMid meet" version="1.2"><defs/><g id="596b5edd47"><g style="fill:#2196f3;fill-opacity:1;"><g transform="translate(37.066405, 120.23302)"><path style="stroke:none" d="M 34.296875 -0.25 C 25.867188 -0.25 18.878906 -3.441406 13.328125 -9.828125 C 7.773438 -16.210938 5 -23.992188 5 -33.171875 L 5 -55.078125 C 5 -57.078125 5.0625 -58.535156 5.1875 -59.453125 C 5.3125 -60.367188 5.671875 -61.457031 6.265625 -62.71875 C 7.429688 -64.96875 10.679688 -66.09375 16.015625 -66.09375 C 21.859375 -66.09375 25.28125 -64.503906 26.28125 -61.328125 C 26.78125 -59.992188 27.03125 -57.867188 27.03125 -54.953125 L 27.03125 -33.046875 C 27.03125 -29.617188 28.007812 -26.945312 29.96875 -25.03125 C 31.9375 -23.113281 34.566406 -22.15625 37.859375 -22.15625 C 41.160156 -22.15625 43.832031 -23.15625 45.875 -25.15625 C 47.914062 -27.15625 48.9375 -29.785156 48.9375 -33.046875 L 48.9375 -55.203125 C 48.9375 -57.117188 49 -58.554688 49.125 -59.515625 C 49.25 -60.472656 49.644531 -61.582031 50.3125 -62.84375 C 51.40625 -65.007812 54.617188 -66.09375 59.953125 -66.09375 C 65.210938 -66.09375 68.425781 -64.96875 69.59375 -62.71875 C 70.175781 -61.457031 70.53125 -60.347656 70.65625 -59.390625 C 70.78125 -58.429688 70.84375 -56.992188 70.84375 -55.078125 L 70.84375 -10.765625 C 70.84375 -8.929688 70.78125 -7.53125 70.65625 -6.5625 C 70.53125 -5.601562 70.132812 -4.539062 69.46875 -3.375 C 68.21875 -1.207031 65.003906 -0.125 59.828125 -0.125 C 54.742188 -0.125 51.613281 -1.125 50.4375 -3.125 C 49.601562 -4.539062 49.1875 -6.253906 49.1875 -8.265625 C 48.851562 -7.679688 48.101562 -6.84375 46.9375 -5.75 C 45.769531 -4.664062 44.644531 -3.75 43.5625 -3 C 40.71875 -1.164062 37.628906 -0.25 34.296875 -0.25 Z M 34.296875 -0.25 "/></g></g></g></svg>