<svg xmlns="http://www.w3.org/2000/svg" xmlns:xlink="http://www.w3.org/1999/xlink" width="200" zoomAndPan="magnify" viewBox="0 0 150 149.999998" height="200" preserveAspectRatio="xMidYMid meet" version="1.2"><defs/><g id="95d801d2f1"><g style="fill:#2196f3;fill-opacity:1;"><g transform="translate(37.499999, 118.832995)"><path style="stroke:none" d="M 65.8125 -64.6875 C 70.695312 -62.539062 73.140625 -59.9375 73.140625 -56.875 C 73.140625 -55.382812 72.804688 -53.972656 72.140625 -52.640625 C 71.484375 -51.316406 71.15625 -50.613281 71.15625 -50.53125 L 38.625 22.234375 C 37.957031 23.804688 37.394531 25.003906 36.9375 25.828125 C 36.488281 26.648438 35.765625 27.429688 34.765625 28.171875 C 33.773438 28.921875 32.535156 29.296875 31.046875 29.296875 C 29.554688 29.296875 27.363281 28.675781 24.46875 27.4375 C 19.582031 25.289062 17.140625 22.726562 17.140625 19.75 C 17.140625 17.757812 21.113281 8.28125 29.0625 -8.6875 L 4.34375 -50.296875 C 2.6875 -53.023438 1.859375 -55.050781 1.859375 -56.375 C 1.859375 -59.019531 4.09375 -61.671875 8.5625 -64.328125 C 11.382812 -65.972656 13.582031 -66.796875 15.15625 -66.796875 C 16.726562 -66.796875 18.007812 -66.460938 19 -65.796875 C 19.988281 -65.140625 20.710938 -64.457031 21.171875 -63.75 C 21.628906 -63.050781 23.90625 -59.203125 28 -52.203125 C 32.09375 -45.210938 36.003906 -38.695312 39.734375 -32.65625 C 40.148438 -33.976562 42.382812 -39.085938 46.4375 -47.984375 C 50.5 -56.890625 52.671875 -61.628906 52.953125 -62.203125 C 53.242188 -62.785156 53.722656 -63.492188 54.390625 -64.328125 C 55.460938 -65.734375 56.972656 -66.4375 58.921875 -66.4375 C 60.867188 -66.4375 63.164062 -65.851562 65.8125 -64.6875 Z M 65.8125 -64.6875 "/></g></g></g></svg>