<svg xmlns="http://www.w3.org/2000/svg" xmlns:xlink="http://www.w3.org/1999/xlink" width="200" zoomAndPan="magnify" viewBox="0 0 150 149.999998" height="200" preserveAspectRatio="xMidYMid meet" version="1.2"><defs/><g id="c637cc0521"><g style="fill:#2196f3;fill-opacity:1;"><g transform="translate(25.371094, 120.23302)"><path style="stroke:none" d="M 89.375 -65.46875 C 94.71875 -63.125 97.390625 -60.242188 97.390625 -56.828125 C 97.390625 -55.410156 96.71875 -53.132812 95.375 -50 C 94.039062 -46.875 92.914062 -44.144531 92 -41.8125 L 78.234375 -8.265625 C 76.984375 -4.585938 74.894531 -2 71.96875 -0.5 C 70.71875 0.0820312 69.132812 0.375 67.21875 0.375 C 65.300781 0.375 63.441406 -0.351562 61.640625 -1.8125 C 59.847656 -3.269531 58.660156 -4.753906 58.078125 -6.265625 L 57.078125 -8.390625 C 56.410156 -10.054688 53.945312 -16.5625 49.6875 -27.90625 C 48.851562 -25.90625 47.625 -22.628906 46 -18.078125 C 44.375 -13.535156 43.332031 -10.703125 42.875 -9.578125 C 42.414062 -8.453125 42.125 -7.703125 42 -7.328125 C 41.875 -6.953125 41.519531 -6.257812 40.9375 -5.25 C 40.351562 -4.25 39.679688 -3.375 38.921875 -2.625 C 36.921875 -0.625 34.625 0.375 32.03125 0.375 C 29.445312 0.375 27.28125 -0.351562 25.53125 -1.8125 C 23.78125 -3.269531 22.613281 -4.753906 22.03125 -6.265625 L 3.125 -52.328125 C 2.289062 -54.828125 1.875 -56.453125 1.875 -57.203125 C 1.875 -60.535156 4.253906 -63.164062 9.015625 -65.09375 C 11.679688 -66.175781 13.847656 -66.71875 15.515625 -66.71875 C 17.191406 -66.71875 18.550781 -66.363281 19.59375 -65.65625 C 20.632812 -64.945312 21.363281 -64.234375 21.78125 -63.515625 C 22.195312 -62.804688 22.53125 -62.078125 22.78125 -61.328125 C 24.195312 -57.992188 27.160156 -50.148438 31.671875 -37.796875 L 39.046875 -58.078125 C 39.546875 -59.742188 40.46875 -61.203125 41.8125 -62.453125 C 44.226562 -64.878906 46.6875 -66.09375 49.1875 -66.09375 C 51.695312 -66.09375 53.847656 -65.421875 55.640625 -64.078125 C 57.429688 -62.742188 58.660156 -61.410156 59.328125 -60.078125 L 60.328125 -57.953125 C 64.503906 -46.273438 66.96875 -39.597656 67.71875 -37.921875 L 75.359375 -58.703125 C 77.359375 -64.046875 80.359375 -66.71875 84.359375 -66.71875 C 85.953125 -66.71875 87.625 -66.300781 89.375 -65.46875 Z M 89.375 -65.46875 "/></g></g></g></svg>