<svg xmlns="http://www.w3.org/2000/svg" xmlns:xlink="http://www.w3.org/1999/xlink" width="200" zoomAndPan="magnify" viewBox="0 0 150 149.999998" height="200" preserveAspectRatio="xMidYMid meet" version="1.2"><defs/><g id="c443cc700a"><g style="fill:#2196f3;fill-opacity:1;"><g transform="translate(37.945312, 120.23302)"><path style="stroke:none" d="M 41.1875 -65.84375 C 48.613281 -65.84375 55.429688 -62.546875 61.640625 -55.953125 C 67.859375 -49.359375 70.96875 -41.703125 70.96875 -32.984375 C 70.96875 -24.265625 67.878906 -16.628906 61.703125 -10.078125 C 55.535156 -3.523438 48.90625 -0.25 41.8125 -0.25 C 34.71875 -0.25 29.664062 -2.253906 26.65625 -6.265625 C 25.988281 -2.171875 22.398438 -0.125 15.890625 -0.125 C 10.640625 -0.125 7.429688 -1.25 6.265625 -3.5 C 5.671875 -4.75 5.3125 -5.851562 5.1875 -6.8125 C 5.0625 -7.78125 5 -9.222656 5 -11.140625 L 5 -85.875 C 5 -87.789062 5.0625 -89.226562 5.1875 -90.1875 C 5.3125 -91.144531 5.671875 -92.207031 6.265625 -93.375 C 7.429688 -95.632812 10.679688 -96.765625 16.015625 -96.765625 C 21.273438 -96.765625 24.445312 -95.632812 25.53125 -93.375 C 26.195312 -92.125 26.59375 -91.019531 26.71875 -90.0625 C 26.84375 -89.101562 26.90625 -87.664062 26.90625 -85.75 L 26.90625 -59.703125 C 30.25 -63.796875 35.007812 -65.84375 41.1875 -65.84375 Z M 30.21875 -25.40625 C 32.269531 -23.15625 34.835938 -22.03125 37.921875 -22.03125 C 41.015625 -22.03125 43.644531 -23.15625 45.8125 -25.40625 C 47.976562 -27.664062 49.0625 -30.171875 49.0625 -32.921875 C 49.0625 -35.671875 48.0625 -38.191406 46.0625 -40.484375 C 44.0625 -42.785156 41.390625 -43.9375 38.046875 -43.9375 C 34.710938 -43.9375 32.0625 -42.765625 30.09375 -40.421875 C 28.132812 -38.085938 27.15625 -35.566406 27.15625 -32.859375 C 27.15625 -30.148438 28.175781 -27.664062 30.21875 -25.40625 Z M 30.21875 -25.40625 "/></g></g></g></svg>