<svg xmlns="http://www.w3.org/2000/svg" xmlns:xlink="http://www.w3.org/1999/xlink" width="200" zoomAndPan="magnify" viewBox="0 0 150 149.999998" height="200" preserveAspectRatio="xMidYMid meet" version="1.2"><defs/><g id="d869a2be6c"><g style="fill:#2196f3;fill-opacity:1;"><g transform="translate(46.839842, 120.23302)"><path style="stroke:none" d="M 43.5625 -65.84375 C 49.320312 -65.84375 52.703125 -64.253906 53.703125 -61.078125 C 54.203125 -59.492188 54.453125 -57.40625 54.453125 -54.8125 C 54.453125 -52.226562 54.179688 -50.164062 53.640625 -48.625 C 53.097656 -47.082031 52.238281 -45.976562 51.0625 -45.3125 C 49.3125 -44.3125 46.769531 -43.8125 43.4375 -43.8125 L 35.421875 -44.3125 L 35.421875 -10.765625 C 35.421875 -7.597656 35.023438 -5.238281 34.234375 -3.6875 C 33.441406 -2.144531 32.226562 -1.125 30.59375 -0.625 C 28.96875 -0.125 26.863281 0.125 24.28125 0.125 C 21.695312 0.125 19.628906 -0.144531 18.078125 -0.6875 C 16.535156 -1.226562 15.429688 -2.101562 14.765625 -3.3125 C 14.097656 -4.519531 13.703125 -5.625 13.578125 -6.625 C 13.453125 -7.632812 13.390625 -9.097656 13.390625 -11.015625 L 13.390625 -44.1875 L 8.890625 -44.1875 C 6.710938 -44.351562 5.164062 -44.851562 4.25 -45.6875 C 2.664062 -47.269531 1.875 -50.316406 1.875 -54.828125 C 1.875 -61.671875 4.335938 -65.09375 9.265625 -65.09375 L 13.390625 -65.09375 L 13.390625 -71.71875 C 13.390625 -78.144531 15.679688 -83.96875 20.265625 -89.1875 C 24.859375 -94.40625 31.5 -97.015625 40.1875 -97.015625 C 42.101562 -97.015625 43.539062 -96.945312 44.5 -96.8125 C 45.457031 -96.6875 46.5625 -96.289062 47.8125 -95.625 C 50.0625 -94.539062 51.1875 -91.332031 51.1875 -86 C 51.1875 -81.988281 50.476562 -79.109375 49.0625 -77.359375 C 47.894531 -76.023438 46.0625 -75.273438 43.5625 -75.109375 C 42.8125 -75.109375 41.644531 -75.109375 40.0625 -75.109375 C 36.96875 -75.109375 35.421875 -74.0625 35.421875 -71.96875 L 35.421875 -65.09375 Z M 43.5625 -65.84375 "/></g></g></g></svg>