<svg xmlns="http://www.w3.org/2000/svg" xmlns:xlink="http://www.w3.org/1999/xlink" width="200" zoomAndPan="magnify" viewBox="0 0 150 149.999998" height="200" preserveAspectRatio="xMidYMid meet" version="1.2"><defs/><g id="88bb73f47c"><g style="fill:#2196f3;fill-opacity:1;"><g transform="translate(38.390624, 120.23302)"><path style="stroke:none" d="M 46.8125 -8.265625 C 43.644531 -4.085938 38.597656 -2 31.671875 -2 C 24.742188 -2 18.253906 -5.191406 12.203125 -11.578125 C 6.148438 -17.960938 3.125 -25.410156 3.125 -33.921875 C 3.125 -42.429688 6.171875 -49.898438 12.265625 -56.328125 C 18.359375 -62.753906 25.035156 -65.96875 32.296875 -65.96875 C 35.128906 -65.96875 37.710938 -65.445312 40.046875 -64.40625 C 42.390625 -63.363281 44 -62.398438 44.875 -61.515625 C 45.75 -60.640625 46.4375 -59.828125 46.9375 -59.078125 C 47.1875 -61.421875 48.039062 -63.195312 49.5 -64.40625 C 50.96875 -65.613281 53.328125 -66.21875 56.578125 -66.21875 C 59.828125 -66.21875 62.203125 -65.96875 63.703125 -65.46875 C 65.210938 -64.96875 66.28125 -64.109375 66.90625 -62.890625 C 67.53125 -61.679688 67.90625 -60.617188 68.03125 -59.703125 C 68.15625 -58.785156 68.21875 -57.367188 68.21875 -55.453125 L 68.21875 -3.625 C 68.21875 5.96875 64.878906 13.703125 58.203125 19.578125 C 51.523438 25.460938 44.015625 28.40625 35.671875 28.40625 C 29.328125 28.40625 23.273438 26.863281 17.515625 23.78125 C 11.765625 20.695312 8.890625 17.898438 8.890625 15.390625 C 8.890625 12.140625 10.140625 9.265625 12.640625 6.765625 C 14.222656 5.003906 15.453125 3.789062 16.328125 3.125 C 17.210938 2.457031 18.238281 2.125 19.40625 2.125 C 20.570312 2.125 21.78125 2.625 23.03125 3.625 C 27.039062 6.71875 31.378906 8.265625 36.046875 8.265625 C 39.222656 8.265625 41.8125 7.007812 43.8125 4.5 C 45.8125 2 46.8125 -1 46.8125 -4.5 Z M 24.53125 -33.859375 C 24.53125 -31.148438 25.59375 -28.707031 27.71875 -26.53125 C 29.851562 -24.363281 32.441406 -23.28125 35.484375 -23.28125 C 38.535156 -23.28125 41.0625 -24.382812 43.0625 -26.59375 C 45.0625 -28.8125 46.0625 -31.234375 46.0625 -33.859375 C 46.0625 -36.484375 45.101562 -38.941406 43.1875 -41.234375 C 41.269531 -43.535156 38.679688 -44.6875 35.421875 -44.6875 C 32.171875 -44.6875 29.539062 -43.554688 27.53125 -41.296875 C 25.53125 -39.046875 24.53125 -36.566406 24.53125 -33.859375 Z M 24.53125 -33.859375 "/></g></g></g></svg>