<svg xmlns="http://www.w3.org/2000/svg" xmlns:xlink="http://www.w3.org/1999/xlink" width="200" zoomAndPan="magnify" viewBox="0 0 150 149.999998" height="200" preserveAspectRatio="xMidYMid meet" version="1.2"><defs/><g id="9d9e0453fc"><g style="fill:#2196f3;fill-opacity:1;"><g transform="translate(38.320312, 120.23302)"><path style="stroke:none" d="M 37.921875 -22.03125 L 59.328125 -22.03125 C 62.671875 -22.03125 65.070312 -21.613281 66.53125 -20.78125 C 67.988281 -19.945312 68.96875 -18.734375 69.46875 -17.140625 C 69.96875 -15.554688 70.21875 -13.472656 70.21875 -10.890625 C 70.21875 -8.304688 69.96875 -6.21875 69.46875 -4.625 C 68.96875 -3.039062 68.09375 -1.9375 66.84375 -1.3125 C 65.59375 -0.6875 64.484375 -0.3125 63.515625 -0.1875 C 62.554688 -0.0625 61.117188 0 59.203125 0 L 14.015625 0 C 11.097656 0 8.550781 -1.082031 6.375 -3.25 C 4.207031 -5.425781 3.125 -8.015625 3.125 -11.015625 C 3.125 -14.015625 4.207031 -16.578125 6.375 -18.703125 C 8.550781 -20.835938 11.890625 -23.90625 16.390625 -27.90625 C 20.898438 -31.914062 24.988281 -35.523438 28.65625 -38.734375 C 32.332031 -41.953125 34.335938 -43.726562 34.671875 -44.0625 L 17.015625 -44.0625 C 12.265625 -44.0625 9.265625 -44.851562 8.015625 -46.4375 C 6.597656 -48.269531 5.890625 -50.6875 5.890625 -53.6875 C 5.890625 -56.695312 6.097656 -58.929688 6.515625 -60.390625 C 6.929688 -61.859375 7.429688 -62.945312 8.015625 -63.65625 C 8.597656 -64.363281 9.429688 -64.925781 10.515625 -65.34375 C 11.929688 -65.757812 14.097656 -65.96875 17.015625 -65.96875 L 57.703125 -65.96875 C 60.617188 -65.96875 63.160156 -64.921875 65.328125 -62.828125 C 67.503906 -60.742188 68.59375 -58.132812 68.59375 -55 C 68.59375 -51.875 67.335938 -49.101562 64.828125 -46.6875 C 62.328125 -44.269531 53.359375 -36.050781 37.921875 -22.03125 Z M 37.921875 -22.03125 "/></g></g></g></svg>