<svg xmlns="http://www.w3.org/2000/svg" xmlns:xlink="http://www.w3.org/1999/xlink" width="200" zoomAndPan="magnify" viewBox="0 0 150 149.999998" height="200" preserveAspectRatio="xMidYMid meet" version="1.2"><defs/><g id="5492a38d1f"><g style="fill:#2196f3;fill-opacity:1;"><g transform="translate(39.515624, 120.23302)"><path style="stroke:none" d="M 50.6875 -33.046875 L 64.59375 -19.03125 C 67.59375 -16.019531 69.09375 -13.453125 69.09375 -11.328125 C 69.09375 -9.203125 67.585938 -6.65625 64.578125 -3.6875 C 61.578125 -0.726562 59.035156 0.75 56.953125 0.75 C 54.867188 0.75 52.320312 -0.75 49.3125 -3.75 L 35.546875 -17.65625 L 21.65625 -3.75 C 18.65625 -0.75 16.128906 0.75 14.078125 0.75 C 12.035156 0.75 9.488281 -0.726562 6.4375 -3.6875 C 3.394531 -6.65625 1.875 -9.203125 1.875 -11.328125 C 1.875 -13.453125 3.378906 -16.019531 6.390625 -19.03125 L 20.28125 -33.046875 L 6.390625 -47.0625 C 3.378906 -50.070312 1.875 -52.640625 1.875 -54.765625 C 1.875 -56.890625 3.394531 -59.453125 6.4375 -62.453125 C 9.488281 -65.460938 12.035156 -66.96875 14.078125 -66.96875 C 16.128906 -66.96875 18.65625 -65.460938 21.65625 -62.453125 L 35.546875 -48.4375 L 49.3125 -62.453125 C 52.320312 -65.460938 54.867188 -66.96875 56.953125 -66.96875 C 59.035156 -66.96875 61.578125 -65.460938 64.578125 -62.453125 C 67.585938 -59.453125 69.09375 -56.890625 69.09375 -54.765625 C 69.09375 -52.640625 67.59375 -50.070312 64.59375 -47.0625 Z M 50.6875 -33.046875 "/></g></g></g></svg>