<svg xmlns="http://www.w3.org/2000/svg" xmlns:xlink="http://www.w3.org/1999/xlink" width="200" zoomAndPan="magnify" viewBox="0 0 150 149.999998" height="200" preserveAspectRatio="xMidYMid meet" version="1.2"><defs/><g id="c7d4627c89"><g style="fill:#2196f3;fill-opacity:1;"><g transform="translate(39.140624, 120.23302)"><path style="stroke:none" d="M 68.59375 -40.859375 C 68.59375 -35.734375 67.316406 -31.9375 64.765625 -29.46875 C 62.222656 -27.007812 59.410156 -25.78125 56.328125 -25.78125 L 26.65625 -25.78125 C 26.65625 -23.445312 28.03125 -21.488281 30.78125 -19.90625 C 33.539062 -18.320312 36.296875 -17.53125 39.046875 -17.53125 C 43.890625 -17.53125 47.6875 -18.03125 50.4375 -19.03125 L 51.828125 -19.53125 C 53.828125 -20.445312 55.492188 -20.90625 56.828125 -20.90625 C 59.492188 -20.90625 61.789062 -19.023438 63.71875 -15.265625 C 64.800781 -13.015625 65.34375 -11.097656 65.34375 -9.515625 C 65.34375 -2.085938 56.453125 1.625 38.671875 1.625 C 32.503906 1.625 27.019531 0.5625 22.21875 -1.5625 C 17.414062 -3.6875 13.679688 -6.503906 11.015625 -10.015625 C 5.753906 -16.773438 3.125 -24.328125 3.125 -32.671875 C 3.125 -43.179688 6.523438 -51.585938 13.328125 -57.890625 C 20.128906 -64.191406 28.617188 -67.34375 38.796875 -67.34375 C 50.398438 -67.34375 58.914062 -63.253906 64.34375 -55.078125 C 67.175781 -50.734375 68.59375 -45.992188 68.59375 -40.859375 Z M 42.1875 -37.171875 C 45.351562 -37.171875 46.9375 -38.507812 46.9375 -41.1875 C 46.9375 -43.101562 46.207031 -44.644531 44.75 -45.8125 C 43.289062 -46.976562 41.203125 -47.5625 38.484375 -47.5625 C 35.773438 -47.5625 33.082031 -46.457031 30.40625 -44.25 C 27.738281 -42.039062 26.40625 -39.679688 26.40625 -37.171875 Z M 42.1875 -37.171875 "/></g></g></g></svg>