<svg xmlns="http://www.w3.org/2000/svg" xmlns:xlink="http://www.w3.org/1999/xlink" width="200" zoomAndPan="magnify" viewBox="0 0 150 149.999998" height="200" preserveAspectRatio="xMidYMid meet" version="1.2"><defs/><g id="d101839bb3"><g style="fill:#2196f3;fill-opacity:1;"><g transform="translate(35.074218, 120.23302)"><path style="stroke:none" d="M 71.46875 -64.46875 C 75.8125 -61.875 77.984375 -59.117188 77.984375 -56.203125 C 77.984375 -54.535156 77.148438 -52.238281 75.484375 -49.3125 L 49.5625 -4.875 C 48.726562 -3.457031 47.394531 -2.1875 45.5625 -1.0625 C 43.726562 0.0625 41.910156 0.625 40.109375 0.625 C 38.316406 0.625 36.609375 0.1875 34.984375 -0.6875 C 33.359375 -1.5625 32.210938 -2.457031 31.546875 -3.375 L 30.421875 -4.75 L 4.375 -49.3125 C 2.707031 -52.070312 1.875 -54.328125 1.875 -56.078125 C 1.875 -59.078125 4.046875 -61.875 8.390625 -64.46875 C 11.554688 -66.300781 14.054688 -67.21875 15.890625 -67.21875 C 17.734375 -67.21875 19.175781 -66.65625 20.21875 -65.53125 C 21.257812 -64.40625 22.363281 -62.710938 23.53125 -60.453125 L 39.9375 -28.921875 L 56.328125 -60.453125 C 57.242188 -62.046875 57.929688 -63.195312 58.390625 -63.90625 C 58.847656 -64.613281 59.578125 -65.320312 60.578125 -66.03125 C 61.578125 -66.738281 62.910156 -67.09375 64.578125 -67.09375 C 66.253906 -67.09375 68.550781 -66.21875 71.46875 -64.46875 Z M 71.46875 -64.46875 "/></g></g></g></svg>