<svg xmlns="http://www.w3.org/2000/svg" xmlns:xlink="http://www.w3.org/1999/xlink" width="200" zoomAndPan="magnify" viewBox="0 0 150 149.999998" height="200" preserveAspectRatio="xMidYMid meet" version="1.2"><defs/><g id="2c6a731ba1"><g style="fill:#2196f3;fill-opacity:1;"><g transform="translate(46.898436, 120.23302)"><path style="stroke:none" d="M 43.3125 -43.8125 L 35.171875 -44.3125 L 35.171875 -27.03125 C 35.171875 -24.78125 35.523438 -23.15625 36.234375 -22.15625 C 36.941406 -21.15625 38.273438 -20.65625 40.234375 -20.65625 C 42.203125 -20.65625 43.707031 -20.59375 44.75 -20.46875 C 45.789062 -20.34375 46.894531 -19.945312 48.0625 -19.28125 C 49.976562 -18.195312 50.9375 -15.398438 50.9375 -10.890625 C 50.9375 -5.628906 49.769531 -2.414062 47.4375 -1.25 C 46.1875 -0.664062 45.082031 -0.3125 44.125 -0.1875 C 43.164062 -0.0625 41.769531 0 39.9375 0 C 31.25 0 24.648438 -1.957031 20.140625 -5.875 C 15.640625 -9.800781 13.390625 -16.4375 13.390625 -25.78125 L 13.390625 -44.3125 C 11.804688 -44.0625 10.09375 -43.9375 8.25 -43.9375 C 6.414062 -43.9375 4.894531 -44.644531 3.6875 -46.0625 C 2.476562 -47.476562 1.875 -49.894531 1.875 -53.3125 C 1.875 -56.738281 2.082031 -59.222656 2.5 -60.765625 C 2.914062 -62.316406 3.5 -63.425781 4.25 -64.09375 C 5.59375 -65.175781 7.265625 -65.71875 9.265625 -65.71875 L 13.390625 -65.21875 L 13.390625 -78.109375 C 13.390625 -80.023438 13.453125 -81.441406 13.578125 -82.359375 C 13.703125 -83.273438 14.097656 -84.28125 14.765625 -85.375 C 15.847656 -87.457031 19.0625 -88.5 24.40625 -88.5 C 30.082031 -88.5 33.460938 -86.953125 34.546875 -83.859375 C 34.960938 -82.523438 35.171875 -80.398438 35.171875 -77.484375 L 35.171875 -65.21875 C 38.847656 -65.550781 41.625 -65.71875 43.5 -65.71875 C 45.375 -65.71875 46.789062 -65.65625 47.75 -65.53125 C 48.707031 -65.40625 49.8125 -65.007812 51.0625 -64.34375 C 53.238281 -63.257812 54.328125 -60.046875 54.328125 -54.703125 C 54.328125 -49.441406 53.195312 -46.226562 50.9375 -45.0625 C 49.6875 -44.476562 48.582031 -44.125 47.625 -44 C 46.664062 -43.875 45.226562 -43.8125 43.3125 -43.8125 Z M 43.3125 -43.8125 "/></g></g></g></svg>