<svg xmlns="http://www.w3.org/2000/svg" xmlns:xlink="http://www.w3.org/1999/xlink" width="200" zoomAndPan="magnify" viewBox="0 0 150 149.999998" height="200" preserveAspectRatio="xMidYMid meet" version="1.2"><defs/><g id="0966214070"><g style="fill:#2196f3;fill-opacity:1;"><g transform="translate(37.066405, 120.23302)"><path style="stroke:none" d="M 41.6875 -65.96875 C 50.03125 -65.96875 56.972656 -62.773438 62.515625 -56.390625 C 68.066406 -50.003906 70.84375 -42.222656 70.84375 -33.046875 L 70.84375 -11.015625 C 70.84375 -9.097656 70.78125 -7.65625 70.65625 -6.6875 C 70.53125 -5.726562 70.175781 -4.664062 69.59375 -3.5 C 68.425781 -1.25 65.171875 -0.125 59.828125 -0.125 C 53.898438 -0.125 50.476562 -1.664062 49.5625 -4.75 C 49.0625 -6.175781 48.8125 -8.304688 48.8125 -11.140625 L 48.8125 -33.171875 C 48.8125 -36.585938 47.832031 -39.253906 45.875 -41.171875 C 43.914062 -43.097656 41.285156 -44.0625 37.984375 -44.0625 C 34.691406 -44.0625 32.019531 -43.054688 29.96875 -41.046875 C 27.925781 -39.046875 26.90625 -36.421875 26.90625 -33.171875 L 26.90625 -11.015625 C 26.90625 -9.097656 26.84375 -7.65625 26.71875 -6.6875 C 26.59375 -5.726562 26.195312 -4.664062 25.53125 -3.5 C 24.445312 -1.25 21.234375 -0.125 15.890625 -0.125 C 10.640625 -0.125 7.429688 -1.25 6.265625 -3.5 C 5.671875 -4.75 5.3125 -5.851562 5.1875 -6.8125 C 5.0625 -7.78125 5 -9.222656 5 -11.140625 L 5 -55.453125 C 5 -57.285156 5.0625 -58.679688 5.1875 -59.640625 C 5.3125 -60.597656 5.710938 -61.664062 6.390625 -62.84375 C 7.554688 -64.925781 10.765625 -65.96875 16.015625 -65.96875 C 21.109375 -65.96875 24.238281 -65.007812 25.40625 -63.09375 C 26.238281 -61.664062 26.65625 -59.953125 26.65625 -57.953125 C 26.988281 -58.535156 27.738281 -59.367188 28.90625 -60.453125 C 30.082031 -61.535156 31.210938 -62.414062 32.296875 -63.09375 C 35.128906 -65.007812 38.257812 -65.96875 41.6875 -65.96875 Z M 41.6875 -65.96875 "/></g></g></g></svg>