<svg xmlns="http://www.w3.org/2000/svg" xmlns:xlink="http://www.w3.org/1999/xlink" width="200" zoomAndPan="magnify" viewBox="0 0 150 149.999998" height="200" preserveAspectRatio="xMidYMid meet" version="1.2"><defs/><g id="6332a1dccd"><g style="fill:#2196f3;fill-opacity:1;"><g transform="translate(37.699218, 120.23302)"><path style="stroke:none" d="M 47.8125 -58.953125 C 48.3125 -63.628906 51.609375 -65.96875 57.703125 -65.96875 C 60.960938 -65.96875 63.382812 -65.71875 64.96875 -65.21875 C 66.550781 -64.71875 67.65625 -63.835938 68.28125 -62.578125 C 68.90625 -61.328125 69.28125 -60.222656 69.40625 -59.265625 C 69.53125 -58.304688 69.59375 -56.867188 69.59375 -54.953125 L 69.59375 -11.140625 C 69.59375 -9.222656 69.53125 -7.78125 69.40625 -6.8125 C 69.28125 -5.851562 68.925781 -4.75 68.34375 -3.5 C 67.175781 -1.332031 64.316406 -0.25 59.765625 -0.25 C 55.222656 -0.25 52.175781 -0.8125 50.625 -1.9375 C 49.082031 -3.0625 48.1875 -4.710938 47.9375 -6.890625 C 44.851562 -2.460938 39.703125 -0.25 32.484375 -0.25 C 25.265625 -0.25 18.566406 -3.546875 12.390625 -10.140625 C 6.210938 -16.734375 3.125 -24.390625 3.125 -33.109375 C 3.125 -41.828125 6.234375 -49.460938 12.453125 -56.015625 C 18.671875 -62.566406 25.492188 -65.84375 32.921875 -65.84375 C 35.753906 -65.84375 38.335938 -65.34375 40.671875 -64.34375 C 43.015625 -63.34375 44.644531 -62.398438 45.5625 -61.515625 C 46.476562 -60.640625 47.226562 -59.785156 47.8125 -58.953125 Z M 25.03125 -32.921875 C 25.03125 -30.171875 26.113281 -27.6875 28.28125 -25.46875 C 30.457031 -23.257812 33.085938 -22.15625 36.171875 -22.15625 C 39.265625 -22.15625 41.832031 -23.28125 43.875 -25.53125 C 45.914062 -27.789062 46.9375 -30.273438 46.9375 -32.984375 C 46.9375 -35.691406 45.957031 -38.210938 44 -40.546875 C 42.039062 -42.890625 39.410156 -44.0625 36.109375 -44.0625 C 32.816406 -44.0625 30.144531 -42.890625 28.09375 -40.546875 C 26.050781 -38.210938 25.03125 -35.671875 25.03125 -32.921875 Z M 25.03125 -32.921875 "/></g></g></g></svg>