<svg xmlns="http://www.w3.org/2000/svg" xmlns:xlink="http://www.w3.org/1999/xlink" width="200" zoomAndPan="magnify" viewBox="0 0 150 149.999998" height="200" preserveAspectRatio="xMidYMid meet" version="1.2"><defs/><g id="edd174429e"><g style="fill:#2196f3;fill-opacity:1;"><g transform="translate(59.03906, 120.23302)"><path style="stroke:none" d="M 5 -54.953125 C 5 -56.867188 5.0625 -58.304688 5.1875 -59.265625 C 5.3125 -60.222656 5.671875 -61.332031 6.265625 -62.59375 C 7.429688 -64.757812 10.679688 -65.84375 16.015625 -65.84375 C 20.023438 -65.84375 22.863281 -65.132812 24.53125 -63.71875 C 25.945312 -62.539062 26.695312 -60.742188 26.78125 -58.328125 C 26.863281 -57.492188 26.90625 -56.285156 26.90625 -54.703125 L 26.90625 -10.890625 C 26.90625 -8.972656 26.84375 -7.53125 26.71875 -6.5625 C 26.59375 -5.601562 26.195312 -4.5 25.53125 -3.25 C 24.445312 -1.082031 21.234375 0 15.890625 0 C 10.640625 0 7.429688 -1.125 6.265625 -3.375 C 5.671875 -4.625 5.3125 -5.707031 5.1875 -6.625 C 5.0625 -7.550781 5 -9.015625 5 -11.015625 Z M 25.59375 -78.171875 C 24.96875 -76.960938 23.863281 -76.109375 22.28125 -75.609375 C 20.695312 -75.109375 18.585938 -74.859375 15.953125 -74.859375 C 13.328125 -74.859375 11.222656 -75.109375 9.640625 -75.609375 C 8.054688 -76.109375 6.945312 -76.984375 6.3125 -78.234375 C 5.6875 -79.484375 5.3125 -80.585938 5.1875 -81.546875 C 5.0625 -82.503906 5 -83.941406 5 -85.859375 C 5 -87.785156 5.0625 -89.226562 5.1875 -90.1875 C 5.3125 -91.144531 5.671875 -92.207031 6.265625 -93.375 C 7.429688 -95.632812 10.679688 -96.765625 16.015625 -96.765625 C 21.273438 -96.765625 24.445312 -95.632812 25.53125 -93.375 C 26.195312 -92.125 26.59375 -91.019531 26.71875 -90.0625 C 26.84375 -89.101562 26.90625 -87.660156 26.90625 -85.734375 C 26.90625 -83.816406 26.84375 -82.378906 26.71875 -81.421875 C 26.59375 -80.460938 26.21875 -79.378906 25.59375 -78.171875 Z M 25.59375 -78.171875 "/></g></g></g></svg>