<svg xmlns="http://www.w3.org/2000/svg" xmlns:xlink="http://www.w3.org/1999/xlink" width="200" zoomAndPan="magnify" viewBox="0 0 150 149.999998" height="200" preserveAspectRatio="xMidYMid meet" version="1.2"><defs/><g id="f4e7fa62f0"><g style="fill:#2196f3;fill-opacity:1;"><g transform="translate(8.941407, 110.750021)"><path style="stroke:none" d="M 46.296875 -68.09375 L 73.296875 -12.296875 C 74.429688 -10.035156 75 -8.335938 75 -7.203125 C 75 -4.796875 73.066406 -2.628906 69.203125 -0.703125 C 66.929688 0.429688 65.144531 1 63.84375 1 C 62.550781 1 61.488281 0.695312 60.65625 0.09375 C 59.820312 -0.5 59.21875 -1.128906 58.84375 -1.796875 C 58.476562 -2.460938 57.960938 -3.460938 57.296875 -4.796875 L 52.09375 -15.59375 L 24.40625 -15.59375 L 19.203125 -4.796875 C 18.535156 -3.460938 18.015625 -2.492188 17.640625 -1.890625 C 17.273438 -1.296875 16.675781 -0.679688 15.84375 -0.046875 C 15.007812 0.585938 13.941406 0.90625 12.640625 0.90625 C 11.347656 0.90625 9.566406 0.335938 7.296875 -0.796875 C 3.429688 -2.660156 1.5 -4.796875 1.5 -7.203125 C 1.5 -8.335938 2.066406 -10.035156 3.203125 -12.296875 L 30.203125 -68.203125 C 30.929688 -69.734375 32.046875 -70.960938 33.546875 -71.890625 C 35.046875 -72.828125 36.628906 -73.296875 38.296875 -73.296875 C 41.898438 -73.296875 44.566406 -71.5625 46.296875 -68.09375 Z M 38.203125 -44.09375 L 31.59375 -30.40625 L 44.90625 -30.40625 Z M 38.203125 -44.09375 "/></g></g><g style="fill:#2196f3;fill-opacity:1;"><g transform="translate(81.438557, 110.750021)"><path style="stroke:none" d="M 38.203125 -47.09375 C 38.597656 -50.832031 41.226562 -52.703125 46.09375 -52.703125 C 48.695312 -52.703125 50.628906 -52.5 51.890625 -52.09375 C 53.160156 -51.695312 54.046875 -51 54.546875 -50 C 55.046875 -49 55.34375 -48.113281 55.4375 -47.34375 C 55.539062 -46.582031 55.59375 -45.4375 55.59375 -43.90625 L 55.59375 -8.90625 C 55.59375 -7.363281 55.539062 -6.207031 55.4375 -5.4375 C 55.34375 -4.675781 55.0625 -3.796875 54.59375 -2.796875 C 53.664062 -1.066406 51.382812 -0.203125 47.75 -0.203125 C 44.113281 -0.203125 41.675781 -0.648438 40.4375 -1.546875 C 39.207031 -2.453125 38.492188 -3.769531 38.296875 -5.5 C 35.828125 -1.96875 31.707031 -0.203125 25.9375 -0.203125 C 20.175781 -0.203125 14.828125 -2.832031 9.890625 -8.09375 C 4.960938 -13.363281 2.5 -19.484375 2.5 -26.453125 C 2.5 -33.421875 4.984375 -39.519531 9.953125 -44.75 C 14.921875 -49.976562 20.367188 -52.59375 26.296875 -52.59375 C 28.566406 -52.59375 30.632812 -52.191406 32.5 -51.390625 C 34.363281 -50.597656 35.660156 -49.847656 36.390625 -49.140625 C 37.128906 -48.441406 37.734375 -47.757812 38.203125 -47.09375 Z M 20 -26.296875 C 20 -24.097656 20.863281 -22.113281 22.59375 -20.34375 C 24.332031 -18.582031 26.429688 -17.703125 28.890625 -17.703125 C 31.359375 -17.703125 33.410156 -18.597656 35.046875 -20.390625 C 36.679688 -22.191406 37.5 -24.175781 37.5 -26.34375 C 37.5 -28.507812 36.710938 -30.523438 35.140625 -32.390625 C 33.578125 -34.265625 31.476562 -35.203125 28.84375 -35.203125 C 26.21875 -35.203125 24.085938 -34.265625 22.453125 -32.390625 C 20.816406 -30.523438 20 -28.492188 20 -26.296875 Z M 20 -26.296875 "/></g></g></g></svg>