<svg xmlns="http://www.w3.org/2000/svg" xmlns:xlink="http://www.w3.org/1999/xlink" width="200" zoomAndPan="magnify" viewBox="0 0 150 149.999998" height="200" preserveAspectRatio="xMidYMid meet" version="1.2"><defs/><g id="7bd822d996"><g style="fill:#2196f3;fill-opacity:1;"><g transform="translate(35.507812, 120.23302)"><path style="stroke:none" d="M 75.234375 -15.515625 C 76.484375 -12.515625 77.109375 -10.347656 77.109375 -9.015625 C 77.109375 -5.835938 74.519531 -3.164062 69.34375 -1 C 66.675781 0.164062 64.523438 0.75 62.890625 0.75 C 61.265625 0.75 59.929688 0.351562 58.890625 -0.4375 C 57.847656 -1.226562 57.078125 -2.039062 56.578125 -2.875 C 55.742188 -4.457031 52.488281 -12.007812 46.8125 -25.53125 L 42.9375 -25.28125 L 27.15625 -25.28125 L 27.15625 -11.140625 C 27.15625 -9.222656 27.09375 -7.78125 26.96875 -6.8125 C 26.84375 -5.851562 26.445312 -4.75 25.78125 -3.5 C 24.613281 -1.25 21.359375 -0.125 16.015625 -0.125 C 10.179688 -0.125 6.765625 -1.664062 5.765625 -4.75 C 5.253906 -6.175781 5 -8.347656 5 -11.265625 L 5 -80.734375 C 5 -82.648438 5.0625 -84.085938 5.1875 -85.046875 C 5.3125 -86.015625 5.710938 -87.125 6.390625 -88.375 C 7.554688 -90.625 10.804688 -91.75 16.140625 -91.75 L 43.1875 -91.75 C 50.53125 -91.75 57.664062 -89.078125 64.59375 -83.734375 C 67.925781 -81.148438 70.675781 -77.644531 72.84375 -73.21875 C 75.019531 -68.800781 76.109375 -63.878906 76.109375 -58.453125 C 76.109375 -49.023438 72.976562 -41.265625 66.71875 -35.171875 C 68.550781 -30.753906 71.390625 -24.203125 75.234375 -15.515625 Z M 27.15625 -47.4375 L 43.1875 -47.4375 C 45.601562 -47.4375 48.019531 -48.351562 50.4375 -50.1875 C 52.863281 -52.03125 54.078125 -54.785156 54.078125 -58.453125 C 54.078125 -62.128906 52.863281 -64.90625 50.4375 -66.78125 C 48.019531 -68.65625 45.519531 -69.59375 42.9375 -69.59375 L 27.15625 -69.59375 Z M 27.15625 -47.4375 "/></g></g></g></svg>