<svg xmlns="http://www.w3.org/2000/svg" xmlns:xlink="http://www.w3.org/1999/xlink" width="200" zoomAndPan="magnify" viewBox="0 0 150 149.999998" height="200" preserveAspectRatio="xMidYMid meet" version="1.2"><defs/><g id="ebb591dac0"><g style="fill:#2196f3;fill-opacity:1;"><g transform="translate(20.554688, 120.23302)"><path style="stroke:none" d="M 102.515625 -88.25 C 103.179688 -87 103.578125 -85.867188 103.703125 -84.859375 C 103.828125 -83.859375 103.890625 -82.398438 103.890625 -80.484375 L 103.890625 -11.015625 C 103.890625 -5.253906 102.304688 -1.875 99.140625 -0.875 C 97.554688 -0.375 95.550781 -0.125 93.125 -0.125 C 90.707031 -0.125 88.785156 -0.332031 87.359375 -0.75 C 85.941406 -1.164062 84.859375 -1.664062 84.109375 -2.25 C 83.359375 -2.832031 82.773438 -3.664062 82.359375 -4.75 C 81.941406 -6.175781 81.734375 -8.347656 81.734375 -11.265625 L 81.734375 -53.203125 C 79.648438 -50.609375 76.601562 -46.492188 72.59375 -40.859375 C 68.59375 -35.234375 66.050781 -31.707031 64.96875 -30.28125 C 63.882812 -28.863281 63.128906 -27.882812 62.703125 -27.34375 C 62.285156 -26.800781 61.265625 -26.050781 59.640625 -25.09375 C 58.015625 -24.132812 56.265625 -23.65625 54.390625 -23.65625 C 52.515625 -23.65625 50.800781 -24.09375 49.25 -24.96875 C 47.707031 -25.84375 46.601562 -26.695312 45.9375 -27.53125 L 44.9375 -28.921875 C 43.269531 -31.003906 39.972656 -35.445312 35.046875 -42.25 C 30.117188 -49.050781 27.445312 -52.703125 27.03125 -53.203125 L 27.03125 -11.015625 C 27.03125 -9.097656 26.96875 -7.65625 26.84375 -6.6875 C 26.71875 -5.726562 26.320312 -4.664062 25.65625 -3.5 C 24.40625 -1.25 21.148438 -0.125 15.890625 -0.125 C 10.804688 -0.125 7.640625 -1.25 6.390625 -3.5 C 5.710938 -4.664062 5.3125 -5.75 5.1875 -6.75 C 5.0625 -7.757812 5 -9.265625 5 -11.265625 L 5 -80.734375 C 5 -82.648438 5.0625 -84.085938 5.1875 -85.046875 C 5.3125 -86.015625 5.710938 -87.125 6.390625 -88.375 C 7.640625 -90.539062 10.890625 -91.625 16.140625 -91.625 C 18.398438 -91.625 20.34375 -91.351562 21.96875 -90.8125 C 23.59375 -90.269531 24.65625 -89.707031 25.15625 -89.125 L 25.90625 -88.375 L 54.328125 -51.0625 C 68.515625 -69.84375 77.984375 -82.238281 82.734375 -88.25 C 84.148438 -90.5 87.507812 -91.625 92.8125 -91.625 C 98.113281 -91.625 101.347656 -90.5 102.515625 -88.25 Z M 102.515625 -88.25 "/></g></g></g></svg>