<svg xmlns="http://www.w3.org/2000/svg" xmlns:xlink="http://www.w3.org/1999/xlink" width="200" zoomAndPan="magnify" viewBox="0 0 150 149.999998" height="200" preserveAspectRatio="xMidYMid meet" version="1.2"><defs/><g id="7571069486"><g style="fill:#2196f3;fill-opacity:1;"><g transform="translate(29.566406, 120.23302)"><path style="stroke:none" d="M 64.96875 -88.375 C 65.800781 -89.707031 67.007812 -90.625 68.59375 -91.125 C 70.175781 -91.625 72.15625 -91.875 74.53125 -91.875 C 76.914062 -91.875 78.816406 -91.664062 80.234375 -91.25 C 81.648438 -90.832031 82.734375 -90.332031 83.484375 -89.75 C 84.234375 -89.164062 84.773438 -88.289062 85.109375 -87.125 C 85.617188 -85.695312 85.875 -83.523438 85.875 -80.609375 L 85.875 -42.8125 C 85.875 -31.789062 82.453125 -21.773438 75.609375 -12.765625 C 72.265625 -8.515625 67.960938 -5.070312 62.703125 -2.4375 C 57.453125 0.1875 51.632812 1.5 45.25 1.5 C 38.863281 1.5 33.0625 0.164062 27.84375 -2.5 C 22.632812 -5.175781 18.398438 -8.679688 15.140625 -13.015625 C 8.378906 -21.859375 5 -31.875 5 -43.0625 L 5 -80.734375 C 5 -82.734375 5.0625 -84.210938 5.1875 -85.171875 C 5.3125 -86.140625 5.707031 -87.25 6.375 -88.5 C 7.050781 -89.75 8.179688 -90.625 9.765625 -91.125 C 11.347656 -91.625 13.472656 -91.875 16.140625 -91.875 C 18.816406 -91.875 20.945312 -91.625 22.53125 -91.125 C 24.113281 -90.625 25.195312 -89.75 25.78125 -88.5 C 26.78125 -86.582031 27.28125 -83.953125 27.28125 -80.609375 L 27.28125 -43.0625 C 27.28125 -37.96875 28.535156 -33.128906 31.046875 -28.546875 C 32.296875 -26.203125 34.171875 -24.320312 36.671875 -22.90625 C 39.179688 -21.488281 42.144531 -20.78125 45.5625 -20.78125 C 51.65625 -20.78125 56.203125 -23.03125 59.203125 -27.53125 C 62.210938 -32.039062 63.71875 -37.257812 63.71875 -43.1875 L 63.71875 -81.484375 C 63.71875 -84.742188 64.132812 -87.039062 64.96875 -88.375 Z M 64.96875 -88.375 "/></g></g></g></svg>