<svg xmlns="http://www.w3.org/2000/svg" xmlns:xlink="http://www.w3.org/1999/xlink" width="200" zoomAndPan="magnify" viewBox="0 0 150 149.999998" height="200" preserveAspectRatio="xMidYMid meet" version="1.2"><defs/><g id="1c905cbff5"><g style="fill:#2196f3;fill-opacity:1;"><g transform="translate(58.910154, 120.23302)"><path style="stroke:none" d="M 5 -80.734375 C 5 -82.648438 5.0625 -84.085938 5.1875 -85.046875 C 5.3125 -86.015625 5.710938 -87.125 6.390625 -88.375 C 7.554688 -90.625 10.804688 -91.75 16.140625 -91.75 C 21.984375 -91.75 25.445312 -90.207031 26.53125 -87.125 C 26.945312 -85.695312 27.15625 -83.523438 27.15625 -80.609375 L 27.15625 -11.015625 C 27.15625 -9.015625 27.09375 -7.550781 26.96875 -6.625 C 26.84375 -5.707031 26.445312 -4.625 25.78125 -3.375 C 24.613281 -1.125 21.359375 0 16.015625 0 C 10.179688 0 6.765625 -1.582031 5.765625 -4.75 C 5.253906 -6.09375 5 -8.222656 5 -11.140625 Z M 5 -80.734375 "/></g></g></g></svg>