<svg xmlns="http://www.w3.org/2000/svg" xmlns:xlink="http://www.w3.org/1999/xlink" width="200" zoomAndPan="magnify" viewBox="0 0 150 149.999998" height="200" preserveAspectRatio="xMidYMid meet" version="1.2"><defs/><g id="5a5e3caef2"><g style="fill:#2196f3;fill-opacity:1;"><g transform="translate(29.25, 120.23302)"><path style="stroke:none" d="M 11.015625 -91.875 L 80.609375 -91.875 C 83.273438 -91.875 85.234375 -91.5625 86.484375 -90.9375 C 87.742188 -90.3125 88.582031 -89.332031 89 -88 C 89.414062 -86.664062 89.625 -84.910156 89.625 -82.734375 C 89.625 -80.566406 89.414062 -78.835938 89 -77.546875 C 88.582031 -76.253906 87.875 -75.359375 86.875 -74.859375 C 85.363281 -74.097656 83.234375 -73.71875 80.484375 -73.71875 L 56.578125 -73.71875 L 56.578125 -10.765625 C 56.578125 -8.847656 56.515625 -7.425781 56.390625 -6.5 C 56.265625 -5.582031 55.890625 -4.519531 55.265625 -3.3125 C 54.640625 -2.101562 53.53125 -1.25 51.9375 -0.75 C 50.351562 -0.25 48.269531 0 45.6875 0 C 43.101562 0 41.035156 -0.25 39.484375 -0.75 C 37.941406 -1.25 36.859375 -2.101562 36.234375 -3.3125 C 35.609375 -4.519531 35.234375 -5.601562 35.109375 -6.5625 C 34.984375 -7.53125 34.921875 -8.972656 34.921875 -10.890625 L 34.921875 -73.71875 L 10.890625 -73.71875 C 8.222656 -73.71875 6.257812 -74.03125 5 -74.65625 C 3.75 -75.289062 2.914062 -76.273438 2.5 -77.609375 C 2.082031 -78.941406 1.875 -80.691406 1.875 -82.859375 C 1.875 -85.035156 2.082031 -86.769531 2.5 -88.0625 C 2.914062 -89.351562 3.625 -90.25 4.625 -90.75 C 6.132812 -91.5 8.265625 -91.875 11.015625 -91.875 Z M 11.015625 -91.875 "/></g></g></g></svg>