<svg xmlns="http://www.w3.org/2000/svg" xmlns:xlink="http://www.w3.org/1999/xlink" width="200" zoomAndPan="magnify" viewBox="0 0 150 149.999998" height="200" preserveAspectRatio="xMidYMid meet" version="1.2"><defs/><g id="deed149ad2"><g style="fill:#2196f3;fill-opacity:1;"><g transform="translate(40.640624, 120.23302)"><path style="stroke:none" d="M 51.8125 -91.75 C 55.070312 -91.75 57.472656 -91.476562 59.015625 -90.9375 C 60.554688 -90.394531 61.660156 -89.5 62.328125 -88.25 C 63.253906 -86.332031 63.71875 -83.742188 63.71875 -80.484375 L 63.71875 -32.046875 C 63.71875 -23.285156 60.546875 -15.546875 54.203125 -8.828125 C 47.859375 -2.109375 39.765625 1.25 29.921875 1.25 C 24.410156 1.25 19.523438 0.0390625 15.265625 -2.375 C 11.429688 -4.457031 8.765625 -6.335938 7.265625 -8.015625 L 6.265625 -9.015625 C 3.335938 -12.097656 1.875 -14.742188 1.875 -16.953125 C 1.875 -19.171875 3.332031 -21.78125 6.25 -24.78125 C 9.175781 -27.789062 11.765625 -29.296875 14.015625 -29.296875 C 16.273438 -29.296875 18.78125 -27.914062 21.53125 -25.15625 C 24.28125 -22.40625 27.257812 -21.03125 30.46875 -21.03125 C 33.6875 -21.03125 36.335938 -22.113281 38.421875 -24.28125 C 40.515625 -26.445312 41.5625 -29.328125 41.5625 -32.921875 L 41.5625 -79.734375 C 41.5625 -84.742188 42.394531 -87.957031 44.0625 -89.375 C 45.976562 -90.957031 48.5625 -91.75 51.8125 -91.75 Z M 51.8125 -91.75 "/></g></g></g></svg>