<svg xmlns="http://www.w3.org/2000/svg" xmlns:xlink="http://www.w3.org/1999/xlink" width="200" zoomAndPan="magnify" viewBox="0 0 150 149.999998" height="200" preserveAspectRatio="xMidYMid meet" version="1.2"><defs/><g id="a019be9bca"><g style="fill:#2196f3;fill-opacity:1;"><g transform="translate(38.261718, 120.23302)"><path style="stroke:none" d="M 27.15625 -18.53125 L 61.203125 -18.53125 C 63.960938 -18.53125 65.96875 -18.210938 67.21875 -17.578125 C 68.46875 -16.953125 69.300781 -15.972656 69.71875 -14.640625 C 70.132812 -13.304688 70.34375 -11.535156 70.34375 -9.328125 C 70.34375 -7.117188 70.132812 -5.34375 69.71875 -4 C 69.300781 -2.664062 68.59375 -1.75 67.59375 -1.25 C 66.007812 -0.414062 63.835938 0 61.078125 0 L 16.015625 0 C 10.179688 0 6.765625 -1.582031 5.765625 -4.75 C 5.253906 -6.09375 5 -8.222656 5 -11.140625 L 5 -80.734375 C 5 -82.648438 5.0625 -84.085938 5.1875 -85.046875 C 5.3125 -86.015625 5.710938 -87.125 6.390625 -88.375 C 7.554688 -90.625 10.804688 -91.75 16.140625 -91.75 C 21.984375 -91.75 25.445312 -90.207031 26.53125 -87.125 C 26.945312 -85.695312 27.15625 -83.523438 27.15625 -80.609375 Z M 27.15625 -18.53125 "/></g></g></g></svg>