<svg xmlns="http://www.w3.org/2000/svg" xmlns:xlink="http://www.w3.org/1999/xlink" width="200" zoomAndPan="magnify" viewBox="0 0 150 149.999998" height="200" preserveAspectRatio="xMidYMid meet" version="1.2"><defs/><g id="0b14421146"><g style="fill:#2196f3;fill-opacity:1;"><g transform="translate(34.757812, 120.23302)"><path style="stroke:none" d="M 66.46875 -21.40625 C 69.71875 -21.40625 72.070312 -21.007812 73.53125 -20.21875 C 75 -19.425781 76.003906 -18.273438 76.546875 -16.765625 C 77.085938 -15.265625 77.359375 -13.347656 77.359375 -11.015625 C 77.359375 -8.679688 77.148438 -6.800781 76.734375 -5.375 C 76.316406 -3.957031 75.816406 -2.875 75.234375 -2.125 C 74.648438 -1.375 73.769531 -0.832031 72.59375 -0.5 C 71.257812 0 69.132812 0.25 66.21875 0.25 L 14.140625 0.25 C 12.222656 0.25 10.390625 -0.25 8.640625 -1.25 C 4.960938 -3.332031 3.125 -6.628906 3.125 -11.140625 C 3.125 -13.304688 3.625 -15.054688 4.625 -16.390625 L 43.4375 -70.09375 L 14.640625 -70.09375 C 12.640625 -70.09375 11.160156 -70.15625 10.203125 -70.28125 C 9.242188 -70.40625 8.097656 -70.757812 6.765625 -71.34375 C 4.335938 -72.507812 3.125 -75.640625 3.125 -80.734375 C 3.125 -86.078125 4.253906 -89.332031 6.515625 -90.5 C 7.765625 -91.164062 8.867188 -91.5625 9.828125 -91.6875 C 10.785156 -91.8125 12.265625 -91.875 14.265625 -91.875 L 64.59375 -91.875 C 66.507812 -91.875 68.34375 -91.375 70.09375 -90.375 C 71.84375 -89.375 73.195312 -88.035156 74.15625 -86.359375 C 75.125 -84.691406 75.609375 -82.734375 75.609375 -80.484375 C 75.609375 -78.234375 75.109375 -76.441406 74.109375 -75.109375 L 35.296875 -21.40625 Z M 66.46875 -21.40625 "/></g></g></g></svg>