<svg xmlns="http://www.w3.org/2000/svg" xmlns:xlink="http://www.w3.org/1999/xlink" width="200" zoomAndPan="magnify" viewBox="0 0 150 149.999998" height="200" preserveAspectRatio="xMidYMid meet" version="1.2"><defs/><g id="4acaa1a673"><g style="fill:#2196f3;fill-opacity:1;"><g transform="translate(34.570312, 120.23302)"><path style="stroke:none" d="M 70.34375 -49.1875 C 75.269531 -43.351562 77.734375 -36.804688 77.734375 -29.546875 C 77.566406 -21.191406 74.707031 -14.195312 69.15625 -8.5625 C 63.601562 -2.9375 56.863281 -0.125 48.9375 -0.125 L 16.015625 -0.125 C 10.179688 -0.125 6.765625 -1.707031 5.765625 -4.875 C 5.253906 -6.300781 5 -8.472656 5 -11.390625 L 5 -80.859375 C 5 -82.859375 5.0625 -84.316406 5.1875 -85.234375 C 5.3125 -86.160156 5.710938 -87.25 6.390625 -88.5 C 7.554688 -90.75 10.804688 -91.875 16.140625 -91.875 L 47.6875 -91.875 C 55.363281 -91.875 61.789062 -89.203125 66.96875 -83.859375 C 72.394531 -78.441406 75.109375 -71.9375 75.109375 -64.34375 C 75.109375 -58.832031 73.519531 -53.78125 70.34375 -49.1875 Z M 55.578125 -30.796875 C 55.578125 -32.796875 55.347656 -34.378906 54.890625 -35.546875 C 54.429688 -36.710938 53.660156 -37.546875 52.578125 -38.046875 C 50.898438 -38.710938 48.5625 -39.046875 45.5625 -39.046875 C 42.5625 -39.046875 40.304688 -39.628906 38.796875 -40.796875 C 37.296875 -41.972656 36.546875 -44.375 36.546875 -48 C 36.546875 -51.632812 37.316406 -54.035156 38.859375 -55.203125 C 40.410156 -56.367188 42.976562 -56.953125 46.5625 -56.953125 C 49.90625 -56.953125 51.910156 -57.828125 52.578125 -59.578125 C 52.828125 -60.492188 52.953125 -61.992188 52.953125 -64.078125 C 52.953125 -66.171875 52.257812 -67.632812 50.875 -68.46875 C 49.5 -69.300781 47.4375 -69.71875 44.6875 -69.71875 L 27.15625 -69.71875 L 27.15625 -22.28125 L 47.6875 -22.28125 C 52.945312 -22.28125 55.578125 -25.117188 55.578125 -30.796875 Z M 55.578125 -30.796875 "/></g></g></g></svg>