<svg xmlns="http://www.w3.org/2000/svg" xmlns:xlink="http://www.w3.org/1999/xlink" width="200" zoomAndPan="magnify" viewBox="0 0 150 149.999998" height="200" preserveAspectRatio="xMidYMid meet" version="1.2"><defs/><g id="f52824d1f5"><g style="fill:#2196f3;fill-opacity:1;"><g transform="translate(27.117187, 120.23302)"><path style="stroke:none" d="M 57.953125 -85.234375 L 91.75 -15.390625 C 93.164062 -12.554688 93.875 -10.429688 93.875 -9.015625 C 93.875 -6.003906 91.457031 -3.289062 86.625 -0.875 C 83.78125 0.539062 81.546875 1.25 79.921875 1.25 C 78.296875 1.25 76.960938 0.875 75.921875 0.125 C 74.878906 -0.625 74.125 -1.414062 73.65625 -2.25 C 73.195312 -3.082031 72.550781 -4.335938 71.71875 -6.015625 L 65.21875 -19.53125 L 30.546875 -19.53125 L 24.03125 -6.015625 C 23.195312 -4.335938 22.550781 -3.125 22.09375 -2.375 C 21.632812 -1.625 20.882812 -0.851562 19.84375 -0.0625 C 18.800781 0.726562 17.460938 1.125 15.828125 1.125 C 14.203125 1.125 11.972656 0.414062 9.140625 -1 C 4.296875 -3.332031 1.875 -6.003906 1.875 -9.015625 C 1.875 -10.429688 2.582031 -12.554688 4 -15.390625 L 37.796875 -85.375 C 38.710938 -87.289062 40.109375 -88.832031 41.984375 -90 C 43.867188 -91.164062 45.851562 -91.75 47.9375 -91.75 C 52.445312 -91.75 55.785156 -89.578125 57.953125 -85.234375 Z M 47.8125 -55.203125 L 39.546875 -38.046875 L 56.203125 -38.046875 Z M 47.8125 -55.203125 "/></g></g></g></svg>