<svg xmlns="http://www.w3.org/2000/svg" xmlns:xlink="http://www.w3.org/1999/xlink" width="200" zoomAndPan="magnify" viewBox="0 0 150 149.999998" height="200" preserveAspectRatio="xMidYMid meet" version="1.2"><defs/><g id="1e5745acb9"><g style="fill:#2196f3;fill-opacity:1;"><g transform="translate(35.449218, 120.23302)"><path style="stroke:none" d="M 72.71875 -73.21875 C 74.894531 -68.800781 75.984375 -63.878906 75.984375 -58.453125 C 75.984375 -53.023438 74.894531 -48.117188 72.71875 -43.734375 C 70.550781 -39.359375 67.757812 -35.878906 64.34375 -33.296875 C 57.414062 -27.953125 50.238281 -25.28125 42.8125 -25.28125 L 27.15625 -25.28125 L 27.15625 -11.140625 C 27.15625 -9.222656 27.09375 -7.78125 26.96875 -6.8125 C 26.84375 -5.851562 26.445312 -4.75 25.78125 -3.5 C 24.613281 -1.25 21.359375 -0.125 16.015625 -0.125 C 10.179688 -0.125 6.765625 -1.664062 5.765625 -4.75 C 5.253906 -6.175781 5 -8.347656 5 -11.265625 L 5 -80.734375 C 5 -82.648438 5.0625 -84.085938 5.1875 -85.046875 C 5.3125 -86.015625 5.710938 -87.125 6.390625 -88.375 C 7.554688 -90.625 10.804688 -91.75 16.140625 -91.75 L 42.9375 -91.75 C 50.28125 -91.75 57.414062 -89.078125 64.34375 -83.734375 C 67.757812 -81.148438 70.550781 -77.644531 72.71875 -73.21875 Z M 42.9375 -47.4375 C 45.4375 -47.4375 47.894531 -48.351562 50.3125 -50.1875 C 52.738281 -52.03125 53.953125 -54.785156 53.953125 -58.453125 C 53.953125 -62.128906 52.738281 -64.90625 50.3125 -66.78125 C 47.894531 -68.65625 45.394531 -69.59375 42.8125 -69.59375 L 27.15625 -69.59375 L 27.15625 -47.4375 Z M 42.9375 -47.4375 "/></g></g></g></svg>