<svg xmlns="http://www.w3.org/2000/svg" xmlns:xlink="http://www.w3.org/1999/xlink" width="200" zoomAndPan="magnify" viewBox="0 0 150 149.999998" height="200" preserveAspectRatio="xMidYMid meet" version="1.2"><defs/><g id="a57cf38b85"><g style="fill:#2196f3;fill-opacity:1;"><g transform="translate(38.507812, 120.23302)"><path style="stroke:none" d="M 6.390625 -12.890625 C 4.210938 -15.554688 3.125 -17.953125 3.125 -20.078125 C 3.125 -22.210938 4.921875 -25.035156 8.515625 -28.546875 C 10.597656 -30.546875 12.804688 -31.546875 15.140625 -31.546875 C 17.484375 -31.546875 20.738281 -29.457031 24.90625 -25.28125 C 26.070312 -23.863281 27.738281 -22.507812 29.90625 -21.21875 C 32.082031 -19.925781 34.085938 -19.28125 35.921875 -19.28125 C 43.679688 -19.28125 47.5625 -22.453125 47.5625 -28.796875 C 47.5625 -30.710938 46.5 -32.316406 44.375 -33.609375 C 42.25 -34.898438 39.597656 -35.835938 36.421875 -36.421875 C 33.253906 -37.003906 29.832031 -37.941406 26.15625 -39.234375 C 22.488281 -40.535156 19.066406 -42.0625 15.890625 -43.8125 C 12.722656 -45.5625 10.070312 -48.332031 7.9375 -52.125 C 5.8125 -55.925781 4.75 -60.5 4.75 -65.84375 C 4.75 -73.1875 7.484375 -79.585938 12.953125 -85.046875 C 18.421875 -90.515625 25.867188 -93.25 35.296875 -93.25 C 40.304688 -93.25 44.875 -92.601562 49 -91.3125 C 53.132812 -90.019531 55.992188 -88.707031 57.578125 -87.375 L 60.703125 -84.984375 C 63.296875 -82.566406 64.59375 -80.523438 64.59375 -78.859375 C 64.59375 -77.191406 63.585938 -74.894531 61.578125 -71.96875 C 58.742188 -67.800781 55.828125 -65.71875 52.828125 -65.71875 C 51.066406 -65.71875 48.894531 -66.550781 46.3125 -68.21875 C 46.0625 -68.382812 45.582031 -68.800781 44.875 -69.46875 C 44.164062 -70.132812 43.519531 -70.675781 42.9375 -71.09375 C 41.1875 -72.175781 38.953125 -72.71875 36.234375 -72.71875 C 33.523438 -72.71875 31.269531 -72.070312 29.46875 -70.78125 C 27.675781 -69.488281 26.78125 -67.691406 26.78125 -65.390625 C 26.78125 -63.097656 27.84375 -61.242188 29.96875 -59.828125 C 32.101562 -58.410156 34.753906 -57.453125 37.921875 -56.953125 C 41.097656 -56.453125 44.5625 -55.679688 48.3125 -54.640625 C 52.070312 -53.597656 55.535156 -52.320312 58.703125 -50.8125 C 61.878906 -49.3125 64.53125 -46.703125 66.65625 -42.984375 C 68.78125 -39.273438 69.84375 -34.707031 69.84375 -29.28125 C 69.84375 -23.863281 68.757812 -19.085938 66.59375 -14.953125 C 64.425781 -10.828125 61.585938 -7.632812 58.078125 -5.375 C 51.316406 -0.957031 44.097656 1.25 36.421875 1.25 C 32.503906 1.25 28.789062 0.769531 25.28125 -0.1875 C 21.78125 -1.144531 18.941406 -2.332031 16.765625 -3.75 C 12.347656 -6.425781 9.265625 -9.015625 7.515625 -11.515625 Z M 6.390625 -12.890625 "/></g></g></g></svg>