<svg xmlns="http://www.w3.org/2000/svg" xmlns:xlink="http://www.w3.org/1999/xlink" width="200" zoomAndPan="magnify" viewBox="0 0 150 149.999998" height="200" preserveAspectRatio="xMidYMid meet" version="1.2"><defs/><g id="755cf2afec"><g style="fill:#2196f3;fill-opacity:1;"><g transform="translate(31.253906, 120.23302)"><path style="stroke:none" d="M 61.703125 -88.375 C 62.378906 -89.625 63.507812 -90.5 65.09375 -91 C 66.675781 -91.5 68.675781 -91.75 71.09375 -91.75 C 73.519531 -91.75 75.441406 -91.539062 76.859375 -91.125 C 78.273438 -90.707031 79.359375 -90.207031 80.109375 -89.625 C 80.859375 -89.039062 81.441406 -88.207031 81.859375 -87.125 C 82.273438 -85.695312 82.484375 -83.523438 82.484375 -80.609375 L 82.484375 -11.140625 C 82.484375 -9.222656 82.421875 -7.78125 82.296875 -6.8125 C 82.171875 -5.851562 81.773438 -4.75 81.109375 -3.5 C 79.941406 -1.25 76.6875 -0.125 71.34375 -0.125 C 65.507812 -0.125 62.085938 -1.664062 61.078125 -4.75 C 60.578125 -6.175781 60.328125 -8.347656 60.328125 -11.265625 L 60.328125 -36.671875 L 27.15625 -36.671875 L 27.15625 -11.140625 C 27.15625 -9.222656 27.09375 -7.78125 26.96875 -6.8125 C 26.84375 -5.851562 26.445312 -4.75 25.78125 -3.5 C 24.613281 -1.25 21.359375 -0.125 16.015625 -0.125 C 10.179688 -0.125 6.765625 -1.664062 5.765625 -4.75 C 5.253906 -6.175781 5 -8.347656 5 -11.265625 L 5 -80.734375 C 5 -82.648438 5.0625 -84.085938 5.1875 -85.046875 C 5.3125 -86.015625 5.710938 -87.125 6.390625 -88.375 C 7.554688 -90.625 10.804688 -91.75 16.140625 -91.75 C 21.984375 -91.75 25.445312 -90.207031 26.53125 -87.125 C 26.945312 -85.695312 27.15625 -83.523438 27.15625 -80.609375 L 27.15625 -55.078125 L 60.328125 -55.078125 L 60.328125 -80.734375 C 60.328125 -82.648438 60.390625 -84.085938 60.515625 -85.046875 C 60.640625 -86.015625 61.035156 -87.125 61.703125 -88.375 Z M 61.703125 -88.375 "/></g></g></g></svg>