<svg xmlns="http://www.w3.org/2000/svg" xmlns:xlink="http://www.w3.org/1999/xlink" width="200" zoomAndPan="magnify" viewBox="0 0 150 149.999998" height="200" preserveAspectRatio="xMidYMid meet" version="1.2"><defs/><g id="16c5858a9f"><g style="fill:#2196f3;fill-opacity:1;"><g transform="translate(32.507812, 120.23302)"><path style="stroke:none" d="M 62.328125 -24.03125 L 64.59375 -25.65625 C 67.425781 -27.320312 69.425781 -28.15625 70.59375 -28.15625 C 73.1875 -28.15625 75.984375 -25.820312 78.984375 -21.15625 C 80.816406 -18.226562 81.734375 -15.890625 81.734375 -14.140625 C 81.734375 -12.390625 81.171875 -10.929688 80.046875 -9.765625 C 78.921875 -8.597656 77.601562 -7.550781 76.09375 -6.625 C 74.59375 -5.707031 73.15625 -4.832031 71.78125 -4 C 70.40625 -3.164062 67.585938 -2.082031 63.328125 -0.75 C 59.078125 0.582031 54.96875 1.25 51 1.25 C 47.039062 1.25 43.035156 0.726562 38.984375 -0.3125 C 34.941406 -1.351562 30.769531 -3.101562 26.46875 -5.5625 C 22.175781 -8.03125 18.316406 -11.035156 14.890625 -14.578125 C 11.472656 -18.128906 8.65625 -22.675781 6.4375 -28.21875 C 4.226562 -33.769531 3.125 -39.800781 3.125 -46.3125 C 3.125 -52.820312 4.207031 -58.722656 6.375 -64.015625 C 8.550781 -69.316406 11.328125 -73.695312 14.703125 -77.15625 C 18.085938 -80.625 21.945312 -83.53125 26.28125 -85.875 C 34.457031 -90.375 42.675781 -92.625 50.9375 -92.625 C 54.863281 -92.625 58.847656 -92.019531 62.890625 -90.8125 C 66.941406 -89.601562 70.007812 -88.375 72.09375 -87.125 L 75.109375 -85.375 C 76.609375 -84.445312 77.773438 -83.691406 78.609375 -83.109375 C 80.773438 -81.359375 81.859375 -79.375 81.859375 -77.15625 C 81.859375 -74.945312 80.984375 -72.632812 79.234375 -70.21875 C 75.984375 -65.71875 73.0625 -63.46875 70.46875 -63.46875 C 68.96875 -63.46875 66.84375 -64.382812 64.09375 -66.21875 C 60.582031 -69.050781 55.90625 -70.46875 50.0625 -70.46875 C 44.644531 -70.46875 39.304688 -68.59375 34.046875 -64.84375 C 31.546875 -63 29.457031 -60.410156 27.78125 -57.078125 C 26.113281 -53.742188 25.28125 -49.96875 25.28125 -45.75 C 25.28125 -41.53125 26.113281 -37.753906 27.78125 -34.421875 C 29.457031 -31.085938 31.585938 -28.457031 34.171875 -26.53125 C 39.265625 -22.863281 44.5625 -21.03125 50.0625 -21.03125 C 52.65625 -21.03125 55.097656 -21.363281 57.390625 -22.03125 C 59.679688 -22.695312 61.328125 -23.363281 62.328125 -24.03125 Z M 62.328125 -24.03125 "/></g></g></g></svg>