<svg xmlns="http://www.w3.org/2000/svg" xmlns:xlink="http://www.w3.org/1999/xlink" width="200" zoomAndPan="magnify" viewBox="0 0 150 149.999998" height="200" preserveAspectRatio="xMidYMid meet" version="1.2"><defs/><g id="19ff815e2c"><g style="fill:#2196f3;fill-opacity:1;"><g transform="translate(30.937499, 120.23302)"><path style="stroke:none" d="M 16.140625 -91.875 L 39.296875 -91.75 C 51.398438 -91.75 62.039062 -87.390625 71.21875 -78.671875 C 80.394531 -69.953125 84.984375 -59.226562 84.984375 -46.5 C 84.984375 -33.769531 80.5 -22.859375 71.53125 -13.765625 C 62.5625 -4.671875 51.691406 -0.125 38.921875 -0.125 L 16.015625 -0.125 C 10.929688 -0.125 7.765625 -1.164062 6.515625 -3.25 C 5.503906 -5.007812 5 -7.679688 5 -11.265625 L 5 -80.859375 C 5 -82.859375 5.0625 -84.316406 5.1875 -85.234375 C 5.3125 -86.160156 5.710938 -87.25 6.390625 -88.5 C 7.554688 -90.75 10.804688 -91.875 16.140625 -91.875 Z M 39.296875 -22.28125 C 45.304688 -22.28125 50.734375 -24.507812 55.578125 -28.96875 C 60.421875 -33.4375 62.84375 -39.050781 62.84375 -45.8125 C 62.84375 -52.570312 60.484375 -58.222656 55.765625 -62.765625 C 51.046875 -67.316406 45.515625 -69.59375 39.171875 -69.59375 L 27.15625 -69.59375 L 27.15625 -22.28125 Z M 39.296875 -22.28125 "/></g></g></g></svg>