<svg xmlns="http://www.w3.org/2000/svg" xmlns:xlink="http://www.w3.org/1999/xlink" width="200" zoomAndPan="magnify" viewBox="0 0 150 149.999998" height="200" preserveAspectRatio="xMidYMid meet" version="1.2"><defs/><g id="6d35d5cbf1"><g style="fill:#2196f3;fill-opacity:1;"><g transform="translate(25.992187, 120.23302)"><path style="stroke:none" d="M 88.75 -90.375 C 93.664062 -87.957031 96.125 -85.285156 96.125 -82.359375 C 96.125 -81.023438 95.5 -79.023438 94.25 -76.359375 L 59.703125 -6.265625 C 58.785156 -4.421875 57.390625 -2.9375 55.515625 -1.8125 C 53.640625 -0.6875 51.695312 -0.125 49.6875 -0.125 L 48.4375 -0.125 C 46.351562 -0.125 44.367188 -0.6875 42.484375 -1.8125 C 40.609375 -2.9375 39.210938 -4.421875 38.296875 -6.265625 L 3.75 -76.359375 C 2.5 -79.023438 1.875 -81.023438 1.875 -82.359375 C 1.875 -85.285156 4.335938 -87.957031 9.265625 -90.375 C 12.015625 -91.789062 14.117188 -92.5 15.578125 -92.5 C 17.046875 -92.5 18.15625 -92.332031 18.90625 -92 C 19.65625 -91.664062 20.363281 -91.082031 21.03125 -90.25 C 21.78125 -89.25 22.46875 -88.140625 23.09375 -86.921875 C 23.71875 -85.710938 25.320312 -82.25 27.90625 -76.53125 C 30.5 -70.820312 33.273438 -64.753906 36.234375 -58.328125 C 39.203125 -51.898438 42 -45.828125 44.625 -40.109375 C 47.25 -34.398438 48.726562 -31.210938 49.0625 -30.546875 L 74.109375 -85.375 C 74.773438 -86.957031 75.359375 -88.207031 75.859375 -89.125 C 77.359375 -91.375 79.191406 -92.5 81.359375 -92.5 C 83.523438 -92.5 85.988281 -91.789062 88.75 -90.375 Z M 88.75 -90.375 "/></g></g></g></svg>