<svg xmlns="http://www.w3.org/2000/svg" xmlns:xlink="http://www.w3.org/1999/xlink" width="200" zoomAndPan="magnify" viewBox="0 0 150 149.999998" height="200" preserveAspectRatio="xMidYMid meet" version="1.2"><defs/><g id="08f8f8820e"><g style="fill:#2196f3;fill-opacity:1;"><g transform="translate(29.941406, 120.23302)"><path style="stroke:none" d="M 64.28125 -87.9375 C 65.070312 -89.394531 66.257812 -90.375 67.84375 -90.875 C 69.425781 -91.375 71.40625 -91.625 73.78125 -91.625 C 76.164062 -91.625 78.085938 -91.414062 79.546875 -91 C 81.003906 -90.582031 82.085938 -90.082031 82.796875 -89.5 C 83.503906 -88.914062 84.023438 -88.039062 84.359375 -86.875 C 84.859375 -85.53125 85.109375 -83.398438 85.109375 -80.484375 L 85.109375 -11.015625 C 85.109375 -9.015625 85.046875 -7.550781 84.921875 -6.625 C 84.796875 -5.707031 84.398438 -4.625 83.734375 -3.375 C 82.566406 -1.125 79.316406 0 73.984375 0 C 70.722656 0 68.46875 -0.25 67.21875 -0.75 C 65.96875 -1.25 64.925781 -2.039062 64.09375 -3.125 C 45.3125 -28.164062 32.957031 -44.523438 27.03125 -52.203125 L 27.03125 -11.015625 C 27.03125 -9.015625 26.96875 -7.550781 26.84375 -6.625 C 26.71875 -5.707031 26.320312 -4.625 25.65625 -3.375 C 24.488281 -1.125 21.234375 0 15.890625 0 C 10.722656 0 7.554688 -1.125 6.390625 -3.375 C 5.710938 -4.625 5.3125 -5.75 5.1875 -6.75 C 5.0625 -7.757812 5 -9.222656 5 -11.140625 L 5 -80.984375 C 5 -84.160156 5.394531 -86.476562 6.1875 -87.9375 C 6.988281 -89.394531 8.179688 -90.375 9.765625 -90.875 C 11.347656 -91.375 13.390625 -91.625 15.890625 -91.625 C 18.398438 -91.625 20.382812 -91.394531 21.84375 -90.9375 C 23.300781 -90.476562 24.320312 -89.957031 24.90625 -89.375 C 25.238281 -89.125 26.195312 -88.039062 27.78125 -86.125 C 45.394531 -62.164062 57.164062 -46.347656 63.09375 -38.671875 L 63.09375 -80.984375 C 63.09375 -84.160156 63.488281 -86.476562 64.28125 -87.9375 Z M 64.28125 -87.9375 "/></g></g></g></svg>