<svg xmlns="http://www.w3.org/2000/svg" xmlns:xlink="http://www.w3.org/1999/xlink" width="200" zoomAndPan="magnify" viewBox="0 0 150 149.999998" height="200" preserveAspectRatio="xMidYMid meet" version="1.2"><defs/><g id="8d7f1c3a1f"><g style="fill:#2196f3;fill-opacity:1;"><g transform="translate(26.496093, 120.23302)"><path style="stroke:none" d="M 48.0625 -92.875 C 60.414062 -92.875 71.140625 -88.410156 80.234375 -79.484375 C 89.328125 -70.554688 93.875 -59.476562 93.875 -46.25 C 93.875 -33.019531 89.535156 -21.753906 80.859375 -12.453125 C 72.179688 -3.148438 61.5 1.5 48.8125 1.5 C 36.132812 1.5 25.347656 -3.085938 16.453125 -12.265625 C 7.566406 -21.441406 3.125 -32.375 3.125 -45.0625 C 3.125 -51.988281 4.375 -58.472656 6.875 -64.515625 C 9.382812 -70.566406 12.722656 -75.640625 16.890625 -79.734375 C 21.066406 -83.828125 25.863281 -87.039062 31.28125 -89.375 C 36.707031 -91.707031 42.300781 -92.875 48.0625 -92.875 Z M 25.28125 -45.6875 C 25.28125 -38.257812 27.675781 -32.226562 32.46875 -27.59375 C 37.269531 -22.96875 42.632812 -20.65625 48.5625 -20.65625 C 54.488281 -20.65625 59.828125 -22.90625 64.578125 -27.40625 C 69.335938 -31.914062 71.71875 -37.96875 71.71875 -45.5625 C 71.71875 -53.15625 69.316406 -59.242188 64.515625 -63.828125 C 59.722656 -68.421875 54.363281 -70.71875 48.4375 -70.71875 C 42.507812 -70.71875 37.164062 -68.398438 32.40625 -63.765625 C 27.65625 -59.140625 25.28125 -53.113281 25.28125 -45.6875 Z M 25.28125 -45.6875 "/></g></g></g></svg>