<svg xmlns="http://www.w3.org/2000/svg" xmlns:xlink="http://www.w3.org/1999/xlink" width="200" zoomAndPan="magnify" viewBox="0 0 150 149.999998" height="200" preserveAspectRatio="xMidYMid meet" version="1.2"><defs/><g id="01d29554ad"><g style="fill:#2196f3;fill-opacity:1;"><g transform="translate(35.132812, 120.23302)"><path style="stroke:none" d="M 65.71875 -91.75 C 67.632812 -91.75 69.070312 -91.6875 70.03125 -91.5625 C 70.988281 -91.4375 72.070312 -91.039062 73.28125 -90.375 C 74.5 -89.707031 75.359375 -88.578125 75.859375 -86.984375 C 76.359375 -85.398438 76.609375 -83.273438 76.609375 -80.609375 C 76.609375 -77.941406 76.359375 -75.8125 75.859375 -74.21875 C 75.359375 -72.632812 74.476562 -71.53125 73.21875 -70.90625 C 71.96875 -70.28125 70.863281 -69.90625 69.90625 -69.78125 C 68.945312 -69.65625 67.46875 -69.59375 65.46875 -69.59375 L 27.15625 -69.59375 L 27.15625 -56.953125 L 51.828125 -56.953125 C 53.828125 -56.953125 55.304688 -56.890625 56.265625 -56.765625 C 57.222656 -56.640625 58.328125 -56.242188 59.578125 -55.578125 C 61.753906 -54.328125 62.84375 -51.03125 62.84375 -45.6875 C 62.84375 -39.84375 61.253906 -36.378906 58.078125 -35.296875 C 56.742188 -34.878906 54.617188 -34.671875 51.703125 -34.671875 L 27.15625 -34.671875 L 27.15625 -11.015625 C 27.15625 -9.015625 27.09375 -7.550781 26.96875 -6.625 C 26.84375 -5.707031 26.445312 -4.625 25.78125 -3.375 C 24.613281 -1.125 21.359375 0 16.015625 0 C 10.179688 0 6.765625 -1.582031 5.765625 -4.75 C 5.253906 -6.09375 5 -8.222656 5 -11.140625 L 5 -80.734375 C 5 -84.992188 5.789062 -87.894531 7.375 -89.4375 C 8.96875 -90.976562 11.972656 -91.75 16.390625 -91.75 Z M 65.71875 -91.75 "/></g></g></g></svg>