<svg xmlns="http://www.w3.org/2000/svg" xmlns:xlink="http://www.w3.org/1999/xlink" width="200" zoomAndPan="magnify" viewBox="0 0 150 149.999998" height="200" preserveAspectRatio="xMidYMid meet" version="1.2"><defs/><g id="bac61f048a"><g style="fill:#2196f3;fill-opacity:1;"><g transform="translate(12.480469, 120.23302)"><path style="stroke:none" d="M 114.78125 -91.25 C 120.375 -89.25 123.171875 -86.578125 123.171875 -83.234375 C 123.171875 -82.148438 122.671875 -80.109375 121.671875 -77.109375 L 97.640625 -7.640625 C 97.472656 -7.054688 97.175781 -6.34375 96.75 -5.5 C 96.332031 -4.664062 95.226562 -3.5625 93.4375 -2.1875 C 91.644531 -0.8125 89.515625 -0.125 87.046875 -0.125 C 84.585938 -0.125 82.460938 -0.8125 80.671875 -2.1875 C 78.878906 -3.5625 77.691406 -4.921875 77.109375 -6.265625 L 62.453125 -49.4375 C 53.191406 -22.070312 48.476562 -8.140625 48.3125 -7.640625 C 48.144531 -7.140625 47.769531 -6.425781 47.1875 -5.5 C 46.601562 -4.582031 45.9375 -3.75 45.1875 -3 C 43.269531 -1.082031 40.972656 -0.125 38.296875 -0.125 C 35.628906 -0.125 33.441406 -0.75 31.734375 -2 C 30.023438 -3.25 28.875 -4.503906 28.28125 -5.765625 L 27.40625 -7.640625 L 3.25 -77.109375 C 2.332031 -79.859375 1.875 -81.898438 1.875 -83.234375 C 1.875 -86.578125 4.671875 -89.207031 10.265625 -91.125 C 12.679688 -91.957031 14.867188 -92.375 16.828125 -92.375 C 18.796875 -92.375 20.300781 -91.707031 21.34375 -90.375 C 22.382812 -89.039062 23.320312 -86.992188 24.15625 -84.234375 L 37.921875 -42.4375 L 51.578125 -83.609375 C 52.742188 -87.117188 54.867188 -89.539062 57.953125 -90.875 C 59.285156 -91.457031 61.015625 -91.75 63.140625 -91.75 C 65.273438 -91.75 67.257812 -91.0625 69.09375 -89.6875 C 70.925781 -88.3125 72.09375 -86.957031 72.59375 -85.625 L 87 -42.1875 L 100.765625 -84.234375 C 101.429688 -86.160156 101.972656 -87.582031 102.390625 -88.5 C 102.804688 -89.414062 103.578125 -90.3125 104.703125 -91.1875 C 105.828125 -92.0625 107.222656 -92.5 108.890625 -92.5 C 110.566406 -92.5 112.53125 -92.082031 114.78125 -91.25 Z M 114.78125 -91.25 "/></g></g></g></svg>