<svg xmlns="http://www.w3.org/2000/svg" xmlns:xlink="http://www.w3.org/1999/xlink" width="200" zoomAndPan="magnify" viewBox="0 0 150 149.999998" height="200" preserveAspectRatio="xMidYMid meet" version="1.2"><defs/><g id="c661cd610f"><g style="fill:#2196f3;fill-opacity:1;"><g transform="translate(35.074218, 120.23302)"><path style="stroke:none" d="M 27.15625 -22.15625 L 65.71875 -22.15625 C 67.632812 -22.15625 69.070312 -22.09375 70.03125 -21.96875 C 70.988281 -21.84375 72.09375 -21.445312 73.34375 -20.78125 C 75.601562 -19.613281 76.734375 -16.359375 76.734375 -11.015625 C 76.734375 -5.171875 75.1875 -1.75 72.09375 -0.75 C 70.675781 -0.25 68.507812 0 65.59375 0 L 16.015625 0 C 10.179688 0 6.765625 -1.582031 5.765625 -4.75 C 5.253906 -6.09375 5 -8.222656 5 -11.140625 L 5 -80.734375 C 5 -84.992188 5.789062 -87.894531 7.375 -89.4375 C 8.96875 -90.976562 11.972656 -91.75 16.390625 -91.75 L 65.71875 -91.75 C 67.632812 -91.75 69.070312 -91.6875 70.03125 -91.5625 C 70.988281 -91.4375 72.09375 -91.039062 73.34375 -90.375 C 75.601562 -89.207031 76.734375 -85.953125 76.734375 -80.609375 C 76.734375 -74.765625 75.1875 -71.34375 72.09375 -70.34375 C 70.675781 -69.84375 68.507812 -69.59375 65.59375 -69.59375 L 27.15625 -69.59375 L 27.15625 -56.953125 L 51.953125 -56.953125 C 53.867188 -56.953125 55.304688 -56.890625 56.265625 -56.765625 C 57.222656 -56.640625 58.328125 -56.242188 59.578125 -55.578125 C 61.835938 -54.410156 62.96875 -51.15625 62.96875 -45.8125 C 62.96875 -39.96875 61.378906 -36.546875 58.203125 -35.546875 C 56.785156 -35.046875 54.617188 -34.796875 51.703125 -34.796875 L 27.15625 -34.796875 Z M 27.15625 -22.15625 "/></g></g></g></svg>