<svg xmlns="http://www.w3.org/2000/svg" xmlns:xlink="http://www.w3.org/1999/xlink" width="200" zoomAndPan="magnify" viewBox="0 0 150 149.999998" height="200" preserveAspectRatio="xMidYMid meet" version="1.2"><defs/><g id="8cddc92615"><g style="fill:#2196f3;fill-opacity:1;"><g transform="translate(30.316406, 120.23302)"><path style="stroke:none" d="M 52.828125 -55.328125 L 74.859375 -55.328125 C 79.359375 -55.160156 82.109375 -53.992188 83.109375 -51.828125 C 83.941406 -50.234375 84.359375 -47.894531 84.359375 -44.8125 L 84.359375 -17.28125 C 84.359375 -14.601562 83.191406 -12.054688 80.859375 -9.640625 C 73.847656 -2.378906 63.332031 1.25 49.3125 1.25 C 36.882812 1.25 26.078125 -3.441406 16.890625 -12.828125 C 7.710938 -22.210938 3.125 -33.539062 3.125 -46.8125 C 3.125 -60.082031 7.796875 -71.160156 17.140625 -80.046875 C 26.492188 -88.929688 37.507812 -93.375 50.1875 -93.375 C 60.039062 -93.375 69.347656 -90.117188 78.109375 -83.609375 C 80.359375 -81.941406 81.484375 -80.085938 81.484375 -78.046875 C 81.484375 -76.003906 80.523438 -73.644531 78.609375 -70.96875 C 75.347656 -66.550781 72.382812 -64.34375 69.71875 -64.34375 C 68.132812 -64.34375 65.585938 -65.488281 62.078125 -67.78125 C 58.578125 -70.070312 54.40625 -71.21875 49.5625 -71.21875 C 43.226562 -71.21875 37.597656 -68.984375 32.671875 -64.515625 C 27.742188 -60.054688 25.28125 -54.21875 25.28125 -47 C 25.28125 -39.78125 27.785156 -33.644531 32.796875 -28.59375 C 37.804688 -23.550781 43.476562 -21.03125 49.8125 -21.03125 C 54.40625 -21.03125 58.535156 -21.78125 62.203125 -23.28125 L 62.203125 -36.921875 L 52.328125 -36.921875 C 49.734375 -36.921875 47.894531 -37.253906 46.8125 -37.921875 C 45.726562 -38.585938 45.019531 -39.566406 44.6875 -40.859375 C 44.351562 -42.160156 44.1875 -43.914062 44.1875 -46.125 C 44.1875 -48.332031 44.375 -50.101562 44.75 -51.4375 C 45.125 -52.78125 45.8125 -53.703125 46.8125 -54.203125 C 48.3125 -54.953125 50.316406 -55.328125 52.828125 -55.328125 Z M 52.828125 -55.328125 "/></g></g></g></svg>