<svg xmlns="http://www.w3.org/2000/svg" xmlns:xlink="http://www.w3.org/1999/xlink" width="200" zoomAndPan="magnify" viewBox="0 0 150 149.999998" height="200" preserveAspectRatio="xMidYMid meet" version="1.2"><defs/><g id="58d6cf4980"><g style="fill:#2196f3;fill-opacity:1;"><g transform="translate(35.003905, 120.23302)"><path style="stroke:none" d="M 44.3125 -46.0625 C 57.082031 -33.789062 66.132812 -24.570312 71.46875 -18.40625 C 74.226562 -15.3125 75.609375 -12.703125 75.609375 -10.578125 C 75.609375 -8.453125 73.9375 -5.945312 70.59375 -3.0625 C 67.257812 -0.1875 64.523438 1.25 62.390625 1.25 C 60.265625 1.25 57.703125 -0.5 54.703125 -4 L 27.15625 -35.421875 L 27.15625 -11.015625 C 27.15625 -9.015625 27.09375 -7.550781 26.96875 -6.625 C 26.84375 -5.707031 26.445312 -4.625 25.78125 -3.375 C 24.613281 -1.125 21.359375 0 16.015625 0 C 10.179688 0 6.765625 -1.582031 5.765625 -4.75 C 5.253906 -6.09375 5 -8.222656 5 -11.140625 L 5 -80.734375 C 5 -82.648438 5.0625 -84.085938 5.1875 -85.046875 C 5.3125 -86.015625 5.710938 -87.125 6.390625 -88.375 C 7.554688 -90.625 10.804688 -91.75 16.140625 -91.75 C 21.984375 -91.75 25.445312 -90.207031 26.53125 -87.125 C 26.945312 -85.695312 27.15625 -83.523438 27.15625 -80.609375 L 27.15625 -56.703125 C 38.507812 -69.472656 47.691406 -79.945312 54.703125 -88.125 C 57.617188 -91.539062 60.160156 -93.25 62.328125 -93.25 C 64.503906 -93.25 67.257812 -91.804688 70.59375 -88.921875 C 73.9375 -86.046875 75.609375 -83.546875 75.609375 -81.421875 C 75.609375 -79.296875 74.351562 -76.769531 71.84375 -73.84375 C 67.007812 -68.257812 59.5 -60.582031 49.3125 -50.8125 Z M 44.3125 -46.0625 "/></g></g></g></svg>