<svg xmlns="http://www.w3.org/2000/svg" xmlns:xlink="http://www.w3.org/1999/xlink" width="200" zoomAndPan="magnify" viewBox="0 0 150 149.999998" height="200" preserveAspectRatio="xMidYMid meet" version="1.2"><defs/><g id="e619db0d6b"><g style="fill:#2196f3;fill-opacity:1;"><g transform="translate(32.062499, 120.23302)"><path style="stroke:none" d="M 77.859375 -90 C 81.941406 -87.164062 83.984375 -84.410156 83.984375 -81.734375 C 83.984375 -80.148438 83.023438 -77.941406 81.109375 -75.109375 L 54.078125 -34.671875 L 54.078125 -10.765625 C 54.078125 -8.847656 54.015625 -7.40625 53.890625 -6.4375 C 53.765625 -5.476562 53.367188 -4.375 52.703125 -3.125 C 52.035156 -1.875 50.90625 -1 49.3125 -0.5 C 47.726562 0 45.597656 0.25 42.921875 0.25 C 40.253906 0.25 38.128906 0 36.546875 -0.5 C 34.960938 -1 33.835938 -1.894531 33.171875 -3.1875 C 32.503906 -4.476562 32.109375 -5.601562 31.984375 -6.5625 C 31.859375 -7.53125 31.796875 -9.015625 31.796875 -11.015625 L 31.796875 -34.671875 L 4.75 -75.109375 C 2.832031 -77.941406 1.875 -80.148438 1.875 -81.734375 C 1.875 -84.410156 3.707031 -86.976562 7.375 -89.4375 C 11.050781 -91.894531 13.679688 -93.125 15.265625 -93.125 C 16.859375 -93.125 18.113281 -92.789062 19.03125 -92.125 C 20.445312 -91.207031 21.945312 -89.5 23.53125 -87 L 42.9375 -55.953125 L 62.328125 -87 C 63.921875 -89.5 65.300781 -91.144531 66.46875 -91.9375 C 67.632812 -92.726562 68.988281 -93.125 70.53125 -93.125 C 72.070312 -93.125 74.515625 -92.082031 77.859375 -90 Z M 77.859375 -90 "/></g></g></g></svg>