<svg xmlns="http://www.w3.org/2000/svg" xmlns:xlink="http://www.w3.org/1999/xlink" width="200" zoomAndPan="magnify" viewBox="0 0 150 149.999998" height="200" preserveAspectRatio="xMidYMid meet" version="1.2"><defs/><g id="002aaa6996"><g style="fill:#2196f3;fill-opacity:1;"><g transform="translate(28.628906, 120.23302)"><path style="stroke:none" d="M 61.453125 -46.4375 L 86.625 -18.78125 C 89.457031 -15.601562 90.875 -12.929688 90.875 -10.765625 C 90.875 -8.597656 89.265625 -6.050781 86.046875 -3.125 C 82.835938 -0.207031 80.128906 1.25 77.921875 1.25 C 75.710938 1.25 73.144531 -0.414062 70.21875 -3.75 L 46.4375 -31.046875 L 22.65625 -3.75 C 19.65625 -0.414062 17.085938 1.25 14.953125 1.25 C 12.828125 1.25 10.113281 -0.226562 6.8125 -3.1875 C 3.519531 -6.15625 1.875 -8.679688 1.875 -10.765625 C 1.875 -12.847656 3.335938 -15.519531 6.265625 -18.78125 L 31.421875 -46.4375 L 6.265625 -74.109375 C 3.335938 -77.191406 1.875 -79.816406 1.875 -81.984375 C 1.875 -84.148438 3.5 -86.710938 6.75 -89.671875 C 10.007812 -92.640625 12.742188 -94.125 14.953125 -94.125 C 17.171875 -94.125 19.738281 -92.457031 22.65625 -89.125 L 46.4375 -61.828125 L 70.21875 -89.125 C 73.226562 -92.457031 75.796875 -94.125 77.921875 -94.125 C 80.046875 -94.125 82.734375 -92.664062 85.984375 -89.75 C 89.242188 -86.832031 90.875 -84.242188 90.875 -81.984375 C 90.875 -79.734375 89.457031 -77.109375 86.625 -74.109375 Z M 61.453125 -46.4375 "/></g></g></g></svg>