<svg xmlns="http://www.w3.org/2000/svg" xmlns:xlink="http://www.w3.org/1999/xlink" width="200" zoomAndPan="magnify" viewBox="0 0 150 149.999998" height="200" preserveAspectRatio="xMidYMid meet" version="1.2"><g id="536079aefc"><path style=" stroke:none;fill-rule:nonzero;fill:#39b54a;fill-opacity:1;" d="M 57.351562 31.332031 C 53.664062 28.714844 51.339844 24.792969 48.4375 21.332031 C 38.449219 9.503906 21.984375 16.828125 22.535156 15.40625 C 24.074219 11.21875 36.328125 0.03125 54.851562 4.941406 C 65.566406 7.789062 71.550781 21.507812 72.972656 32.523438 C 72.972656 32.523438 61.039062 33.949219 57.351562 31.332031 Z M 57.351562 31.332031 "/><path style=" stroke:none;fill-rule:nonzero;fill:#b07e09;fill-opacity:1;" d="M 88.070312 16.972656 C 88.011719 18.019531 86.910156 19.355469 86.097656 20.171875 C 82.320312 23.890625 80.550781 28.308594 79.390625 33.015625 C 78.808594 35.371094 78.574219 37.8125 78.722656 40.226562 C 78.777344 41.417969 78.953125 42.609375 79.214844 43.769531 C 79.417969 44.730469 80.058594 46.039062 79.621094 46.996094 C 79.070312 48.246094 75.207031 49.46875 74.511719 48.945312 C 73.058594 47.839844 73.753906 43.859375 73.378906 42.257812 C 72.882812 40.109375 73.234375 37.667969 73.582031 35.515625 C 73.988281 33.164062 74.65625 30.867188 75.613281 28.6875 C 77.558594 24.269531 80.898438 20.375 84.730469 16.859375 C 87.140625 14.707031 88.128906 15.929688 88.070312 16.972656 Z M 88.070312 16.972656 "/><path style=" stroke:none;fill-rule:nonzero;fill:#ed1c24;fill-opacity:1;" d="M 142.3125 72.804688 C 141.46875 83.996094 138.128906 94.835938 134.820312 105.589844 C 131.597656 116.050781 128.171875 126.863281 120.910156 135.03125 C 116.03125 140.523438 108.976562 144.5625 101.574219 145.144531 C 97.914062 145.4375 94.980469 144.070312 91.46875 143.664062 C 89.085938 143.402344 87.375 145.085938 85.339844 146.074219 C 77.414062 149.96875 67.511719 149.910156 59.441406 146.425781 C 46.636719 140.875 37.78125 129.101562 29.824219 117.652344 C 18.210938 100.96875 6.683594 81.117188 11.9375 61.5 C 15.828125 46.9375 29.765625 36.855469 44.660156 34.585938 C 54.796875 33.074219 75.0625 37.027344 76.574219 43.363281 C 78.777344 36.59375 93.441406 28.28125 106.363281 26.417969 C 117.484375 24.851562 128.75 31.1875 135.050781 40.488281 C 141.351562 49.789062 143.183594 61.585938 142.3125 72.804688 Z M 142.3125 72.804688 "/><path style=" stroke:none;fill-rule:nonzero;fill:#b07e09;fill-opacity:1;" d="M 75.875 34.644531 C 73.144531 30.402344 70.097656 27.902344 67.542969 24.269531 C 64.988281 20.636719 62.226562 17.933594 58.976562 14.941406 C 55.40625 11.65625 51.136719 9.273438 46.316406 8.660156 C 41.496094 8.050781 37.546875 8.253906 33.25 10.550781 C 38.300781 8.371094 45.9375 7.265625 55.375 13.835938 C 59.324219 16.597656 63.914062 21.710938 66.84375 25.488281 C 70.589844 30.34375 72.160156 33.800781 76.164062 39.296875 C 76.050781 37.785156 76.019531 36.128906 75.875 34.644531 Z M 75.875 34.644531 "/></g></svg>