<svg xmlns="http://www.w3.org/2000/svg" xmlns:xlink="http://www.w3.org/1999/xlink" width="200" zoomAndPan="magnify" viewBox="0 0 150 149.999998" height="200" preserveAspectRatio="xMidYMid meet" version="1.2"><defs><clipPath id="3d6687525a"><path d="M 11 6 L 141.816406 6 L 141.816406 150 L 11 150 Z M 11 6 "/></clipPath><clipPath id="4b4b4a7a39"><path d="M 8.316406 0 L 139 0 L 139 148 L 8.316406 148 Z M 8.316406 0 "/></clipPath></defs><g id="b833ab08e2"><g clip-rule="nonzero" clip-path="url(#3d6687525a)"><path style=" stroke:none;fill-rule:nonzero;fill:#8c2837;fill-opacity:1;" d="M 101.574219 33.964844 C 100.886719 34.382812 22.339844 106.445312 22.339844 106.445312 L 14.132812 105.933594 L 12.503906 104.480469 L 11.707031 96.722656 L 28.519531 81.59375 L 49.375 57.476562 C 49.375 57.476562 49.601562 48.410156 72.097656 40.570312 C 94.59375 32.730469 107.640625 10.929688 107.640625 10.929688 C 107.640625 10.929688 116.640625 4.425781 117.242188 6.476562 C 117.84375 8.53125 121.972656 11.558594 121.972656 11.558594 C 121.972656 11.558594 122.523438 21.609375 122.011719 22.3125 C 121.5 23.023438 102.261719 33.542969 101.574219 33.964844 Z M 138.726562 43.816406 C 138.113281 43.300781 137.476562 42.789062 136.890625 42.355469 C 136.265625 41.890625 135.703125 41.511719 135.285156 41.3125 C 135.074219 41.210938 134.820312 41.0625 134.535156 40.875 C 133.085938 39.90625 130.816406 37.898438 128.949219 35.675781 C 128.167969 34.746094 127.457031 33.777344 126.910156 32.832031 C 126.828125 32.703125 126.757812 32.574219 126.683594 32.441406 C 126.226562 31.601562 125.730469 30.832031 125.242188 30.140625 C 123.527344 27.746094 121.824219 26.308594 121.824219 26.308594 C 121.824219 26.308594 117.472656 30.300781 116.21875 31.644531 C 114.96875 32.984375 115.929688 32.074219 114.984375 33.742188 C 114.039062 35.40625 111.375 37.179688 108.351562 40.054688 C 105.328125 42.929688 105.175781 46.457031 102.167969 49.9375 C 99.15625 53.414062 95.972656 55.828125 94.925781 59.746094 C 93.878906 63.660156 92.535156 64.023438 88.789062 68.203125 C 85.039062 72.386719 84.804688 75.675781 82.449219 78.074219 C 80.097656 80.46875 75.078125 81.253906 72.863281 83.355469 C 70.648438 85.460938 71.59375 87.480469 69.234375 89.726562 C 66.878906 91.972656 65.625 93.164062 62.269531 98.050781 C 58.910156 102.933594 59.484375 105.308594 55.8125 109.417969 C 52.140625 113.527344 47.597656 115.695312 45.082031 117.632812 C 42.566406 119.566406 40.664062 125.679688 39.492188 127.253906 C 38.324219 128.832031 34.578125 129.472656 34.527344 130.75 C 34.484375 131.902344 35.957031 132.359375 39.484375 134.433594 C 39.867188 134.65625 40.273438 134.902344 40.703125 135.167969 C 40.839844 135.25 40.964844 135.328125 41.089844 135.40625 C 43.878906 137.148438 43.816406 137.523438 44.304688 138.484375 C 44.503906 138.875 44.789062 139.363281 45.394531 140.078125 C 46.460938 141.34375 46.886719 141.867188 47.226562 142.363281 C 47.570312 142.875 47.824219 143.359375 48.570312 144.585938 C 48.742188 144.875 48.964844 145.167969 49.222656 145.46875 C 49.769531 146.109375 50.46875 146.753906 51.183594 147.351562 C 52.957031 148.820312 54.839844 149.988281 54.839844 149.988281 C 54.839844 149.988281 57.769531 146.128906 61.484375 142.648438 C 65.203125 139.175781 66.777344 134.785156 70.996094 131.386719 C 75.210938 127.992188 76.226562 126.40625 79.742188 121.832031 C 83.253906 117.257812 81.734375 116.402344 86.367188 111.378906 C 91 106.351562 88.625 107.847656 92.132812 103.121094 C 95.644531 98.398438 95.351562 98.828125 100.691406 95.285156 C 106.03125 91.742188 110.804688 82.589844 114.960938 76.480469 C 119.117188 70.371094 118.171875 71.886719 123.503906 66.710938 C 128.832031 61.539062 128.339844 58.066406 134.019531 52.816406 C 139.699219 47.5625 141.703125 46.425781 141.703125 46.425781 C 141.703125 46.425781 140.292969 45.121094 138.726562 43.816406 Z M 138.726562 43.816406 "/></g><g clip-rule="nonzero" clip-path="url(#4b4b4a7a39)"><path style=" stroke:none;fill-rule:nonzero;fill:#bb4346;fill-opacity:1;" d="M 14.136719 97.210938 C 13.328125 97.839844 12.507812 104.480469 12.507812 104.480469 C 10.882812 102.402344 9.097656 99.957031 8.78125 99.707031 C 8.464844 99.460938 9.464844 92.492188 12.105469 90.316406 C 14.742188 88.136719 15.1875 87.914062 17.609375 84.664062 C 20.03125 81.417969 28.125 78.453125 28.859375 75.902344 C 29.589844 73.355469 33.84375 72.765625 35.390625 69.828125 C 36.9375 66.890625 40.863281 61.601562 44.03125 59.632812 C 47.199219 57.660156 45.570312 57.320312 49.875 52.359375 C 54.179688 47.398438 52.652344 45.621094 57.050781 44.417969 C 61.449219 43.21875 63.847656 42.960938 69.492188 40.667969 C 75.132812 38.375 72.84375 38.925781 78.234375 34.730469 C 83.628906 30.527344 87.089844 31.792969 91.152344 26.519531 C 95.21875 21.253906 97.804688 20.601562 99.910156 15.992188 C 102.011719 11.386719 103.355469 10.089844 105.359375 8.53125 C 107.363281 6.972656 113.070312 0 113.070312 0 C 113.070312 0 116.785156 2.855469 117.242188 6.457031 C 117.242188 6.460938 117.246094 6.472656 117.246094 6.480469 C 115.472656 8.160156 113.582031 10.191406 113.207031 11.519531 C 112.464844 14.140625 105.3125 20.453125 103.179688 22.484375 C 101.046875 24.515625 96.710938 30.859375 92.152344 34.074219 C 87.597656 37.28125 80.746094 40.882812 78.472656 41.542969 C 76.195312 42.199219 74.753906 46.296875 69.867188 48.613281 C 64.988281 50.929688 56.875 53.160156 56.875 53.160156 C 56.875 53.160156 48.109375 64.070312 47.699219 64.253906 C 47.289062 64.445312 39.933594 75.261719 37.585938 76.535156 C 35.230469 77.808594 33.128906 81.304688 31.164062 82.835938 C 29.203125 84.367188 26.285156 88.488281 22.574219 90.640625 C 18.859375 92.785156 14.949219 96.578125 14.949219 96.578125 C 14.949219 96.578125 14.949219 96.578125 14.136719 97.210938 Z M 47.617188 95.824219 C 52.167969 93.394531 53.457031 90.289062 56.390625 84.042969 C 59.324219 77.796875 64.492188 74.269531 68.894531 71.335938 C 73.296875 68.40625 75.019531 69.660156 80.191406 67.238281 C 85.367188 64.820312 88.808594 60.65625 91.21875 56.921875 C 93.628906 53.191406 96.347656 52.0625 102.753906 47.570312 C 109.15625 43.078125 111.5 41.003906 114.800781 37.933594 C 118.105469 34.867188 119.453125 31.347656 123.554688 29.140625 C 127.65625 26.9375 129.328125 22.417969 129.328125 22.417969 C 129.328125 22.417969 129.246094 20.25 127.027344 18.519531 C 126.511719 18.117188 126.074219 17.679688 125.679688 17.203125 C 125.148438 16.566406 124.699219 15.867188 124.242188 15.117188 C 123.585938 14.035156 122.917969 12.84375 121.972656 11.558594 C 121.765625 11.277344 121.554688 11.035156 121.34375 10.828125 C 119.367188 12.152344 117.144531 13.835938 116.65625 14.988281 C 115.746094 17.152344 114.671875 19.105469 111.609375 21.855469 C 108.554688 24.609375 106.808594 25.230469 102.777344 29.105469 C 98.746094 32.988281 97.488281 34.238281 92.886719 38.339844 C 88.28125 42.4375 87.242188 44.445312 82.71875 46.257812 C 78.183594 48.074219 74.535156 50.542969 72.226562 52.34375 C 69.914062 54.144531 60.304688 57.542969 60.304688 57.542969 C 60.304688 57.542969 54.476562 62.695312 52.515625 64.9375 C 50.546875 67.183594 48.28125 72.375 45.269531 75.421875 C 42.257812 78.464844 36.117188 82.507812 34.257812 84.882812 C 32.398438 87.257812 31.046875 87.195312 26.734375 91.671875 C 22.417969 96.140625 21.761719 95.542969 19.105469 97.609375 C 17.476562 98.878906 15.457031 102.960938 14.144531 105.929688 C 14.632812 106.222656 15.136719 106.503906 15.820312 107.199219 C 16.207031 107.597656 16.652344 108.128906 17.183594 108.882812 C 17.527344 109.367188 17.898438 109.820312 18.292969 110.246094 C 18.96875 110.984375 19.695312 111.640625 20.386719 112.195312 C 20.914062 112.621094 21.421875 112.984375 21.878906 113.292969 C 22.960938 114.023438 23.738281 114.421875 23.738281 114.421875 C 23.738281 114.421875 25.808594 113.425781 26.5 112.566406 C 27.191406 111.707031 29.550781 110.761719 32.753906 106.289062 C 35.953125 101.816406 36.644531 102.390625 39.652344 100.050781 C 42.652344 97.710938 43.074219 98.25 47.617188 95.824219 Z M 54.40625 122.085938 C 55.601562 121.140625 58.402344 117.066406 59.90625 114.949219 C 61.40625 112.835938 61.503906 112.011719 64.082031 107.945312 C 66.65625 103.882812 67.703125 101.898438 70.519531 98.375 C 73.335938 94.847656 78.984375 92.074219 80.25 91.078125 C 81.515625 90.082031 90.277344 80.375 91.960938 77.78125 C 93.640625 75.1875 99.265625 68.359375 99.265625 68.359375 C 99.265625 68.359375 100.1875 66.21875 102.167969 64.472656 C 104.148438 62.726562 107.109375 57.96875 107.269531 57.464844 C 107.433594 56.960938 112.140625 50.636719 114.914062 47.523438 C 117.679688 44.414062 121.464844 39.75 123.011719 37.222656 C 123.773438 35.980469 125.398438 34.277344 126.910156 32.832031 C 126.828125 32.703125 126.757812 32.574219 126.683594 32.441406 C 126.226562 31.601562 125.730469 30.832031 125.242188 30.140625 C 122.273438 33.84375 118.054688 39.097656 117.136719 40.175781 C 115.683594 41.882812 111.488281 46.492188 108.113281 51.203125 C 107.527344 52.019531 107.09375 53.675781 105.652344 55.316406 C 105.136719 55.902344 104.785156 56.1875 104.363281 56.914062 C 103.648438 58.140625 103.871094 58.675781 103.082031 59.785156 C 102.976562 59.933594 102.601562 60.347656 101.847656 61.179688 C 101.347656 61.730469 101.09375 62.007812 100.621094 62.519531 C 97.460938 65.910156 93.671875 71.914062 93.671875 71.914062 C 92.519531 72.824219 85.195312 83.636719 82.15625 86.40625 C 79.117188 89.175781 75.832031 91.390625 73.644531 93.117188 C 71.457031 94.839844 67.144531 99.546875 65.367188 101.695312 C 63.585938 103.84375 61.078125 110.300781 60.628906 110.671875 C 60.175781 111.046875 52.070312 119.453125 50.363281 121.542969 C 48.652344 123.636719 48.417969 125.691406 45.023438 129.671875 C 43.039062 132 40.914062 133.546875 39.488281 134.429688 C 39.871094 134.65625 40.277344 134.902344 40.707031 135.164062 C 40.84375 135.246094 40.96875 135.324219 41.09375 135.402344 C 42.414062 134.429688 43.867188 133.289062 44.359375 132.617188 C 45.351562 131.273438 49.40625 127.894531 49.902344 126.398438 C 50.40625 124.90625 53.214844 123.023438 54.40625 122.085938 Z M 136.890625 42.355469 C 134.246094 45.496094 130.296875 50.109375 128.558594 51.71875 C 125.824219 54.246094 123.015625 56.832031 117.347656 62.421875 C 111.679688 68.007812 113.164062 67.835938 110.109375 72.476562 C 107.058594 77.125 108.394531 77.558594 104.382812 82.714844 C 100.367188 87.871094 97.984375 90.371094 96.410156 90.742188 C 94.832031 91.113281 89.503906 96.183594 89.503906 96.183594 C 89.503906 96.183594 87.085938 101.941406 85.335938 103.820312 C 83.585938 105.699219 80.335938 109.625 74.957031 115.734375 C 69.574219 121.839844 70.339844 121.859375 60.59375 133.148438 C 50.84375 144.441406 56.925781 136.539062 52.757812 141.195312 C 51.128906 143.011719 50 144.421875 49.222656 145.460938 C 49.769531 146.101562 50.46875 146.75 51.183594 147.347656 C 53.074219 145.554688 56.707031 142.117188 57.625 141.207031 C 58.882812 139.964844 64.339844 132.0625 67.933594 128.105469 C 71.527344 124.148438 73.539062 124.808594 74.09375 121.882812 C 74.644531 118.960938 84.863281 108.417969 86.214844 106.980469 C 87.566406 105.542969 88.285156 102.988281 90.519531 99.984375 C 92.753906 96.976562 94.976562 94.601562 97.371094 93.214844 C 99.761719 91.828125 102.25 88.992188 106.652344 83.21875 C 111.054688 77.449219 109.484375 78.933594 112.050781 74.300781 C 114.617188 69.667969 115.316406 70.238281 119.25 65.765625 C 123.183594 61.292969 123.941406 59.578125 126.40625 57.335938 C 128.867188 55.097656 133.007812 50.566406 135.128906 47.898438 C 136.132812 46.632812 137.535156 45.085938 138.726562 43.808594 C 138.113281 43.300781 137.476562 42.789062 136.890625 42.355469 Z M 136.890625 42.355469 "/></g><path style=" stroke:none;fill-rule:nonzero;fill:#cc6e59;fill-opacity:1;" d="M 134.535156 40.871094 C 133.457031 42.164062 131.695312 44.070312 129.128906 46.296875 C 124.324219 50.453125 126.214844 48.59375 120.128906 54.753906 C 114.046875 60.917969 113.960938 59.863281 110.039062 65.449219 C 106.109375 71.03125 103.601562 74.003906 101.9375 76.929688 C 100.265625 79.863281 98.984375 82.492188 96.949219 85.589844 C 94.917969 88.683594 87.777344 94.933594 84.691406 98.113281 C 81.601562 101.289062 81.816406 101.246094 80.648438 102.292969 C 79.480469 103.335938 73.621094 110.566406 68.804688 116.601562 C 63.992188 122.636719 63.480469 123.414062 58.261719 128.144531 C 54.59375 131.476562 49.765625 138.488281 47.226562 142.351562 C 46.890625 141.855469 46.464844 141.332031 45.398438 140.066406 C 44.789062 139.355469 44.503906 138.863281 44.308594 138.472656 C 44.996094 137.238281 46.015625 135.804688 47.507812 134.382812 C 51.347656 130.734375 60.441406 121.453125 63.605469 117.585938 C 66.777344 113.71875 66.136719 110.867188 70.996094 105.667969 C 75.851562 100.476562 72.71875 102.8125 80.628906 95.335938 C 88.535156 87.863281 89.785156 85.503906 93.851562 82.300781 C 97.917969 79.097656 99.863281 70.851562 103.597656 66.910156 C 107.332031 62.972656 107.324219 61.859375 113.988281 55.488281 C 120.652344 49.113281 123.027344 47.863281 126.433594 42.566406 C 127.953125 40.203125 128.648438 37.707031 128.949219 35.664062 C 130.816406 37.898438 133.085938 39.90625 134.535156 40.871094 Z M 53.429688 78.027344 C 56.4375 74.382812 55.765625 74.351562 58.808594 71.703125 C 61.851562 69.054688 64.597656 67.257812 65.609375 66.410156 C 66.617188 65.558594 67.25 64.941406 70.054688 63.378906 C 72.863281 61.8125 71.007812 63.253906 75.910156 62.226562 C 80.800781 61.195312 82.433594 59 83.605469 57.960938 C 84.777344 56.921875 93.832031 47.890625 98.726562 44.078125 C 103.621094 40.269531 102.472656 41.65625 108.046875 36.820312 C 113.625 31.980469 113.769531 31.375 117.136719 28.070312 C 120.507812 24.765625 122.34375 21.722656 123.746094 19.949219 C 124.324219 19.226562 125.039062 18.183594 125.679688 17.203125 C 125.148438 16.566406 124.699219 15.867188 124.242188 15.117188 C 123.90625 15.453125 123.542969 15.835938 123.160156 16.261719 C 119.847656 19.953125 121.328125 19.234375 117.519531 22.761719 C 113.703125 26.289062 112.742188 27.59375 108.058594 32.785156 C 103.375 37.980469 103.3125 37.417969 99.851562 39.175781 C 96.394531 40.941406 89.589844 47.539062 89.589844 47.539062 C 89.589844 47.539062 89.226562 47.949219 86.746094 50.003906 C 84.261719 52.0625 79.023438 55.902344 73.398438 57.984375 C 67.78125 60.070312 67.789062 60.003906 64.015625 62.941406 C 60.238281 65.878906 57.996094 67.132812 54.660156 71.03125 C 51.324219 74.929688 50.179688 74.335938 46.875 77.960938 C 43.570312 81.589844 42.964844 82.554688 39.457031 86.074219 C 35.945312 89.59375 31.355469 92.523438 31.355469 92.523438 C 31.355469 92.523438 26.898438 96.734375 23.574219 98.582031 C 20.242188 100.429688 21.371094 102.027344 19.210938 103.710938 C 17.886719 104.742188 16.644531 106.175781 15.8125 107.199219 C 16.199219 107.601562 16.648438 108.132812 17.179688 108.886719 C 17.519531 109.371094 17.894531 109.820312 18.285156 110.25 C 19.078125 108.917969 20.648438 106.449219 22.394531 104.695312 C 24.898438 102.191406 26.542969 100.726562 30.242188 97.84375 C 33.941406 94.964844 34.113281 93.996094 36.871094 91.9375 C 39.632812 89.878906 44.226562 84.816406 46.253906 83.242188 C 48.277344 81.664062 50.417969 81.667969 53.429688 78.027344 Z M 53.429688 78.027344 "/></g></svg>