<svg xmlns="http://www.w3.org/2000/svg" xmlns:xlink="http://www.w3.org/1999/xlink" width="200" zoomAndPan="magnify" viewBox="0 0 150 149.999998" height="200" preserveAspectRatio="xMidYMid meet" version="1.2"><defs><clipPath id="b578cc9a90"><path d="M 0.1875 29.046875 L 149.8125 29.046875 L 149.8125 121.296875 L 0.1875 121.296875 Z M 0.1875 29.046875 "/></clipPath></defs><g id="c10edc1cbf"><g clip-rule="nonzero" clip-path="url(#b578cc9a90)"><path style=" stroke:none;fill-rule:nonzero;fill:#fabe57;fill-opacity:1;" d="M 100.269531 85.074219 C 98.035156 84.949219 95.851562 84.835938 93.804688 84.699219 C 96.398438 81.53125 98.527344 77.980469 100.019531 74.042969 C 100.058594 73.945312 100.09375 73.847656 100.128906 73.746094 C 108.851562 73.558594 117.242188 76.765625 119.117188 80.21875 C 120.769531 83.261719 110.660156 85.648438 100.269531 85.074219 Z M 33.054688 69.882812 C 33.054688 69.882812 32.785156 66.726562 42.359375 60.578125 C 49.015625 56.300781 57.839844 55.105469 63.804688 56.003906 C 58.914062 59.074219 54.542969 62.9375 51.765625 67.355469 C 51.519531 67.746094 51.289062 68.140625 51.066406 68.539062 C 41.636719 70.679688 33.59375 72.421875 33.054688 69.882812 Z M 143.910156 65.386719 C 129.875 53.371094 114.480469 46.992188 97.335938 47.042969 C 95.375 42.847656 92.710938 39.285156 89.375 37.21875 C 69.726562 25.0625 44.882812 26.992188 22.878906 39.53125 C 14.132812 44.515625 4.257812 54.292969 1.285156 64.449219 C -1.566406 74.195312 1.394531 84.949219 7.257812 93.347656 C 16.441406 106.507812 36.90625 107.75 54.222656 104.796875 C 66.410156 119.222656 94.359375 122.609375 110.515625 120.910156 C 123.328125 119.558594 136.207031 114.355469 144.105469 103.730469 C 150.160156 95.585938 153.203125 73.339844 143.910156 65.386719 "/></g><path style=" stroke:none;fill-rule:nonzero;fill:#c3631d;fill-opacity:1;" d="M 42.777344 42.996094 C 42.921875 42.84375 43.050781 42.683594 43.1875 42.523438 C 43.246094 42.453125 43.332031 42.371094 43.363281 42.285156 C 43.425781 42.085938 43.34375 41.886719 43.160156 41.789062 C 42.875 41.632812 42.660156 41.847656 42.460938 42.015625 C 42.320312 42.132812 42.183594 42.253906 42.050781 42.382812 C 41.875 42.554688 41.90625 42.875 42.097656 43.023438 C 42.300781 43.179688 42.59375 43.1875 42.777344 42.996094 Z M 56.414062 39.746094 C 56.441406 39.96875 56.554688 40.144531 56.769531 40.222656 C 56.964844 40.296875 57.238281 40.269531 57.382812 40.101562 C 57.613281 39.835938 57.765625 39.53125 57.78125 39.175781 C 57.792969 38.921875 57.679688 38.664062 57.417969 38.574219 C 57.179688 38.492188 56.859375 38.542969 56.707031 38.761719 C 56.683594 38.789062 56.667969 38.816406 56.648438 38.847656 C 56.5625 38.886719 56.496094 38.960938 56.484375 39.070312 C 56.472656 39.175781 56.460938 39.28125 56.453125 39.390625 C 56.445312 39.46875 56.425781 39.539062 56.417969 39.613281 L 56.390625 39.664062 L 56.410156 39.664062 C 56.410156 39.691406 56.410156 39.71875 56.414062 39.746094 Z M 44.8125 34.859375 C 44.828125 34.914062 44.855469 34.96875 44.898438 35.007812 C 44.988281 35.09375 45.113281 35.136719 45.238281 35.113281 C 45.324219 35.101562 45.378906 35.046875 45.441406 35.007812 C 45.570312 34.921875 45.695312 34.824219 45.816406 34.726562 C 46.023438 34.5625 45.980469 34.25 45.792969 34.097656 C 45.753906 34.066406 45.714844 34.046875 45.675781 34.027344 C 45.726562 33.765625 45.691406 33.484375 45.558594 33.234375 C 45.46875 33.0625 45.265625 32.980469 45.082031 32.972656 C 44.773438 32.960938 44.507812 33.078125 44.328125 33.332031 C 44.257812 33.4375 44.214844 33.550781 44.203125 33.660156 C 44.0625 33.890625 44.054688 34.203125 44.167969 34.445312 C 44.292969 34.710938 44.542969 34.863281 44.8125 34.859375 Z M 53.054688 42.21875 C 52.96875 42.277344 53.078125 42.203125 53.085938 42.195312 C 53.140625 42.160156 53.195312 42.121094 53.25 42.082031 C 53.460938 41.929688 53.414062 41.613281 53.238281 41.460938 C 53.054688 41.304688 52.738281 41.308594 52.59375 41.527344 C 52.546875 41.59375 52.503906 41.664062 52.457031 41.734375 C 52.371094 41.871094 52.453125 42.097656 52.574219 42.183594 C 52.707031 42.289062 52.90625 42.320312 53.054688 42.21875 Z M 82.792969 42.863281 C 83 42.726562 83.101562 42.582031 83.183594 42.363281 C 83.210938 42.285156 83.242188 42.210938 83.269531 42.132812 C 83.371094 41.863281 83.152344 41.546875 82.890625 41.488281 C 82.613281 41.425781 82.292969 41.554688 82.207031 41.847656 C 82.183594 41.921875 82.164062 41.996094 82.140625 42.074219 C 82.082031 42.285156 82.082031 42.476562 82.183594 42.671875 C 82.296875 42.894531 82.574219 43.011719 82.792969 42.863281 Z M 66.078125 36.675781 C 66.285156 36.539062 66.386719 36.394531 66.46875 36.175781 C 66.496094 36.101562 66.523438 36.023438 66.554688 35.945312 C 66.652344 35.675781 66.4375 35.359375 66.175781 35.300781 C 65.898438 35.238281 65.574219 35.367188 65.492188 35.660156 C 65.472656 35.734375 65.449219 35.808594 65.425781 35.886719 C 65.371094 36.097656 65.371094 36.289062 65.46875 36.488281 C 65.582031 36.707031 65.855469 36.824219 66.078125 36.675781 Z M 35.085938 39.335938 C 35.273438 39.5625 35.671875 39.472656 35.8125 39.25 C 36.050781 38.871094 36.039062 38.46875 36.042969 38.046875 C 36.050781 37.714844 35.707031 37.4375 35.386719 37.480469 C 35.046875 37.523438 34.773438 37.800781 34.78125 38.152344 C 34.78125 38.265625 34.78125 38.378906 34.789062 38.492188 C 34.804688 38.835938 34.863281 39.074219 35.085938 39.335938 Z M 16.933594 79.878906 C 16.644531 79.722656 16.429688 79.9375 16.230469 80.105469 C 16.089844 80.222656 15.953125 80.34375 15.820312 80.46875 C 15.644531 80.640625 15.679688 80.964844 15.867188 81.113281 C 16.070312 81.269531 16.363281 81.277344 16.546875 81.085938 C 16.695312 80.933594 16.824219 80.769531 16.957031 80.609375 C 17.019531 80.542969 17.101562 80.460938 17.132812 80.375 C 17.199219 80.175781 17.113281 79.976562 16.933594 79.878906 Z M 108.902344 58.597656 C 109.046875 58.445312 109.175781 58.285156 109.3125 58.121094 C 109.371094 58.054688 109.457031 57.972656 109.484375 57.886719 C 109.550781 57.6875 109.46875 57.488281 109.285156 57.390625 C 108.996094 57.234375 108.785156 57.449219 108.585938 57.617188 C 108.445312 57.734375 108.308594 57.855469 108.175781 57.980469 C 108 58.152344 108.03125 58.476562 108.222656 58.625 C 108.425781 58.78125 108.71875 58.789062 108.902344 58.597656 Z M 101.164062 93.203125 C 100.875 93.042969 100.664062 93.257812 100.460938 93.425781 C 100.320312 93.546875 100.1875 93.664062 100.054688 93.792969 C 99.878906 93.964844 99.910156 94.285156 100.101562 94.433594 C 100.300781 94.59375 100.597656 94.597656 100.78125 94.40625 C 100.925781 94.257812 101.054688 94.09375 101.191406 93.933594 C 101.25 93.863281 101.335938 93.78125 101.363281 93.695312 C 101.429688 93.5 101.34375 93.300781 101.164062 93.203125 Z M 134.53125 72.496094 C 134.289062 72.414062 133.972656 72.464844 133.816406 72.683594 C 133.796875 72.710938 133.777344 72.738281 133.757812 72.765625 C 133.671875 72.808594 133.605469 72.882812 133.59375 72.992188 C 133.582031 73.097656 133.574219 73.203125 133.5625 73.308594 C 133.554688 73.390625 133.535156 73.460938 133.527344 73.535156 L 133.5 73.585938 L 133.523438 73.585938 C 133.519531 73.613281 133.519531 73.640625 133.523438 73.667969 C 133.550781 73.890625 133.664062 74.066406 133.882812 74.144531 C 134.074219 74.21875 134.347656 74.191406 134.492188 74.023438 C 134.722656 73.757812 134.878906 73.453125 134.890625 73.097656 C 134.902344 72.84375 134.789062 72.585938 134.53125 72.496094 Z M 108.871094 87.539062 C 108.632812 87.453125 108.3125 87.503906 108.15625 87.726562 C 108.136719 87.753906 108.117188 87.78125 108.097656 87.808594 C 108.015625 87.851562 107.949219 87.921875 107.9375 88.03125 C 107.925781 88.140625 107.914062 88.246094 107.902344 88.351562 C 107.894531 88.429688 107.878906 88.503906 107.867188 88.578125 L 107.839844 88.628906 L 107.863281 88.628906 C 107.863281 88.65625 107.863281 88.679688 107.867188 88.710938 C 107.890625 88.933594 108.007812 89.105469 108.222656 89.1875 C 108.417969 89.257812 108.691406 89.230469 108.835938 89.0625 C 109.0625 88.800781 109.21875 88.492188 109.234375 88.140625 C 109.242188 87.882812 109.128906 87.625 108.871094 87.539062 Z M 110.59375 92.9375 C 110.550781 93.003906 110.503906 93.074219 110.460938 93.144531 C 110.371094 93.285156 110.457031 93.507812 110.578125 93.597656 C 110.710938 93.699219 110.910156 93.730469 111.054688 93.628906 C 110.972656 93.6875 111.082031 93.613281 111.089844 93.605469 C 111.144531 93.570312 111.199219 93.53125 111.253906 93.492188 C 111.464844 93.339844 111.417969 93.023438 111.242188 92.871094 C 111.054688 92.714844 110.738281 92.71875 110.59375 92.9375 Z M 123.300781 61.535156 C 123.507812 61.398438 123.609375 61.25 123.691406 61.035156 C 123.722656 60.957031 123.75 60.882812 123.78125 60.804688 C 123.878906 60.535156 123.664062 60.21875 123.398438 60.160156 C 123.125 60.097656 122.800781 60.226562 122.71875 60.515625 C 122.695312 60.59375 122.671875 60.667969 122.652344 60.742188 C 122.59375 60.957031 122.59375 61.144531 122.695312 61.34375 C 122.804688 61.566406 123.082031 61.679688 123.300781 61.535156 Z M 135.800781 85.71875 C 135.523438 85.65625 135.203125 85.78125 135.121094 86.074219 C 135.097656 86.148438 135.074219 86.226562 135.054688 86.300781 C 134.996094 86.515625 134.996094 86.703125 135.097656 86.902344 C 135.207031 87.125 135.484375 87.238281 135.703125 87.09375 C 135.910156 86.957031 136.011719 86.808594 136.09375 86.59375 C 136.125 86.515625 136.152344 86.4375 136.183594 86.363281 C 136.28125 86.09375 136.066406 85.777344 135.800781 85.71875 Z M 124.179688 86.710938 C 123.902344 86.648438 123.578125 86.777344 123.496094 87.070312 C 123.472656 87.144531 123.449219 87.21875 123.429688 87.296875 C 123.371094 87.507812 123.371094 87.699219 123.472656 87.898438 C 123.582031 88.121094 123.859375 88.234375 124.082031 88.085938 C 124.285156 87.949219 124.390625 87.804688 124.46875 87.585938 C 124.5 87.511719 124.527344 87.433594 124.558594 87.355469 C 124.65625 87.089844 124.441406 86.773438 124.179688 86.710938 Z M 93.390625 88.890625 C 93.050781 88.933594 92.777344 89.210938 92.78125 89.5625 C 92.785156 89.675781 92.785156 89.792969 92.789062 89.902344 C 92.808594 90.25 92.867188 90.484375 93.089844 90.75 C 93.277344 90.972656 93.671875 90.882812 93.816406 90.660156 C 94.054688 90.285156 94.039062 89.882812 94.046875 89.457031 C 94.054688 89.125 93.707031 88.847656 93.390625 88.890625 Z M 36.8125 84.238281 C 36.523438 84.082031 36.3125 84.296875 36.109375 84.464844 C 35.96875 84.582031 35.832031 84.699219 35.703125 84.828125 C 35.523438 85 35.558594 85.324219 35.75 85.472656 C 35.949219 85.628906 36.246094 85.632812 36.425781 85.445312 C 36.574219 85.292969 36.703125 85.128906 36.839844 84.96875 C 36.898438 84.898438 36.984375 84.820312 37.011719 84.730469 C 37.078125 84.535156 36.992188 84.335938 36.8125 84.238281 Z M 26.9375 74.464844 C 26.738281 75.054688 26.632812 75.738281 26.949219 76.304688 C 27.074219 76.53125 27.519531 76.550781 27.613281 76.285156 C 27.785156 75.796875 27.789062 75.273438 27.960938 74.785156 C 28.183594 74.152344 27.148438 73.847656 26.9375 74.464844 Z M 78.195312 52.609375 L 78.203125 52.605469 L 78.222656 52.585938 Z M 76.824219 52.980469 C 76.628906 52.726562 76.664062 52.4375 76.75 52.148438 C 76.8125 51.933594 76.921875 51.828125 77.082031 51.679688 C 77.175781 51.589844 77.289062 51.566406 77.398438 51.589844 C 77.457031 51.542969 77.523438 51.503906 77.59375 51.484375 C 77.875 51.402344 78.15625 51.429688 78.375 51.632812 C 78.5625 51.804688 78.636719 52.054688 78.589844 52.300781 C 78.527344 52.640625 78.269531 52.933594 77.972656 53.089844 C 77.652344 53.257812 77.074219 53.308594 76.824219 52.980469 Z M 68.894531 68.089844 L 68.90625 68.085938 L 68.925781 68.066406 Z M 69.078125 67.117188 C 69.265625 67.285156 69.339844 67.535156 69.292969 67.78125 C 69.226562 68.121094 68.96875 68.414062 68.671875 68.570312 C 68.351562 68.742188 67.773438 68.792969 67.523438 68.460938 C 67.328125 68.207031 67.367188 67.917969 67.449219 67.628906 C 67.515625 67.414062 67.625 67.308594 67.78125 67.160156 C 67.875 67.070312 67.992188 67.046875 68.097656 67.070312 C 68.160156 67.023438 68.222656 66.984375 68.292969 66.964844 C 68.574219 66.882812 68.855469 66.914062 69.078125 67.117188 Z M 86.804688 58.273438 L 86.816406 58.269531 L 86.835938 58.25 Z M 85.433594 58.648438 C 85.242188 58.394531 85.277344 58.105469 85.363281 57.8125 C 85.425781 57.601562 85.535156 57.496094 85.695312 57.34375 C 85.785156 57.253906 85.902344 57.230469 86.011719 57.253906 C 86.070312 57.207031 86.136719 57.167969 86.207031 57.148438 C 86.484375 57.066406 86.769531 57.097656 86.988281 57.300781 C 87.175781 57.472656 87.25 57.71875 87.203125 57.964844 C 87.140625 58.304688 86.882812 58.597656 86.585938 58.753906 C 86.265625 58.925781 85.6875 58.976562 85.433594 58.648438 Z M 78.625 66.742188 L 78.636719 66.738281 L 78.65625 66.71875 Z M 78.808594 65.769531 C 78.996094 65.941406 79.070312 66.1875 79.023438 66.4375 C 78.960938 66.773438 78.703125 67.066406 78.40625 67.222656 C 78.082031 67.394531 77.507812 67.445312 77.253906 67.117188 C 77.0625 66.863281 77.097656 66.570312 77.183594 66.28125 C 77.246094 66.066406 77.355469 65.964844 77.511719 65.8125 C 77.605469 65.722656 77.722656 65.699219 77.832031 65.722656 C 77.890625 65.675781 77.953125 65.636719 78.023438 65.617188 C 78.304688 65.535156 78.585938 65.566406 78.808594 65.769531 Z M 51.070312 81.019531 C 50.828125 80.941406 50.511719 80.988281 50.355469 81.210938 C 50.335938 81.238281 50.316406 81.265625 50.296875 81.292969 C 50.210938 81.335938 50.144531 81.40625 50.132812 81.519531 C 50.121094 81.625 50.113281 81.730469 50.101562 81.835938 C 50.09375 81.914062 50.074219 81.988281 50.066406 82.0625 L 50.039062 82.113281 L 50.0625 82.113281 C 50.0625 82.140625 50.0625 82.167969 50.0625 82.195312 C 50.089844 82.417969 50.203125 82.589844 50.421875 82.671875 C 50.613281 82.746094 50.890625 82.714844 51.035156 82.550781 C 51.265625 82.285156 51.417969 81.980469 51.433594 81.625 C 51.441406 81.367188 51.328125 81.109375 51.070312 81.019531 Z M 8.792969 68.316406 C 8.84375 68.054688 8.808594 67.773438 8.675781 67.523438 C 8.589844 67.351562 8.382812 67.265625 8.203125 67.261719 C 7.894531 67.25 7.628906 67.363281 7.449219 67.621094 C 7.375 67.722656 7.335938 67.835938 7.324219 67.949219 C 7.183594 68.179688 7.171875 68.488281 7.285156 68.730469 C 7.410156 69 7.664062 69.148438 7.929688 69.144531 C 7.945312 69.203125 7.972656 69.253906 8.015625 69.296875 C 8.109375 69.382812 8.230469 69.421875 8.355469 69.402344 C 8.441406 69.386719 8.5 69.335938 8.558594 69.292969 C 8.691406 69.207031 8.8125 69.109375 8.9375 69.015625 C 9.140625 68.847656 9.097656 68.539062 8.910156 68.386719 C 8.875 68.355469 8.832031 68.335938 8.792969 68.316406 Z M 18.664062 64.558594 C 18.710938 64.296875 18.675781 64.011719 18.546875 63.765625 C 18.457031 63.59375 18.253906 63.507812 18.070312 63.5 C 17.761719 63.492188 17.496094 63.605469 17.316406 63.863281 C 17.242188 63.964844 17.203125 64.078125 17.191406 64.191406 C 17.050781 64.421875 17.039062 64.730469 17.15625 64.972656 C 17.28125 65.238281 17.53125 65.390625 17.796875 65.386719 C 17.8125 65.441406 17.839844 65.496094 17.882812 65.535156 C 17.976562 65.625 18.097656 65.664062 18.226562 65.644531 C 18.308594 65.628906 18.367188 65.574219 18.429688 65.535156 C 18.558594 65.449219 18.679688 65.351562 18.804688 65.253906 C 19.011719 65.089844 18.96875 64.78125 18.777344 64.625 C 18.742188 64.597656 18.703125 64.574219 18.664062 64.558594 Z M 46.242188 83.972656 C 46.199219 84.042969 46.152344 84.113281 46.109375 84.183594 C 46.019531 84.320312 46.105469 84.542969 46.222656 84.632812 C 46.359375 84.734375 46.554688 84.765625 46.703125 84.664062 C 46.621094 84.722656 46.726562 84.648438 46.738281 84.644531 C 46.792969 84.605469 46.847656 84.566406 46.902344 84.527344 C 47.113281 84.378906 47.0625 84.058594 46.886719 83.910156 C 46.703125 83.753906 46.386719 83.753906 46.242188 83.972656 Z M 18.222656 52.160156 C 18.429688 52.023438 18.53125 51.878906 18.613281 51.660156 C 18.640625 51.585938 18.671875 51.507812 18.699219 51.429688 C 18.800781 51.164062 18.582031 50.847656 18.320312 50.789062 C 18.042969 50.726562 17.722656 50.851562 17.636719 51.144531 C 17.613281 51.21875 17.59375 51.296875 17.570312 51.371094 C 17.511719 51.582031 17.511719 51.773438 17.613281 51.972656 C 17.726562 52.195312 18 52.308594 18.222656 52.160156 Z M 59.140625 78.105469 C 59.121094 78.179688 59.097656 78.257812 59.078125 78.332031 C 59.019531 78.546875 59.019531 78.734375 59.117188 78.933594 C 59.230469 79.15625 59.507812 79.269531 59.726562 79.125 C 59.933594 78.988281 60.035156 78.839844 60.117188 78.625 C 60.148438 78.546875 60.175781 78.46875 60.203125 78.394531 C 60.304688 78.125 60.089844 77.808594 59.824219 77.75 C 59.546875 77.6875 59.226562 77.8125 59.140625 78.105469 Z M 29.039062 79.925781 C 28.695312 79.96875 28.421875 80.246094 28.429688 80.601562 C 28.433594 80.714844 28.433594 80.828125 28.4375 80.941406 C 28.457031 81.285156 28.515625 81.519531 28.734375 81.785156 C 28.925781 82.011719 29.320312 81.921875 29.464844 81.695312 C 29.703125 81.320312 29.6875 80.917969 29.695312 80.492188 C 29.703125 80.160156 29.355469 79.886719 29.039062 79.925781 Z M 125.171875 75.9375 C 124.851562 76.601562 124.941406 77.441406 124.585938 78.148438 C 123.636719 80.035156 121.699219 81.246094 119.835938 82.074219 C 115.519531 83.996094 110.632812 84.394531 105.976562 84.699219 C 103.476562 84.867188 100.792969 84.691406 98.324219 85.0625 C 97.773438 85.144531 97.046875 85.503906 97.683594 86.140625 C 98.277344 86.738281 100.933594 86.527344 101.722656 86.5625 C 106.699219 86.785156 111.839844 86.628906 116.683594 85.371094 C 120.789062 84.304688 126.957031 81.492188 126.578125 76.289062 C 126.511719 75.347656 125.59375 75.054688 125.171875 75.9375 Z M 100.558594 51.976562 C 100.246094 50.972656 99.945312 49.296875 99.285156 48.472656 C 99 48.121094 98.632812 47.867188 98.210938 48.179688 C 97.640625 48.59375 98.015625 49.242188 98.195312 49.773438 C 99.066406 52.335938 99.730469 54.972656 100.070312 57.660156 C 101.460938 68.730469 100.390625 77.089844 92.859375 85.011719 C 85.46875 92.789062 71.976562 99.46875 61.742188 102.164062 C 60.507812 102.488281 59.265625 102.785156 58.019531 103.066406 C 57.675781 103.144531 56.910156 103.160156 56.785156 103.625 C 56.597656 104.328125 57.21875 104.386719 57.710938 104.375 C 60.269531 104.316406 63.125 103.328125 65.582031 102.667969 C 70.875 101.242188 76.078125 99.191406 80.792969 96.371094 C 90.875 90.347656 99.589844 80.3125 101.714844 68.457031 C 102.734375 62.953125 102.222656 57.300781 100.558594 51.976562 Z M 67.324219 62.96875 C 59.625 68.691406 49.308594 71.382812 39.832031 71.710938 C 35.714844 71.855469 31.011719 71.613281 27.425781 69.339844 C 25.851562 68.339844 24.601562 66.914062 23.992188 65.125 C 23.734375 64.359375 23.316406 63.027344 23.539062 62.21875 C 23.714844 61.570312 24.394531 61.15625 24.886719 61.839844 C 25.367188 62.5 25.191406 64.0625 25.546875 64.894531 C 25.839844 65.585938 26.257812 66.21875 26.78125 66.757812 C 28.089844 68.117188 29.917969 68.84375 31.714844 69.28125 C 36.039062 70.328125 42.601562 71.351562 56.570312 66.949219 C 64.285156 64.523438 65.789062 62.085938 68.738281 59.167969 C 69.175781 58.738281 69.570312 58.523438 69.453125 57.953125 C 69.378906 57.585938 68.929688 57.160156 68.664062 56.933594 C 68 56.375 67.125 56.128906 66.289062 55.96875 C 65.40625 55.796875 64.5 55.753906 63.601562 55.722656 C 63.164062 55.703125 62.136719 55.871094 61.730469 55.5625 C 59.722656 54.050781 65.605469 53.722656 66.25 53.8125 C 68.113281 54.066406 69.992188 54.972656 70.695312 56.839844 C 72.054688 54.824219 73 52.269531 72.792969 49.804688 C 72.75 49.292969 72.128906 47.777344 73.121094 47.75 C 74.03125 47.726562 74.121094 49.632812 74.175781 50.265625 C 74.628906 55.476562 71.238281 59.976562 67.324219 62.96875 "/><path style=" stroke:none;fill-rule:nonzero;fill:#17292f;fill-opacity:1;" d="M 77.070312 114.359375 C 77 113.554688 76.949219 112.753906 76.917969 111.949219 C 76.878906 111.140625 76.875 110.335938 76.875 109.523438 C 76.875 108.71875 76.894531 107.894531 76.917969 107.09375 L 76.921875 107.074219 C 76.925781 106.902344 76.816406 106.738281 76.640625 106.679688 C 76.429688 106.617188 76.207031 106.734375 76.140625 106.945312 C 75.882812 107.777344 75.738281 108.601562 75.636719 109.449219 C 75.539062 110.289062 75.5 111.140625 75.515625 111.988281 C 75.515625 112.410156 75.554688 112.835938 75.578125 113.257812 C 75.625 113.683594 75.65625 114.105469 75.738281 114.523438 C 75.863281 115.367188 76.078125 116.195312 76.359375 116.996094 C 76.433594 117.203125 76.636719 117.339844 76.859375 117.320312 C 77.128906 117.296875 77.328125 117.0625 77.304688 116.792969 L 77.304688 116.773438 C 77.238281 115.960938 77.132812 115.164062 77.070312 114.359375 Z M 74.898438 102.003906 C 74.707031 101.894531 74.464844 101.960938 74.355469 102.152344 C 73.867188 103 73.503906 103.878906 73.195312 104.792969 C 72.890625 105.707031 72.660156 106.648438 72.511719 107.609375 C 72.375 108.574219 72.324219 109.558594 72.410156 110.546875 C 72.511719 111.535156 72.753906 112.527344 73.207031 113.421875 C 73.304688 113.621094 73.53125 113.730469 73.757812 113.679688 C 74.015625 113.613281 74.175781 113.351562 74.113281 113.089844 L 74.109375 113.0625 C 73.902344 112.203125 73.789062 111.34375 73.75 110.464844 C 73.738281 109.582031 73.796875 108.695312 73.902344 107.804688 C 74.011719 106.910156 74.191406 106.023438 74.386719 105.132812 C 74.589844 104.246094 74.824219 103.347656 75.078125 102.480469 L 75.082031 102.460938 C 75.132812 102.289062 75.0625 102.097656 74.898438 102.003906 Z M 147.933594 81.339844 C 147.902344 81.003906 147.859375 80.699219 147.757812 80.328125 C 147.691406 80.089844 147.453125 79.933594 147.203125 79.980469 C 146.941406 80.027344 146.769531 80.28125 146.816406 80.542969 L 146.824219 80.589844 C 146.863281 80.8125 146.886719 81.117188 146.886719 81.390625 C 146.894531 81.671875 146.871094 81.953125 146.847656 82.234375 C 146.78125 82.796875 146.644531 83.347656 146.449219 83.878906 C 146.078125 84.949219 145.472656 85.933594 144.726562 86.800781 C 143.96875 87.667969 143.097656 88.441406 142.136719 89.109375 C 141.179688 89.785156 140.148438 90.359375 139.09375 90.894531 C 136.957031 91.921875 134.683594 92.695312 132.375 93.347656 L 131.503906 93.59375 L 130.628906 93.804688 L 129.75 94.019531 L 128.867188 94.210938 C 127.691406 94.492188 126.5 94.695312 125.3125 94.9375 L 125.300781 94.941406 C 125.101562 94.980469 124.964844 95.167969 124.984375 95.371094 C 125.007812 95.589844 125.203125 95.75 125.421875 95.726562 C 126.636719 95.601562 127.851562 95.457031 129.0625 95.261719 C 129.671875 95.175781 130.273438 95.054688 130.875 94.933594 L 131.78125 94.753906 L 132.679688 94.546875 C 135.074219 93.988281 137.441406 93.222656 139.703125 92.164062 C 140.824219 91.613281 141.917969 90.992188 142.953125 90.265625 C 143.976562 89.519531 144.941406 88.667969 145.753906 87.664062 C 146.558594 86.660156 147.21875 85.507812 147.601562 84.257812 C 147.792969 83.632812 147.910156 82.980469 147.945312 82.324219 C 147.957031 81.996094 147.960938 81.667969 147.933594 81.339844 Z M 95.925781 50.574219 C 95.894531 50.410156 95.851562 50.253906 95.804688 50.09375 C 95.757812 49.9375 95.71875 49.777344 95.660156 49.621094 C 95.550781 49.300781 95.441406 49.011719 95.261719 48.675781 C 95.152344 48.476562 94.917969 48.371094 94.691406 48.441406 C 94.4375 48.523438 94.292969 48.796875 94.371094 49.050781 L 94.390625 49.101562 C 94.421875 49.207031 94.464844 49.359375 94.496094 49.496094 C 94.539062 49.628906 94.5625 49.777344 94.597656 49.917969 C 94.652344 50.203125 94.703125 50.488281 94.730469 50.78125 L 94.78125 51.21875 L 94.804688 51.660156 C 94.832031 51.953125 94.820312 52.25 94.824219 52.542969 C 94.8125 53.71875 94.652344 54.898438 94.398438 56.058594 L 94.1875 56.929688 C 94.105469 57.214844 94.003906 57.496094 93.921875 57.785156 C 93.761719 58.363281 93.511719 58.914062 93.3125 59.480469 C 93.089844 60.042969 92.820312 60.585938 92.585938 61.148438 C 92.320312 61.695312 92.027344 62.230469 91.769531 62.789062 L 91.757812 62.816406 C 91.679688 62.984375 91.726562 63.191406 91.882812 63.304688 C 92.058594 63.433594 92.308594 63.398438 92.4375 63.222656 C 92.808594 62.710938 93.160156 62.1875 93.519531 61.660156 C 93.828125 61.109375 94.164062 60.566406 94.441406 59.992188 C 94.703125 59.410156 94.996094 58.839844 95.195312 58.226562 C 95.304688 57.925781 95.417969 57.625 95.511719 57.316406 L 95.765625 56.382812 C 96.0625 55.125 96.226562 53.824219 96.171875 52.519531 C 96.140625 51.867188 96.074219 51.214844 95.925781 50.574219 Z M 22.582031 99.589844 L 22.5625 99.578125 C 21.800781 99.1875 21.136719 98.507812 20.527344 97.785156 C 20.226562 97.417969 19.929688 97.039062 19.652344 96.644531 C 19.367188 96.253906 19.097656 95.847656 18.828125 95.4375 C 17.761719 93.796875 16.796875 92.050781 15.8125 90.324219 L 15.808594 90.316406 C 15.71875 90.15625 15.527344 90.074219 15.347656 90.128906 C 15.132812 90.195312 15.015625 90.417969 15.082031 90.628906 C 15.382812 91.617188 15.761719 92.558594 16.191406 93.488281 C 16.617188 94.414062 17.101562 95.316406 17.644531 96.195312 C 18.191406 97.066406 18.796875 97.917969 19.527344 98.6875 C 19.890625 99.070312 20.285156 99.433594 20.730469 99.757812 C 21.175781 100.070312 21.671875 100.355469 22.242188 100.5 C 22.457031 100.550781 22.6875 100.453125 22.792969 100.246094 C 22.914062 100.003906 22.820312 99.710938 22.582031 99.589844 Z M 18.101562 99.265625 C 18.273438 99.402344 18.300781 99.65625 18.164062 99.828125 C 18.039062 99.980469 17.820312 100.015625 17.65625 99.921875 C 16.171875 99.058594 14.753906 98.042969 13.542969 96.808594 C 12.320312 95.585938 11.210938 94.246094 10.289062 92.789062 C 9.355469 91.339844 8.550781 89.8125 7.886719 88.226562 C 7.222656 86.636719 6.695312 85.015625 6.355469 83.300781 C 6.304688 83.039062 6.472656 82.78125 6.738281 82.730469 C 6.980469 82.679688 7.214844 82.824219 7.289062 83.050781 L 7.300781 83.082031 C 7.554688 83.84375 7.824219 84.640625 8.144531 85.402344 C 8.445312 86.171875 8.777344 86.929688 9.117188 87.683594 C 9.8125 89.179688 10.597656 90.632812 11.472656 92.027344 C 12.328125 93.433594 13.351562 94.71875 14.425781 95.949219 L 15.269531 96.847656 C 15.558594 97.136719 15.875 97.394531 16.171875 97.679688 L 16.621094 98.101562 C 16.777344 98.230469 16.945312 98.351562 17.105469 98.480469 C 17.429688 98.730469 17.753906 98.984375 18.078125 99.246094 L 18.101562 99.265625 "/><path style=" stroke:none;fill-rule:nonzero;fill:#ffffff;fill-opacity:1;" d="M 67.8125 47.210938 C 67.53125 47.019531 67.257812 46.816406 66.96875 46.640625 L 66.082031 46.144531 C 65.476562 45.855469 64.859375 45.574219 64.222656 45.367188 C 62.957031 44.929688 61.648438 44.648438 60.339844 44.496094 C 59.03125 44.359375 57.722656 44.3125 56.421875 44.359375 C 53.824219 44.472656 51.265625 44.878906 48.78125 45.511719 C 46.292969 46.140625 43.878906 46.957031 41.53125 48.03125 C 41.261719 48.152344 41.121094 48.460938 41.210938 48.75 C 41.304688 49.066406 41.640625 49.246094 41.953125 49.148438 L 41.976562 49.140625 C 43.148438 48.78125 44.351562 48.429688 45.558594 48.140625 C 46.761719 47.835938 47.972656 47.566406 49.183594 47.332031 C 51.609375 46.859375 54.054688 46.542969 56.488281 46.472656 C 58.707031 46.425781 60.925781 46.578125 63.011719 47.128906 C 63.015625 47.546875 63.222656 47.949219 63.589844 48.160156 C 63.824219 48.292969 64.121094 48.324219 64.378906 48.253906 C 64.644531 48.179688 64.839844 48.003906 64.949219 47.777344 C 66.667969 48.492188 68.207031 49.570312 69.445312 50.996094 L 69.457031 51.007812 C 69.695312 51.28125 70.101562 51.34375 70.410156 51.136719 C 70.746094 50.910156 70.835938 50.457031 70.609375 50.121094 C 69.863281 49 68.894531 48.027344 67.8125 47.210938 Z M 41.582031 54.570312 C 41.8125 54.421875 41.917969 54.136719 41.824219 53.871094 C 41.71875 53.558594 41.378906 53.390625 41.066406 53.5 C 40.332031 53.757812 39.59375 54.023438 38.863281 54.332031 L 37.804688 54.863281 C 37.449219 55.039062 37.097656 55.21875 36.765625 55.445312 C 36.433594 55.65625 36.09375 55.867188 35.761719 56.089844 C 35.421875 56.300781 35.125 56.574219 34.804688 56.816406 C 34.152344 57.289062 33.597656 57.882812 33.015625 58.4375 C 32.476562 59.042969 31.945312 59.65625 31.488281 60.332031 C 31.375 60.496094 31.257812 60.664062 31.144531 60.835938 L 30.535156 61.890625 C 30.4375 62.070312 30.359375 62.261719 30.269531 62.445312 L 30.015625 63 L 29.796875 63.570312 C 29.648438 63.949219 29.542969 64.347656 29.429688 64.738281 C 29.367188 64.933594 29.335938 65.136719 29.292969 65.335938 C 29.246094 65.535156 29.207031 65.738281 29.179688 65.941406 C 29.152344 66.144531 29.125 66.351562 29.109375 66.558594 C 29.089844 66.769531 29.085938 66.964844 29.082031 67.214844 C 29.082031 67.542969 29.304688 67.84375 29.636719 67.925781 C 30.027344 68.019531 30.421875 67.78125 30.515625 67.390625 L 30.535156 67.292969 C 30.566406 67.164062 30.609375 66.976562 30.660156 66.8125 C 30.699219 66.644531 30.753906 66.472656 30.804688 66.304688 C 30.90625 65.964844 31.035156 65.628906 31.160156 65.296875 C 31.296875 64.964844 31.421875 64.632812 31.589844 64.3125 L 31.8125 63.828125 L 32.070312 63.359375 C 32.757812 62.109375 33.605469 60.953125 34.554688 59.878906 C 35.058594 59.363281 35.546875 58.832031 36.105469 58.371094 C 36.378906 58.136719 36.628906 57.871094 36.929688 57.660156 C 37.21875 57.445312 37.503906 57.214844 37.796875 56.996094 C 38.074219 56.757812 38.390625 56.570312 38.695312 56.363281 L 39.613281 55.746094 C 40.246094 55.363281 40.898438 55.003906 41.535156 54.601562 Z M 120.972656 71.222656 C 120.316406 70.53125 119.578125 69.925781 118.804688 69.382812 C 117.25 68.308594 115.539062 67.53125 113.789062 66.957031 C 112.035156 66.378906 110.238281 66 108.4375 65.773438 C 106.625 65.550781 104.828125 65.457031 102.988281 65.59375 C 102.710938 65.613281 102.472656 65.832031 102.441406 66.121094 C 102.402344 66.449219 102.636719 66.75 102.964844 66.785156 L 102.988281 66.789062 C 104.699219 66.988281 106.441406 67.265625 108.136719 67.613281 C 108.960938 67.789062 109.78125 67.976562 110.59375 68.191406 C 110.589844 68.257812 110.585938 68.320312 110.589844 68.386719 C 110.601562 68.742188 111.207031 68.925781 111.402344 68.613281 C 111.433594 68.558594 111.460938 68.5 111.492188 68.445312 C 112.039062 68.601562 112.582031 68.769531 113.117188 68.960938 C 113.917969 69.242188 114.71875 69.539062 115.480469 69.90625 C 116.246094 70.253906 116.996094 70.640625 117.699219 71.082031 C 117.882812 71.183594 118.050781 71.304688 118.226562 71.417969 C 118.398438 71.53125 118.574219 71.648438 118.734375 71.773438 C 118.898438 71.898438 119.074219 72.015625 119.234375 72.144531 L 119.710938 72.542969 C 120.335938 73.082031 120.898438 73.683594 121.429688 74.328125 L 121.445312 74.351562 C 121.664062 74.613281 122.042969 74.699219 122.355469 74.527344 C 122.710938 74.335938 122.84375 73.890625 122.652344 73.535156 C 122.199219 72.695312 121.621094 71.925781 120.972656 71.222656 Z M 57.601562 49.898438 C 57.605469 50.132812 57.609375 50.371094 57.613281 50.605469 C 57.621094 50.878906 58.027344 50.914062 58.035156 50.625 C 58.039062 50.382812 58.042969 50.144531 58.046875 49.902344 C 58.050781 49.617188 57.597656 49.589844 57.601562 49.898438 Z M 45.570312 39.699219 C 45.710938 39.75 45.851562 39.800781 45.996094 39.847656 C 46.226562 39.925781 46.472656 39.910156 46.621094 39.6875 C 46.746094 39.496094 46.710938 39.199219 46.511719 39.0625 C 46.347656 38.945312 46.183594 38.832031 46.015625 38.722656 C 45.742188 38.535156 45.332031 38.652344 45.195312 38.949219 C 45.046875 39.273438 45.257812 39.589844 45.570312 39.699219 Z M 12.902344 54.492188 C 13.179688 54.457031 13.351562 54.136719 13.3125 53.882812 C 13.261719 53.582031 13.003906 53.417969 12.71875 53.390625 C 12.5 53.371094 12.285156 53.339844 12.070312 53.316406 C 11.683594 53.273438 11.328125 53.59375 11.351562 53.984375 C 11.382812 54.40625 11.769531 54.613281 12.152344 54.578125 C 12.402344 54.554688 12.652344 54.519531 12.902344 54.492188 Z M 20.191406 50.449219 C 20.164062 50.265625 20.15625 50.539062 20.28125 50.753906 C 20.230469 50.664062 20.207031 50.566406 20.195312 50.464844 Z M 21.972656 49.535156 C 21.859375 49.414062 21.71875 49.3125 21.542969 49.261719 C 21.304688 49.195312 20.984375 49.222656 20.765625 49.347656 C 20.527344 49.488281 20.308594 49.703125 20.234375 49.976562 C 20.191406 50.128906 20.171875 50.300781 20.195312 50.464844 C 20.207031 50.5625 20.242188 50.664062 20.28125 50.753906 C 20.328125 50.855469 20.398438 50.949219 20.476562 51.03125 C 20.546875 51.105469 20.640625 51.179688 20.726562 51.234375 C 20.914062 51.359375 21.050781 51.371094 21.265625 51.402344 C 21.5 51.4375 21.847656 51.292969 22.015625 51.132812 C 22.183594 50.972656 22.300781 50.785156 22.351562 50.554688 C 22.4375 50.171875 22.289062 49.757812 21.972656 49.535156 Z M 27.980469 60.3125 C 27.550781 61 27.375 61.800781 27.824219 62.519531 C 28.007812 62.816406 28.476562 62.6875 28.523438 62.359375 C 28.59375 61.871094 28.558594 61.378906 28.835938 60.945312 C 29.195312 60.390625 28.320312 59.773438 27.980469 60.3125 Z M 49.164062 77.421875 C 48.914062 77.160156 48.703125 76.871094 48.5625 76.535156 C 48.324219 75.964844 47.402344 76.226562 47.621094 76.851562 C 47.753906 77.21875 47.945312 77.585938 48.210938 77.875 C 48.46875 78.160156 49.035156 78.667969 49.453125 78.523438 C 49.699219 78.441406 49.796875 78.15625 49.667969 77.925781 C 49.558594 77.730469 49.320312 77.585938 49.164062 77.421875 Z M 106.691406 63.101562 C 106.410156 63.023438 106.015625 63.1875 105.996094 63.523438 C 105.976562 63.796875 105.949219 64.070312 105.929688 64.339844 C 105.90625 64.621094 105.894531 64.921875 106.226562 65.027344 C 106.371094 65.070312 106.523438 65.050781 106.640625 64.949219 C 106.742188 64.859375 106.769531 64.734375 106.8125 64.609375 C 106.902344 64.347656 106.976562 64.082031 107.058594 63.820312 C 107.15625 63.503906 107.03125 63.199219 106.691406 63.101562 Z M 106.542969 53.292969 C 106.660156 53.128906 106.789062 52.972656 106.910156 52.8125 C 107.074219 52.59375 107.050781 52.300781 106.851562 52.113281 C 106.652344 51.929688 106.328125 51.894531 106.109375 52.0625 C 105.960938 52.171875 105.820312 52.285156 105.675781 52.398438 C 105.375 52.621094 105.292969 53.03125 105.570312 53.3125 C 105.8125 53.5625 106.316406 53.601562 106.542969 53.292969 Z M 111.820312 59.730469 C 112.042969 59.695312 112.253906 59.578125 112.410156 59.417969 C 112.613281 59.214844 112.695312 58.988281 112.730469 58.710938 C 112.761719 58.496094 112.609375 58.28125 112.445312 58.167969 C 112.257812 58.035156 112.050781 58.003906 111.824219 58.058594 C 111.675781 58.09375 111.539062 58.152344 111.425781 58.234375 C 111.191406 58.144531 110.875 58.222656 110.796875 58.476562 C 110.71875 58.710938 110.695312 58.917969 110.792969 59.152344 C 110.957031 59.542969 111.402344 59.792969 111.820312 59.730469 Z M 106.851562 69.832031 C 106.542969 69.761719 106.1875 69.902344 106.09375 70.226562 C 106.070312 70.3125 106.046875 70.394531 106.023438 70.476562 C 105.957031 70.714844 105.957031 70.925781 106.070312 71.144531 C 106.191406 71.390625 106.5 71.519531 106.742188 71.355469 C 106.972656 71.203125 107.085938 71.042969 107.175781 70.800781 C 107.207031 70.714844 107.242188 70.628906 107.273438 70.546875 C 107.382812 70.25 107.144531 69.898438 106.851562 69.832031 Z M 115.164062 65.144531 C 115.308594 65.160156 115.464844 65.117188 115.585938 65.027344 C 115.757812 64.894531 115.933594 64.757812 116.046875 64.566406 C 116.269531 64.195312 116.367188 63.738281 116.269531 63.3125 C 116.207031 63.03125 116.019531 62.824219 115.71875 62.800781 C 115.367188 62.773438 115.039062 63.042969 115.039062 63.410156 C 115.039062 63.835938 114.738281 64.152344 114.683594 64.550781 C 114.640625 64.851562 114.875 65.109375 115.164062 65.144531 Z M 99.230469 98.953125 C 98.949219 98.875 98.554688 99.035156 98.53125 99.375 C 98.511719 99.648438 98.484375 99.917969 98.464844 100.191406 C 98.445312 100.472656 98.433594 100.773438 98.761719 100.875 C 98.90625 100.917969 99.058594 100.902344 99.175781 100.800781 C 99.277344 100.710938 99.304688 100.585938 99.347656 100.460938 C 99.4375 100.199219 99.515625 99.933594 99.59375 99.667969 C 99.695312 99.355469 99.566406 99.046875 99.230469 98.953125 Z M 99.078125 89.140625 C 99.195312 88.980469 99.324219 88.824219 99.445312 88.664062 C 99.609375 88.441406 99.585938 88.152344 99.386719 87.964844 C 99.191406 87.777344 98.863281 87.742188 98.644531 87.914062 C 98.496094 88.023438 98.355469 88.136719 98.210938 88.246094 C 97.914062 88.472656 97.832031 88.878906 98.105469 89.164062 C 98.347656 89.414062 98.851562 89.453125 99.078125 89.140625 Z M 91.871094 91.929688 C 91.648438 92.585938 91.53125 93.34375 91.886719 93.972656 C 92.023438 94.21875 92.515625 94.246094 92.621094 93.949219 C 92.808594 93.40625 92.816406 92.828125 93.007812 92.285156 C 93.253906 91.585938 92.105469 91.246094 91.871094 91.929688 Z M 104.984375 94.015625 C 104.796875 93.886719 104.585938 93.855469 104.363281 93.910156 C 104.214844 93.945312 104.078125 94 103.960938 94.085938 C 103.730469 93.996094 103.410156 94.074219 103.332031 94.324219 C 103.257812 94.5625 103.230469 94.769531 103.332031 95.003906 C 103.492188 95.394531 103.9375 95.644531 104.355469 95.578125 C 104.578125 95.546875 104.792969 95.425781 104.945312 95.269531 C 105.148438 95.066406 105.230469 94.839844 105.265625 94.558594 C 105.296875 94.347656 105.144531 94.132812 104.984375 94.015625 Z M 92.277344 103.871094 C 92.011719 103.78125 91.65625 103.835938 91.484375 104.078125 C 91.464844 104.109375 91.441406 104.140625 91.421875 104.171875 C 91.328125 104.21875 91.253906 104.296875 91.238281 104.421875 C 91.226562 104.539062 91.214844 104.65625 91.203125 104.773438 C 91.195312 104.859375 91.175781 104.941406 91.164062 105.023438 L 91.132812 105.082031 L 91.160156 105.082031 C 91.15625 105.109375 91.15625 105.140625 91.160156 105.167969 C 91.191406 105.417969 91.316406 105.609375 91.558594 105.703125 C 91.773438 105.78125 92.078125 105.75 92.238281 105.5625 C 92.492188 105.273438 92.664062 104.933594 92.679688 104.539062 C 92.691406 104.253906 92.5625 103.96875 92.277344 103.871094 Z M 112.777344 96.527344 C 112.507812 96.4375 112.109375 96.5625 112.027344 96.863281 C 111.875 97.421875 111.714844 97.960938 111.742188 98.546875 C 111.757812 98.902344 112.359375 99.082031 112.554688 98.773438 C 112.855469 98.292969 112.996094 97.773438 113.140625 97.234375 C 113.222656 96.933594 113.082031 96.628906 112.777344 96.527344 Z M 114.609375 88.191406 C 114.257812 88.164062 113.929688 88.4375 113.929688 88.804688 C 113.929688 89.226562 113.628906 89.542969 113.574219 89.945312 C 113.53125 90.242188 113.765625 90.503906 114.054688 90.535156 C 114.203125 90.554688 114.355469 90.511719 114.476562 90.421875 C 114.652344 90.285156 114.824219 90.148438 114.9375 89.960938 C 115.160156 89.589844 115.257812 89.132812 115.160156 88.703125 C 115.097656 88.421875 114.914062 88.214844 114.609375 88.191406 Z M 131.867188 73.347656 C 131.585938 73.269531 131.191406 73.433594 131.167969 73.769531 C 131.152344 74.042969 131.125 74.3125 131.105469 74.585938 C 131.082031 74.867188 131.070312 75.167969 131.398438 75.269531 C 131.542969 75.316406 131.699219 75.296875 131.816406 75.195312 C 131.917969 75.105469 131.941406 74.976562 131.988281 74.855469 C 132.074219 74.59375 132.152344 74.328125 132.234375 74.0625 C 132.332031 73.75 132.203125 73.441406 131.867188 73.347656 Z M 131.71875 63.535156 C 131.835938 63.375 131.964844 63.21875 132.085938 63.058594 C 132.25 62.839844 132.222656 62.542969 132.023438 62.355469 C 131.828125 62.175781 131.503906 62.136719 131.28125 62.308594 C 131.136719 62.417969 130.996094 62.53125 130.847656 62.640625 C 130.550781 62.863281 130.46875 63.273438 130.742188 63.558594 C 130.984375 63.804688 131.492188 63.847656 131.71875 63.535156 Z M 124.511719 66.324219 C 124.285156 66.980469 124.167969 67.738281 124.523438 68.367188 C 124.664062 68.613281 125.15625 68.640625 125.257812 68.339844 C 125.449219 67.800781 125.453125 67.222656 125.644531 66.679688 C 125.894531 65.976562 124.742188 65.640625 124.511719 66.324219 Z M 118.042969 56.902344 C 118.328125 57.089844 118.738281 57.179688 119.058594 57.042969 C 119.3125 56.933594 119.492188 56.6875 119.527344 56.414062 C 119.546875 56.273438 119.527344 56.121094 119.46875 55.992188 C 119.386719 55.804688 119.242188 55.707031 119.066406 55.609375 C 118.96875 55.554688 118.8125 55.550781 118.683594 55.574219 C 118.460938 55.335938 118.078125 55.261719 117.792969 55.433594 C 117.488281 55.621094 117.296875 56.035156 117.511719 56.367188 C 117.65625 56.589844 117.824219 56.757812 118.042969 56.902344 Z M 137.621094 68.410156 C 137.433594 68.28125 137.222656 68.25 137 68.304688 C 136.851562 68.339844 136.714844 68.394531 136.601562 68.480469 C 136.367188 68.390625 136.050781 68.46875 135.96875 68.71875 C 135.894531 68.957031 135.871094 69.164062 135.96875 69.398438 C 136.128906 69.789062 136.574219 70.035156 136.996094 69.972656 C 137.214844 69.941406 137.429688 69.820312 137.585938 69.664062 C 137.785156 69.460938 137.867188 69.234375 137.90625 68.957031 C 137.933594 68.742188 137.785156 68.527344 137.621094 68.410156 Z M 131.742188 83.058594 L 131.707031 83.085938 L 131.71875 83.082031 Z M 131.910156 82.003906 C 132.117188 82.195312 132.199219 82.46875 132.148438 82.742188 C 132.078125 83.121094 131.792969 83.441406 131.460938 83.617188 C 131.105469 83.808594 130.46875 83.863281 130.1875 83.5 C 129.972656 83.214844 130.011719 82.894531 130.109375 82.574219 C 130.179688 82.335938 130.296875 82.21875 130.472656 82.054688 C 130.578125 81.953125 130.707031 81.929688 130.824219 81.953125 C 130.890625 81.902344 130.964844 81.859375 131.042969 81.835938 C 131.351562 81.746094 131.664062 81.777344 131.910156 82.003906 Z M 124.914062 78.265625 C 124.648438 78.175781 124.296875 78.230469 124.125 78.472656 C 124.101562 78.503906 124.078125 78.535156 124.058594 78.566406 C 123.964844 78.613281 123.890625 78.691406 123.878906 78.816406 C 123.867188 78.933594 123.855469 79.050781 123.84375 79.167969 C 123.835938 79.253906 123.8125 79.335938 123.804688 79.417969 L 123.773438 79.476562 L 123.796875 79.476562 C 123.796875 79.503906 123.796875 79.535156 123.800781 79.566406 C 123.828125 79.8125 123.957031 80.007812 124.195312 80.09375 C 124.410156 80.175781 124.714844 80.144531 124.875 79.957031 C 125.128906 79.664062 125.300781 79.324219 125.316406 78.933594 C 125.328125 78.648438 125.203125 78.363281 124.914062 78.265625 Z M 129.941406 90.023438 C 129.882812 90.113281 129.828125 90.203125 129.769531 90.292969 C 129.65625 90.46875 129.765625 90.753906 129.917969 90.871094 C 130.089844 91 130.34375 91.042969 130.53125 90.914062 C 130.421875 90.988281 130.5625 90.890625 130.574219 90.882812 C 130.644531 90.835938 130.714844 90.785156 130.785156 90.734375 C 131.058594 90.542969 130.992188 90.136719 130.765625 89.941406 C 130.53125 89.742188 130.125 89.746094 129.941406 90.023438 Z M 136.796875 76.613281 C 136.527344 76.523438 136.128906 76.648438 136.046875 76.949219 C 135.894531 77.507812 135.738281 78.050781 135.761719 78.632812 C 135.777344 78.988281 136.382812 79.167969 136.574219 78.859375 C 136.875 78.378906 137.015625 77.859375 137.160156 77.320312 C 137.246094 77.019531 137.101562 76.714844 136.796875 76.613281 Z M 132.027344 80.078125 C 131.71875 80.007812 131.363281 80.148438 131.269531 80.472656 C 131.246094 80.554688 131.21875 80.640625 131.199219 80.722656 C 131.132812 80.960938 131.132812 81.167969 131.242188 81.390625 C 131.367188 81.636719 131.671875 81.761719 131.917969 81.601562 C 132.148438 81.449219 132.261719 81.285156 132.351562 81.046875 C 132.382812 80.960938 132.414062 80.875 132.445312 80.792969 C 132.558594 80.492188 132.320312 80.140625 132.027344 80.078125 Z M 133.410156 70.996094 C 133.054688 70.96875 132.730469 71.242188 132.730469 71.605469 C 132.730469 72.03125 132.429688 72.347656 132.371094 72.75 C 132.332031 73.046875 132.566406 73.308594 132.855469 73.339844 C 133 73.355469 133.15625 73.3125 133.273438 73.222656 C 133.449219 73.089844 133.621094 72.953125 133.738281 72.761719 C 133.960938 72.394531 134.058594 71.9375 133.960938 71.507812 C 133.898438 71.222656 133.710938 71.019531 133.410156 70.996094 Z M 80.558594 63.089844 C 80.230469 63 79.777344 63.1875 79.75 63.578125 C 79.730469 63.890625 79.699219 64.207031 79.675781 64.523438 C 79.652344 64.84375 79.636719 65.191406 80.019531 65.3125 C 80.183594 65.363281 80.359375 65.339844 80.496094 65.222656 C 80.617188 65.121094 80.644531 64.972656 80.695312 64.832031 C 80.796875 64.527344 80.886719 64.222656 80.980469 63.917969 C 81.09375 63.554688 80.949219 63.199219 80.558594 63.089844 Z M 66.210938 37.796875 C 66.066406 37.609375 65.761719 37.609375 65.601562 37.773438 C 65.433594 37.945312 65.398438 38.226562 65.554688 38.417969 C 65.683594 38.574219 65.820312 38.710938 65.957031 38.855469 C 66.019531 38.917969 66.082031 39.007812 66.164062 39.046875 C 66.339844 39.128906 66.535156 39.070312 66.648438 38.910156 C 66.824219 38.652344 66.644531 38.425781 66.511719 38.21875 C 66.414062 38.074219 66.316406 37.933594 66.210938 37.796875 Z M 60.949219 37.058594 C 61.121094 37.21875 61.371094 37.226562 61.546875 37.074219 C 61.722656 36.925781 61.785156 36.648438 61.660156 36.445312 C 61.582031 36.3125 61.496094 36.179688 61.417969 36.042969 C 61.257812 35.769531 60.917969 35.660156 60.652344 35.867188 C 60.421875 36.050781 60.339844 36.480469 60.582031 36.699219 C 60.707031 36.816406 60.824219 36.941406 60.949219 37.058594 Z M 65.386719 38.75 C 65.402344 38.621094 65.191406 38.625 65.175781 38.75 C 65.164062 38.875 65.371094 38.875 65.386719 38.75 Z M 69.949219 38.753906 C 70.367188 38.953125 70.835938 39.011719 71.257812 39.21875 C 71.800781 39.480469 72.175781 38.574219 71.644531 38.324219 C 71.136719 38.085938 70.535156 37.921875 69.996094 38.152344 C 69.78125 38.242188 69.71875 38.640625 69.949219 38.753906 Z M 68.890625 42.164062 C 69.128906 42.199219 69.386719 42.117188 69.496094 41.882812 C 69.597656 41.664062 69.585938 41.359375 69.394531 41.1875 L 69.320312 41.125 C 69.289062 41.039062 69.230469 40.96875 69.128906 40.945312 C 69.03125 40.925781 68.933594 40.902344 68.832031 40.882812 C 68.761719 40.867188 68.695312 40.84375 68.625 40.828125 L 68.582031 40.792969 L 68.578125 40.816406 L 68.5 40.808594 C 68.289062 40.808594 68.113281 40.898438 68.015625 41.097656 C 67.925781 41.273438 67.925781 41.535156 68.066406 41.6875 C 68.289062 41.933594 68.5625 42.109375 68.890625 42.164062 Z M 63.164062 40.375 C 63.191406 40.316406 63.222656 40.261719 63.257812 40.214844 L 63.214844 40.265625 C 63.199219 40.304688 63.183594 40.339844 63.164062 40.375 Z M 63.277344 40.1875 L 63.289062 40.175781 Z M 62.964844 40.511719 C 62.9375 40.1875 63.152344 39.894531 63.460938 39.808594 C 63.644531 39.757812 63.824219 39.785156 64.003906 39.832031 C 64.296875 39.910156 64.417969 40.257812 64.351562 40.527344 C 64.3125 40.6875 64.203125 40.804688 64.0625 40.871094 C 63.996094 40.972656 63.914062 41.054688 63.789062 41.101562 C 63.664062 41.152344 63.53125 41.15625 63.402344 41.109375 C 63.152344 41.019531 62.988281 40.773438 62.964844 40.511719 Z M 65.59375 34.820312 C 65.726562 35.03125 66.023438 35.023438 66.1875 34.859375 C 66.21875 34.828125 66.242188 34.792969 66.261719 34.757812 C 66.503906 34.832031 66.773438 34.828125 67.019531 34.730469 C 67.1875 34.664062 67.289062 34.480469 67.316406 34.308594 C 67.359375 34.019531 67.277344 33.753906 67.058594 33.558594 C 66.96875 33.480469 66.867188 33.429688 66.761719 33.40625 C 66.5625 33.246094 66.269531 33.207031 66.03125 33.289062 C 65.769531 33.378906 65.597656 33.601562 65.574219 33.855469 C 65.519531 33.863281 65.46875 33.882812 65.425781 33.917969 C 65.335938 33.996094 65.285156 34.109375 65.289062 34.230469 C 65.292969 34.3125 65.339844 34.371094 65.371094 34.433594 C 65.4375 34.566406 65.515625 34.691406 65.59375 34.820312 Z M 80.9375 46.214844 C 80.722656 46.425781 80.761719 46.820312 80.996094 47 C 81.242188 47.191406 81.601562 47.199219 81.828125 46.96875 C 82.003906 46.78125 82.160156 46.585938 82.328125 46.386719 C 82.402344 46.300781 82.503906 46.203125 82.539062 46.097656 C 82.621094 45.855469 82.515625 45.613281 82.296875 45.496094 C 81.941406 45.300781 81.679688 45.5625 81.4375 45.769531 C 81.265625 45.914062 81.097656 46.058594 80.9375 46.214844 Z M 80.457031 54.078125 C 80.59375 53.890625 80.742188 53.710938 80.882812 53.523438 C 81.074219 53.273438 81.042969 52.933594 80.8125 52.714844 C 80.585938 52.503906 80.210938 52.460938 79.957031 52.65625 C 79.789062 52.785156 79.625 52.917969 79.457031 53.046875 C 79.109375 53.304688 79.015625 53.777344 79.335938 54.101562 C 79.613281 54.390625 80.199219 54.4375 80.457031 54.078125 Z M 82.300781 47.40625 C 82.46875 47.40625 82.433594 47.136719 82.273438 47.136719 C 82.109375 47.136719 82.140625 47.40625 82.300781 47.40625 Z M 81.355469 41.800781 C 81.5625 41.207031 81.570312 40.566406 81.78125 39.96875 C 82.054688 39.195312 80.785156 38.824219 80.53125 39.578125 C 80.285156 40.300781 80.15625 41.136719 80.546875 41.828125 C 80.699219 42.101562 81.242188 42.132812 81.355469 41.800781 Z M 84.457031 42.835938 C 84.488281 43.109375 84.628906 43.320312 84.894531 43.421875 C 85.132812 43.511719 85.464844 43.476562 85.644531 43.269531 C 85.921875 42.949219 86.113281 42.574219 86.128906 42.140625 C 86.144531 41.828125 86.003906 41.511719 85.6875 41.402344 C 85.394531 41.304688 85.003906 41.363281 84.8125 41.632812 C 84.789062 41.667969 84.765625 41.703125 84.742188 41.734375 C 84.640625 41.789062 84.558594 41.875 84.542969 42.007812 C 84.53125 42.140625 84.515625 42.269531 84.503906 42.398438 C 84.496094 42.496094 84.472656 42.585938 84.460938 42.675781 L 84.425781 42.738281 L 84.457031 42.738281 C 84.457031 42.769531 84.453125 42.800781 84.457031 42.835938 Z M 84.667969 49.765625 C 84.585938 49.738281 84.511719 49.707031 84.445312 49.667969 L 84.519531 49.714844 C 84.570312 49.730469 84.617188 49.746094 84.667969 49.765625 Z M 84.414062 49.648438 L 84.394531 49.632812 L 84.398438 49.636719 Z M 84.871094 50.003906 C 84.460938 50.082031 84.054688 49.851562 83.898438 49.460938 C 83.8125 49.234375 83.820312 49 83.851562 48.761719 C 83.910156 48.371094 84.339844 48.171875 84.691406 48.214844 C 84.898438 48.242188 85.066406 48.371094 85.167969 48.539062 C 85.308594 48.605469 85.425781 48.703125 85.503906 48.855469 C 85.585938 49.011719 85.609375 49.179688 85.566406 49.355469 C 85.488281 49.691406 85.199219 49.9375 84.871094 50.003906 Z M 76.765625 47.777344 C 76.925781 47.671875 77.074219 47.550781 77.222656 47.433594 C 77.476562 47.230469 77.425781 46.851562 77.195312 46.664062 C 77.148438 46.628906 77.101562 46.601562 77.050781 46.582031 C 77.113281 46.261719 77.070312 45.914062 76.910156 45.609375 C 76.800781 45.402344 76.550781 45.296875 76.328125 45.289062 C 75.953125 45.277344 75.625 45.417969 75.40625 45.730469 C 75.316406 45.855469 75.265625 45.992188 75.253906 46.132812 C 75.082031 46.410156 75.070312 46.792969 75.207031 47.085938 C 75.359375 47.414062 75.667969 47.597656 75.996094 47.59375 C 76.015625 47.664062 76.046875 47.726562 76.097656 47.777344 C 76.214844 47.882812 76.363281 47.933594 76.515625 47.90625 C 76.621094 47.890625 76.691406 47.824219 76.765625 47.777344 Z M 65.910156 80.136719 C 65.542969 79.933594 65.265625 80.210938 65.011719 80.425781 C 64.832031 80.574219 64.65625 80.726562 64.488281 80.890625 C 64.261719 81.113281 64.304688 81.523438 64.546875 81.714844 C 64.804688 81.917969 65.183594 81.925781 65.417969 81.679688 C 65.605469 81.488281 65.769531 81.28125 65.945312 81.074219 C 66.019531 80.984375 66.128906 80.878906 66.167969 80.769531 C 66.25 80.515625 66.144531 80.261719 65.910156 80.136719 Z M 63.363281 87.230469 C 63.195312 87.359375 63.03125 87.488281 62.863281 87.617188 C 62.515625 87.875 62.421875 88.347656 62.742188 88.675781 C 63.019531 88.960938 63.605469 89.007812 63.863281 88.648438 C 64 88.460938 64.148438 88.28125 64.289062 88.097656 C 64.480469 87.84375 64.449219 87.503906 64.21875 87.289062 C 63.992188 87.074219 63.617188 87.035156 63.363281 87.230469 Z M 65.886719 81.859375 C 65.714844 81.859375 65.75 82.144531 65.917969 82.144531 C 66.089844 82.144531 66.054688 81.859375 65.886719 81.859375 Z M 65.582031 71.25 C 65.800781 70.625 65.804688 69.953125 66.027344 69.324219 C 66.316406 68.515625 64.984375 68.125 64.71875 68.917969 C 64.460938 69.675781 64.324219 70.550781 64.730469 71.277344 C 64.894531 71.5625 65.460938 71.59375 65.582031 71.25 Z M 42.921875 89.292969 C 42.90625 89.023438 42.6875 88.824219 42.429688 88.789062 C 42.292969 88.769531 42.164062 88.75 42.03125 88.726562 C 41.683594 88.671875 41.324219 88.875 41.304688 89.253906 C 41.285156 89.585938 41.609375 89.9375 41.964844 89.878906 C 42.140625 89.851562 42.3125 89.832031 42.488281 89.804688 C 42.746094 89.769531 42.9375 89.550781 42.921875 89.292969 Z M 42.136719 85.308594 C 42.328125 85.445312 42.515625 85.589844 42.707031 85.726562 C 42.960938 85.914062 43.328125 85.898438 43.558594 85.683594 C 43.789062 85.46875 43.800781 85.132812 43.613281 84.882812 C 43.488281 84.710938 43.367188 84.539062 43.242188 84.367188 C 42.984375 84.011719 42.457031 83.976562 42.132812 84.253906 C 41.824219 84.515625 41.773438 85.054688 42.136719 85.308594 Z M 42.585938 76.742188 C 42.515625 76.4375 42.105469 76.261719 41.824219 76.351562 C 41.558594 76.441406 41.296875 76.761719 41.4375 77.0625 C 41.554688 77.304688 41.660156 77.550781 41.769531 77.796875 C 41.878906 78.03125 42.152344 78.15625 42.398438 78.097656 C 42.632812 78.042969 42.820312 77.8125 42.769531 77.558594 C 42.710938 77.285156 42.648438 77.011719 42.585938 76.742188 Z M 38.351562 77.386719 C 38.332031 77.175781 38.179688 76.996094 37.972656 76.945312 C 37.875 76.921875 37.777344 76.898438 37.683594 76.875 C 37.375 76.808594 37.089844 77.105469 37.109375 77.394531 C 37.128906 77.6875 37.4375 77.96875 37.742188 77.894531 C 37.839844 77.871094 37.933594 77.851562 38.027344 77.828125 C 38.21875 77.785156 38.375 77.585938 38.351562 77.386719 Z M 25.203125 84.15625 C 25.179688 84.121094 25.144531 84.085938 25.113281 84.054688 C 24.828125 83.71875 24.34375 83.648438 23.996094 83.949219 C 23.660156 84.246094 23.683594 84.722656 24.011719 85.011719 C 24.199219 85.179688 24.386719 85.25 24.640625 85.292969 C 24.789062 85.320312 25.003906 85.261719 25.121094 85.164062 C 25.160156 85.125 25.203125 85.089844 25.238281 85.050781 C 25.308594 84.960938 25.351562 84.859375 25.363281 84.746094 C 25.382812 84.578125 25.355469 84.425781 25.273438 84.289062 C 25.253906 84.246094 25.230469 84.199219 25.203125 84.15625 Z M 18.761719 82.132812 C 18.707031 81.886719 18.550781 81.648438 18.339844 81.519531 C 18.222656 81.449219 18.097656 81.40625 17.96875 81.382812 C 17.828125 81.242188 17.574219 81.226562 17.449219 81.421875 L 17.445312 81.425781 C 17.292969 81.476562 17.152344 81.5625 17.03125 81.6875 C 16.785156 81.941406 16.664062 82.316406 16.757812 82.660156 C 16.847656 83.011719 17.136719 83.234375 17.492188 83.261719 C 17.859375 83.289062 18.226562 83.238281 18.570312 83.109375 C 18.792969 83.027344 18.964844 82.832031 18.96875 82.585938 C 18.972656 82.476562 18.949219 82.382812 18.898438 82.289062 C 18.859375 82.214844 18.8125 82.171875 18.761719 82.132812 Z M 9.546875 71.386719 L 9.542969 71.378906 C 9.496094 71.359375 9.496094 71.363281 9.542969 71.382812 Z M 9.90625 71.589844 C 10.066406 71.726562 10.152344 71.941406 10.058594 72.152344 C 9.960938 72.378906 9.828125 72.519531 9.59375 72.597656 C 9.277344 72.699219 8.917969 72.691406 8.625 72.535156 C 8.558594 72.5 8.5 72.457031 8.445312 72.40625 C 8.160156 72.363281 7.898438 72.222656 7.726562 71.964844 C 7.503906 71.628906 7.554688 71.199219 7.894531 70.957031 C 8.023438 70.867188 8.179688 70.824219 8.339844 70.820312 C 8.480469 70.640625 8.667969 70.492188 8.878906 70.410156 C 9.242188 70.265625 9.742188 70.394531 9.894531 70.785156 C 10.003906 71.066406 10 71.34375 9.90625 71.589844 Z M 17.230469 63.6875 C 17.175781 63.761719 17.074219 64.007812 17.152344 64.085938 C 17.210938 64.144531 17.1875 64.535156 17.199219 64.628906 C 17.210938 64.761719 17.214844 64.902344 17.234375 65.039062 C 17.28125 65.359375 17.417969 65.675781 17.617188 65.933594 C 17.726562 66.082031 17.976562 66.125 18.140625 66.046875 C 18.203125 66.015625 18.265625 65.964844 18.304688 65.902344 C 18.359375 65.816406 18.316406 65.640625 18.355469 65.585938 C 18.558594 65.285156 18.410156 64.832031 18.347656 64.5 C 18.304688 64.285156 18.289062 64.039062 18.207031 63.839844 L 18.171875 63.777344 L 18.230469 63.742188 C 18.367188 63.648438 18.476562 63.523438 18.539062 63.371094 C 18.617188 63.164062 18.59375 62.914062 18.488281 62.726562 C 18.296875 62.378906 17.839844 62.207031 17.46875 62.363281 C 17.320312 62.425781 17.207031 62.550781 17.15625 62.699219 L 17.101562 62.738281 C 17.035156 62.804688 16.988281 62.882812 16.960938 62.972656 C 16.921875 63.058594 16.902344 63.148438 16.914062 63.246094 C 16.984375 63.222656 17.195312 63.375 17.410156 63.535156 C 17.339844 63.574219 17.277344 63.621094 17.230469 63.6875 Z M 23.414062 47.003906 C 23.351562 47.324219 23.441406 46.878906 23.453125 46.820312 C 23.496094 46.578125 23.527344 46.332031 23.542969 46.089844 C 23.5625 45.8125 23.585938 45.546875 23.648438 45.277344 C 23.804688 44.589844 22.816406 44.296875 22.550781 44.941406 C 22.246094 45.679688 22.125 46.421875 22.527344 47.148438 C 22.730469 47.515625 23.335938 47.402344 23.414062 47.003906 Z M 28.582031 53.722656 C 28.351562 53.640625 27.980469 53.703125 27.902344 53.988281 C 27.859375 54.144531 27.820312 54.296875 27.804688 54.457031 C 27.789062 54.601562 27.75 54.75 27.78125 54.894531 C 27.8125 55.054688 27.933594 55.1875 28.09375 55.230469 C 28.238281 55.265625 28.359375 55.230469 28.46875 55.136719 C 28.507812 55.097656 28.515625 55.089844 28.492188 55.113281 C 28.457031 55.152344 28.480469 55.132812 28.554688 55.046875 C 28.578125 55.011719 28.597656 54.972656 28.617188 54.9375 C 28.71875 54.757812 28.816406 54.582031 28.890625 54.386719 C 28.992188 54.128906 28.84375 53.816406 28.582031 53.722656 Z M 30.492188 39.386719 C 30.5 39.207031 30.554688 39.046875 30.609375 38.878906 C 30.613281 38.871094 30.644531 38.777344 30.632812 38.808594 L 30.695312 38.671875 C 30.714844 38.636719 30.691406 38.667969 30.714844 38.628906 L 30.769531 38.554688 C 30.8125 38.492188 30.816406 38.488281 30.789062 38.539062 C 31.203125 38.207031 30.636719 37.613281 30.21875 37.820312 C 29.898438 37.980469 29.609375 38.207031 29.503906 38.570312 C 29.402344 38.941406 29.507812 39.316406 29.75 39.605469 C 29.984375 39.878906 30.46875 39.765625 30.492188 39.386719 Z M 66.027344 51.800781 C 65.914062 51.738281 65.734375 51.730469 65.582031 51.757812 C 65.324219 51.484375 64.886719 51.394531 64.554688 51.597656 C 64.203125 51.8125 63.980469 52.292969 64.230469 52.675781 C 64.398438 52.933594 64.59375 53.125 64.84375 53.292969 C 65.171875 53.511719 65.648438 53.613281 66.019531 53.457031 C 66.3125 53.332031 66.523438 53.046875 66.558594 52.726562 C 66.582031 52.566406 66.558594 52.394531 66.492188 52.242188 C 66.398438 52.023438 66.230469 51.910156 66.027344 51.800781 Z M 87.207031 57.386719 C 86.992188 57.234375 86.746094 57.199219 86.488281 57.261719 C 86.316406 57.300781 86.160156 57.367188 86.027344 57.464844 C 85.757812 57.359375 85.390625 57.449219 85.296875 57.742188 C 85.210938 58.015625 85.183594 58.253906 85.296875 58.527344 C 85.484375 58.976562 86 59.265625 86.484375 59.191406 C 86.738281 59.152344 86.984375 59.015625 87.164062 58.832031 C 87.398438 58.597656 87.492188 58.335938 87.535156 58.011719 C 87.566406 57.765625 87.394531 57.519531 87.207031 57.386719 Z M 80.414062 74.3125 L 80.375 74.34375 L 80.386719 74.335938 Z M 80.605469 73.09375 C 80.847656 73.3125 80.941406 73.632812 80.882812 73.949219 C 80.800781 74.382812 80.46875 74.757812 80.089844 74.957031 C 79.679688 75.175781 78.9375 75.242188 78.617188 74.820312 C 78.367188 74.496094 78.414062 74.121094 78.523438 73.753906 C 78.605469 73.476562 78.746094 73.34375 78.949219 73.148438 C 79.066406 73.035156 79.214844 73.007812 79.355469 73.035156 C 79.429688 72.976562 79.511719 72.925781 79.601562 72.898438 C 79.964844 72.796875 80.324219 72.832031 80.605469 73.09375 Z M 77.382812 82.765625 C 77.210938 82.691406 77.042969 82.707031 76.898438 82.78125 C 76.546875 82.859375 76.421875 83.140625 76.449219 83.429688 C 76.40625 83.695312 76.5 83.953125 76.8125 84.0625 C 76.957031 84.15625 77.136719 84.191406 77.332031 84.113281 C 78.167969 84.070312 78.171875 82.875 77.382812 82.765625 Z M 72.523438 68.773438 C 72.214844 68.667969 71.808594 68.730469 71.609375 69.015625 C 71.582031 69.050781 71.558594 69.085938 71.535156 69.121094 C 71.425781 69.175781 71.339844 69.265625 71.324219 69.40625 C 71.3125 69.542969 71.296875 69.679688 71.285156 69.816406 C 71.273438 69.917969 71.25 70.011719 71.238281 70.105469 L 71.203125 70.171875 L 71.234375 70.171875 C 71.230469 70.207031 71.230469 70.238281 71.234375 70.273438 C 71.269531 70.558594 71.414062 70.785156 71.691406 70.886719 C 71.941406 70.980469 72.292969 70.941406 72.480469 70.730469 C 72.773438 70.390625 72.96875 70 72.988281 69.542969 C 73 69.21875 72.855469 68.886719 72.523438 68.773438 Z M 68.398438 84.613281 C 68.3125 84.585938 68.234375 84.554688 68.164062 84.511719 L 68.242188 84.558594 C 68.292969 84.578125 68.34375 84.59375 68.398438 84.613281 Z M 68.128906 84.488281 L 68.109375 84.476562 L 68.113281 84.480469 Z M 69.277344 83.660156 C 69.359375 83.824219 69.386719 84 69.34375 84.183594 C 69.257812 84.535156 68.957031 84.792969 68.609375 84.863281 C 68.179688 84.945312 67.753906 84.703125 67.59375 84.296875 C 67.5 84.058594 67.507812 83.808594 67.542969 83.5625 C 67.605469 83.152344 68.054688 82.941406 68.421875 82.988281 C 68.640625 83.015625 68.816406 83.152344 68.925781 83.328125 C 69.070312 83.398438 69.191406 83.5 69.277344 83.660156 Z M 43.683594 90.894531 C 43.46875 90.710938 43.144531 90.644531 42.886719 90.753906 C 42.539062 90.902344 42.277344 91.304688 42.449219 91.6875 C 42.613281 92.046875 42.914062 92.261719 43.296875 92.339844 C 43.523438 92.382812 43.742188 92.335938 43.949219 92.25 L 44.023438 92.214844 C 44.050781 92.203125 44.09375 92.1875 44.144531 92.167969 C 44.277344 92.09375 44.34375 92 44.4375 91.882812 C 44.617188 91.664062 44.554688 91.273438 44.355469 91.085938 C 44.179688 90.921875 43.917969 90.839844 43.683594 90.894531 Z M 29.789062 45.957031 C 30.003906 45.964844 30.214844 45.929688 30.421875 45.816406 C 30.691406 45.671875 30.847656 45.460938 30.902344 45.226562 C 30.984375 45.097656 31.050781 44.953125 31.09375 44.796875 C 31.171875 44.523438 31.101562 44.21875 30.847656 44.058594 C 30.425781 43.796875 29.925781 43.785156 29.480469 43.992188 C 29.066406 44.1875 28.8125 44.519531 28.71875 44.933594 C 28.679688 44.96875 28.644531 45.007812 28.617188 45.050781 C 28.40625 45.398438 28.652344 45.746094 28.980469 45.875 C 29.246094 45.980469 29.523438 46 29.789062 45.957031 Z M 38.621094 81.105469 L 38.601562 81.113281 C 38.542969 81.136719 38.492188 81.171875 38.453125 81.222656 C 38.375 81.308594 38.433594 81.269531 38.621094 81.105469 Z M 38.582031 81.117188 L 38.621094 81.105469 L 38.613281 81.105469 Z M 39.28125 81.25 C 39.375 81.398438 39.449219 81.527344 39.4375 81.707031 C 39.429688 81.875 39.351562 82.03125 39.234375 82.148438 C 39.101562 82.289062 38.929688 82.347656 38.742188 82.359375 C 38.371094 82.371094 38.0625 82.132812 37.984375 81.769531 C 37.902344 81.410156 38.195312 81.113281 38.519531 81.042969 C 38.585938 81.03125 38.65625 81.035156 38.730469 81.046875 C 38.8125 81.03125 38.933594 81.054688 38.988281 81.066406 C 39.09375 81.09375 39.222656 81.15625 39.28125 81.25 Z M 32.527344 84.597656 C 32.460938 84.515625 32.394531 84.433594 32.328125 84.347656 C 32.089844 84.058594 31.691406 83.976562 31.359375 84.148438 C 31.066406 84.296875 30.832031 84.699219 31.003906 85.03125 C 31.101562 85.21875 31.207031 85.40625 31.300781 85.597656 C 31.464844 85.933594 31.773438 86.136719 32.152344 86.109375 C 32.28125 86.113281 32.402344 86.082031 32.511719 86.019531 C 32.617188 85.960938 32.703125 85.882812 32.769531 85.78125 C 32.777344 85.003906 32.941406 85.085938 32.613281 84.703125 C 32.585938 84.671875 32.558594 84.632812 32.527344 84.597656 Z M 27.15625 76.753906 Z M 25.917969 76.035156 L 25.90625 76.09375 Z M 27.25 76.472656 L 27.246094 76.476562 C 27.234375 76.550781 27.214844 76.625 27.183594 76.691406 C 27.167969 76.722656 27.164062 76.742188 27.15625 76.753906 C 27.125 76.8125 27.085938 76.867188 27.039062 76.914062 C 26.972656 76.984375 26.894531 77.03125 26.808594 77.0625 C 26.625 77.140625 26.4375 77.144531 26.253906 77.074219 C 25.894531 76.941406 25.636719 76.46875 25.882812 76.117188 L 25.898438 76.101562 C 25.925781 75.875 26.027344 75.683594 26.230469 75.5625 C 26.390625 75.46875 26.605469 75.4375 26.789062 75.476562 C 27.207031 75.574219 27.503906 76.074219 27.25 76.472656 Z M 27.15625 76.753906 C 27.179688 76.707031 27.203125 76.660156 27.214844 76.609375 C 27.183594 76.683594 27.167969 76.730469 27.15625 76.753906 Z M 18.546875 72.414062 C 18.4375 72.375 18.320312 72.34375 18.203125 72.324219 C 18.167969 72.300781 18.132812 72.28125 18.097656 72.269531 C 17.9375 72.210938 17.773438 72.199219 17.605469 72.242188 C 17.449219 72.277344 17.292969 72.359375 17.191406 72.488281 C 17.140625 72.554688 17.09375 72.632812 17.0625 72.71875 C 17.011719 72.785156 16.964844 72.855469 16.929688 72.933594 C 16.910156 72.980469 16.90625 73.015625 16.890625 73.074219 C 16.847656 73.265625 16.890625 73.398438 16.953125 73.585938 C 17.003906 73.738281 17.152344 73.855469 17.285156 73.925781 C 17.425781 74 17.621094 74.054688 17.777344 74.015625 C 17.914062 73.976562 18.058594 73.933594 18.1875 73.863281 C 18.375 73.84375 18.554688 73.777344 18.695312 73.660156 C 18.894531 73.488281 19.03125 73.269531 18.996094 72.992188 C 18.96875 72.734375 18.785156 72.507812 18.546875 72.414062 Z M 23.894531 70.667969 C 24.101562 70.746094 24.285156 70.679688 24.496094 70.636719 C 24.710938 70.589844 24.878906 70.382812 24.949219 70.191406 C 25.023438 69.984375 25.003906 69.75 24.863281 69.566406 C 24.507812 69.101562 23.761719 69.039062 23.375 69.511719 C 23.128906 69.808594 23.152344 70.289062 23.480469 70.523438 C 23.59375 70.601562 23.742188 70.652344 23.890625 70.667969 Z M 13.867188 61.773438 C 13.769531 61.488281 13.492188 61.308594 13.210938 61.257812 C 12.917969 61.207031 12.5625 61.367188 12.351562 61.578125 C 12.183594 61.746094 12.082031 61.976562 12.097656 62.21875 C 12.105469 62.367188 12.160156 62.511719 12.25 62.636719 C 12.316406 62.734375 12.40625 62.816406 12.507812 62.875 C 12.621094 62.945312 12.757812 62.960938 12.886719 62.964844 C 12.976562 62.992188 13.0625 63.011719 13.175781 63.039062 C 13.386719 63.082031 13.65625 62.933594 13.722656 62.730469 C 13.75 62.652344 13.75 62.574219 13.738281 62.5 C 13.90625 62.308594 13.964844 62.039062 13.867188 61.773438 Z M 19.378906 52.074219 C 19.195312 51.953125 18.96875 51.859375 18.75 51.828125 C 18.515625 51.796875 18.285156 51.882812 18.207031 52.121094 C 18.128906 52.34375 18.246094 52.59375 18.457031 52.699219 L 18.523438 52.734375 L 18.589844 52.789062 C 18.644531 52.84375 18.695312 52.90625 18.742188 52.964844 C 18.78125 53.007812 18.820312 53.046875 18.859375 53.09375 L 18.910156 53.160156 C 19.03125 53.289062 19.171875 53.328125 19.339844 53.371094 C 19.464844 53.402344 19.609375 53.34375 19.691406 53.246094 C 19.914062 52.976562 19.851562 52.617188 19.683594 52.371094 C 19.605469 52.253906 19.496094 52.148438 19.378906 52.074219 Z M 22.78125 58.390625 C 22.183594 59.066406 21.816406 59.984375 22.164062 60.871094 C 22.3125 61.257812 23.058594 61.359375 23.101562 60.84375 C 23.15625 60.199219 23.15625 59.539062 23.480469 58.957031 C 23.707031 58.554688 23.113281 58.015625 22.78125 58.390625 Z M 60.414062 81.277344 C 60.476562 80.941406 60.429688 80.578125 60.265625 80.257812 C 60.152344 80.039062 59.886719 79.929688 59.65625 79.921875 C 59.261719 79.90625 58.917969 80.058594 58.6875 80.382812 C 58.59375 80.515625 58.542969 80.660156 58.527344 80.804688 C 58.347656 81.097656 58.335938 81.496094 58.480469 81.808594 C 58.640625 82.148438 58.964844 82.34375 59.304688 82.339844 C 59.328125 82.410156 59.359375 82.480469 59.414062 82.527344 C 59.535156 82.640625 59.691406 82.695312 59.855469 82.667969 C 59.960938 82.648438 60.035156 82.582031 60.113281 82.527344 C 60.28125 82.417969 60.4375 82.292969 60.59375 82.167969 C 60.859375 81.957031 60.804688 81.558594 60.5625 81.363281 C 60.515625 81.324219 60.464844 81.296875 60.414062 81.277344 Z M 77.996094 79.796875 C 77.9375 79.882812 77.878906 79.976562 77.824219 80.066406 C 77.710938 80.242188 77.816406 80.527344 77.972656 80.640625 C 78.144531 80.773438 78.398438 80.8125 78.585938 80.683594 C 78.476562 80.757812 78.617188 80.664062 78.628906 80.65625 C 78.699219 80.605469 78.769531 80.558594 78.839844 80.507812 C 79.109375 80.316406 79.046875 79.90625 78.824219 79.714844 C 78.585938 79.515625 78.179688 79.515625 77.996094 79.796875 Z M 86.253906 66.863281 C 85.941406 66.757812 85.484375 66.902344 85.386719 67.253906 C 85.214844 67.898438 85.03125 68.523438 85.058594 69.195312 C 85.078125 69.609375 85.773438 69.816406 86 69.457031 C 86.34375 68.902344 86.503906 68.304688 86.675781 67.683594 C 86.769531 67.332031 86.605469 66.980469 86.253906 66.863281 Z M 80.742188 70.867188 C 80.386719 70.785156 79.972656 70.949219 79.867188 71.324219 C 79.839844 71.417969 79.808594 71.515625 79.785156 71.613281 C 79.707031 71.886719 79.707031 72.128906 79.835938 72.382812 C 79.980469 72.667969 80.332031 72.816406 80.617188 72.625 C 80.882812 72.449219 81.011719 72.265625 81.117188 71.984375 C 81.152344 71.886719 81.191406 71.789062 81.226562 71.691406 C 81.355469 71.347656 81.078125 70.941406 80.742188 70.867188 Z M 55.949219 74.609375 C 55.511719 74.667969 55.160156 75.019531 55.171875 75.472656 C 55.171875 75.621094 55.171875 75.765625 55.179688 75.910156 C 55.203125 76.351562 55.277344 76.652344 55.5625 76.992188 C 55.804688 77.28125 56.3125 77.164062 56.492188 76.878906 C 56.800781 76.398438 56.78125 75.878906 56.792969 75.335938 C 56.800781 74.910156 56.355469 74.558594 55.949219 74.609375 Z M 82.339844 60.371094 C 81.929688 60.339844 81.554688 60.65625 81.554688 61.078125 C 81.554688 61.566406 81.207031 61.933594 81.140625 62.398438 C 81.09375 62.742188 81.363281 63.042969 81.699219 63.078125 C 81.867188 63.101562 82.046875 63.050781 82.183594 62.949219 C 82.386719 62.792969 82.585938 62.636719 82.71875 62.414062 C 82.976562 61.988281 83.085938 61.457031 82.976562 60.964844 C 82.902344 60.636719 82.6875 60.398438 82.339844 60.371094 Z M 52.566406 36.445312 C 52.714844 36.886719 52.8125 37.328125 53.1875 37.625 C 53.359375 37.761719 53.664062 37.753906 53.800781 37.566406 C 54.460938 36.644531 53.640625 35.28125 53.027344 34.546875 C 52.53125 33.953125 51.550781 34.609375 52.003906 35.277344 C 52.246094 35.636719 52.429688 36.035156 52.566406 36.445312 Z M 49.417969 43.878906 C 49.527344 43.921875 49.640625 43.976562 49.75 44.003906 C 49.902344 44.042969 50.0625 44.042969 50.21875 44.046875 C 50.554688 44.054688 50.714844 43.601562 50.453125 43.390625 C 50.308594 43.269531 50.183594 43.164062 50.007812 43.097656 C 49.886719 43.054688 49.765625 43.015625 49.648438 42.976562 C 49.414062 42.894531 49.101562 43.058594 49.050781 43.304688 C 48.992188 43.589844 49.167969 43.785156 49.417969 43.878906 Z M 36.90625 41.5 C 37.296875 41.597656 37.5 41.097656 37.285156 40.824219 C 37.183594 40.691406 37.121094 40.546875 37.050781 40.398438 C 37 40.296875 36.914062 40.160156 36.933594 40.039062 C 36.976562 39.785156 36.863281 39.546875 36.605469 39.46875 C 36.375 39.398438 36.089844 39.511719 36.019531 39.757812 C 35.917969 40.105469 35.886719 40.472656 36.03125 40.8125 C 36.183594 41.183594 36.53125 41.410156 36.90625 41.5 Z M 34.082031 45.242188 C 34.433594 45.53125 34.851562 45.667969 35.300781 45.527344 C 35.703125 45.398438 35.605469 44.855469 35.230469 44.769531 C 34.984375 44.710938 34.761719 44.617188 34.535156 44.511719 C 34.339844 44.421875 34.089844 44.445312 33.957031 44.632812 C 33.800781 44.847656 33.898438 45.089844 34.082031 45.242188 Z M 34.023438 48.03125 C 34.265625 48.140625 34.519531 48.238281 34.753906 48.367188 C 34.839844 48.414062 34.921875 48.472656 35.003906 48.527344 C 35.066406 48.5625 35.121094 48.605469 35.171875 48.652344 C 35.230469 48.6875 35.230469 48.703125 35.167969 48.710938 C 35.210938 48.660156 35.421875 48.9375 35.441406 48.988281 C 35.484375 49.097656 35.480469 49.203125 35.449219 49.3125 C 35.378906 49.546875 35.109375 49.699219 34.867188 49.644531 C 34.34375 49.53125 33.933594 49.25 33.503906 48.941406 C 32.996094 48.578125 33.460938 47.777344 34.023438 48.03125 "/></g></svg>