<svg xmlns="http://www.w3.org/2000/svg" xmlns:xlink="http://www.w3.org/1999/xlink" width="200" zoomAndPan="magnify" viewBox="0 0 150 149.999998" height="200" preserveAspectRatio="xMidYMid meet" version="1.2"><g id="950439d460"><path style=" stroke:none;fill-rule:nonzero;fill:#f6eb2c;fill-opacity:1;" d="M 5.585938 63.769531 C 5.585938 63.769531 12.019531 69.1875 17.582031 71.574219 C 23.140625 73.960938 58.007812 78.175781 81.554688 54.363281 C 105.105469 30.554688 105.894531 12.875 108.914062 10.535156 C 111.929688 8.199219 114.945312 9.207031 115.84375 10.371094 C 119.488281 15.082031 119.9375 22.179688 120.382812 27.859375 C 121.582031 43.308594 116.984375 56.582031 106.246094 67.898438 C 101.882812 72.496094 78.847656 103.636719 36.082031 99.113281 C 31.5625 98.640625 26.964844 95.636719 24.011719 92.117188 C 20.914062 88.417969 20.066406 83.203125 16.292969 80 C 11.945312 76.308594 1.589844 72.0625 1.589844 72.0625 C 1.589844 72.0625 1.640625 66.832031 5.585938 63.769531 Z M 5.585938 63.769531 "/><path style=" stroke:none;fill-rule:nonzero;fill:#fad305;fill-opacity:1;" d="M 1.597656 72.054688 C 1.597656 72.054688 1.621094 68.8125 3.5625 65.945312 C 11.015625 71.085938 26.613281 78.679688 37.492188 80.601562 C 52.136719 83.191406 67.148438 83.730469 91.773438 64.664062 C 110.519531 50.160156 112.328125 21.84375 112.125 9.160156 C 113.863281 8.957031 115.28125 9.632812 115.859375 10.371094 C 119.503906 15.082031 119.953125 22.179688 120.402344 27.859375 C 121.601562 43.308594 117 56.582031 106.261719 67.898438 C 101.898438 72.496094 78.863281 103.636719 36.097656 99.113281 C 31.582031 98.640625 26.980469 95.636719 24.03125 92.117188 C 20.929688 88.417969 20.082031 83.203125 16.308594 80 C 11.953125 76.300781 1.597656 72.054688 1.597656 72.054688 Z M 1.597656 72.054688 "/><path style=" stroke:none;fill-rule:nonzero;fill:#8f6226;fill-opacity:1;" d="M 115.851562 10.371094 C 116.371094 11.050781 116.835938 11.773438 117.238281 12.539062 C 115.613281 13.136719 113.886719 13.265625 112.199219 12.484375 C 111.074219 11.96875 110.152344 11.164062 109.410156 10.203125 C 112.253906 8.3125 114.996094 9.273438 115.851562 10.371094 Z M 115.851562 10.371094 "/><path style=" stroke:none;fill-rule:nonzero;fill:#f6eb2c;fill-opacity:1;" d="M 6.179688 63.289062 C 6.179688 63.289062 11.921875 70.597656 17.402344 74.417969 C 22.878906 78.238281 59.636719 90.617188 90.453125 70.15625 C 121.265625 49.695312 126.09375 30.742188 129.882812 28.894531 C 133.675781 27.042969 136.707031 28.8125 137.417969 30.269531 C 140.304688 36.179688 139.195312 43.960938 138.398438 50.191406 C 136.226562 67.175781 128.269531 80.496094 114.113281 90.332031 C 108.367188 94.324219 76.460938 122.835938 31.230469 108.355469 C 26.460938 106.824219 22.15625 102.546875 19.757812 98.070312 C 17.230469 93.371094 17.480469 87.542969 14.121094 83.242188 C 10.25 78.265625 0.0078125 71.355469 0.0078125 71.355469 C 0.0078125 71.355469 1.222656 65.707031 6.179688 63.289062 Z M 6.179688 63.289062 "/><path style=" stroke:none;fill-rule:nonzero;fill:#fad305;fill-opacity:1;" d="M 0.0078125 71.355469 C 0.0078125 71.355469 0.757812 67.851562 3.5 65.175781 C 10.414062 72.414062 28.171875 85.53125 39.507812 90.054688 C 54.761719 96.140625 68.265625 98.675781 99.175781 83.585938 C 122.707031 72.09375 131.015625 41.890625 133.652344 28.121094 C 135.574219 28.289062 136.960938 29.34375 137.410156 30.261719 C 140.296875 36.171875 139.1875 43.953125 138.386719 50.183594 C 136.21875 67.164062 128.261719 80.488281 114.113281 90.324219 C 108.367188 94.316406 76.460938 122.828125 31.230469 108.347656 C 26.460938 106.816406 22.15625 102.539062 19.757812 98.0625 C 17.230469 93.363281 17.480469 87.535156 14.121094 83.234375 C 10.25 78.265625 0.0078125 71.355469 0.0078125 71.355469 Z M 0.0078125 71.355469 "/><path style=" stroke:none;fill-rule:nonzero;fill:#8f6226;fill-opacity:1;" d="M 137.417969 30.269531 C 137.835938 31.125 138.167969 32.015625 138.429688 32.925781 C 136.546875 33.210938 134.636719 32.953125 132.992188 31.730469 C 131.898438 30.921875 131.074219 29.839844 130.488281 28.632812 C 133.992188 27.230469 136.742188 28.894531 137.417969 30.269531 Z M 137.417969 30.269531 "/><path style=" stroke:none;fill-rule:nonzero;fill:#f6eb2c;fill-opacity:1;" d="M 7.207031 65.496094 C 7.207031 65.496094 12.207031 73.53125 16.8125 78.695312 C 21.421875 83.863281 55.535156 105.160156 91.535156 91.902344 C 127.535156 78.648438 136.953125 60.671875 141.21875 59.71875 C 145.484375 58.765625 148.125 61.265625 148.492188 62.914062 C 149.984375 69.5625 147 77.148438 144.699219 83.25 C 138.4375 99.863281 127.210938 111.394531 110.566406 117.921875 C 103.808594 120.570312 64.78125 141.699219 22.621094 116.242188 C 18.167969 113.554688 14.855469 108.207031 13.503906 103.125 C 12.085938 97.777344 13.738281 91.960938 11.382812 86.8125 C 8.683594 80.871094 0.0078125 71.433594 0.0078125 71.433594 C 0.0078125 71.433594 1.632812 66.75 7.207031 65.496094 Z M 7.207031 65.496094 "/><path style=" stroke:none;fill-rule:nonzero;fill:#fad305;fill-opacity:1;" d="M 0.0078125 71.433594 C 0.0078125 71.433594 1.605469 68.085938 5.015625 66.050781 C 10.25 75.003906 21.746094 93.328125 32.09375 100.605469 C 46.027344 110.398438 62.320312 115.363281 97.128906 107.539062 C 123.628906 101.59375 139.261719 73.105469 145.222656 59.847656 C 147.121094 60.484375 148.269531 61.871094 148.5 62.914062 C 149.992188 69.5625 147.007812 77.148438 144.707031 83.25 C 138.445312 99.863281 127.21875 111.394531 110.582031 117.921875 C 103.824219 120.570312 64.800781 141.699219 22.636719 116.242188 C 18.183594 113.554688 14.871094 108.207031 13.519531 103.125 C 12.101562 97.777344 13.757812 91.960938 11.398438 86.8125 C 8.683594 80.871094 0.0078125 71.433594 0.0078125 71.433594 Z M 0.0078125 71.433594 "/><path style=" stroke:none;fill-rule:nonzero;fill:#8f6226;fill-opacity:1;" d="M 148.5 62.914062 C 148.710938 63.875 148.84375 64.851562 148.882812 65.828125 C 146.910156 65.667969 145.058594 64.949219 143.679688 63.320312 C 142.765625 62.234375 142.203125 60.957031 141.894531 59.597656 C 145.777344 59.027344 148.15625 61.363281 148.5 62.914062 Z M 148.5 62.914062 "/><path style=" stroke:none;fill-rule:nonzero;fill:#c96b29;fill-opacity:1;" d="M 0.0429688 71.378906 C 0.03125 71.371094 0.0234375 71.363281 0.0078125 71.363281 C 0.0078125 71.363281 1.222656 65.714844 6.179688 63.296875 C 6.179688 63.296875 8.457031 65.398438 8.953125 66.390625 C 10.332031 67.402344 12.011719 68.558594 13.773438 69.601562 C 13.648438 70.105469 13.519531 70.605469 13.382812 71.109375 C 13.496094 71.214844 13.488281 74.289062 13.835938 74.800781 C 12.042969 77.058594 10.039062 79.144531 7.859375 81.027344 C 4.355469 76.160156 0.0078125 71.433594 0.0078125 71.433594 C 0.0078125 71.433594 0.015625 71.417969 0.0429688 71.378906 Z M 0.0429688 71.378906 "/><path style=" stroke:none;fill-rule:nonzero;fill:#e87627;fill-opacity:1;" d="M 0.0429688 71.378906 C 0.03125 71.371094 0.0234375 71.363281 0.0078125 71.363281 C 0.0078125 71.363281 0.757812 67.859375 3.5 65.1875 C 4.242188 64.46875 13.480469 74.289062 13.820312 74.800781 C 12.027344 77.058594 10.019531 79.144531 7.84375 81.027344 C 4.355469 76.160156 0.0078125 71.433594 0.0078125 71.433594 C 0.0078125 71.433594 0.015625 71.417969 0.0429688 71.378906 Z M 0.0429688 71.378906 "/></g></svg>