<svg xmlns="http://www.w3.org/2000/svg" xmlns:xlink="http://www.w3.org/1999/xlink" width="200" zoomAndPan="magnify" viewBox="0 0 150 149.999998" height="200" preserveAspectRatio="xMidYMid meet" version="1.2"><g id="77ec69c318"><path style=" stroke:none;fill-rule:nonzero;fill:#db9947;fill-opacity:1;" d="M 145.308594 86.644531 C 145.308594 86.644531 98.089844 94.023438 94.585938 93.902344 C 91.078125 93.785156 68.289062 88.558594 68.289062 88.558594 L 77.949219 44.625 L 134.984375 42.71875 C 134.984375 42.71875 148.355469 41.679688 149.246094 53.285156 C 149.957031 58.761719 147.582031 63.074219 147.582031 63.074219 C 147.582031 63.074219 150.003906 68.199219 149.855469 75.925781 C 149.363281 86.523438 145.308594 86.644531 145.308594 86.644531 Z M 145.308594 86.644531 "/><path style=" stroke:none;fill-rule:nonzero;fill:#d18643;fill-opacity:1;" d="M 147.582031 63.074219 L 93.664062 67 C 93.664062 67 96.019531 56.109375 91.132812 50.226562 C 86.25 44.34375 77.949219 44.625 77.949219 44.625 L 134.984375 42.71875 C 134.984375 42.71875 148.355469 41.679688 149.246094 53.285156 C 149.957031 58.761719 147.582031 63.074219 147.582031 63.074219 Z M 147.582031 63.074219 "/><path style=" stroke:none;fill-rule:nonzero;fill:#f8e1b7;fill-opacity:1;" d="M 94.585938 93.902344 C 94.585938 93.902344 69.386719 88.648438 68.289062 88.558594 C 67.1875 88.46875 68.800781 63.429688 68.800781 63.429688 C 68.800781 63.429688 67.375 60.660156 67.105469 58.074219 C 66.839844 55.484375 67.820312 44.949219 77.949219 44.625 C 89.453125 44.238281 95 53.609375 94.585938 59.953125 C 94.621094 61.113281 93.554688 63.503906 93.664062 67 C 94.007812 78.058594 94.585938 93.902344 94.585938 93.902344 Z M 94.585938 93.902344 "/><path style=" stroke:none;fill-rule:nonzero;fill:#db9947;fill-opacity:1;" d="M 5.050781 102.550781 C 10.757812 105.945312 19.371094 108.429688 29.171875 107.78125 C 38.976562 107.136719 58.765625 102.136719 60.070312 101.003906 C 61.371094 99.875 61.039062 95.238281 61.039062 95.238281 C 61.039062 95.238281 58.421875 91.035156 42.753906 89.207031 C 40.148438 88.902344 26.839844 91.304688 24.148438 90.984375 C 5.28125 88.753906 3.125 94.726562 3.125 94.726562 C 3.125 94.726562 2.933594 98.570312 5.050781 102.550781 Z M 5.050781 102.550781 "/><path style=" stroke:none;fill-rule:nonzero;fill:#d18643;fill-opacity:1;" d="M 5.050781 102.550781 C 10.757812 105.945312 19.371094 108.429688 29.171875 107.78125 C 31.519531 107.628906 34.433594 107.222656 37.53125 106.683594 C 38.558594 94.867188 26.839844 91.304688 24.148438 90.984375 C 5.28125 88.753906 3.125 94.726562 3.125 94.726562 C 3.125 94.726562 2.933594 98.570312 5.050781 102.550781 Z M 5.050781 102.550781 "/><path style=" stroke:none;fill-rule:nonzero;fill:#f8e1b7;fill-opacity:1;" d="M 61.039062 95.238281 C 60.148438 96.152344 34.878906 99.816406 34.878906 99.816406 C 34.878906 99.816406 26.679688 102.792969 17.230469 101.597656 C 0 98.742188 3.601562 93.875 3.601562 93.875 C 3.601562 93.875 4.789062 91.496094 10.730469 90.78125 C 16.671875 90.066406 24.148438 90.984375 24.148438 90.984375 C 24.148438 90.984375 38.753906 89.308594 42.757812 89.203125 C 46.761719 89.101562 62.367188 93.875 61.039062 95.238281 Z M 61.039062 95.238281 "/><path style=" stroke:none;fill-rule:nonzero;fill:#f8e1b7;fill-opacity:1;" d="M 16.574219 77.714844 C 15.503906 79.679688 17.109375 84.855469 17.464844 85.925781 C 17.464844 85.925781 27.449219 93.785156 48.480469 92.890625 C 48.480469 92.890625 55.253906 93.605469 75.394531 98.425781 C 75.394531 98.425781 77.890625 100.03125 78.601562 90.75 C 78.601562 90.75 64.523438 84.855469 56.144531 83.070312 C 56.144531 83.070312 46.699219 80.390625 34.753906 79.140625 C 34.753906 79.140625 17.644531 75.75 16.574219 77.714844 Z M 16.574219 77.714844 "/><path style=" stroke:none;fill-rule:nonzero;fill:#db9947;fill-opacity:1;" d="M 16.574219 77.714844 C 15.503906 79.679688 17.109375 84.855469 17.464844 85.925781 C 17.464844 85.925781 27.449219 93.785156 48.480469 92.890625 C 48.480469 92.890625 55.253906 93.605469 75.394531 98.425781 C 75.394531 98.425781 77.890625 100.03125 78.601562 90.75 C 78.601562 90.75 59.371094 87.648438 50.992188 85.863281 C 50.992188 85.863281 42.0625 85.570312 34.578125 83.605469 C 27.089844 81.640625 20.140625 80.75 16.574219 77.714844 Z M 16.574219 77.714844 "/><path style=" stroke:none;fill-rule:nonzero;fill:#d18643;fill-opacity:1;" d="M 16.574219 77.714844 C 15.503906 79.679688 17.109375 84.855469 17.464844 85.925781 C 17.464844 85.925781 27.449219 93.785156 48.480469 92.890625 C 48.480469 92.890625 49.683594 90.6875 50.992188 85.863281 C 50.992188 85.863281 42.0625 85.570312 34.578125 83.605469 C 27.089844 81.640625 20.140625 80.75 16.574219 77.714844 Z M 16.574219 77.714844 "/><path style=" stroke:none;fill-rule:nonzero;fill:#db9947;fill-opacity:1;" d="M 34.578125 72.894531 C 34.578125 72.894531 33.328125 77.355469 33.6875 78.785156 C 33.6875 78.785156 33.625 80.691406 68.035156 87.816406 C 80.546875 90.996094 90.722656 95.960938 91.554688 95.542969 C 91.972656 95.183594 93.65625 89.855469 93.582031 89.371094 C 93.046875 88.417969 82.347656 84.496094 70.761719 81.285156 C 70.761719 81.285156 41.886719 72.535156 34.578125 72.894531 Z M 34.578125 72.894531 "/><path style=" stroke:none;fill-rule:nonzero;fill:#d18643;fill-opacity:1;" d="M 34.578125 72.894531 C 34.578125 72.894531 33.328125 77.355469 33.6875 78.785156 C 33.6875 78.785156 33.632812 80.550781 64.324219 87.039062 C 66.863281 86.515625 67.507812 81.375 65.644531 79.78125 C 57.007812 77.296875 39.953125 72.628906 34.578125 72.894531 Z M 34.578125 72.894531 "/></g></svg>