<svg xmlns="http://www.w3.org/2000/svg" xmlns:xlink="http://www.w3.org/1999/xlink" width="200" zoomAndPan="magnify" viewBox="0 0 150 149.999998" height="200" preserveAspectRatio="xMidYMid meet" version="1.2"><defs><clipPath id="23e845202f"><path d="M 24.96875 0 L 124.683594 0 L 124.683594 149.976562 L 24.96875 149.976562 Z M 24.96875 0 "/></clipPath><clipPath id="6772404454"><path d="M 24.96875 1 L 124.683594 1 L 124.683594 149.976562 L 24.96875 149.976562 Z M 24.96875 1 "/></clipPath></defs><g id="8bfcd27029"><g clip-rule="nonzero" clip-path="url(#23e845202f)"><path style=" stroke:none;fill-rule:nonzero;fill:#f7b60c;fill-opacity:1;" d="M 124.140625 41.242188 C 121.132812 39.75 118.058594 38.417969 114.921875 37.246094 C 116.144531 35.214844 116.574219 32.910156 115.972656 30.304688 C 115.640625 28.875 114.855469 27.660156 114.054688 26.453125 C 113.910156 26.234375 113.683594 26.125 113.445312 26.046875 C 110.65625 25.121094 107.816406 24.441406 104.859375 24.378906 C 103.960938 24.347656 103.074219 24.457031 102.191406 24.582031 C 97.953125 25.183594 94.160156 26.753906 91.035156 29.761719 C 90.210938 30.550781 89.5 31.394531 88.875 32.28125 C 86.953125 32.28125 85.023438 32.308594 83.046875 32.355469 C 83.183594 32.03125 83.296875 31.695312 83.351562 31.332031 C 83.578125 29.867188 83.765625 28.402344 83.820312 26.921875 C 83.882812 24.726562 83.378906 22.597656 83.117188 20.4375 C 82.808594 17.894531 81.371094 16.457031 79.15625 15.5625 C 79.03125 15.511719 78.910156 15.453125 78.789062 15.402344 C 75.957031 14.222656 73.171875 14.558594 70.417969 15.671875 C 67.902344 16.6875 65.613281 18.058594 63.839844 20.167969 C 62.644531 21.589844 62.558594 22.773438 63.488281 24.386719 C 64.128906 25.492188 64.980469 26.421875 65.941406 27.25 C 66.535156 27.761719 67.042969 28.339844 67.503906 28.972656 C 68.46875 30.300781 69.484375 31.582031 70.617188 32.765625 C 70.308594 32.773438 70 32.785156 69.6875 32.796875 C 64.824219 33.058594 58.601562 33.367188 52.386719 33.742188 C 49.589844 33.910156 46.765625 33.898438 44.003906 34.386719 C 38.996094 35.265625 34.011719 36.285156 29.015625 37.234375 C 28.535156 37.324219 28.363281 37.417969 28.652344 37.941406 C 30.128906 40.59375 31.574219 43.257812 33.007812 45.933594 C 33.015625 45.945312 33.023438 45.953125 33.027344 45.96875 C 32.925781 46.117188 32.925781 46.332031 33.003906 46.65625 C 34.785156 54.113281 36.542969 61.570312 38.292969 69.035156 C 38.472656 69.800781 38.742188 70.554688 38.660156 71.378906 C 38.449219 73.460938 38.285156 75.546875 38.101562 77.625 C 37.261719 87.125 36.425781 96.625 35.582031 106.121094 C 35.503906 107.007812 35.417969 107.886719 35.109375 108.75 C 32.308594 116.625 29.464844 124.488281 27.59375 132.65625 C 27.585938 132.695312 27.578125 132.734375 27.570312 132.769531 C 27.546875 132.816406 27.519531 132.863281 27.492188 132.917969 C 26.726562 134.507812 25.949219 136.09375 25.109375 137.648438 C 24.898438 138.042969 24.898438 138.148438 25.292969 138.332031 C 32.417969 141.628906 39.625 144.707031 47.097656 147.128906 C 49.542969 147.921875 52.007812 148.535156 54.605469 148.46875 C 56.789062 148.414062 58.972656 148.433594 61.15625 148.421875 C 66.417969 148.398438 71.679688 148.449219 76.902344 149.222656 C 79.160156 149.554688 81.390625 150.078125 83.484375 149.960938 C 85.3125 149.972656 86.917969 149.820312 88.519531 149.605469 C 96.511719 148.535156 104.132812 146.082031 111.644531 143.242188 C 112.441406 142.941406 112.542969 142.5625 112.003906 141.894531 C 111.261719 140.976562 110.304688 140.332031 109.328125 139.710938 C 108.566406 137.757812 107.859375 135.78125 107.121094 133.816406 C 106.953125 133.367188 106.863281 132.917969 106.839844 132.441406 C 106.421875 124.007812 106.164062 115.570312 106.050781 107.132812 C 105.984375 102.300781 105.898438 97.460938 106.3125 92.648438 C 106.851562 86.316406 108.5625 80.21875 110.382812 74.160156 C 112.308594 67.757812 114.523438 61.453125 116.925781 55.21875 C 118.03125 54.164062 119.160156 53.128906 120.3125 52.128906 C 120.863281 51.65625 121.203125 51.089844 121.472656 50.429688 C 121.976562 49.191406 122.398438 47.898438 123.21875 46.816406 C 123.886719 45.9375 124.285156 44.996094 124.324219 43.878906 C 124.339844 43.363281 124.433594 42.832031 124.601562 42.34375 C 124.789062 41.789062 124.683594 41.511719 124.140625 41.242188 Z M 85.554688 13.410156 C 85.023438 10.664062 84.914062 7.925781 86.003906 5.261719 C 86.917969 3.03125 88.539062 1.429688 90.550781 0.1875 C 90.859375 -0.00390625 91.207031 -0.0117188 91.558594 0.00390625 C 95.871094 0.222656 100 1.109375 103.804688 3.277344 C 104.976562 3.941406 105.695312 5.015625 106.578125 5.945312 C 106.910156 6.292969 106.664062 6.808594 106.710938 7.195312 C 106.644531 8.367188 106.46875 9.464844 106.210938 10.558594 C 105.707031 12.695312 104.476562 14.191406 102.5625 15.203125 C 100.734375 16.171875 98.824219 16.929688 96.859375 17.558594 C 96.027344 17.824219 95.242188 18.164062 94.492188 18.609375 C 93.4375 19.230469 92.316406 19.695312 91.117188 19.945312 C 89.410156 20.300781 88.335938 19.84375 87.386719 18.351562 C 86.425781 16.835938 85.890625 15.15625 85.554688 13.410156 "/></g><path style=" stroke:none;fill-rule:nonzero;fill:#fdf6ae;fill-opacity:1;" d="M 118.101562 52.195312 C 115.246094 59.417969 112.621094 66.722656 110.382812 74.160156 C 108.5625 80.21875 106.851562 86.316406 106.3125 92.648438 C 105.898438 97.460938 105.984375 102.300781 106.050781 107.132812 C 106.164062 115.570312 106.421875 124.007812 106.839844 132.441406 C 106.863281 132.917969 106.953125 133.367188 107.121094 133.816406 C 107.867188 135.796875 108.574219 137.789062 109.34375 139.757812 C 109.585938 140.382812 109.542969 140.585938 108.808594 140.671875 C 104.199219 141.203125 99.578125 141.605469 94.945312 141.910156 C 88.734375 142.320312 82.507812 142.476562 76.464844 142.707031 C 66.433594 142.382812 56.589844 142.070312 46.851562 140.359375 C 40.628906 139.265625 34.523438 137.753906 28.746094 135.109375 C 27.464844 134.519531 27.277344 134.039062 27.59375 132.65625 C 29.464844 124.488281 32.308594 116.625 35.109375 108.75 C 35.417969 107.886719 35.503906 107.007812 35.582031 106.121094 C 36.425781 96.625 37.261719 87.125 38.101562 77.625 C 38.285156 75.546875 38.449219 73.460938 38.660156 71.378906 C 38.742188 70.554688 38.472656 69.800781 38.292969 69.035156 C 36.542969 61.570312 34.785156 54.113281 33.003906 46.65625 C 32.851562 46.011719 33 45.796875 33.640625 45.679688 C 38.695312 44.765625 43.742188 43.832031 48.785156 42.871094 C 49.574219 42.722656 50.316406 42.847656 51.074219 42.96875 C 56.683594 43.859375 62.292969 44.761719 67.902344 45.65625 C 68.617188 45.769531 69.296875 45.949219 69.957031 46.269531 C 73.550781 48.011719 77.160156 49.730469 80.757812 51.46875 C 81.148438 51.65625 81.539062 51.746094 81.972656 51.746094 C 92.445312 51.738281 102.914062 51.75 113.386719 51.726562 C 114.773438 51.722656 116.160156 51.550781 117.546875 51.449219 C 118.417969 51.382812 118.425781 51.382812 118.101562 52.195312 "/><path style=" stroke:none;fill-rule:nonzero;fill:#f9e02d;fill-opacity:1;" d="M 71.394531 123.96875 C 71.933594 122.300781 72.175781 120.53125 72.140625 118.601562 C 72.148438 117.953125 72.195312 117.160156 71.839844 116.40625 C 71.15625 114.957031 70.308594 113.480469 69.285156 112.25 C 68.824219 111.699219 68.441406 111.933594 67.988281 112.378906 C 66.855469 113.5 65.828125 114.707031 64.953125 116.042969 C 64.550781 116.648438 64.339844 117.320312 64.46875 118.027344 C 64.699219 119.261719 64.460938 120.417969 64.160156 121.617188 C 63.667969 123.582031 63.542969 125.554688 64.816406 127.351562 C 65.167969 127.84375 65.5625 128.050781 66.140625 127.894531 C 66.621094 127.769531 67.09375 127.570312 67.578125 127.535156 C 69.824219 127.378906 70.808594 125.785156 71.394531 123.96875 Z M 77.425781 121.148438 C 76.511719 121.425781 75.707031 121.910156 74.949219 122.484375 C 73.828125 123.328125 72.910156 124.371094 72.054688 125.46875 C 70.335938 127.667969 68.847656 130.015625 67.601562 132.511719 C 67.066406 133.582031 67.28125 134.082031 68.363281 134.582031 C 69.121094 134.929688 69.925781 135.046875 70.765625 135.050781 C 73.3125 134.902344 75.570312 134.078125 77.230469 132.035156 C 78.878906 130 79.835938 127.648438 80.195312 125.054688 C 80.316406 124.183594 80.304688 123.3125 80.011719 122.46875 C 79.601562 121.289062 78.617188 120.789062 77.425781 121.148438 Z M 97.859375 126.535156 C 96.367188 126.894531 95.164062 127.769531 93.980469 128.679688 C 92.507812 129.808594 90.933594 130.722656 89.101562 131.140625 C 88.699219 131.230469 88.304688 131.417969 87.941406 131.621094 C 86.652344 132.339844 86.003906 133.613281 86.210938 135.058594 C 86.414062 136.476562 87.472656 137.027344 88.664062 137.457031 C 89.992188 137.9375 91.300781 137.75 92.621094 137.464844 C 95.128906 136.925781 97.609375 136.316406 99.722656 134.753906 C 101.269531 133.613281 102.304688 132.15625 102.386719 130.464844 C 102.402344 127.472656 100.4375 125.90625 97.859375 126.535156 Z M 87.917969 120.988281 C 89.339844 122.835938 91.320312 123.683594 93.519531 124.054688 C 96.054688 124.480469 98.210938 123.140625 98.691406 120.914062 C 98.976562 119.601562 98.738281 118.328125 98.160156 117.140625 C 95.929688 112.546875 91.785156 111.066406 87.195312 110.332031 C 86.558594 110.390625 85.964844 110.425781 85.386719 110.570312 C 83.890625 110.949219 82.4375 111.527344 81.519531 112.78125 C 80.261719 114.503906 80.847656 117.277344 82.558594 118.539062 C 83.71875 119.394531 85.050781 119.855469 86.421875 120.222656 C 86.972656 120.371094 87.546875 120.503906 87.917969 120.988281 Z M 65.941406 27.25 C 66.535156 27.761719 67.042969 28.339844 67.503906 28.972656 C 68.863281 30.84375 70.324219 32.632812 72.074219 34.160156 C 72.996094 34.96875 74.011719 35.601562 75.257812 35.765625 C 77.355469 36.046875 79.363281 35.628906 81.34375 34.992188 C 81.492188 34.945312 81.671875 34.851562 81.734375 34.726562 C 82.289062 33.601562 83.15625 32.628906 83.351562 31.332031 C 83.578125 29.867188 83.765625 28.402344 83.820312 26.921875 C 83.882812 24.726562 83.378906 22.597656 83.117188 20.4375 C 82.808594 17.894531 81.371094 16.457031 79.15625 15.5625 C 79.03125 15.511719 78.910156 15.453125 78.789062 15.402344 C 75.957031 14.222656 73.171875 14.558594 70.417969 15.671875 C 67.902344 16.6875 65.613281 18.058594 63.839844 20.167969 C 62.644531 21.589844 62.558594 22.773438 63.488281 24.386719 C 64.128906 25.492188 64.980469 26.421875 65.941406 27.25 Z M 87.386719 18.351562 C 88.335938 19.84375 89.410156 20.300781 91.117188 19.945312 C 92.316406 19.695312 93.4375 19.230469 94.492188 18.609375 C 95.242188 18.164062 96.027344 17.824219 96.859375 17.558594 C 98.824219 16.929688 100.734375 16.171875 102.5625 15.203125 C 104.476562 14.191406 105.707031 12.695312 106.210938 10.558594 C 106.46875 9.464844 106.644531 8.367188 106.710938 7.195312 C 106.664062 6.808594 106.910156 6.292969 106.578125 5.945312 C 105.695312 5.015625 104.976562 3.941406 103.804688 3.277344 C 100 1.109375 95.871094 0.222656 91.558594 0.00390625 C 91.207031 -0.0117188 90.859375 -0.00390625 90.550781 0.1875 C 88.539062 1.429688 86.917969 3.03125 86.003906 5.261719 C 84.914062 7.925781 85.023438 10.664062 85.554688 13.410156 C 85.890625 15.15625 86.425781 16.835938 87.386719 18.351562 Z M 103.589844 104.570312 C 101.617188 103.464844 99.648438 102.355469 97.664062 101.273438 C 97.246094 101.042969 97.160156 100.859375 97.429688 100.417969 C 98.230469 99.085938 98.207031 99.074219 96.984375 98.109375 C 96.867188 98.015625 96.75 97.925781 96.628906 97.835938 C 90.464844 93.300781 83.484375 91.105469 75.921875 90.847656 C 69.734375 90.640625 63.574219 91.214844 57.445312 92.050781 C 53.332031 92.613281 49.386719 93.730469 45.742188 95.789062 C 44.851562 96.296875 44.847656 96.289062 45.417969 97.15625 C 45.96875 97.992188 45.960938 97.976562 45.042969 98.421875 C 43.203125 99.308594 41.40625 100.273438 40.035156 101.847656 C 39.882812 102.027344 39.601562 102.21875 39.789062 102.480469 C 39.949219 102.703125 40.25 102.605469 40.484375 102.539062 C 41.226562 102.332031 41.941406 102.046875 42.636719 101.707031 C 43.054688 101.503906 43.171875 101.609375 43.074219 102.0625 C 42.929688 102.773438 42.8125 103.492188 42.683594 104.203125 C 44.257812 102.734375 46.125 101.953125 48.046875 101.269531 C 48.316406 101.171875 48.585938 100.988281 48.585938 100.703125 C 48.582031 100.0625 49.019531 99.960938 49.484375 99.820312 C 56.117188 97.824219 62.902344 96.878906 69.824219 96.941406 C 78.328125 97.019531 86.480469 98.675781 94.121094 102.542969 C 95.214844 103.097656 95.28125 103.191406 94.71875 104.292969 C 94.484375 104.757812 94.589844 105.023438 94.933594 105.3125 C 95.1875 105.523438 95.457031 105.691406 95.757812 105.8125 C 97.34375 106.429688 99.011719 106.429688 100.671875 106.464844 C 101.164062 106.476562 101.140625 106.179688 100.898438 105.890625 C 100.679688 105.625 100.410156 105.394531 100.160156 105.15625 C 100.050781 105.054688 99.914062 104.957031 99.976562 104.785156 C 100.035156 104.625 100.195312 104.597656 100.347656 104.59375 C 100.796875 104.589844 101.234375 104.65625 101.671875 104.75 C 102.476562 104.914062 103.269531 105.210938 104.140625 105.074219 C 104.066406 104.71875 103.789062 104.683594 103.589844 104.570312 Z M 113.078125 39.570312 C 110.570312 42.066406 107.5 43.785156 104.359375 45.355469 C 102.132812 46.464844 99.84375 47.414062 97.402344 47.945312 C 96.042969 48.246094 94.730469 48.082031 93.457031 47.597656 C 90.460938 46.457031 87.953125 44.554688 85.570312 42.460938 C 85.398438 42.308594 85.273438 42.144531 85.3125 41.878906 C 86.023438 37.269531 87.59375 33.066406 91.035156 29.761719 C 94.160156 26.753906 97.953125 25.183594 102.191406 24.582031 C 103.074219 24.457031 103.960938 24.347656 104.859375 24.378906 C 107.816406 24.441406 110.65625 25.121094 113.445312 26.046875 C 113.683594 26.125 113.910156 26.234375 114.054688 26.453125 C 114.855469 27.660156 115.640625 28.875 115.972656 30.304688 C 116.816406 33.960938 115.632812 37.03125 113.078125 39.570312 "/><g clip-rule="nonzero" clip-path="url(#6772404454)"><path style=" stroke:none;fill-rule:nonzero;fill:#f7b60c;fill-opacity:1;" d="M 97.371094 88.75 C 95.160156 89.539062 93.289062 89.011719 91.921875 87.222656 C 91.128906 86.1875 91.128906 86.1875 90.117188 87.089844 C 88.542969 88.492188 88.527344 88.507812 90.070312 89.980469 C 92.191406 92.011719 94.652344 93.117188 97.59375 92.207031 C 100.554688 91.289062 102.578125 89.214844 103.84375 86.414062 C 104.375 85.246094 104.355469 83.996094 104.046875 82.753906 C 103.664062 81.203125 102.851562 79.867188 102.003906 78.546875 C 101.398438 77.609375 100.726562 76.707031 100.289062 75.667969 C 99.699219 74.273438 100.367188 73.167969 101.875 73.039062 C 102.597656 72.980469 103.3125 73.0625 104.015625 73.230469 C 105.1875 73.503906 105.1875 73.507812 105.597656 72.359375 C 105.625 72.292969 105.652344 72.222656 105.679688 72.152344 C 105.9375 71.523438 105.777344 71.105469 105.167969 70.742188 C 102.171875 68.964844 98.796875 69.984375 97.1875 73.167969 C 96.570312 74.390625 96.542969 75.609375 97.207031 76.8125 C 97.589844 77.507812 98.027344 78.175781 98.457031 78.839844 C 99.476562 80.414062 100.191406 82.085938 100.1875 83.742188 C 100.296875 86.378906 99.289062 88.070312 97.371094 88.75 Z M 124.140625 41.242188 C 121.132812 39.75 118.058594 38.417969 114.921875 37.246094 C 114.429688 38.066406 113.8125 38.839844 113.078125 39.570312 C 112.296875 40.347656 111.460938 41.050781 110.589844 41.695312 C 113.726562 42.472656 116.871094 43.25 120.011719 44.023438 C 120.601562 44.171875 120.753906 44.367188 120.527344 44.925781 C 120.011719 46.191406 119.527344 47.472656 119.023438 48.742188 C 118.804688 49.292969 118.488281 49.5 117.820312 49.359375 C 113.796875 48.523438 109.808594 48.914062 105.769531 49.519531 C 96.804688 50.863281 87.953125 50.277344 79.332031 47.261719 C 77.210938 46.519531 75.273438 45.402344 73.300781 44.355469 C 66.769531 40.871094 59.84375 38.957031 52.410156 38.871094 C 48.144531 38.820312 43.875 38.707031 39.609375 38.707031 C 39.367188 38.707031 39.117188 38.769531 38.679688 38.488281 C 40.828125 38.078125 42.792969 37.6875 44.761719 37.332031 C 49.746094 36.429688 54.753906 35.6875 59.8125 35.378906 C 62.398438 35.21875 64.953125 35.3125 67.519531 35.78125 C 72.296875 36.664062 77.148438 36.671875 81.984375 36.765625 C 83.5 36.796875 85.023438 36.867188 86.523438 36.738281 C 86.546875 36.734375 86.566406 36.734375 86.589844 36.730469 C 87.160156 35.15625 87.902344 33.664062 88.875 32.28125 C 86.953125 32.28125 85.023438 32.308594 83.046875 32.355469 C 82.6875 33.1875 82.132812 33.917969 81.734375 34.726562 C 81.671875 34.851562 81.492188 34.945312 81.34375 34.992188 C 79.363281 35.628906 77.355469 36.046875 75.257812 35.765625 C 74.011719 35.601562 72.996094 34.96875 72.074219 34.160156 C 71.566406 33.714844 71.082031 33.25 70.617188 32.765625 C 70.308594 32.773438 70 32.785156 69.6875 32.796875 C 64.824219 33.058594 58.601562 33.367188 52.386719 33.742188 C 49.589844 33.910156 46.765625 33.898438 44.003906 34.386719 C 38.996094 35.265625 34.011719 36.285156 29.015625 37.234375 C 28.535156 37.324219 28.363281 37.417969 28.652344 37.941406 C 30.128906 40.59375 31.574219 43.257812 33.007812 45.933594 C 33.253906 46.394531 33.53125 46.546875 34.066406 46.5 C 39.011719 46.0625 43.972656 45.867188 48.9375 45.914062 C 56.742188 45.992188 64.320312 46.984375 71.570312 50.238281 C 76.304688 52.367188 81.390625 53.535156 86.589844 54.066406 C 89.046875 54.320312 91.5 54.082031 93.953125 54.117188 C 101.207031 54.214844 108.417969 54.984375 115.628906 55.652344 C 116.144531 55.703125 116.519531 55.605469 116.898438 55.242188 C 118.015625 54.179688 119.152344 53.136719 120.3125 52.128906 C 120.863281 51.65625 121.203125 51.089844 121.472656 50.429688 C 121.976562 49.191406 122.398438 47.898438 123.21875 46.816406 C 123.886719 45.9375 124.285156 44.996094 124.324219 43.878906 C 124.339844 43.363281 124.433594 42.832031 124.601562 42.34375 C 124.789062 41.789062 124.683594 41.511719 124.140625 41.242188 Z M 91.636719 70.132812 C 91.03125 69.558594 90.28125 69.242188 89.515625 68.941406 C 89.054688 68.761719 88.902344 68.929688 88.785156 69.347656 C 88.351562 70.875 87.910156 72.402344 87.429688 73.914062 C 87.277344 74.398438 87.460938 74.558594 87.878906 74.621094 C 88.121094 74.65625 88.367188 74.675781 88.578125 74.699219 C 89.792969 74.632812 90.859375 74.289062 91.703125 73.433594 C 92.691406 72.429688 92.65625 71.101562 91.636719 70.132812 Z M 94.992188 72.027344 C 94.871094 74.742188 93.667969 76.503906 91.390625 77.328125 C 90.375 77.699219 89.324219 77.835938 88.417969 77.804688 C 86.746094 77.792969 86.757812 77.792969 86.378906 79.277344 C 85.710938 81.902344 85.074219 84.539062 84.121094 87.078125 C 83.503906 88.726562 81.988281 88.9375 80.800781 87.589844 C 80.566406 87.320312 80.695312 87.082031 80.757812 86.824219 C 81.898438 82.089844 83.039062 77.351562 84.179688 72.617188 C 84.664062 70.609375 85.164062 68.605469 85.617188 66.59375 C 85.742188 66.042969 85.96875 65.796875 86.5625 65.804688 C 88.386719 65.828125 90.179688 65.992188 91.863281 66.765625 C 94.0625 67.777344 95.101562 69.535156 94.992188 72.027344 Z M 77.734375 65.035156 C 76.734375 65.101562 75.796875 65.417969 74.839844 65.675781 C 74.21875 65.84375 74.035156 66.144531 74.078125 66.792969 C 74.269531 69.96875 74.40625 73.152344 74.566406 76.332031 C 74.722656 79.488281 74.871094 82.644531 75.035156 85.800781 C 75.097656 86.992188 75.113281 86.992188 76.269531 86.910156 C 76.515625 86.890625 76.765625 86.839844 77.007812 86.863281 C 77.71875 86.921875 77.917969 86.5625 77.992188 85.90625 C 78.503906 81.429688 78.984375 76.953125 79.328125 72.464844 C 79.476562 70.527344 79.609375 68.589844 79.539062 66.648438 C 79.488281 65.289062 79.082031 64.949219 77.734375 65.035156 Z M 69.503906 64.378906 C 68.734375 64.382812 67.964844 64.320312 67.203125 64.222656 C 66.632812 64.144531 66.476562 64.351562 66.4375 64.894531 C 66.265625 67.453125 66.0625 70.007812 65.847656 72.5625 C 65.707031 74.246094 65.691406 74.214844 63.996094 74.324219 C 63.414062 74.359375 63.226562 74.191406 63.15625 73.613281 C 62.800781 70.726562 62.402344 67.839844 62.027344 64.953125 C 61.984375 64.625 61.976562 64.292969 61.613281 64.144531 C 60.765625 63.804688 59.902344 63.617188 59.007812 63.976562 C 58.371094 64.230469 58.046875 64.617188 58.109375 65.394531 C 58.316406 67.925781 58.449219 70.460938 58.605469 72.992188 C 58.886719 77.585938 59.167969 82.183594 59.445312 86.777344 C 59.464844 87.136719 59.535156 87.425781 59.953125 87.464844 C 62.648438 87.730469 63.015625 87.808594 63.167969 85.105469 C 63.171875 85.054688 63.167969 85.003906 63.171875 84.953125 C 63.238281 82.835938 63.078125 80.726562 62.789062 78.628906 C 62.691406 77.902344 62.902344 77.691406 63.585938 77.75 C 64.105469 77.792969 64.632812 77.800781 65.148438 77.75 C 65.695312 77.695312 65.878906 77.875 65.925781 78.433594 C 66.167969 81.332031 66.472656 84.230469 66.71875 87.128906 C 66.769531 87.726562 66.929688 87.976562 67.570312 87.886719 C 68.328125 87.777344 69.101562 87.742188 69.867188 87.714844 C 70.367188 87.695312 70.535156 87.515625 70.53125 86.988281 C 70.503906 83.378906 70.515625 79.769531 70.515625 76.164062 C 70.453125 76.164062 70.390625 76.164062 70.328125 76.164062 C 70.328125 72.53125 70.316406 68.898438 70.339844 65.265625 C 70.34375 64.632812 70.160156 64.371094 69.503906 64.378906 Z M 49.390625 71.21875 C 50.832031 69.914062 52.570312 69.320312 54.457031 69.117188 C 55.03125 69.054688 55.226562 68.824219 55.195312 68.265625 C 55.15625 67.59375 55.144531 66.921875 54.980469 66.265625 C 54.683594 65.082031 53.988281 64.496094 52.777344 64.402344 C 52.257812 64.367188 51.738281 64.398438 51.230469 64.53125 C 48.886719 65.144531 47.015625 66.519531 45.414062 68.257812 C 42.914062 70.972656 41.324219 74.09375 41.765625 77.914062 C 42.496094 84.277344 49.09375 88.957031 55.386719 87.648438 C 55.769531 87.566406 55.949219 87.398438 55.941406 87 C 55.929688 86.332031 55.9375 85.65625 55.9375 84.988281 C 55.992188 84.039062 55.984375 83.097656 55.792969 82.164062 C 55.671875 81.582031 55.410156 81.339844 54.75 81.464844 C 53.300781 81.746094 51.839844 81.761719 50.40625 81.320312 C 49.015625 80.894531 48.023438 80.042969 47.527344 78.640625 C 46.671875 76.222656 47.496094 72.933594 49.390625 71.21875 Z M 108.917969 139.457031 C 108.738281 139.339844 108.542969 139.367188 108.34375 139.382812 C 104.386719 139.738281 100.433594 140.101562 96.480469 140.429688 C 88.390625 141.101562 80.296875 141.652344 72.179688 141.785156 C 68.382812 141.851562 64.582031 141.914062 60.808594 141.378906 C 55.550781 140.628906 50.320312 139.722656 45.132812 138.582031 C 40.625 137.59375 36.136719 136.519531 31.839844 134.777344 C 30.574219 134.265625 29.3125 133.710938 28.3125 132.746094 C 27.863281 132.3125 27.726562 132.441406 27.492188 132.917969 C 26.726562 134.507812 25.949219 136.09375 25.109375 137.648438 C 24.898438 138.042969 24.898438 138.148438 25.292969 138.332031 C 32.417969 141.628906 39.625 144.707031 47.097656 147.128906 C 49.542969 147.921875 52.007812 148.535156 54.605469 148.46875 C 56.789062 148.414062 58.972656 148.433594 61.15625 148.421875 C 66.417969 148.398438 71.679688 148.449219 76.902344 149.222656 C 79.160156 149.554688 81.390625 150.078125 83.484375 149.960938 C 85.3125 149.972656 86.917969 149.820312 88.519531 149.605469 C 96.511719 148.535156 104.132812 146.082031 111.644531 143.242188 C 112.441406 142.941406 112.542969 142.5625 112.003906 141.894531 C 111.160156 140.851562 110.035156 140.15625 108.917969 139.457031 Z M 39.097656 114.347656 C 35.898438 117.640625 36.847656 122.730469 39.570312 125.203125 C 41.214844 126.699219 43.203125 127.53125 45.3125 128.066406 C 48.894531 128.980469 52.550781 129.1875 56.695312 129.054688 C 58.765625 129.027344 61.28125 128.742188 63.792969 128.410156 C 64.542969 128.3125 65.289062 128.128906 66.019531 127.917969 C 65.503906 128.015625 65.140625 127.808594 64.816406 127.351562 C 63.542969 125.554688 63.667969 123.582031 64.160156 121.617188 C 64.460938 120.417969 64.699219 119.261719 64.46875 118.027344 C 64.339844 117.320312 64.550781 116.648438 64.953125 116.042969 C 65.828125 114.707031 66.855469 113.5 67.988281 112.378906 C 68.441406 111.933594 68.792969 111.863281 69.253906 112.414062 C 69.710938 112.957031 68.367188 110.109375 66.378906 109.117188 C 63.355469 107.609375 58.847656 107.242188 55.535156 107.144531 C 54.25 107.105469 52.960938 107.175781 51.679688 107.390625 C 49.523438 107.753906 47.429688 108.292969 45.792969 109.816406 C 44.113281 111.378906 42.238281 112.597656 40.195312 113.59375 C 39.796875 113.789062 39.414062 114.023438 39.097656 114.347656 Z M 78.152344 121.167969 C 78.679688 122.015625 79.011719 122.910156 79.175781 123.867188 C 79.445312 125.464844 79.242188 127.039062 79.019531 128.625 C 78.785156 130.332031 77.859375 131.550781 76.492188 132.496094 C 75.136719 133.4375 73.636719 134.097656 72.132812 134.742188 C 71.917969 134.835938 71.636719 134.839844 71.535156 135.128906 C 71.71875 135.386719 71.988281 135.292969 72.214844 135.289062 C 76.039062 135.230469 78.695312 133.410156 80.246094 129.917969 C 80.785156 128.703125 81.019531 127.398438 81.429688 126.148438 C 81.816406 124.980469 81.777344 123.945312 81.117188 122.898438 C 80.421875 121.804688 79.402344 121.328125 78.152344 121.167969 Z M 92.984375 31.316406 C 93.460938 30.808594 93.945312 30.324219 94.496094 29.894531 C 95.679688 28.984375 96.992188 28.289062 98.285156 27.566406 C 98.476562 27.460938 98.699219 27.382812 98.789062 27.160156 C 98.765625 26.925781 98.589844 26.941406 98.457031 26.972656 C 98.050781 27.078125 97.640625 27.179688 97.253906 27.332031 C 95.335938 28.082031 93.632812 29.144531 92.34375 30.792969 C 92.164062 31.023438 91.917969 31.292969 92.25 31.5625 C 92.582031 31.835938 92.789062 31.527344 92.984375 31.316406 Z M 86.414062 7.75 C 86.59375 7.855469 86.726562 7.664062 86.832031 7.527344 C 86.941406 7.390625 87.050781 7.253906 87.140625 7.105469 C 87.882812 5.933594 88.859375 5.0625 90.214844 4.660156 C 92.285156 4.046875 93.554688 2.273438 95.273438 1.117188 C 94.46875 1.003906 93.753906 1.269531 93.160156 1.734375 C 91.882812 2.734375 90.492188 3.53125 89.070312 4.292969 C 87.855469 4.945312 87.007812 5.988281 86.40625 7.226562 C 86.324219 7.398438 86.1875 7.617188 86.414062 7.75 Z M 67.636719 25.183594 C 69.972656 27.1875 72.351562 29.148438 73.636719 32.074219 C 73.683594 32.179688 73.753906 32.296875 73.921875 32.285156 C 74.085938 32.050781 73.945312 31.8125 73.898438 31.585938 C 73.667969 30.496094 73.179688 29.535156 72.5 28.65625 C 71.414062 27.246094 69.992188 26.191406 68.675781 25.03125 C 67.859375 24.316406 67.246094 23.53125 67.132812 22.414062 C 67.105469 22.136719 67.050781 21.835938 66.664062 21.886719 C 66.277344 21.9375 66.335938 22.257812 66.339844 22.523438 C 66.355469 23.613281 66.828125 24.488281 67.636719 25.183594 Z M 92.621094 113.964844 C 93.238281 114.378906 93.375 115.136719 93.957031 115.527344 C 95.132812 116.316406 96.234375 117.203125 97.34375 118.082031 C 97.492188 118.195312 97.621094 118.371094 97.871094 118.300781 C 97.972656 117.960938 97.738281 117.734375 97.566406 117.511719 C 97.070312 116.855469 96.480469 116.292969 95.804688 115.816406 C 95.277344 115.445312 94.683594 115.15625 94.269531 114.652344 C 92.273438 112.214844 89.585938 111.257812 86.574219 111 C 86.277344 110.972656 85.734375 110.789062 85.714844 111.257812 C 85.695312 111.652344 86.230469 111.59375 86.5625 111.648438 C 88.746094 111.984375 90.769531 112.71875 92.621094 113.964844 Z M 90.851562 135.347656 C 92.3125 135.203125 93.746094 134.960938 95.09375 134.324219 C 96.3125 133.746094 97.382812 133.054688 97.890625 131.699219 C 98.058594 131.261719 98.492188 130.984375 98.886719 130.71875 C 99.132812 130.550781 99.386719 130.394531 99.628906 130.21875 C 99.8125 130.085938 100.011719 129.929688 99.8125 129.675781 C 99.664062 129.480469 99.484375 129.226562 99.203125 129.363281 C 98.308594 129.789062 97.355469 130.203125 96.9375 131.183594 C 96.554688 132.070312 95.902344 132.628906 95.101562 133.058594 C 93.9375 133.679688 92.707031 134.144531 91.445312 134.523438 C 90.984375 134.664062 90.492188 134.769531 90.042969 135.183594 C 90.207031 135.265625 90.269531 135.316406 90.335938 135.324219 C 90.503906 135.34375 90.683594 135.363281 90.851562 135.347656 Z M 92.898438 136.234375 C 95.171875 136.4375 97.144531 135.773438 98.5625 133.960938 C 99.222656 133.113281 99.738281 132.199219 100.796875 131.78125 C 101.074219 131.675781 101.210938 131.40625 101.019531 131.109375 C 100.855469 130.859375 100.652344 130.558594 100.308594 130.710938 C 99.5 131.074219 98.589844 131.347656 98.144531 132.195312 C 97.273438 133.859375 95.832031 134.730469 94.121094 135.265625 C 93.585938 135.4375 93.070312 135.660156 92.664062 136.046875 C 92.707031 136.199219 92.796875 136.222656 92.898438 136.234375 Z M 99.609375 44.828125 C 99.414062 44.996094 98.992188 45.195312 99.253906 45.527344 C 99.519531 45.859375 99.859375 45.570312 100.109375 45.394531 C 101.109375 44.703125 102.101562 44.007812 103.027344 43.214844 C 104.949219 41.578125 107.042969 40.246094 109.5 39.550781 C 110.03125 39.398438 110.546875 39.152344 110.9375 38.679688 C 109.71875 38.855469 108.484375 38.832031 107.320312 39.328125 C 104.347656 40.601562 102.03125 42.789062 99.609375 44.828125 Z M 73.777344 23.0625 C 75.722656 25.507812 77.144531 28.203125 77.910156 31.242188 C 77.960938 31.441406 77.925781 31.777344 78.230469 31.722656 C 78.484375 31.675781 78.417969 31.359375 78.433594 31.140625 C 78.503906 30.261719 78.375 29.394531 78.085938 28.570312 C 77.078125 25.691406 75.359375 23.292969 73.039062 21.332031 C 72.265625 20.675781 71.714844 19.980469 72.195312 18.734375 C 71.269531 19.5 71.175781 20.261719 71.804688 21.042969 C 72.394531 21.777344 73.183594 22.316406 73.777344 23.0625 Z M 82.390625 115.414062 C 82.410156 115.71875 82.765625 115.6875 82.992188 115.726562 C 83.820312 115.871094 84.65625 115.960938 85.476562 116.132812 C 87.765625 116.621094 90.035156 117.152344 91.496094 119.257812 C 91.613281 119.429688 91.835938 119.542969 92.027344 119.652344 C 92.863281 120.136719 93.722656 120.585938 94.632812 120.910156 C 94.902344 121.007812 95.285156 121.363281 95.480469 121.035156 C 95.636719 120.773438 95.230469 120.488281 94.984375 120.296875 C 93.601562 119.226562 92.132812 118.269531 90.726562 117.226562 C 88.65625 115.699219 86.160156 115.132812 83.417969 114.996094 C 83.394531 115 83.1875 114.988281 83 115.035156 C 82.761719 115.097656 82.363281 115.023438 82.390625 115.414062 Z M 79.996094 22.496094 C 81.234375 24.652344 81.632812 26.953125 81.285156 29.40625 C 81.253906 29.625 81.238281 29.859375 81.277344 30.070312 C 81.320312 30.304688 81.328125 30.65625 81.589844 30.699219 C 81.894531 30.746094 81.945312 30.378906 82.011719 30.164062 C 82.308594 29.164062 82.535156 28.144531 82.578125 26.949219 C 82.546875 26.667969 82.503906 26.25 82.449219 25.828125 C 82.21875 24.125 81.269531 22.730469 80.441406 21.289062 C 79.867188 20.292969 79.394531 19.308594 79.8125 18.121094 C 79.867188 17.972656 79.941406 17.757812 79.726562 17.660156 C 79.496094 17.558594 79.347656 17.71875 79.234375 17.890625 C 78.734375 18.636719 78.539062 19.449219 78.894531 20.296875 C 79.214844 21.050781 79.585938 21.785156 79.996094 22.496094 Z M 82.082031 116.980469 C 82.058594 117.371094 82.34375 117.476562 82.664062 117.507812 C 84.703125 117.707031 86.535156 118.535156 88.359375 119.382812 C 88.648438 119.519531 88.929688 119.703125 89.148438 119.929688 C 90.90625 121.742188 93.242188 122.464844 95.5 123.363281 C 94.910156 122.484375 94.019531 121.996094 93.183594 121.433594 C 92.132812 120.730469 90.976562 120.203125 89.984375 119.394531 C 87.882812 117.675781 85.40625 116.878906 82.746094 116.582031 C 82.453125 116.550781 82.109375 116.550781 82.082031 116.980469 Z M 90.019531 7.210938 C 88.738281 7.90625 87.695312 8.894531 86.878906 10.109375 C 86.640625 10.464844 86.464844 10.847656 86.417969 11.277344 C 86.390625 11.535156 86.429688 11.824219 86.695312 11.910156 C 86.988281 12.003906 87.035156 11.691406 87.125 11.503906 C 87.929688 9.875 89.183594 8.71875 90.816406 7.980469 C 91.6875 7.589844 92.453125 7.0625 93.144531 6.40625 C 94.222656 5.378906 95.390625 4.457031 96.675781 3.695312 C 97.074219 3.464844 97.507812 3.261719 97.859375 2.835938 C 97.542969 2.644531 97.308594 2.75 97.074219 2.804688 C 95.320312 3.234375 93.847656 4.175781 92.542969 5.390625 C 91.773438 6.105469 90.945312 6.710938 90.019531 7.210938 Z M 83.273438 113.246094 C 83.023438 113.296875 82.734375 113.382812 82.789062 113.695312 C 82.84375 114.035156 83.167969 113.925781 83.402344 113.933594 C 83.722656 113.941406 84.046875 113.933594 84.367188 113.933594 C 86.199219 113.832031 87.898438 114.375 89.511719 115.160156 C 90.621094 115.703125 91.652344 116.320312 92.566406 117.277344 C 93.546875 118.300781 94.980469 118.898438 96.234375 119.648438 C 96.59375 119.863281 97.15625 120.339844 97.402344 119.976562 C 97.691406 119.542969 97.042969 119.203125 96.703125 118.925781 C 95.246094 117.746094 93.589844 116.863281 92.113281 115.679688 C 90.367188 114.28125 88.234375 113.503906 86 113.113281 C 85.082031 112.953125 84.175781 113.054688 83.273438 113.246094 Z M 70.023438 24.253906 C 71.683594 25.300781 72.855469 26.78125 73.847656 28.445312 C 74.472656 29.5 74.832031 30.671875 75.425781 31.734375 C 75.546875 31.960938 75.6875 32.332031 75.976562 32.242188 C 76.253906 32.160156 76.140625 31.765625 76.199219 31.523438 C 76.175781 30.984375 76.097656 30.464844 75.898438 29.980469 C 74.902344 27.515625 73.519531 25.316406 71.269531 23.832031 C 70.195312 23.125 69.414062 22.367188 69.46875 20.992188 C 69.480469 20.71875 69.414062 20.398438 69.046875 20.410156 C 68.695312 20.417969 68.652344 20.722656 68.601562 21 C 68.363281 22.402344 68.820312 23.496094 70.023438 24.253906 Z M 88.945312 133.816406 C 90.011719 133.691406 91.179688 133.632812 92.3125 133.402344 C 93.722656 133.113281 94.996094 132.550781 95.6875 131.113281 C 95.921875 130.621094 96.414062 130.3125 96.855469 129.988281 C 97.601562 129.441406 98.488281 129.152344 99.25 128.640625 C 99.464844 128.492188 99.882812 128.386719 99.640625 127.984375 C 99.445312 127.65625 99.136719 127.519531 98.746094 127.703125 C 98.121094 127.996094 97.476562 128.261719 96.855469 128.566406 C 95.976562 128.992188 95.121094 129.492188 94.644531 130.375 C 94.113281 131.355469 93.296875 131.839844 92.269531 132.121094 C 91.101562 132.4375 89.867188 132.480469 88.726562 132.929688 C 88.398438 133.058594 87.832031 133.078125 87.890625 133.484375 C 87.949219 133.882812 88.5 133.75 88.945312 133.816406 Z M 92.0625 8.832031 C 91.382812 9.570312 90.617188 10.1875 89.730469 10.660156 C 88.472656 11.328125 87.804688 12.488281 87.273438 13.742188 C 87.179688 13.953125 87.046875 14.261719 87.335938 14.40625 C 87.640625 14.558594 87.742188 14.214844 87.894531 14.042969 C 88.023438 13.894531 88.128906 13.722656 88.238281 13.554688 C 88.898438 12.5625 89.6875 11.742188 90.832031 11.300781 C 91.386719 11.085938 91.90625 10.742188 92.3125 10.308594 C 94.039062 8.457031 96.195312 7.15625 98.207031 5.667969 C 98.476562 5.472656 98.792969 5.308594 98.941406 4.894531 C 98.535156 4.878906 98.210938 4.96875 97.890625 5.085938 C 95.675781 5.90625 93.683594 7.082031 92.0625 8.832031 Z M 78.605469 27.175781 C 78.972656 28.28125 79.449219 29.351562 79.640625 30.515625 C 79.691406 30.820312 79.882812 31.109375 80.230469 31.070312 C 80.546875 31.035156 80.636719 30.722656 80.644531 30.441406 C 80.652344 30.121094 80.65625 29.789062 80.578125 29.480469 C 80.117188 27.621094 79.578125 25.785156 78.519531 24.15625 C 77.679688 22.867188 76.84375 21.574219 75.984375 20.300781 C 75.539062 19.644531 75.449219 18.925781 75.480469 18.03125 C 75.402344 17.859375 75.796875 17.363281 75.339844 17.265625 C 74.992188 17.191406 74.894531 17.71875 74.757812 18.03125 C 74.6875 18.1875 74.664062 18.363281 74.621094 18.53125 C 74.339844 19.667969 74.921875 20.546875 75.488281 21.433594 C 76.664062 23.273438 77.910156 25.078125 78.605469 27.175781 Z M 68.496094 115.503906 C 68.59375 115.289062 69.050781 115.09375 68.722656 114.847656 C 68.421875 114.621094 68.132812 114.941406 67.921875 115.1875 C 67.792969 115.339844 67.664062 115.5 67.582031 115.675781 C 66.527344 118.027344 65.730469 120.449219 65.511719 123.035156 C 65.429688 123.96875 65.785156 124.703125 66.632812 125.121094 C 67.472656 125.539062 68.234375 125.28125 68.890625 124.691406 C 70.417969 123.316406 70.605469 121.507812 70.40625 119.625 C 70.332031 118.914062 69.425781 118.675781 68.902344 119.1875 C 68.449219 119.628906 68.332031 120.21875 68.378906 120.835938 C 68.390625 120.992188 68.441406 121.144531 68.625 121.15625 C 68.769531 121.167969 68.824219 121.039062 68.890625 120.933594 C 69.078125 120.632812 69.078125 120.226562 69.386719 119.941406 C 69.792969 121.328125 69.085938 123.390625 67.960938 124.164062 C 67.683594 124.355469 67.40625 124.601562 67.015625 124.371094 C 66.632812 124.144531 66.472656 123.828125 66.472656 123.386719 C 66.46875 122.6875 66.503906 121.996094 66.65625 121.3125 C 67.089844 119.320312 67.648438 117.367188 68.496094 115.503906 Z M 98.359375 12.402344 C 97 13.59375 95.667969 14.765625 93.804688 15.230469 C 92.28125 15.609375 90.941406 16.484375 90.074219 17.894531 C 89.890625 18.195312 89.636719 18.5 89.769531 18.90625 C 90.109375 18.925781 90.210938 18.652344 90.378906 18.488281 C 91.59375 17.277344 92.953125 16.265625 94.664062 15.933594 C 95.59375 15.753906 96.417969 15.421875 97.167969 14.882812 C 98.261719 14.097656 99.3125 13.261719 100.191406 12.238281 C 101.15625 11.113281 102.289062 10.203125 103.566406 9.460938 C 104.28125 9.042969 104.964844 8.574219 105.664062 8.128906 C 105.636719 8.070312 105.613281 8.015625 105.585938 7.957031 C 105.4375 7.957031 105.285156 7.925781 105.152344 7.960938 C 103.226562 8.460938 101.472656 9.296875 100.039062 10.710938 C 99.472656 11.273438 98.953125 11.878906 98.359375 12.402344 Z M 70.359375 131.855469 C 70.035156 132.769531 70.441406 133.277344 71.425781 133.316406 C 71.835938 133.332031 72.222656 133.25 72.566406 133.039062 C 74.492188 131.863281 75.78125 130.191406 76.417969 128.015625 C 76.5 127.726562 76.539062 127.40625 76.269531 127.1875 C 76.011719 126.980469 75.6875 127.007812 75.414062 127.125 C 74.675781 127.441406 74.175781 128.019531 73.808594 128.71875 C 73.714844 128.902344 73.691406 129.117188 73.875 129.265625 C 74.109375 129.457031 74.28125 129.277344 74.453125 129.128906 C 74.6875 128.929688 74.824219 128.605469 75.253906 128.511719 C 74.566406 130.207031 73.46875 131.433594 71.992188 132.332031 C 71.777344 132.460938 71.496094 132.550781 71.289062 132.390625 C 71.023438 132.179688 71.277344 131.925781 71.355469 131.71875 C 72.050781 129.886719 72.992188 128.21875 74.382812 126.804688 C 75.214844 125.957031 75.929688 124.992188 76.691406 124.074219 C 76.816406 123.917969 77.089844 123.734375 76.851562 123.515625 C 76.640625 123.320312 76.449219 123.5625 76.277344 123.691406 C 76.097656 123.824219 75.921875 123.964844 75.765625 124.125 C 74.964844 124.972656 74.1875 125.84375 73.363281 126.671875 C 71.90625 128.140625 71.042969 129.949219 70.359375 131.855469 Z M 91.9375 12.785156 C 90.503906 13.40625 89.351562 14.445312 88.636719 15.886719 C 88.492188 16.175781 88.136719 16.566406 88.507812 16.816406 C 88.9375 17.105469 89.070312 16.550781 89.246094 16.308594 C 90.289062 14.84375 91.597656 13.777344 93.371094 13.316406 C 94.070312 13.136719 94.664062 12.714844 95.222656 12.238281 C 96.691406 10.984375 98.019531 9.566406 99.703125 8.5625 C 100.90625 7.847656 102.195312 7.339844 103.433594 6.710938 C 103.59375 6.628906 103.863281 6.570312 103.792969 6.316406 C 103.738281 6.105469 103.5 6.210938 103.289062 6.171875 C 103.140625 6.195312 102.941406 6.222656 102.75 6.261719 C 100.132812 6.804688 97.878906 8.035156 95.964844 9.902344 C 94.769531 11.070312 93.507812 12.105469 91.9375 12.785156 Z M 114.136719 34.597656 C 113.273438 34.734375 112.46875 35.058594 111.652344 35.363281 C 110.894531 35.652344 110.140625 35.984375 109.296875 35.9375 C 108.796875 35.914062 108.308594 35.949219 107.828125 36.113281 C 106.339844 36.625 104.976562 37.386719 103.679688 38.269531 C 101.085938 40.039062 98.78125 42.164062 96.414062 44.210938 C 96.078125 44.503906 95.785156 44.847656 95.476562 45.171875 C 95.324219 45.335938 95.144531 45.523438 95.34375 45.753906 C 95.546875 45.988281 95.796875 45.914062 96.011719 45.753906 C 96.253906 45.578125 96.476562 45.382812 96.707031 45.195312 C 99.371094 43.035156 101.871094 40.664062 104.777344 38.824219 C 106.332031 37.839844 107.859375 36.578125 109.941406 37.019531 C 110.03125 37.039062 110.140625 37.007812 110.234375 36.984375 C 111.707031 36.59375 113.113281 36.050781 114.375 35.171875 C 114.535156 35.058594 114.867188 34.980469 114.746094 34.707031 C 114.640625 34.464844 114.335938 34.566406 114.136719 34.597656 Z M 107.886719 32.535156 C 106.472656 32.648438 105.167969 33.144531 103.902344 33.8125 C 101.019531 35.339844 98.566406 37.417969 96.324219 39.765625 C 95.039062 41.113281 93.617188 42.332031 92.53125 43.863281 C 92.394531 44.058594 92.078125 44.285156 92.417969 44.554688 C 92.683594 44.769531 92.933594 44.601562 93.152344 44.425781 C 93.269531 44.332031 93.375 44.226562 93.472656 44.113281 C 95.152344 42.179688 97.078125 40.488281 98.882812 38.671875 C 100.722656 36.816406 102.890625 35.429688 105.203125 34.261719 C 106.042969 33.839844 106.921875 33.417969 107.898438 33.535156 C 110.210938 33.8125 112.207031 32.84375 114.238281 31.996094 C 114.367188 31.941406 114.550781 31.875 114.519531 31.699219 C 114.472656 31.472656 114.246094 31.496094 114.089844 31.511719 C 113.550781 31.574219 113.011719 31.648438 112.476562 31.742188 C 110.953125 32.003906 109.53125 32.832031 107.886719 32.535156 Z M 105.03125 29.734375 C 104.140625 29.695312 103.332031 30.007812 102.542969 30.390625 C 97.296875 32.949219 93.746094 37.226562 90.765625 42.082031 C 90.660156 42.253906 90.414062 42.488281 90.632812 42.671875 C 90.894531 42.890625 91.082031 42.589844 91.242188 42.425781 C 92.164062 41.484375 93.007812 40.472656 93.773438 39.398438 C 96.195312 36 99.246094 33.328125 102.933594 31.382812 C 103.785156 30.933594 104.664062 30.65625 105.636719 30.738281 C 106.210938 30.785156 106.777344 30.714844 107.324219 30.535156 C 108.855469 30.035156 110.390625 29.535156 111.871094 28.902344 C 112.15625 28.78125 112.492188 28.722656 112.734375 28.273438 C 111.761719 28.238281 110.921875 28.4375 110.074219 28.605469 C 108.386719 28.9375 106.816406 29.816406 105.03125 29.734375 Z M 105.253906 26.832031 C 106.574219 27.039062 107.871094 26.917969 109.175781 26.738281 C 109.621094 26.675781 110.066406 26.652344 110.503906 26.777344 C 110.675781 26.824219 110.957031 26.75 110.953125 27.035156 C 110.949219 27.226562 110.714844 27.269531 110.554688 27.316406 C 109.238281 27.699219 107.90625 27.96875 106.417969 27.882812 C 105.207031 27.902344 103.914062 27.4375 102.558594 27.902344 C 100 28.78125 97.800781 30.230469 95.761719 31.957031 C 92.761719 34.492188 90.285156 37.433594 88.777344 41.113281 C 88.730469 41.226562 88.664062 41.335938 88.605469 41.445312 C 88.503906 41.628906 88.382812 41.800781 88.140625 41.699219 C 87.925781 41.605469 87.890625 41.394531 87.9375 41.191406 C 88.015625 40.878906 88.089844 40.558594 88.207031 40.261719 C 88.859375 38.582031 89.691406 36.992188 90.839844 35.605469 C 93.71875 32.117188 97.007812 29.140625 101.253906 27.390625 C 102.542969 26.859375 103.875 26.613281 105.253906 26.832031 "/></g><path style=" stroke:none;fill-rule:nonzero;fill:#8dacdf;fill-opacity:1;" d="M 120.238281 43.574219 C 117.191406 42.816406 114.148438 42.0625 111.101562 41.304688 C 109.03125 42.914062 106.714844 44.175781 104.359375 45.355469 C 102.132812 46.464844 99.84375 47.414062 97.402344 47.945312 C 96.042969 48.246094 94.730469 48.082031 93.457031 47.597656 C 90.460938 46.457031 87.953125 44.554688 85.570312 42.460938 C 85.398438 42.308594 85.273438 42.144531 85.3125 41.878906 C 85.621094 39.902344 86.085938 37.996094 86.789062 36.203125 C 86.78125 36.207031 86.777344 36.203125 86.773438 36.207031 C 85.195312 36.320312 83.601562 36.253906 82.011719 36.238281 C 77.519531 36.1875 73.007812 36.214844 68.582031 35.417969 C 65.246094 34.820312 61.917969 34.699219 58.582031 34.941406 C 52.140625 35.414062 45.785156 36.53125 39.464844 37.832031 C 38.996094 37.925781 38.589844 38.011719 38.660156 38.648438 C 38.730469 39.289062 39.191406 39.207031 39.601562 39.207031 C 42.355469 39.214844 45.109375 39.210938 47.859375 39.210938 C 47.859375 39.285156 47.859375 39.363281 47.859375 39.4375 C 49.722656 39.4375 51.582031 39.40625 53.441406 39.441406 C 60.113281 39.578125 66.355469 41.355469 72.265625 44.410156 C 74.6875 45.664062 77.054688 47.03125 79.648438 47.933594 C 83.828125 49.386719 88.15625 50.03125 92.523438 50.550781 C 97.058594 51.085938 101.546875 50.835938 106.003906 50.011719 C 109.902344 49.292969 113.777344 49.09375 117.683594 49.820312 C 118.839844 50.039062 119.035156 49.957031 119.511719 48.875 C 120.074219 47.605469 120.613281 46.324219 121.039062 45 C 121.371094 43.988281 121.296875 43.839844 120.238281 43.574219 Z M 87.519531 94.652344 C 87.320312 94.566406 87.105469 94.574219 87.007812 94.785156 C 86.730469 95.386719 86.507812 96.011719 86.445312 96.675781 C 86.429688 96.867188 86.523438 97.082031 86.746094 97.132812 C 86.980469 97.183594 87.101562 96.992188 87.199219 96.828125 C 87.507812 96.308594 87.59375 95.71875 87.734375 95.183594 C 87.757812 94.941406 87.742188 94.742188 87.519531 94.652344 Z M 59.390625 94.769531 C 59.003906 94.878906 58.84375 94.675781 58.738281 94.355469 C 58.636719 94.050781 58.535156 93.746094 58.425781 93.441406 C 58.324219 93.167969 58.125 93.054688 57.839844 93.121094 C 57.511719 93.199219 57.507812 93.457031 57.554688 93.710938 C 57.65625 94.25 57.820312 94.769531 58.085938 95.25 C 58.277344 95.601562 58.574219 95.808594 59.132812 95.78125 C 59.191406 95.773438 59.394531 95.757812 59.574219 95.6875 C 59.898438 95.566406 60.171875 95.335938 60.078125 94.96875 C 59.988281 94.609375 59.648438 94.699219 59.390625 94.769531 Z M 69.835938 91.796875 C 69.367188 91.796875 68.898438 91.800781 68.429688 91.808594 C 68.242188 91.808594 68.089844 91.875 68.03125 92.074219 C 67.980469 92.265625 68.046875 92.460938 68.207031 92.523438 C 68.628906 92.699219 68.621094 93.023438 68.558594 93.335938 C 68.558594 93.457031 68.558594 93.527344 68.558594 93.605469 C 68.570312 94.023438 68.550781 94.597656 69.070312 94.582031 C 69.554688 94.566406 69.476562 94.03125 69.457031 93.621094 C 69.433594 93.195312 69.347656 92.707031 69.96875 92.550781 C 70.167969 92.503906 70.273438 92.308594 70.21875 92.078125 C 70.175781 91.875 70.027344 91.796875 69.835938 91.796875 Z M 83.582031 93.722656 C 83.761719 93.367188 83.390625 93.207031 83.136719 93.082031 C 82.183594 92.59375 80.878906 93.609375 80.859375 94.835938 C 80.851562 95.457031 81.355469 96.054688 81.914062 96.070312 C 82.214844 96.082031 82.46875 95.949219 82.550781 95.664062 C 82.632812 95.375 82.335938 95.378906 82.171875 95.316406 C 81.636719 95.117188 81.609375 94.757812 81.847656 94.316406 C 82.085938 93.875 82.289062 93.378906 82.953125 93.652344 C 83.164062 93.734375 83.417969 94.046875 83.582031 93.722656 Z M 76.539062 92.332031 C 76.558594 92.035156 76.292969 91.929688 76.039062 91.890625 C 75.773438 91.851562 75.5 91.84375 75.230469 91.820312 C 75.230469 91.828125 75.230469 91.832031 75.230469 91.839844 C 75.007812 91.839844 74.78125 91.808594 74.566406 91.851562 C 74.234375 91.914062 74.0625 92.164062 74.320312 92.429688 C 74.640625 92.761719 74.550781 93.097656 74.507812 93.460938 C 74.46875 93.78125 74.433594 94.101562 74.445312 94.417969 C 74.453125 94.644531 74.5625 94.878906 74.808594 94.917969 C 75.078125 94.960938 75.21875 94.726562 75.273438 94.523438 C 75.363281 94.191406 75.410156 93.84375 75.421875 93.5 C 75.4375 93.082031 75.394531 92.691406 76.027344 92.773438 C 76.285156 92.804688 76.523438 92.59375 76.539062 92.332031 Z M 90.023438 97.210938 C 89.835938 96.984375 89.605469 96.792969 89.394531 96.585938 C 89.304688 96.5 89.183594 96.421875 89.238281 96.28125 C 89.308594 96.105469 89.46875 96.117188 89.617188 96.15625 C 89.734375 96.1875 89.847656 96.246094 89.964844 96.285156 C 90.105469 96.335938 90.277344 96.382812 90.355469 96.214844 C 90.460938 96.003906 90.269531 95.914062 90.125 95.820312 C 89.585938 95.460938 88.792969 95.484375 88.492188 95.910156 C 88.082031 96.496094 88.617188 96.796875 88.917969 97.160156 C 89.039062 97.300781 89.300781 97.398438 89.164062 97.632812 C 89.0625 97.804688 88.851562 97.710938 88.683594 97.691406 C 88.449219 97.664062 88.132812 97.5 88.03125 97.808594 C 87.929688 98.113281 88.226562 98.296875 88.464844 98.414062 C 88.703125 98.535156 88.976562 98.585938 89.140625 98.636719 C 89.621094 98.640625 89.863281 98.476562 90.074219 98.113281 C 90.257812 97.792969 90.246094 97.484375 90.023438 97.210938 Z M 95.253906 98.1875 C 94.851562 97.925781 94.414062 97.691406 93.964844 98.054688 C 93.484375 98.433594 93.546875 98.945312 93.824219 99.394531 C 94.199219 100.003906 94.25 100.347656 93.363281 100.234375 C 93.222656 100.21875 93.054688 100.214844 92.976562 100.378906 C 92.902344 100.542969 93.007812 100.667969 93.117188 100.765625 C 93.441406 101.054688 93.730469 101.527344 94.230469 101.292969 C 94.710938 101.070312 94.992188 100.613281 95.070312 100.089844 C 95.046875 99.671875 94.804688 99.382812 94.601562 99.074219 C 94.503906 98.929688 94.382812 98.761719 94.554688 98.613281 C 94.691406 98.496094 94.824219 98.628906 94.945312 98.707031 C 95.113281 98.8125 95.308594 98.96875 95.460938 98.746094 C 95.617188 98.511719 95.449219 98.316406 95.253906 98.1875 Z M 52.972656 96.203125 C 52.757812 96.234375 52.476562 96.335938 52.402344 96.046875 C 52.339844 95.800781 52.648438 95.789062 52.800781 95.683594 C 53 95.542969 53.320312 95.410156 53.207031 95.140625 C 53.054688 94.785156 52.742188 95.023438 52.5 95.101562 C 52.339844 95.15625 52.160156 95.28125 52.058594 95.046875 C 51.964844 94.832031 52.144531 94.734375 52.296875 94.648438 C 52.554688 94.507812 52.828125 94.386719 53.082031 94.230469 C 53.148438 94.191406 53.203125 94.066406 53.195312 93.984375 C 53.179688 93.824219 53.03125 93.824219 52.910156 93.824219 C 51.53125 93.820312 51.007812 94.503906 51.367188 95.851562 C 51.417969 96.046875 51.492188 96.230469 51.570312 96.414062 C 51.910156 97.214844 52.371094 97.390625 53.175781 97.054688 C 53.457031 96.9375 53.671875 96.734375 53.628906 96.445312 C 53.574219 96.050781 53.238281 96.164062 52.972656 96.203125 Z M 92.492188 97.578125 C 92.441406 97.335938 92.328125 97.113281 92.074219 97.160156 C 91.765625 97.21875 91.757812 97.558594 91.675781 97.796875 C 91.609375 97.984375 91.773438 98.050781 91.933594 98.035156 C 92.21875 98.007812 92.453125 97.90625 92.492188 97.578125 Z M 91.898438 98.832031 C 91.464844 98.726562 91.011719 98.632812 90.726562 99.179688 C 90.65625 99.3125 90.464844 99.320312 90.339844 99.1875 C 90.152344 98.992188 90.078125 98.75 90.230469 98.511719 C 90.589844 97.949219 90.945312 97.378906 91.355469 96.859375 C 91.742188 96.375 92.265625 96.414062 92.757812 96.703125 C 93.242188 96.988281 93.429688 97.449219 93.269531 97.976562 C 93.070312 98.609375 92.535156 98.792969 91.898438 98.832031 Z M 62.917969 92.164062 C 61.855469 92.175781 61.570312 92.507812 61.695312 93.457031 C 61.746094 93.847656 61.78125 94.242188 61.828125 94.632812 C 61.855469 94.90625 61.863281 95.238281 62.214844 95.246094 C 62.488281 95.257812 62.652344 94.984375 62.644531 94.734375 C 62.636719 94.328125 62.855469 94.203125 63.1875 94.074219 C 63.765625 93.847656 64.171875 93.398438 64.019531 92.757812 C 63.878906 92.171875 63.300781 92.179688 62.917969 92.164062 Z M 66.21875 93.457031 C 66.167969 93.175781 65.992188 92.976562 65.699219 92.941406 C 65.335938 92.902344 65.261719 93.183594 65.246094 93.46875 C 65.230469 93.75 65.273438 94.042969 65.640625 94.039062 C 65.976562 94.035156 66.148438 93.796875 66.21875 93.457031 Z M 67.210938 93.4375 C 67.1875 94.246094 66.414062 94.972656 65.59375 94.960938 C 64.863281 94.949219 64.378906 94.429688 64.375 93.660156 C 64.371094 92.847656 65.019531 91.941406 65.617188 91.925781 C 66.328125 91.902344 67.230469 92.761719 67.210938 93.4375 Z M 85.648438 93.859375 C 85.113281 93.421875 84.285156 93.433594 84.015625 93.945312 C 83.714844 94.507812 83.515625 95.125 83.324219 95.601562 C 83.289062 95.941406 83.328125 96.132812 83.488281 96.273438 C 83.621094 96.394531 83.796875 96.371094 83.875 96.238281 C 84.265625 95.570312 84.507812 96.046875 84.78125 96.335938 C 84.9375 96.5 85.109375 96.667969 85.351562 96.492188 C 85.515625 96.371094 85.703125 96.195312 85.582031 96 C 85.351562 95.640625 85.585938 95.492188 85.792969 95.269531 C 86.230469 94.785156 86.160156 94.273438 85.648438 93.859375 Z M 78.480469 93.632812 C 78.402344 93.292969 78.113281 93.144531 77.796875 93.113281 C 77.28125 93.058594 77.324219 93.527344 77.257812 93.828125 C 77.183594 94.160156 77.410156 94.34375 77.722656 94.347656 C 78.152344 94.351562 78.375 94.078125 78.480469 93.632812 Z M 79.421875 93.699219 C 79.394531 94.5625 78.554688 95.347656 77.707031 95.3125 C 76.898438 95.277344 76.304688 94.699219 76.320312 93.960938 C 76.335938 93.117188 77.085938 92.285156 77.808594 92.3125 C 78.742188 92.347656 79.449219 92.953125 79.421875 93.699219 Z M 56.058594 94.476562 C 56.058594 94.277344 55.886719 94.125 55.675781 94.050781 C 55.398438 94.121094 55.304688 94.351562 55.257812 94.597656 C 55.21875 94.78125 55.328125 94.90625 55.503906 94.84375 C 55.714844 94.765625 56.0625 94.820312 56.058594 94.476562 Z M 57.589844 95.457031 C 57.722656 95.765625 57.660156 96.085938 57.382812 96.246094 C 57.050781 96.4375 56.925781 96.078125 56.761719 95.882812 C 56.601562 95.691406 56.582031 95.265625 56.210938 95.429688 C 55.8125 95.601562 55.207031 95.472656 55.085938 96.105469 C 55.050781 96.300781 55.050781 96.542969 54.785156 96.53125 C 54.511719 96.519531 54.441406 96.28125 54.417969 96.046875 C 54.390625 95.800781 54.382812 95.554688 54.375 95.433594 C 54.375 95.183594 54.371094 95.054688 54.375 94.933594 C 54.425781 94.089844 54.875 93.375 55.472656 93.238281 C 56.316406 93.046875 56.660156 93.714844 57.03125 94.242188 C 57.285156 94.601562 57.414062 95.042969 57.589844 95.457031 Z M 71.933594 91.796875 C 71.589844 91.746094 71.261719 91.785156 71.066406 92.160156 C 70.714844 92.828125 70.5625 93.550781 70.441406 94.28125 C 70.398438 94.535156 70.515625 94.808594 70.78125 94.875 C 71.035156 94.941406 71.160156 94.699219 71.277344 94.507812 C 71.757812 93.710938 72.210938 93.679688 72.695312 94.4375 C 72.960938 94.847656 73.238281 94.8125 73.402344 94.433594 C 73.703125 93.742188 73.433594 93.0625 73.171875 92.429688 C 72.964844 91.933594 72.515625 91.707031 71.933594 91.796875 Z M 50.941406 97.03125 C 50.910156 97.289062 50.667969 97.421875 50.421875 97.503906 C 50.089844 97.613281 49.808594 97.378906 49.492188 97.332031 C 49.316406 97.652344 49.53125 98.242188 49.035156 98.238281 C 48.59375 98.234375 48.449219 97.738281 48.375 97.351562 C 48.242188 96.632812 47.742188 95.921875 48.3125 95.164062 C 48.679688 94.675781 49.644531 94.386719 50.09375 94.730469 C 50.628906 95.140625 50.515625 95.703125 50.230469 96.195312 C 50.019531 96.558594 50.101562 96.675781 50.460938 96.746094 C 50.65625 96.78125 50.980469 96.675781 50.941406 97.03125 "/></g></svg>