<svg xmlns="http://www.w3.org/2000/svg" xmlns:xlink="http://www.w3.org/1999/xlink" width="200" zoomAndPan="magnify" viewBox="0 0 150 149.999998" height="200" preserveAspectRatio="xMidYMid meet" version="1.2"><defs><clipPath id="d0fe0fff68"><path d="M 1 13 L 150 13 L 150 136.703125 L 1 136.703125 Z M 1 13 "/></clipPath><clipPath id="79867d6c5c"><path d="M 1 41 L 149 41 L 149 136.703125 L 1 136.703125 Z M 1 41 "/></clipPath></defs><g id="155e07576c"><g clip-rule="nonzero" clip-path="url(#d0fe0fff68)"><path style=" stroke:none;fill-rule:nonzero;fill:#eaeaea;fill-opacity:1;" d="M 148.820312 113.8125 C 145.394531 124.226562 136.121094 132.851562 125.160156 134.515625 C 116.808594 135.785156 108.351562 133.449219 99.910156 133.464844 C 91.726562 133.464844 83.679688 135.691406 75.519531 136.074219 C 72.117188 136.21875 68.730469 136.050781 65.359375 135.570312 C 61.988281 135.085938 58.691406 134.296875 55.46875 133.203125 C 52.246094 132.109375 49.148438 130.730469 46.183594 129.0625 C 43.21875 127.394531 40.429688 125.472656 37.824219 123.289062 C 33.25 119.425781 29.3125 114.804688 24.363281 111.453125 C 19.414062 108.097656 13.640625 106.050781 9.25 102.050781 C 0.324219 93.945312 -0.332031 79.929688 2.90625 68.324219 C 4.238281 63.589844 6.125 58.941406 9.03125 54.960938 C 12.265625 50.539062 16.65625 47.070312 21.265625 44.097656 C 22.542969 43.269531 23.851562 42.472656 25.183594 41.703125 C 37.542969 34.535156 51.78125 29.472656 63.238281 21.105469 C 65.777344 19.242188 68.5 17.699219 71.402344 16.476562 C 74.308594 15.253906 77.316406 14.386719 80.429688 13.875 C 84.703125 13.214844 89 12.96875 93.320312 13.128906 C 101.609375 13.386719 110.023438 14.820312 117.3125 18.757812 C 124.601562 22.695312 130.65625 29.410156 132.433594 37.472656 C 133.921875 44.226562 132.371094 51.28125 133.140625 58.15625 C 134.933594 74.269531 149.039062 87.183594 150.179688 103.359375 C 150.414062 106.933594 149.957031 110.414062 148.820312 113.8125 Z M 148.820312 113.8125 "/></g><path style=" stroke:none;fill-rule:nonzero;fill:#f2c341;fill-opacity:1;" d="M 109.429688 84.023438 C 108.453125 86.023438 107.148438 87.785156 105.519531 89.308594 C 96.414062 97.863281 79.164062 97.515625 69.695312 95.5625 C 63.835938 94.351562 55.007812 92.527344 50.75 85.070312 C 45.625 76.101562 49.828125 63.710938 56.292969 57.007812 C 59.269531 53.996094 62.765625 51.800781 66.777344 50.421875 C 80.933594 45.359375 99.96875 49.632812 107.605469 61.730469 C 111.425781 67.808594 112.96875 76.777344 109.429688 84.023438 Z M 109.429688 84.023438 "/><path style=" stroke:none;fill-rule:nonzero;fill:#151515;fill-opacity:0.04;" d="M 105.519531 89.308594 C 96.414062 97.863281 79.164062 97.515625 69.695312 95.5625 C 63.835938 94.351562 55.007812 92.527344 50.75 85.070312 C 45.625 76.101562 49.828125 63.710938 56.292969 57.007812 C 59.269531 53.996094 62.765625 51.800781 66.777344 50.421875 C 61.632812 54.929688 57.175781 60.3125 55.230469 66.804688 C 52.90625 74.570312 55.132812 84.117188 62.058594 88.351562 C 64.78125 90.015625 67.964844 90.753906 71.109375 91.335938 C 82.546875 93.476562 94.929688 93.8125 105.519531 89.308594 Z M 105.519531 89.308594 "/><g clip-rule="nonzero" clip-path="url(#79867d6c5c)"><path style=" stroke:none;fill-rule:nonzero;fill:#151515;fill-opacity:0.05;" d="M 148.820312 113.8125 C 145.394531 124.226562 136.121094 132.851562 125.160156 134.515625 C 116.808594 135.785156 108.351562 133.449219 99.910156 133.464844 C 91.726562 133.464844 83.679688 135.691406 75.519531 136.074219 C 72.117188 136.21875 68.730469 136.050781 65.359375 135.570312 C 61.988281 135.085938 58.691406 134.296875 55.46875 133.203125 C 52.246094 132.109375 49.148438 130.730469 46.183594 129.0625 C 43.21875 127.394531 40.429688 125.472656 37.824219 123.289062 C 33.25 119.425781 29.3125 114.804688 24.363281 111.453125 C 19.414062 108.097656 13.640625 106.050781 9.25 102.050781 C 0.324219 93.945312 -0.332031 79.929688 2.90625 68.324219 C 4.238281 63.589844 6.125 58.941406 9.03125 54.960938 C 12.265625 50.539062 16.65625 47.070312 21.265625 44.097656 C 22.542969 43.269531 23.851562 42.472656 25.183594 41.703125 C 19.085938 46.832031 12.8125 51.78125 8.6875 58.492188 C 0.640625 71.574219 3.230469 90.171875 14.535156 100.585938 C 19.34375 105.011719 25.316406 107.929688 30.765625 111.566406 C 41.3125 118.617188 50.480469 128.714844 62.890625 131.402344 C 73.039062 133.605469 83.554688 130.394531 93.933594 130.738281 C 103.695312 131.0625 113.453125 134.523438 123.03125 132.660156 C 133.730469 130.574219 141.789062 122.394531 148.820312 113.8125 Z M 148.820312 113.8125 "/></g><path style=" stroke:none;fill-rule:nonzero;fill:#ffffff;fill-opacity:0.15;" d="M 107.679688 78.292969 C 107.738281 69.21875 103.234375 60.144531 95.757812 54.980469 C 88.277344 49.816406 78.011719 48.773438 69.785156 52.667969 C 68.902344 53.082031 67.953125 53.671875 67.761719 54.640625 C 67.429688 56.253906 69.390625 57.316406 71.003906 57.691406 C 78.199219 59.363281 86.078125 58.777344 92.574219 62.285156 C 97.511719 64.960938 101.925781 69.449219 103.238281 74.914062 C 104.089844 78.464844 107.953125 80.34375 107.679688 78.324219 "/><path style=" stroke:none;fill-rule:nonzero;fill:#ffffff;fill-opacity:0.25;" d="M 101.632812 17.996094 C 109.601562 19.746094 116.75 24.460938 121.707031 30.726562 C 126.664062 36.992188 129.460938 44.753906 130.070312 52.613281 C 130.339844 56.066406 130.199219 59.535156 130.46875 62.988281 C 130.847656 68.210938 132.078125 73.230469 134.160156 78.039062 C 137 84.601562 141.40625 90.699219 142.417969 97.765625 C 142.8125 100.429688 142.023438 103.953125 139.25 104.324219 C 137.667969 104.539062 136.21875 103.5625 135.050781 102.523438 C 129.164062 97.304688 126.203125 89.636719 124.925781 82.007812 C 123.644531 74.375 123.851562 66.621094 123.214844 58.933594 C 122.578125 51.246094 120.992188 43.382812 116.574219 36.953125 C 114.628906 34.160156 112.277344 31.765625 109.515625 29.765625 C 106.757812 27.765625 103.746094 26.277344 100.480469 25.292969 C 97.183594 24.3125 93.8125 23.882812 90.375 24.007812 C 86.9375 24.132812 83.609375 24.808594 80.390625 26.027344 C 77.492188 27.144531 72.417969 28.640625 71.851562 24.109375 C 71.488281 21.199219 74.078125 20.335938 76.515625 19.679688 C 84.558594 17.527344 93.390625 16.183594 101.632812 17.996094 Z M 101.632812 17.996094 "/></g></svg>