<svg xmlns="http://www.w3.org/2000/svg" xmlns:xlink="http://www.w3.org/1999/xlink" width="200" zoomAndPan="magnify" viewBox="0 0 150 149.999998" height="200" preserveAspectRatio="xMidYMid meet" version="1.2"><defs><clipPath id="5c5066bfff"><path d="M 47 22 L 140.386719 22 L 140.386719 148 L 47 148 Z M 47 22 "/></clipPath></defs><g id="6e0a8bfe1e"><path style=" stroke:none;fill-rule:nonzero;fill:#e48d2c;fill-opacity:1;" d="M 115.339844 7.347656 C 115.324219 7.285156 115.277344 7.222656 115.214844 7.175781 C 115.152344 7.113281 115.058594 7.066406 114.933594 7.050781 C 114.792969 7.050781 114.648438 7.035156 114.507812 7.035156 C 108.582031 6.910156 102.859375 8.761719 97.625 11.429688 C 92.371094 14.109375 87.515625 17.546875 82.878906 21.152344 C 78.679688 24.402344 74.703125 27.898438 70.867188 31.539062 C 66.339844 35.867188 62.015625 40.449219 57.867188 45.140625 C 50.113281 53.894531 42.914062 63.117188 35.667969 72.277344 C 32.238281 76.625 28.796875 80.953125 25.292969 85.21875 C 25.117188 85.441406 24.945312 85.644531 24.757812 85.863281 C 20.859375 90.585938 16.535156 95.148438 13.738281 100.640625 C 11.222656 105.628906 9.886719 111.824219 12.242188 117.113281 C 14.269531 121.628906 18.640625 125.097656 23.34375 126.507812 C 24.316406 126.808594 25.324219 126.996094 26.34375 127.089844 C 26.503906 127.105469 26.660156 127.121094 26.800781 127.121094 C 26.816406 127.121094 26.832031 127.121094 26.847656 127.121094 C 27.035156 127.136719 27.148438 127.042969 27.210938 126.917969 C 27.855469 125.867188 28.53125 124.847656 29.253906 123.859375 C 32.050781 120.015625 35.351562 116.53125 38.433594 112.90625 C 40.367188 110.632812 42.222656 108.296875 43.8125 105.769531 C 44.015625 105.441406 44.21875 105.113281 44.425781 104.78125 C 45.085938 103.714844 45.730469 102.617188 46.40625 101.550781 C 46.71875 101.046875 47.050781 100.546875 47.378906 100.058594 C 47.378906 100.058594 47.378906 100.042969 47.394531 100.042969 C 47.992188 99.167969 48.621094 98.320312 49.25 97.472656 C 49.644531 96.9375 50.050781 96.421875 50.460938 95.902344 C 51.089844 95.085938 51.71875 94.289062 52.363281 93.472656 C 53.683594 91.777344 55.035156 90.113281 56.355469 88.421875 C 56.355469 88.421875 56.371094 88.40625 56.371094 88.40625 C 56.386719 88.390625 56.402344 88.375 56.433594 88.34375 C 58.054688 86.144531 59.65625 83.933594 61.277344 81.738281 C 63.039062 79.320312 64.8125 76.921875 66.574219 74.507812 C 67.15625 73.722656 67.738281 72.921875 68.304688 72.136719 C 70.066406 69.738281 71.824219 67.335938 73.601562 64.9375 C 75.789062 61.941406 77.988281 58.960938 80.171875 55.964844 C 81.382812 54.285156 82.609375 52.605469 83.789062 50.914062 C 84.464844 49.957031 85.125 48.984375 85.785156 48.011719 C 87.28125 45.796875 88.695312 43.523438 90.171875 41.296875 C 90.453125 40.855469 90.738281 40.433594 91.035156 39.996094 C 93 37.09375 95.203125 34.378906 97.433594 31.679688 C 99.257812 29.484375 101.097656 27.304688 102.875 25.058594 C 106.523438 20.402344 109.949219 15.570312 113.265625 10.675781 C 113.503906 10.328125 113.738281 9.96875 113.972656 9.625 C 114.335938 9.074219 114.695312 8.542969 115.058594 7.992188 C 115.121094 7.898438 115.183594 7.804688 115.246094 7.726562 C 115.261719 7.710938 115.277344 7.679688 115.292969 7.648438 C 115.292969 7.648438 115.292969 7.632812 115.292969 7.632812 C 115.355469 7.554688 115.371094 7.445312 115.339844 7.347656 Z M 115.339844 7.347656 "/><path style=" stroke:none;fill-rule:nonzero;fill:#cf6c17;fill-opacity:1;" d="M 27.003906 125.269531 C 25.511719 124.863281 24.175781 124.09375 22.917969 123.214844 C 21.722656 122.367188 20.480469 121.457031 19.425781 120.40625 C 18.296875 119.261719 17.792969 117.769531 17.304688 116.265625 C 16.785156 114.648438 16.316406 113.003906 16.1875 111.308594 C 15.921875 107.996094 16.753906 104.71875 17.855469 101.613281 C 18.972656 98.476562 20.308594 95.417969 21.722656 92.40625 C 22.855469 89.988281 24.050781 87.589844 25.324219 85.234375 C 25.148438 85.457031 24.976562 85.660156 24.789062 85.878906 C 20.890625 90.601562 16.566406 95.164062 13.769531 100.65625 C 11.222656 105.628906 9.886719 111.824219 12.242188 117.113281 C 14.269531 121.628906 18.640625 125.097656 23.34375 126.507812 C 24.316406 126.808594 25.324219 126.996094 26.34375 127.089844 C 26.140625 127.417969 25.9375 127.761719 25.730469 128.109375 C 25.761719 128.09375 25.777344 128.078125 25.808594 128.078125 C 26.21875 127.84375 26.566406 127.511719 26.816406 127.136719 C 27.050781 126.789062 27.226562 126.382812 27.289062 125.960938 C 27.304688 125.867188 27.304688 125.769531 27.320312 125.675781 C 27.304688 125.488281 27.164062 125.316406 27.003906 125.269531 Z M 27.003906 125.269531 "/><path style=" stroke:none;fill-rule:nonzero;fill:#cf6c17;fill-opacity:1;" d="M 115.671875 5.765625 C 115.277344 6.1875 114.902344 6.613281 114.523438 7.050781 C 108.597656 6.925781 102.875 8.777344 97.640625 11.445312 C 92.390625 14.125 87.53125 17.5625 82.894531 21.167969 C 78.695312 24.417969 74.71875 27.914062 70.882812 31.554688 C 76.527344 29.011719 81.589844 25.421875 86.683594 21.921875 C 91.808594 18.410156 97.058594 14.941406 102.921875 12.777344 C 105.765625 11.726562 108.722656 11.019531 111.742188 10.800781 C 112.179688 10.769531 112.605469 10.738281 113.046875 10.738281 C 113.125 10.738281 113.1875 10.738281 113.25 10.691406 C 113.28125 10.675781 113.3125 10.644531 113.34375 10.613281 C 114.082031 9.84375 114.617188 8.949219 115.042969 8.007812 C 115.136719 7.789062 115.246094 7.570312 115.324219 7.332031 C 115.484375 6.941406 115.640625 6.550781 115.78125 6.15625 C 115.84375 6.015625 115.78125 5.859375 115.671875 5.765625 Z M 115.671875 5.765625 "/><path style=" stroke:none;fill-rule:nonzero;fill:#d00004;fill-opacity:1;" d="M 103.929688 23.242188 C 103.722656 22.941406 103.503906 22.644531 103.269531 22.378906 C 102.058594 20.980469 100.375 20.007812 98.457031 20.292969 C 97.402344 20.449219 96.492188 20.996094 95.863281 21.84375 C 95.25 22.691406 94.984375 23.726562 94.730469 24.730469 C 94.621094 25.1875 94.164062 27.632812 93.410156 27.367188 C 93.222656 27.304688 93.082031 27.019531 92.96875 26.863281 C 92.828125 26.660156 92.65625 26.472656 92.453125 26.347656 C 92.058594 26.09375 91.585938 26.0625 91.132812 26.140625 C 90.0625 26.347656 89.246094 27.210938 88.632812 28.039062 C 87.941406 28.949219 87.4375 30.015625 87.167969 31.132812 C 86.917969 32.136719 86.949219 33.171875 86.730469 34.175781 C 86.636719 34.613281 86.476562 35.070312 86.148438 35.367188 C 85.800781 35.695312 85.3125 35.742188 84.859375 35.867188 C 84.449219 35.976562 84.023438 36.167969 83.789062 36.542969 C 83.476562 37.03125 83.601562 37.59375 83.585938 38.128906 C 83.539062 39.257812 82.765625 40.261719 81.917969 40.949219 C 80.898438 41.765625 79.671875 42.269531 78.523438 42.878906 C 77.578125 43.382812 76.667969 43.964844 75.804688 44.574219 C 74.058594 45.84375 72.46875 47.320312 71.101562 49 C 68.382812 52.324219 66.480469 56.308594 65.742188 60.542969 C 65.664062 60.953125 65.617188 61.359375 65.570312 61.769531 C 64.625 61.878906 63.871094 62.488281 63.320312 63.273438 C 62.597656 64.292969 62.410156 65.515625 62.109375 66.710938 C 61.953125 67.351562 61.78125 67.996094 61.433594 68.558594 C 61.136719 69.0625 60.742188 69.484375 60.316406 69.878906 C 59.46875 70.648438 58.480469 71.257812 57.644531 72.058594 C 55.820312 73.800781 55.335938 76.371094 53.746094 78.269531 C 53.023438 79.148438 52.046875 79.949219 50.871094 80.042969 C 50.179688 80.089844 49.5 79.886719 48.808594 79.824219 C 48.261719 79.777344 47.710938 79.855469 47.207031 80.074219 C 46.230469 80.484375 45.460938 81.328125 45.117188 82.316406 C 44.738281 83.433594 45.132812 84.546875 45.351562 85.644531 C 45.445312 86.144531 45.554688 86.726562 45.320312 87.210938 C 45.101562 87.683594 44.582031 87.871094 44.125 88.074219 C 43.714844 88.261719 43.277344 88.4375 42.976562 88.796875 C 42.820312 88.984375 42.710938 89.1875 42.648438 89.425781 C 42.570312 89.753906 42.632812 90.128906 42.472656 90.445312 C 42.253906 90.914062 41.53125 91.007812 41.089844 91.195312 C 40.574219 91.417969 40.085938 91.699219 39.644531 92.042969 C 38.78125 92.71875 38.105469 93.613281 37.664062 94.617188 C 37.445312 95.132812 37.269531 95.667969 37.191406 96.234375 C 37.113281 96.8125 37.160156 97.363281 37.160156 97.941406 C 37.144531 99.214844 35.636719 98.929688 34.753906 98.945312 C 32.175781 98.960938 30.480469 101.109375 29.898438 103.433594 C 29.238281 106.085938 29.425781 109.015625 30.085938 111.652344 C 30.257812 112.328125 30.480469 112.988281 30.714844 113.644531 C 30.746094 113.738281 30.792969 113.800781 30.855469 113.847656 C 31 113.957031 31.21875 113.957031 31.390625 113.816406 C 33.214844 112.28125 35.054688 110.742188 37.113281 109.519531 C 38.449219 108.71875 39.910156 108.140625 41.199219 107.324219 C 41.8125 106.929688 42.394531 106.492188 42.914062 105.941406 C 43.199219 105.644531 43.449219 105.332031 43.699219 105.015625 C 44.1875 104.390625 44.644531 103.746094 45.117188 103.101562 C 45.855469 102.113281 46.578125 101.109375 47.316406 100.121094 C 47.316406 100.121094 47.316406 100.105469 47.332031 100.105469 C 47.363281 100.058594 47.394531 100.011719 47.425781 99.980469 C 48.417969 98.648438 49.40625 97.300781 50.398438 95.964844 C 50.980469 95.179688 51.5625 94.398438 52.144531 93.613281 C 52.160156 93.597656 52.175781 93.582031 52.175781 93.566406 C 55.160156 89.535156 58.132812 85.488281 61.121094 81.457031 C 62.800781 79.179688 64.484375 76.90625 66.167969 74.632812 C 67.769531 72.449219 69.375 70.285156 70.976562 68.105469 C 71.777344 67.007812 72.597656 65.910156 73.398438 64.8125 C 76.117188 61.140625 78.820312 57.46875 81.542969 53.78125 C 82.265625 52.875 82.941406 51.933594 83.585938 50.976562 C 85.675781 47.886719 87.484375 44.605469 89.621094 41.53125 C 89.730469 41.359375 89.859375 41.203125 89.96875 41.03125 C 92.230469 37.828125 94.683594 34.769531 97.183594 31.757812 C 97.65625 31.195312 98.125 30.613281 98.597656 30.046875 C 100.328125 27.960938 102.074219 25.890625 103.785156 23.789062 C 103.800781 23.773438 103.800781 23.773438 103.800781 23.757812 C 104.007812 23.585938 104.039062 23.414062 103.929688 23.242188 Z M 103.929688 23.242188 "/><g clip-rule="nonzero" clip-path="url(#5c5066bfff)"><path style=" stroke:none;fill-rule:nonzero;fill:#cf6c17;fill-opacity:1;" d="M 139.726562 32.136719 C 139.144531 29.59375 138.121094 27.113281 136.660156 24.949219 C 136.0625 24.070312 135.402344 23.257812 134.648438 22.519531 C 134.519531 22.394531 134.378906 22.269531 134.238281 22.140625 C 134.144531 22.0625 134.050781 22.03125 133.953125 22.03125 C 133.828125 22.03125 133.71875 22.09375 133.625 22.21875 C 133.027344 23.160156 132.429688 24.101562 131.832031 25.042969 C 127.492188 31.820312 122.949219 38.488281 118.3125 45.09375 C 113 52.667969 107.542969 60.152344 102.058594 67.605469 C 96.789062 74.742188 91.507812 81.863281 86.210938 88.984375 C 85.832031 89.488281 85.457031 89.988281 85.078125 90.507812 C 79.609375 97.847656 74.121094 105.191406 68.632812 112.53125 C 68.601562 112.578125 68.554688 112.625 68.523438 112.671875 C 68.257812 113.035156 67.988281 113.394531 67.707031 113.753906 C 63.996094 118.710938 60.285156 123.683594 56.578125 128.640625 C 54.484375 131.433594 52.410156 134.226562 50.320312 137.019531 C 49.597656 137.992188 48.855469 138.964844 48.132812 139.9375 C 48.085938 140.015625 48.054688 140.078125 48.054688 140.140625 C 47.835938 140.769531 47.632812 141.441406 47.550781 142.117188 C 47.488281 142.605469 47.503906 143.089844 47.632812 143.578125 C 47.757812 144.015625 47.976562 144.40625 48.277344 144.753906 C 48.777344 145.316406 49.453125 145.757812 50.128906 146.054688 C 51.386719 146.621094 52.773438 146.886719 54.125 147.121094 C 55.617188 147.371094 57.109375 147.53125 58.621094 147.59375 C 64.78125 147.859375 70.992188 146.574219 76.683594 144.234375 C 87.640625 139.734375 96.742188 131.558594 104.414062 122.710938 C 112.054688 113.910156 118.359375 104.011719 123.578125 93.613281 C 128.925781 82.976562 133.277344 71.777344 136.660156 60.371094 C 138.53125 54.066406 139.976562 47.585938 140.242188 41 C 140.386719 38.050781 140.386719 35.003906 139.726562 32.136719 Z M 139.726562 32.136719 "/></g><path style=" stroke:none;fill-rule:nonzero;fill:#e48d2c;fill-opacity:1;" d="M 131.816406 25.042969 C 131.769531 24.480469 131.707031 23.914062 131.597656 23.351562 C 131.597656 23.304688 131.597656 23.257812 131.582031 23.226562 L 131.582031 23.210938 C 131.535156 22.972656 131.359375 22.894531 131.1875 22.925781 C 131.09375 22.925781 131 22.957031 130.90625 23.035156 C 127.523438 26.125 124.648438 29.71875 121.929688 33.40625 C 121.882812 33.46875 121.835938 33.53125 121.785156 33.59375 C 118.832031 37.609375 115.953125 41.703125 113.046875 45.75 C 112.824219 46.066406 112.605469 46.378906 112.371094 46.691406 C 108.675781 51.839844 104.996094 56.96875 101.300781 62.113281 C 99.304688 64.90625 97.292969 67.683594 95.296875 70.457031 C 95.265625 70.488281 95.25 70.535156 95.21875 70.570312 C 92.828125 73.863281 90.453125 77.15625 88.066406 80.453125 C 86.367188 82.789062 84.652344 85.125 82.941406 87.464844 C 82.578125 87.964844 82.21875 88.453125 81.839844 88.953125 C 80.378906 90.929688 78.914062 92.890625 77.453125 94.867188 C 74.386719 98.992188 71.292969 103.085938 68.148438 107.167969 C 67.1875 108.421875 66.214844 109.675781 65.238281 110.929688 C 65.207031 110.976562 65.160156 111.027344 65.128906 111.074219 C 64.167969 112.296875 63.210938 113.535156 62.25 114.757812 C 61.183594 116.125 60.113281 117.488281 59.027344 118.835938 C 57.597656 120.640625 56.167969 122.460938 54.785156 124.328125 C 50.886719 129.597656 47.457031 135.183594 45.601562 141.550781 C 45.289062 142.621094 45.035156 143.6875 44.832031 144.785156 C 44.816406 144.847656 44.816406 144.910156 44.832031 144.972656 C 44.847656 145.066406 44.878906 145.160156 44.957031 145.222656 C 45.902344 144.25 46.75 143.199219 47.550781 142.117188 C 47.488281 142.605469 47.503906 143.089844 47.632812 143.578125 C 47.757812 144.015625 47.976562 144.40625 48.277344 144.753906 C 56.152344 142.699219 61.9375 136.0625 66.449219 129.519531 C 72.359375 120.972656 77.941406 112.1875 83.789062 103.605469 C 84.558594 102.492188 85.328125 101.363281 86.101562 100.25 C 87.828125 97.753906 89.589844 95.261719 91.367188 92.796875 C 94.96875 87.792969 98.628906 82.835938 102.386719 77.941406 C 108.644531 69.753906 114.679688 61.4375 120.058594 52.636719 C 122.699219 48.324219 125.214844 43.914062 127.589844 39.445312 C 128.71875 37.3125 129.976562 35.179688 130.796875 32.902344 C 131.519531 30.878906 131.863281 28.714844 131.863281 26.566406 L 131.863281 26.332031 C 131.878906 25.890625 131.863281 25.46875 131.816406 25.042969 Z M 131.816406 25.042969 "/><path style=" stroke:none;fill-rule:nonzero;fill:#db5716;fill-opacity:1;" d="M 137.195312 6.722656 C 135.386719 4.414062 132.730469 2.925781 130.136719 1.65625 C 128.78125 0.980469 127.351562 0.398438 125.84375 0.195312 C 124.429688 0.0078125 123.042969 0.226562 121.738281 0.792969 C 120.324219 1.402344 119.097656 2.375 117.984375 3.410156 C 117.179688 4.164062 116.394531 4.949219 115.65625 5.765625 C 115.261719 6.1875 114.886719 6.613281 114.507812 7.050781 C 114.460938 7.113281 114.414062 7.160156 114.367188 7.222656 C 114.351562 7.238281 114.335938 7.253906 114.335938 7.269531 C 114.320312 7.285156 114.320312 7.285156 114.304688 7.300781 C 113.453125 8.480469 112.589844 9.640625 111.726562 10.816406 C 108.910156 14.675781 106.082031 18.535156 103.269531 22.378906 C 101.207031 25.1875 99.164062 28.007812 97.105469 30.816406 C 96.886719 31.117188 96.664062 31.414062 96.445312 31.726562 C 94.273438 34.707031 92.089844 37.671875 89.921875 40.652344 C 87.390625 44.105469 84.875 47.570312 82.34375 51.023438 C 81.574219 52.074219 80.816406 53.109375 80.046875 54.160156 C 77.675781 57.40625 75.300781 60.652344 72.941406 63.902344 C 70.285156 67.539062 67.613281 71.195312 64.957031 74.835938 C 64.28125 75.746094 63.621094 76.65625 62.960938 77.582031 C 62.3125 78.476562 61.652344 79.367188 61.007812 80.246094 C 57.707031 84.75 54.421875 89.265625 51.121094 93.769531 C 49.816406 95.558594 48.496094 97.363281 47.191406 99.148438 C 46.75 99.746094 46.308594 100.34375 45.886719 100.9375 C 44.816406 102.398438 43.761719 103.855469 42.695312 105.300781 C 42.207031 105.957031 41.734375 106.617188 41.25 107.277344 C 37.238281 112.796875 33.199219 118.304688 29.03125 123.683594 C 28.9375 123.808594 28.828125 123.9375 28.734375 124.078125 C 28.246094 124.703125 27.757812 125.316406 27.273438 125.945312 C 27.035156 126.242188 26.800781 126.539062 26.566406 126.839844 C 26.503906 126.871094 26.453125 126.917969 26.40625 126.980469 C 26.390625 127.011719 26.375 127.042969 26.34375 127.074219 C 26.140625 127.402344 25.9375 127.746094 25.730469 128.09375 C 24.347656 130.414062 23.058594 132.847656 22.683594 135.542969 C 22.460938 137.207031 22.585938 138.917969 22.964844 140.546875 C 23.296875 142.023438 23.890625 143.386719 25.007812 144.453125 C 26.125 145.539062 27.523438 146.351562 28.890625 147.089844 C 30.289062 147.859375 31.785156 148.550781 33.308594 149.035156 C 36.28125 149.992188 39.347656 149.347656 41.957031 147.703125 C 43.070312 146.996094 44.078125 146.132812 44.988281 145.191406 C 45.933594 144.21875 46.78125 143.167969 47.582031 142.085938 C 48.054688 141.457031 48.511719 140.832031 48.96875 140.203125 C 51.6875 136.707031 54.375 133.191406 57.0625 129.675781 C 60.082031 125.738281 63.085938 121.769531 66.070312 117.800781 C 67.09375 116.453125 68.101562 115.105469 69.121094 113.753906 C 69.324219 113.472656 69.546875 113.191406 69.75 112.90625 C 74.214844 106.945312 78.648438 100.96875 83.050781 94.960938 C 84.480469 93.015625 85.910156 91.054688 87.34375 89.109375 C 91.476562 83.433594 95.597656 77.753906 99.699219 72.042969 C 105.21875 64.371094 110.6875 56.667969 116.144531 48.953125 C 121.425781 41.484375 126.675781 34 131.910156 26.519531 C 132.101562 26.253906 132.289062 25.984375 132.476562 25.71875 C 133.152344 24.746094 133.828125 23.773438 134.519531 22.800781 C 134.582031 22.691406 134.632812 22.597656 134.695312 22.488281 C 135.464844 21.152344 136.21875 19.820312 136.988281 18.488281 C 137.726562 17.183594 138.46875 15.851562 138.890625 14.410156 C 139.675781 11.679688 138.953125 8.949219 137.195312 6.722656 Z M 137.195312 6.722656 "/><path style=" stroke:none;fill-rule:nonzero;fill:#a53220;fill-opacity:1;" d="M 100.09375 44.777344 C 95.203125 44.777344 91.242188 45.15625 91.242188 45.625 C 91.242188 46.097656 95.203125 46.472656 100.09375 46.472656 C 104.980469 46.472656 108.941406 46.097656 108.941406 45.625 C 108.941406 45.15625 104.980469 44.777344 100.09375 44.777344 Z M 100.09375 44.777344 "/><path style=" stroke:none;fill-rule:nonzero;fill:#a53220;fill-opacity:1;" d="M 113.171875 27.695312 C 108.28125 27.695312 104.320312 28.070312 104.320312 28.542969 C 104.320312 29.011719 108.28125 29.390625 113.171875 29.390625 C 118.0625 29.390625 122.023438 29.011719 122.023438 28.542969 C 122.023438 28.070312 118.0625 27.695312 113.171875 27.695312 Z M 113.171875 27.695312 "/><path style=" stroke:none;fill-rule:nonzero;fill:#a53220;fill-opacity:1;" d="M 122.699219 15.191406 C 117.808594 15.191406 113.847656 15.570312 113.847656 16.039062 C 113.847656 16.511719 117.808594 16.886719 122.699219 16.886719 C 127.589844 16.886719 131.550781 16.511719 131.550781 16.039062 C 131.550781 15.570312 127.589844 15.191406 122.699219 15.191406 Z M 122.699219 15.191406 "/><path style=" stroke:none;fill-rule:nonzero;fill:#a53220;fill-opacity:1;" d="M 87.78125 63.164062 C 82.894531 63.164062 78.929688 63.539062 78.929688 64.011719 C 78.929688 64.480469 82.894531 64.859375 87.78125 64.859375 C 92.671875 64.859375 96.632812 64.480469 96.632812 64.011719 C 96.632812 63.539062 92.671875 63.164062 87.78125 63.164062 Z M 87.78125 63.164062 "/><path style=" stroke:none;fill-rule:nonzero;fill:#a53220;fill-opacity:1;" d="M 73.128906 82.175781 C 68.242188 82.175781 64.28125 82.554688 64.28125 83.023438 C 64.28125 83.496094 68.242188 83.871094 73.128906 83.871094 C 78.019531 83.871094 81.980469 83.496094 81.980469 83.023438 C 81.980469 82.554688 78.019531 82.175781 73.128906 82.175781 Z M 73.128906 82.175781 "/><path style=" stroke:none;fill-rule:nonzero;fill:#a53220;fill-opacity:1;" d="M 59.769531 100.074219 C 54.878906 100.074219 50.917969 100.453125 50.917969 100.921875 C 50.917969 101.394531 54.878906 101.769531 59.769531 101.769531 C 64.65625 101.769531 68.617188 101.394531 68.617188 100.921875 C 68.632812 100.453125 64.65625 100.074219 59.769531 100.074219 Z M 59.769531 100.074219 "/><path style=" stroke:none;fill-rule:nonzero;fill:#a53220;fill-opacity:1;" d="M 46.011719 119.777344 C 41.121094 119.777344 37.160156 120.15625 37.160156 120.625 C 37.160156 121.097656 41.121094 121.472656 46.011719 121.472656 C 50.902344 121.472656 54.863281 121.097656 54.863281 120.625 C 54.863281 120.15625 50.902344 119.777344 46.011719 119.777344 Z M 46.011719 119.777344 "/><path style=" stroke:none;fill-rule:nonzero;fill:#a53220;fill-opacity:1;" d="M 35.511719 136.515625 C 30.621094 136.515625 26.660156 136.894531 26.660156 137.363281 C 26.660156 137.835938 30.621094 138.210938 35.511719 138.210938 C 40.398438 138.210938 44.359375 137.835938 44.359375 137.363281 C 44.359375 136.894531 40.398438 136.515625 35.511719 136.515625 Z M 35.511719 136.515625 "/><path style=" stroke:none;fill-rule:nonzero;fill:#ffd521;fill-opacity:1;" d="M 121.945312 33.40625 C 121.898438 31.867188 121.785156 30.316406 121.628906 28.777344 C 121.613281 28.605469 121.597656 28.433594 121.566406 28.261719 C 121.410156 26.863281 121.191406 25.46875 120.953125 24.101562 C 120.449219 21.34375 119.523438 18.300781 117.070312 16.683594 C 116.914062 16.574219 116.742188 16.480469 116.566406 16.386719 C 115.84375 16.007812 115.042969 15.804688 114.257812 15.789062 C 112.339844 15.742188 110.453125 16.699219 109.746094 18.644531 C 109.304688 19.867188 109.429688 21.328125 110.246094 22.363281 C 111.003906 23.335938 112.277344 23.898438 113.503906 23.945312 C 113.894531 23.960938 114.289062 23.898438 114.648438 23.789062 C 114.808594 25.089844 114.886719 26.410156 114.902344 27.710938 C 114.917969 28.214844 114.917969 28.699219 114.902344 29.203125 C 114.902344 29.265625 114.902344 29.3125 114.902344 29.375 C 114.886719 30.300781 114.855469 31.210938 114.824219 32.136719 C 114.777344 33.042969 114.742188 33.984375 114.476562 34.863281 C 114.257812 35.632812 113.816406 36.386719 113.125 36.824219 C 112.386719 37.3125 111.519531 37.265625 110.75 36.917969 C 109.917969 36.542969 109.257812 35.898438 108.582031 35.320312 C 107.953125 34.769531 107.277344 34.269531 106.539062 33.84375 C 103.800781 32.292969 100.5625 31.742188 97.449219 31.726562 C 97.386719 31.726562 97.339844 31.726562 97.277344 31.726562 C 97.167969 31.726562 97.058594 31.726562 96.933594 31.726562 C 96.773438 31.726562 96.617188 31.726562 96.476562 31.742188 C 94.933594 31.804688 93.363281 32.054688 92.011719 32.839844 C 90.738281 33.578125 89.636719 34.800781 89.324219 36.277344 C 89.023438 37.734375 89.449219 39.226562 89.953125 40.667969 C 89.984375 40.777344 90.03125 40.886719 90.078125 41 C 90.109375 41.109375 90.15625 41.21875 90.1875 41.328125 C 90.3125 41.6875 90.4375 42.035156 90.566406 42.378906 C 90.910156 43.382812 91.242188 44.402344 91.585938 45.40625 C 91.648438 45.578125 91.695312 45.734375 91.761719 45.910156 C 92.089844 46.898438 92.421875 47.867188 92.75 48.859375 C 93.457031 50.675781 94.070312 52.527344 94.480469 54.425781 C 94.699219 55.429688 94.855469 56.433594 94.917969 57.453125 C 94.953125 57.910156 94.96875 58.347656 94.96875 58.804688 C 94.96875 59.101562 95.078125 59.792969 94.714844 59.933594 C 94.085938 60.152344 93.300781 59.382812 92.90625 59.023438 C 92.277344 58.425781 91.710938 57.753906 91.195312 57.046875 C 90.171875 55.679688 89.246094 54.207031 87.988281 53.046875 C 86.839844 51.980469 85.425781 51.101562 83.835938 50.960938 C 83.789062 50.960938 83.742188 50.960938 83.695312 50.945312 C 83.664062 50.945312 83.617188 50.945312 83.585938 50.945312 C 83.175781 50.929688 82.765625 50.960938 82.390625 51.054688 C 81.164062 51.320312 80.0625 52.042969 79.152344 52.890625 C 77.800781 54.128906 76.777344 55.695312 75.316406 56.8125 C 74.074219 57.753906 72.546875 58.519531 72.1875 60.167969 C 71.902344 61.46875 72.359375 62.757812 73.003906 63.902344 C 73.160156 64.199219 73.335938 64.480469 73.523438 64.75 C 73.554688 64.796875 73.585938 64.859375 73.632812 64.90625 C 73.648438 64.921875 73.648438 64.9375 73.664062 64.953125 C 74.625 66.378906 75.675781 67.761719 76.667969 69.171875 C 78.632812 71.964844 80.488281 74.976562 81.054688 78.410156 C 81.148438 78.976562 81.351562 80.402344 80.347656 80.042969 C 79.96875 79.902344 79.625 79.636719 79.277344 79.414062 C 78.882812 79.179688 78.492188 78.929688 78.113281 78.679688 C 76.589844 77.722656 75.0625 76.765625 73.429688 75.996094 C 71.339844 75.023438 68.949219 74.300781 66.636719 74.523438 C 66.527344 74.539062 66.402344 74.539062 66.292969 74.554688 C 65.867188 74.617188 65.441406 74.695312 65.019531 74.835938 C 64.6875 74.929688 64.375 75.054688 64.058594 75.195312 C 62.722656 75.808594 61.652344 76.921875 61.246094 78.347656 C 61.074219 78.976562 61.023438 79.621094 61.058594 80.246094 C 61.089844 80.625 61.152344 81.015625 61.230469 81.390625 C 61.261719 81.519531 61.292969 81.628906 61.324219 81.753906 C 61.480469 82.332031 61.6875 82.882812 61.921875 83.417969 C 63.398438 86.789062 65.773438 89.691406 67.375 93 C 67.722656 93.722656 68.035156 94.476562 68.304688 95.246094 C 68.335938 95.324219 68.367188 95.417969 68.398438 95.496094 C 68.492188 95.761719 68.871094 95.902344 69.074219 95.667969 C 69.75 94.914062 70.410156 94.175781 71.085938 93.425781 C 71.371094 93.109375 71.746094 92.78125 72.03125 92.390625 C 72.265625 92.074219 72.421875 91.714844 72.390625 91.324219 C 72.359375 90.929688 72.140625 90.554688 71.96875 90.207031 C 71.730469 89.722656 71.496094 89.234375 71.257812 88.765625 C 70.804688 87.855469 70.363281 86.929688 69.90625 86.019531 C 69.546875 85.28125 69.105469 84.53125 68.839844 83.746094 C 68.792969 83.621094 68.761719 83.480469 68.730469 83.351562 C 68.648438 83.023438 68.632812 82.648438 68.710938 82.300781 C 68.808594 81.863281 69.058594 81.472656 69.515625 81.28125 C 70.191406 81 70.867188 81.722656 71.355469 82.207031 C 71.417969 82.269531 71.480469 82.332031 71.542969 82.394531 C 72.0625 82.882812 72.582031 83.382812 73.097656 83.871094 C 73.242188 83.996094 73.367188 84.121094 73.507812 84.246094 C 74.78125 85.394531 76.164062 86.332031 77.800781 86.898438 C 79.371094 87.464844 81.101562 87.667969 82.765625 87.511719 C 82.863281 87.496094 82.957031 87.496094 83.050781 87.480469 C 84.527344 87.304688 86.117188 86.867188 87.167969 85.785156 C 88.332031 84.59375 88.488281 82.851562 88.300781 81.28125 C 88.269531 81.015625 88.222656 80.75 88.175781 80.46875 C 87.640625 77.519531 86.195312 74.851562 84.511719 72.386719 C 83.554688 70.992188 82.53125 69.644531 81.527344 68.261719 C 80.503906 66.882812 79.324219 65.453125 78.757812 63.808594 C 78.253906 62.363281 78.285156 60.511719 79.542969 59.460938 C 80.644531 58.550781 82.28125 58.691406 83.507812 59.242188 C 84.984375 59.917969 85.972656 61.21875 86.792969 62.566406 C 86.917969 62.773438 87.027344 62.960938 87.136719 63.164062 C 87.453125 63.730469 87.765625 64.292969 88.082031 64.84375 C 88.488281 65.546875 88.914062 66.253906 89.402344 66.914062 C 90.40625 68.246094 91.632812 69.421875 93.207031 70.066406 C 93.882812 70.347656 94.605469 70.519531 95.34375 70.570312 C 96.226562 70.617188 97.121094 70.457031 97.9375 70.066406 C 99.242188 69.453125 100.25 68.277344 100.847656 66.976562 C 101.554688 65.421875 101.632812 63.777344 101.429688 62.097656 C 101.429688 62.050781 101.414062 61.988281 101.414062 61.941406 C 101.285156 60.96875 101.082031 59.996094 100.910156 59.023438 C 100.296875 55.601562 99.367188 52.230469 98.160156 48.96875 C 97.84375 48.105469 97.496094 47.242188 97.136719 46.378906 C 96.917969 45.859375 96.679688 45.34375 96.445312 44.824219 C 96.367188 44.636719 96.273438 44.449219 96.175781 44.261719 C 95.816406 43.476562 95.359375 42.722656 95.078125 41.890625 C 94.855469 41.25 94.777344 40.480469 95.21875 39.898438 C 95.660156 39.304688 96.601562 39.351562 97.261719 39.351562 C 98.03125 39.335938 98.789062 39.414062 99.542969 39.570312 C 101.019531 39.867188 102.417969 40.464844 103.644531 41.3125 C 104.964844 42.222656 105.894531 43.507812 107.054688 44.589844 C 107.277344 44.792969 107.496094 44.984375 107.75 45.15625 C 108.078125 45.390625 108.410156 45.609375 108.769531 45.796875 C 109.398438 46.128906 110.074219 46.363281 110.765625 46.503906 C 111.332031 46.613281 111.914062 46.675781 112.480469 46.660156 C 114.726562 46.644531 116.867188 45.6875 118.40625 43.949219 C 119.460938 42.753906 120.324219 41.34375 121.015625 39.914062 C 121.800781 38.332031 122.070312 36.699219 122.070312 34.925781 C 121.960938 34.457031 121.960938 33.921875 121.945312 33.40625 Z M 121.945312 33.40625 "/><path style=" stroke:none;fill-rule:nonzero;fill:#ffd521;fill-opacity:1;" d="M 61.953125 95.574219 C 61.953125 95.527344 61.9375 95.480469 61.921875 95.449219 C 61.875 95.324219 61.765625 95.230469 61.621094 95.230469 C 61.464844 95.179688 61.308594 95.132812 61.152344 95.070312 C 59.328125 94.476562 57.488281 93.878906 55.585938 93.597656 C 54.578125 93.441406 53.542969 93.378906 52.519531 93.457031 C 52.457031 93.457031 52.410156 93.472656 52.347656 93.472656 C 52.316406 93.472656 52.269531 93.472656 52.238281 93.488281 C 51.84375 93.535156 51.484375 93.628906 51.121094 93.753906 C 50.585938 93.925781 50.082031 94.191406 49.582031 94.523438 C 48.824219 95.023438 48.039062 95.589844 47.597656 96.40625 C 47.160156 97.222656 47.050781 98.195312 47.175781 99.101562 C 47.175781 99.117188 47.175781 99.117188 47.175781 99.132812 C 47.222656 99.449219 47.285156 99.746094 47.378906 100.042969 C 47.566406 100.703125 47.851562 101.347656 48.148438 101.972656 C 48.574219 102.867188 48.953125 103.808594 49.515625 104.625 C 49.722656 104.921875 49.957031 105.175781 50.210938 105.378906 C 50.632812 105.738281 51.136719 105.957031 51.703125 106.132812 C 51.8125 106.164062 51.921875 106.195312 52.03125 106.226562 C 53.179688 106.507812 54.34375 106.679688 55.523438 106.710938 C 55.617188 106.710938 55.726562 106.710938 55.820312 106.726562 C 56.199219 106.726562 56.308594 106.289062 56.105469 106.035156 C 55.882812 105.753906 55.648438 105.488281 55.429688 105.207031 C 54.707031 104.328125 54 103.417969 53.496094 102.429688 C 53.386719 102.195312 53.210938 101.832031 53.132812 101.472656 C 53.054688 101.109375 53.054688 100.765625 53.289062 100.5625 C 53.714844 100.136719 54.707031 100.4375 55.238281 100.390625 C 55.523438 100.359375 55.773438 100.28125 56.011719 100.171875 C 56.105469 100.105469 56.214844 100.058594 56.308594 99.980469 C 56.511719 99.839844 56.6875 99.667969 56.875 99.496094 C 57.363281 99.007812 57.816406 98.492188 58.289062 97.988281 C 58.777344 97.488281 59.25 97.046875 59.878906 96.734375 C 60.445312 96.453125 61.042969 96.25 61.636719 96.058594 C 61.78125 96.042969 61.890625 95.964844 61.9375 95.839844 C 61.96875 95.777344 61.984375 95.714844 61.96875 95.636719 L 61.96875 95.605469 C 61.96875 95.589844 61.953125 95.589844 61.953125 95.574219 Z M 61.953125 95.574219 "/><path style=" stroke:none;fill-rule:nonzero;fill:#72be16;fill-opacity:1;" d="M 90.488281 90.128906 C 89.589844 89.519531 88.378906 89.296875 87.296875 89.125 C 87.199219 89.109375 87.089844 89.09375 86.996094 89.078125 C 86.730469 89.03125 86.460938 89 86.195312 88.96875 C 85.21875 88.859375 84.261719 88.8125 83.285156 88.84375 C 82.800781 88.859375 82.328125 88.890625 81.839844 88.9375 C 79.78125 89.15625 77.753906 89.660156 75.835938 90.429688 C 74.484375 90.960938 73.195312 91.621094 71.953125 92.375 C 71.023438 92.953125 70.144531 93.582031 69.292969 94.273438 C 68.933594 94.570312 68.570312 94.882812 68.226562 95.210938 C 67.582031 95.824219 67 96.5 66.511719 97.253906 C 66.386719 97.457031 66.246094 97.675781 66.132812 97.894531 C 65.726562 98.632812 65.394531 99.417969 65.128906 100.21875 C 65.035156 100.5 64.941406 100.78125 64.859375 101.0625 C 64.8125 101.238281 64.765625 101.410156 64.71875 101.582031 C 64.59375 102.082031 64.484375 102.585938 64.375 103.085938 C 63.886719 104.5 63.445312 105.972656 63.210938 107.464844 C 63.117188 108.078125 63.085938 108.71875 63.398438 109.269531 C 63.714844 109.832031 64.34375 110.210938 64.84375 110.585938 C 64.972656 110.679688 65.113281 110.773438 65.238281 110.867188 C 65.285156 110.898438 65.332031 110.929688 65.363281 110.960938 C 65.695312 111.199219 66.023438 111.417969 66.371094 111.621094 C 66.984375 111.980469 67.613281 112.296875 68.289062 112.53125 C 68.351562 112.5625 68.429688 112.578125 68.492188 112.59375 C 68.554688 112.609375 68.632812 112.640625 68.695312 112.65625 C 69.027344 112.75 69.359375 112.828125 69.6875 112.859375 C 70.488281 112.988281 71.324219 112.96875 72.140625 112.84375 C 74.765625 112.46875 77.1875 111.027344 79.152344 109.300781 C 80.171875 108.40625 81.039062 107.371094 81.746094 106.210938 C 82.4375 105.097656 83.019531 103.902344 83.726562 102.804688 C 84.386719 101.785156 85.1875 100.953125 86.085938 100.171875 C 86.210938 100.058594 86.351562 99.933594 86.492188 99.824219 C 87.5625 98.929688 88.519531 97.988281 89.292969 96.828125 C 90.03125 95.746094 90.707031 94.523438 91.179688 93.300781 C 91.257812 93.109375 91.304688 92.921875 91.351562 92.71875 C 91.617188 91.777344 91.414062 90.773438 90.488281 90.128906 Z M 90.488281 90.128906 "/><path style=" stroke:none;fill-rule:nonzero;fill:#72be16;fill-opacity:1;" d="M 68.273438 104.5 C 68.242188 103.417969 68.148438 102.320312 67.878906 101.269531 C 67.816406 101.015625 67.753906 100.78125 67.660156 100.546875 C 67.472656 99.980469 67.21875 99.433594 66.875 98.929688 C 66.652344 98.585938 66.386719 98.257812 66.148438 97.925781 C 65.742188 97.378906 65.363281 96.828125 65.160156 96.152344 C 64.8125 94.976562 64.75 93.675781 64.71875 92.453125 C 64.703125 92.042969 64.183594 91.917969 63.964844 92.246094 C 63.226562 93.378906 62.21875 94.257812 61.167969 95.070312 C 59.625 96.265625 57.945312 97.347656 56.84375 98.976562 C 56.640625 99.292969 56.449219 99.621094 56.308594 99.964844 C 56.277344 100.027344 56.261719 100.074219 56.230469 100.136719 C 56.027344 100.625 55.882812 101.144531 55.773438 101.660156 C 55.617188 102.382812 55.539062 103.136719 55.476562 103.855469 C 55.445312 104.3125 55.429688 104.75 55.445312 105.207031 C 55.445312 105.707031 55.476562 106.210938 55.539062 106.710938 C 55.617188 107.402344 55.742188 108.109375 55.917969 108.78125 C 55.964844 108.96875 56.027344 109.160156 56.074219 109.347656 C 56.402344 110.429688 56.875 111.464844 57.457031 112.421875 C 57.613281 112.671875 57.769531 112.921875 57.960938 113.175781 C 58.054688 113.316406 58.148438 113.457031 58.257812 113.582031 C 58.273438 113.644531 58.320312 113.691406 58.382812 113.738281 C 58.445312 113.800781 58.511719 113.832031 58.574219 113.847656 C 59.3125 114.257812 60.066406 114.789062 60.914062 114.867188 C 61.371094 114.914062 61.828125 114.851562 62.25 114.726562 C 62.753906 114.585938 63.257812 114.335938 63.699219 114.070312 C 64.734375 113.457031 65.664062 112.609375 66.386719 111.636719 C 66.542969 111.417969 66.699219 111.199219 66.84375 110.960938 C 66.984375 110.726562 67.125 110.492188 67.25 110.242188 C 67.753906 109.238281 68.019531 108.1875 68.164062 107.121094 C 68.273438 106.273438 68.289062 105.394531 68.273438 104.5 Z M 68.273438 104.5 "/><path style=" stroke:none;fill-rule:nonzero;fill:#72be16;fill-opacity:1;" d="M 69.136719 113.957031 C 69.121094 113.894531 69.105469 113.832031 69.089844 113.769531 C 68.996094 113.410156 68.886719 113.050781 68.730469 112.703125 C 68.695312 112.625 68.664062 112.5625 68.632812 112.5 C 68.429688 112.078125 68.148438 111.683594 67.769531 111.402344 C 67.488281 111.199219 67.171875 111.058594 66.859375 110.992188 C 66.386719 110.882812 65.882812 110.898438 65.394531 110.992188 C 65.316406 111.011719 65.222656 111.027344 65.144531 111.058594 C 64.957031 111.105469 64.765625 111.167969 64.578125 111.230469 C 63.523438 111.621094 62.550781 112.203125 61.667969 112.890625 C 60.492188 112.25 58.964844 111.558594 57.722656 112.25 C 57.628906 112.296875 57.550781 112.359375 57.457031 112.421875 C 57.441406 112.4375 57.425781 112.4375 57.410156 112.453125 C 56.71875 112.988281 56.339844 113.863281 56.027344 114.648438 C 55.664062 115.527344 55.398438 116.421875 55.160156 117.347656 C 54.910156 118.351562 54.707031 119.371094 54.609375 120.421875 C 54.59375 120.5625 54.578125 120.703125 54.578125 120.828125 C 54.546875 121.144531 54.546875 121.472656 54.546875 121.800781 C 54.546875 122.242188 54.5625 122.695312 54.609375 123.136719 C 54.660156 123.527344 54.722656 123.9375 54.800781 124.3125 C 54.910156 124.832031 55.082031 125.347656 55.289062 125.851562 C 55.648438 126.726562 56.121094 127.574219 56.511719 128.4375 C 56.542969 128.5 56.5625 128.546875 56.59375 128.609375 C 56.75 128.972656 56.90625 129.316406 57.046875 129.675781 C 57.738281 131.355469 58.257812 133.097656 58.621094 134.871094 C 58.699219 135.277344 59.28125 135.214844 59.40625 134.871094 C 59.769531 133.773438 60.378906 132.785156 61.042969 131.859375 C 61.75 130.855469 62.488281 129.882812 63.226562 128.910156 C 64.011719 127.890625 64.796875 126.886719 65.601562 125.898438 C 66.324219 125.003906 67.078125 124.109375 67.691406 123.121094 C 68.824219 121.332031 69.453125 119.246094 69.5 117.128906 C 69.53125 116.078125 69.40625 114.996094 69.136719 113.957031 Z M 69.136719 113.957031 "/><path style=" stroke:none;fill-rule:nonzero;fill:#72be16;fill-opacity:1;" d="M 57.976562 113.300781 C 57.976562 113.269531 57.960938 113.222656 57.960938 113.175781 C 57.898438 112.859375 57.816406 112.5625 57.722656 112.25 C 57.378906 111.183594 56.8125 110.195312 56.074219 109.347656 C 55.980469 109.238281 55.882812 109.128906 55.773438 109.03125 C 54.609375 107.839844 53.148438 106.929688 51.703125 106.132812 C 51.671875 106.117188 51.625 106.085938 51.59375 106.066406 C 51.136719 105.816406 50.679688 105.582031 50.210938 105.378906 C 49.0625 104.875 47.851562 104.546875 46.5625 104.546875 C 45.839844 104.546875 45.117188 104.625 44.425781 104.78125 C 44.203125 104.828125 43.984375 104.890625 43.765625 104.953125 C 43.402344 105.046875 43.054688 105.160156 42.695312 105.300781 C 42.300781 105.441406 41.894531 105.613281 41.515625 105.785156 C 38.308594 107.230469 35.496094 109.519531 32.933594 111.886719 C 32.257812 112.515625 31.578125 113.160156 30.917969 113.800781 C 30.164062 114.539062 29.425781 115.292969 28.6875 116.03125 C 28.027344 116.703125 27.367188 117.378906 26.675781 118.023438 C 26 118.632812 25.195312 119.214844 24.238281 119.199219 C 23.828125 119.199219 23.6875 119.761719 24.035156 119.953125 C 25.839844 121.003906 27.382812 122.445312 29.03125 123.699219 C 29.113281 123.761719 29.175781 123.808594 29.253906 123.875 C 29.363281 123.953125 29.488281 124.046875 29.613281 124.125 C 31.421875 125.425781 33.480469 126.335938 35.667969 126.824219 C 40.070312 127.828125 44.644531 127.152344 48.730469 125.332031 C 50.808594 124.40625 52.742188 123.199219 54.546875 121.800781 C 54.769531 121.628906 55.003906 121.441406 55.222656 121.269531 C 56.386719 120.4375 57.171875 119.308594 57.597656 117.945312 C 58.070312 116.453125 58.257812 114.851562 57.976562 113.300781 Z M 57.976562 113.300781 "/><path style=" stroke:none;fill-rule:nonzero;fill:#5f990d;fill-opacity:1;" d="M 63.351562 124.847656 C 63.039062 123.308594 62.519531 121.816406 61.8125 120.40625 C 61.78125 120.359375 61.765625 120.328125 61.71875 120.296875 C 61.75 119.277344 61.765625 118.273438 61.796875 117.253906 C 61.828125 116.59375 61.859375 115.933594 61.9375 115.292969 C 61.953125 115.324219 61.96875 115.371094 61.984375 115.402344 C 62.1875 115.792969 62.472656 116.140625 62.722656 116.5 C 62.816406 116.625 62.976562 116.6875 63.132812 116.609375 C 63.257812 116.53125 63.335938 116.34375 63.242188 116.203125 C 63.007812 115.855469 62.738281 115.511719 62.519531 115.136719 C 62.332031 114.804688 62.21875 114.429688 62.125 114.054688 C 62.171875 113.785156 62.234375 113.535156 62.296875 113.285156 C 62.394531 112.921875 61.828125 112.765625 61.734375 113.128906 C 61.417969 114.367188 61.292969 115.621094 61.230469 116.890625 C 60.757812 117.238281 60.414062 117.707031 60.035156 118.148438 C 59.703125 118.539062 59.34375 118.949219 58.839844 119.105469 C 58.683594 119.152344 58.589844 119.308594 58.636719 119.464844 C 58.683594 119.605469 58.839844 119.714844 58.996094 119.667969 C 59.5625 119.480469 60.003906 119.089844 60.378906 118.648438 C 60.648438 118.335938 60.898438 117.976562 61.199219 117.675781 C 61.167969 118.523438 61.167969 119.386719 61.136719 120.234375 C 61.105469 121.285156 61.007812 122.320312 60.867188 123.339844 C 59.34375 123.953125 57.976562 124.894531 56.875 126.101562 C 56.625 126.382812 57.03125 126.789062 57.300781 126.523438 C 58.273438 125.457031 59.453125 124.609375 60.773438 124.03125 C 60.601562 125.160156 60.378906 126.289062 60.128906 127.402344 C 59.816406 128.734375 59.46875 130.054688 59.125 131.371094 C 59.027344 131.734375 59.59375 131.890625 59.6875 131.527344 C 60.300781 129.191406 60.929688 126.839844 61.324219 124.453125 C 61.480469 123.464844 61.605469 122.476562 61.667969 121.488281 C 62.171875 122.617188 62.535156 123.792969 62.785156 125.019531 C 62.847656 125.378906 63.429688 125.222656 63.351562 124.847656 Z M 63.351562 124.847656 "/><path style=" stroke:none;fill-rule:nonzero;fill:#5f990d;fill-opacity:1;" d="M 62.28125 99.542969 C 62.15625 99.464844 61.9375 99.496094 61.875 99.652344 C 61.527344 100.4375 61.246094 101.253906 61.007812 102.082031 C 60.757812 101.738281 60.554688 101.332031 60.398438 100.921875 C 60.160156 100.34375 59.972656 99.746094 59.769531 99.148438 C 59.640625 98.789062 59.074219 98.945312 59.203125 99.308594 C 59.609375 100.5 59.941406 101.832031 60.820312 102.773438 C 60.820312 102.773438 60.820312 102.773438 60.835938 102.773438 C 60.507812 104.234375 60.347656 105.738281 60.414062 107.246094 C 59.671875 106.539062 59.074219 105.691406 58.667969 104.765625 C 58.605469 104.625 58.382812 104.59375 58.257812 104.65625 C 58.101562 104.75 58.085938 104.90625 58.148438 105.0625 C 58.652344 106.179688 59.390625 107.183594 60.332031 107.980469 C 60.363281 108.011719 60.414062 108.027344 60.460938 108.042969 C 60.507812 108.578125 60.570312 109.113281 60.664062 109.644531 C 60.726562 110.019531 61.292969 109.863281 61.230469 109.488281 C 60.789062 106.992188 60.945312 104.421875 61.652344 101.988281 C 61.859375 101.300781 62.109375 100.609375 62.394531 99.949219 C 62.441406 99.792969 62.425781 99.621094 62.28125 99.542969 Z M 62.28125 99.542969 "/><path style=" stroke:none;fill-rule:nonzero;fill:#5f990d;fill-opacity:1;" d="M 86.570312 92.40625 C 85.660156 92.71875 84.75 93.03125 83.867188 93.441406 C 83.003906 93.847656 82.203125 94.367188 81.460938 94.960938 C 81.210938 95.164062 80.960938 95.386719 80.707031 95.589844 C 80.707031 95.324219 80.800781 95.054688 80.914062 94.820312 C 81.085938 94.460938 81.273438 94.128906 81.476562 93.785156 C 81.871094 93.109375 82.3125 92.453125 82.765625 91.824219 C 82.863281 91.699219 82.785156 91.496094 82.65625 91.417969 C 82.515625 91.324219 82.34375 91.402344 82.25 91.527344 C 81.746094 92.214844 81.273438 92.9375 80.847656 93.675781 C 80.457031 94.367188 79.9375 95.148438 80.15625 95.980469 C 80.15625 95.996094 80.171875 96.027344 80.171875 96.042969 C 79.199219 96.90625 78.269531 97.800781 77.265625 98.617188 C 76.542969 99.199219 75.789062 99.746094 74.984375 100.203125 C 74.230469 100.640625 73.429688 100.984375 72.613281 101.332031 C 72.53125 100.546875 73.050781 99.824219 73.398438 99.148438 C 73.804688 98.335938 74.105469 97.441406 73.996094 96.515625 C 73.980469 96.359375 73.871094 96.21875 73.695312 96.21875 C 73.554688 96.21875 73.382812 96.359375 73.398438 96.515625 C 73.507812 97.457031 73.144531 98.351562 72.707031 99.167969 C 72.296875 99.902344 71.871094 100.71875 72.046875 101.566406 C 70.550781 102.210938 69.089844 102.914062 67.832031 103.980469 C 67.691406 104.089844 67.566406 104.21875 67.441406 104.34375 C 67.441406 104.34375 67.421875 104.34375 67.421875 104.34375 C 67.328125 104.375 67.265625 104.453125 67.234375 104.53125 C 66.117188 105.644531 65.238281 106.976562 64.65625 108.453125 C 64.59375 108.59375 64.71875 108.765625 64.859375 108.8125 C 65.035156 108.859375 65.160156 108.75 65.222656 108.609375 C 65.789062 107.199219 66.667969 105.910156 67.753906 104.859375 C 68.679688 104.578125 69.65625 104.75 70.597656 104.890625 C 71.699219 105.0625 72.800781 105.222656 73.902344 105.394531 C 74.058594 105.425781 74.214844 105.347656 74.261719 105.191406 C 74.308594 105.046875 74.214844 104.84375 74.058594 104.828125 C 72.910156 104.65625 71.761719 104.484375 70.597656 104.3125 C 69.9375 104.21875 69.261719 104.109375 68.585938 104.140625 C 69.71875 103.261719 71.007812 102.648438 72.34375 102.082031 C 73.175781 101.722656 74.027344 101.378906 74.828125 100.953125 C 75.628906 100.53125 76.382812 100.027344 77.109375 99.480469 C 77.203125 99.402344 77.296875 99.324219 77.390625 99.261719 C 78.191406 99.496094 79.042969 99.496094 79.875 99.527344 C 80.707031 99.542969 81.558594 99.589844 82.3125 99.980469 C 82.640625 100.15625 82.941406 99.652344 82.609375 99.480469 C 81.148438 98.742188 79.496094 99.101562 77.957031 98.804688 C 79.058594 97.878906 80.109375 96.859375 81.210938 95.917969 C 81.996094 95.246094 82.816406 94.632812 83.742188 94.160156 C 84.683594 93.675781 85.691406 93.347656 86.699219 93 C 87.089844 92.859375 86.933594 92.28125 86.570312 92.40625 Z M 86.570312 92.40625 "/><path style=" stroke:none;fill-rule:nonzero;fill:#5f990d;fill-opacity:1;" d="M 56.183594 113.457031 C 54.675781 113.378906 53.164062 113.316406 51.640625 113.332031 C 50.257812 111.855469 48.574219 110.695312 46.703125 109.925781 C 46.5625 109.863281 46.375 109.988281 46.34375 110.132812 C 46.292969 110.304688 46.40625 110.429688 46.546875 110.492188 C 48.148438 111.152344 49.597656 112.140625 50.839844 113.347656 C 49 113.410156 47.160156 113.597656 45.367188 114.039062 C 44.0625 114.367188 42.835938 114.835938 41.625 115.386719 C 40.699219 115.074219 39.753906 115.011719 38.796875 115.089844 C 37.898438 115.152344 36.941406 115.277344 36.109375 114.851562 C 35.777344 114.679688 35.480469 115.183594 35.808594 115.355469 C 36.671875 115.792969 37.632812 115.761719 38.558594 115.699219 C 39.046875 115.667969 39.535156 115.621094 40.023438 115.667969 C 40.289062 115.683594 40.539062 115.730469 40.792969 115.792969 C 40.667969 115.855469 40.523438 115.917969 40.398438 115.984375 C 39.03125 116.65625 37.664062 117.347656 36.234375 117.894531 C 36.203125 117.894531 36.1875 117.910156 36.15625 117.929688 C 35.949219 118.007812 35.730469 118.085938 35.527344 118.148438 C 33.578125 118.789062 31.53125 119.136719 29.488281 119.183594 C 29.113281 119.183594 29.113281 119.777344 29.488281 119.777344 C 31.3125 119.746094 33.136719 119.480469 34.882812 118.980469 C 35.289062 118.867188 35.683594 118.726562 36.074219 118.585938 C 36.125 119.199219 36.15625 119.808594 35.996094 120.40625 C 35.808594 121.113281 35.429688 121.769531 35.117188 122.429688 C 34.945312 122.773438 35.464844 123.074219 35.621094 122.726562 C 35.964844 122.023438 36.375 121.316406 36.5625 120.5625 C 36.753906 119.839844 36.703125 119.105469 36.640625 118.367188 C 37.726562 117.945312 38.796875 117.441406 39.832031 116.921875 C 41.421875 116.140625 43.007812 115.355469 44.722656 114.851562 C 46.4375 114.351562 48.226562 114.101562 50.003906 114.007812 C 50.980469 113.957031 51.96875 113.941406 52.945312 113.957031 C 53.070312 114.835938 52.945312 115.730469 52.644531 116.578125 C 52.332031 117.425781 51.875 118.210938 51.46875 119.011719 C 51.292969 119.339844 51.796875 119.636719 51.96875 119.308594 C 52.410156 118.445312 52.898438 117.597656 53.226562 116.671875 C 53.542969 115.808594 53.621094 114.882812 53.527344 113.992188 C 54.390625 114.007812 55.269531 114.054688 56.136719 114.101562 C 56.5625 114.070312 56.5625 113.488281 56.183594 113.457031 Z M 56.183594 113.457031 "/></g></svg>