<svg xmlns="http://www.w3.org/2000/svg" xmlns:xlink="http://www.w3.org/1999/xlink" width="200" zoomAndPan="magnify" viewBox="0 0 150 149.999998" height="200" preserveAspectRatio="xMidYMid meet" version="1.2"><defs><clipPath id="18e732e969"><path d="M 0 0 L 146.25 0 L 146.25 150 L 0 150 Z M 0 0 "/></clipPath></defs><g id="2e5cd1f92a"><path style=" stroke:none;fill-rule:nonzero;fill:#ffe505;fill-opacity:1;" d="M 87.066406 13.085938 C 79.457031 14.734375 78.074219 15.160156 73.761719 16.808594 C 60.832031 21.703125 52.210938 27.445312 43.429688 33.296875 C 38.90625 36.328125 34.117188 38.9375 30.125 43.9375 C 26.402344 48.5625 20.441406 55.480469 21.078125 59.894531 C 21.34375 61.753906 23.421875 63.351562 24.273438 64.148438 C 25.816406 65.636719 27.410156 67.128906 29.59375 67.339844 C 31.773438 67.5 32.46875 66.222656 33.851562 66.808594 C 34.808594 67.234375 34.96875 68.03125 36.511719 71.597656 C 38.375 75.851562 38.800781 76.171875 39.171875 76.382812 C 39.492188 76.542969 39.917969 76.703125 45.027344 76.382812 C 46.996094 76.277344 47.207031 76.222656 47.6875 76.382812 C 49.550781 76.96875 49.390625 78.457031 51.414062 80.105469 C 53.648438 81.914062 55.03125 81.117188 57.265625 83.296875 C 57.691406 83.722656 58.382812 84.414062 58.863281 85.425781 C 60.035156 87.820312 59.394531 90.265625 58.863281 92.339844 C 58.066406 95.371094 57.320312 95.425781 56.203125 99.253906 C 55.351562 102.128906 55.457031 103.246094 55.667969 104.042969 C 55.988281 105.320312 57.054688 107.605469 58.863281 107.765625 C 60.140625 107.871094 61.523438 106.863281 62.054688 105.636719 C 62.90625 103.828125 61.363281 102.660156 60.992188 98.722656 C 60.832031 97.019531 60.671875 95.265625 61.523438 93.402344 C 61.789062 92.871094 62.90625 90.425781 65.25 89.679688 C 66.046875 89.414062 66.6875 89.46875 71.636719 91.277344 C 76.476562 93.03125 77.328125 93.457031 78.019531 94.46875 C 78.925781 95.746094 78.554688 96.328125 79.617188 97.660156 C 80.839844 99.148438 82.386719 99.734375 83.875 100.320312 C 87.492188 101.648438 88.238281 100.691406 90.792969 101.914062 C 93.242188 103.085938 94.570312 105 95.050781 105.636719 C 96.859375 108.246094 97.125 110.957031 97.179688 112.019531 C 97.339844 115.210938 96.007812 118.085938 93.453125 123.722656 C 92.175781 126.488281 91.433594 127.820312 91.855469 129.574219 C 92.28125 131.277344 93.71875 133.085938 95.582031 133.296875 C 97.925781 133.617188 100.265625 131.277344 100.90625 129.042969 C 101.808594 125.851562 98.828125 124.46875 99.308594 120.53125 C 99.628906 117.925781 101.328125 115.480469 103.566406 114.148438 C 104.042969 113.828125 106.492188 112.394531 109.417969 113.085938 C 112.347656 113.777344 113.941406 116.171875 114.742188 117.339844 C 115.433594 118.351562 116.070312 120 117.402344 123.191406 C 118.359375 125.53125 118.414062 125.902344 119 126.382812 C 120.542969 127.605469 122.03125 126.488281 125.382812 126.914062 C 125.96875 126.96875 128.949219 127.445312 131.769531 129.574219 C 132.835938 130.371094 134.644531 131.808594 135.496094 134.363281 C 135.601562 134.734375 136.878906 138.777344 134.964844 140.746094 C 134.324219 141.382812 133.6875 141.488281 133.367188 142.339844 C 132.996094 143.457031 133.6875 144.628906 133.898438 145 C 135.070312 147.019531 138.15625 148.777344 140.285156 147.660156 C 141.933594 146.808594 142.46875 144.414062 142.414062 142.871094 C 142.308594 139.148438 138.902344 137.394531 139.753906 135.425781 C 140.019531 134.789062 140.339844 135.054688 142.414062 133.296875 C 144.222656 131.753906 145.128906 131.011719 145.074219 130.105469 C 145.019531 128.988281 143.585938 129.042969 142.945312 127.445312 C 142.46875 126.328125 143 125.957031 142.945312 123.191406 C 142.890625 121.488281 142.890625 120.636719 142.414062 120 C 141.457031 118.671875 140.019531 119.46875 138.6875 118.402344 C 136.667969 116.808594 138.582031 113.828125 136.558594 110.957031 C 135.175781 109.042969 133.84375 109.734375 132.300781 107.765625 C 130.652344 105.691406 131.023438 103.511719 130.707031 100.320312 C 130.386719 97.394531 129.429688 95 127.511719 90.210938 C 125.597656 85.371094 123.46875 81.96875 120.0625 76.382812 C 116.921875 71.277344 116.816406 71.703125 115.804688 69.46875 C 113.304688 64.097656 114.421875 62.710938 112.078125 57.234375 C 110.003906 52.289062 108.886719 52.925781 106.757812 47.660156 C 104.683594 42.605469 105.695312 41.914062 103.566406 38.085938 C 102.605469 36.382812 100.796875 33.136719 97.179688 30.636719 C 95.847656 29.734375 95.261719 29.574219 93.984375 28.511719 C 93.347656 27.980469 91.21875 26.0625 89.730469 22.660156 C 87.492188 17.660156 89.195312 15.320312 87.066406 13.617188 C 85.152344 12.074219 82.226562 12.820312 81.214844 13.085938 C 77.117188 14.148438 75.199219 17.710938 74.828125 18.402344 "/><path style=" stroke:none;fill-rule:nonzero;fill:#cf8229;fill-opacity:1;" d="M 85.472656 2.980469 C 83.394531 2.820312 83.769531 1.914062 80.734375 1.96875 C 80.734375 1.96875 78.179688 2.019531 75.625 2.179688 C 65.78125 2.871094 53.808594 6.4375 53.808594 6.4375 C 47.6875 8.246094 38.695312 11.011719 28.261719 17.074219 C 25.125 18.9375 27.570312 17.710938 14.425781 26.648438 C 12.246094 28.136719 8.414062 30.746094 4.847656 35.160156 C 3.730469 36.542969 2.238281 38.617188 1.65625 41.542969 C 1.386719 42.925781 0.855469 45.425781 2.1875 47.394531 C 2.878906 48.457031 3.675781 48.777344 6.445312 50.054688 C 9.902344 51.703125 11.925781 52.605469 13.894531 53.777344 C 17.140625 55.636719 20.226562 58.03125 20.28125 58.03125 C 21.453125 55.636719 23.527344 51.914062 26.667969 47.925781 C 31.988281 41.171875 37.363281 37.5 47.953125 30.371094 C 56.203125 24.839844 61.84375 21.863281 64.984375 20.265625 C 72.699219 16.382812 76.585938 14.414062 80.414062 14.414062 C 83.183594 14.414062 86.640625 13.136719 88.132812 11.488281 C 89.730469 9.734375 88.183594 8.351562 87.332031 5.902344 "/><path style=" stroke:none;fill-rule:nonzero;fill:#ce3727;fill-opacity:1;" d="M 50.878906 40.746094 C 48.644531 41.222656 44.601562 42.019531 41.300781 45.53125 C 40.238281 46.648438 37.84375 49.203125 37.574219 52.980469 C 37.203125 58.351562 41.40625 62.179688 42.367188 63.085938 C 48.324219 68.511719 56.414062 67.074219 57.796875 66.808594 C 59.5 66.488281 67.910156 65 70.570312 58.296875 C 70.785156 57.710938 72.328125 53.722656 70.570312 49.789062 C 69.507812 47.394531 67.695312 46.0625 64.714844 43.9375 C 62.695312 42.5 61.203125 41.382812 58.863281 40.746094 C 55.5625 39.839844 52.796875 40.371094 50.878906 40.746094 Z M 50.878906 40.746094 "/><path style=" stroke:none;fill-rule:nonzero;fill:#ce3727;fill-opacity:1;" d="M 89.730469 24.789062 C 87.707031 22.871094 86.484375 21.753906 84.40625 21.0625 C 81.480469 20.105469 78.820312 20.636719 77.488281 21.0625 C 73.976562 22.179688 72.0625 24.628906 71.101562 25.851562 C 69.878906 27.445312 68.546875 29.203125 68.441406 31.703125 C 68.335938 34.789062 70.199219 37.019531 71.101562 38.085938 C 73.816406 41.328125 77.4375 42.128906 78.554688 42.339844 C 81.691406 42.980469 84.195312 42.289062 86.003906 41.808594 C 88.558594 41.117188 91.539062 40.320312 93.453125 37.554688 C 93.878906 36.96875 95.105469 35.160156 95.050781 32.765625 C 94.945312 29.734375 92.816406 27.660156 89.730469 24.789062 Z M 89.730469 24.789062 "/><path style=" stroke:none;fill-rule:nonzero;fill:#ce3727;fill-opacity:1;" d="M 103.566406 42.871094 C 101.597656 41.648438 98.722656 42.980469 96.648438 43.9375 C 94.730469 44.839844 91.964844 46.117188 89.730469 49.253906 C 88.824219 50.585938 86.800781 53.402344 87.066406 57.234375 C 87.28125 60.265625 88.824219 62.394531 89.730469 63.617188 C 92.070312 66.863281 95.105469 68.246094 96.648438 68.9375 C 101.4375 71.117188 105.695312 70.691406 106.757812 70.53125 C 108.832031 70.265625 113.675781 69.679688 114.742188 66.808594 C 115.113281 65.796875 114.742188 65.105469 113.144531 60.957031 C 110.269531 53.457031 110.695312 53.617188 109.417969 51.382812 C 107.609375 48.191406 107.183594 48.671875 105.160156 45 C 104.578125 43.9375 104.308594 43.351562 103.566406 42.871094 Z M 103.566406 42.871094 "/><path style=" stroke:none;fill-rule:nonzero;fill:#ce3727;fill-opacity:1;" d="M 95.582031 77.445312 C 93.507812 74.945312 91.113281 73.9375 88.132812 72.660156 C 85.898438 71.703125 83.023438 70.480469 79.085938 70.53125 C 77.328125 70.53125 74.03125 70.796875 70.570312 72.660156 C 68.972656 73.511719 67.003906 74.628906 65.78125 76.914062 C 65.515625 77.445312 64.238281 79.894531 65.25 81.703125 C 65.835938 82.710938 66.898438 83.085938 67.378906 83.296875 C 70.625 84.574219 70.515625 85.957031 75.359375 89.148438 C 81.585938 93.191406 82.4375 91.328125 87.066406 95 C 88.878906 96.4375 89.996094 97.710938 91.855469 97.660156 C 94.253906 97.605469 96.007812 95.320312 96.648438 94.46875 C 99.308594 91.011719 98.882812 86.808594 98.777344 85.425781 C 98.667969 84.308594 98.296875 80.691406 95.582031 77.445312 Z M 95.582031 77.445312 "/><path style=" stroke:none;fill-rule:nonzero;fill:#ce3727;fill-opacity:1;" d="M 121.660156 81.703125 C 119.796875 80.851562 116.710938 83.5625 115.273438 85.425781 C 114.6875 86.171875 112.664062 88.882812 112.613281 92.871094 C 112.613281 93.457031 112.613281 97.554688 114.742188 99.789062 C 115.007812 100.054688 115.378906 100.425781 116.335938 101.382812 C 118.039062 103.136719 117.988281 103.246094 118.464844 103.511719 C 119.582031 104.203125 120.117188 103.777344 121.660156 104.574219 C 122.457031 105 122.402344 105.105469 123.253906 105.636719 C 123.679688 105.902344 126.714844 107.660156 129.640625 106.703125 C 130.171875 106.542969 130.441406 106.4375 130.707031 106.171875 C 131.609375 105.210938 130.972656 103.671875 130.707031 101.382812 C 130.28125 97.925781 131.292969 97.710938 130.707031 95.53125 C 130.441406 94.519531 130.226562 94.574219 127.511719 90.746094 C 125.066406 87.289062 123.839844 85.53125 123.253906 84.363281 C 122.402344 82.605469 122.351562 82.019531 121.660156 81.703125 Z M 121.660156 81.703125 "/><g clip-rule="nonzero" clip-path="url(#18e732e969)"><path style="fill:none;stroke-width:4;stroke-linecap:butt;stroke-linejoin:miter;stroke:#070808;stroke-opacity:1;stroke-miterlimit:10;" d="M 276.000399 266.999212 C 275.398501 270.399369 278.202465 271.30265 279.002549 277.0014 C 279.501684 280.401556 279.501684 287.201869 276.000399 289.001087 C 271.999979 291.1014 263.99914 286.4014 263.00087 280.9964 C 262.0026 275.701556 268.403271 273.601244 267.999559 266.999212 C 267.69861 261.300462 262.597158 257.099838 259.99872 254.999525 C 255.499165 251.298275 250.99961 250.196713 250.00134 249.998431 C 243.29972 248.500306 241.802315 251.401088 238.000081 249.998431 C 230.300191 247.200463 233.698712 234.099213 224.002282 226.997806 C 223.503147 226.601244 217.102475 221.996713 211.002753 224.001556 C 203.200099 226.498431 198.399595 239.900775 200.998033 248.000931 C 201.401745 249.300775 202.297252 251.298275 202.003643 254.000775 C 202.003643 254.301869 201.203559 260.301712 196.997613 261.998119 C 192.402636 263.797337 186.398336 259.501244 184.996354 254.999525 C 183.998084 251.79765 185.598252 249.499056 187.998504 243.998588 C 192.901771 233.100463 195.698394 226.601244 195.001074 219.999213 C 194.296412 213.301713 189.899621 207.199057 184.996354 203.997182 C 179.498529 200.398744 177.296463 202.998432 170.000285 200.002182 C 160.201092 195.897025 160.80299 189.6989 149.998186 184.00015 C 145.696817 181.701557 138.297876 177.897494 132.998237 180.996557 C 126.003008 185.101713 127.896784 199.297182 127.999547 200.002182 C 128.403259 202.80015 130.399799 204.202807 130.003427 207.000775 C 129.599715 210.099838 127.199463 213.801088 123.999128 213.999369 C 120.497843 214.19765 117.796642 209.997025 116.996558 207.000775 C 115.902865 203.196713 117.503033 200.200463 119.000438 195.999838 C 121.899825 188.097963 126.399379 176.002807 122.002588 170.002963 C 119.998708 167.300463 118.501303 168.901401 113.003478 165.001869 C 105.69996 159.802494 105.802723 154.999682 101.002219 154.000932 C 96.003529 152.899369 94.498784 157.797651 89.999229 156.997182 C 82.402102 155.601869 82.798474 141.303588 72.99928 137.998901 C 69.600759 136.897338 68.903438 138.299995 64.998441 137.000151 C 60.102514 135.296401 56.902178 131.499682 55.001061 128.40062 C 54.098214 126.997963 53.503657 125.800932 52.997181 125.000463 C 52.197098 123.502338 51.198828 122.202495 50.200558 120.99812 C 39.102145 107.500307 18.600912 108.102495 14.996864 96.998745 C 14.497729 95.50062 14.402306 93.899682 14.600492 92.298745 C 15.796948 79.601401 35.402675 64.098745 42.001532 59.002183 C 60.697072 44.498276 97.500934 21.703276 160.002906 14.998433 C 165.50073 13.500308 171.49769 15.497808 174.998975 19.999526 C 178.603023 24.596714 178.999394 31.000464 175.997245 36.001558 C 175.997245 36.001558 175.997245 36.097026 175.997245 36.199839 C 177.802939 45.497026 180.401376 52.297339 183.300763 57.298433 C 184.996354 60.199214 186.699285 62.402339 188.497639 64.297026 C 190.002384 65.802495 191.499789 67.102339 192.901771 68.101089 C 195.698394 70.00312 200.403475 72.397182 203.89742 78.103276 C 206.89957 83.001557 206.400435 86.10062 208.602501 92.100464 C 208.697924 92.401557 208.800687 92.702651 208.90345 93.099214 C 211.89826 101.19937 214.203089 100.097807 218.900829 109.101245 C 219.899099 110.900463 222.6003 119.00062 227.899939 135.09812 C 228.098125 135.700307 228.303651 136.397963 228.59726 137.000151 C 229.397344 139.401557 230.402954 142.001244 231.900358 145.100307 C 233.801475 148.897026 235.100694 150.497963 237.897318 155.102494 C 239.996621 158.598119 241.097654 160.698432 243.196957 164.700776 C 243.402483 165.097338 243.703432 165.596713 243.901618 166.103432 C 254.398132 186.100463 254.398132 183.500775 255.902877 188.097963 C 260.101483 200.597025 255.601928 205.201557 259.99872 211.899057 C 260.299669 212.302963 260.497855 212.699525 260.901567 213.103432 C 264.197326 217.296713 267.69861 218.302806 269.900676 224.097025 C 271.398081 228.202181 270.597997 230.199681 272.902826 233.100463 C 276.000399 236.999994 279.597107 235.898431 280.896326 239.100306 C 282.401071 242.500463 278.7016 244.703588 279.898056 249.102494 C 280.999089 253.200306 284.801322 253.200306 284.896745 256.101088 C 285.197694 260.1989 276.998669 261.300462 276.000399 266.999212 Z M 276.000399 266.999212 " transform="matrix(0.532171,0,0,0.531915,-6.594173,-6.063827)"/></g><path style="fill:none;stroke-width:4;stroke-linecap:butt;stroke-linejoin:miter;stroke:#070808;stroke-opacity:1;stroke-miterlimit:10;" d="M 177.002855 35.002808 C 175.299924 32.69687 140.301756 43.998901 106.000909 66.000776 C 59.001481 96.102807 60.197937 104.401245 51.998912 123.002963 " transform="matrix(0.532171,0,0,0.531915,-6.594173,-6.063827)"/><path style=" stroke:none;fill-rule:nonzero;fill:#070808;fill-opacity:1;" d="M 0.535156 44.363281 C 3.890625 39.574219 8.414062 33.882812 15.066406 36.117188 C 18.898438 37.289062 22.570312 39.519531 23.847656 43.511719 C 25.601562 49.148438 23.578125 54.839844 22.035156 60.320312 C 22.035156 60.320312 20.066406 59.46875 20.066406 59.46875 C 21.929688 56.328125 23.3125 52.820312 23.578125 49.203125 C 24.003906 45.480469 22.460938 42.179688 19.214844 40.371094 C 17.085938 39.148438 14.480469 38.03125 11.980469 37.980469 C 7.613281 38.136719 4.792969 42.554688 2.1875 45.636719 C 2.238281 45.636719 0.535156 44.363281 0.535156 44.363281 Z M 0.535156 44.363281 "/><path style=" stroke:none;fill-rule:nonzero;fill:#070808;fill-opacity:1;" d="M 95.476562 31.328125 C 98.507812 39.042969 86.003906 44.46875 79.832031 43.402344 C 72.914062 42.289062 65.25 35.105469 68.921875 27.710938 C 69.613281 26.222656 70.675781 24.945312 71.792969 23.828125 C 74.03125 21.542969 77.117188 19.628906 80.46875 19.789062 C 86.695312 20.160156 93.027344 25.796875 95.476562 31.328125 Z M 93.558594 32.074219 C 91.589844 27.179688 85.949219 21.648438 80.46875 21.0625 C 77.4375 20.851562 74.613281 22.5 72.539062 24.574219 C 65.410156 31.0625 69.878906 39.042969 77.914062 41.648438 C 79.351562 42.074219 80.839844 42.289062 82.277344 42.128906 C 86.640625 41.597656 95.53125 37.660156 93.558594 32.074219 Z M 93.558594 32.074219 "/><path style=" stroke:none;fill-rule:nonzero;fill:#070808;fill-opacity:1;" d="M 72.433594 53.722656 C 72.59375 58.136719 69.664062 61.863281 66.367188 64.363281 C 59.660156 69.519531 49.816406 69.628906 42.898438 64.734375 C 39.4375 62.339844 36.882812 58.402344 36.832031 54.097656 C 36.671875 47.554688 42.523438 42.710938 48.21875 40.746094 C 54.550781 38.402344 60.191406 40 65.566406 43.722656 C 68.867188 46.117188 72.113281 49.363281 72.433594 53.722656 Z M 70.835938 53.828125 C 70.675781 50.054688 67.75 46.96875 64.824219 44.789062 C 59.820312 41.0625 54.550781 39.574219 48.59375 41.914062 C 43.429688 43.722656 38.109375 48.191406 38.425781 54.097656 C 38.585938 57.820312 40.929688 61.117188 44.015625 63.191406 C 50.292969 67.445312 59.074219 67.234375 65.25 62.820312 C 68.175781 60.746094 70.890625 57.554688 70.835938 53.828125 Z M 70.835938 53.828125 "/><path style=" stroke:none;fill-rule:nonzero;fill:#070808;fill-opacity:1;" d="M 116.125 67.074219 C 115.804688 67.5 115.324219 67.871094 114.847656 68.136719 C 112.878906 69.308594 110.695312 70.105469 108.460938 70.636719 C 102.023438 72.339844 95.316406 69.679688 90.632812 65.210938 C 87.757812 62.554688 85.683594 58.511719 86.695312 54.574219 C 88.027344 49.46875 91.589844 44.679688 96.648438 42.925781 C 99.414062 41.914062 102.234375 41.648438 105.160156 41.863281 C 105.585938 43.03125 106.011719 44.308594 106.652344 45.320312 C 107.769531 47.019531 109.527344 48.828125 110.484375 50.746094 C 112.027344 53.722656 112.824219 57.019531 113.941406 60.160156 C 114.261719 61.171875 115.167969 63.882812 115.484375 64.839844 C 115.804688 65.585938 116.070312 66.382812 116.125 67.074219 Z M 114.050781 66.4375 C 113.890625 66.277344 113.78125 66.222656 113.730469 66.117188 C 113.675781 66.011719 113.570312 65.636719 113.515625 65.585938 C 113.199219 64.628906 112.292969 61.914062 111.972656 60.902344 C 111.121094 58.296875 110.269531 55.691406 109.3125 53.191406 C 109.152344 52.710938 108.886719 52.234375 108.675781 51.863281 C 107.664062 49.839844 106.171875 48.511719 104.894531 46.542969 C 104.257812 45.53125 103.832031 44.414062 103.457031 43.351562 L 104.363281 44.042969 C 99.734375 43.777344 94.625 45.054688 91.644531 48.828125 C 90.15625 50.691406 88.664062 52.660156 88.027344 55 C 86.058594 62.445312 94.519531 68.402344 100.90625 69.734375 C 105.375 70.585938 110.058594 69.097656 113.730469 66.542969 C 113.730469 66.542969 113.890625 66.4375 113.890625 66.4375 C 113.941406 66.328125 113.996094 66.382812 114.050781 66.4375 Z M 114.050781 66.4375 "/><path style=" stroke:none;fill-rule:nonzero;fill:#070808;fill-opacity:1;" d="M 132.78125 107.074219 C 131.875 107.394531 130.652344 107.605469 129.640625 107.554688 C 127.621094 107.394531 125.597656 106.914062 123.679688 106.277344 C 115.433594 103.351562 108.941406 95.902344 113.78125 87.128906 C 115.59375 83.777344 118.890625 81.222656 122.671875 80.480469 C 122.671875 80.480469 123.414062 80.320312 123.414062 80.320312 C 123.414062 80.320312 123.789062 81.011719 123.789062 81.011719 C 125.382812 83.988281 126.925781 86.96875 128.683594 89.894531 C 128.683594 89.894531 129.589844 91.328125 129.589844 91.328125 C 130.546875 92.820312 131.023438 94.734375 131.398438 96.488281 C 131.609375 97.660156 131.769531 98.882812 131.769531 100.054688 C 131.824219 101.753906 131.609375 103.246094 132.089844 104.789062 C 132.355469 105.480469 132.886719 106.222656 132.78125 107.074219 Z M 130.867188 106.117188 C 130.652344 106.171875 130.546875 106.277344 130.492188 106.382812 C 130.015625 105.480469 129.746094 104.46875 129.640625 103.457031 C 129.535156 102.179688 129.640625 101.0625 129.589844 100 C 129.589844 97.820312 129.109375 95.746094 128.417969 93.722656 C 128.152344 92.871094 127.300781 91.703125 126.875 90.957031 C 125.117188 88.03125 123.523438 85 121.925781 81.96875 C 121.925781 81.96875 123.042969 82.5 123.042969 82.5 C 117.878906 82.820312 113.625 87.394531 113.039062 92.445312 C 112.613281 95.957031 114.421875 99.308594 117.082031 101.597656 C 120.488281 104.519531 125.011719 106.117188 129.480469 105.796875 C 129.480469 105.796875 129.640625 105.796875 129.640625 105.796875 C 129.640625 105.796875 129.746094 105.796875 129.746094 105.796875 C 130.226562 105.746094 130.386719 105.957031 130.867188 106.117188 Z M 130.867188 106.117188 "/><path style=" stroke:none;fill-rule:nonzero;fill:#070808;fill-opacity:1;" d="M 65.835938 80 C 66.367188 82.554688 68.972656 83.828125 70.996094 85.210938 C 70.996094 85.210938 74.402344 87.394531 74.402344 87.394531 C 74.988281 87.765625 76.425781 88.671875 76.957031 88.988281 C 77.222656 89.148438 77.542969 89.363281 77.753906 89.46875 L 92.28125 96.753906 C 92.28125 96.753906 91.699219 96.648438 91.75 96.648438 C 95.847656 96.542969 97.710938 91.222656 97.871094 87.605469 C 98.191406 81.542969 95.476562 77.074219 90.046875 74.308594 C 84.726562 71.171875 78.019531 69.679688 72.21875 72.445312 C 69.292969 73.777344 65.300781 76.222656 65.835938 80 Z M 64.664062 80.210938 C 63.972656 74.574219 71.15625 71.4375 75.679688 70.480469 C 80.839844 69.414062 86.109375 70.851562 90.632812 73.351562 C 95.636719 75.746094 98.988281 79.945312 99.414062 85.636719 C 99.894531 90.746094 98.03125 98.136719 91.910156 98.722656 C 91.910156 98.722656 91.589844 98.722656 91.589844 98.722656 C 91.589844 98.722656 91.324219 98.5625 91.324219 98.5625 C 91.324219 98.5625 77.0625 90.902344 77.0625 90.902344 C 76.691406 90.691406 76.425781 90.53125 76.160156 90.320312 C 75.625 89.945312 74.1875 88.988281 73.605469 88.617188 C 73.605469 88.617188 70.25 86.382812 70.25 86.382812 C 68.015625 84.894531 65.089844 83.191406 64.664062 80.210938 Z M 64.664062 80.210938 "/><path style=" stroke:none;fill-rule:nonzero;fill:#070808;fill-opacity:1;" d="M 26.402344 61.488281 C 27.996094 62.019531 29.378906 62.605469 30.925781 62.980469 C 32.785156 63.5625 35.128906 63.9375 36.722656 65.425781 C 36.722656 65.425781 37.628906 66.171875 37.628906 66.171875 C 40.714844 68.777344 44.921875 69.253906 48.433594 71.171875 C 49.921875 71.914062 51.414062 73.03125 52.371094 74.46875 C 52.742188 75 53.007812 75.371094 53.382812 75.796875 C 54.605469 77.019531 56.253906 77.554688 57.796875 78.296875 C 58.542969 78.617188 59.289062 78.988281 59.925781 79.574219 C 58.277344 79.363281 56.679688 79.253906 55.085938 78.671875 C 54.074219 78.296875 53.117188 77.710938 52.265625 76.96875 C 51.253906 75.957031 50.667969 74.679688 49.601562 73.777344 C 47.792969 72.289062 45.613281 71.382812 43.429688 70.480469 C 42.3125 70.054688 40.023438 69.097656 38.90625 68.671875 C 37.628906 68.191406 36.511719 67.289062 35.5 66.328125 C 34.117188 65.210938 32.199219 64.839844 30.550781 64.097656 C 29.113281 63.457031 27.304688 62.820312 26.402344 61.488281 Z M 26.402344 61.488281 "/><path style=" stroke:none;fill-rule:nonzero;fill:#070808;fill-opacity:1;" d="M 93.828125 99.253906 C 96.488281 99.894531 98.882812 101.914062 100.054688 104.46875 C 100.636719 105.902344 101.4375 107.234375 103.085938 107.394531 C 104.734375 107.554688 106.652344 107.234375 108.355469 107.554688 C 112.878906 108.402344 116.761719 111.488281 119.371094 115.105469 C 121.550781 118.085938 121.394531 121.597656 126.074219 121.542969 C 126.074219 121.542969 126.128906 122.074219 126.128906 122.074219 C 124.320312 122.5 122.191406 121.914062 120.914062 120.425781 C 119.742188 119.097656 119.210938 117.339844 118.039062 116.011719 C 114.953125 112.234375 110.75 108.351562 105.585938 108.671875 C 103.777344 108.777344 101.488281 109.042969 100.054688 107.5 C 98.722656 106.277344 98.402344 104.363281 97.179688 103.03125 C 96.167969 101.753906 94.890625 100.691406 93.453125 99.679688 C 93.613281 99.789062 93.828125 99.253906 93.828125 99.253906 Z M 93.828125 99.253906 "/><path style=" stroke:none;fill-rule:nonzero;fill:#070808;fill-opacity:1;" d="M 83.289062 9.628906 C 76.476562 11.808594 70.039062 14.628906 63.597656 17.554688 C 61.46875 18.5625 59.394531 19.789062 57.265625 20.851562 C 58.222656 20.160156 59.183594 19.46875 60.191406 18.777344 C 65.035156 15.265625 70.515625 12.660156 76.265625 11.0625 C 78.554688 10.371094 80.894531 9.894531 83.234375 9.519531 C 83.289062 9.574219 83.289062 9.628906 83.289062 9.628906 Z M 83.289062 9.628906 "/></g></svg>