<svg xmlns="http://www.w3.org/2000/svg" xmlns:xlink="http://www.w3.org/1999/xlink" width="200" zoomAndPan="magnify" viewBox="0 0 150 149.999998" height="200" preserveAspectRatio="xMidYMid meet" version="1.2"><g id="06e5e93c0d"><path style=" stroke:none;fill-rule:nonzero;fill:#da1f27;fill-opacity:1;" d="M 127.816406 83.472656 C 125.816406 82.722656 123.570312 81.976562 121.320312 81.726562 C 119.820312 81.726562 119.320312 80.730469 118.574219 79.484375 C 113.828125 68.523438 102.335938 61.296875 89.847656 64.785156 C 89.347656 64.785156 88.847656 64.785156 88.347656 64.535156 C 86.347656 63.539062 84.351562 62.542969 82.351562 61.792969 C 78.105469 60.300781 73.859375 60.050781 69.363281 61.046875 C 69.363281 62.292969 69.613281 63.539062 69.863281 64.785156 C 70.113281 64.785156 70.363281 64.785156 70.613281 64.785156 C 77.105469 64.035156 82.851562 65.78125 88.597656 68.769531 C 89.097656 68.769531 89.847656 68.769531 90.347656 68.769531 C 93.84375 67.773438 97.589844 67.523438 101.085938 68.769531 C 109.828125 71.761719 114.574219 77.988281 116.824219 86.460938 C 117.074219 87.457031 117.324219 88.457031 117.324219 89.453125 C 120.070312 88.703125 122.820312 88.457031 125.566406 89.453125 C 125.566406 89.453125 125.566406 89.699219 125.316406 89.699219 C 124.316406 89.949219 123.570312 90.449219 122.570312 90.699219 C 110.828125 93.4375 98.839844 94.683594 86.847656 95.433594 C 71.363281 96.179688 55.875 96.179688 40.386719 94.433594 C 33.144531 93.6875 25.898438 92.441406 18.40625 91.195312 C 16.90625 91.195312 15.15625 90.199219 13.160156 89.699219 C 15.65625 88.457031 17.90625 88.207031 20.152344 88.953125 C 20.152344 88.953125 20.152344 88.703125 20.402344 88.703125 C 23.152344 80.980469 27.898438 75.25 35.890625 72.257812 C 36.140625 72.257812 36.390625 71.761719 36.390625 71.261719 C 36.390625 70.015625 36.140625 69.019531 35.890625 67.773438 C 35.390625 67.773438 34.890625 68.023438 34.390625 68.273438 C 28.148438 70.265625 23.652344 74.5 20.152344 79.984375 C 19.902344 80.480469 19.152344 80.980469 18.40625 81.230469 C 16.40625 81.726562 14.40625 82.226562 12.660156 82.722656 C 7.664062 84.46875 7.164062 85.214844 8.164062 90.449219 C 12.160156 111.628906 23.652344 126.828125 43.132812 136.046875 C 43.382812 136.046875 43.882812 136.296875 44.132812 136.792969 C 44.882812 138.289062 45.632812 139.785156 46.632812 141.527344 C 42.882812 141.527344 39.136719 141.777344 35.390625 142.277344 C 32.144531 142.523438 28.894531 143.023438 25.648438 143.769531 C 25.148438 143.769531 24.398438 144.519531 23.898438 145.015625 C 24.398438 145.515625 24.898438 146.011719 25.648438 146.261719 C 27.148438 146.761719 28.894531 147.011719 30.644531 147.257812 C 38.636719 148.007812 46.632812 148.753906 54.875 149.003906 C 73.109375 150 91.59375 149.253906 109.582031 147.257812 C 111.328125 147.257812 113.328125 146.511719 115.074219 146.261719 C 115.574219 146.261719 115.824219 145.765625 116.324219 145.265625 C 115.824219 145.015625 115.574219 144.519531 115.074219 144.269531 C 114.574219 144.019531 113.828125 143.769531 113.328125 143.769531 C 108.832031 143.273438 104.085938 142.773438 99.589844 142.277344 C 97.589844 142.277344 95.339844 142.027344 93.34375 141.777344 C 94.09375 140.53125 94.84375 139.285156 95.339844 138.039062 C 95.839844 137.042969 96.339844 136.542969 97.089844 136.296875 C 105.582031 132.308594 112.578125 126.828125 118.574219 119.601562 C 125.566406 110.878906 129.8125 100.914062 131.5625 89.949219 C 132.0625 86.460938 131.5625 85.214844 128.066406 83.96875 Z M 16.90625 98.421875 C 16.15625 98.421875 15.40625 97.921875 14.65625 97.675781 C 14.40625 97.675781 13.910156 96.679688 14.15625 96.429688 C 14.15625 96.179688 14.90625 95.679688 15.40625 95.679688 C 16.40625 95.679688 17.40625 95.929688 18.40625 96.429688 C 25.398438 98.421875 32.644531 99.417969 40.136719 100.167969 C 43.632812 100.414062 47.132812 100.664062 50.628906 100.914062 C 51.628906 100.914062 52.625 101.164062 52.625 102.410156 C 52.625 103.65625 51.378906 103.65625 50.378906 103.40625 C 39.136719 102.90625 27.898438 101.410156 17.15625 98.421875 Z M 16.90625 98.421875 "/><path style=" stroke:none;fill-rule:nonzero;fill:#da1f27;fill-opacity:1;" d="M 146.800781 21.925781 C 146.300781 19.1875 144.050781 17.441406 141.304688 17.941406 C 140.554688 17.941406 139.804688 18.1875 139.054688 18.4375 C 123.320312 22.675781 107.832031 26.910156 92.09375 31.144531 C 89.597656 31.894531 87.097656 32.390625 84.101562 33.390625 C 84.351562 32.144531 84.601562 31.144531 84.851562 30.148438 C 84.851562 28.902344 85.601562 28.40625 86.597656 28.15625 C 99.839844 24.167969 113.078125 19.933594 126.566406 15.699219 C 130.3125 14.453125 134.308594 13.457031 138.058594 12.210938 C 140.554688 11.460938 141.804688 9.71875 141.804688 7.476562 C 141.804688 3.988281 138.554688 2.242188 134.808594 3.738281 C 119.074219 9.964844 103.585938 16.195312 87.847656 22.175781 C 73.609375 27.65625 59.621094 32.890625 45.382812 38.121094 C 42.882812 39.121094 40.386719 39.867188 37.890625 40.863281 C 37.390625 40.863281 36.890625 41.859375 36.890625 42.359375 C 36.890625 42.855469 37.640625 43.355469 38.136719 43.605469 C 38.386719 43.605469 38.886719 43.605469 39.386719 43.355469 C 43.132812 42.109375 46.882812 40.863281 50.878906 39.617188 C 52.625 39.121094 54.375 38.621094 56.125 38.121094 C 56.125 40.613281 56.125 40.613281 53.875 41.363281 C 48.878906 42.609375 44.132812 44.101562 39.136719 45.347656 C 38.636719 45.347656 37.890625 46.097656 37.640625 46.59375 C 37.390625 47.839844 38.136719 48.589844 39.636719 48.339844 C 42.136719 47.839844 44.382812 47.589844 46.882812 47.09375 C 49.628906 46.59375 52.375 46.097656 55.125 45.347656 C 55.125 45.597656 55.125 45.847656 55.125 46.097656 C 55.125 50.832031 54.625 55.8125 54.625 60.546875 C 54.625 64.285156 55.125 68.023438 55.625 71.511719 C 55.625 72.011719 55.875 72.507812 56.375 72.757812 C 57.621094 73.253906 58.871094 73.753906 60.121094 74.253906 C 59.871094 71.761719 59.371094 69.019531 59.121094 66.527344 C 58.621094 58.804688 58.621094 51.328125 59.621094 43.605469 C 59.871094 40.863281 60.621094 38.121094 61.371094 35.382812 C 61.371094 34.386719 62.367188 33.886719 63.617188 34.136719 C 64.617188 34.386719 64.867188 35.132812 64.617188 36.128906 C 62.617188 46.84375 61.867188 57.558594 63.117188 68.273438 C 63.367188 70.765625 64.117188 73.007812 64.617188 75.5 C 66.117188 75 67.363281 74.75 68.363281 74.5 C 67.863281 70.515625 67.113281 66.527344 66.863281 62.542969 C 66.367188 53.820312 67.113281 45.347656 68.613281 36.628906 C 68.613281 35.382812 69.113281 33.886719 69.613281 32.640625 C 69.863281 31.644531 70.863281 31.394531 71.859375 31.644531 C 72.859375 31.894531 72.859375 32.640625 72.609375 33.636719 C 71.363281 40.863281 70.863281 48.339844 70.863281 55.566406 C 70.863281 56.3125 70.863281 56.8125 70.863281 57.558594 C 72.359375 57.558594 73.609375 57.558594 75.109375 57.308594 C 75.109375 56.8125 75.109375 56.5625 75.109375 56.3125 C 75.359375 50.082031 75.609375 43.855469 76.109375 37.625 C 76.109375 35.132812 76.855469 32.640625 77.605469 30.148438 C 77.605469 28.902344 79.105469 28.40625 79.855469 28.65625 C 81.101562 28.902344 80.855469 29.898438 80.605469 30.898438 C 79.105469 38.621094 78.605469 46.59375 78.605469 54.566406 C 78.605469 55.316406 78.605469 56.3125 78.605469 57.058594 C 79.855469 57.308594 81.101562 57.558594 82.351562 57.808594 C 82.601562 51.578125 82.851562 45.347656 83.101562 39.121094 C 83.601562 39.121094 84.101562 38.871094 84.351562 38.871094 C 94.34375 36.878906 104.585938 34.882812 114.574219 32.890625 C 124.066406 30.898438 133.558594 28.902344 143.050781 27.160156 C 145.800781 26.660156 147.050781 24.167969 146.800781 21.925781 Z M 146.800781 21.925781 "/><path style=" stroke:none;fill-rule:nonzero;fill:#da1f27;fill-opacity:1;" d="M 23.652344 89.699219 C 24.648438 89.699219 25.148438 89.699219 25.898438 90.199219 C 26.898438 90.699219 27.648438 90.199219 28.148438 89.203125 C 29.894531 85.964844 32.644531 83.222656 35.890625 81.476562 C 44.382812 77.242188 52.625 77.988281 60.371094 83.472656 C 61.121094 83.96875 61.621094 83.96875 62.367188 83.722656 C 65.367188 82.722656 68.363281 81.726562 71.363281 81.230469 C 79.855469 80.234375 87.097656 82.722656 92.34375 89.949219 C 93.84375 91.945312 95.09375 92.691406 97.339844 91.945312 C 97.339844 91.945312 97.339844 91.945312 97.589844 91.945312 C 97.589844 91.445312 97.339844 90.945312 97.089844 90.449219 C 95.339844 86.460938 92.59375 82.972656 88.597656 80.730469 C 80.355469 75.746094 71.609375 75.746094 63.117188 79.734375 C 62.867188 79.734375 62.117188 79.734375 61.867188 79.734375 C 52.625 73.007812 42.882812 73.007812 33.144531 78.238281 C 28.644531 80.730469 25.398438 84.71875 23.652344 89.699219 Z M 23.652344 89.699219 "/><path style=" stroke:none;fill-rule:nonzero;fill:#da1f27;fill-opacity:1;" d="M 70.863281 69.519531 C 71.113281 70.765625 71.609375 71.761719 71.859375 73.253906 C 78.605469 72.257812 84.601562 73.753906 90.097656 76.992188 C 95.839844 80.234375 99.589844 85.214844 101.585938 91.445312 C 102.835938 91.445312 104.085938 91.445312 105.332031 91.195312 C 105.832031 78.988281 82.101562 64.035156 71.113281 69.765625 Z M 70.863281 69.519531 "/><path style=" stroke:none;fill-rule:nonzero;fill:#da1f27;fill-opacity:1;" d="M 62.617188 92.191406 C 68.363281 88.207031 78.605469 87.210938 84.601562 92.191406 C 85.101562 92.441406 85.601562 92.691406 86.097656 92.691406 C 87.347656 92.691406 88.847656 92.691406 90.59375 92.441406 C 86.097656 86.460938 80.105469 83.96875 72.859375 84.46875 C 66.367188 84.964844 60.621094 86.960938 56.625 92.691406 C 57.621094 92.691406 58.871094 92.691406 59.871094 92.691406 C 61.121094 92.691406 61.871094 92.691406 62.867188 91.945312 Z M 62.617188 92.191406 "/><path style=" stroke:none;fill-rule:nonzero;fill:#da1f27;fill-opacity:1;" d="M 55.125 88.457031 C 56.125 87.707031 57.121094 86.960938 57.871094 85.964844 C 49.628906 79.484375 35.390625 82.476562 31.644531 90.699219 C 33.890625 90.945312 35.890625 91.695312 38.136719 89.699219 C 42.636719 85.714844 48.378906 85.964844 53.625 88.207031 C 54.125 88.207031 54.625 88.703125 54.875 88.207031 Z M 55.125 88.457031 "/><path style=" stroke:none;fill-rule:nonzero;fill:#da1f27;fill-opacity:1;" d="M 102.835938 78.488281 C 103.835938 79.484375 105.082031 80.480469 106.082031 81.726562 C 108.082031 84.21875 109.082031 87.457031 109.828125 90.699219 C 111.328125 90.699219 112.578125 90.449219 114.078125 90.199219 C 113.828125 88.703125 113.578125 87.210938 113.078125 85.964844 C 110.578125 78.988281 106.332031 74.003906 98.839844 72.257812 C 98.089844 72.257812 97.089844 72.257812 96.089844 72.257812 C 98.339844 74.5 100.085938 76.246094 102.085938 78.238281 C 102.085938 78.238281 102.585938 78.488281 102.835938 78.738281 Z M 102.835938 78.488281 "/><path style=" stroke:none;fill-rule:nonzero;fill:#da1f27;fill-opacity:1;" d="M 51.128906 52.574219 C 51.128906 51.078125 50.378906 50.332031 49.128906 50.332031 C 47.878906 50.332031 47.132812 51.078125 47.132812 52.574219 C 47.132812 56.5625 47.132812 60.546875 47.132812 64.285156 C 47.132812 66.277344 47.132812 68.023438 47.382812 70.015625 C 47.382812 70.265625 47.878906 70.765625 48.128906 71.011719 C 49.378906 71.011719 50.378906 71.011719 51.628906 71.261719 C 51.628906 67.773438 51.378906 64.535156 51.128906 61.296875 C 51.128906 58.304688 51.128906 55.316406 51.128906 52.324219 Z M 51.128906 52.574219 "/><path style=" stroke:none;fill-rule:nonzero;fill:#da1f27;fill-opacity:1;" d="M 67.363281 17.691406 C 67.363281 17.941406 67.113281 18.4375 67.363281 18.6875 C 67.363281 19.1875 67.613281 19.433594 68.113281 19.683594 C 68.113281 19.683594 68.863281 19.683594 69.113281 19.433594 C 69.613281 18.9375 70.363281 18.1875 70.863281 17.691406 C 72.859375 15.199219 73.109375 12.457031 71.363281 9.964844 C 70.613281 8.96875 69.863281 7.972656 69.363281 6.726562 C 68.363281 5.234375 68.113281 3.488281 68.613281 1.746094 C 68.613281 1.246094 68.613281 0.746094 69.113281 0 C 68.363281 0.5 67.863281 0.5 67.613281 0.996094 C 64.617188 3.488281 64.367188 6.976562 66.617188 10.214844 C 68.613281 12.707031 69.113281 15.199219 67.863281 18.1875 Z M 67.363281 17.691406 "/><path style=" stroke:none;fill-rule:nonzero;fill:#da1f27;fill-opacity:1;" d="M 54.125 18.1875 C 55.375 20.183594 55.625 21.925781 54.875 24.167969 C 54.875 24.667969 54.375 25.414062 54.375 25.914062 C 54.375 26.910156 55.375 27.410156 55.875 26.910156 C 57.871094 24.917969 59.871094 22.675781 59.121094 19.433594 C 58.871094 17.941406 57.871094 16.695312 57.121094 15.199219 C 56.125 13.457031 55.125 11.960938 55.125 9.964844 C 55.125 8.96875 55.375 8.222656 55.625 7.226562 C 52.875 8.472656 51.128906 11.710938 51.878906 14.203125 C 52.375 15.699219 53.375 16.945312 54.125 18.4375 Z M 54.125 18.1875 "/><path style=" stroke:none;fill-rule:nonzero;fill:#da1f27;fill-opacity:1;" d="M 43.382812 71.261719 C 43.382812 68.523438 43.382812 65.78125 43.382812 63.039062 C 43.382812 61.542969 42.636719 60.796875 41.386719 60.796875 C 40.136719 60.796875 39.386719 61.542969 39.386719 63.039062 C 39.386719 65.53125 39.386719 67.773438 39.386719 70.265625 C 39.386719 70.765625 39.386719 71.011719 39.636719 71.511719 C 40.886719 71.511719 41.886719 71.511719 43.132812 71.261719 Z M 43.382812 71.261719 "/><path style=" stroke:none;fill-rule:nonzero;fill:#da1f27;fill-opacity:1;" d="M 88.597656 60.796875 C 88.597656 60.796875 88.597656 60.796875 88.847656 60.796875 C 88.847656 60.546875 89.347656 60.050781 89.347656 59.800781 C 89.347656 57.808594 89.347656 56.0625 89.347656 54.070312 C 89.347656 53.570312 88.347656 52.824219 87.597656 52.824219 C 87.097656 52.824219 86.097656 53.570312 86.097656 54.070312 C 86.097656 55.8125 85.847656 57.558594 86.097656 59.054688 C 86.097656 59.800781 87.597656 60.300781 88.597656 60.796875 Z M 88.597656 60.796875 "/><path style=" stroke:none;fill-rule:nonzero;fill:#da1f27;fill-opacity:1;" d="M 51.378906 92.441406 C 51.878906 92.441406 52.128906 92.191406 52.875 91.945312 C 48.878906 89.949219 45.382812 89.949219 41.886719 91.945312 C 45.132812 91.945312 48.128906 92.191406 51.378906 92.441406 Z M 51.378906 92.441406 "/></g></svg>