<svg xmlns="http://www.w3.org/2000/svg" xmlns:xlink="http://www.w3.org/1999/xlink" width="200" zoomAndPan="magnify" viewBox="0 0 150 149.999998" height="200" preserveAspectRatio="xMidYMid meet" version="1.2"><g id="fc38a5d31c"><path style=" stroke:none;fill-rule:nonzero;fill:#f4900c;fill-opacity:1;" d="M 146.855469 83.640625 L 2.722656 81.457031 L 2.792969 92.570312 C 2.863281 95.078125 4.296875 97.597656 7.371094 99.476562 L 36.652344 117.371094 L 65.9375 135.265625 C 72.40625 139.222656 83.507812 138.851562 89.359375 135.265625 C 95.222656 131.6875 92.292969 129.902344 98.144531 126.316406 C 104 122.742188 106.925781 124.53125 112.789062 120.957031 C 118.652344 117.367188 142.078125 103.066406 142.078125 103.066406 C 145.304688 101.09375 146.914062 98.507812 146.921875 95.917969 Z M 146.855469 83.640625 "/><path style=" stroke:none;fill-rule:nonzero;fill:#ffac33;fill-opacity:1;" d="M 142.078125 76.042969 C 142.078125 76.042969 13.230469 68.890625 7.371094 72.46875 C 1.511719 76.042969 0.902344 82.824219 7.371094 86.78125 L 36.652344 104.679688 L 65.9375 122.574219 C 72.40625 126.53125 83.507812 126.164062 89.359375 122.574219 C 95.222656 118.996094 92.292969 117.210938 98.144531 113.625 C 104 110.054688 106.925781 111.839844 112.789062 108.269531 C 118.652344 104.679688 142.074219 90.371094 142.074219 90.371094 C 148.542969 86.414062 148.546875 80 142.078125 76.042969 Z M 142.078125 76.042969 "/><path style=" stroke:none;fill-rule:nonzero;fill:#ffd983;fill-opacity:1;" d="M 41.816406 101.105469 L 71.789062 119.003906 C 71.789062 119.003906 77.785156 122.574219 83.78125 119.003906 C 88.855469 115.96875 92.769531 110.054688 92.769531 110.054688 Z M 41.816406 101.105469 "/><path style=" stroke:none;fill-rule:nonzero;fill:#77b255;fill-opacity:1;" d="M 141.507812 75.382812 C 133.28125 64.425781 28.347656 56.710938 11.886719 72.136719 C 8.5625 75.257812 2.285156 81.535156 8.96875 90.925781 C 11.886719 95.84375 17.941406 99.050781 18.746094 97.53125 C 20.625 93.964844 24.371094 90.851562 29.992188 91.152344 C 29.675781 91.90625 32.710938 104.726562 32.367188 105.011719 C 28.445312 108.339844 36.59375 119.902344 46.140625 113.746094 C 48.515625 118.433594 62.910156 130.011719 72.84375 114.175781 C 74.816406 117.75 95.566406 123.183594 101.324219 106.703125 C 101.277344 106.984375 101.292969 107.226562 101.214844 107.53125 C 100.839844 109.011719 104.277344 110.296875 107.777344 109.066406 C 113.667969 107.011719 122.171875 101.902344 123.675781 96.292969 C 127.875 95.5625 131.027344 96.726562 133.449219 99.925781 C 134.652344 101.507812 138.765625 101.890625 140.527344 99.820312 C 143.628906 96.183594 148.71875 84.992188 141.507812 75.382812 Z M 141.507812 75.382812 "/><path style=" stroke:none;fill-rule:nonzero;fill:#ffcc4d;fill-opacity:1;" d="M 129.898438 102.796875 C 129.898438 105.035156 126.101562 106.855469 121.417969 106.855469 L 28.15625 106.855469 C 23.476562 106.855469 19.679688 105.035156 19.679688 102.796875 L 19.679688 75.066406 L 129.898438 75.066406 Z M 129.898438 102.796875 "/><path style=" stroke:none;fill-rule:nonzero;fill:#be1931;fill-opacity:1;" d="M 139.695312 81.402344 C 139.695312 93.121094 120.253906 102.621094 96.277344 102.621094 C 72.292969 102.621094 52.855469 93.121094 52.855469 81.402344 C 52.855469 69.683594 72.292969 60.183594 96.277344 60.183594 C 120.253906 60.183594 139.695312 69.6875 139.695312 81.402344 Z M 139.695312 81.402344 "/><path style=" stroke:none;fill-rule:nonzero;fill:#f4900c;fill-opacity:1;" d="M 146.855469 58.246094 L 2.722656 56.0625 L 2.722656 67.171875 L 2.792969 67.171875 C 2.863281 69.683594 4.296875 72.203125 7.371094 74.082031 L 36.652344 91.976562 L 65.9375 109.867188 C 72.40625 113.824219 83.507812 113.457031 89.359375 109.867188 C 95.222656 106.292969 92.292969 104.503906 98.144531 100.921875 C 104 97.347656 106.925781 99.132812 112.789062 95.5625 C 118.652344 91.972656 142.078125 77.671875 142.078125 77.671875 C 145.304688 75.699219 146.914062 73.113281 146.921875 70.519531 L 146.921875 70.5 Z M 146.855469 58.246094 "/><path style=" stroke:none;fill-rule:nonzero;fill:#ffac33;fill-opacity:1;" d="M 142.078125 50.648438 L 83.511719 14.867188 C 77.042969 10.914062 66.554688 10.914062 60.082031 14.867188 L 30.796875 32.761719 C 24.941406 36.339844 27.867188 38.128906 22.011719 41.707031 C 16.160156 45.28125 13.230469 43.492188 7.371094 47.070312 C 1.511719 50.648438 0.902344 57.429688 7.371094 61.386719 L 65.9375 97.175781 C 72.40625 101.132812 83.507812 100.761719 89.359375 97.175781 C 95.222656 93.597656 92.292969 91.8125 98.144531 88.226562 C 104 84.652344 106.925781 86.441406 112.789062 82.867188 C 118.652344 79.277344 142.074219 64.972656 142.074219 64.972656 C 148.542969 61.019531 148.546875 54.601562 142.078125 50.648438 Z M 142.078125 50.648438 "/><path style=" stroke:none;fill-rule:nonzero;fill:#ffd983;fill-opacity:1;" d="M 137.742188 54.234375 L 77.785156 18.445312 C 77.785156 18.445312 71.398438 15.097656 65.792969 18.445312 L 36.277344 36.0625 C 31.203125 39.089844 31.898438 42.253906 26.824219 45.28125 C 21.753906 48.3125 16.910156 47.621094 11.835938 50.648438 C 5.839844 54.234375 11.835938 57.816406 11.835938 57.816406 L 71.785156 93.601562 C 71.785156 93.601562 77.78125 97.175781 83.773438 93.601562 C 88.851562 90.566406 87.699219 87.6875 92.765625 84.652344 C 97.839844 81.621094 103.140625 82.035156 108.214844 79.007812 C 113.289062 75.984375 137.730469 61.386719 137.730469 61.386719 C 137.730469 61.386719 143.339844 57.574219 137.742188 54.234375 Z M 137.742188 54.234375 "/></g></svg>